<?xml version="1.0" encoding="utf-8" ?>
<svg baseProfile="full" height="300mm" version="1.1" viewBox="0,0,200,300" width="200mm" xmlns="http://www.w3.org/2000/svg" xmlns:ev="http://www.w3.org/2001/xml-events" xmlns:xlink="http://www.w3.org/1999/xlink"><defs /><rect fill="#222222" height="300" width="200" x="0" y="0" /><text fill="#FFFFFF" style="font-size:12px; font-family:Arial; font-weight:bold;" x="10" y="20">Over 1km Workouts</text><text fill="#FFFFFF" style="font-size:4px; font-family:Arial" x="10" y="280">ATHLETE</text><text fill="#FFFFFF" style="font-size:9px; font-family:Arial" x="10" y="290">underwindfall</text><text fill="#FFFFFF" style="font-size:4px; font-family:Arial" x="120" y="280">STATISTICS</text><text fill="#FFFFFF" style="font-size:3px; font-family:Arial" x="120" y="285">Number: 17</text><text fill="#FFFFFF" style="font-size:3px; font-family:Arial" x="120" y="290">Weekly: 1.9</text><text fill="#FFFFFF" style="font-size:3px; font-family:Arial" x="141" y="285">Total: 54.6 km</text><text fill="#FFFFFF" style="font-size:3px; font-family:Arial" x="141" y="290">Avg: 3.2 km</text><text fill="#FFFFFF" style="font-size:3px; font-family:Arial" x="167" y="285">Min: 1.7 km</text><text fill="#FFFFFF" style="font-size:3px; font-family:Arial" x="167" y="290">Max: 4.7 km</text><polyline fill="none" points="44.798160634352826,32.25 40.215256329625845,33.08049312001094 43.032270902302116,46.17644578238833 41.05615620210301,47.39018986426527 37.65051171858795,44.77105214621406 36.305071922717616,45.85703867973643 37.65051171858795,69.81168665620498 34.70736216509249,71.28084670062526 26.760858370456845,72.75 25.541553555522114,66.93722358168452 25.667688536224887,56.65282201321679 20.20183936553076,56.014028404228156 20.41206433356274,63.487833808438154 21.96772909758147,65.40416605075006 23.313168893568218,65.59579864391708 24.868833657586947,64.50987909917603 25.3733735808637,57.8665263572766 22.47226902109105,56.58894270975725 20.622289301711135,58.18592147208983 20.580244307988323,63.99885686195921 22.051819084910676,65.46804359459202 23.439303874387406,65.59579864391708 24.616563695832156,65.46804359459202 25.079058625618927,64.25436808267841 25.205193606438115,57.738768222072395 23.14498891902622,56.46118406445021 20.580244307988323,57.738768222072395 20.41206433356274,63.807223312644055 21.67341414222028,65.21253334300127 24.616563695832156,65.34028849433525 25.289283593767323,60.86882785067428 25.03701363201253,57.41937266092282 23.81770881684497,56.58894270975725 21.379099186859094,57.09997678096988 20.87455926334951,64.82926758323447 22.47226902109105,65.72355364219402 24.78474367025774,65.21253334300127 25.16314861283172,60.29392123466823 25.03701363201253,64.50987909917603" stroke="#4dd2ff" stroke-linecap="round" stroke-linejoin="round" stroke-width="0.5"><title>2022-05-04 3.1km</title></polyline><polyline fill="none" points="89.48301186657045,32.75313753125374 89.64858025149442,32.25 89.06909090396948,32.941813898214605 89.85554073285311,32.75313753125374 89.31744348153006,33.25627425900893 87.82732801616658,33.3820583151828 86.66834932100028,33.75941018294543 84.92988127807621,33.63362627726747 85.3851943371119,33.948085947398795 85.13684175955132,34.57700434557046 85.63354691455606,35.017246477189474 85.46797852951568,35.583271171111846 85.59215481823776,36.33796918037115 85.92329158843495,36.90399150105077 86.21303626219742,38.098924171121325 86.21303626219742,38.72783428177354 86.5441730322782,39.23096146649914 86.87530980224255,40.48877591238124 87.20644657243975,42.62704894389026 87.16505447600503,43.19305996381445 87.20644657243975,45.20553535368526 87.33062286116183,45.897320799704175 87.7445438237628,46.463325943564996 86.99948609108105,47.532443996024085 85.75772320327815,47.658222351950826 85.42658643331379,47.217997886706144 85.01266547071282,46.77777280626469 84.01925516058691,46.08598929393338 83.43976581294555,45.897320799704175 82.44635550270323,45.14264569239458 81.74268986622337,45.07975601864746 81.32876890373882,45.64576263149502 81.12180842249654,46.21176822722191 81.20459261501674,47.46955479920143 81.5771214812994,48.66444739091094 81.61851357750129,49.35622524074279 81.5771214812994,51.24288438257645 81.61851357750129,52.50065086630639 81.78408196265809,53.82130026930827 81.61851357750129,55.83370776110678 81.74268986622337,56.462582465901505 81.74268986622337,57.1543431909231 81.4529451924609,57.657440946029965 81.37016100005712,58.852294894109946 81.6599056738196,59.984257611999055 81.70129777002148,60.61312403087504 81.82547405885998,61.30487564174109 81.74268986622337,62.49971575534437 81.99104244390037,63.757437294814736 82.19800292525906,65.2038108574634 82.52913969522342,66.39863618311938 82.57053179142531,67.09037508966867 82.9016685616225,68.34807830123464 82.44635550270323,69.79443078712211 81.86686615506187,70.29750835610321 81.37016100005712,70.54904683917994 80.74927955609746,70.80058512158575 80.12839811237063,70.8634696607478 79.54890876472928,71.17789216854726 77.56208814424463,71.4294299488829 74.87160188762937,71.93250490672654 74.20932834746782,72.24692634760868 73.54705480730627,72.3726948358817 72.30529191950336,72.75 71.68441047577653,72.62423166216468 71.39466580189764,72.05827352072811 71.18770532053895,70.73770056987996 70.89796064677648,70.17173903918592 70.6496080692159,68.7882732389553 70.6496080692159,68.0965380607231 70.52543178061023,66.96460449247388 70.60821597301401,66.33575075259432 70.8151764543727,62.562601951678516 70.93935274309479,61.99662573359092 70.98074483929668,60.738897164032096 70.8151764543727,59.984257611999055 70.8151764543727,59.355389937525615 70.6910001655342,58.72652100768755 70.8565685505746,57.4058921689284 70.6496080692159,56.83990668616025 70.02872662537266,56.71413199615199 68.58000325644389,56.273920186184114 67.95912181248423,56.21103273445624 66.63457473216113,56.02237030444667 65.8895169995958,56.02237030444667 65.26863555575255,56.14814527035924 65.26863555575255,57.28011770514422 65.18585136323236,57.97187663492514 65.14445926703047,58.60074707123567 65.22724345943425,59.795597441581776 65.14445926703047,61.05332977735088 65.64116442203522,61.49353490830981 65.55838022963144,62.87703274434898 65.43420394079294,63.568779384106165 65.97230119223241,64.70072515419452 67.0071035985602,65.3924677890609 68.29025858244859,65.64401018887293 69.44923727784771,65.07803950709058 69.82176614401396,64.57495360262692 70.02872662537266,64.00898100016639 70.11151081800926,60.42446423691581 70.31847129913513,58.663634045777144 70.31847129913513,58.03476373493322 70.02872662537266,57.53166658259579 69.44923727784771,57.09145591506967 68.86974793020636,56.83990668616025 67.50380875368137,56.71413199615199 66.84153521351982,56.96568132561515 66.30343796219677,57.28011770514422 65.8895169995958,57.78321525926003 65.64116442203522,58.286312009906396 65.55838022963144,59.544050371594494 65.64116442203522,60.172917669435265 65.59977232583333,61.367762076464714 65.51698813319672,62.62548813523608 65.64116442203522,64.00898100016639 65.97230119223241,64.57495360262692 66.51039844355546,65.14092518857797 67.0898877910804,65.51823901425814 68.41443487128709,65.64401018887293 69.5734135665698,65.45535340791685 69.86315824044868,64.95226810616441 70.07011872157454,64.2605245047016 70.19429501041304,63.568779384106165 70.19429501041304,62.185284585895715 70.27707920293324,61.55642130546039 70.23568710661493,60.99044327950105 70.31847129913513,60.42446423691581 70.27707920293324,58.47497308423044 70.15290291421115,57.90898952228599 69.82176614401396,57.34300494333729 68.78696373768616,56.71413199615199 68.12469019752461,56.651244632463204 66.38622215471696,56.902794012159575 65.64116442203522,57.846102397015784 65.55838022963144,58.663634045777144 65.64116442203522,61.367762076464714 65.55838022963144,62.05951203018776 65.64116442203522,62.75126046515652 65.51698813319672,63.31723532723845 65.43420394079294,63.88320917263627 65.7653407107573,64.3862961816485 66.13786957715638,64.82649665538338 66.67596682859585,65.2038108574634 67.25545617612079,65.58112460785196 67.83494552376214,65.70689575752476 68.45582696760539,65.64401018887293 69.03531631524675,65.70689575752476 69.5734135665698,65.3924677890609 70.11151081800926,64.19763864731067 70.27707920293324,60.92755676951492 70.11151081800926,58.160537897696486 69.98733452917077,57.59455377049744 69.44923727784771,57.1543431909231 68.78696373768616,56.77701934729703 67.54520084988326,56.651244632463204 66.92431940615643,56.77701934729703 66.42761425091885,57.28011770514422 65.97230119223241,57.78321525926003 65.80673280719202,58.47497308423044 65.68255651835352,59.795597441581776 65.72394861455541,60.42446423691581 65.59977232583333,61.68219406189746 65.59977232583333,62.37394332536496 65.51698813319672,63.00280497377389 65.68255651835352,64.2605245047016 65.93090909579769,64.88938238704577 66.88292730972171,65.70689575752476 67.50380875368137,65.76978131342912 69.32506098900922,65.64401018887293 69.73898195161019,65.2666965140088 69.94594243285246,64.63783938469714 70.07011872157454,63.31723532723845 70.11151081800926,62.75126046515652 70.02872662537266,62.185284585895715 70.23568710661493,61.61930768980528 70.15290291421115,60.361577613890404 70.19429501041304,60.99044327950105 70.31847129913513,61.55642130546039 70.35986339545343,63.3801213602128 70.27707920293324,63.94609509257134 70.02872662537266,64.51206780815846" stroke="#4dd2ff" stroke-linecap="round" stroke-linejoin="round" stroke-width="0.5"><title>2022-05-04 3.2km</title></polyline><polyline fill="none" points="134.48301186657045,32.75313753125374 134.64858025149442,32.25 134.06909090396948,32.941813898214605 134.85554073285311,32.75313753125374 134.31744348153006,33.25627425900893 132.82732801616658,33.3820583151828 131.66834932100028,33.75941018294543 129.9298812780762,33.63362627726747 130.3851943371119,33.948085947398795 130.13684175955132,34.57700434557046 130.63354691455606,35.017246477189474 130.46797852951568,35.583271171111846 130.59215481823776,36.33796918037115 130.92329158843495,36.90399150105077 131.21303626219742,38.098924171121325 131.21303626219742,38.72783428177354 131.5441730322782,39.23096146649914 131.87530980224255,40.48877591238124 132.20644657243975,42.62704894389026 132.16505447600503,43.19305996381445 132.20644657243975,45.20553535368526 132.33062286116183,45.897320799704175 132.7445438237628,46.463325943564996 131.99948609108105,47.532443996024085 130.75772320327815,47.658222351950826 130.4265864333138,47.217997886706144 130.01266547071282,46.77777280626469 129.0192551605869,46.08598929393338 128.43976581294555,45.897320799704175 127.44635550270323,45.14264569239458 126.74268986622337,45.07975601864746 126.32876890373882,45.64576263149502 126.12180842249654,46.21176822722191 126.20459261501674,47.46955479920143 126.5771214812994,48.66444739091094 126.61851357750129,49.35622524074279 126.5771214812994,51.24288438257645 126.61851357750129,52.50065086630639 126.78408196265809,53.82130026930827 126.61851357750129,55.83370776110678 126.74268986622337,56.462582465901505 126.74268986622337,57.1543431909231 126.4529451924609,57.657440946029965 126.37016100005712,58.852294894109946 126.6599056738196,59.984257611999055 126.70129777002148,60.61312403087504 126.82547405885998,61.30487564174109 126.74268986622337,62.49971575534437 126.99104244390037,63.757437294814736 127.19800292525906,65.2038108574634 127.52913969522342,66.39863618311938 127.57053179142531,67.09037508966867 127.9016685616225,68.34807830123464 127.44635550270323,69.79443078712211 126.86686615506187,70.29750835610321 126.37016100005712,70.54904683917994 125.74927955609746,70.80058512158575 125.12839811237063,70.8634696607478 124.54890876472928,71.17789216854726 122.56208814424463,71.4294299488829 119.87160188762937,71.93250490672654 119.20932834746782,72.24692634760868 118.54705480730627,72.3726948358817 117.30529191950336,72.75 116.68441047577653,72.62423166216468 116.39466580189764,72.05827352072811 116.18770532053895,70.73770056987996 115.89796064677648,70.17173903918592 115.6496080692159,68.7882732389553 115.6496080692159,68.0965380607231 115.52543178061023,66.96460449247388 115.60821597301401,66.33575075259432 115.8151764543727,62.562601951678516 115.93935274309479,61.99662573359092 115.98074483929668,60.738897164032096 115.8151764543727,59.984257611999055 115.8151764543727,59.355389937525615 115.6910001655342,58.72652100768755 115.8565685505746,57.4058921689284 115.6496080692159,56.83990668616025 115.02872662537266,56.71413199615199 113.58000325644389,56.273920186184114 112.95912181248423,56.21103273445624 111.63457473216113,56.02237030444667 110.8895169995958,56.02237030444667 110.26863555575255,56.14814527035924 110.26863555575255,57.28011770514422 110.18585136323236,57.97187663492514 110.14445926703047,58.60074707123567 110.22724345943425,59.795597441581776 110.14445926703047,61.05332977735088 110.64116442203522,61.49353490830981 110.55838022963144,62.87703274434898 110.43420394079294,63.568779384106165 110.97230119223241,64.70072515419452 112.0071035985602,65.3924677890609 113.29025858244859,65.64401018887293 114.44923727784771,65.07803950709058 114.82176614401396,64.57495360262692 115.02872662537266,64.00898100016639 115.11151081800926,60.42446423691581 115.31847129913513,58.663634045777144 115.31847129913513,58.03476373493322 115.02872662537266,57.53166658259579 114.44923727784771,57.09145591506967 113.86974793020636,56.83990668616025 112.50380875368137,56.71413199615199 111.84153521351982,56.96568132561515 111.30343796219677,57.28011770514422 110.8895169995958,57.78321525926003 110.64116442203522,58.286312009906396 110.55838022963144,59.544050371594494 110.64116442203522,60.172917669435265 110.59977232583333,61.367762076464714 110.51698813319672,62.62548813523608 110.64116442203522,64.00898100016639 110.97230119223241,64.57495360262692 111.51039844355546,65.14092518857797 112.0898877910804,65.51823901425814 113.41443487128709,65.64401018887293 114.5734135665698,65.45535340791685 114.86315824044868,64.95226810616441 115.07011872157454,64.2605245047016 115.19429501041304,63.568779384106165 115.19429501041304,62.185284585895715 115.27707920293324,61.55642130546039 115.23568710661493,60.99044327950105 115.31847129913513,60.42446423691581 115.27707920293324,58.47497308423044 115.15290291421115,57.90898952228599 114.82176614401396,57.34300494333729 113.78696373768616,56.71413199615199 113.12469019752461,56.58835725605604 111.38622215471696,56.902794012159575 110.64116442203522,57.846102397015784 110.55838022963144,58.663634045777144 110.64116442203522,61.367762076464714 110.55838022963144,62.05951203018776 110.64116442203522,62.75126046515652 110.51698813319672,63.31723532723845 110.43420394079294,63.88320917263627 110.7653407107573,64.3862961816485 111.13786957715638,64.82649665538338 111.67596682859585,65.2038108574634 112.25545617612079,65.58112460785196 112.83494552376214,65.70689575752476 113.45582696760539,65.64401018887293 114.03531631524675,65.70689575752476 114.5734135665698,65.3924677890609 115.11151081800926,64.19763864731067 115.27707920293324,60.92755676951492 115.11151081800926,58.160537897696486 114.98733452917077,57.59455377049744 114.44923727784771,57.1543431909231 113.78696373768616,56.77701934729703 112.54520084988326,56.651244632463204 111.92431940615643,56.77701934729703 111.42761425091885,57.28011770514422 110.97230119223241,57.78321525926003 110.80673280719202,58.47497308423044 110.68255651835352,59.795597441581776 110.72394861455541,60.42446423691581 110.59977232583333,61.68219406189746 110.59977232583333,62.37394332536496 110.51698813319672,63.00280497377389 110.68255651835352,64.2605245047016 110.93090909579769,64.88938238704577 111.88292730972171,65.70689575752476 112.50380875368137,65.76978131342912 114.32506098900922,65.64401018887293 114.73898195161019,65.2666965140088 114.94594243285246,64.63783938469714 115.07011872157454,63.31723532723845 115.11151081800926,62.75126046515652 115.02872662537266,62.185284585895715 115.23568710661493,61.61930768980528 115.15290291421115,60.361577613890404 115.19429501041304,60.99044327950105 115.31847129913513,61.55642130546039 115.35986339545343,63.3801213602128 115.27707920293324,63.94609509257134 115.02872662537266,64.51206780815846" stroke="#4dd2ff" stroke-linecap="round" stroke-linejoin="round" stroke-width="0.5"><title>2022-05-04 3.2km</title></polyline><polyline fill="none" points="174.01877843192779,72.75 170.15849623200484,63.233872505195905 170.66834482434206,33.799234757287195 161.12689259438775,32.25 161.05405708122998,44.20112742178026 163.74897106993012,48.95937495690305 168.70178596768528,47.07821220843471 169.3573055868037,36.34439674435998 166.80806262465194,33.245937126659555 162.07375426613726,35.237806011893554 162.29226080561057,47.2995258042356 164.91433928115293,48.84871850119089 169.0659635339398,46.30361392709892 169.21163456025533,35.237806011893554 165.49702338664792,33.245937126659555 162.1465897790622,35.56978346349206 161.78241221327335,46.30361392709892 163.89464209624566,48.516749002126744 167.02656916389242,48.62740552413743 169.21163456025533,46.30361392709892 169.21163456025533,35.34846518444829 164.55016171513125,33.46725624531973 161.85524772643112,36.67637353288592 162.07375426613726,47.07821220843471 167.8277598095592,48.84871850119089 169.64864763943478,46.85689852409996 169.79431866598316,35.79110165408929 167.53641775646247,33.35659669729648 164.4044906888157,33.245937126659555 161.41823464701883,36.89769128174521 162.1465897790622,46.96755537719582 166.95373365096748,49.180687801446766 169.72148315259255,45.971642903838074 168.9931280205492,34.131213070621016 167.24507570359856,32.91395828334498 162.29226080561057,33.90989421700942 160.98122156807221,44.53309950532275 163.31195799051784,48.84871850119089 168.55611494160257,48.295435892243404 169.86715417914093,39.77481397552765 168.48327942821197,34.24187246413203 163.89464209624566,33.245937126659555 161.5639056735672,38.22559591894969 161.41823464701883,46.41427089087665 163.60330004338175,48.62740552413743 167.7549242961686,48.295435892243404 169.3573055868037,45.63967168185627 169.21163456025533,36.012419756443705 162.29226080561057,35.12714681707439 161.27256362093613,40.10678871019627" stroke="#4dd2ff" stroke-linecap="round" stroke-linejoin="round" stroke-width="0.5"><title>2022-03-10 3.4km</title></polyline><polyline fill="none" points="36.19063734426163,112.88130278413882 33.99455561861396,107.6914724460803 34.11656015901826,82.85362405865453 30.944442110834643,81.1853627389064 25.942255958216265,81.0 26.003258228302002,91.65823727089446 28.016333143459633,94.90200004840153 31.49346254230477,94.53128544939682 32.713507945416495,93.04842409357661 33.20152610656805,83.59507160965586 29.480387627147138,81.6487692623341 26.49127638968639,83.68775247049052 26.369271849282086,92.86306609108578 30.395421679597348,94.90200004840153 32.957517025992274,92.4923498640128 32.957517025992274,83.13166702922899 29.480387627147138,81.83413174244924 26.49127638968639,83.87311413625139 26.369271849282086,92.3996707610786 28.99236946599558,94.90200004840153 32.8355124858208,92.6777080144966 33.07952156639658,84.15115649611107 31.49346254230477,82.01949414805858 27.955330873373896,82.20485647997702 26.73528547026217,83.40970983309671 26.369271849282086,92.02895416400861 29.480387627147138,94.99467865176848 32.713507945416495,93.32646095851669 32.957517025992274,84.15115649611107 32.16448751394637,82.48289983911673 29.358383086975664,81.74145051144296 26.49127638968639,84.05847572805942 26.796287740347907,93.41913987661246 30.639430760173127,94.99467865176848 33.384532917058095,92.6777080144966 32.16448751394637,82.1121753231564 28.32134449435398,81.74145051144296 26.49127638968639,84.15115649611107 26.552278659772128,92.86306609108578 28.687358115101233,94.7166427859338 31.554464812390506,94.80932142629172 33.01851929631084,92.30699163943063 32.53050113492645,82.94630506719113 27.40631044190377,82.29753761808388 25.637244607321918,87.95105205941945 25.332233256660402,84.61456005915534 25.637244607321918,81.0 34.055557888932526,81.46340670844074 34.42157150967978,101.389457613579 35.76362145319581,111.30582470688387 39.6677667433396,120.10989836740191 39.057744041783735,121.5" stroke="#4dd2ff" stroke-linecap="round" stroke-linejoin="round" stroke-width="0.5"><title>2022-03-08 3.7km</title></polyline><polyline fill="none" points="75.16751160821877,81.0 74.13455246330705,82.01257883454673 73.96794614952523,85.35406030107697 77.3333936863346,99.22580042372283 76.90021727071144,104.84515801968519 77.43335747451056,110.66688366282324 79.89913091738708,120.43695765863231 81.03205385047477,121.5 79.33266945078503,114.71670094071305 77.5,110.5656374021055 77.10014484717976,98.26391592151776 77.59996378829237,95.27698815900658 77.10014484717976,93.75819783780025 75.73397307482082,93.0494259083498 74.26783751428593,87.22729580175655 74.86762024369091,86.16410978320346" stroke="#4dd2ff" stroke-linecap="round" stroke-linejoin="round" stroke-width="0.5"><title>2022-01-09 1.7km</title></polyline><polyline fill="none" points="132.97806729364675,83.99094895710004 132.56796681252308,83.36783695485792 134.08533859276213,83.86632665627985 133.8392783042509,82.30854369571898 135.23361994011793,81.93467462834087 134.16735868912656,81.0 133.34715772676282,83.49245945486473 134.00331849663053,81.24924684129655 133.9623084483901,82.68241231539287 130.06635387742426,82.93165781287826 129.77928354067262,84.36481556139188 130.845544791664,86.85724814407877 131.4606955134077,95.95445815729909 129.73827349254861,96.01676690051681 125.96534906583838,93.46209822490346 125.67827872897033,94.08519007399445 126.0063591140788,107.41905750031583 127.31868065369781,117.57484537502751 124.77605767047498,119.25706054430339 116.73808823968284,121.5 115.09768631507177,117.45023648324423 115.42576670006383,105.61216490756487 109.84840015613008,104.80217517720303 109.9714303005021,111.59356245447998 111.44779203273356,113.8365569821326 113.21122410183307,113.96116731662187 114.52354564145207,112.83967251543072 114.6465757858241,106.67137907541473 113.41627434233669,105.36293752220809 112.10395280248486,105.30063064483693 110.38153078174219,106.98291197020444 110.5455709741218,113.15119925324689 112.47304323560093,113.96116731662187 114.52354564145207,112.96428324774024 114.56455568945967,107.0452185117756 113.37526429421268,105.54985807990306 110.58658102224581,106.29753919132054 110.50456092611421,111.9673959952197 112.02193270635325,113.77425179613056 114.68758583383169,112.59045090118889 114.6465757858241,107.41905750031583 113.58031453471631,105.48755123966839 110.79163126286585,105.86139209399698 110.34052073361818,112.34122908796417 111.85789251397364,114.02347246510908 114.48253559332807,112.71506173320813 114.6465757858241,106.73368567915168 114.19546525657643,105.67447172291577 112.47304323560093,105.17601685246336 110.5455709741218,106.54676583048422 110.34052073361818,112.4658400194894 111.44779203273356,113.89886215567822 112.80112362059299,114.02347246510908 114.6465757858241,112.59045090118889 114.6465757858241,106.9206054158858 113.58031453471631,105.54985807990306 110.79163126286585,105.98600561261992 110.01244034862611,109.47516393320984 109.76638005988207,104.67756118596299 115.58980689244345,104.24141182482708 118.25546001992188,88.91349004025687 119.36273131903727,88.4773186489183 123.54575622698758,90.72047931072302 124.61201747797895,90.22200055685244 124.89908781484701,88.10345697111916 130.39443426241633,88.5396288849588 131.87079599453136,87.23111131475889 134.65947926649824,87.9788363124535 134.33139888150617,82.30854369571898 134.00331849663053,83.80401548725786 132.44493666815106,83.61708190513309" stroke="#4dd2ff" stroke-linecap="round" stroke-linejoin="round" stroke-width="0.5"><title>2021-12-30 4.7km</title></polyline><polyline fill="none" points="174.0270576728508,121.5 169.08023501560092,109.0789417414635 170.45435242028907,82.2526243282482 161.2477658081334,81.0 161.17905993806198,93.52610825138981 163.72117713675834,96.34444125561276 166.81294129765593,96.24005882247002 168.87411740468815,93.83925711302436 169.21764675620943,84.02717032315559 166.0571767250076,81.62631253930158 162.3470597320702,82.87893536692718 161.2477658081334,93.31734223940293 164.13341235835105,96.13567636880907 166.40070607629605,96.34444125561276 168.59929392393678,94.36117146571632 169.14894088567235,83.92278543140856 166.9503530380316,81.83508321875706 162.96541256434284,82.46139475793461 160.9729423271492,92.69104370317655 163.2402360450942,96.24005882247002 167.0877647784073,95.82252888212679 169.14894088567235,93.7348741798487 169.21764675620943,84.54909446992679 166.60682368674316,81.73069788943394 161.66000102972612,83.19209060521098 161.31647167820483,93.7348741798487 164.339529969031,96.24005882247002 168.59929392393678,94.25678863702342 169.08023501560092,83.92278543140856 165.09529454167932,81.2087709295447 161.79741277033463,83.29647564282641 161.2477658081334,93.7348741798487 163.17153017478995,96.03129389428068 168.18705870234407,94.88308529782807 169.42376436688937,84.86224870776641 168.7367056645453,82.87893536692718 165.64494150341488,81.83508321875706 162.14094212139025,83.60963063072995 161.45388341881335,94.25678863702342 163.5150595260784,96.24005882247002 167.56870587030426,95.9269113986229 168.87411740468815,94.36117146571632 169.14894088567235,84.75786398243508 167.43129412969574,81.62631253930158 161.38517754874192,82.46139475793461 161.38517754874192,94.56993706105277" stroke="#4dd2ff" stroke-linecap="round" stroke-linejoin="round" stroke-width="0.5"><title>2021-12-27 3.1km</title></polyline><polyline fill="none" points="39.07135023130104,170.25 41.42711729556322,132.1988865841995 23.57288270490244,129.75 26.052637509535998,155.3688066584873 30.14423293620348,159.3245898137102 35.72368124546483,159.70133020123467 39.44331345194951,155.9339195523644 38.947362491395324,136.90826599829597 31.38411033852026,132.01051091839327 25.92864976869896,135.5896421315265 27.78846587240696,154.61532227188582 32.623987740371376,159.70133020123467 38.82337475055829,156.49903210881166 38.327423790004104,136.90826599829597 32.12803677935153,132.57563780184137 26.052637509535998,135.77801708236802 28.284416832961142,156.8757736250409 34.9797548041679,159.88970033958321 39.195337971206754,156.31066129467217 38.327423790004104,137.47338994854363 32.376012260094285,132.57563780184137 28.532392313703895,132.95238886983134 25.432698808144778,137.28501533623785 26.54858847009018,155.3688066584873 32.87196322064847,159.13621956296265 39.07135023130104,156.49903210881166 38.82337475055829,138.03851356066298 31.508098078425974,132.76401335507398 25.556686548516154,137.09664068586426 26.54858847009018,154.61532227188582 32.12803677935153,159.13621956296265 37.45950960833579,158.38273818517337 39.815276672597975,152.91998020425672 38.45141153037548,136.90826599829597 30.516196156386286,132.3872622117633 26.672576209995896,133.89426588092465 25.68067428842187,137.85013906122185 26.672576209995896,155.3688066584873 34.9797548041679,160.2664405014366 39.44331345194951,154.23857985367067 38.20343605009839,135.96639199584024 33.6158896619454,132.3872622117633 28.03644135221839,132.76401335507398 24.44079688657075,139.35713400540408 26.052637509535998,156.31066129467217 33.98785288259387,159.5129600262735 39.56730119185522,154.42695108160842 39.815276672597975,136.71989127324196 31.136134857777506,131.44538369652582 25.432698808144778,134.8361419517314 25.432698808144778,154.42695108160842 31.01214711787179,159.3245898137102 38.947362491395324,154.61532227188582 38.69938701065257,137.66176452307263 37.087546387687325,134.2710164221935 30.268220676574856,132.1988865841995 25.06073558749631,136.15476687141927" stroke="#4dd2ff" stroke-linecap="round" stroke-linejoin="round" stroke-width="0.5"><title>2021-12-07 3.6km</title></polyline><polyline fill="none" points="80.87664798856713,149.5143787494453 79.09946483653039,131.15405073013972 71.84855757676996,129.75 70.49789838120341,132.8821081648639 71.20877164183185,144.87035464899964 75.11857457645237,146.9223702136369 78.24641692382284,146.05836460893624 79.24163948884234,144.00634576720768 78.60185355390422,132.9901115714456 72.41725618531927,131.58606560630142 70.71116035943851,137.95824495877605 72.5594308373984,146.27436613920145 77.60663098888472,146.7063689417264 79.38381414115429,139.6862806606514 78.03315494558774,132.55809781627613 72.41725618531927,132.45009432375082 71.1376843159087,141.09030560415704 72.98595479410142,145.9503638111055 75.54509853292257,147.89437487002579 78.38859157566912,147.13837139925454 78.88620285852812,136.2302037377085 77.60663098888472,133.09811495634494 72.41725618531927,132.01808013761183 70.64007303328253,136.98622245099978 72.98595479410142,147.03037081705406 78.24641692382284,146.8143695886247 78.60185355390422,133.74613481250708 75.75836051092483,131.9100765369658 72.5594308373984,132.55809781627613 70.9244223376736,136.0141981971974 73.05704212002456,146.7063689417264 77.39336901064962,146.9223702136369 78.74402820621617,145.30235857286607 79.24163948884234,135.79819256989867 76.39814644563012,132.01808013761183 72.41725618531927,132.6661012872937 71.1376843159087,134.39415389235364 71.42203362006694,144.3303492598643 74.40770131559111,147.35437249872484 77.67771831504069,146.8143695886247 78.81511553237215,145.30235857286607 79.1705521629192,135.25817812551395 77.03793238056824,132.55809781627613 74.19443933735602,131.9100765369658 71.49312094645575,135.1501751714095 71.56420827237889,145.4103594997141 75.47401120653376,147.13837139925454 79.02837751060724,144.11434695281787 78.60185355390422,134.39415389235364 73.83900270680897,132.23408727359492 71.49312094645575,135.79819256989867 72.48834351147525,146.05836460893624 75.33183655468747,147.24637195991818 78.95729018445127,145.19435762416106 78.88620285852812,134.82616618130123 77.53554366296157,132.6661012872937 74.54987596767023,132.01808013761183 71.99073222908191,133.63813155685784 70.9244223376736,136.5542118869489 70.64007303328253,145.84236299208715 70.49789838120341,130.93804316292517 79.88142542354763,130.61403164989315 80.52121135802008,154.6983585668204 84.50210161856376,170.25" stroke="#4dd2ff" stroke-linecap="round" stroke-linejoin="round" stroke-width="0.5"><title>2021-12-06 4.4km</title></polyline><polyline fill="none" points="134.10594194813166,129.75 128.9643848699052,131.34277819143608 127.71643412287813,133.46647205823683 121.82610659650527,133.84570185656776 117.73282814584672,140.21670586511027 116.48487739881966,146.20838595039095 117.43331996642519,153.71681365650147 116.03561512974557,160.39084703836124 111.54299244005233,158.64650872183847 107.64938610908575,158.7223496848601 107.44971398962662,166.9889238771575 109.04709094576538,169.71912905041245 111.64282849989831,170.09832266130252 113.93905787472613,168.27818987620412 114.08881196414586,161.1492525038193 112.19192682858557,159.0257133851701 110.5945498724468,158.79819063274772 108.49799261707813,160.542528252583 108.14856640796643,168.2023508209677 110.29504169302527,170.25 112.64118909765966,170.0224839694274 113.88913984468672,168.2023508209677 113.93905787472613,161.68013542878907 111.49307441024575,159.0257133851701 108.39815655723214,160.61836883693468 107.84905822854489,167.67147701006616 110.5945498724468,170.17416133842198 113.48979560565203,168.58154594580992 113.93905787472613,161.37677384834387 112.44151697808411,159.3290768431034 110.24512366298586,158.7223496848601 108.44807458727155,160.39084703836124 108.09864837815985,167.89899444836192 111.09373017121106,170.25 113.43987757584546,168.884901773592 113.68946772522759,160.77004996035248 110.69438593205996,158.87403156529763 108.49799261707813,160.61836883693468 108.44807458727155,167.29228097645682 109.54627124464605,169.41577388893347 111.19356623094063,169.8708065401006 113.43987757584546,168.6573849255219 113.93905787472613,160.61836883693468 111.84250061947387,158.7223496848601 110.09536957356613,159.55659927759552 108.6477467068471,161.22509296695353 108.24840246781241,164.1070193531341 107.94889428850729,160.3150064086367 115.63627089071088,157.81225713077583 118.33184450457338,140.97515160634066 121.67635250685271,137.7896693177754 128.36536851141136,135.51430847193114 134.4054501275532,137.33459823887097 131.65995848365128,134.0732395539526 135.05438451608643,130.96354589422117 137.55028601025697,130.8876993895392" stroke="#4dd2ff" stroke-linecap="round" stroke-linejoin="round" stroke-width="0.5"><title>2021-11-11 3.8km</title></polyline><polyline fill="none" points="187.75,136.5270920976909 184.87605042010546,136.64200674147287 184.15756302524824,137.44640796195017 183.1743697479833,137.0442076327745 180.03571428568102,132.67742501865723 177.50210084032733,134.1713317909016 173.7962184874341,138.538091735958 170.6953781512566,139.51485791847517 163.24579831946176,138.42317784960323 160.8634453782579,140.49162078580412 157.08193277323153,139.22757409134647 149.8970588236116,138.48063479854318 148.7626050420804,138.9977468232537 147.25,142.67496108925843 148.64915966393892,139.28503087966237 150.23739495803602,138.71046247976483 160.71218487410806,140.20433793365373 166.87605042022187,139.91705479467055 168.50210084032733,140.72144686087267 169.90126050426625,142.84732935520879 172.4726890756283,143.9964484891825 171.11134453793056,157.8429732962977 170.3172268907074,158.58986233624455 168.27521008404437,158.01533247767657 165.1743697479833,158.81967395881657 164.9852941177087,165.02451839667629 165.8928571428405,167.20767258791602 168.84243697486818,167.32257498134277 170.09033613454085,165.59903426324308 170.3172268907074,162.09446963806113 169.59873949585017,160.65816033119336 165.93067226896528,159.96872931800317 165.21218487399165,163.12860790039122 165.13655462185852,159.27929665289412 165.77941176481545,158.5324094020616 169.4852941177087,158.4749564563681 171.37605042022187,156.7513627508306 172.43487394961994,148.1906943898066" stroke="#4dd2ff" stroke-linecap="round" stroke-linejoin="round" stroke-width="0.5"><title>2021-11-09 2.8km</title></polyline><polyline fill="none" points="46.61761553172255,180.32270848017652 47.79500911658397,178.93880198559782 46.95084013114683,178.5 45.040352427458856,178.56750807183562 43.28536953678122,179.748894967066 40.841722473851405,180.2889547979721 39.33110428950749,182.2804105146788 38.44250535755418,182.51668336502917 34.46602513699327,180.05267883419583 30.600619782926515,180.32270848017652 25.580035817227326,179.61387973971432 24.53593207214726,179.91766384955554 23.514043300412595,182.11164399077825 22.558799448539503,182.75295588518202 21.87013527628733,185.891973746242 23.91391281981487,199.2237120141217 23.736193033400923,210.7657857096201 26.33534490945749,218.39257166157768 23.291893567424268,219.0 22.314434742263984,216.4690341938549 19.893002652621362,204.7586059121677 17.20499088341603,199.35871158199734 17.98251494881697,198.75121267749637 19.87078767933417,198.58246259433508 23.62511816690676,199.29121181154915 22.625444368459284,189.7397225847235" stroke="#4dd2ff" stroke-linecap="round" stroke-linejoin="round" stroke-width="0.5"><title>2021-11-07 3.5km</title></polyline><polyline fill="none" points="80.67998280772008,217.41061516848276 80.97287596110255,217.9827946216974 75.28238041035365,216.7112833293504 74.15264967596158,213.08744829022908 72.93923518364318,212.51526004011976 70.47056431963574,213.91394061385654 66.78847896342631,218.30067165137734 66.11900889861863,217.21988845567103 69.88477801298723,197.4472660679021 71.47476941684727,180.7889913499239 73.02291894168593,178.94508294021944 76.20290174952243,178.5 82.26997421158012,180.02599606171134 85.0315382288536,182.3785589946201 88.5880979479989,182.50572406323045 88.88099110138137,185.36692468260298 87.03994842316024,192.42444294819143 87.7512603669893,196.23925255431095 85.70100829366129,196.8114700531296 85.32443138223607,198.33737835596548 79.75946146855131,203.1693730719271 77.70920939533971,207.1112091889372 73.81791464367416,211.3708804557973 74.61291034566239,216.64770763152046 76.4539530237671,218.1735208777245 79.34104267810471,217.5377662469691 80.17788025911432,219.0" stroke="#4dd2ff" stroke-linecap="round" stroke-linejoin="round" stroke-width="0.5"><title>2021-11-04 2.2km</title></polyline><polyline fill="none" points="136.64120957779232,178.73667254077736 135.61761297588237,178.5 133.90420127246762,179.31144733409747 133.3256466713501,179.04096532138647 128.18541156122228,181.98243401180662 121.93257144890958,180.05527064138732 119.28457154374337,180.25813097630453 114.27784903388238,179.37906776969612 112.98722723132232,179.8524100634968 112.54218523041345,181.576717230113 111.65210122865392,181.88100490754005 110.85102562716929,186.07335724690347 112.65344573068433,199.3259175199928 112.49768103036331,210.98866493190872 114.56712633441202,216.02537129343546 114.98991623526672,218.35775504235062 113.45452133228537,219.0 112.27516002993798,218.6619766416552 111.56309282849543,214.87606893757766 109.78292482497636,210.92105711631302 109.60490802465938,204.59960712777684 108.64806772279553,202.16561694533448 108.35879042220768,199.52875477224006 108.82608452311251,198.37934046363807 110.4282357263146,198.54837246892566" stroke="#4dd2ff" stroke-linecap="round" stroke-linejoin="round" stroke-width="0.5"><title>2021-11-02 3.0km</title></polyline><polyline fill="none" points="182.63603081839392,178.5 181.60602706146892,178.57549719445524 178.44064966205042,182.23707565123914 176.20478784828447,181.48211671039462 172.86355614895,186.50253814589814 173.0142884060624,187.8614267357043 169.17061584966723,190.35269761568634 163.9703529793769,195.03318012053205 158.06667290901532,202.8085693201865 156.78544872358907,206.09225604942185 152.89153208152857,211.64042728368076 152.51470143877668,213.1123642927996 152.9417761673103,214.99944658999448 154.6249530383502,217.30166199008818 157.68984226626344,218.69807433558162 160.2271685943124,219.0 157.33813366637332,218.77355579609866 154.07226809556596,216.69780487159733 152.99202025291743,215.26363663823577 152.3639691816643,213.2255897513387 152.69055573875085,211.82913778450165 156.81057076650904,206.28097197879106 157.11203528067563,204.20508660057385 161.00595192273613,198.65670146881894 164.5481599648483,194.42925327683042 172.88867819186999,187.48395864333725 176.00381150539033,181.3311245675286 176.65698461956345,181.14238422267954 178.41552761924686,182.38806708468474 181.85724748997018,178.61324578060885 182.4350544756162,178.57549719445524 182.00797974714078,178.95298272378568" stroke="#4dd2ff" stroke-linecap="round" stroke-linejoin="round" stroke-width="0.5"><title>2016-05-06 3.5km</title></polyline><polyline fill="none" points="21.941000592370983,267.75 18.793606538209133,265.5383528799139 17.397584981983528,262.1827024199156 17.829082553915214,260.73365367592487 22.06791164301103,255.35682600970904 22.169440483441576,253.2975761241105 29.124166054825764,244.0688185991312 37.75411749363411,236.5558296058589 41.510684590553865,229.7671944815811 43.566643609898165,230.83508534631983 47.348592916911,227.25 47.60241501801647,227.82209251051245" stroke="#4dd2ff" stroke-linecap="round" stroke-linejoin="round" stroke-width="0.5"><title>2016-03-22 1.7km</title></polyline></svg>