<?xml version="1.0" encoding="utf-8" ?>
<svg baseProfile="full" height="300mm" version="1.1" viewBox="0,0,200,300" width="200mm" xmlns="http://www.w3.org/2000/svg" xmlns:ev="http://www.w3.org/2001/xml-events" xmlns:xlink="http://www.w3.org/1999/xlink"><defs /><rect fill="#222222" height="300" width="200" x="0" y="0" /><text fill="#FFFFFF" style="font-size:12px; font-family:Arial; font-weight:bold;" x="10" y="20">Over 1km Workouts</text><text fill="#FFFFFF" style="font-size:4px; font-family:Arial" x="10" y="280">ATHLETE</text><text fill="#FFFFFF" style="font-size:9px; font-family:Arial" x="10" y="290">underwindfall</text><text fill="#FFFFFF" style="font-size:4px; font-family:Arial" x="120" y="280">STATISTICS</text><text fill="#FFFFFF" style="font-size:3px; font-family:Arial" x="120" y="285">Number: 18</text><text fill="#FFFFFF" style="font-size:3px; font-family:Arial" x="120" y="290">Weekly: 1.8</text><text fill="#FFFFFF" style="font-size:3px; font-family:Arial" x="141" y="285">Total: 59.0 km</text><text fill="#FFFFFF" style="font-size:3px; font-family:Arial" x="141" y="290">Avg: 3.3 km</text><text fill="#FFFFFF" style="font-size:3px; font-family:Arial" x="167" y="285">Min: 1.7 km</text><text fill="#FFFFFF" style="font-size:3px; font-family:Arial" x="167" y="290">Max: 4.7 km</text><polyline fill="none" points="46.94843976944685,32.25 46.59859861287987,32.28543711009843 46.50530763779534,32.320874213124625 46.45866215019487,32.60437078199175 45.99220727465581,32.85242990833649 45.269202217576094,32.60437078199175 44.82607008580817,32.994177824803046 44.05641954118619,33.02961478642828 43.426705459191,33.20679948752513 43.263446252793074,33.38398401174345 42.96025058371015,33.490294641436776 42.49379570817109,33.91553652312723 42.3538592455443,34.340777386154514 42.167277295317035,34.55339743560762 40.814558156300336,34.624270728745614 40.534685230930336,34.41165076424659 40.11487584299175,34.26990397972986 39.97493938030675,34.234467265952844 39.788357430137694,34.340777386154514 39.695066455053166,34.340777386154514 39.648420967452694,34.482524114093394 39.648420967452694,34.766017230271245 39.46183901728364,35.26212909418973 39.275257066998165,35.36843859885994 38.76215670397505,36.077167002964416 38.57557475374779,36.18347601949063 37.85256969666807,36.18347601949063 37.33946933352854,36.14803968773049 36.82636897050543,35.75823957123794 36.546496045193635,35.403875086354674 36.056718425883446,35.12038298879634 35.54361806274392,34.943200198045815 35.193776906176936,34.943200198045815 34.307512642699294,34.836890438600676 33.74776679207571,34.6597073647863 33.56118484179024,34.73058061553456 33.09472996625118,34.55339743560762 32.558306859398726,34.482524114093394 32.2551111903158,34.376214078700286 31.97523826500401,34.376214078700286 31.602074364607688,34.16359381697839 30.99568302638363,34.128157081999234 30.8324238199275,34.234467265952844 30.762455588614102,34.234467265952844 30.762455588614102,34.09272033990419 30.435937175760046,33.986410071112914 30.15606425050646,34.05728359063505 29.946159556449857,34.199030545089045 29.73625486245146,34.26990397972986 29.129863524227403,33.84466294689628 28.38353572343476,33.63204204849899 27.847112616582308,33.525731503774296 27.077462071960326,33.525731503774296 26.79758914670674,33.419420895312214 26.284488783567213,33.38398401174345 25.794711164257023,33.2422364064696 25.234965313633438,33.2422364064696 23.928891662159003,33.06505174074846 23.462436786619946,33.2776733184437 22.949336423480418,33.667478882562136 22.87936819216702,33.8800997385697 22.786077217082493,34.482524114093394 22.646140754397493,34.87232703220798 22.529527035541832,35.510184506027144 22.576172523142304,35.47474803988007 22.13304039137438,35.61649386222416 21.526649053150322,35.65193030015507 21.549971796921454,36.11260334895633 21.480003565666266,36.25434866180876 21.480003565666266,36.431530143745476 21.410035334294662,36.750456365567516 21.153485152695794,37.49461532123678 21.153485152695794,37.88441162438539 20.99022594629787,38.309642978565535 20.78032125235768,39.12466689347639 20.73367576475721,39.62076657464786 20.617062045901548,40.15230040844472 20.59373930207221,40.754703495971626 20.547093814588152,41.10905729823571 20.337189120589755,41.88863317311916 20.26722088921815,42.597335542639485 20.173929914133623,42.88081569829956 20.080638939049095,43.5540792531101 19.98734796384815,43.83755788068811 19.847411501279566,44.05016655422514 19.75412052613683,44.47538313717814 19.567538575909566,44.86516411011689 19.52089308842551,45.25494422722841 19.054438212886453,47.2038319731364 18.984469981573056,47.593606954600546 18.984469981573056,47.98338108009193 19.12440644414164,48.30228654619714 19.24102016305551,49.01096330827568 19.28766565065598,49.32986692813574 19.24102016305551,49.93223886919441 19.217697419342585,50.144840242675855 18.961147237743717,50.95980981529283 18.611306081118528,51.774775646146736 18.49469236220466,52.23540685197804 18.214819436951075,52.873201932772645 18.238142180664,52.97950089015649 18.168173949350603,53.58186044590548 18.238142180664,54.077919721690705 18.238142180664,54.21965068874124 18.26146492443513,54.32594883971615 18.28478766826447,54.963736409001285 18.074882974266075,55.35349435110402 18.051560230494943,55.56608923152089 18.121528461866546,55.88498107458872 18.121528461866546,56.06214296219696 18.26146492443513,56.55819530662848 18.40140138712013,57.16054271833855 18.424724130833056,57.44399961663294 18.518015106034,57.76288808614481 18.471369618433528,57.94004809940816 18.54133784980513,58.294367595546646 18.54133784980513,59.46361691500351 18.587983337347396,59.88879657625512 18.751242543803528,60.349406726585585 18.797888031287584,61.093466752252425 18.844533518888056,61.199760787101695 18.86785626265919,61.55407377672964 18.891179006372113,62.61700850246416 18.984469981573056,62.93588767903566 18.984469981573056,63.183904420307954 19.26434290682664,64.14053717645584 19.49757034459617,65.52233094509575 19.590861319680698,65.77034407270548 19.614184063510038,65.94749609455175 19.7307977823657,66.16007828744478 20.0106707077357,67.36470590499812 20.12728442653315,67.6481465093093 20.22057540161768,68.28588621452218 20.290543632989284,68.49846560701553 20.337189120589755,68.92362362840504 20.477125583274756,69.41964003305475 20.50044832698768,69.63221806797083 20.73367576475721,70.41166868461005 20.826966739841737,71.2265452153515 20.966903202526737,71.65169670306204 21.13016240898287,72.00598883163184 21.316744359151926,72.6437128810503 21.456680821836926,72.75 21.73655374714872,72.67914192791795 21.64326277206419,72.57285476654943 21.433358078065794,71.61626745137619 21.340067102981266,71.47455037357577 21.083516921440605,70.69510442395404 20.99022594629787,69.8447958483157 20.850289483671077,69.56135875129257 20.803643996128812,69.171632003985 20.64038478967268,68.81733421853278 20.570416558359284,68.42760583778727 20.50044832698768,68.21502636032528 20.50044832698768,68.10873652616283 20.383834608190227,67.6835765530268 20.22057540161768,67.32927579758689 20.033993451448623,66.72696289037412 20.0106707077357,66.37266022565018 19.940702476364095,66.12464793959225 19.800766013679095,65.87663530700956 19.660829550994094,65.52233094509575 19.684152294881642,65.27431747090304 19.63750680728117,65.0263036502729 19.684152294881642,64.92001190673909 19.63750680728117,64.4948442964087 19.684152294881642,64.28226010929211 19.684152294881642,63.85709097140352 19.707475038594566,63.502782578521874 19.614184063510038,63.11304252958507 19.614184063510038,62.97131866324344 19.660829550994094,62.90045668765379 20.477125583274756,62.581577447461314 20.920257714926265,62.581577447461314 20.943580458755605,62.54614638542989 21.293421615380794,62.47528424009215 22.342945085372776,62.51071531625348 22.41291331674438,62.40442206648004 22.366267829143908,62.36899096911657 22.41291331674438,62.120973089229665 22.389590572856832,61.94381724852428 22.319622341543436,61.66036753576191 22.226331366458908,61.483211235448834 22.109717647603247,60.49113268617657 22.13304039137438,59.88879657625512 22.156363135087304,59.67620687292947 22.109717647603247,59.180163241850096 22.226331366458908,57.656591993247275 22.203008622687776,57.12511057424126 22.296299597772304,55.247196815369534 22.27297685405938,55.07003411448386 22.27297685405938,53.68815897889726 22.17968587897485,53.192098613872076 22.13304039137438,52.90863492558128 22.063072160002775,51.84564206333016 22.086394903773908,51.49130969455291 21.969781184918247,50.60547567831236 21.946458441205323,49.82593808689853 21.689908259606455,48.08968296588864 21.666585515835322,47.558172900709906 21.59661728446372,47.274700215188204 21.59661728446372,47.062095404049614 21.480003565666266,46.35341086088738 21.340067102981266,46.06993625131145 21.246776127896737,45.325813247371116 21.246776127896737,44.79429490608163 21.153485152695794,44.36907908692956 21.03687143389834,44.19190552829241 21.060194177611265,43.97929702459078 20.943580458755605,43.5540792531101 20.803643996128812,42.20754958962789 20.87361222744221,42.17211446058354 20.803643996128812,41.67602191049082 20.617062045901548,41.0736219498649 20.570416558359284,40.542090874994756 20.617062045901548,40.40034898619342 20.59373930207221,39.62076657464786 20.687030277156737,38.59312998225505 20.75699850852834,38.16789930706727 21.153485152695794,36.99850969745603 21.176807896525133,36.785892577128834 21.106839665211737,36.11260334895633 21.27009887160966,36.00629428992397 21.27009887160966,35.935421548521845 21.410035334294662,35.581057417279226 21.549971796921454,35.403875086354674 21.829844722233247,35.36843859885994 22.27297685405938,35.510184506027144 22.249654110171832,35.5456209651893 22.669463498226833,35.26212909418973 22.692786241997965,34.73058061553456 22.809399960911833,34.128157081999234 22.832722704682965,33.8800997385697 22.926013679767493,33.63204204849899 23.369145811535418,33.31311022324371 23.742309711989947,33.100488688010955 23.9988598934724,33.06505174074846 25.98129311442608,33.31311022324371 26.424425246252213,33.419420895312214 28.593440417491365,33.5966052072763 29.01324980542995,33.70291570961126 29.479704680969007,33.91553652312723 29.899514068907592,33.77378934243461 30.296000713075045,33.77378934243461 30.809101076214574,33.91553652312723 31.065651257697027,33.84466294689628 31.742010827292688,33.91553652312723 31.97523826500401,33.91553652312723 32.11517472768901,33.91553652312723 32.34840216545854,34.09272033990419 32.86150252848165,34.05728359063505 33.934348742244765,34.128157081999234 34.56406282418175,34.3053406864492 34.86725849332288,34.482524114093394 35.566940806631465,34.58883408570546 35.940104707027785,34.766017230271245 36.289945863652974,35.01407333553652 36.429882326337975,35.26212909418973 36.569818789022975,35.33300210432208 36.7330779954209,35.510184506027144 37.03627366456203,35.75823957123794 37.31614658981562,35.89998516727064 37.8758924404392,35.935421548521845 37.9458606717526,36.077167002964416 38.808802191517316,36.11260334895633 39.04202962922864,36.18347601949063 39.13532060437137,36.28978497230855 39.48516176105477,36.608711448920076 40.06823035539128,36.89220116901561 40.27813504944788,37.069382014422445 40.86120364390081,37.24656268277613 41.23436754423892,37.5300513842958 41.25769028806826,37.49461532123678 41.51424046960892,37.5300513842958 41.817436138691846,37.21112656319747 41.910727113776375,37.24656268277613 42.09730906394543,36.927637352375314 42.07398632023251,36.502402687008725 41.957372601376846,36.25434866180876 41.98069534514798,36.11260334895633 42.07398632023251,36.041730649914825 42.51711845200043,36.077167002964416 42.820314121083356,36.00629428992397 43.403382715478074,35.72280315464013 43.98645130981458,35.75823957123794 44.033096797415055,35.68736673092644 44.662810879410245,35.82911238337692 44.662810879410245,35.581057417279226 45.10594301117817,35.26212909418973 45.152588498662226,35.04950989376812 45.175911242491566,34.3053406864492 45.08262026740704,34.482524114093394 44.96600654849317,34.55339743560762 44.96600654849317,34.482524114093394 44.82607008580817,34.58883408570546" stroke="#4dd2ff" stroke-linecap="round" stroke-linejoin="round" stroke-width="0.5"><title>2022-05-13 4.4km</title></polyline><polyline fill="none" points="89.79816063435283,32.25 85.21525632962584,33.08049312001094 88.03227090230212,46.17644578238833 86.05615620210301,47.39018986426527 82.65051171858795,44.77105214621406 81.30507192271762,45.85703867973643 82.65051171858795,69.81168665620498 79.70736216509249,71.28084670062526 71.76085837045684,72.75 70.54155355552211,66.93722358168452 70.66768853622489,56.65282201321679 65.20183936553076,56.014028404228156 65.41206433356274,63.487833808438154 66.96772909758147,65.40416605075006 68.31316889356822,65.59579864391708 69.86883365758695,64.50987909917603 70.3733735808637,57.8665263572766 67.47226902109105,56.58894270975725 65.62228930171113,58.18592147208983 65.58024430798832,63.99885686195921 67.05181908491068,65.46804359459202 68.4393038743874,65.59579864391708 69.61656369583216,65.46804359459202 70.07905862561893,64.25436808267841 70.20519360643812,57.738768222072395 68.14498891902622,56.46118406445021 65.58024430798832,57.738768222072395 65.41206433356274,63.807223312644055 66.67341414222028,65.21253334300127 69.61656369583216,65.34028849433525 70.28928359376732,60.86882785067428 70.03701363201253,57.41937266092282 68.81770881684497,56.58894270975725 66.3790991868591,57.09997678096988 65.87455926334951,64.82926758323447 67.47226902109105,65.72355364219402 69.78474367025774,65.21253334300127 70.16314861283172,60.29392123466823 70.03701363201253,64.50987909917603" stroke="#4dd2ff" stroke-linecap="round" stroke-linejoin="round" stroke-width="0.5"><title>2022-05-04 3.1km</title></polyline><polyline fill="none" points="134.48301186657045,32.75313753125374 134.64858025149442,32.25 134.06909090396948,32.941813898214605 134.85554073285311,32.75313753125374 134.31744348153006,33.25627425900893 132.82732801616658,33.3820583151828 131.66834932100028,33.75941018294543 129.9298812780762,33.63362627726747 130.3851943371119,33.948085947398795 130.13684175955132,34.57700434557046 130.63354691455606,35.017246477189474 130.46797852951568,35.583271171111846 130.59215481823776,36.33796918037115 130.92329158843495,36.90399150105077 131.21303626219742,38.098924171121325 131.21303626219742,38.72783428177354 131.5441730322782,39.23096146649914 131.87530980224255,40.48877591238124 132.20644657243975,42.62704894389026 132.16505447600503,43.19305996381445 132.20644657243975,45.20553535368526 132.33062286116183,45.897320799704175 132.7445438237628,46.463325943564996 131.99948609108105,47.532443996024085 130.75772320327815,47.658222351950826 130.4265864333138,47.217997886706144 130.01266547071282,46.77777280626469 129.0192551605869,46.08598929393338 128.43976581294555,45.897320799704175 127.44635550270323,45.14264569239458 126.74268986622337,45.07975601864746 126.32876890373882,45.64576263149502 126.12180842249654,46.21176822722191 126.20459261501674,47.46955479920143 126.5771214812994,48.66444739091094 126.61851357750129,49.35622524074279 126.5771214812994,51.24288438257645 126.61851357750129,52.50065086630639 126.78408196265809,53.82130026930827 126.61851357750129,55.83370776110678 126.74268986622337,56.462582465901505 126.74268986622337,57.1543431909231 126.4529451924609,57.657440946029965 126.37016100005712,58.852294894109946 126.6599056738196,59.984257611999055 126.70129777002148,60.61312403087504 126.82547405885998,61.30487564174109 126.74268986622337,62.49971575534437 126.99104244390037,63.757437294814736 127.19800292525906,65.2038108574634 127.52913969522342,66.39863618311938 127.57053179142531,67.09037508966867 127.9016685616225,68.34807830123464 127.44635550270323,69.79443078712211 126.86686615506187,70.29750835610321 126.37016100005712,70.54904683917994 125.74927955609746,70.80058512158575 125.12839811237063,70.8634696607478 124.54890876472928,71.17789216854726 122.56208814424463,71.4294299488829 119.87160188762937,71.93250490672654 119.20932834746782,72.24692634760868 118.54705480730627,72.3726948358817 117.30529191950336,72.75 116.68441047577653,72.62423166216468 116.39466580189764,72.05827352072811 116.18770532053895,70.73770056987996 115.89796064677648,70.17173903918592 115.6496080692159,68.7882732389553 115.6496080692159,68.0965380607231 115.52543178061023,66.96460449247388 115.60821597301401,66.33575075259432 115.8151764543727,62.562601951678516 115.93935274309479,61.99662573359092 115.98074483929668,60.738897164032096 115.8151764543727,59.984257611999055 115.8151764543727,59.355389937525615 115.6910001655342,58.72652100768755 115.8565685505746,57.4058921689284 115.6496080692159,56.83990668616025 115.02872662537266,56.71413199615199 113.58000325644389,56.273920186184114 112.95912181248423,56.21103273445624 111.63457473216113,56.02237030444667 110.8895169995958,56.02237030444667 110.26863555575255,56.14814527035924 110.26863555575255,57.28011770514422 110.18585136323236,57.97187663492514 110.14445926703047,58.60074707123567 110.22724345943425,59.795597441581776 110.14445926703047,61.05332977735088 110.64116442203522,61.49353490830981 110.55838022963144,62.87703274434898 110.43420394079294,63.568779384106165 110.97230119223241,64.70072515419452 112.0071035985602,65.3924677890609 113.29025858244859,65.64401018887293 114.44923727784771,65.07803950709058 114.82176614401396,64.57495360262692 115.02872662537266,64.00898100016639 115.11151081800926,60.42446423691581 115.31847129913513,58.663634045777144 115.31847129913513,58.03476373493322 115.02872662537266,57.53166658259579 114.44923727784771,57.09145591506967 113.86974793020636,56.83990668616025 112.50380875368137,56.71413199615199 111.84153521351982,56.96568132561515 111.30343796219677,57.28011770514422 110.8895169995958,57.78321525926003 110.64116442203522,58.286312009906396 110.55838022963144,59.544050371594494 110.64116442203522,60.172917669435265 110.59977232583333,61.367762076464714 110.51698813319672,62.62548813523608 110.64116442203522,64.00898100016639 110.97230119223241,64.57495360262692 111.51039844355546,65.14092518857797 112.0898877910804,65.51823901425814 113.41443487128709,65.64401018887293 114.5734135665698,65.45535340791685 114.86315824044868,64.95226810616441 115.07011872157454,64.2605245047016 115.19429501041304,63.568779384106165 115.19429501041304,62.185284585895715 115.27707920293324,61.55642130546039 115.23568710661493,60.99044327950105 115.31847129913513,60.42446423691581 115.27707920293324,58.47497308423044 115.15290291421115,57.90898952228599 114.82176614401396,57.34300494333729 113.78696373768616,56.71413199615199 113.12469019752461,56.651244632463204 111.38622215471696,56.902794012159575 110.64116442203522,57.846102397015784 110.55838022963144,58.663634045777144 110.64116442203522,61.367762076464714 110.55838022963144,62.05951203018776 110.64116442203522,62.75126046515652 110.51698813319672,63.31723532723845 110.43420394079294,63.88320917263627 110.7653407107573,64.3862961816485 111.13786957715638,64.82649665538338 111.67596682859585,65.2038108574634 112.25545617612079,65.58112460785196 112.83494552376214,65.70689575752476 113.45582696760539,65.64401018887293 114.03531631524675,65.70689575752476 114.5734135665698,65.3924677890609 115.11151081800926,64.19763864731067 115.27707920293324,60.92755676951492 115.11151081800926,58.160537897696486 114.98733452917077,57.59455377049744 114.44923727784771,57.1543431909231 113.78696373768616,56.77701934729703 112.54520084988326,56.651244632463204 111.92431940615643,56.77701934729703 111.42761425091885,57.28011770514422 110.97230119223241,57.78321525926003 110.80673280719202,58.47497308423044 110.68255651835352,59.795597441581776 110.72394861455541,60.42446423691581 110.59977232583333,61.68219406189746 110.59977232583333,62.37394332536496 110.51698813319672,63.00280497377389 110.68255651835352,64.2605245047016 110.93090909579769,64.88938238704577 111.88292730972171,65.70689575752476 112.50380875368137,65.76978131342912 114.32506098900922,65.64401018887293 114.73898195161019,65.2666965140088 114.94594243285246,64.63783938469714 115.07011872157454,63.31723532723845 115.11151081800926,62.75126046515652 115.02872662537266,62.185284585895715 115.23568710661493,61.61930768980528 115.15290291421115,60.361577613890404 115.19429501041304,60.99044327950105 115.31847129913513,61.55642130546039 115.35986339545343,63.3801213602128 115.27707920293324,63.94609509257134 115.02872662537266,64.51206780815846" stroke="#4dd2ff" stroke-linecap="round" stroke-linejoin="round" stroke-width="0.5"><title>2022-05-04 3.2km</title></polyline><polyline fill="none" points="179.48301186657045,32.75313753125374 179.64858025149442,32.25 179.06909090396948,32.941813898214605 179.85554073285311,32.75313753125374 179.31744348153006,33.25627425900893 177.82732801616658,33.3820583151828 176.66834932100028,33.75941018294543 174.9298812780762,33.63362627726747 175.3851943371119,33.948085947398795 175.13684175955132,34.57700434557046 175.63354691455606,35.017246477189474 175.46797852951568,35.583271171111846 175.59215481823776,36.33796918037115 175.92329158843495,36.90399150105077 176.21303626219742,38.098924171121325 176.21303626219742,38.72783428177354 176.5441730322782,39.23096146649914 176.87530980224255,40.48877591238124 177.20644657243975,42.62704894389026 177.16505447600503,43.19305996381445 177.20644657243975,45.20553535368526 177.33062286116183,45.897320799704175 177.7445438237628,46.463325943564996 176.99948609108105,47.532443996024085 175.75772320327815,47.658222351950826 175.4265864333138,47.217997886706144 175.01266547071282,46.77777280626469 174.0192551605869,46.08598929393338 173.43976581294555,45.897320799704175 172.44635550270323,45.14264569239458 171.74268986622337,45.07975601864746 171.32876890373882,45.64576263149502 171.12180842249654,46.21176822722191 171.20459261501674,47.46955479920143 171.5771214812994,48.66444739091094 171.6185135775013,49.35622524074279 171.5771214812994,51.24288438257645 171.6185135775013,52.50065086630639 171.7840819626581,53.82130026930827 171.6185135775013,55.83370776110678 171.74268986622337,56.462582465901505 171.74268986622337,57.1543431909231 171.4529451924609,57.657440946029965 171.37016100005712,58.852294894109946 171.6599056738196,59.984257611999055 171.70129777002148,60.61312403087504 171.82547405885998,61.30487564174109 171.74268986622337,62.49971575534437 171.99104244390037,63.757437294814736 172.19800292525906,65.2038108574634 172.52913969522342,66.39863618311938 172.5705317914253,67.09037508966867 172.9016685616225,68.34807830123464 172.44635550270323,69.79443078712211 171.86686615506187,70.29750835610321 171.37016100005712,70.54904683917994 170.74927955609746,70.80058512158575 170.12839811237063,70.8634696607478 169.54890876472928,71.17789216854726 167.56208814424463,71.4294299488829 164.87160188762937,71.93250490672654 164.20932834746782,72.24692634760868 163.54705480730627,72.3726948358817 162.30529191950336,72.75 161.68441047577653,72.62423166216468 161.39466580189764,72.05827352072811 161.18770532053895,70.73770056987996 160.89796064677648,70.17173903918592 160.6496080692159,68.7882732389553 160.6496080692159,68.0965380607231 160.52543178061023,66.96460449247388 160.608215973014,66.33575075259432 160.8151764543727,62.562601951678516 160.9393527430948,61.99662573359092 160.98074483929668,60.738897164032096 160.8151764543727,59.984257611999055 160.8151764543727,59.355389937525615 160.6910001655342,58.72652100768755 160.8565685505746,57.4058921689284 160.6496080692159,56.83990668616025 160.02872662537266,56.71413199615199 158.5800032564439,56.273920186184114 157.95912181248423,56.21103273445624 156.63457473216113,56.02237030444667 155.8895169995958,56.02237030444667 155.26863555575255,56.14814527035924 155.26863555575255,57.28011770514422 155.18585136323236,57.97187663492514 155.14445926703047,58.60074707123567 155.22724345943425,59.795597441581776 155.14445926703047,61.05332977735088 155.64116442203522,61.49353490830981 155.55838022963144,62.87703274434898 155.43420394079294,63.568779384106165 155.9723011922324,64.70072515419452 157.0071035985602,65.3924677890609 158.2902585824486,65.64401018887293 159.44923727784771,65.07803950709058 159.82176614401396,64.57495360262692 160.02872662537266,64.00898100016639 160.11151081800926,60.42446423691581 160.31847129913513,58.663634045777144 160.31847129913513,58.03476373493322 160.02872662537266,57.53166658259579 159.44923727784771,57.09145591506967 158.86974793020636,56.83990668616025 157.50380875368137,56.71413199615199 156.84153521351982,56.96568132561515 156.30343796219677,57.28011770514422 155.8895169995958,57.78321525926003 155.64116442203522,58.286312009906396 155.55838022963144,59.544050371594494 155.64116442203522,60.172917669435265 155.59977232583333,61.367762076464714 155.51698813319672,62.62548813523608 155.64116442203522,64.00898100016639 155.9723011922324,64.57495360262692 156.51039844355546,65.14092518857797 157.0898877910804,65.51823901425814 158.41443487128709,65.64401018887293 159.5734135665698,65.45535340791685 159.86315824044868,64.95226810616441 160.07011872157454,64.2605245047016 160.19429501041304,63.568779384106165 160.19429501041304,62.185284585895715 160.27707920293324,61.55642130546039 160.23568710661493,60.99044327950105 160.31847129913513,60.42446423691581 160.27707920293324,58.47497308423044 160.15290291421115,57.90898952228599 159.82176614401396,57.34300494333729 158.78696373768616,56.71413199615199 158.12469019752461,56.58835725605604 156.38622215471696,56.902794012159575 155.64116442203522,57.846102397015784 155.55838022963144,58.663634045777144 155.64116442203522,61.367762076464714 155.55838022963144,62.05951203018776 155.64116442203522,62.75126046515652 155.51698813319672,63.31723532723845 155.43420394079294,63.88320917263627 155.7653407107573,64.3862961816485 156.13786957715638,64.82649665538338 156.67596682859585,65.2038108574634 157.2554561761208,65.58112460785196 157.83494552376214,65.70689575752476 158.4558269676054,65.64401018887293 159.03531631524675,65.70689575752476 159.5734135665698,65.3924677890609 160.11151081800926,64.19763864731067 160.27707920293324,60.92755676951492 160.11151081800926,58.160537897696486 159.98733452917077,57.59455377049744 159.44923727784771,57.1543431909231 158.78696373768616,56.77701934729703 157.54520084988326,56.651244632463204 156.92431940615643,56.77701934729703 156.42761425091885,57.28011770514422 155.9723011922324,57.78321525926003 155.80673280719202,58.47497308423044 155.68255651835352,59.795597441581776 155.7239486145554,60.42446423691581 155.59977232583333,61.68219406189746 155.59977232583333,62.37394332536496 155.51698813319672,63.00280497377389 155.68255651835352,64.2605245047016 155.9309090957977,64.88938238704577 156.8829273097217,65.70689575752476 157.50380875368137,65.76978131342912 159.32506098900922,65.64401018887293 159.73898195161019,65.2666965140088 159.94594243285246,64.63783938469714 160.07011872157454,63.31723532723845 160.11151081800926,62.75126046515652 160.02872662537266,62.185284585895715 160.23568710661493,61.61930768980528 160.15290291421115,60.361577613890404 160.19429501041304,60.99044327950105 160.31847129913513,61.55642130546039 160.35986339545343,63.3801213602128 160.27707920293324,63.94609509257134 160.02872662537266,64.51206780815846" stroke="#4dd2ff" stroke-linecap="round" stroke-linejoin="round" stroke-width="0.5"><title>2022-05-04 3.2km</title></polyline><polyline fill="none" points="39.018778431927785,121.5 35.158496232004836,111.9838725051959 35.66834482434206,82.5492347572872 26.126892594387755,81.0 26.054057081229985,92.95112742178026 28.74897106993012,97.70937495690305 33.70178596768528,95.8282122084347 34.357305586803705,85.09439674435998 31.80806262465194,81.99593712665956 27.073754266137257,83.98780601189355 27.292260805610567,96.0495258042356 29.914339281152934,97.59871850119089 34.065963533939794,95.05361392709892 34.211634560255334,83.98780601189355 30.497023386647925,81.99593712665956 27.146589779062197,84.31978346349206 26.782412213273346,95.05361392709892 28.89464209624566,97.26674900212674 32.02656916389242,97.37740552413743 34.211634560255334,95.05361392709892 34.211634560255334,84.09846518444829 29.550161715131253,82.21725624531973 26.855247726431116,85.42637353288592 27.073754266137257,95.8282122084347 32.82775980955921,97.59871850119089 34.648647639434785,95.60689852409996 34.794318665983155,84.54110165408929 32.53641775646247,82.10659669729648 29.404490688815713,81.99593712665956 26.418234647018835,85.64769128174521 27.146589779062197,95.71755537719582 31.95373365096748,97.93068780144677 34.721483152592555,94.72164290383807 33.99312802054919,82.88121307062102 32.24507570359856,81.66395828334498 27.292260805610567,82.65989421700942 25.981221568072215,93.28309950532275 28.31195799051784,97.59871850119089 33.55611494160257,97.0454358922434 34.867154179140925,88.52481397552765 33.48327942821197,82.99187246413203 28.89464209624566,81.99593712665956 26.563905673567206,86.9755959189497 26.418234647018835,95.16427089087665 28.60330004338175,97.37740552413743 32.75492429616861,97.0454358922434 34.357305586803705,94.38967168185627 34.211634560255334,84.7624197564437 27.292260805610567,83.87714681707439 26.272563620936126,88.85678871019627" stroke="#4dd2ff" stroke-linecap="round" stroke-linejoin="round" stroke-width="0.5"><title>2022-03-10 3.4km</title></polyline><polyline fill="none" points="81.19063734426163,112.88130278413882 78.99455561861396,107.6914724460803 79.11656015901826,82.85362405865453 75.94444211083464,81.1853627389064 70.94225595821626,81.0 71.003258228302,91.65823727089446 73.01633314345963,94.90200004840153 76.49346254230477,94.53128544939682 77.7135079454165,93.04842409357661 78.20152610656805,83.59507160965586 74.48038762714714,81.6487692623341 71.49127638968639,83.68775247049052 71.36927184928209,92.86306609108578 75.39542167959735,94.90200004840153 77.95751702599227,92.4923498640128 77.95751702599227,83.13166702922899 74.48038762714714,81.83413174244924 71.49127638968639,83.87311413625139 71.36927184928209,92.3996707610786 73.99236946599558,94.90200004840153 77.8355124858208,92.6777080144966 78.07952156639658,84.15115649611107 76.49346254230477,82.01949414805858 72.9553308733739,82.20485647997702 71.73528547026217,83.40970983309671 71.36927184928209,92.02895416400861 74.48038762714714,94.99467865176848 77.7135079454165,93.32646095851669 77.95751702599227,84.15115649611107 77.16448751394637,82.48289983911673 74.35838308697566,81.74145051144296 71.49127638968639,84.05847572805942 71.7962877403479,93.41913987661246 75.63943076017313,94.99467865176848 78.3845329170581,92.6777080144966 77.16448751394637,82.1121753231564 73.32134449435398,81.74145051144296 71.49127638968639,84.15115649611107 71.55227865977213,92.86306609108578 73.68735811510123,94.7166427859338 76.5544648123905,94.80932142629172 78.01851929631084,92.30699163943063 77.53050113492645,82.94630506719113 72.40631044190377,82.29753761808388 70.63724460732192,87.95105205941945 70.3322332566604,84.61456005915534 70.63724460732192,81.0 79.05555788893253,81.46340670844074 79.42157150967978,101.389457613579 80.76362145319581,111.30582470688387 84.6677667433396,120.10989836740191 84.05774404178374,121.5" stroke="#4dd2ff" stroke-linecap="round" stroke-linejoin="round" stroke-width="0.5"><title>2022-03-08 3.7km</title></polyline><polyline fill="none" points="120.16751160821877,81.0 119.13455246330705,82.01257883454673 118.96794614952523,85.35406030107697 122.3333936863346,99.22580042372283 121.90021727071144,104.84515801968519 122.43335747451056,110.66688366282324 124.89913091738708,120.43695765863231 126.03205385047477,121.5 124.33266945078503,114.71670094071305 122.5,110.5656374021055 122.10014484717976,98.26391592151776 122.59996378829237,95.27698815900658 122.10014484717976,93.75819783780025 120.73397307482082,93.0494259083498 119.26783751428593,87.22729580175655 119.86762024369091,86.16410978320346" stroke="#4dd2ff" stroke-linecap="round" stroke-linejoin="round" stroke-width="0.5"><title>2022-01-09 1.7km</title></polyline><polyline fill="none" points="177.97806729364675,83.99094895710004 177.56796681252308,83.36783695485792 179.08533859276213,83.86632665627985 178.8392783042509,82.30854369571898 180.23361994011793,81.93467462834087 179.16735868912656,81.0 178.34715772676282,83.49245945486473 179.00331849663053,81.24924684129655 178.9623084483901,82.68241231539287 175.06635387742426,82.93165781287826 174.77928354067262,84.36481556139188 175.845544791664,86.85724814407877 176.4606955134077,95.95445815729909 174.73827349254861,96.01676690051681 170.96534906583838,93.46209822490346 170.67827872897033,94.08519007399445 171.0063591140788,107.41905750031583 172.3186806536978,117.57484537502751 169.77605767047498,119.25706054430339 161.73808823968284,121.5 160.09768631507177,117.45023648324423 160.42576670006383,105.61216490756487 154.84840015613008,104.80217517720303 154.9714303005021,111.59356245447998 156.44779203273356,113.8365569821326 158.21122410183307,113.96116731662187 159.52354564145207,112.83967251543072 159.6465757858241,106.67137907541473 158.4162743423367,105.36293752220809 157.10395280248486,105.30063064483693 155.38153078174219,106.98291197020444 155.5455709741218,113.15119925324689 157.47304323560093,113.96116731662187 159.52354564145207,112.96428324774024 159.56455568945967,107.0452185117756 158.37526429421268,105.54985807990306 155.5865810222458,106.29753919132054 155.5045609261142,111.9673959952197 157.02193270635325,113.77425179613056 159.6875858338317,112.59045090118889 159.6465757858241,107.41905750031583 158.5803145347163,105.48755123966839 155.79163126286585,105.86139209399698 155.34052073361818,112.34122908796417 156.85789251397364,114.02347246510908 159.48253559332807,112.71506173320813 159.6465757858241,106.73368567915168 159.19546525657643,105.67447172291577 157.47304323560093,105.17601685246336 155.5455709741218,106.54676583048422 155.34052073361818,112.4658400194894 156.44779203273356,113.89886215567822 157.801123620593,114.02347246510908 159.6465757858241,112.59045090118889 159.6465757858241,106.9206054158858 158.5803145347163,105.54985807990306 155.79163126286585,105.98600561261992 155.01244034862611,109.47516393320984 154.76638005988207,104.67756118596299 160.58980689244345,104.24141182482708 163.25546001992188,88.91349004025687 164.36273131903727,88.4773186489183 168.54575622698758,90.72047931072302 169.61201747797895,90.22200055685244 169.899087814847,88.10345697111916 175.39443426241633,88.5396288849588 176.87079599453136,87.23111131475889 179.65947926649824,87.9788363124535 179.33139888150617,82.30854369571898 179.00331849663053,83.80401548725786 177.44493666815106,83.61708190513309" stroke="#4dd2ff" stroke-linecap="round" stroke-linejoin="round" stroke-width="0.5"><title>2021-12-30 4.7km</title></polyline><polyline fill="none" points="39.02705767285079,170.25 34.08023501560092,157.8289417414635 35.45435242028907,131.0026243282482 26.24776580813341,129.75 26.179059938061982,142.27610825138981 28.721177136758342,145.09444125561276 31.812941297655925,144.99005882247002 33.87411740468815,142.58925711302436 34.21764675620943,132.7771703231556 31.057176725007594,130.37631253930158 27.347059732070193,131.62893536692718 26.24776580813341,142.06734223940293 29.133412358351052,144.88567636880907 31.400706076296046,145.09444125561276 33.599293923936784,143.11117146571632 34.148940885672346,132.67278543140856 31.950353038031608,130.58508321875706 27.96541256434284,131.2113947579346 25.972942327149212,141.44104370317655 28.240236045094207,144.99005882247002 32.08776477840729,144.5725288821268 34.148940885672346,142.4848741798487 34.21764675620943,133.29909446992679 31.606823686743155,130.48069788943394 26.660001029726118,131.94209060521098 26.316471678204834,142.4848741798487 29.33952996903099,144.99005882247002 33.599293923936784,143.00678863702342 34.08023501560092,132.67278543140856 30.095294541679323,129.9587709295447 26.79741277033463,132.0464756428264 26.24776580813341,142.4848741798487 28.17153017478995,144.78129389428068 33.187058702344075,143.63308529782807 34.42376436688937,133.6122487077664 33.7367056645453,131.62893536692718 30.644941503414884,130.58508321875706 27.140942121390253,132.35963063072995 26.453883418813348,143.00678863702342 28.515059526078403,144.99005882247002 32.56870587030426,144.6769113986229 33.87411740468815,143.11117146571632 34.148940885672346,133.50786398243508 32.43129412969574,130.37631253930158 26.385177548741922,131.2113947579346 26.385177548741922,143.31993706105277" stroke="#4dd2ff" stroke-linecap="round" stroke-linejoin="round" stroke-width="0.5"><title>2021-12-27 3.1km</title></polyline><polyline fill="none" points="84.07135023130104,170.25 86.42711729556322,132.1988865841995 68.57288270490244,129.75 71.052637509536,155.3688066584873 75.14423293620348,159.3245898137102 80.72368124546483,159.70133020123467 84.4433134519495,155.9339195523644 83.94736249139532,136.90826599829597 76.38411033852026,132.01051091839327 70.92864976869896,135.5896421315265 72.78846587240696,154.61532227188582 77.62398774037138,159.70133020123467 83.82337475055829,156.49903210881166 83.3274237900041,136.90826599829597 77.12803677935153,132.57563780184137 71.052637509536,135.77801708236802 73.28441683296114,156.8757736250409 79.9797548041679,159.88970033958321 84.19533797120675,156.31066129467217 83.3274237900041,137.47338994854363 77.37601226009429,132.57563780184137 73.5323923137039,132.95238886983134 70.43269880814478,137.28501533623785 71.54858847009018,155.3688066584873 77.87196322064847,159.13621956296265 84.07135023130104,156.49903210881166 83.82337475055829,138.03851356066298 76.50809807842597,132.76401335507398 70.55668654851615,137.09664068586426 71.54858847009018,154.61532227188582 77.12803677935153,159.13621956296265 82.4595096083358,158.38273818517337 84.81527667259797,152.91998020425672 83.45141153037548,136.90826599829597 75.51619615638629,132.3872622117633 71.6725762099959,133.89426588092465 70.68067428842187,137.85013906122185 71.6725762099959,155.3688066584873 79.9797548041679,160.2664405014366 84.4433134519495,154.23857985367067 83.20343605009839,135.96639199584024 78.6158896619454,132.3872622117633 73.03644135221839,132.76401335507398 69.44079688657075,139.35713400540408 71.052637509536,156.31066129467217 78.98785288259387,159.5129600262735 84.56730119185522,154.42695108160842 84.81527667259797,136.71989127324196 76.1361348577775,131.44538369652582 70.43269880814478,134.8361419517314 70.43269880814478,154.42695108160842 76.01214711787179,159.3245898137102 83.94736249139532,154.61532227188582 83.69938701065257,137.66176452307263 82.08754638768733,134.2710164221935 75.26822067657486,132.1988865841995 70.06073558749631,136.15476687141927" stroke="#4dd2ff" stroke-linecap="round" stroke-linejoin="round" stroke-width="0.5"><title>2021-12-07 3.6km</title></polyline><polyline fill="none" points="125.87664798856713,149.5143787494453 124.09946483653039,131.15405073013972 116.84855757676996,129.75 115.49789838120341,132.8821081648639 116.20877164183185,144.87035464899964 120.11857457645237,146.9223702136369 123.24641692382284,146.05836460893624 124.24163948884234,144.00634576720768 123.60185355390422,132.9901115714456 117.41725618531927,131.58606560630142 115.71116035943851,137.95824495877605 117.5594308373984,146.27436613920145 122.60663098888472,146.7063689417264 124.38381414115429,139.6862806606514 123.03315494558774,132.55809781627613 117.41725618531927,132.45009432375082 116.1376843159087,141.09030560415704 117.98595479410142,145.9503638111055 120.54509853292257,147.89437487002579 123.38859157566912,147.13837139925454 123.88620285852812,136.2302037377085 122.60663098888472,133.09811495634494 117.41725618531927,132.01808013761183 115.64007303328253,136.98622245099978 117.98595479410142,147.03037081705406 123.24641692382284,146.8143695886247 123.60185355390422,133.74613481250708 120.75836051092483,131.9100765369658 117.5594308373984,132.55809781627613 115.9244223376736,136.0141981971974 118.05704212002456,146.7063689417264 122.39336901064962,146.9223702136369 123.74402820621617,145.30235857286607 124.24163948884234,135.79819256989867 121.39814644563012,132.01808013761183 117.41725618531927,132.6661012872937 116.1376843159087,134.39415389235364 116.42203362006694,144.3303492598643 119.40770131559111,147.35437249872484 122.67771831504069,146.8143695886247 123.81511553237215,145.30235857286607 124.1705521629192,135.25817812551395 122.03793238056824,132.55809781627613 119.19443933735602,131.9100765369658 116.49312094645575,135.1501751714095 116.56420827237889,145.4103594997141 120.47401120653376,147.13837139925454 124.02837751060724,144.11434695281787 123.60185355390422,134.39415389235364 118.83900270680897,132.23408727359492 116.49312094645575,135.79819256989867 117.48834351147525,146.05836460893624 120.33183655468747,147.24637195991818 123.95729018445127,145.19435762416106 123.88620285852812,134.82616618130123 122.53554366296157,132.6661012872937 119.54987596767023,132.01808013761183 116.99073222908191,133.63813155685784 115.9244223376736,136.5542118869489 115.64007303328253,145.84236299208715 115.49789838120341,130.93804316292517 124.88142542354763,130.61403164989315 125.52121135802008,154.6983585668204 129.50210161856376,170.25" stroke="#4dd2ff" stroke-linecap="round" stroke-linejoin="round" stroke-width="0.5"><title>2021-12-06 4.4km</title></polyline><polyline fill="none" points="179.10594194813166,129.75 173.9643848699052,131.34277819143608 172.71643412287813,133.46647205823683 166.82610659650527,133.84570185656776 162.73282814584672,140.21670586511027 161.48487739881966,146.20838595039095 162.4333199664252,153.71681365650147 161.03561512974557,160.39084703836124 156.54299244005233,158.64650872183847 152.64938610908575,158.7223496848601 152.44971398962662,166.9889238771575 154.04709094576538,169.71912905041245 156.64282849989831,170.09832266130252 158.93905787472613,168.27818987620412 159.08881196414586,161.1492525038193 157.19192682858557,159.0257133851701 155.5945498724468,158.79819063274772 153.49799261707813,160.542528252583 153.14856640796643,168.2023508209677 155.29504169302527,170.25 157.64118909765966,170.0224839694274 158.88913984468672,168.2023508209677 158.93905787472613,161.68013542878907 156.49307441024575,159.0257133851701 153.39815655723214,160.61836883693468 152.8490582285449,167.67147701006616 155.5945498724468,170.17416133842198 158.48979560565203,168.58154594580992 158.93905787472613,161.37677384834387 157.4415169780841,159.3290768431034 155.24512366298586,158.7223496848601 153.44807458727155,160.39084703836124 153.09864837815985,167.89899444836192 156.09373017121106,170.25 158.43987757584546,168.884901773592 158.6894677252276,160.77004996035248 155.69438593205996,158.87403156529763 153.49799261707813,160.61836883693468 153.44807458727155,167.29228097645682 154.54627124464605,169.41577388893347 156.19356623094063,169.8708065401006 158.43987757584546,168.6573849255219 158.93905787472613,160.61836883693468 156.84250061947387,158.7223496848601 155.09536957356613,159.55659927759552 153.6477467068471,161.22509296695353 153.2484024678124,164.1070193531341 152.9488942885073,160.3150064086367 160.63627089071088,157.81225713077583 163.33184450457338,140.97515160634066 166.6763525068527,137.7896693177754 173.36536851141136,135.51430847193114 179.4054501275532,137.33459823887097 176.65995848365128,134.0732395539526 180.05438451608643,130.96354589422117 182.55028601025697,130.8876993895392" stroke="#4dd2ff" stroke-linecap="round" stroke-linejoin="round" stroke-width="0.5"><title>2021-11-11 3.8km</title></polyline><polyline fill="none" points="52.75,185.2770920976909 49.87605042010546,185.39200674147287 49.15756302524824,186.19640796195017 48.17436974798329,185.7942076327745 45.035714285681024,181.42742501865723 42.50210084032733,182.9213317909016 38.79621848743409,187.288091735958 35.69537815125659,188.26485791847517 28.245798319461755,187.17317784960323 25.863445378257893,189.24162078580412 22.08193277323153,187.97757409134647 14.897058823611587,187.23063479854318 13.762605042080395,187.7477468232537 12.25,191.42496108925843 13.649159663938917,188.03503087966237 15.23739495803602,187.46046247976483 25.71218487410806,188.95433793365373 31.876050420221873,188.66705479467055 33.50210084032733,189.47144686087267 34.90126050426625,191.59732935520879 37.472689075628296,192.7464484891825 36.11134453793056,206.5929732962977 35.31722689070739,207.33986233624455 33.275210084044375,206.76533247767657 30.17436974798329,207.56967395881657 29.98529411770869,213.77451839667629 30.892857142840512,215.95767258791602 33.84243697486818,216.07257498134277 35.09033613454085,214.34903426324308 35.31722689070739,210.84446963806113 34.59873949585017,209.40816033119336 30.93067226896528,208.71872931800317 30.212184873991646,211.87860790039122 30.136554621858522,208.02929665289412 30.77941176481545,207.2824094020616 34.48529411770869,207.2249564563681 36.37605042022187,205.5013627508306 37.43487394961994,196.9406943898066" stroke="#4dd2ff" stroke-linecap="round" stroke-linejoin="round" stroke-width="0.5"><title>2021-11-09 2.8km</title></polyline><polyline fill="none" points="91.61761553172255,180.32270848017652 92.79500911658397,178.93880198559782 91.95084013114683,178.5 90.04035242745886,178.56750807183562 88.28536953678122,179.748894967066 85.8417224738514,180.2889547979721 84.3311042895075,182.2804105146788 83.44250535755418,182.51668336502917 79.46602513699327,180.05267883419583 75.60061978292651,180.32270848017652 70.58003581722733,179.61387973971432 69.53593207214726,179.91766384955554 68.5140433004126,182.11164399077825 67.5587994485395,182.75295588518202 66.87013527628733,185.891973746242 68.91391281981487,199.2237120141217 68.73619303340092,210.7657857096201 71.33534490945749,218.39257166157768 68.29189356742427,219.0 67.31443474226398,216.4690341938549 64.89300265262136,204.7586059121677 62.20499088341603,199.35871158199734 62.98251494881697,198.75121267749637 64.87078767933417,198.58246259433508 68.62511816690676,199.29121181154915 67.62544436845928,189.7397225847235" stroke="#4dd2ff" stroke-linecap="round" stroke-linejoin="round" stroke-width="0.5"><title>2021-11-07 3.5km</title></polyline><polyline fill="none" points="125.67998280772008,217.41061516848276 125.97287596110255,217.9827946216974 120.28238041035365,216.7112833293504 119.15264967596158,213.08744829022908 117.93923518364318,212.51526004011976 115.47056431963574,213.91394061385654 111.78847896342631,218.30067165137734 111.11900889861863,217.21988845567103 114.88477801298723,197.4472660679021 116.47476941684727,180.7889913499239 118.02291894168593,178.94508294021944 121.20290174952243,178.5 127.26997421158012,180.02599606171134 130.0315382288536,182.3785589946201 133.5880979479989,182.50572406323045 133.88099110138137,185.36692468260298 132.03994842316024,192.42444294819143 132.7512603669893,196.23925255431095 130.7010082936613,196.8114700531296 130.32443138223607,198.33737835596548 124.75946146855131,203.1693730719271 122.70920939533971,207.1112091889372 118.81791464367416,211.3708804557973 119.61291034566239,216.64770763152046 121.4539530237671,218.1735208777245 124.34104267810471,217.5377662469691 125.17788025911432,219.0" stroke="#4dd2ff" stroke-linecap="round" stroke-linejoin="round" stroke-width="0.5"><title>2021-11-04 2.2km</title></polyline><polyline fill="none" points="181.64120957779232,178.73667254077736 180.61761297588237,178.5 178.90420127246762,179.31144733409747 178.3256466713501,179.04096532138647 173.18541156122228,181.98243401180662 166.93257144890958,180.05527064138732 164.28457154374337,180.25813097630453 159.27784903388238,179.37906776969612 157.98722723132232,179.8524100634968 157.54218523041345,181.576717230113 156.65210122865392,181.88100490754005 155.8510256271693,186.07335724690347 157.65344573068433,199.3259175199928 157.4976810303633,210.98866493190872 159.56712633441202,216.02537129343546 159.98991623526672,218.35775504235062 158.45452133228537,219.0 157.27516002993798,218.6619766416552 156.56309282849543,214.87606893757766 154.78292482497636,210.92105711631302 154.60490802465938,204.59960712777684 153.64806772279553,202.16561694533448 153.35879042220768,199.52875477224006 153.8260845231125,198.37934046363807 155.4282357263146,198.54837246892566" stroke="#4dd2ff" stroke-linecap="round" stroke-linejoin="round" stroke-width="0.5"><title>2021-11-02 3.0km</title></polyline><polyline fill="none" points="47.63603081839392,227.25 46.60602706146892,227.32549719445524 43.44064966205042,230.98707565123914 41.20478784828447,230.23211671039462 37.86355614895001,235.25253814589814 38.014288406062406,236.6114267357043 34.17061584966723,239.10269761568634 28.970352979376912,243.78318012053205 23.066672909015324,251.5585693201865 21.78544872358907,254.84225604942185 17.891532081528567,260.39042728368076 17.514701438776683,261.8623642927996 17.94177616731031,263.7494465899945 19.624953038350213,266.0516619900882 22.68984226626344,267.4480743355816 25.22716859431239,267.75 22.338133666373324,267.52355579609866 19.07226809556596,265.4478048715973 17.992020252917428,264.01363663823577 17.363969181664288,261.9755897513387 17.690555738750845,260.57913778450165 21.810570766509045,255.03097197879106 22.112035280675627,252.95508660057385 26.00595192273613,247.40670146881894 29.54815996484831,243.17925327683042 37.888678191869985,236.23395864333725 41.00381150539033,230.0811245675286 41.656984619563445,229.89238422267954 43.41552761924686,231.13806708468474 46.85724748997018,227.36324578060885 47.4350544756162,227.32549719445524 47.00797974714078,227.70298272378568" stroke="#4dd2ff" stroke-linecap="round" stroke-linejoin="round" stroke-width="0.5"><title>2016-05-06 3.5km</title></polyline><polyline fill="none" points="66.94100059237098,267.75 63.79360653820913,265.5383528799139 62.39758498198353,262.1827024199156 62.829082553915214,260.73365367592487 67.06791164301103,255.35682600970904 67.16944048344158,253.2975761241105 74.12416605482576,244.0688185991312 82.75411749363411,236.5558296058589 86.51068459055386,229.7671944815811 88.56664360989816,230.83508534631983 92.348592916911,227.25 92.60241501801647,227.82209251051245" stroke="#4dd2ff" stroke-linecap="round" stroke-linejoin="round" stroke-width="0.5"><title>2016-03-22 1.7km</title></polyline></svg>