<?xml version="1.0" encoding="utf-8" ?>
<svg baseProfile="full" height="300mm" version="1.1" viewBox="0,0,200,300" width="200mm" xmlns="http://www.w3.org/2000/svg" xmlns:ev="http://www.w3.org/2001/xml-events" xmlns:xlink="http://www.w3.org/1999/xlink"><defs /><rect fill="#222222" height="300" width="200" x="0" y="0" /><text fill="#FFFFFF" style="font-size:12px; font-family:Arial; font-weight:bold;" x="10" y="20">Over 1km Workouts</text><text fill="#FFFFFF" style="font-size:4px; font-family:Arial" x="10" y="280">ATHLETE</text><text fill="#FFFFFF" style="font-size:9px; font-family:Arial" x="10" y="290">underwindfall</text><text fill="#FFFFFF" style="font-size:4px; font-family:Arial" x="120" y="280">STATISTICS</text><text fill="#FFFFFF" style="font-size:3px; font-family:Arial" x="120" y="285">Number: 23</text><text fill="#FFFFFF" style="font-size:3px; font-family:Arial" x="120" y="290">Weekly: 2.1</text><text fill="#FFFFFF" style="font-size:3px; font-family:Arial" x="141" y="285">Total: 68.2 km</text><text fill="#FFFFFF" style="font-size:3px; font-family:Arial" x="141" y="290">Avg: 3.0 km</text><text fill="#FFFFFF" style="font-size:3px; font-family:Arial" x="167" y="285">Min: 1.1 km</text><text fill="#FFFFFF" style="font-size:3px; font-family:Arial" x="167" y="290">Max: 4.7 km</text><polyline fill="none" points="12.0,55.41632721904898 12.220048899645917,55.28259825985879 12.528117359266616,55.01514018140733 13.232273838599212,54.613952663203236 14.112469437648542,54.8145464824629 14.640586797031574,55.48319167850423 14.904645476839505,55.01514018140733 15.388753056293353,54.74768188933376 15.476772616035305,54.547088030172745 15.74083129572682,54.547088030172745 16.577017114963382,54.07903522491688 16.8410757946549,53.4103872255364 17.061124694300815,53.20979256549617 16.973105134558864,53.07606272553676 17.061124694300815,52.80860288487747 17.369193153921515,52.942332831793465 17.897310513420962,52.67487288470147 18.029339853324927,52.40741272387095 18.161369193228893,52.40741272387095 18.38141809287481,52.13995234944741 18.557457212591544,52.13995234944741 18.469437652849592,51.73876138747437 18.601466992753558,51.87249176140176 18.86552567232866,51.87249176140176 19.56968215154484,51.538165726175066 19.789731051423587,51.13697404321283 20.009779951069504,51.13697404321283 20.053789730998687,50.93637802160811 20.27383863076102,50.602051051741 20.6699266503565,50.20085824764101 21.374083129456267,49.799664962891256 21.46210268943105,49.866530543600675 21.682151589076966,49.398471197491745 21.85819070902653,49.19787413487211 22.298288508551195,49.1310084204888 22.518337408313528,49.19787413487211 22.43031784845516,48.99727695170441 22.60635696828831,48.796679648628924 23.398533007246442,48.5292163908598 24.014669926604256,47.99428923454252 24.23471882636659,47.9274232799944 24.45476772612892,47.65995932806982 24.542787286103703,47.726825336168986 25.026894865441136,47.325629087834386 25.11491442541592,47.05816465537646 25.511002444894984,46.99129851392354 25.68704156484455,46.79070000926731 25.64303178479895,46.85756619088352 25.731051344773732,46.723833814263344 25.731051344773732,46.59010138458689 26.25916870404035,46.45636890135938 26.171149144298397,46.389502639794955 26.435207823989913,46.188903774658684 27.007334963418543,45.9214384345978 28.019559902139008,45.25277414944139 28.063569682184607,45.31964063795749 28.327628361876123,45.11904113221681 28.50366748170927,45.185907647624845 28.50366748170927,45.05217460371205 28.72371638135519,44.85157493763836 29.3838630807586,44.45037524521467 29.735941320308484,44.116041801346 30.39608801959548,43.78170802333625 31.100244498695247,43.647974418941885 31.54034229821991,43.44737391185481 31.672371638123877,43.58110759634292 32.06845965771936,43.11303946640692 32.332518337410875,43.04617253737524 32.332518337410875,42.97930559498491 32.24449877743609,42.77870468760375 32.332518337410875,42.71183769160416 32.46454767731484,42.4443695746304 32.68459657696076,41.575096719461726 33.784841075656004,41.1738931023865 34.356968215084635,40.705821608309634 34.8410757946549,40.638954198453575 35.061124694300815,40.304616949899355 35.237163814133964,40.23774945986224 35.50122249382548,40.304616949899355 36.38141809287481,40.03714691041387 37.08557457209099,39.635941451066174 37.74572127126157,39.56907382767531 38.58190709038172,39.167867807584116 39.3300733496435,39.03413236068445 40.562347188126296,38.43232218900812 41.09046454762574,38.43232218900812 41.22249388752971,38.2317185580323 41.57457212707959,38.09798273752676 41.79462102695834,37.89737890631659 42.27872860629577,37.696774955053115 42.894865525653586,37.362434769340325 43.07090464537032,37.42930283313035 44.083129584323615,36.760621593828546 43.95110024441965,37.02809424966108 43.819070904748514,36.894357948360266 43.59902200486977,37.09496238018619 43.86308068456128,37.362434769340325 43.86308068456128,38.09798273752676 43.68704156484455,38.2317185580323 44.03911980439443,38.29858644847991 44.25916870427318,38.43232218900812 44.34718826401513,38.766661306784954 44.30317848408595,39.03413236068445 44.43520782398991,39.10100009053713 44.43520782398991,39.2347355109232 44.83129584346898,39.635941451066174 45.18337408313528,40.23774945986224 45.359413202968426,40.37148442611215 44.91931540344376,40.304616949899355 45.05134474323131,40.50521933916025 45.05134474323131,40.705821608309634 45.359413202968426,40.973291113594314 45.271393642993644,41.04015845648246 45.31540342303924,41.24076040519867 45.13936430308968,41.44136223391979 45.22738386306446,41.70883115171455 46.01955990213901,41.90943270010757 46.41564792173449,42.4443695746304 46.72371638135519,42.64497068230412 47.33985330059659,43.380507049383596 47.33985330059659,43.58110759634292 47.251833740854636,43.58110759634292 47.33985330059659,43.647974418941885 47.29584352078382,43.848574805713724 47.735941320308484,45.05217460371205 47.6479217603337,45.31964063795749 47.47188264050055,45.453373575233854 47.3838630807586,45.453373575233854 47.3838630807586,45.65397288053646 47.251833740854636,45.85457206601859 47.07579462102149,46.25577007624088 47.11980440095067,46.59010138458689 47.3838630807586,47.125030783441616 47.42787286057137,47.59309330658289 47.77995110012125,48.26175291943946 47.823960880283266,48.395484681852395 47.823960880283266,48.59608222541283 48.0,48.8635454296309 47.95599022007082,49.26473983575124 47.47188264050055,49.799664962891256 45.62347188265994,51.070108716055984 45.18337408313528,51.939356928371126 45.22738386306446,52.07308722232119 44.74327628361061,52.87546786497114 44.127139364369214,53.00919778534444 43.86308068456128,52.942332831793465 43.7750611245865,53.00919778534444 43.511002444894984,53.47725208566408 43.11491442541592,53.81157618536963 42.41075794619974,54.74768188933376 41.88264058670029,55.28259825985879 41.61858190712519,55.683784977009054 41.26650366745889,56.08497121374239 41.00244498765096,56.1518355399312 40.69437652803026,56.48615696997149 40.69437652803026,56.686749667918775 40.51833740831353,56.82047806630726 40.474327628384344,57.02107056387467 40.12224938860163,57.28852704059682 40.03422982885968,57.48911925786524 39.06601466983557,58.62580622037058 38.889975550118834,59.093852672114735 38.80195599026047,59.160716397396754 38.713936430285685,59.36130749367294 38.405867970664985,59.49503482415457 38.05378973099869,59.829352917382494 37.525672371615656,59.829352917382494 36.95354523230344,60.163670676527545 36.645476772566326,60.63171497924486 36.249388752970845,60.63171497924486 35.941320293350145,60.36426117212977 35.76528117363341,60.56485154744587 35.545232273754664,60.56485154744587 35.01711491437163,60.096807151450776 34.180929095251486,59.762489325366914 32.68459657696076,58.8263976367889 31.27628361841198,57.756575360835996 30.792176039074548,57.82343935332028 30.528117359266616,57.68971135522588 30.39608801959548,57.4222551988787 29.51589242054615,57.087934703187784 29.163814180879854,57.15479882908403 28.81173594132997,57.622847336228006 28.81173594132997,57.555983303900575 28.50366748170927,57.622847336228006 27.93154034228064,57.95716729798005 27.315403423039243,58.090895189292496 26.91931540344376,58.35835081152618 26.875305623514578,58.224623027053894 26.611246943706647,58.5589423882775 25.863080684561282,58.692670039163204 25.599022004869767,58.96012518121279 25.863080684561282,58.62580622037058 25.511002444894984,58.62580622037058 25.599022004869767,58.692670039163204 25.599022004869767,59.02698893327033 25.511002444894984,59.42817116557853 24.982885085628368,59.896216495893896 24.80684596579522,60.29739768707077 24.850855745724402,60.49798810240463 24.674816625891253,60.63171497924486 24.718826405820437,60.76544180267956 24.718826405820437,61.032895289274165 24.410757946199737,61.032895289274165 24.278728606295772,61.23348526429618 23.92665036674589,61.300348562479485 23.838630806771107,61.56780162215 23.92665036674589,61.9021176462702 23.79462102695834,62.16957022526185 23.354523227433674,62.303296434896765 22.826405867934227,62.23643333694781 22.60635696828831,62.57074869348435 22.34229828848038,62.57074869348435 22.34229828848038,62.77133774757385 22.078239608788863,63.105652570404345 21.55012224940583,63.239378406171454 21.242053789668716,63.105652570404345 20.933985329931602,62.77133774757385 20.6699266503565,62.70447474284447 20.317848410690203,62.43702259103884 20.317848410690203,62.23643333694781 20.053789730998687,62.10270710056648 19.305623471736908,61.9021176462702 19.173594131949358,61.76839127668063 18.68948655249551,61.70152807171689 17.80929095344618,61.16662195275421 16.400977995130233,60.96603193771443 15.872860635630786,60.69857839756878 15.784841075656004,60.43112464383012 14.77261613693554,60.02994361295714 14.72860635688994,59.96308006098843 14.816625916864723,59.96308006098843 13.804400977911428,59.69562571999268 13.628361858194694,59.49503482415457 13.672371638123877,59.29444380820496 13.496332518290728,59.29444380820496 13.27628361841198,59.160716397396754 13.320293398573995,59.093852672114735 13.320293398573995,58.8263976367889 12.57212713942863,59.42817116557853 12.352078239549883,59.49503482415457 12.484107579453848,59.42817116557853 12.396088019595481,59.49503482415457 12.484107579453848,59.56189846943016 12.352078239549883,59.69562571999268 12.3080684596207,59.62876210146351 12.352078239549883,59.56189846943016 12.220048899645917,59.69562571999268 12.264058679691516,59.49503482415457 12.176039119716734,59.36130749367294 12.220048899645917,59.36130749367294 12.132029339903966,59.36130749367294 12.264058679691516,59.49503482415457 12.176039119716734,59.42817116557853 12.220048899645917,59.56189846943016 12.220048899645917,59.36130749367294 12.088019559741952,59.36130749367294 12.396088019595481,59.42817116557853" stroke="#4dd2ff" stroke-linecap="round" stroke-linejoin="round" stroke-width="0.5"><title>2022-05-21 1.8km</title></polyline><polyline fill="none" points="94.66666666662786,62.735227103636134 93.97053407004569,61.82829675450921 93.72191528533585,61.67714148489176 93.32412523019593,61.601563827338396 92.62799263349734,60.921364231267944 92.32965009205509,60.24116341190529 92.47882136283442,59.78769551953883 92.27992633520626,59.25864895817358 91.68324125220533,58.80517988820793 91.28545119706541,58.27613195255981 89.79373848985415,57.293612395384116 89.4953959484119,56.764562345837476 88.89871086541098,56.31109028618084 88.35174953960814,55.630881177290576 87.3572744014673,54.87509184400551 86.26335174962878,53.590246512234444 85.06998158374336,52.68329423866817 84.37384898704477,51.851919411390554 84.12523020256776,51.851919411390554 83.97605893190484,51.625180504866876 83.67771639034618,51.549600839294726 81.93738489877433,53.81698424075148 81.48987108655274,53.66582577009103 80.69429097604007,53.13677064728108 79.55064456711989,52.5321353150357 79.2025782688288,52.22981728674495 78.9539594843518,52.38097633118741 78.70534069975838,51.700760155392345 77.36279926332645,50.71822352032177 76.96500920807011,50.18916427521617 76.76611418055836,50.113584322534734 76.31860036833677,49.357783966406714 74.42909760598559,47.39269597316161 74.03130755061284,47.241534935630625 72.98710865562316,46.0322444596095 72.58931860048324,45.80550206504995 71.7440147328889,44.74736909335479 71.44567219156306,44.67178805361618 70.40147329634055,43.46248936280608 69.30755064461846,42.555512807681225 68.61141804791987,41.72411572217243 67.16942909755744,40.43922572286101 67.76611418055836,41.11946214857744 67.76611418055836,41.195043898100266 66.82136279926635,41.27062563243089 65.97605893190484,42.933419969980605 65.47882136283442,43.613651910593035 64.981583793764,44.82295011798851 65.23020257812459,46.183405980526004 65.57826887653209,47.241534935630625 65.92633517505601,47.46827646921156 66.47329650097527,48.299660930846585 66.32412523019593,48.75314259409788 65.42909760598559,49.50894415847142 64.93186003691517,50.113584322534734 64.23572744010016,50.340324135060655 63.837937384843826,50.4159040422237 63.29097605892457,50.18916427521617 62.4953959484119,50.340324135060655 60.20810313068796,49.357783966406714 59.7605893186992,48.75314259409788 59.61141804791987,48.67756235471461 58.965009208070114,49.357783966406714 58.66666666662786,49.28220384780434 58.965009208070114,48.60198209999362 59.36279926332645,48.072919895203086 59.412523020175286,47.84617872381932 59.661141804768704,47.46827646921156 60.158379373839125,46.0322444596095 60.755064456840046,45.12527406588197 61.401473296340555,43.84039561887039 61.55064456711989,43.46248936280608 61.65009208105039,42.78225715042208 61.998158379341476,42.47993133001728 62.24677716381848,41.11946214857744 62.197053406969644,40.36364382234751 62.24677716381848,39.305495628505014 62.14732965012081,38.77642042178195 62.29650092078373,38.24734447503579 62.594843462342396,38.02059741405537 62.99263351748232,37.41593792074127 63.29097605892457,37.264772896363866 63.78821362799499,37.34035541623598" stroke="#4dd2ff" stroke-linecap="round" stroke-linejoin="round" stroke-width="0.5"><title>2022-05-21 1.1km</title></polyline><polyline fill="none" points="133.30386246927083,43.314150533406064 133.11096226837253,42.25168609096727 133.01451216783607,42.324959698235034 132.12234873848502,42.324959698235034 131.95356106269173,42.25168609096727 131.8571109622717,42.25168609096727 131.59187318600016,42.141775625088485 131.35074793483363,42.178412454391946 130.96494753292063,42.105138788567274 130.57914713100763,41.92195449589053 129.61464612634154,41.77540693021729 128.89127037278377,41.592222308478085 128.31256976997247,41.62885924743023 127.9749944183859,41.482311447689426 127.90265684301266,41.518948408571305 127.68564411695115,42.141775625088485 127.49274391605286,42.43487005439238 127.32395624020137,42.508143588594976 127.03460593876662,42.324959698235034 126.62469301180681,42.21504927641945 126.2147800847888,42.21504927641945 126.14244250941556,42.288322898282786 126.16655503463699,42.25168609096727 125.78075463272398,42.36159649095498 125.6360794819775,42.324959698235034 125.58785443170927,42.21504927641945 125.37084170570597,42.03186509346415 125.00915382889798,41.95859136918443 123.92409019870684,41.95859136918443 123.56240232189884,41.88531761546619 123.32127707073232,41.92195449589053 122.23621344048297,41.70213310344843 121.94686313904822,41.70213310344843 121.48872516187839,41.592222308478085 120.25898638082435,41.482311447689426 119.559723152488,41.7387700205436 119.39093547663651,41.66549617915007 119.12569770030677,41.409037503777654 118.93279749940848,41.372400520936935 118.73989729851019,41.66549617915007 118.47465952212224,43.38742371647095 118.25764679611893,44.12015393789625 117.72717124351766,43.97360812766419 117.55838356772438,44.12015393789625 117.12435811565956,45.329152406644425 116.76267023885157,45.47569713422854 116.76267023885157,45.62224174501898 116.8350078141666,45.84205844158714 116.95557043980807,45.87869453204621 116.97968296491308,45.9886027595785 116.85912033927161,46.75795850950817 116.90734538953984,46.8678662104212 116.97968296491308,46.904502096091164 116.76267023885157,47.234224738233024 116.66622013837332,47.307496355919284 116.66622013837332,47.527311033773 116.56977003795328,48.11348222060769 116.56977003795328,48.47983826158452 116.4250948872068,48.91946454520803 116.37686983693857,49.359089775636676 116.49743246258004,49.79871395294322 116.25630721141351,50.09179615259927 116.20808216114528,50.34824269337696 116.47331993747503,50.53141857456649 116.49743246258004,50.604688875740976 116.18396963604027,51.11758016537351 116.15985711093526,51.227485255294596 116.20808216114528,51.41066025881446 116.20808216114528,51.63047002158419 116.13574458577204,51.8136446228018 116.13574458577204,51.96018417215964 115.87050680950051,52.50970643990149 115.79816923412727,52.58297595125623 115.21946863131598,52.58297595125623 115.00245590525446,52.36316732944397 114.90600580477621,52.36316732944397 114.73721812898293,52.1799932767899 114.42375530244317,52.216628101916285 113.60392944846535,52.070088757333 112.80821611959254,52.03345390294271 112.518865818216,52.25326291969395 112.15717794140801,52.692880163536756 112.30185309215449,52.72951488626131 112.1089528912562,52.83941901070648 111.94016521546291,53.1324963542138 111.96427774050971,53.27903485031857 111.94016521546291,53.498842375178356 112.01250279071974,53.53547693703149 111.86782764008967,53.865187664923724 111.84371511492645,54.12162893253844 111.69903996429639,54.597876050218474 111.72315248934319,54.67114472776302 111.67492743907496,55.03748767710931 111.62670238892315,55.220658877602546 111.57847733865492,55.733537266161875 111.48202723817667,56.026609987413394 111.48202723817667,56.24641422127024 111.40968966280343,56.50285216132761 111.26501451211516,56.50285216132761 111.1444518865901,56.68602189910598 111.12033936136868,56.97909309928946 111.02388926094864,57.08899467876472 106.39428443845827,58.73751047151745 106.37017191335326,58.59097633401689 106.53895958914654,58.29790770809632 106.41839696350507,58.11473957913404 106.17727171233855,57.93157126751612 105.98437151144026,57.60186784566031 105.6467961598537,57.34543144136842 105.35744585836073,56.97909309928946 105.33333333331393,56.75928974301496 105.50212100910721,56.50285216132761 106.2737218128168,55.989975922886515 106.56307211425155,55.58700073004002 107.28644786775112,55.44046407673159 107.72047331987415,55.25729309572489 107.96159857104067,55.07412193187338 108.05804867157713,54.78104768936464 108.13038624683395,54.7077790555777 108.03393614641391,55.220658877602546 107.93748604593566,55.33056151009805 107.96159857104067,55.29392730649852 107.74458584503736,54.9642191457242 107.96159857104067,54.7077790555777 108.03393614641391,54.5246073432354 108.03393614641391,54.15826337001636 108.0098236213089,54.011725575939636 108.08216119668214,53.64538057886239 108.13038624683395,53.791918665374396 108.3956240232219,53.755284154758556 109.09488725155825,54.04836003539094 109.09488725155825,54.15826337001636 109.02254967618501,54.26816663876525 109.40835007809801,53.682015111422515 109.50480017851805,53.64538057886239 109.72181290457956,53.682015111422515 109.62536280415952,53.57211149156501 109.5771377538913,53.31566945603117 109.67358785442775,53.1324963542138 109.9629381558043,52.766149601797224 110.01116320607252,52.43643689931196 109.9870506808511,52.1799932767899 109.67358785442775,51.740374804358 109.770037954906,51.703739884032984 109.9629381558043,51.44729523756541 110.15583835670259,51.33739027931006 110.46930118324235,51.00767500983784 110.49341370840557,50.787864500962314 110.68631390930386,50.53141857456649 110.7586514846771,50.49478341289796 110.92743916047039,50.641324015450664 111.1444518865901,50.641324015450664 111.84371511492645,49.61553734035988 111.94016521546291,49.54226664414455 112.08484036609298,49.50563128510839 112.25362804188626,49.359089775636676 112.75999106944073,48.66301600766019 112.92877874523401,48.29666033256217 113.19401652150555,48.076846576310345 113.41102924756706,47.747125448295265 113.60392944846535,47.56394678786455 113.67626702383859,47.34413215391396 114.20674257643986,46.75795850950817 114.30319267691812,46.53814291008166 114.2790801517549,46.39159903085965 114.59254297823645,46.13514696073253 115.17124358116416,45.329152406644425 115.34003125695745,45.2192437841295 115.50881893280894,44.88951752145658 115.70171913370723,44.63306335201196 115.70171913370723,44.55979066634609 116.06340701051522,44.193426799130975 116.11163206066703,43.97360812766419 116.47331993747503,43.60724309003854 116.59388256300008,43.38742371647095 116.8350078141666,43.13096744765062 116.95557043980807,42.80123743263539 117.17258316581137,42.508143588594976 117.2208082160796,42.36159649095498 117.46193346724613,42.178412454391946 117.65483366814442,41.92195449589053 117.84773386915913,42.03186509346415 118.04063407005742,42.36159649095498 118.2094217458507,42.36159649095498 118.45054699707543,42.508143588594976 118.64344719803194,42.47150682518259 118.71578477328876,42.43487005439238 118.64344719803194,42.25168609096727 118.76400982355699,41.995228234969545 118.81223487388343,41.77540693021729 119.02924759982852,41.262489528467995 119.24626032594824,41.518948408571305 119.63206072780304,41.592222308478085 120.13842375524109,41.518948408571305 120.21076133061433,41.44567447928421 120.35543648136081,41.44567447928421 121.05469970969716,41.592222308478085 125.0332663541194,42.03186509346415 125.44317928107921,42.105138788567274 125.56374190660426,42.25168609096727 125.75664210761897,42.36159649095498 126.33534271043027,42.21504927641945 127.0104934136616,42.25168609096727 127.42040634067962,42.39823327631166 127.63741906674113,42.324959698235034 127.9749944183859,42.508143588594976 128.84304532263195,42.80123743263539 129.9281089528813,42.80123743263539 130.65148470638087,43.05769416225667 130.96494753292063,43.05769416225667 131.4713105603587,43.314150533406064 131.73654833668843,43.350787128540105 131.95356106269173,43.314150533406064 132.36347398970975,43.38742371647095 132.7010493412963,43.533969994750805 133.0868497432093,43.936971656861715 133.13507479347754,44.04688104732486 133.35208751953905,44.193426799130975 133.4244250948541,44.30333603596955 133.59321277064737,44.44988158298656 133.93078812235035,44.55979066634609 134.2442509488901,44.85288123344071 134.50948872516165,44.7796086356102 135.18463942839298,44.81624493819254 135.30520205403445,44.85288123344071 135.52221478003776,44.85288123344071 135.956240232219,44.99942634148465 136.02857780759223,45.10933509575261 137.1618664880516,45.951966690976406 137.28242911363486,45.951966690976406 137.71645456575789,46.42823501158273 137.90935476665618,46.50150695128832 138.10225496761268,46.28169104468543 138.1745925429277,46.17178299256193 138.1745925429277,46.20841901720269 138.36749274394242,46.2450550346839 138.68095557036577,45.951966690976406 138.77740567090223,45.951966690976406 138.94619334675372,45.8054223437357 138.99441839690553,45.695514006351004 138.94619334675372,45.54896945430664 138.97030587185873,45.47569713422854 138.8979682964855,44.742972325650044 138.82563072111225,44.70633600842848 139.06675597227877,44.523154312570114 140.17593212769134,44.596427012758795 140.80285778077086,44.55979066634609 141.33333333331393,44.7796086356102" stroke="#4dd2ff" stroke-linecap="round" stroke-linejoin="round" stroke-width="0.5"><title>2022-05-17 2.8km</title></polyline><polyline fill="none" points="188.0,35.77617893740535 187.69305724732112,35.57630385883385 187.12302070646547,35.509678806120064 186.55298416572623,35.70955392444739 186.15834348357748,35.97605389615637 184.27283800242003,36.44242833426688 184.0535931790946,36.84217733403784 184.0097442144761,37.10867640117067 184.27283800242003,37.50842460276908 184.5359317904804,40.040152092056815 184.75517661392223,40.57314490538556 184.75517661392223,40.77301699097734 184.62362971995026,40.90626498157508 184.84287454315927,41.039512918825494 184.97442143724766,41.239384725049604 183.83434835565276,41.37263252932462 184.09744214371312,42.371989365667105 183.79049939103425,42.57186037377687 180.4579780754866,41.972246990393614 179.18635809991974,41.972246990393614 179.05481120583136,41.639127978356555 179.05481120583136,43.17147267979453 179.18635809991974,43.704460491921054 179.05481120583136,44.37069405973307 178.26552984153386,44.63718711450929 178.3093788063852,44.63718711450929 177.87088915961795,45.236795709322905 177.3447015833808,45.303418820287334 177.12545676005539,45.5699111300346 175.15225334954448,44.37069405973307 172.82825822161976,43.57121361873578 172.52131546882447,43.504590162076056 171.81973203422967,43.7710839084757 171.77588306937832,44.37069405973307 171.5566382460529,45.1035494482785 171.16199756390415,47.43535134001286 171.20584652852267,48.23482252363465 171.0742996346671,49.300781122234184 170.81120584660675,49.900381337618455 170.7673568817554,50.56660253551672 170.54811205842998,50.899712635873584 170.46041412907653,52.03228448948357 170.1096224116627,53.631202915275935 170.0657734470442,54.16417402136722 170.19732034113258,55.23011368029984 170.02192448230926,57.162120633525774 170.1096224116627,58.16143018574803 169.93422655307222,58.827634891611524 169.84652862360235,59.56045853186515 169.32034104759805,60.426520759094274 168.618757612654,60.5597609023971 166.42630937881768,59.826939456455875 164.71619975636713,59.7603192453098 162.74299634597264,59.49383826734265 162.3922046284424,59.693699020834174 162.30450669920538,59.826939456455875 162.5237515225308,61.49244041505153 162.5237515225308,62.22525820333976 162.43605359317735,62.69159595828387 162.172959805117,63.157933061389485 160.94518879428506,63.69088895278401 160.46285018266644,63.82412779267179 155.42021924478468,64.42370191347436 155.15712545672432,64.2904633130529 153.27161997556686,64.49032119387994 152.74543239956256,64.2904633130529 152.1315468940884,63.22455259444541 152.1315468940884,62.35849762856378 152.21924482332543,61.892159408307634 152.1753958587069,61.292580738838296 152.26309378817677,61.092720943066524 152.08769792935345,60.759621017379686 152.0,60.35990066762315 152.26309378817677,58.7610144809878 152.39464068203233,58.49453270496451 152.3507917174138,58.36129173723748 152.4823386115022,58.16143018574803 152.4823386115022,57.76170672403532 152.3069427527953,57.29536207995261 152.26309378817677,56.762395974627 152.3507917174138,55.69646121034748 152.26309378817677,55.03025025353418 152.3069427527953,54.16417402136722 152.52618757612072,53.43133853105246 152.4823386115022,52.96498783561401 152.57003654085565,52.69850143123767 152.43848964688368,52.298771425674204 152.26309378817677,52.36539312644163 152.04384896473493,52.0989062434528 152.04384896473493,51.03295658269781 152.21924482332543,50.100247836642666 152.1315468940884,49.767136938578915 152.21924482332543,48.36806753449491 152.39464068203233,47.901709763129475 152.6577344700927,46.569255396403605 152.87697929365095,46.10289511116571 152.96467722288799,45.76978022282128 153.22777101094835,45.50328807262122 153.3154689404182,45.170172585349064 154.1485992691014,44.30407076267875 154.23629719857126,44.037577442097245 154.80633373942692,43.10484914359404 154.9378806333989,42.57186037377687 155.15712545672432,42.371989365667105 156.7795371498214,42.5052367177268 157.65651644335594,42.838354865059955 158.7527405603323,43.03822559377295 159.19123020709958,43.30471971281804 159.67356881848536,43.3713432092045 160.11205846525263,43.57121361873578 160.59439707675483,43.63783706186223 161.64677222887985,44.10420079212054 162.3922046284424,44.63718711450929 163.006090134033,44.83705676579848 164.19001218036283,44.903679956449196 165.19853836798575,44.83705676579848 166.38246041419916,45.03692629741272 166.6455542021431,44.903679956449196 169.71498172951397,45.370041917660274 170.28501827036962,45.1035494482785 170.63580998789985,44.770433561876416 170.8989037758438,43.3713432092045 170.85505481122527,43.17147267979453 172.03897685743868,42.705107646033866 172.74056029238272,42.6384840166138 172.91595615097322,42.90497845472419 173.61753958591726,43.23809620295651 175.41534713760484,44.57056387083139 175.8538367843721,44.57056387083139 176.59926918393467,44.83705676579848 177.1693057246739,44.57056387083139 177.8270401947666,44.63718711450929 178.22168087691534,44.30407076267875 178.26552984153386,44.10420079212054 178.04628501832485,43.57121361873578 177.8270401947666,43.10484914359404 177.6077953715576,42.771731262124376 178.48477466509212,42.30536566959927 180.4141291108681,42.1054945019132" stroke="#4dd2ff" stroke-linecap="round" stroke-linejoin="round" stroke-width="0.5"><title>2022-05-14 2.0km</title></polyline><polyline fill="none" points="28.525469107553363,74.76139147557842 28.28542919480242,75.12610137283627 28.14826353045646,75.54291205998743 28.113972114399076,75.75131715375755 27.633892288897187,76.16812684228353 27.873932201764546,77.73115724523086 27.976806449936703,77.83535893911903 28.113972114399076,77.8874597705726 28.182554946513847,78.14796377152379 28.182554946513847,77.83535893911903 28.04538928216789,77.93956059163611 27.873932201764546,78.77317231286725 28.011097866110504,78.98157482717943 28.31972061097622,79.08577602193691 28.42259485926479,79.29417828661099 28.35401202715002,79.50258038484026 28.388303443207406,79.65888184926007 28.69692618807312,80.33618711349845 28.834091852535494,80.90929019487521 28.799800436478108,82.52439210761804 28.834091852535494,82.7327916262293 28.731217604246922,83.35798918396176 28.86838326859288,84.08738444157643 28.765509020304307,84.45208130589162 28.799800436478108,85.38987090262526 28.731217604246922,85.49406953869038 28.834091852535494,86.17135965905618 28.799800436478108,86.90074705368897 28.86838326859288,87.05704408739985 28.799800436478108,87.42173680187261 28.86838326859288,88.46371317794546 28.799800436478108,88.98469980587834 29.005548932938837,89.50568539388769 29.10842318122741,90.18296510337677 28.97125751688145,90.54765344971383 29.17700601357501,91.95430372598639 29.10842318122741,92.05849974116427 29.10842318122741,92.31898959704267 29.17700601357501,92.4231854666723 29.142714597517624,93.20465316252375 29.279880261863582,93.621434976827 29.245588845806196,93.98611851833994 29.314171677920967,94.66338660064503 29.279880261863582,95.02806868618063 29.314171677920967,95.75743132850039 29.279880261863582,95.86162582520046 29.485628758440726,96.27840339658724 29.51992017449811,96.7993744245905 29.657085838960484,97.2161504982505 29.622794422903098,97.4245382854715 29.72566867119167,97.78921651281416 29.657085838960484,98.10179744494963 29.657085838960484,98.36228126920469 29.9314171676524,99.24792432649701 30.171457080519758,99.56050351145677 30.24003991263453,99.76888942686492 30.308622744865716,99.76888942686492 30.445788409211673,100.65452771095443 30.685828321962617,101.0192014251079 30.78870257025119,101.69645125654642 31.06303389905952,102.16531549493084 31.131616731290706,102.99884983891388 31.234490979579277,103.10304144475958 31.268782395636663,103.72819020616589 31.440239476272836,103.93657279390027 31.645987972733565,104.71800601611903 32.05748496600427,105.08267405239167 32.05748496600427,105.34315090936434 32.3661077109864,106.07248472544597 32.46898195927497,106.43715086924203 32.43469054310117,106.80181650348823 32.3318162948126,106.95810161928239 32.3318162948126,107.42695640529564 32.46898195927497,107.84371550794458 32.53756479138974,107.94790517965157 32.84618753637187,107.79162065668788 32.88047895242926,107.94790517965157 32.98335320071783,107.84371550794458 33.051936032949015,107.84371550794458 32.64043903967831,108.0 32.6747304557357,107.89581034895673 32.64043903967831,107.94790517965157 32.84618753637187,107.84371550794458 32.84618753637187,107.89581034895673 32.777604704140685,108.0 32.777604704140685,107.73952579463366 32.709021872025914,107.94790517965157 33.051936032949015,107.94790517965157 32.60614762362093,107.16648162821366 32.60614762362093,107.01019663702755 32.503273375332355,106.69762637422536 32.57185620744713,106.43715086924203 32.53756479138974,106.07248472544597 32.46898195927497,105.81200859640376 32.46898195927497,105.39524624946353 32.3318162948126,105.08267405239167 32.263233462697826,104.40543300793797 31.371656643925235,102.47789118580113 31.200199563521892,101.64435517799575 31.131616731290706,101.0192014251079 30.89157681853976,100.39404617466789 30.857285402482376,100.18566075855051 30.78870257025119,100.08146798801317 30.411496993154287,98.72695818622014 30.102874248288572,97.99760384255205 29.897125751595013,97.63292590637866 29.657085838960484,96.48679193251883 29.554211590555497,96.38259768529679 29.69137725501787,95.86162582520046 29.657085838960484,95.2885555781395 29.51992017449811,94.87177642610914 29.41704592620954,94.19450888475694 29.41704592620954,92.78787068267411 29.451337342266925,92.4231854666723 29.382754510152154,92.21479368604196 29.41704592620954,91.85010766919004 29.382754510152154,91.64171543082921 29.451337342266925,91.17283228632004 29.348463093978353,91.01653771760175 29.348463093978353,90.59975174309511 29.41704592620954,90.2350634697068 29.314171677920967,89.81827624734433 29.382754510152154,89.60988238654681 29.314171677920967,89.34938982661697 29.382754510152154,89.24519272979524 29.17700601357501,88.15112070189207 29.211297429632396,87.7864290067082 29.10842318122741,87.36963787392597 29.17700601357501,87.26543998657144 29.142714597517624,86.692350863319 29.10842318122741,86.53605361121299 29.074131765170023,86.0671612933802 28.86838326859288,85.33777156902943 28.90267468476668,84.45208130589162 29.005548932938837,84.24368316018081 29.005548932938837,83.56638803702663 28.97125751688145,83.1495901644812 28.799800436478108,82.88909115610295 28.90267468476668,82.36809235927649 28.86838326859288,81.58659221393464 28.834091852535494,81.48239201772958 28.97125751688145,81.16979117943265 28.90267468476668,80.70088921995193 28.936966100824066,80.54458837964921 28.90267468476668,80.33618711349845 28.628343355841935,79.91938408196438 28.388303443207406,79.13787660375237 28.079680698225275,78.72107165836496 27.908223617821932,78.61687031797192 27.976806449936703,78.56476963211026 28.14826353045646,77.8874597705726 27.908223617821932,77.41855191352079 27.83964078547433,77.05384522002714 27.873932201764546,76.79334012675099 27.73676653718576,76.5328347737377 27.668183705070987,75.75131715375755 27.565309456782416,75.17820274521364 27.393852376146242,74.76139147557842 27.32526954403147,74.13617332307331 27.32526954403147,73.45885196744348 27.2223952957429,73.30254678944766 27.153812463511713,72.78152885384043 26.948063967050985,72.05210199636349 27.5996008728398,72.26050987798953 27.73676653718576,72.20840792325907 27.873932201764546,72.0" stroke="#4dd2ff" stroke-linecap="round" stroke-linejoin="round" stroke-width="0.5"><title>2022-05-14 1.7km</title></polyline><polyline fill="none" points="89.50972423952771,72.0 89.19875432254048,72.03149965341436 89.11582901136717,72.06299930054229 89.0743663557223,72.31499625064316 88.65973979968112,72.53549325185304 88.01706863788422,72.31499625064316 87.62317340966547,72.66149139982008 86.9390395921655,72.69299092126312 86.37929374154191,72.85048843335244 86.23417444695951,73.00798578820832 85.96466718550073,73.10248412571673 85.55004062951775,73.48047690943349 85.42565266275778,73.85846878768643 85.25980204029474,74.0474643872003 84.05738502781605,74.11046286999772 83.8086090941797,73.92146734599373 83.43544519378338,73.79547020418977 83.3110572269652,73.76397090306273 83.14520660461858,73.85846878768643 83.06228129338706,73.85846878768643 83.0208186378004,73.98446587918443 83.0208186378004,74.23645976022817 82.85496801539557,74.67744808371936 82.68911739293253,74.7719454212056 82.2330281813629,75.40192622486211 82.06717755889986,75.4964231284248 81.42450639704475,75.4964231284248 80.96841718541691,75.4649241668667 80.51232797384728,75.11843517443049 80.26355204015272,74.80344452119607 79.82819415634731,74.55145154558704 79.37210494471947,74.39395573158981 79.06113502773223,74.39395573158981 78.27334457129473,74.29945816764666 77.77579270408023,74.14196210201771 77.60994208161719,74.20496054714022 77.195315525576,74.0474643872003 76.71849498618394,73.98446587918443 76.44898772472516,73.88996806993964 76.20021179114701,73.88996806993964 75.86851054633735,73.70097228174563 75.32949602347799,73.66947296175931 75.18437672889559,73.76397090306273 75.12218274542829,73.76397090306273 75.12218274542829,73.63797363545746 74.83194415626349,73.54347561876057 74.58316822268534,73.60647430278186 74.39658627245808,73.7324715956347 74.21000432223082,73.79547020418977 73.67098979937145,73.41747817500436 73.00758730975213,73.22848182088637 72.53076677030185,73.1339835589024 71.84663295286009,73.1339835589024 71.59785701928195,73.03948524026782 71.1417678076541,73.00798578820832 70.7064099238487,72.88198791685863 70.2088580566342,72.88198791685863 69.04790369974216,72.724490436216 68.63327714370098,72.91348739416571 68.17718793201493,73.25998122892634 68.11499394860584,73.44897754539852 68.03206863743253,73.98446587918443 67.90768067061435,74.3309573619481 67.80402403161861,74.89794178312877 67.84548668726347,74.866442702114 67.45159145898651,74.99243898862915 66.91257693618536,75.02393804457097 66.93330826394958,75.43342519906582 66.8711142805987,75.55942103271082 66.8711142805987,75.71691568332608 66.80892029718962,76.00040565828385 66.58087569131749,76.66188028553734 66.58087569131749,77.00836588833772 66.43575639673509,77.38634931427077 66.24917444656603,78.11081501642184 66.20771179092117,78.55179251079971 66.10405515198363,79.02426702973025 66.08332382410299,79.55973644086043 66.04186116857454,79.87471759841719 65.85527921828907,80.56767393165501 65.79308523487998,81.19763159344438 65.71015992370667,81.44961395404243 65.62723461253336,82.04807044719928 65.54430930124363,82.30005144949246 65.41992133448366,82.48903693708417 65.33699602325214,82.86700723302783 65.17114540084731,83.21347920897824 65.12968274531886,83.55995042419818 64.71505618927768,85.29229508723074 64.65286220586859,85.638761737413 64.65286220586859,85.98522762674838 64.77725017262856,86.2686991521623 64.88090681168251,86.89863405180222 64.92236946726916,87.18210393610934 64.88090681168251,87.7175456614932 64.86017548386008,87.90652466015308 64.63213087798795,88.63094205803645 64.32116096100071,89.35535612989042 64.21750432194676,89.76480609063583 63.968728388426825,90.33173505133891 63.98945971619105,90.42622301346273 63.92726573278196,90.96165372968244 63.98945971619105,91.4025953081582 63.98945971619105,91.52857838998898 64.01019104395527,91.62306563530001 64.03092237183591,92.18998791910417 63.84434042160865,92.5364394231874 63.82360909378622,92.72541265023756 63.885803077195305,93.00887206628977 63.885803077195305,93.16634929973225 64.01019104395527,93.60728471699986 64.13457901077345,94.14270463852154 64.15531033853767,94.39466632589756 64.2382356498274,94.6781227432366 64.19677299418254,94.83559831058665 64.25896697759163,95.15054897380469 64.25896697759163,96.18988170221564 64.30042963323649,96.5678191788902 64.4455489278771,96.97725042363163 64.48701158340555,97.63863711310842 64.52847423905041,97.7331206996314 64.54920556681463,98.04806557930715 64.56993689457886,98.99289644662349 64.65286220586859,99.2763446035824 64.65286220586859,99.49680392915616 64.90163813944673,100.34714415683993 65.10895141743822,101.57540528452955 65.19187672861153,101.7958613979572 65.21260805649217,101.95332986181893 65.31626469542971,102.14229181104747 65.56504062912427,103.21307191555388 65.6686972680618,103.46501911937958 65.75162257923512,104.03189885734173 65.81381656270241,104.2208583173342 65.85527921828907,104.59877655857417 65.97966718516545,105.039680029382 66.00039851292968,105.22863828264235 66.20771179092117,105.92148327520408 66.29063710209448,106.6458179691981 66.41502506897086,107.0237304027105 66.56014436355326,107.33865673921537 66.72599498589989,107.9055225609336 66.85038295271806,108.0 67.09915888641262,107.93701504703495 67.0162335751811,107.84253757026454 66.82965162495384,106.99223773455014 66.74672631378053,106.86626699872431 66.5186817079666,106.17342615462258 66.43575639673509,105.41759630960587 66.31136842997512,105.16565222335339 66.26990577433025,104.81922844798828 66.12478647974785,104.50429708314186 66.06259249633877,104.1578718558012 66.00039851292968,103.96891232028429 66.00039851292968,103.87443246769544 65.89674187393393,103.49651249157614 65.75162257923512,103.18157848673582 65.5857719568885,102.64618923587841 65.56504062912427,102.33125353390642 65.50284664571518,102.11079816851998 65.378458678897,101.89034249511315 65.25407071202062,101.57540528452955 65.27480203990126,101.35494886302331 65.2333393842564,101.13449213356944 65.27480203990126,101.04001058376161 65.2333393842564,100.66208381901379 65.27480203990126,100.47312009714369 65.27480203990126,100.09519197458576 65.29553336766548,99.78025118089863 65.21260805649217,99.43381558184046 65.21260805649217,99.30783881177194 65.25407071202062,99.24485038901912 65.97966718516545,98.96140217551147 66.373562413326,98.96140217551147 66.39429374114843,98.92990789815667 66.70526365813566,98.86691932451504 67.63817340927199,98.89841361444269 67.70036739268107,98.8039307257568 67.65890473703621,98.77243641698442 67.70036739268107,98.5519760793104 67.67963606480043,98.3945042208943 67.61744208139135,98.14254892067402 67.53451677021803,97.98507665372745 67.43086013122229,97.10322905436624 67.45159145898651,96.5678191788902 67.47232278680895,96.37885055370862 67.43086013122229,95.93792288163968 67.53451677021803,94.5836373273196 67.51378544245381,94.11120939931425 67.59671075362712,92.44195272476645 67.5759794258629,92.28447476842848 67.5759794258629,91.05614131457696 67.49305411463138,90.61519876787497 67.45159145898651,90.36323104496114 67.38939747557743,89.41834850073792 67.41012880339986,89.10338639514521 67.30647216440411,88.31597838072048 67.28574083663989,87.62305607723829 67.05769623076776,86.0797181918897 67.03696490300354,85.60726480062294 66.97477091959445,85.35528908016568 66.97477091959445,85.16630702580733 66.8711142805987,84.5363652096712 66.74672631378053,84.28438777892734 66.66380100260722,83.62294510877109 66.66380100260722,83.15048436094366 66.58087569131749,82.7725147439196 66.47721905237995,82.61502713625669 66.49795038014418,82.42604179962655 66.39429374114843,82.04807044719928 66.26990577433025,80.85115519077226 66.33209975773934,80.81965729828516 66.26990577433025,80.3786861426488 66.10405515198363,79.84321951099264 66.06259249633877,79.37074744443817 66.10405515198363,79.24475465438445 66.08332382410299,78.55179251079971 66.1662491352763,77.63833776200772 66.22844311868539,77.26035493961535 66.58087569131749,76.22089750884334 66.60160701919813,76.03190451298724 66.53941303578904,75.43342519906582 66.68453233037144,75.33892825769726 66.68453233037144,75.2759302653576 66.80892029718962,74.9609399264591 66.93330826394958,74.80344452119607 67.18208419758594,74.7719454212056 67.5759794258629,74.89794178312877 67.55524809798226,74.92944085792988 67.92841199843679,74.67744808371936 67.94914332625922,74.20496054714022 68.05279996525496,73.66947296175931 68.0735312930774,73.44897754539852 68.1564566042507,73.22848182088637 68.55035183246946,72.94498686509905 68.88205307733733,72.75598994489701 69.11009768315125,72.724490436216 70.87226054619532,72.94498686509905 71.26615577447228,73.03948524026782 73.19416925997939,73.19698240645812 73.56733316037571,73.29148063076718 73.9819597164169,73.48047690943349 74.35512361681322,73.35447941548773 74.70755618944531,73.35447941548773 75.16364540107315,73.48047690943349 75.39169000688707,73.41747817500436 75.99289851315552,73.48047690943349 76.20021179114701,73.48047690943349 76.32459975796519,73.48047690943349 76.53191303601488,73.63797363545746 76.98800224758452,73.60647430278186 77.94164332648506,73.66947296175931 78.50138917710865,73.82696949905949 78.77089643850923,73.98446587918443 79.3928362725419,74.0789636317204 79.72453751740977,74.23645976022817 80.035507434397,74.45695407602761 80.15989540121518,74.67744808371936 80.28428336803336,74.74044631494326 80.42940266261576,74.89794178312877 80.69890992407454,75.11843517443049 80.94768585765269,75.24443125979451 81.44523772486718,75.2759302653576 81.50743170827627,75.40192622486211 82.27449083689135,75.43342519906582 82.48180411494104,75.4964231284248 82.56472942611435,75.59091997538053 82.8756993431598,75.87441017680976 83.39398253813852,76.1264010391169 83.58056448842399,76.2838951239246 84.09884768346092,76.44138905133877 84.43054892821237,76.69337900825485 84.45128025609301,76.66188028553734 84.67932486190693,76.69337900825485 84.94883212330751,76.40989027838805 85.03175743448082,76.44138905133877 85.19760805688566,76.15789986876189 85.17687672912143,75.77991349955846 85.07322009012569,75.55942103271082 85.09395141788991,75.43342519906582 85.17687672912143,75.37042724435742 85.57077195734018,75.40192622486211 85.84027921879897,75.33892825769726 86.35856241377769,75.08693613744981 86.87684560875641,75.11843517443049 86.91830826440128,75.05543709413905 87.47805411502486,75.18143322966353 87.47805411502486,74.9609399264591 87.87194934330182,74.67744808371936 87.91341199883027,74.48845323889691 87.93414332671091,73.82696949905949 87.8512180155376,73.98446587918443 87.74756137648365,74.0474643872003 87.74756137648365,73.98446587918443 87.62317340966547,74.0789636317204" stroke="#4dd2ff" stroke-linecap="round" stroke-linejoin="round" stroke-width="0.5"><title>2022-05-13 4.4km</title></polyline><polyline fill="none" points="134.26503167510964,72.0 130.1913389597321,72.73821610669256 132.6953519132221,84.37906291768013 130.93880551308393,85.45794654601195 127.91156597214285,83.12982412995188 126.71561948698945,84.09514549312007 127.91156597214285,105.38816591663635 125.29543303581886,106.69408595611458 118.23187410715036,108.0 117.14804760506377,102.83308762818342 117.26016758789774,93.691397345101 112.40163499163464,93.12358080374543 112.58850162988529,99.76696338529291 113.97131475352217,101.4703698228841 115.16726123879198,101.64070990571054 116.55007436231244,100.67544808815 116.99855429423042,94.7702456509287 114.41979468555655,93.63461574201938 112.77536826836877,95.0541524196451 112.7379949404858,100.22120609950798 114.04606140882242,101.52714986186766 115.27938122185878,101.64070990571054 116.32583439629525,101.52714986186766 116.73694100056309,100.44832718459656 116.8490609836299,94.65668286406435 115.01776792819146,93.5210525017319 112.7379949404858,94.65668286406435 112.58850162988529,100.05086516679148 113.70970145985484,101.30002963822335 116.32583439629525,101.41358977273921 116.92380763904657,97.43895808947855 116.69956767302938,94.37277569860453 115.61574117070995,93.63461574201938 113.44808816618752,94.08886824974616 112.99960823415313,100.95934896287508 114.41979468555655,101.75426990418055 116.47532770701218,101.30002963822335 116.81168765597977,96.92792998637015 116.69956767302938,100.67544808815" stroke="#4dd2ff" stroke-linecap="round" stroke-linejoin="round" stroke-width="0.5"><title>2022-05-04 3.1km</title></polyline><polyline fill="none" points="180.65156610356644,72.44723336111929 180.79873800138012,72.0 180.28363635903224,72.61494568730996 180.9827028736472,72.44723336111929 180.50439420575276,72.89446600803058 179.17984712554608,73.00627405795967 178.14964384085033,73.34169794039917 176.60433891392313,73.22989002424583 177.00906163291074,73.50940973102115 176.78830378619023,74.06844830718182 177.22981947951484,74.45977464638418 177.08264758181758,74.96290770765336 177.19302650517784,75.6337503825489 177.4873703008052,76.13688133428514 177.74492112197913,77.19904370766017 177.74492112197913,77.75807491714659 178.03926491749007,78.20529908133904 178.33360871311743,79.3233563665708 178.62795250874478,81.22404350568831 178.59115953429136,81.72716441229568 178.62795250874478,83.51603142550448 178.73833143210504,84.13095182196412 179.10626117663924,84.63406750539434 178.4439876364777,85.5843946631503 177.3401984028751,85.69619764617528 177.04585460736416,85.30488701041031 176.67792486282997,84.91357582779892 175.79489347606432,84.29865715018241 175.27979183371644,84.13095182196412 174.39676044683438,83.46012950435397 173.77127988112625,83.40422757212946 173.40335013659205,83.90734456131759 173.21938526444137,84.41046064642433 173.2929712133482,85.52849315485219 173.62410798331257,86.59061990304326 173.660900957766,87.20553354734147 173.62410798331257,88.88256389561866 173.660900957766,90.0005785478279 173.80807285569608,91.17448912828695 173.660900957766,92.96329578766017 173.77127988112625,93.52229552525387 173.77127988112625,94.1371939474775 173.5137290599523,94.58439195204119 173.4401431111619,95.64648435031995 173.69769393233582,96.65267343287996 173.73448690667283,97.2116658052255 173.8448658300331,97.82655612600502 173.77127988112625,98.88863622698409 173.99203772784676,100.00661092874361 174.17600260023028,101.29227631776303 174.47034639574122,102.35434327388066 174.50713937019464,102.96922230192285 174.801483165822,104.0871807122021 174.39676044683438,105.37282736632915 173.8816588044865,105.82000742766832 173.4401431111619,106.04359719039348 172.8882484943606,106.26718677475583 172.3363538775593,106.32308414288855 171.82125223532785,106.6025708164816 170.0551894615637,106.82615995456581 167.66364612232428,107.27333769485995 167.07495853106957,107.55282342010469 166.48627093981486,107.66461763190455 165.38248170621227,108.0 164.8305870895274,107.88820592191769 164.57303626835346,107.38513201841852 164.38907139608636,106.21128939544724 164.13152057491243,105.70821247927961 163.9107627281919,104.4784651013033 163.9107627281919,103.86358938731428 163.80038380494807,102.85742621553072 163.8739697537385,102.29844511342526 164.057934626122,98.94453506814898 164.16831354948226,98.44144509654143 164.20510652381927,97.32346414582571 164.057934626122,96.65267343287996 164.057934626122,96.0936799444753 163.94755570276175,95.53468534018612 164.094727600459,94.36079303904262 163.9107627281919,93.85769483214244 163.35886811150704,93.74589510768419 162.07111400575377,93.35459572107357 161.51921938883606,93.29869576396595 160.34184420632664,93.13099582618452 159.6795706662815,93.13099582618452 159.12767604959663,93.2427957958862 159.12767604959663,94.24899351569184 159.05409010057338,94.86389034215244 159.01729712623637,95.42288628555252 159.0908830750268,96.48497550364118 159.01729712623637,97.6029598020832 159.458812819561,97.99425325181801 159.38522687077057,99.22402910607343 159.2748479474103,99.83891500810569 159.75315661530476,100.84508902595553 160.67298097652383,101.4599713680509 161.81356318446342,101.68356461233634 162.84376646915916,101.18047956185183 163.17490323912352,100.7332920912304 163.35886811150704,100.23020533350063 163.43245406041387,97.04396821059345 163.61641893256456,95.4787858184718 163.61641893256456,94.91978998661216 163.35886811150704,94.4725925178791 162.84376646915916,94.08129414674477 162.3286648268113,93.85769483214244 161.11449666996486,93.74589510768419 160.52580907871015,93.96949451166438 160.0475004108157,94.24899351569184 159.6795706662815,94.69619134157256 159.458812819561,95.14338845325983 159.38522687077057,96.26137810808723 159.458812819561,96.82037126172509 159.42201984510757,97.88245517908945 159.34843389620073,99.00043389800703 159.458812819561,100.23020533350063 159.75315661530476,100.7332920912304 160.2314652830828,101.23637794540264 160.74656692543067,101.57176801266905 161.92394210782368,101.68356461233634 162.95414539251942,101.51586969594064 163.21169621369336,101.06868276103341 163.39566108584404,100.45379955973476 163.5060400092043,99.83891500810569 163.5060400092043,98.60914185413276 163.57962595822755,98.05015227152035 163.54283298365772,97.54706069290114 163.61641893256456,97.04396821059345 163.57962595822755,95.31108718598261 163.4692470348673,94.80799068648776 163.17490323912352,94.30489328296972 162.25507887790445,93.74589510768419 161.66639128664974,93.68999522886588 160.12108635972254,93.91359467746224 159.458812819561,94.75209101955988 159.38522687077057,95.4787858184718 159.458812819561,97.88245517908945 159.38522687077057,98.49734402682225 159.458812819561,99.11223152457387 159.34843389620073,99.61532029088994 159.2748479474103,100.11840815344476 159.56919174292125,100.56559660591302 159.90032851300202,100.95688591590442 160.37863718089648,101.29227631776303 160.89373882324435,101.62766631809063 161.4088404654758,101.7394628955808 161.9607350823935,101.68356461233634 162.47583672462497,101.7394628955808 162.95414539251942,101.4599713680509 163.43245406041387,100.39790101983817 163.57962595822755,97.49116157292156 163.43245406041387,95.03158924239688 163.32207513705362,94.52849224045349 162.84376646915916,94.1371939474775 162.25507887790445,93.80179497537029 161.15128964430187,93.68999522886588 160.599395027617,93.80179497537029 160.15787933417596,94.24899351569184 159.75315661530476,94.69619134157256 159.60598471749108,95.31108718598261 159.49560579413082,96.48497550364118 159.53239876846783,97.04396821059345 159.42201984510757,98.16195027723734 159.42201984510757,98.77683851143229 159.34843389620073,99.33582664334972 159.49560579413082,100.45379955973476 159.71636364073493,101.01278434402775 160.56260205304716,101.7394628955808 161.11449666996486,101.79536116750387 162.7333875457989,101.68356461233634 163.1013172903331,101.34817467913672 163.28528216248378,100.78919056418817 163.39566108584404,99.61532029088994 163.43245406041387,99.11223152457387 163.35886811150704,98.60914185413276 163.54283298365772,98.10605127982853 163.4692470348673,96.98806899013289 163.5060400092043,97.54706069290114 163.61641893256456,98.05015227152035 163.65321190701798,99.67121898685582 163.57962595822755,100.17430674897332 163.35886811150704,100.67739360725682" stroke="#4dd2ff" stroke-linecap="round" stroke-linejoin="round" stroke-width="0.5"><title>2022-05-04 3.2km</title></polyline><polyline fill="none" points="40.65156610356644,112.44723336111929 40.798738001380116,112.0 40.28363635903224,112.61494568730996 40.98270287364721,112.44723336111929 40.50439420575276,112.89446600803058 39.179847125546075,113.00627405795967 38.14964384085033,113.34169794039917 36.60433891392313,113.22989002424583 37.00906163291074,113.50940973102115 36.78830378619023,114.06844830718182 37.229819479514845,114.45977464638418 37.08264758181758,114.96290770765336 37.19302650517784,115.6337503825489 37.487370300805196,116.13688133428514 37.74492112197913,117.19904370766017 37.74492112197913,117.75807491714659 38.03926491749007,118.20529908133904 38.33360871311743,119.3233563665708 38.627952508744784,121.22404350568831 38.591159534291364,121.72716441229568 38.627952508744784,123.51603142550448 38.73833143210504,124.13095182196412 39.10626117663924,124.63406750539434 38.44398763647769,125.5843946631503 37.3401984028751,125.69619764617528 37.04585460736416,125.30488701041031 36.67792486282997,124.91357582779892 35.79489347606432,124.29865715018241 35.279791833716445,124.13095182196412 34.39676044683438,123.46012950435397 33.77127988112625,123.40422757212946 33.40335013659205,123.90734456131759 33.21938526444137,124.41046064642433 33.29297121334821,125.52849315485219 33.62410798331257,126.59061990304326 33.66090095776599,127.20553354734147 33.62410798331257,128.88256389561866 33.66090095776599,130.0005785478279 33.80807285569608,131.17448912828695 33.66090095776599,132.96329578766017 33.77127988112625,133.52229552525387 33.77127988112625,134.1371939474775 33.51372905995231,134.5843919520412 33.44014311116189,135.64648435031995 33.697693932335824,136.65267343287996 33.73448690667283,137.2116658052255 33.844865830033086,137.82655612600502 33.77127988112625,138.8886362269841 33.992037727846764,140.0066109287436 34.17600260023028,141.29227631776303 34.47034639574122,142.35434327388066 34.507139370194636,142.96922230192285 34.80148316582199,144.0871807122021 34.39676044683438,145.37282736632915 33.881658804486506,145.82000742766832 33.44014311116189,146.04359719039348 32.888248494360596,146.26718677475583 32.336353877559304,146.32308414288855 31.821252235327847,146.6025708164816 30.055189461563714,146.8261599545658 27.66364612232428,147.27333769485995 27.07495853106957,147.5528234201047 26.486270939814858,147.66461763190455 25.382481706212275,148.0 24.8305870895274,147.8882059219177 24.573036268353462,147.38513201841852 24.389071396086365,146.21128939544724 24.13152057491243,145.7082124792796 23.910762728191912,144.4784651013033 23.910762728191912,143.86358938731428 23.80038380494807,142.85742621553072 23.873969753738493,142.29844511342526 24.057934626122005,138.94453506814898 24.168313549482264,138.44144509654143 24.205106523819268,137.3234641458257 24.057934626122005,136.65267343287996 24.057934626122005,136.0936799444753 23.947555702761747,135.53468534018612 24.09472760045901,134.36079303904262 23.910762728191912,133.85769483214244 23.358868111507036,133.7458951076842 22.07111400575377,133.35459572107357 21.519219388836063,133.29869576396595 20.34184420632664,133.13099582618452 19.679570666281506,133.13099582618452 19.12767604959663,133.2427957958862 19.12767604959663,134.24899351569184 19.054090100573376,134.86389034215244 19.01729712623637,135.42288628555252 19.090883075026795,136.48497550364118 19.01729712623637,137.6029598020832 19.45881281956099,137.994253251818 19.385226870770566,139.22402910607343 19.274847947410308,139.8389150081057 19.75315661530476,140.84508902595553 20.67298097652383,141.4599713680509 21.81356318446342,141.68356461233634 22.843766469159164,141.18047956185183 23.174903239123523,140.7332920912304 23.358868111507036,140.23020533350063 23.432454060413875,137.04396821059345 23.616418932564557,135.4787858184718 23.616418932564557,134.91978998661216 23.358868111507036,134.4725925178791 22.843766469159164,134.08129414674477 22.32866482681129,133.85769483214244 21.114496669964865,133.7458951076842 20.525809078710154,133.96949451166438 20.0475004108157,134.24899351569184 19.679570666281506,134.69619134157256 19.45881281956099,135.14338845325983 19.385226870770566,136.26137810808723 19.45881281956099,136.82037126172509 19.42201984510757,137.88245517908945 19.34843389620073,139.00043389800703 19.45881281956099,140.23020533350063 19.75315661530476,140.7332920912304 20.231465283082798,141.23637794540264 20.74656692543067,141.57176801266905 21.923942107823677,141.68356461233634 22.954145392519422,141.51586969594064 23.211696213693358,141.06868276103341 23.39566108584404,140.45379955973476 23.5060400092043,139.8389150081057 23.5060400092043,138.60914185413276 23.579625958227552,138.05015227152035 23.542832983657718,137.54706069290114 23.616418932564557,137.04396821059345 23.579625958227552,135.31108718598261 23.469247034867294,134.80799068648776 23.174903239123523,134.30489328296972 22.255078877904452,133.7458951076842 21.66639128664974,133.63409533871163 20.12108635972254,133.91359467746224 19.45881281956099,134.75209101955988 19.385226870770566,135.4787858184718 19.45881281956099,137.88245517908945 19.385226870770566,138.49734402682225 19.45881281956099,139.11223152457387 19.34843389620073,139.61532029088994 19.274847947410308,140.11840815344476 19.569191742921248,140.56559660591302 19.900328513002023,140.95688591590442 20.378637180896476,141.29227631776303 20.893738823244348,141.62766631809063 21.408840465475805,141.7394628955808 21.960735082393512,141.68356461233634 22.47583672462497,141.7394628955808 22.954145392519422,141.4599713680509 23.432454060413875,140.39790101983817 23.579625958227552,137.49116157292156 23.432454060413875,135.03158924239688 23.322075137053616,134.5284922404535 22.843766469159164,134.1371939474775 22.255078877904452,133.80179497537029 21.15128964430187,133.68999522886588 20.599395027616993,133.80179497537029 20.15787933417596,134.24899351569184 19.75315661530476,134.69619134157256 19.605984717491083,135.31108718598261 19.495605794130825,136.48497550364118 19.53239876846783,137.04396821059345 19.42201984510757,138.16195027723734 19.42201984510757,138.7768385114323 19.34843389620073,139.33582664334972 19.495605794130825,140.45379955973476 19.716363640734926,141.01278434402775 20.562602053047158,141.7394628955808 21.114496669964865,141.79536116750387 22.733387545798905,141.68356461233634 23.1013172903331,141.34817467913672 23.28528216248378,140.78919056418817 23.39566108584404,139.61532029088994 23.432454060413875,139.11223152457387 23.358868111507036,138.60914185413276 23.542832983657718,138.10605127982853 23.469247034867294,136.9880689901329 23.5060400092043,137.54706069290114 23.616418932564557,138.05015227152035 23.653211907017976,139.67121898685582 23.579625958227552,140.17430674897332 23.358868111507036,140.67739360725682" stroke="#4dd2ff" stroke-linecap="round" stroke-linejoin="round" stroke-width="0.5"><title>2022-05-04 3.2km</title></polyline><polyline fill="none" points="82.46113638370298,148.0 79.02977442834526,139.54122000461211 79.48297317698598,113.37709756201366 71.00168230594136,112.0 70.93693962763064,122.62322437489638 73.33241872861981,126.85277773946291 77.73492086003534,125.18063307413831 78.31760496576317,115.63946377273533 76.0516112218611,112.88527744589373 71.8433371251449,114.6558275661082 72.03756516054273,125.37735627041548 74.36830158322118,126.75441644547391 78.05863425228745,124.49210126852267 78.18811960890889,114.6558275661082 74.88624301040545,112.88527744589373 71.90807980345562,114.95091863418929 71.58436641166918,124.49210126852267 73.46190408547409,126.45933244630578 76.24583925679326,126.55769379920093 78.18811960890889,124.49210126852267 78.18811960890889,114.75419127504574 74.04458819096908,113.08200555137591 71.6491090899799,115.93455425143475 71.8433371251449,125.18063307413831 76.95800871937536,126.75441644547391 78.57657567947172,124.9839097991935 78.70606103632599,115.1476459147234 76.69903800566681,112.98364150870475 73.91510283434764,112.88527744589373 71.26065301941708,116.13128113929997 71.90807980345562,125.08227144635748 76.18109657848254,127.04950026792358 78.64131835778244,124.19701591451303 77.9938915737439,113.67218939610757 76.44006729195826,112.59018514072523 72.03756516054273,113.4754615262209 70.87219694931991,122.91831067137537 72.94396265805699,126.75441644547391 77.6054355034139,126.26260968195857 78.77080371463671,118.68872353379265 77.54069282487035,113.77055330143776 73.46190408547409,112.88527744589373 71.39013837650418,117.311640816828 71.26065301941708,124.59046301408671 73.20293337176554,126.55769379920093 76.8932660408318,126.26260968195857 78.31760496576317,123.90193038384314 78.18811960890889,115.34437311682268 72.03756516054273,114.55746383738006 71.13116766279563,118.98381218680879" stroke="#4dd2ff" stroke-linecap="round" stroke-linejoin="round" stroke-width="0.5"><title>2022-03-10 3.4km</title></polyline><polyline fill="none" points="126.61389986181166,140.3389358081331 124.66182721673977,135.72575328542734 124.77027569711208,113.6476658299216 121.95061520976014,112.16476687905379 117.50422751845326,112.0 117.55845175858121,121.47398868526216 119.34785168315284,124.35733337639249 122.43863337114453,124.02780928838183 123.52311817393638,122.70971030544024 123.95691209495999,114.30673031971673 120.64923344645649,112.57668378876406 117.99224567983765,114.38911330711562 117.88379719946533,122.54494763651746 121.462597048725,124.35733337639249 123.74001513444819,122.21542210134794 123.74001513444819,113.89481513711507 120.64923344645649,112.74145043775206 117.99224567983765,114.55387923223316 117.88379719946533,122.13304067653371 120.21543952543288,124.35733337639249 123.63156665419228,122.38018490179093 123.8484636148205,114.80102799655288 122.43863337114453,112.90621702049975 119.2936274431413,113.07098353776382 118.20914264034946,114.14196429608273 117.88379719946533,121.8035148124618 120.64923344645649,124.43971435714047 123.52311817393638,122.9568541853514 123.74001513444819,114.80102799655288 123.035100012552,113.31813319033245 120.540784966317,112.65906712130527 117.99224567983765,114.71864509163424 118.26336688036099,123.03923544590361 121.6794940092368,124.43971435714047 124.11958481534384,122.38018490179093 123.035100012552,112.98860028726631 119.61897288402542,112.65906712130527 117.99224567983765,114.80102799655288 118.04646991984919,122.54494763651746 119.94431832467671,124.19257136530359 122.49285761115607,124.2749523789389 123.79423937469255,122.05065923507209 123.36044545343611,113.73004894860787 118.80560928175692,113.15336677164305 117.23310631769709,118.17871294173528 116.96198511705734,115.21294227484032 117.23310631769709,112.0 124.71605145698413,112.41191707417602 125.04139689775184,130.12396232318133 126.23433018079959,138.93851085056667 129.70468154968694,146.7643541043799 129.162439148291,148.0" stroke="#4dd2ff" stroke-linecap="round" stroke-linejoin="round" stroke-width="0.5"><title>2022-03-08 3.7km</title></polyline><polyline fill="none" points="167.92667698510922,112.0 167.0084910785081,112.90007007514942 166.86039657739457,115.87027582318115 169.8519054990029,128.20071148774878 169.46685979620088,133.19569601750118 169.94076219957788,138.37056325584126 172.13256081542931,147.05507347434468 173.13960342260543,148.0 171.62903951178305,141.97040083618776 170.0,138.2805665796477 169.64457319758367,127.34570304135559 170.0888567006914,124.69065614134888 169.64457319758367,123.34062030026689 168.4301982887555,122.71060080741881 167.12696667935234,117.5353740460123 167.66010688326787,116.59031980729196" stroke="#4dd2ff" stroke-linecap="round" stroke-linejoin="round" stroke-width="0.5"><title>2022-01-09 1.7km</title></polyline><polyline fill="none" points="39.31383759423625,154.6586212951952 38.94930383330211,154.1047439598915 40.29807874909602,154.54784591670614 40.079358492512256,153.16314995175344 41.318773280014284,152.8308218918537 40.370985501329415,152.0 39.64191797922831,154.21551951544825 40.22517199697904,152.22155274784018 40.18871862068772,153.4954776136874 36.72564789094031,153.7170291670045 36.470474258298054,154.99094716568652 37.418262036982924,157.20644279473345 37.96506267844234,165.29285169538343 36.434020882239565,165.34823724490707 33.08031028066762,163.07742064436025 32.82513664790895,163.63128006579063 33.11676365684252,175.4836066669668 34.28327169211116,184.51097366669273 32.023162373690866,186.0062760393921 24.87830065737944,188.0 23.420165613293648,184.4002102073282 23.71179262222722,173.87747991783544 18.754133472102694,173.15748904639622 18.863493600394577,179.19427773731877 20.17581514013,181.18805065078777 21.74331031262409,181.29881539256894 22.909818347892724,180.3019311248354 23.019178476184607,174.81900362258602 21.92557719303295,173.65594446418982 20.7590691576479,173.60056057319161 19.22802736144513,175.09592175131547 19.3738408657955,180.57884378067683 21.087149542639963,181.29881539256894 22.909818347892724,180.4126962202281 22.946271723951213,175.15130534379568 21.88912381697446,173.8220960710314 19.41029424185399,174.4867015034106 19.33738748973701,179.52657421799086 20.686162405530922,181.1326682632498 23.055631852243096,180.08040080107457 23.019178476184607,175.4836066669668 22.071390697499737,173.7667122130515 19.59256112249568,174.0990151946753 19.19157398538664,179.85887030043523 20.54034890118055,181.35419774678303 22.873364971834235,180.19116598508845 23.019178476184607,174.87438727037807 22.618191339075565,173.932863753711 21.087149542639963,173.4897927577549 19.3738408657955,174.70823629377992 19.19157398538664,179.9696355728811 20.17581514013,181.24343302728084 21.378776551573537,181.35419774678303 23.019178476184607,180.08040080107457 23.019178476184607,175.04053814745566 22.071390697499737,173.8220960710314 19.59256112249568,174.20978276677488 18.899946976453066,177.3112568295328 18.6812267198693,173.04672105418285 23.857606126577593,172.65903273319418 26.22707557317335,159.03421336913016 27.211316728033125,158.64650546570192 30.929561090655625,160.64042605397117 31.87734886922408,160.19733382832783 32.132522502099164,158.314183974333 37.01727489987388,158.70189234220015 38.32959643949289,157.53876561312063 40.80842601461336,158.203410055532 40.516799005679786,153.16314995175344 40.22517199697904,154.49245821089426 38.83994370489381,154.32629502678174" stroke="#4dd2ff" stroke-linecap="round" stroke-linejoin="round" stroke-width="0.5"><title>2021-12-30 4.7km</title></polyline><polyline fill="none" points="82.46849570912309,188.0 78.07132001360878,176.95905932574533 79.29275770671666,153.1134438473382 71.10912516270764,152.0 71.0480532781221,163.13431844569277 73.30771301034838,165.639503338316 76.05594781995751,165.54671895332285 77.88810435961932,163.41267298936145 78.1934637830127,154.69081806502072 75.38415708881803,152.5567222571699 72.0862753172405,153.67016477059224 71.10912516270764,162.94874865724705 73.67414431832731,165.4539345500525 75.68951651221141,165.639503338316 77.64381682104431,163.8765968584048 78.13239189819433,154.59803149459185 76.17809158936143,152.74229619442485 72.6359222792089,153.29901756261825 70.86483762413263,162.39203884726157 72.8802098177839,165.54671895332285 76.30023535853252,165.17558122857008 78.13239189819433,163.3198881598655 78.1934637830127,155.15475063992199 75.87273216596805,152.6495092350524 71.47555647068657,153.94852498240652 71.17019704729319,163.3198881598655 73.85735997231677,165.54671895332285 77.64381682104431,163.7838121217792 78.07132001360878,154.59803149459185 74.52915070345625,152.18557415957912 71.59770024009049,154.04131168249296 71.10912516270764,163.3198881598655 72.81913793296553,165.36115012824303 77.27738551306538,164.34052026472636 78.37667943700217,155.43310996243963 77.76596059044823,153.67016477059224 75.01772578060627,152.74229619442485 71.90305966325104,154.31967167175026 71.2923408166971,163.7838121217792 73.12449735635892,165.54671895332285 76.72773855132982,165.26836568766157 77.88810435961932,163.8765968584048 78.13239189819433,155.34032353994553 76.6055947819259,152.5567222571699 71.23126893211156,153.29901756261825 71.23126893211156,164.06216627650429" stroke="#4dd2ff" stroke-linecap="round" stroke-linejoin="round" stroke-width="0.5"><title>2021-12-27 3.1km</title></polyline><polyline fill="none" points="129.17453353852034,188.0 131.26854870677926,154.17678807483753 115.39811795973219,152.0 117.60234445240349,174.7722725853091 121.23931816522963,178.28852427884704 126.19882777356543,178.6234046233585 129.50516751245596,175.27459515765077 129.06432221410796,158.36290310963523 122.3414314116817,154.00934303860413 117.49213312729262,157.1907930058078 119.14530299720354,174.10250868613366 123.44354465790093,178.6234046233585 128.95411088922992,175.77691743004834 128.5132655906491,158.36290310963523 123.00269935908727,154.51167804608122 117.60234445240349,157.35823740652995 119.58614829555154,176.11179877776885 125.53755982569419,178.79084474634146 129.28474486316554,175.60947670636233 128.5132655906491,158.86523550981656 123.22312200837769,154.51167804608122 119.80657094507478,154.8465678843204 117.05128782894462,158.6977914099698 118.04318975075148,174.7722725853091 123.66396730695851,178.12108405597974 129.17453353852034,175.77691743004834 128.95411088922992,159.36756760952994 122.45164273609407,154.67912298231386 117.16149915382266,158.53034727630438 118.04318975075148,174.10250868613366 123.00269935908727,178.12108405597974 127.74178631836548,177.45132283127168 129.83580148639157,172.59553795936517 128.62347691552714,158.36290310963523 121.56995213869959,154.34423307713587 118.15340107539669,155.68379189417465 117.27171047846787,159.20012360997498 118.15340107539669,174.7722725853091 125.53755982569419,179.12572489015292 129.50516751245596,173.76762653660262 128.40305426623672,157.52568177407375 124.32523525482975,154.34423307713587 119.3657256460283,154.67912298231386 116.1695972320158,160.53967467148323 117.60234445240349,175.60947670636233 124.65586922876537,178.45596446777927 129.61537883710116,173.93506762810284 129.83580148639157,158.19545890955487 122.12100876215845,153.50700773025164 117.05128782894462,156.5210150682251 117.05128782894462,173.93506762810284 122.01079743774608,178.28852427884704 129.06432221410796,174.10250868613366 128.84389956458472,159.0326795760775 127.41115234442987,156.0186812641332 121.34952948987484,154.17678807483753 116.720653855009,157.6931261079735" stroke="#4dd2ff" stroke-linecap="round" stroke-linejoin="round" stroke-width="0.5"><title>2021-12-07 3.6km</title></polyline><polyline fill="none" points="173.00146487890743,169.5683366661542 171.4217465214897,153.24804509343812 164.97649562405422,152.0 163.77590967225842,154.78409614652628 164.40779701527208,165.44031524352613 167.88317740149796,167.26432907878188 170.66348171024583,166.49632409680635 171.54812399018556,164.6723073486355 170.97942538163625,154.88009917459567 165.4820054981392,153.6320583166962 163.9654758751858,159.29621774112456 165.60838296683505,166.68832545704208 170.0947831014637,167.07232794817537 171.67450145888142,160.8322494761378 170.47391550731845,154.49608694779454 165.4820054981392,154.4000838433276 164.34460828104056,162.08027164812665 165.9875153726898,166.40032338764286 168.2623098071199,168.12833321781363 170.78985917870887,167.4563301326707 171.23218031902798,157.76018110016594 170.0947831014637,154.97610218339832 165.4820054981392,154.01607123340364 163.9022871409543,158.4321977342188 165.9875153726898,167.36032961515593 170.66348171024583,167.1683285231993 170.97942538163625,155.55211983332993 168.45187600981444,153.92006803286495 165.60838296683505,154.49608694779454 164.15504207811318,157.56817617529305 166.05070410692133,167.07232794817537 169.9052168985363,167.26432907878188 171.1058028503321,165.8243187314365 171.54812399018556,157.3761711732368 169.02057461859658,154.01607123340364 165.4820054981392,154.59209003314027 164.34460828104056,156.1281367932097 164.59736321819946,164.96031045319978 167.2512900584843,167.64833110995824 170.1579718356952,167.1683285231993 171.16899158456363,165.8243187314365 171.48493525595404,156.89615833378048 169.58927322737873,154.49608694779454 167.06172385555692,153.92006803286495 164.6605519526638,156.80015570792602 164.72374068689533,165.9203195552982 168.19912107265554,167.4563301326707 171.35855778725818,164.76830840250477 170.97942538163625,156.1281367932097 166.74578018393368,154.20807757650618 164.6605519526638,157.3761711732368 165.54519423260354,166.49632409680635 168.07274360442534,167.55233063103515 171.2953690532595,165.72831788813346 171.23218031902798,156.5121477166831 170.03159436723217,154.59209003314027 167.37766752694733,154.01607123340364 165.10287309251726,155.4561169394292 164.15504207811318,158.04818834396428 163.9022871409543,166.30432265962008 163.77590967225842,153.05603836703813 172.1168225989677,152.76802813322865 172.685521207517,174.1763187260367 176.22409032774158,188.0" stroke="#4dd2ff" stroke-linecap="round" stroke-linejoin="round" stroke-width="0.5"><title>2021-12-06 4.4km</title></polyline><polyline fill="none" points="40.31639284291305,192.0 35.74611988442484,193.4158028368547 34.636830331524834,195.30353071846184 29.400983641389757,195.6406238725176 25.762513907509856,201.30373854676145 24.65322435449343,206.62967640036368 25.496284414664842,213.30383436131524 24.253880115458742,219.23630847854656 20.260437724529766,217.68578553051339 16.799454319290817,217.7531997198821 16.62196799076628,225.10126566857798 18.041858618613333,227.52811471148743 20.349180888850242,227.86517569894204 22.390273666474968,226.24727988996892 22.523388412664644,219.9104466700519 20.837268292205408,218.02285634237342 19.41737766447477,217.82061389577575 17.553771215258166,219.37113622453762 17.243170140427537,226.1798673964222 19.151148171629757,228.0 21.236612531356514,227.79776352838962 22.345902084256522,226.1798673964222 22.390273666474968,220.38234260337777 20.21606614254415,218.02285634237342 17.46502805093769,219.43855007729144 16.97694064769894,225.70797956449678 19.41737766447477,227.93258785636863 21.990929427323863,226.51692972960882 22.390273666474968,220.11268786521396 21.059126202831976,218.29251274943817 19.10677658941131,217.7531997198821 17.50939963327255,219.23630847854656 17.198798558441922,225.91021728742635 19.86109348561149,228.0 21.946557845221832,226.78657935431693 22.168415755731985,219.57337774254847 19.506120828562416,217.8880280580488 17.553771215258166,219.43855007729144 17.50939963327255,225.37091642350424 18.485574439750053,227.25846567907138 19.949836649699137,227.66293914677226 21.946557845221832,226.584342156013 22.390273666474968,219.43855007729144 20.52666721737478,217.7531997198821 18.973661843221635,218.49475491340854 17.686885961680673,219.97786041506333 17.331913304748014,222.53957275833818 17.065683812019415,219.16889458545484 23.898907458526082,216.94422856069286 26.294972892967053,201.97791253897594 29.267868895083666,199.1463727269147 35.21366089908406,197.12382975281798 40.582622335641645,198.74186510121217 38.14218531886581,195.84287960352958 41.15945290320087,193.0787074615364 43.37803200923372,193.01128834628616" stroke="#4dd2ff" stroke-linecap="round" stroke-linejoin="round" stroke-width="0.5"><title>2021-11-11 3.8km</title></polyline><polyline fill="none" points="94.66666666662786,198.02408186461253 92.11204481788445,198.12622821464902 91.47338935581502,198.84125152172055 90.59943977592047,198.48374011801207 87.80952380946837,194.60215557213814 85.55742296914104,195.93007270302041 82.2633053221507,199.8116370986245 79.5070028010523,200.67987370530318 72.88515406171791,199.70949142186146 70.76750700280536,201.54810736516083 67.40616246499121,200.42451030341908 61.01960784313269,199.76056426536525 60.01120448182337,200.2202193984558 58.66666666662786,203.48885430155497 59.91036414564587,200.47558300413948 61.32212885154877,199.9648555375752 70.63305322139058,201.2927448299015 76.11204481788445,201.0373820396926 77.55742296914104,201.75239720965328 78.80112044815905,203.6420705379569 81.08683473384008,204.66350976815738 79.87675070029218,216.97153181892645 79.17086834728252,217.63543318776647 77.35574229690246,217.12473998015048 74.59943977592047,217.83971018560987 74.43137254891917,223.35512746371387 75.23809523798991,225.29570896703808 77.85994397767354,225.39784442786186 78.96918767516036,223.86580823398253 79.17086834728252,220.75063967828464 78.53221288521308,219.47392029438925 75.27170868346002,218.86109272710746 74.63305322127417,221.6698736892431 74.56582633045036,218.24826369145012 75.13725490204524,217.58436391294526 78.43137254903559,217.5332946278795 80.11204481800087,216.00121133406356 81.05322128848638,208.39172834648343" stroke="#4dd2ff" stroke-linecap="round" stroke-linejoin="round" stroke-width="0.5"><title>2021-11-09 2.8km</title></polyline><polyline fill="none" points="135.88232491712552,193.6201853157254 136.92889699258376,192.39004620941705 136.17852456105174,192.0 134.4803132688976,192.060007174965 132.92032847716473,193.11012885962555 130.74819775455398,193.59018204265158 129.4054260351695,195.36036490194965 128.61556031781947,195.57038521335926 125.08091123291524,193.38015896374418 121.64499536261428,193.6201853157254 117.18225405976409,192.99011532419536 116.25416184193455,193.26014564406069 115.34581626707222,195.2103502140235 114.49671062099515,195.78040523128584 113.88456469005905,198.5706433299929 115.7012558398419,210.4210773458908 115.54328269639518,220.68069840855605 117.85363991954364,227.46006369918177 115.14834983774927,228.0 114.27949754870497,225.75025261676637 112.12711346900323,215.34098303303472 109.73776967416052,210.5410769617738 110.42890217679087,210.0010779355507 112.10736682609422,209.8510778616328 115.4445494817337,210.48107716582308 114.55595054978039,201.99086451975745" stroke="#4dd2ff" stroke-linecap="round" stroke-linejoin="round" stroke-width="0.5"><title>2021-11-07 3.5km</title></polyline><polyline fill="none" points="172.82665138470475,226.58721348310064 173.08700085431337,227.0958174415282 168.02878258691635,225.9655851816642 167.02457748982124,222.74439848020847 165.94598682993092,222.23578670235293 163.75161272857804,223.4790583234426 160.47864796745125,227.37837480123562 159.88356346543878,226.41767862725828 163.23091378936078,208.84201428260712 164.64423948165495,194.0346589777182 166.02037239260972,192.39562928020314 168.84702377731446,192.0 174.2399770769989,193.3564409437531 176.69470064796042,195.44760799524374 179.8560870649526,195.56064361176686 180.11643653456122,198.10393305122852 178.47995415399782,204.37728262064047 179.1122314373497,207.7682244927273 177.2897851499729,208.27686226945661 176.95505011756904,209.6332252053253 172.00841019430663,213.92833161949238 170.18596390692983,217.43218594574137 166.7270352388732,221.21856040516286 167.4336980850203,225.90907345025335 169.0701804655837,227.2653518913139 171.6364823805634,226.700236663979 172.38033800804988,228.0" stroke="#4dd2ff" stroke-linecap="round" stroke-linejoin="round" stroke-width="0.5"><title>2021-11-04 2.2km</title></polyline><polyline fill="none" points="42.569964069116395,232.21037559180695 41.66010042297421,232.0 40.13706779771019,232.72128651919775 39.622797041141894,232.4808580634417 35.05369916546624,235.09549689939013 29.495619065652136,233.3824627923459 27.14184137218399,233.56278309004847 22.691421363444533,232.7813935730519 21.54420198337175,233.2021422786638 21.148609093681443,234.73485976009397 20.35742331435904,235.00533769559115 19.645356112974696,238.73187310835056 21.247507316118572,250.51192668442673 21.109049804741517,260.87881327280775 22.94855674164137,265.35588559416647 23.324369986832608,267.429115593186 21.959574517561123,268.0 20.911253359925468,267.699534792584 20.278304736420978,264.33428350005124 18.69593317771796,260.81871743671945 18.537696021900047,255.1996507802396 17.68717130908044,253.03610395141004 17.430035930825397,250.69222646421986 17.845408464956563,249.6705248565704 19.269542867783457,249.82077552792907" stroke="#4dd2ff" stroke-linecap="round" stroke-linejoin="round" stroke-width="0.5"><title>2021-11-02 3.0km</title></polyline><polyline fill="none" points="90.12091628299095,232.0 89.20535738795297,232.06710861729516 86.3916885884828,235.3218450233253 84.40425586514175,234.65077040923643 81.43427213234827,239.11336724078865 81.56825636094436,240.32126820950361 78.1516585330246,242.53573121393856 73.52920264826389,246.69616010712343 68.28148703020997,253.60761717348942 67.14262108760886,256.5264498217002 63.68136185023468,261.4581575854827 63.346401278919075,262.76654603803763 63.726023259805515,264.4439525244379 65.22218047850765,266.490366213402 67.94652645889437,267.7316216316249 70.20192763936939,268.0 67.63389659230597,267.7987162631907 64.73090497381054,265.95360433030874 63.770684669259936,264.67878812286654 63.21241705032298,262.8671908900724 63.50271621218417,261.6259002528823 67.16495179245248,256.69419731447124 67.43292024947004,254.84896586717514 70.89417948684422,249.91706797228835 74.04280885763,246.15933624605532 81.4566028371919,239.98574101629492 84.22561022697482,234.51655517113977 84.80620855069719,234.34878597571515 86.36935788375558,235.45605963082926 89.42866443551611,232.10066291609837 89.94227064494044,232.06710861729516 89.5626486641122,232.40265131002525" stroke="#4dd2ff" stroke-linecap="round" stroke-linejoin="round" stroke-width="0.5"><title>2016-05-06 3.5km</title></polyline><polyline fill="none" points="113.94755608210107,268.0 111.14987247838872,266.03409144880425 109.9089644284104,263.0512910399266 110.29251782567007,261.7632477119332 114.06036590487929,256.9838453419652 114.15061376307858,255.1534009992174 120.33259204874048,246.9500609770039 128.00365999434143,240.27184853854124 131.34283074719133,234.23750620585633 133.17034987546504,235.1867425300734 136.53208259277744,232.0 136.75770223827567,232.5085266760143" stroke="#4dd2ff" stroke-linecap="round" stroke-linejoin="round" stroke-width="0.5"><title>2016-03-22 1.7km</title></polyline></svg>