<?xml version="1.0" encoding="utf-8" ?>
<svg baseProfile="full" height="300mm" version="1.1" viewBox="0,0,200,300" width="200mm" xmlns="http://www.w3.org/2000/svg" xmlns:ev="http://www.w3.org/2001/xml-events" xmlns:xlink="http://www.w3.org/1999/xlink"><defs /><rect fill="#222222" height="300" width="200" x="0" y="0" /><text fill="#FFFFFF" style="font-size:12px; font-family:Arial; font-weight:bold;" x="10" y="20">Over 3kms Workouts</text><text fill="#FFFFFF" style="font-size:4px; font-family:Arial" x="10" y="280">ATHLETE</text><text fill="#FFFFFF" style="font-size:9px; font-family:Arial" x="10" y="290">underwindfall</text><text fill="#FFFFFF" style="font-size:4px; font-family:Arial" x="120" y="280">STATISTICS</text><text fill="#FFFFFF" style="font-size:3px; font-family:Arial" x="120" y="285">Number: 23</text><text fill="#FFFFFF" style="font-size:3px; font-family:Arial" x="120" y="290">Weekly: 1.9</text><text fill="#FFFFFF" style="font-size:3px; font-family:Arial" x="141" y="285">Total: 89.5 km</text><text fill="#FFFFFF" style="font-size:3px; font-family:Arial" x="141" y="290">Avg: 3.9 km</text><text fill="#FFFFFF" style="font-size:3px; font-family:Arial" x="167" y="285">Min: 3.0 km</text><text fill="#FFFFFF" style="font-size:3px; font-family:Arial" x="167" y="290">Max: 5.3 km</text><polyline fill="none" points="24.75819499581121,32.583160722919274 24.732933285064064,33.319782886479516 24.80871841753833,33.41186050718534 24.98555039369967,33.289090338890674 25.036073815310374,33.012857243738836 24.88450355012901,32.0 24.98555039369967,33.012857243738836 24.98555039369967,33.2277052324207 24.909765261108987,33.44255304004764 25.036073815310374,33.841555630700896 24.98555039369967,34.24055759666953 25.036073815310374,34.57817415689351 24.98555039369967,34.94648262154078 25.16238236974459,37.21770639135502 25.212905791471712,38.81368936377112 25.541308032581583,41.79078473613481 25.541308032581583,43.11051692033652 25.64235487615224,45.10544794690213 25.71814000874292,45.84203391717165 25.793925141333602,46.333090048021404 25.844448562944308,47.652798711671494 25.920233695651405,48.174542112479685 25.996018828242086,49.00319120089989 26.04654224985279,50.9366952633718 26.14758909342345,52.19499955227366 26.22337422601413,53.51467786417925 26.425467912806198,55.540217329893494 26.475991334649734,57.044016521802405 26.652823310694657,58.425048780743964 26.829655286623165,59.345732796529774 26.930702130077407,60.358481372881215 26.955963840940967,61.64742828684393 26.930702130077407,62.9977466345299 26.72860844328534,64.37874663679395 26.425467912806198,65.57560725347139 26.273897647624835,66.95659328985494 26.24863593687769,67.41692030613194 26.172850804170594,67.66242770830286 26.172850804170594,67.81586971448269 26.24863593687769,67.93862325299415 26.374944491079077,68.0 28.143264251528308,67.72380452186917 29.40634979470633,67.47829717883724 29.91158401197754,67.47829717883724 31.37676324194763,67.2327895994531 31.604118639719673,67.2327895994531 33.473485243623145,66.86452778690727 34.96392618457321,66.68039668118581 35.140758160618134,66.61901961639524 35.267066714935936,66.43488833325682 35.09023473889101,66.74177373124985 33.2461298458511,67.07934724216466 31.75568890501745,67.2327895994531 31.098884422448464,67.3555434186419 28.850592155591585,67.66242770830286 28.32009622757323,67.81586971448269 27.259104371303692,67.96931162837427 26.400206201942638,68.0 26.172850804170594,67.84655810470576 26.14758909342345,67.66242770830286 26.324421069351956,66.43488833325682 26.400206201942638,65.60629591339966 26.678085021441802,64.62425696509308 26.779131864896044,63.949102993443375 26.955963840940967,61.86225213872967 26.955963840940967,61.0950232646137 26.880178708350286,60.082277614681516 26.80439357587602,59.621937352756504 26.72860844328534,58.88539120435598 26.52651475626044,57.8112575893756 26.299159358488396,55.20262853676104 26.22337422601413,53.51467786417925 25.996018828242086,50.660481295373756 25.996018828242086,50.07736193531309 25.86971027380787,48.84973786919727 25.844448562944308,47.59141706483206 25.743401719490066,47.131054242752725 25.692878297762945,46.42516296720714 25.4655228999909,42.71152884114417 25.490784610970877,41.60663551592734" stroke="#4dd2ff" stroke-linecap="round" stroke-linejoin="round" stroke-width="0.5"><title>2022-07-30 3.0km</title></polyline><polyline fill="none" points="64.74973888037493,67.9728652499034 64.67159509158228,68.0 64.99533364502713,67.87789357294969 65.69862774387002,67.70151738889399 66.13400028127944,67.53870835823909 66.53588262345875,67.3080618283202 66.65868000587216,67.2130895903756 66.8261309817317,67.02314487412514 66.96009176247753,66.80606480578717 67.33964730793377,66.00557843506249 67.74152965011308,65.23222178803553 68.77972570084967,63.37343056606187 68.88019628636539,63.10207161510334 69.14811784785707,62.55935175018385 69.27091523015406,62.2608547088239 69.7732681579655,61.21610882884852 70.24213089054683,60.198489880684065 70.44307206163649,59.8321448065617 70.83379100542516,58.990903455909574 71.11287596530747,58.62455445037631 71.80500666581793,57.756166858140205 72.26270599995041,57.11844045217731 73.60231380735058,55.62587516068015 75.03122880181763,53.9161851349927 75.54474512801971,53.183452885576116 76.99598691932624,50.9445192235944 77.24158168403665,50.53743558916176 77.30856207438046,50.279615192179335 77.33088887116173,49.95394647781359 77.30856207438046,49.51972005896096 77.30856207438046,47.416412123107875 77.3197254727711,47.253573739668354 77.37554246472428,47.05002542898728 77.4425228551263,46.84647674996813 77.5318300423096,46.710777426022105 77.65462742460659,46.60221784905298 77.85556859569624,46.50722813323955 78.08999996201601,46.49365816729551 78.26861433632439,46.534368060238194 78.4583921090234,46.724347365801805 79.30681038706098,47.86421646219969 79.55240515177138,48.12204239436687 79.71985612763092,48.24417026125593 79.84265350998612,48.2848795207974 79.96545089228312,48.29844927066006 80.15522866504034,48.257740016051685 80.44547702331329,48.06776329984859 81.34971229330404,47.36213268816209 82.62233971030219,46.39866835986322 83.9172939240234,45.57089664283558 84.60942462447565,45.06880263373023 85.17875794263091,44.715978475920565 85.46900630090386,44.512425573848304 87.04304547456559,43.25038936002966 87.16584285692079,43.14182644376706 87.41143762157299,42.843277883701376 88.3045094931731,42.083332519257965 88.6394114450668,41.716928455629386 88.66173824178986,41.64907572026277 88.6394114450668,41.51337012680597 88.32683628995437,40.94340484647546 88.07007812691154,40.31915384493186 87.3556206296198,38.75851118458377 86.71930692112073,37.61854981796205 86.36207817244576,36.89928253512335 85.92670563509455,35.922157348672044 85.62529387843097,35.36573504660919 85.52482329291524,35.026451804129465 84.87734618602553,33.764309157231764 84.55360763252247,32.922872857430775 84.34150306310039,32.44786571480654 84.19637888396392,32.14928876976046 84.12939849350369,32.0407151387044 84.08474489999935,32.0 84.0400913063786,32.0 83.60471876902739,32.25786229605001 83.4261043946608,32.40715072353487 83.3367972074775,32.3528640455479 83.22516322357114,32.32572069673188 83.06887564604403,32.40715072353487 82.78979068616172,32.502152346933144 82.53303252311889,32.502152346933144 82.22045736800646,32.678583720371535 82.17580377450213,32.63786881259148 82.16464037605328,32.556438952822646 82.18696717289276,32.58358224596304 82.18696717289276,32.62429717340274 82.00835279852618,32.76001349168655 81.89671881461982,32.895729646210384 81.91904561140109,33.41144953987532 81.78508483065525,33.737166149039695 81.74043123709271,33.954310031178466 81.74043123709271,34.00859593617497 81.77392143220641,34.03573887886159 81.93020900979172,34.03573887886159 82.01951619691681,34.0493103477711" stroke="#4dd2ff" stroke-linecap="round" stroke-linejoin="round" stroke-width="0.5"><title>2022-07-29 4.7km</title></polyline><polyline fill="none" points="129.13520968932426,32.6287997346808 129.19142942142207,32.51944350980921 129.28138099279022,32.45109581566794 129.65243122488027,32.32806986225478 129.77611463557696,32.32806986225478 130.20338459970662,32.10935672628693 130.36079984973185,32.04100878472673 130.51821509969886,32.0 130.64189851039555,32.027339191430656 130.82180165319005,32.1366958913859 131.0129487424274,32.3690785282306 131.10290031391196,32.505773974255135 131.30529134953395,32.91585932276212 131.38399897457566,33.038884637790034 131.54141422448447,33.325943186740915 131.72131736727897,33.831711241240555 131.86748867086135,34.077759748644894 131.9574402422295,34.31013840380183 132.00241602794267,34.54251658231806 132.20480706362287,34.92525607254356 132.37346626003273,35.157632989343256 132.60958913492505,35.78641519787925 132.77824833139312,36.03245945995877 132.93566358130192,36.33317949905177 133.11556672415463,36.879941161467286 133.55408063478535,37.97345657025289 133.63278825976886,38.287840296870854 133.76771561685018,38.65689834105433 135.0720134022995,41.527308759810694 135.13947708084015,41.81434580210043 135.2519165451522,42.11505049504922 135.26316049159504,42.238065821286 135.2519165451522,42.33374431600532 135.29689233086538,42.45675940475485 135.28564838442253,42.48409607301437 135.02703761664452,42.702789181617845 133.31795775983483,43.97393451834796 132.67705281352391,44.47965504181775 131.68758552800864,45.176725577119214 131.00170479604276,45.73711250591441 127.36991010035854,48.443332324728544 126.75149304693332,48.94903290164075 126.20053967199055,49.33172372997069 125.3684876364423,49.94675985368667 125.12112081510713,50.1654385599104 124.92997372586979,50.384116844164964 124.60389927949291,50.88980876022106 124.33404456527205,51.24515848640294 122.92855126201175,53.39090046189813 122.49003735138103,54.005914556008065 122.32137815497117,54.251919259142596 122.06276738719316,54.51159031087445 121.72544899443164,54.78492761732923 121.44435033376794,55.14026513014687 121.16325167310424,55.454601231991546 120.56732251250651,56.23360433549533 119.71278258407256,57.272266811058216 119.49914760200772,57.62759652537352 118.84699870931217,58.43391751406307 118.61087583430344,58.76191085121536 118.36350901296828,59.17190118787403 118.12738613795955,59.650221372816304 117.98121483449358,59.89621382478799 117.86877537018154,60.169538145266415 117.73384801310021,60.41552947013406 117.62140854884638,60.68885253826738 117.43026145960903,61.044171541463584 117.36279778101016,61.26282883599197 117.26160226314096,61.50881778805342 117.08169912040466,61.85046822478034 116.95801570964977,62.1237878326865 116.75562467402779,62.438104566979746 116.31711076339707,63.35371791229409 116.18218340625754,63.58603653990576 116.13720762054436,63.58603653990576 116.02476815634873,63.53137337627413 115.95730447774986,63.599702326719125 115.19271612080047,65.08926321045146 115.03530087077525,65.34890943446953 114.9453492994071,65.55389287543949 114.78793404938187,65.71787936133478 114.7429582637269,65.8545345849925 114.66425063868519,65.97752414546267 114.61927485303022,66.14151001851133 114.47310354944784,66.30549565429828 114.39439592446433,66.57880452011159 114.25946856738301,66.77012033409119 114.07956542458851,66.97510120506195 113.73100308532594,67.26207380169217 113.56234388897428,67.38506183499703 113.20253760332707,67.57637628822704 112.8764631569502,67.6993639805587 112.19058242498431,67.80868626170559 111.81953219289426,67.91800843739475 111.3697743358207,68.0" stroke="#4dd2ff" stroke-linecap="round" stroke-linejoin="round" stroke-width="0.5"><title>2022-07-29 4.0km</title></polyline><polyline fill="none" points="170.45648763212375,34.89042306976626 170.76081272028387,34.70543729909696 171.19828003447037,34.54357460323081 171.36946289648768,34.381711770707625 171.4455441685859,34.35858849778015 171.5406457586214,34.381711770707625 171.76888957468327,34.56669785389386 171.35044257855043,34.31234194349963 170.8368939923821,34.242972091189586 170.51354858616833,34.081109004764585 170.38040636014193,33.84987578695291 170.2092234980082,33.29491492586385 170.1711828620173,33.04055732743291 170.22824381606188,32.99431045509118 171.21730035240762,32.46247062085604 172.30145847878885,32.0 172.45362102298532,32.0 172.66284452099353,32.069370664306916 172.91010865499265,32.27748250646982 173.290515015251,32.99431045509118 173.57581978535745,33.479902058141306 173.78504328336567,33.711135722347535 173.93720582744572,34.173602213704726 174.18446996156126,34.682314065197716 174.24153091560584,34.89042306976626 174.58389663975686,35.49162559125398 174.92626236379147,36.43967188910756 175.2686280879425,36.971500685685896 175.5349125401117,37.48020511009963 175.706095402129,38.05827668054553 175.7441360381199,38.451364352426026 175.78217667422723,38.54385545218247 176.20062367036007,38.86757394981396 176.4478878043592,39.35315067091142 176.7141722565284,40.25493274607288 177.47498497681227,42.15097352556768 177.60812720295507,42.752153270630515 177.68420847482048,42.96025351231219 177.8934319729451,43.35333112995431 178.0265741989715,43.70016365253832 178.33089928713161,44.27821646202938 178.5591431031935,44.85626752812823 178.93954946345184,45.54992650602071 179.41505741351284,46.70601922365313 180.0997888618149,48.13956450877595 180.38509363192134,48.94881920909393 180.40411394985858,49.156912722595735 180.30901235993952,49.43437038922275 180.32803267787676,49.526856188778765 180.4421545859659,49.596220509251 180.4421545859659,49.64246337552322 179.4721183675574,50.497954390302766 177.13261925277766,52.20892496473971 176.1435627163155,52.9950414593186 174.9643029998988,53.82739658639184 169.82881713786628,57.75791363090684 163.34288869751617,62.543787335656816 162.92444170126691,62.983064442378236 162.33481184311677,63.90785506089742 161.9163648468675,64.41648799937684 161.7071413488593,64.80952161847381 161.53595848672558,65.01759791409131 160.8702473564772,66.0579760044784 159.80510954803322,67.60697292207624 159.67196732200682,67.93064233887708 159.61490636796225,68.0 159.5578454140341,68.0 159.595886050025,67.90752311296819 160.45180036034435,66.65908077206404 160.71808481239714,66.31228979007574 161.80224293889478,64.57832546952704 163.11464488133788,62.7518660906062 163.3238683794625,62.497547581690014 165.01667668204755,61.2259499757638 166.29103798861615,60.30114641872933 166.91870848287363,59.88498336248449 171.29338162438944,56.55564638519718 171.94007243670058,56.116354548954405 172.6818648390472,55.538337441161275 173.11933215311728,55.122164044267265 173.70896201138385,54.75223137735156 174.77409981982782,53.919880266315886 175.0403842718806,53.75803379721765 176.12454239826184,52.87943629459187 177.20870052464306,52.116440459300065 178.14069610706065,51.42280524605303 178.59718373930082,51.00662291322078 179.71938250167295,50.1511341688456 179.98566695384216,49.919920339263626 180.1758701337967,49.688706230706885 180.34705299593043,49.596220509251 180.2709717238322,49.36500601017906 180.30901235993952,49.24939865610213 180.30901235993952,49.156912722595735 180.11880917986855,48.74072546962998 180.15684981585946,48.41702364811499 180.11880917986855,48.25517253232829 179.51015900366474,47.16845435813593 179.11073232546914,46.22046113164106 178.92052914539818,45.87363316988922" stroke="#4dd2ff" stroke-linecap="round" stroke-linejoin="round" stroke-width="0.5"><title>2022-07-08 4.2km</title></polyline><polyline fill="none" points="45.37160972005222,104.52479818364372 45.58735161088407,104.13137630923302 45.61431934731081,103.73795386520214 45.50644840183668,103.37731612450443 45.42554519267287,103.21338972038939 45.29070651100483,103.14781913108891 45.07496462028939,103.14781913108891 43.996255166246556,103.63959816523129 42.02761041256599,104.3608724718215 41.029804167570546,104.81986421547481 36.822837296756916,106.81974776365678 35.609289161046036,107.54101362838992 34.71935386140831,108.0 34.47664423414972,107.96721528485068 34.28787007974461,107.8032916499651 33.991224979865365,107.3443049461057 33.69457988010254,106.81974776365678 32.40012853522785,103.70516863584635 31.83380607177969,102.52489774339483 30.728128881310113,99.77091238874709 30.134838681668043,98.42669511368149 30.05393547262065,98.13162213863689 30.080903209047392,97.93490664393175 30.59329019964207,97.50868925021496 30.134838681668043,97.60704716961482 29.865161318331957,97.57426120049786 29.622451691073366,97.4103312951047 29.43367753655184,97.11525721641374 28.67858091869857,95.54152338366839 27.6538069373928,93.67270261753583 27.114452210371383,92.42681496497244 26.440258801565506,90.65633320933557 25.900904074544087,89.6071533910872 25.41548482037615,88.26288582745474 24.79522688430734,86.88582435328863 24.14800121181179,85.67269298547762 23.36593685753178,83.8365919625794 22.314195139915682,81.70538771344582 22.125420985510573,81.47587241246947 22.071485512773506,81.27914485728252 22.098453249200247,81.0824171595741 22.23329193086829,80.95126528205583 23.554711012053303,80.22992882347899 24.55251725704875,79.47580229624873 26.68296842870768,78.39379101336817 27.815613355604,77.93475462158676 29.325806591194123,77.08225640759338 30.59329019964207,76.0330241639167 31.15961266309023,75.50840652224724 31.294451344758272,75.2788859854627 31.348386817378923,75.04936525473022 31.321419081185013,74.81984433010803 31.24051587213762,74.49195695848903 30.161806418094784,72.4262574161985 29.97303226357326,72.163945239241 29.730322636431083,72.0 29.487613009288907,72.0 28.54374223703053,72.32789037952898 28.00438751000911,72.59020239827805 27.3841295739403,73.01645888833445 26.305420119897462,74.09849159006262 25.4694202929968,74.55753446443123 24.66038820252288,75.08215394246508 24.55251725704875,75.31167464546161 24.525549520622008,75.83629266699427 24.41767857526429,76.00023559096735 24.201936684548855,76.00023559096735 23.47380780300591,75.54119515456841 23.231098175863735,75.57398378293146 22.5838725034846,76.42648673019721 21.936646830989048,76.95110259877401 20.534324540756643,77.83638957960648 20.102840759092942,77.96754296106519 19.725292450282723,78.03311962791486 18.943228096119128,78.00033129646908 17.918454114696942,77.70523613484693 17.729679960175417,77.80360122429556 17.379099387675524,77.86917793093016 17.27122844220139,77.83638957960648 17.109422024106607,77.7380245020322 16.97458334232215,77.54129423986888 16.78580918791704,77.1806217226549 16.489164088037796,76.0330241639167 16.435228615417145,75.31167464546161 16.516131824348122,74.0001251589274 16.40826087910682,73.2459813367168 16.300389933632687,72.91809206540347 16.16555125184823,72.75414728128817 15.734067470184527,72.557413409726 15.005938588758,72.72135831264313 14.628390279831365,72.91809206540347 14.46658386173658,73.14761459696456 14.41264838911593,73.34434804102057 14.385680652689189,73.67223679783638 14.439616125426255,74.16406919102883 14.682325752452016,74.88542175691691 15.194712743163109,75.83629266699427 16.084648042800836,76.81994872659561 16.677938242442906,77.1806217226549 17.217292969464324,77.86917793093016 17.486970333149657,78.16427291446598 17.81058316922281,78.36100272531621 18.78142167790793,78.82003839683603 19.239873195881955,79.21349692638614 19.40167961397674,79.41022597753908 19.698324713855982,80.22992882347899 19.994969813735224,80.7873253459693 20.534324540756643,81.37750865262933 20.750066431588493,81.50866032447084 20.96580832230393,81.57423613657011 21.316388894920237,81.50866032447084 22.01755004003644,81.04962919614627 23.58167874836363,80.26271688585985 24.471614048001356,79.57416674451088 25.41548482037615,78.95119130329113 27.6538069373928,78.00033129646908 28.62464544607792,77.3773522459378 29.43367753655184,76.98389105690876 30.862967563210987,75.73792686517118 30.889935299521312,75.67234964415547 30.80903209047392,75.41004060170962 30.512386990594678,75.04936525473022 30.215741890715435,74.95099916795152 29.21793564571999,75.2788859854627 28.489806764293462,75.60677240727819 27.411097310250625,75.54119515456841 26.76387163787149,75.77071546972729 26.656000692397356,75.93465843325248 26.57509748346638,76.19696696911706 26.76387163787149,76.81994872659561 26.76387163787149,77.31177542070509 26.656000692397356,77.60687100965879 26.332387856324203,78.13148459873628 26.27845238347072,78.39379101336817 26.116645965375938,78.62330891832244 25.766065392876044,78.91840308255632 24.714323675259948,79.50859044960816 23.770452902885154,80.22992882347899 22.77264665788971,80.72174934385112 22.098453249200247,81.11520511904382 21.909679094562307,81.3119327929744 21.88271135825198,81.57423613657011 21.963614567299373,81.80375135445502 22.20632419444155,82.1316299008322 22.556904767174274,83.1152631654113 23.689549693837762,85.70548039098503 24.930065565975383,88.19731162989046 25.226710665854625,89.04977496468928 25.846968601923436,90.29567810389563 26.116645965375938,91.18092159909429 26.54812974703964,92.16452209962881 26.925678055966273,93.21369204187067 27.518968255608343,94.3612170269189 28.112258455366828,95.24644727521809 28.570709973340854,96.09888849192066 29.02916149131488,97.57426120049786 29.595483954646625,99.0496258972853 30.377548308926634,100.62333941008546 30.835999826784246,101.9019749275758 31.429290026659146,103.08224852589774 32.26528985344339,105.2132850929047 32.58890268963296,105.93455522204749 32.85858005320188,106.2624046478013 33.370967043796554,106.32797448543715 33.53277346200775,106.45911411341513 34.07212818902917,107.54101362838992 34.233934607123956,107.77050691115437 34.44967649783939,107.90164584276499 34.69238612509798,107.93443056574324 35.042966697597876,107.8032916499651 35.582321424619295,107.54101362838992 36.202579360688105,107.14759612135822" stroke="#4dd2ff" stroke-linecap="round" stroke-linejoin="round" stroke-width="0.5"><title>2022-07-05 5.3km</title></polyline><polyline fill="none" points="78.17508439312223,74.0891589604289 78.27055386954453,74.1820099431934 78.44239892694168,74.43734991474776 78.32783555530477,74.43734991474776 78.19417828845326,74.27486088116711 78.06052102160174,74.20522268190689 77.69773701136,74.1820099431934 77.48770416341722,74.11237171028915 77.20129573426675,73.9034568604693 77.06763846741524,73.717754581201 76.89579341001809,73.41598799508938 76.80032393359579,73.16064666793682 76.78123003838118,72.97494367159379 76.89579341001809,72.8356663067243 77.43042247754056,72.580324209237 77.94595764996484,72.41783360711997 78.57605619390961,72.09285199112492 78.95793409936596,72.0 79.28253031894565,72.04642600116495 79.49256316688843,72.13927796983626 79.58803264331073,72.23212989378953 80.04628612974193,73.02136943749792 80.81004194065463,74.06594620774558 81.02007478859741,74.78554023880861 81.24920153187122,75.15694255662675 81.42104658926837,75.62119444552809 81.5547038562363,76.2479327184119 81.63107943732757,76.36399513746437 81.89839397114702,76.92109377430461 82.07023902854417,77.17643011036853 83.17768495436758,79.47444188507507 83.38771780231036,80.28686372275115 84.03691024158616,81.79563803388737 84.17056750843767,82.21345036657294 84.26603698485997,82.74732036003843 84.38060035638046,83.02586063818308 84.6479148901999,83.53651676731533 85.69807913014665,85.83445257603307 86.00358145451173,86.60042507997423 86.61458610312548,87.80740586755564 86.82461895106826,88.36447136961215 86.84371284639928,88.52694850388798 86.82461895106826,88.64300351581187 86.95827621803619,88.87511332969007 87.05374569445848,89.17685566902219 87.05374569445848,89.29291028899024 87.01555790391285,89.52501931878214 87.05374569445848,89.73391720623476 86.97737011336721,89.87318233850237 86.30908377887681,90.43024185969261 85.58351575862616,90.91766761781764 82.64305588672869,93.19230482931016 81.17282595077995,94.19035144463123 79.1297791567631,95.76864715392003 76.74304224783555,97.53260939171014 75.94109864637721,98.15927629399812 71.26309430482797,101.61751249275403 70.06017890269868,102.56909678499505 69.56373762572184,103.12611955308239 68.43719780468382,104.7043419736292 67.48250304115936,106.12008930837328 66.27958763903007,108.0 66.35596322000492,107.95358267321717 66.71874723024666,107.35015640566417 67.29156408831477,106.58426649516332 67.9789443181362,105.4702393658954 68.3035405378323,105.05247752978175 69.02910855808295,103.93844153310056 69.31551698711701,103.42783954595507 69.8501460547559,102.7547712201631 70.65208965621423,102.10490991320694 73.51617394690402,99.99284550880839 74.03170911921188,99.59828145687061 74.50905650109053,99.15729714732151 76.49482160923071,97.7879183760815 77.31585910590366,97.11483032308752 79.51165706221946,95.49012532240886 79.93172275810502,95.11876225321612 80.6763846736867,94.65455740886682 81.38285879883915,94.14393078655121 82.01295734278392,93.54046121325518 83.19677884958219,92.72809533735563 84.36150646116585,91.82288360685925" stroke="#4dd2ff" stroke-linecap="round" stroke-linejoin="round" stroke-width="0.5"><title>2022-07-01 3.7km</title></polyline><polyline fill="none" points="126.67149617645191,72.90814154047985 127.24730981368339,72.64326746785082 127.38737259036861,72.66218705927895 127.58968548988923,72.7757045601029 127.63637308205944,72.75678498230991 128.0098738198285,72.56758907918993 128.49231227266137,72.17027693954878 128.7413127644686,72.05675900042115 129.02143831772264,72.0 129.09925097139785,72.05675900042115 129.22375121735968,72.22703587825526 129.4571891783271,72.70002623535402 129.62837701645913,72.9459806571831 129.75287726230454,73.19193469319725 130.1575030615204,74.28926338421297 130.68662910652347,75.21631094925397 130.8889420061605,75.70821151317796 130.9511921290541,76.01091878545412 131.01344225200592,76.20011053395865 131.10681743646273,76.35146376832563 131.30913033604156,76.61633157700999 131.48031817411538,76.9568752451305 131.604818420019,77.46768936049193 131.83825638104463,78.0730965276307 132.1961945880903,78.86768988741096 132.3518198953825,79.51092918201175 132.49188267206773,79.87038528567064 132.55413279496133,80.09740976872854 132.72532063309336,80.47578317672014 132.86538340972038,80.91091146721737 134.343823829724,84.03244858703692 134.4060739526758,84.20271246107586 134.3905114218942,84.37297615029092 134.59282432153122,84.77025737284566 134.59282432153122,84.86484799181926 134.54613672930282,84.99727476249973 134.63951191370143,85.12970142131962 134.62394938303623,85.18645566943451 134.07926080719335,85.64048891505809 133.27000920887804,86.2458645311126 132.55413279496133,86.83231993064692 131.5892558892374,87.53227995613997 130.56212886061985,88.32682538838708 129.92406510049477,88.76193189551122 128.7101877029636,89.70781144211651 126.6092460535001,91.2968762380915 125.64436914777616,91.95898181793746 124.83511754951905,92.64000178403512 124.19705378927756,93.09401345184597 123.60567762126448,93.6047750072612 122.98317639174638,94.0020328448445 122.82755108445417,94.13445190041966 122.60967565415194,94.2290368717222 122.03386201692047,94.7019608723931 121.05342258047312,95.42080262248055 120.72660943493247,95.6288877773768 120.53985906607704,95.79913906237925 120.32198363577481,96.08289079337555 120.04185808252078,96.5368924952927 119.54385709896451,97.19897595494695 119.17035636125365,97.80430695807445 118.8124181542662,98.25830367728486 117.03828965028515,100.98225639786688 116.41578842082527,101.75781761812686 115.76216212986037,102.36313102803251 115.38866139220772,102.7603666838695 112.3850929599721,106.60025949521514 112.26059271406848,106.90290714910952 112.19834259111667,107.18663879441738 112.10496740671806,107.37579293946328 112.02715475298464,107.71626982589078 112.24503018340329,107.77301590169373 112.3695304293069,107.64060835943383 112.3850929599721,107.54603147506714 112.4006554907537,107.58386223566777 112.47846814442892,107.62169298710069 112.66521851328434,107.41362374114397 112.68078104400774,107.41362374114397 112.68078104400774,107.45145453364239 112.74303116690135,107.45145453364239 112.75859369768295,107.47036992650828 112.74303116690135,107.5271160913253 112.3539678985253,108.0 112.4006554907537,107.98108467103157 112.3695304293069,107.98108467103157 112.3850929599721,107.94325400624075 112.71190610551275,107.54603147506714 112.83640635135816,107.31904671990196 112.94534406653838,107.20555421919562 113.42778251931304,106.63809048384428 113.7857207263005,106.12737136695068 114.71947257051943,104.93568696109287 114.93734800087987,104.61411977671378 115.2330360848573,104.3114677069243 115.48203657666454,103.93315179846832 115.948912498774,103.40350799377484 116.54028866672888,102.59012295454158 117.97204149450408,100.79309454295435 118.01872908673249,100.69851352996193 118.00316655600909,100.603932459926 117.84754124860046,100.45260262925876 117.69191594125004,100.22560760944907 117.70747847197345,100.11210997636954 117.86310377938207,99.77161658437399 118.45447994739516,98.92037987068761 118.7190429699258,98.48530154414766 119.07698117679683,98.01238895085407 119.40379432233749,97.46380855626194 119.87067024444696,96.82064289164555" stroke="#4dd2ff" stroke-linecap="round" stroke-linejoin="round" stroke-width="0.5"><title>2022-06-30 3.9km</title></polyline><polyline fill="none" points="160.564186556614,79.22109217275283 161.38839917664882,81.29409934897558 162.04208504769485,82.60699613267207 163.43472016439773,85.612816105393 163.8326159119606,86.33835413097404 163.94630041136406,86.4420022702543 164.03156378585845,86.4765516417392 164.0599849105347,86.26925535063492 163.917879286455,85.7855634210573 163.12208779132925,83.98898624494905 163.06524554174393,83.71258875599597 163.09366666642018,83.4707407343376 163.32103566511068,83.19434274517698 163.8326159119606,82.88339468868799 165.02630315476563,82.29604743834352 166.75999176944606,81.53594920874457 167.24315089161973,81.25954935228219 167.29999314132147,81.01769925910048 167.2715720165288,80.77584896158078 166.81683401903138,79.73934537352761 166.67472839495167,79.35929311791551 166.70314951986074,79.1174414199777 166.81683401903138,78.91013980199932 167.01578189304564,78.73738833909738 167.55578326468822,78.42643544319435 170.25579012359958,77.07896899283514 171.47789849131368,76.38795809738804 172.95579698239453,75.21323574837879 176.42317421163898,72.20730662022834 176.79264883429278,72.03455111387302 177.04843895789236,72.0 177.21896570688114,72.13820443014265 177.41791358066257,72.51826626909315 177.87265157792717,73.86575417895801 178.8389698221581,76.04245202435413 179.23686556972098,77.32082241235184 179.46423456829507,77.90817986641196 182.7895061734598,85.40551918902202 183.30108642042615,86.9947917132231 183.38634979492053,87.72032623778796 183.30108642042615,87.89307228231337 182.98845404735766,88.2040148997039 181.85160905413795,89.03319356261636 179.23686556972098,91.0715809041576 175.1726447190158,94.008215128124 173.2968504803721,95.45924680659664 171.59158299060073,96.87572302110493 169.45999862835743,98.46493189866305 169.20420850487426,98.81041092259693 169.1757873799652,99.39772430705489 168.8631550068967,100.12322741327807 168.66420713311527,100.88327631555148 168.35157475981396,101.19420483062277 165.53788340173196,103.26705297225271 165.0547242796747,103.64707350439858 165.02630315476563,103.68162080046022 165.08314540458377,103.64707350439858 165.02630315476563,103.68162080046022 165.02630315476563,103.64707350439858 165.08314540458377,103.64707350439858 165.02630315476563,103.71616809244733 164.71367078169715,103.85435721845715 163.49156241398305,104.82167923427187 163.12208779132925,104.99441496471991 162.92313991754781,105.02896209823666 162.6957709188573,104.95986782692489 162.15576954709832,104.64894339963212 161.89997942361515,104.57984903658507 161.47366255125962,104.54530184876057 161.1610301779583,104.61439622013131 158.09154869639315,106.82540730352048 157.6652318239212,107.20542311479221 157.0683882025769,107.89635966173955 156.8410192038864,108.0 156.6704924548976,107.89635966173955 156.61365020519588,107.6545320598816 156.64207133010495,106.68721961087431 156.69891357969027,106.307203112141 156.81259807909373,106.06537416868377 157.09680932736956,105.89263908396242 157.83575857290998,105.75445094131283 158.11996982130222,105.65080979047343 158.290496570291,105.51262153114658 158.63155006826855,105.02896209823666 159.2852359393146,104.47620746071334 159.54102606268134,104.16528250832926 159.62628943717573,103.88890448960592 159.62628943717573,103.3016003142402 159.82523731095716,102.81793714789092 159.82523731095716,102.23063077652478 159.9673429352697,101.40149031981127 159.93892181036063,101.15965723447152 159.7968161861645,100.71053810577723 159.82523731095716,100.2268705641327 159.76839506137185,100.12322741327807 159.62628943717573,100.01958422493772 159.08628806553315,99.88139324873919 158.83049794205,99.88139324873919 157.69365294883028,100.64144279275206 157.26733607635833,100.36506137368269 157.12523045227863,100.330513677618 156.9831248280825,100.36506137368269 156.86944032867905,100.57234746296308 156.81259807909373,100.9178239449684 156.8410192038864,102.9906740867591 157.01154595275875,103.57797889970243 157.35259945085272,104.0616407825728 157.7504951984156,104.30347141774837 158.11996982130222,104.37256584747229 158.7452345675556,104.16528250832926 158.9726035661297,103.71616809244733 159.25681481452193,103.50888427832979 159.48418381309602,103.50888427832979 159.8820795606589,103.7852626638487 160.50734430691227,103.61252620408777 160.73471330560278,103.71616809244733 160.93366117938422,103.99254627796472 160.99050342908595,104.19982974199229 161.0189245538786,104.54530184876057 161.18945130286738,104.54530184876057 161.67261042504106,104.30347141774837 163.06524554174393,103.1979582758795 164.57156515761744,102.16153583023697 166.39051714679226,100.67599045130191 167.75473113858607,99.74320220580557 172.72842798382044,96.01201884570764" stroke="#4dd2ff" stroke-linecap="round" stroke-linejoin="round" stroke-width="0.5"><title>2022-06-19 4.7km</title></polyline><polyline fill="none" points="12.0,123.29721013089875 12.897595725720748,124.7391398914333 14.179875333909877,127.31121483366587 14.660730187082663,128.51930357076344 14.981300088926218,129.76635817292845 15.269813000923023,130.42885397205828 15.494211932411417,131.36413984600222 16.00712377554737,132.49427333052154 16.199465716839768,133.15676353493473 16.680320570012555,134.2089510668011 17.06500445236452,135.18319572575274 18.764024933218025,138.76839076838223 18.79608192341402,138.96323718497297 18.764024933218025,139.31396043873974 19.052537845098414,140.0543749462813 18.98842386470642,140.5999424448528 19.116651825490408,140.79478775666212 19.24487978639081,140.79478775666212 19.982190561131574,140.40509701531846 21.040071237715892,139.62571412249235 21.264470169320703,139.35292966573616 21.52092609088868,138.92426791097387 21.74532502226066,138.72942147095455 22.8673196794698,138.02797331335023 23.829029385582544,137.24858468509046 25.560106856632046,136.11846783399233 26.07301870000083,135.7287714512786 26.906500445329584,135.22216545094852 28.028495102538727,134.32586058106972 29.951914514764212,132.92294361794484 30.46482635801658,132.45530327621964 32.0356188780861,131.2082590550708 32.77292965282686,130.7406162309926 33.221727515687235,130.50679456509533 35.016918967012316,129.10386101494078 36.87622439907864,127.77886262268294 40.08192341949325,125.28473325728555 41.20391807658598,124.46634286278277 41.81300089054275,124.11560348753119 44.6340160286054,121.93321659509093 45.211041852249764,121.58247446920723 46.461264470242895,120.49127430847147 47.390917186276056,119.8677297042741 47.90382902941201,119.40007046121173 48.0,119.24418389622588 47.80765805882402,119.20521224333788 47.839715049020015,119.32212718809023 47.77560106862802,119.40007046121173 46.20480854867492,120.6861317504663 45.531611754209734,121.19276054928196 44.826357969781384,121.62144583536428 39.82546749780886,125.51855870336294 37.64559216389898,127.03841997738346 36.074799643829465,128.2465097346576 34.824577025836334,129.29871326123248 33.510240427567624,130.1560617487412 32.26001780945808,131.2082590550708 30.46482635801658,132.4163332171447 29.983971504843794,132.84500360806123 29.24666073010303,133.31264338560868 28.765805877163075,133.74131258684793 26.07301870000083,135.7287714512786 25.17542297428008,136.4302246015577" stroke="#4dd2ff" stroke-linecap="round" stroke-linejoin="round" stroke-width="0.5"><title>2022-06-17 3.0km</title></polyline><polyline fill="none" points="79.15980836062226,112.0 78.91804916603724,112.11021707097825 78.82738946814789,112.11021707097825 78.44964072661242,112.25717304143473 78.3287611292908,112.27554252780101 77.98123228707118,112.51434564848023 77.83013279055012,112.56945400773839 77.66392334428383,112.51434564848023 77.33150445175124,112.69804010180815 77.27106465311954,112.77151782103465 76.93864576052874,112.88173433343763 76.8479860626394,112.95521196401387 76.59111691842554,113.01032016371028 76.2889179251506,113.13890588536742 76.19825822720304,113.13890588536742 76.0018288816209,113.3225995850371 75.74495973740704,113.39607700290799 75.6089701904566,113.5062930631102 75.32188114686869,113.65324768598657 75.11034185165772,113.83694076504617 74.9290224557044,113.96552578851697 74.56638366391417,114.07574143649254 74.00731552642537,114.42475712861051 73.64467673457693,114.59008007193916 73.5691269863164,114.59008007193916 73.41802748962073,114.66355687801843 73.29714789235732,114.75540283576993 73.22159814409679,114.86561791191343 73.22159814409679,114.99420206654759 73.31225784210255,115.17789352760883 73.41802748962073,115.54527578488342 73.49357723793946,115.63712121066055 73.67489663383458,116.05960945562401 73.76555633184034,116.2065616138425 73.84110608015908,116.50046550469415 73.88643592916196,116.5372034512111 73.91665582847781,116.70252410060493 74.11308517400175,116.97805811729631 74.17352497274987,117.21685386179888 74.32462446927093,117.47401809078292 74.32462446927093,117.51075580234465 74.41528416721849,117.65770655989763 74.46061401622137,117.84139480729937 74.5361637644819,117.9883452457143 74.58149361348478,118.19040186690108 74.6419334121747,118.24550817157433 74.82325280812802,118.57614558086789 74.61171351285884,118.66798917822598 74.46061401622137,118.68635789108521 74.14330507337581,118.77820142194105 73.81088618084323,118.98025699486607 73.16115834540688,119.23741824532044 72.37544096307829,119.65989649949188 72.17901161749614,119.71500227235083 71.83148277527653,119.89868803766149 71.25730468815891,120.08237358141923 71.04576539300615,120.22932185686659 70.97021564468741,120.39463849713502 70.86444599705283,120.44974400404317 70.86444599705283,120.59669192490401 70.89466589636868,120.70690277243557 70.95510569500038,120.72527123929467 71.04576539300615,120.81711354023719 71.09109524189262,121.05590326339006 71.15153504058253,121.14774536489858 71.30263453722,121.55184995335003 71.43862408411223,121.77227018593112 71.48395393311512,121.97432178539748 71.61994348006556,122.26821454244782 71.61994348006556,122.34168764301285 71.71060317807132,122.47026548376016 71.63505342975259,122.59884321593563 71.55950368143385,122.59884321593563 71.15153504058253,122.74578906268289 71.04576539300615,122.83763014477154 70.97021564468741,122.85599835458561 70.89466589636868,122.98457576101646 70.90977584605571,123.11315305887547 70.97021564468741,123.18662575175404 70.97021564468741,123.37030732886342 71.12131514126668,123.64582927901938 71.12131514126668,123.6825655013381 71.0759852922638,123.75603791947651 70.68312660115771,123.92135073059762 70.3960375575698,123.99482303348486 70.04850871540839,124.23360777302878 69.79163957113633,124.32544795768626 69.7160898228176,124.38055204198463 69.58010027586715,124.58260018024885 69.64054007455707,124.74791209395335 69.70097987318877,124.82138399795804 69.7765296215075,125.13363919460971 69.95784901746083,125.51936531810497 70.01828881603433,125.68467621481977 70.32048780925106,126.25407904067833 70.38092760794098,126.36428579322819 70.41114750719862,126.36428579322819 70.48669725551736,126.47449246609176 70.57735695346491,126.67653782579873 70.72845645016059,126.78674427264195 70.80400619842112,126.93368607771117 70.849336047424,126.97042150677589 70.93999574537156,127.0071569270076 71.03065544337733,127.08062774092832 71.09109524189262,127.09899543883512 71.3630743358517,127.33777531035594 71.529283782118,127.39287830443936 71.78615292633185,127.66839297581464 72.0430220705457,127.83370153930446 72.19412156718317,127.99900992341281 72.33011111419182,128.05411267826275 72.42077081208117,128.1459505586099 72.43588076171,128.23778838358703 72.67763995629502,128.38472878829634 72.9496190501959,128.66024166504212 73.3424777413602,128.82554915179207 73.58423693594523,128.9724889893696 73.50868718762649,129.303103105427 73.55401703657117,129.39494023250882 73.97709562705131,129.6888186669239 74.05264537542826,129.76228818691743 74.05264537542826,129.87249240046367 74.0224254760542,129.8541250370472 74.33973441895796,130.33167576490087 74.43039411696373,130.42351227163454 74.55127371422714,130.42351227163454 74.61171351285884,130.4786141490622 74.62682346248766,130.55208328799927 74.89880255638855,130.9377956857934 75.12545180128654,131.19493674152181 75.36721099587157,131.5622803535516 75.6089701904566,131.91125596426718 75.69962988834595,131.98472441197373 76.13781842851313,132.5908377530577 76.47023732104572,132.97654498678457 76.5155671700486,133.08674687409075 76.56089701899327,133.12348081881646 76.75732636463363,133.10511384758865 76.89331591158407,133.32551735636662 76.7422164149466,133.41735205761506 76.48534727073275,133.69285582886369 75.1556717006024,134.62956492291414 75.08012195234187,134.70303205918754 73.97709562705131,135.56626825522108 73.7957762311562,135.78666820192302 73.46335733862361,136.31930008959898 72.99494889914058,136.88866315080668 72.93450910050888,136.9988622071396 72.75318970461376,137.1825271237758 72.6625300066662,137.38455827622965 72.67763995629502,137.36619181888818 71.63505342975259,138.90896651300136 71.42351413454162,139.31302396925457 71.09109524189262,139.7538126988802 70.87955594668165,140.08440340882225 70.77378629910527,140.19460015269578 70.6226868024678,140.48845774646907 70.30537785962224,140.87414497783175 70.19960821198765,141.05780522091663 70.06361866503721,141.1496352593822 69.86718931951327,141.4251250426023 69.58010027586715,141.60878462118853 69.21746148407692,142.03120081151428 68.90015254117316,142.38015243284462 68.85482269217027,142.49034751558793 68.50729385000886,142.85766388221236 68.44685405143537,142.9494928354252 68.43174410169013,143.00459018080437 68.05399536021287,143.40863677105517 67.1625083302497,144.58403893889044 66.87541928666178,144.91461916417757 66.63366009213496,145.2451986719243 66.60344019281911,145.33702618563257 66.11992180370726,145.92472096229903 66.07459195470437,146.034913480471 66.05948200501734,146.09000970968918 65.93860240775393,146.25529827762512 65.90838250843808,146.3654905565636 65.98393225675682,146.4940481146914 66.01415215601446,146.6409709053696 65.83283276011935,146.84298951101664 65.78750291111646,146.93481606144633 65.66662331385305,147.08173842687393 65.78750291111646,147.21029538036964 65.8630526594934,147.19193010796153 65.89327255875105,147.22866065055132 65.92349245812511,147.32048696845595 66.01415215601446,147.4490437204513 65.89327255875105,147.52250467288832 65.71195316279773,147.7796177273558 65.80261286080349,147.7428873175959 65.90838250843808,147.8347133253701 66.19547155196778,148.0 66.34657104860526,147.76125252355996 66.75453968939837,147.32048696845595 66.90563918603584,147.19193010796153 66.99629888392519,147.02664255643322 67.10206853161799,146.73279757748242 67.23805807856843,146.45731739488838 67.5100371724111,146.14510591892758 67.7366864173091,145.94308638756047 67.9028958635754,145.7227011386276 68.09932520921575,145.4104881567473 68.11443515884457,145.30029518676747 68.17487495747628,145.17173662109417 68.71883314527804,144.45547976861417 68.94548239017604,144.10653290223854 69.06636198749766,144.03307030219003 69.8822992691421,142.9311270492035 70.71334650041535,141.9026394863322 70.90977584605571,141.60878462118853 71.00043554394506,141.44349101044645 71.15153504058253,141.29656320578943 71.86170267465059,140.39662730932469 71.95236237259815,140.24969849469198 71.92214247328229,140.17623403426842 71.86170267465059,140.10276953836728 71.60483353037853,139.88237583804585 71.49906388280215,139.73544652730925 71.43862408411223,139.73544652730925 71.22708478890127,139.90074199189257 71.19686488958541,139.8456435236294 71.42351413454162,139.60688326408854 71.55950368143385,139.36812263025786 71.80126287601888,139.05589662111015 71.87681262427941,138.8906002395379 71.96747232228518,138.798768838853 72.07324196986156,138.5967395625339 72.28478126513073,138.32124466287496 72.31500116444658,138.19268020581512 72.34522106376244,138.19268020581512 72.37544096307829,138.1008483843325 72.37544096307829,138.1559474839014 72.39055091276532,138.0273828873178 72.51143050997052,137.91718457525712 72.91939915088005,137.32945889758412 72.90428920119302,137.2927259674616 72.96472899988294,137.1090611837135 73.1762682950939,136.76009748435172 73.29714789235732,136.66826479905285 73.8562160297879,135.80503484976362 73.90154587879078,135.7132015884563 74.00731552642537,135.5846349295898 74.2490747210104,135.38260138925398 75.26144134823699,134.70303205918754 75.8960592339863,134.18876136108884 76.13781842851313,134.07856027130038 76.47023732104572,133.7663234170759 76.7422164149466,133.58265438012313 76.81776616320712,133.50918670340616 77.31639450206421,133.1785817193013 77.89057258912362,132.71940693950455 78.17766163271153,132.5357366399985 78.20788153202739,132.48063550688676 78.40431087760953,132.3704331809131 78.63096012250753,132.16839537621127 79.26557800825685,131.745951827339 79.32601780688856,131.6541161181667 79.76420634705573,131.3602414765919 79.90019589400617,131.23167114256648 80.23261478653876,130.9928973770875 81.68316995387431,129.8908597615955 81.94003909820458,129.725553431359 82.00047889677808,129.65208389364125 82.1817982927314,129.54187952059146 82.5746569839539,129.22963336390967 83.17905497032916,128.80718166209408 83.51147386286175,128.51330152618175 84.59939023840707,127.74186347062641 85.50598721805727,127.0071569270076 85.56642701663077,126.98878921798314 86.0348354561138,126.62143457244383 86.18593495275127,126.5295957725757 86.39747424802044,126.32755021793128 86.66945334192133,126.16224001919909 86.7752229894977,126.01529746969754 87.09253193240147,125.75814766678377 87.34940107661532,125.66630834624812 87.47028067387873,125.48262953895028 87.66671001946088,125.33568633360846 87.65160006983206,125.15200712744263" stroke="#4dd2ff" stroke-linecap="round" stroke-linejoin="round" stroke-width="0.5"><title>2022-06-14 5.2km</title></polyline><polyline fill="none" points="136.17639090621378,112.0 135.86542098922655,112.03149965341436 135.78249567805324,112.06299930054229 135.74103302240837,112.31499625064316 135.3264064663672,112.53549325185304 134.6837353045703,112.31499625064316 134.28984007635154,112.66149139982008 133.60570625885157,112.69299092126312 133.04596040822798,112.85048843335244 132.90084111364558,113.00798578820832 132.6313338521868,113.10248412571673 132.21670729620382,113.48047690943349 132.09231932944385,113.85846878768643 131.9264687069808,114.0474643872003 130.72405169450212,114.11046286999772 130.47527576086577,113.92146734599373 130.10211186046945,113.79547020418977 129.97772389365127,113.76397090306273 129.81187327130465,113.85846878768643 129.72894796007313,113.85846878768643 129.68748530448647,113.98446587918443 129.68748530448647,114.23645976022817 129.52163468208164,114.67744808371936 129.3557840596186,114.7719454212056 128.89969484804897,115.40192622486211 128.73384422558593,115.4964231284248 128.09117306373082,115.4964231284248 127.63508385210298,115.4649241668667 127.17899464053335,115.11843517443049 126.93021870683879,114.80344452119607 126.49486082303338,114.55145154558704 126.03877161140554,114.39395573158981 125.7278016944183,114.39395573158981 124.9400112379808,114.29945816764666 124.4424593707663,114.14196210201771 124.27660874830326,114.20496054714022 123.86198219226208,114.0474643872003 123.38516165287001,113.98446587918443 123.11565439141123,113.88996806993964 122.86687845783308,113.88996806993964 122.53517721302342,113.70097228174563 121.99616269016406,113.66947296175931 121.85104339558166,113.76397090306273 121.78884941211436,113.76397090306273 121.78884941211436,113.63797363545746 121.49861082294956,113.54347561876057 121.24983488937141,113.60647430278186 121.06325293914415,113.7324715956347 120.87667098891689,113.79547020418977 120.33765646605752,113.41747817500436 119.6742539764382,113.22848182088637 119.19743343698792,113.1339835589024 118.51329961954616,113.1339835589024 118.26452368596802,113.03948524026782 117.80843447434017,113.00798578820832 117.37307659053477,112.88198791685863 116.87552472332027,112.88198791685863 115.71457036642823,112.724490436216 115.29994381038705,112.91348739416571 114.843854598701,113.25998122892634 114.78166061529191,113.44897754539852 114.6987353041186,113.98446587918443 114.57434733730042,114.3309573619481 114.47069069830468,114.89794178312877 114.51215335394954,114.866442702114 114.11825812567258,114.99243898862915 113.57924360287143,115.02393804457097 113.59997493063565,115.43342519906582 113.53778094728477,115.55942103271082 113.53778094728477,115.71691568332608 113.47558696387568,116.00040565828385 113.24754235800356,116.66188028553734 113.24754235800356,117.00836588833772 113.10242306342116,117.38634931427077 112.9158411132521,118.11081501642184 112.87437845760724,118.55179251079971 112.7707218186697,119.02426702973025 112.74999049078906,119.55973644086043 112.70852783526061,119.87471759841719 112.52194588497514,120.56767393165501 112.45975190156605,121.19763159344438 112.37682659039274,121.44961395404243 112.29390127921943,122.04807044719928 112.2109759679297,122.30005144949246 112.08658800116973,122.48903693708417 112.00366268993821,122.86700723302783 111.83781206753338,123.21347920897824 111.79634941200493,123.55995042419818 111.38172285596374,125.29229508723074 111.31952887255466,125.638761737413 111.31952887255466,125.98522762674838 111.44391683931462,126.2686991521623 111.54757347836858,126.89863405180222 111.58903613395523,127.18210393610934 111.54757347836858,127.7175456614932 111.52684215054614,127.90652466015308 111.29879754467402,128.63094205803645 110.98782762768678,129.35535612989042 110.88417098863283,129.76480609063583 110.6353950551129,130.3317350513389 110.65612638287712,130.42622301346273 110.59393239946803,130.96165372968244 110.65612638287712,131.4025953081582 110.65612638287712,131.52857838998898 110.67685771064134,131.6230656353 110.69758903852198,132.18998791910417 110.51100708829472,132.5364394231874 110.49027576047229,132.72541265023756 110.55246974388137,133.00887206628977 110.55246974388137,133.16634929973225 110.67685771064134,133.60728471699986 110.80124567745952,134.14270463852154 110.82197700522374,134.39466632589756 110.90490231651347,134.6781227432366 110.86343966086861,134.83559831058665 110.9256336442777,135.1505489738047 110.9256336442777,136.18988170221564 110.96709629992256,136.5678191788902 111.11221559456317,136.97725042363163 111.15367825009162,137.63863711310842 111.19514090573648,137.7331206996314 111.2158722335007,138.04806557930715 111.23660356126493,138.9928964466235 111.31952887255466,139.2763446035824 111.31952887255466,139.49680392915616 111.5683048061328,140.34714415683993 111.77561808412429,141.57540528452955 111.8585433952976,141.7958613979572 111.87927472317824,141.95332986181893 111.98293136211578,142.14229181104747 112.23170729581034,143.21307191555388 112.33536393474787,143.46501911937958 112.41828924592119,144.03189885734173 112.48048322938848,144.2208583173342 112.52194588497514,144.59877655857417 112.64633385185152,145.039680029382 112.66706517961575,145.22863828264235 112.87437845760724,145.92148327520408 112.95730376878055,146.6458179691981 113.08169173565693,147.0237304027105 113.22681103023933,147.33865673921537 113.39266165258596,147.9055225609336 113.51704961940413,148.0 113.7658255530987,147.93701504703495 113.68290024186717,147.84253757026454 113.49631829163991,146.99223773455014 113.4133929804666,146.8662669987243 113.18534837465268,146.17342615462258 113.10242306342116,145.41759630960587 112.97803509666119,145.1656522233534 112.93657244101632,144.81922844798828 112.79145314643392,144.50429708314186 112.72925916302484,144.1578718558012 112.66706517961575,143.9689123202843 112.66706517961575,143.87443246769544 112.56340854062,143.49651249157614 112.41828924592119,143.18157848673582 112.25243862357456,142.6461892358784 112.23170729581034,142.33125353390642 112.16951331240125,142.11079816851998 112.04512534558307,141.89034249511315 111.92073737870669,141.57540528452955 111.94146870658733,141.3549488630233 111.90000605094247,141.13449213356944 111.94146870658733,141.0400105837616 111.90000605094247,140.6620838190138 111.94146870658733,140.4731200971437 111.94146870658733,140.09519197458576 111.96220003435155,139.78025118089863 111.87927472317824,139.43381558184046 111.87927472317824,139.30783881177194 111.92073737870669,139.24485038901912 112.64633385185152,138.96140217551147 113.04022908001207,138.96140217551147 113.0609604078345,138.92990789815667 113.37193032482173,138.86691932451504 114.30484007595805,138.8984136144427 114.36703405936714,138.8039307257568 114.32557140372228,138.77243641698442 114.36703405936714,138.5519760793104 114.3463027314865,138.3945042208943 114.28410874807741,138.14254892067402 114.2011834369041,137.98507665372745 114.09752679790836,137.10322905436624 114.11825812567258,136.5678191788902 114.13898945349501,136.37885055370862 114.09752679790836,135.93792288163968 114.2011834369041,134.5836373273196 114.18045210913988,134.11120939931425 114.26337742031319,132.44195272476645 114.24264609254897,132.28447476842848 114.24264609254897,131.05614131457696 114.15972078131745,130.61519876787497 114.11825812567258,130.36323104496114 114.0560641422635,129.41834850073792 114.07679547008593,129.1033863951452 113.97313883109018,128.31597838072048 113.95240750332596,127.62305607723829 113.72436289745383,126.0797181918897 113.7036315696896,125.60726480062294 113.64143758628052,125.35528908016568 113.64143758628052,125.16630702580733 113.53778094728477,124.5363652096712 113.4133929804666,124.28438777892734 113.33046766929328,123.62294510877109 113.33046766929328,123.15048436094366 113.24754235800356,122.7725147439196 113.14388571906602,122.61502713625669 113.16461704683024,122.42604179962655 113.0609604078345,122.04807044719928 112.93657244101632,120.85115519077226 112.99876642442541,120.81965729828516 112.93657244101632,120.3786861426488 112.7707218186697,119.84321951099264 112.72925916302484,119.37074744443817 112.7707218186697,119.24475465438445 112.74999049078906,118.55179251079971 112.83291580196237,117.63833776200772 112.89510978537146,117.26035493961535 113.24754235800356,116.22089750884334 113.2682736858842,116.03190451298724 113.20607970247511,115.43342519906582 113.35119899705751,115.33892825769726 113.35119899705751,115.2759302653576 113.47558696387568,114.9609399264591 113.59997493063565,114.80344452119607 113.848750864272,114.7719454212056 114.24264609254897,114.89794178312877 114.22191476466833,114.92944085792988 114.59507866512286,114.67744808371936 114.61580999294529,114.20496054714022 114.71946663194103,113.66947296175931 114.74019795976346,113.44897754539852 114.82312327093678,113.22848182088637 115.21701849915553,112.94498686509905 115.5487197440234,112.75598994489701 115.77676434983732,112.724490436216 117.53892721288139,112.94498686509905 117.93282244115835,113.03948524026782 119.86083592666546,113.19698240645812 120.23399982706178,113.29148063076718 120.64862638310296,113.48047690943349 121.02179028349929,113.35447941548773 121.37422285613138,113.35447941548773 121.83031206775922,113.48047690943349 122.05835667357314,113.41747817500436 122.6595651798416,113.48047690943349 122.86687845783308,113.48047690943349 122.99126642465126,113.48047690943349 123.19857970270095,113.63797363545746 123.65466891427059,113.60647430278186 124.60830999317113,113.66947296175931 125.16805584379472,113.82696949905949 125.4375631051953,113.98446587918443 126.05950293922797,114.0789636317204 126.39120418409584,114.23645976022817 126.70217410108307,114.45695407602761 126.82656206790125,114.67744808371936 126.95095003471943,114.74044631494326 127.09606932930183,114.89794178312877 127.36557659076061,115.11843517443049 127.61435252433876,115.24443125979451 128.11190439155325,115.2759302653576 128.17409837496234,115.40192622486211 128.94115750357741,115.43342519906582 129.1484707816271,115.4964231284248 129.23139609280042,115.59091997538053 129.54236600984586,115.87441017680976 130.06064920482459,116.1264010391169 130.24723115511006,116.2838951239246 130.765514350147,116.44138905133877 131.09721559489844,116.69337900825485 131.11794692277908,116.66188028553734 131.345991528593,116.69337900825485 131.61549878999358,116.40989027838805 131.6984241011669,116.44138905133877 131.86427472357173,116.15789986876189 131.8435433958075,115.77991349955846 131.73988675681176,115.55942103271082 131.76061808457598,115.43342519906582 131.8435433958075,115.37042724435742 132.23743862402625,115.40192622486211 132.50694588548504,115.33892825769726 133.02522908046376,115.08693613744981 133.54351227544248,115.11843517443049 133.58497493108734,115.05543709413905 134.14472078171093,115.18143322966353 134.14472078171093,114.9609399264591 134.5386160099879,114.67744808371936 134.58007866551634,114.48845323889691 134.60080999339698,113.82696949905949 134.51788468222367,113.98446587918443 134.41422804316971,114.0474643872003 134.41422804316971,113.98446587918443 134.28984007635154,114.0789636317204" stroke="#4dd2ff" stroke-linecap="round" stroke-linejoin="round" stroke-width="0.5"><title>2022-05-13 4.4km</title></polyline><polyline fill="none" points="180.9316983417375,112.0 176.85800562635995,112.73821610669256 179.36201857984997,124.37906291768013 177.6054721797118,125.45794654601195 174.57823263877071,123.12982412995188 173.38228615361731,124.09514549312007 174.57823263877071,145.38816591663635 171.96209970244672,146.69408595611458 164.89854077377822,148.0 163.81471427169163,142.83308762818342 163.9268342545256,133.691397345101 159.0683016582625,133.12358080374543 159.25516829651315,139.7669633852929 160.63798142015003,141.4703698228841 161.83392790541984,141.64070990571054 163.2167410289403,140.67544808815 163.66522096085828,134.7702456509287 161.08646135218441,133.63461574201938 159.44203493499663,135.0541524196451 159.40466160711367,140.22120609950798 160.7127280754503,141.52714986186766 161.94604788848665,141.64070990571054 162.9925010629231,141.52714986186766 163.40360766719095,140.44832718459656 163.51572765025776,134.65668286406435 161.68443459481932,133.5210525017319 159.40466160711367,134.65668286406435 159.25516829651315,140.05086516679148 160.3763681264827,141.30002963822335 162.9925010629231,141.41358977273921 163.59047430567443,137.43895808947855 163.36623433965724,134.37277569860453 162.28240783733781,133.63461574201938 160.11475483281538,134.08886824974616 159.666274900781,140.95934896287508 161.08646135218441,141.75426990418055 163.14199437364005,141.30002963822335 163.47835432260763,136.92792998637015 163.36623433965724,140.67544808815" stroke="#4dd2ff" stroke-linecap="round" stroke-linejoin="round" stroke-width="0.5"><title>2022-05-04 3.1km</title></polyline><polyline fill="none" points="40.65156610356644,152.4472333611193 40.798738001380116,152.0 40.28363635903224,152.61494568730996 40.98270287364721,152.4472333611193 40.50439420575276,152.89446600803058 39.179847125546075,153.00627405795967 38.14964384085033,153.34169794039917 36.60433891392313,153.22989002424583 37.00906163291074,153.50940973102115 36.78830378619023,154.06844830718182 37.229819479514845,154.45977464638418 37.08264758181758,154.96290770765336 37.19302650517784,155.6337503825489 37.487370300805196,156.13688133428514 37.74492112197913,157.19904370766017 37.74492112197913,157.7580749171466 38.03926491749007,158.20529908133904 38.33360871311743,159.3233563665708 38.627952508744784,161.22404350568831 38.591159534291364,161.72716441229568 38.627952508744784,163.51603142550448 38.73833143210504,164.13095182196412 39.10626117663924,164.63406750539434 38.44398763647769,165.5843946631503 37.3401984028751,165.69619764617528 37.04585460736416,165.3048870104103 36.67792486282997,164.91357582779892 35.79489347606432,164.2986571501824 35.279791833716445,164.13095182196412 34.39676044683438,163.46012950435397 33.77127988112625,163.40422757212946 33.40335013659205,163.9073445613176 33.21938526444137,164.41046064642433 33.29297121334821,165.52849315485219 33.62410798331257,166.59061990304326 33.66090095776599,167.20553354734147 33.62410798331257,168.88256389561866 33.66090095776599,170.0005785478279 33.80807285569608,171.17448912828695 33.66090095776599,172.96329578766017 33.77127988112625,173.52229552525387 33.77127988112625,174.1371939474775 33.51372905995231,174.5843919520412 33.44014311116189,175.64648435031995 33.697693932335824,176.65267343287996 33.73448690667283,177.2116658052255 33.844865830033086,177.82655612600502 33.77127988112625,178.8886362269841 33.992037727846764,180.0066109287436 34.17600260023028,181.29227631776303 34.47034639574122,182.35434327388066 34.507139370194636,182.96922230192285 34.80148316582199,184.0871807122021 34.39676044683438,185.37282736632915 33.881658804486506,185.82000742766832 33.44014311116189,186.04359719039348 32.888248494360596,186.26718677475583 32.336353877559304,186.32308414288855 31.821252235327847,186.6025708164816 30.055189461563714,186.8261599545658 27.66364612232428,187.27333769485995 27.07495853106957,187.5528234201047 26.486270939814858,187.66461763190455 25.382481706212275,188.0 24.8305870895274,187.8882059219177 24.573036268353462,187.38513201841852 24.389071396086365,186.21128939544724 24.13152057491243,185.7082124792796 23.910762728191912,184.4784651013033 23.910762728191912,183.86358938731428 23.80038380494807,182.85742621553072 23.873969753738493,182.29844511342526 24.057934626122005,178.94453506814898 24.168313549482264,178.44144509654143 24.205106523819268,177.3234641458257 24.057934626122005,176.65267343287996 24.057934626122005,176.0936799444753 23.947555702761747,175.53468534018612 24.09472760045901,174.36079303904262 23.910762728191912,173.85769483214244 23.358868111507036,173.7458951076842 22.07111400575377,173.35459572107357 21.519219388836063,173.29869576396595 20.34184420632664,173.13099582618452 19.679570666281506,173.13099582618452 19.12767604959663,173.2427957958862 19.12767604959663,174.24899351569184 19.054090100573376,174.86389034215244 19.01729712623637,175.42288628555252 19.090883075026795,176.48497550364118 19.01729712623637,177.6029598020832 19.45881281956099,177.994253251818 19.385226870770566,179.22402910607343 19.274847947410308,179.8389150081057 19.75315661530476,180.84508902595553 20.67298097652383,181.4599713680509 21.81356318446342,181.68356461233634 22.843766469159164,181.18047956185183 23.174903239123523,180.7332920912304 23.358868111507036,180.23020533350063 23.432454060413875,177.04396821059345 23.616418932564557,175.4787858184718 23.616418932564557,174.91978998661216 23.358868111507036,174.4725925178791 22.843766469159164,174.08129414674477 22.32866482681129,173.85769483214244 21.114496669964865,173.7458951076842 20.525809078710154,173.96949451166438 20.0475004108157,174.24899351569184 19.679570666281506,174.69619134157256 19.45881281956099,175.14338845325983 19.385226870770566,176.26137810808723 19.45881281956099,176.82037126172509 19.42201984510757,177.88245517908945 19.34843389620073,179.00043389800703 19.45881281956099,180.23020533350063 19.75315661530476,180.7332920912304 20.231465283082798,181.23637794540264 20.74656692543067,181.57176801266905 21.923942107823677,181.68356461233634 22.954145392519422,181.51586969594064 23.211696213693358,181.06868276103341 23.39566108584404,180.45379955973476 23.5060400092043,179.8389150081057 23.5060400092043,178.60914185413276 23.579625958227552,178.05015227152035 23.542832983657718,177.54706069290114 23.616418932564557,177.04396821059345 23.579625958227552,175.31108718598261 23.469247034867294,174.80799068648776 23.174903239123523,174.30489328296972 22.255078877904452,173.7458951076842 21.66639128664974,173.68999522886588 20.12108635972254,173.91359467746224 19.45881281956099,174.75209101955988 19.385226870770566,175.4787858184718 19.45881281956099,177.88245517908945 19.385226870770566,178.49734402682225 19.45881281956099,179.11223152457387 19.34843389620073,179.61532029088994 19.274847947410308,180.11840815344476 19.569191742921248,180.56559660591302 19.900328513002023,180.95688591590442 20.378637180896476,181.29227631776303 20.893738823244348,181.62766631809063 21.408840465475805,181.7394628955808 21.960735082393512,181.68356461233634 22.47583672462497,181.7394628955808 22.954145392519422,181.4599713680509 23.432454060413875,180.39790101983817 23.579625958227552,177.49116157292156 23.432454060413875,175.03158924239688 23.322075137053616,174.5284922404535 22.843766469159164,174.1371939474775 22.255078877904452,173.80179497537029 21.15128964430187,173.68999522886588 20.599395027616993,173.80179497537029 20.15787933417596,174.24899351569184 19.75315661530476,174.69619134157256 19.605984717491083,175.31108718598261 19.495605794130825,176.48497550364118 19.53239876846783,177.04396821059345 19.42201984510757,178.16195027723734 19.42201984510757,178.7768385114323 19.34843389620073,179.33582664334972 19.495605794130825,180.45379955973476 19.716363640734926,181.01278434402775 20.562602053047158,181.7394628955808 21.114496669964865,181.79536116750387 22.733387545798905,181.68356461233634 23.1013172903331,181.34817467913672 23.28528216248378,180.78919056418817 23.39566108584404,179.61532029088994 23.432454060413875,179.11223152457387 23.358868111507036,178.60914185413276 23.542832983657718,178.10605127982853 23.469247034867294,176.9880689901329 23.5060400092043,177.54706069290114 23.616418932564557,178.05015227152035 23.653211907017976,179.67121898685582 23.579625958227552,180.17430674897332 23.358868111507036,180.67739360725682" stroke="#4dd2ff" stroke-linecap="round" stroke-linejoin="round" stroke-width="0.5"><title>2022-05-04 3.2km</title></polyline><polyline fill="none" points="87.31823277031071,152.4472333611193 87.46540466812439,152.0 86.95030302577652,152.61494568730996 87.64936954039149,152.4472333611193 87.17106087249704,152.89446600803058 85.84651379229035,153.00627405795967 84.81631050759461,153.34169794039917 83.2710055806674,153.22989002424583 83.67572829965502,153.50940973102115 83.4549704529345,154.06844830718182 83.89648614625912,154.45977464638418 83.74931424856186,154.96290770765336 83.85969317192212,155.6337503825489 84.15403696754947,156.13688133428514 84.41158778872341,157.19904370766017 84.41158778872341,157.7580749171466 84.70593158423435,158.20529908133904 85.0002753798617,159.3233563665708 85.29461917548906,161.22404350568831 85.25782620103564,161.72716441229568 85.29461917548906,163.51603142550448 85.40499809884932,164.13095182196412 85.77292784338351,164.63406750539434 85.11065430322196,165.5843946631503 84.00686506961938,165.69619764617528 83.71252127410844,165.3048870104103 83.34459152957425,164.91357582779892 82.4615601428086,164.2986571501824 81.94645850046072,164.13095182196412 81.06342711357865,163.46012950435397 80.43794654787052,163.40422757212946 80.07001680333633,163.9073445613176 79.88605193118565,164.41046064642433 79.95963788009249,165.52849315485219 80.29077465005685,166.59061990304326 80.32756762451027,167.20553354734147 80.29077465005685,168.88256389561866 80.32756762451027,170.0005785478279 80.47473952244036,171.17448912828695 80.32756762451027,172.96329578766017 80.43794654787052,173.52229552525387 80.43794654787052,174.1371939474775 80.18039572669659,174.5843919520412 80.10680977790616,175.64648435031995 80.3643605990801,176.65267343287996 80.4011535734171,177.2116658052255 80.51153249677736,177.82655612600502 80.43794654787052,178.8886362269841 80.65870439459104,180.0066109287436 80.84266926697455,181.29227631776303 81.1370130624855,182.35434327388066 81.17380603693891,182.96922230192285 81.46814983256627,184.0871807122021 81.06342711357865,185.37282736632915 80.54832547123078,185.82000742766832 80.10680977790616,186.04359719039348 79.55491516110487,186.26718677475583 79.00302054430358,186.32308414288855 78.48791890207212,186.6025708164816 76.72185612830799,186.8261599545658 74.33031278906856,187.27333769485995 73.74162519781385,187.5528234201047 73.15293760655914,187.66461763190455 72.04914837295655,188.0 71.49725375627168,187.8882059219177 71.23970293509774,187.38513201841852 71.05573806283064,186.21128939544724 70.7981872416567,185.7082124792796 70.57742939493619,184.4784651013033 70.57742939493619,183.86358938731428 70.46705047169235,182.85742621553072 70.54063642048277,182.29844511342526 70.72460129286628,178.94453506814898 70.83498021622654,178.44144509654143 70.87177319056354,177.3234641458257 70.72460129286628,176.65267343287996 70.72460129286628,176.0936799444753 70.61422236950602,175.53468534018612 70.76139426720329,174.36079303904262 70.57742939493619,173.85769483214244 70.02553477825131,173.7458951076842 68.73778067249805,173.35459572107357 68.18588605558034,173.29869576396595 67.00851087307092,173.13099582618452 66.34623733302578,173.13099582618452 65.7943427163409,173.2427957958862 65.7943427163409,174.24899351569184 65.72075676731765,174.86389034215244 65.68396379298065,175.42288628555252 65.75754974177107,176.48497550364118 65.68396379298065,177.6029598020832 66.12547948630527,177.994253251818 66.05189353751484,179.22402910607343 65.94151461415458,179.8389150081057 66.41982328204904,180.84508902595553 67.33964764326811,181.4599713680509 68.4802298512077,181.68356461233634 69.51043313590344,181.18047956185183 69.8415699058678,180.7332920912304 70.02553477825131,180.23020533350063 70.09912072715815,177.04396821059345 70.28308559930883,175.4787858184718 70.28308559930883,174.91978998661216 70.02553477825131,174.4725925178791 69.51043313590344,174.08129414674477 68.99533149355557,173.85769483214244 67.78116333670914,173.7458951076842 67.19247574545443,173.96949451166438 66.71416707755998,174.24899351569184 66.34623733302578,174.69619134157256 66.12547948630527,175.14338845325983 66.05189353751484,176.26137810808723 66.12547948630527,176.82037126172509 66.08868651185185,177.88245517908945 66.01510056294501,179.00043389800703 66.12547948630527,180.23020533350063 66.41982328204904,180.7332920912304 66.89813194982708,181.23637794540264 67.41323359217495,181.57176801266905 68.59060877456795,181.68356461233634 69.6208120592637,181.51586969594064 69.87836288043763,181.06868276103341 70.06232775258832,180.45379955973476 70.17270667594858,179.8389150081057 70.17270667594858,178.60914185413276 70.24629262497183,178.05015227152035 70.209499650402,177.54706069290114 70.28308559930883,177.04396821059345 70.24629262497183,175.31108718598261 70.13591370161157,174.80799068648776 69.8415699058678,174.30489328296972 68.92174554464873,173.7458951076842 68.33305795339402,173.63409533871163 66.78775302646682,173.91359467746224 66.12547948630527,174.75209101955988 66.05189353751484,175.4787858184718 66.12547948630527,177.88245517908945 66.05189353751484,178.49734402682225 66.12547948630527,179.11223152457387 66.01510056294501,179.61532029088994 65.94151461415458,180.11840815344476 66.23585840966552,180.56559660591302 66.5669951797463,180.95688591590442 67.04530384764075,181.29227631776303 67.56040548998863,181.62766631809063 68.07550713222008,181.7394628955808 68.62740174913779,181.68356461233634 69.14250339136925,181.7394628955808 69.6208120592637,181.4599713680509 70.09912072715815,180.39790101983817 70.24629262497183,177.49116157292156 70.09912072715815,175.03158924239688 69.9887418037979,174.5284922404535 69.51043313590344,174.1371939474775 68.92174554464873,173.80179497537029 67.81795631104615,173.68999522886588 67.26606169436127,173.80179497537029 66.82454600092024,174.24899351569184 66.41982328204904,174.69619134157256 66.27265138423536,175.31108718598261 66.1622724608751,176.48497550364118 66.1990654352121,177.04396821059345 66.08868651185185,178.16195027723734 66.08868651185185,178.7768385114323 66.01510056294501,179.33582664334972 66.1622724608751,180.45379955973476 66.3830303074792,181.01278434402775 67.22926871979143,181.7394628955808 67.78116333670914,181.79536116750387 69.40005421254318,181.68356461233634 69.76798395707738,181.34817467913672 69.95194882922806,180.78919056418817 70.06232775258832,179.61532029088994 70.09912072715815,179.11223152457387 70.02553477825131,178.60914185413276 70.209499650402,178.10605127982853 70.13591370161157,176.9880689901329 70.17270667594858,177.54706069290114 70.28308559930883,178.05015227152035 70.31987857376225,179.67121898685582 70.24629262497183,180.17430674897332 70.02553477825131,180.67739360725682" stroke="#4dd2ff" stroke-linecap="round" stroke-linejoin="round" stroke-width="0.5"><title>2022-05-04 3.2km</title></polyline><polyline fill="none" points="129.12780305044726,188.0 125.69644109508954,179.54122000461211 126.14963984373026,153.37709756201366 117.66834897268564,152.0 117.60360629437491,162.62322437489638 119.99908539536409,166.8527777394629 124.40158752677962,165.1806330741383 124.98427163250744,155.63946377273533 122.71827788860537,152.88527744589373 118.51000379188918,154.6558275661082 118.704231827287,165.37735627041548 121.03496824996546,166.7544164454739 124.72530091903172,164.49210126852267 124.85478627565317,154.6558275661082 121.55290967714973,152.88527744589373 118.5747464701999,154.9509186341893 118.25103307841346,164.49210126852267 120.12857075221837,166.45933244630578 122.91250592353754,166.55769379920093 124.85478627565317,164.49210126852267 124.85478627565317,154.75419127504574 120.71125485771336,153.08200555137591 118.31577575672418,155.93455425143475 118.51000379188918,165.1806330741383 123.62467538611963,166.7544164454739 125.243242346216,164.9839097991935 125.37272770307027,155.1476459147234 123.36570467241108,152.98364150870475 120.58176950109191,152.88527744589373 117.92731968616135,156.13128113929997 118.5747464701999,165.08227144635748 122.84776324522682,167.04950026792358 125.30798502452672,164.19701591451303 124.66055824048817,153.67218939610757 123.10673395870253,152.59018514072523 118.704231827287,153.4754615262209 117.53886361606419,162.91831067137537 119.61062932480127,166.7544164454739 124.27210217015818,166.26260968195857 125.43747038138099,158.68872353379265 124.20735949161462,153.77055330143776 120.12857075221837,152.88527744589373 118.05680504324846,157.311640816828 117.92731968616135,164.5904630140867 119.86960003850982,166.55769379920093 123.55993270757608,166.26260968195857 124.98427163250744,163.90193038384314 124.85478627565317,155.34437311682268 118.704231827287,154.55746383738006 117.79783432953991,158.9838121868088" stroke="#4dd2ff" stroke-linecap="round" stroke-linejoin="round" stroke-width="0.5"><title>2022-03-10 3.4km</title></polyline><polyline fill="none" points="173.28056652843952,180.3389358081331 171.32849388336763,175.72575328542734 171.43694236373994,153.6476658299216 168.617281876388,152.1647668790538 164.17089418508112,152.0 164.22511842520908,161.47398868526216 166.0145183497807,164.3573333763925 169.1053000377724,164.02780928838183 170.18978484056424,162.70971030544024 170.62357876158785,154.30673031971673 167.31590011308435,152.57668378876406 164.6589123464655,154.38911330711562 164.5504638660932,162.54494763651746 168.12926371535286,164.3573333763925 170.40668180107605,162.21542210134794 170.40668180107605,153.89481513711507 167.31590011308435,152.74145043775206 164.6589123464655,154.55387923223316 164.5504638660932,162.1330406765337 166.88210619206075,164.3573333763925 170.29823332082015,162.38018490179093 170.51513028144836,154.80102799655288 169.1053000377724,152.90621702049975 165.96029410976917,153.07098353776382 164.87580930697732,154.14196429608273 164.5504638660932,161.8035148124618 167.31590011308435,164.43971435714047 170.18978484056424,162.9568541853514 170.40668180107605,154.80102799655288 169.70176667917985,153.31813319033245 167.20745163294487,152.65906712130527 164.6589123464655,154.71864509163424 164.93003354698885,163.0392354459036 168.34616067586467,164.43971435714047 170.7862514819717,162.38018490179093 169.70176667917985,152.9886002872663 166.2856395506533,152.65906712130527 164.6589123464655,154.80102799655288 164.71313658647705,162.54494763651746 166.61098499130458,164.1925713653036 169.15952427778393,164.2749523789389 170.4609060413204,162.0506592350721 170.02711212006398,153.73004894860787 165.47227594838478,153.15336677164305 163.89977298432495,158.17871294173528 163.6286517836852,155.21294227484032 163.89977298432495,152.0 171.382718123612,152.41191707417602 171.7080635643797,170.12396232318133 172.90099684742745,178.93851085056667 176.3713482163148,186.7643541043799 175.82910581491888,188.0" stroke="#4dd2ff" stroke-linecap="round" stroke-linejoin="round" stroke-width="0.5"><title>2022-03-08 3.7km</title></polyline><polyline fill="none" points="39.31383759423625,194.6586212951952 38.94930383330211,194.1047439598915 40.29807874909602,194.54784591670614 40.079358492512256,193.16314995175344 41.318773280014284,192.8308218918537 40.370985501329415,192.0 39.64191797922831,194.21551951544825 40.22517199697904,192.22155274784018 40.18871862068772,193.4954776136874 36.72564789094031,193.7170291670045 36.470474258298054,194.99094716568652 37.418262036982924,197.20644279473345 37.96506267844234,205.29285169538343 36.434020882239565,205.34823724490707 33.08031028066762,203.07742064436025 32.82513664790895,203.63128006579063 33.11676365684252,215.4836066669668 34.28327169211116,224.51097366669273 32.023162373690866,226.0062760393921 24.87830065737944,228.0 23.420165613293648,224.4002102073282 23.71179262222722,213.87747991783544 18.754133472102694,213.15748904639622 18.863493600394577,219.19427773731877 20.17581514013,221.18805065078777 21.74331031262409,221.29881539256894 22.909818347892724,220.3019311248354 23.019178476184607,214.81900362258602 21.92557719303295,213.65594446418982 20.7590691576479,213.60056057319161 19.22802736144513,215.09592175131547 19.3738408657955,220.57884378067683 21.087149542639963,221.29881539256894 22.909818347892724,220.4126962202281 22.946271723951213,215.15130534379568 21.88912381697446,213.8220960710314 19.41029424185399,214.4867015034106 19.33738748973701,219.52657421799086 20.686162405530922,221.1326682632498 23.055631852243096,220.08040080107457 23.019178476184607,215.4836066669668 22.071390697499737,213.7667122130515 19.59256112249568,214.0990151946753 19.19157398538664,219.85887030043523 20.54034890118055,221.35419774678303 22.873364971834235,220.19116598508845 23.019178476184607,214.87438727037807 22.618191339075565,213.932863753711 21.087149542639963,213.4897927577549 19.3738408657955,214.70823629377992 19.19157398538664,219.9696355728811 20.17581514013,221.24343302728084 21.378776551573537,221.35419774678303 23.019178476184607,220.08040080107457 23.019178476184607,215.04053814745566 22.071390697499737,213.8220960710314 19.59256112249568,214.20978276677488 18.899946976453066,217.3112568295328 18.6812267198693,213.04672105418285 23.857606126577593,212.65903273319418 26.22707557317335,199.03421336913016 27.211316728033125,198.64650546570192 30.929561090655625,200.64042605397117 31.87734886922408,200.19733382832783 32.132522502099164,198.314183974333 37.01727489987388,198.70189234220015 38.32959643949289,197.53876561312063 40.80842601461336,198.203410055532 40.516799005679786,193.16314995175344 40.22517199697904,194.49245821089426 38.83994370489381,194.32629502678174" stroke="#4dd2ff" stroke-linecap="round" stroke-linejoin="round" stroke-width="0.5"><title>2021-12-30 4.7km</title></polyline><polyline fill="none" points="82.46849570912309,228.0 78.07132001360878,216.95905932574533 79.29275770671666,193.1134438473382 71.10912516270764,192.0 71.0480532781221,203.13431844569277 73.30771301034838,205.639503338316 76.05594781995751,205.54671895332285 77.88810435961932,203.41267298936145 78.1934637830127,194.69081806502072 75.38415708881803,192.5567222571699 72.0862753172405,193.67016477059224 71.10912516270764,202.94874865724705 73.67414431832731,205.4539345500525 75.68951651221141,205.639503338316 77.64381682104431,203.8765968584048 78.13239189819433,194.59803149459185 76.17809158936143,192.74229619442485 72.6359222792089,193.29901756261825 70.86483762413263,202.39203884726157 72.8802098177839,205.54671895332285 76.30023535853252,205.17558122857008 78.13239189819433,203.3198881598655 78.1934637830127,195.15475063992199 75.87273216596805,192.6495092350524 71.47555647068657,193.94852498240652 71.17019704729319,203.3198881598655 73.85735997231677,205.54671895332285 77.64381682104431,203.7838121217792 78.07132001360878,194.59803149459185 74.52915070345625,192.18557415957912 71.59770024009049,194.04131168249296 71.10912516270764,203.3198881598655 72.81913793296553,205.36115012824303 77.27738551306538,204.34052026472636 78.37667943700217,195.43310996243963 77.76596059044823,193.67016477059224 75.01772578060627,192.74229619442485 71.90305966325104,194.31967167175026 71.2923408166971,203.7838121217792 73.12449735635892,205.54671895332285 76.72773855132982,205.26836568766157 77.88810435961932,203.8765968584048 78.13239189819433,195.34032353994553 76.6055947819259,192.5567222571699 71.23126893211156,193.29901756261825 71.23126893211156,204.06216627650429" stroke="#4dd2ff" stroke-linecap="round" stroke-linejoin="round" stroke-width="0.5"><title>2021-12-27 3.1km</title></polyline><polyline fill="none" points="129.17453353852034,228.0 131.26854870677926,194.17678807483753 115.39811795973219,192.0 117.60234445240349,214.7722725853091 121.23931816522963,218.28852427884704 126.19882777356543,218.6234046233585 129.50516751245596,215.27459515765077 129.06432221410796,198.36290310963523 122.3414314116817,194.00934303860413 117.49213312729262,197.1907930058078 119.14530299720354,214.10250868613366 123.44354465790093,218.6234046233585 128.95411088922992,215.77691743004834 128.5132655906491,198.36290310963523 123.00269935908727,194.51167804608122 117.60234445240349,197.35823740652995 119.58614829555154,216.11179877776885 125.53755982569419,218.79084474634146 129.28474486316554,215.60947670636233 128.5132655906491,198.86523550981656 123.22312200837769,194.51167804608122 119.80657094507478,194.8465678843204 117.05128782894462,198.6977914099698 118.04318975075148,214.7722725853091 123.66396730695851,218.12108405597974 129.17453353852034,215.77691743004834 128.95411088922992,199.36756760952994 122.45164273609407,194.67912298231386 117.16149915382266,198.53034727630438 118.04318975075148,214.10250868613366 123.00269935908727,218.12108405597974 127.74178631836548,217.45132283127168 129.83580148639157,212.59553795936517 128.62347691552714,198.36290310963523 121.56995213869959,194.34423307713587 118.15340107539669,195.68379189417465 117.27171047846787,199.20012360997498 118.15340107539669,214.7722725853091 125.53755982569419,219.12572489015292 129.50516751245596,213.76762653660262 128.40305426623672,197.52568177407375 124.32523525482975,194.34423307713587 119.3657256460283,194.67912298231386 116.1695972320158,200.53967467148323 117.60234445240349,215.60947670636233 124.65586922876537,218.45596446777927 129.61537883710116,213.93506762810284 129.83580148639157,198.19545890955487 122.12100876215845,193.50700773025164 117.05128782894462,196.5210150682251 117.05128782894462,213.93506762810284 122.01079743774608,218.28852427884704 129.06432221410796,214.10250868613366 128.84389956458472,199.0326795760775 127.41115234442987,196.0186812641332 121.34952948987484,194.17678807483753 116.720653855009,197.6931261079735" stroke="#4dd2ff" stroke-linecap="round" stroke-linejoin="round" stroke-width="0.5"><title>2021-12-07 3.6km</title></polyline><polyline fill="none" points="173.00146487890743,209.5683366661542 171.4217465214897,193.24804509343812 164.97649562405422,192.0 163.77590967225842,194.78409614652628 164.40779701527208,205.44031524352613 167.88317740149796,207.26432907878188 170.66348171024583,206.49632409680635 171.54812399018556,204.6723073486355 170.97942538163625,194.88009917459567 165.4820054981392,193.6320583166962 163.9654758751858,199.29621774112456 165.60838296683505,206.68832545704208 170.0947831014637,207.07232794817537 171.67450145888142,200.8322494761378 170.47391550731845,194.49608694779454 165.4820054981392,194.4000838433276 164.34460828104056,202.08027164812665 165.9875153726898,206.40032338764286 168.2623098071199,208.12833321781363 170.78985917870887,207.4563301326707 171.23218031902798,197.76018110016594 170.0947831014637,194.97610218339832 165.4820054981392,194.01607123340364 163.9022871409543,198.4321977342188 165.9875153726898,207.36032961515593 170.66348171024583,207.1683285231993 170.97942538163625,195.55211983332993 168.45187600981444,193.92006803286495 165.60838296683505,194.49608694779454 164.15504207811318,197.56817617529305 166.05070410692133,207.07232794817537 169.9052168985363,207.26432907878188 171.1058028503321,205.8243187314365 171.54812399018556,197.3761711732368 169.02057461859658,194.01607123340364 165.4820054981392,194.59209003314027 164.34460828104056,196.1281367932097 164.59736321819946,204.96031045319978 167.2512900584843,207.64833110995824 170.1579718356952,207.1683285231993 171.16899158456363,205.8243187314365 171.48493525595404,196.89615833378048 169.58927322737873,194.49608694779454 167.06172385555692,193.92006803286495 164.6605519526638,196.80015570792602 164.72374068689533,205.9203195552982 168.19912107265554,207.4563301326707 171.35855778725818,204.76830840250477 170.97942538163625,196.1281367932097 166.74578018393368,194.20807757650618 164.6605519526638,197.3761711732368 165.54519423260354,206.49632409680635 168.07274360442534,207.55233063103515 171.2953690532595,205.72831788813346 171.23218031902798,196.5121477166831 170.03159436723217,194.59209003314027 167.37766752694733,194.01607123340364 165.10287309251726,195.4561169394292 164.15504207811318,198.04818834396428 163.9022871409543,206.30432265962008 163.77590967225842,193.05603836703813 172.1168225989677,192.76802813322865 172.685521207517,214.1763187260367 176.22409032774158,228.0" stroke="#4dd2ff" stroke-linecap="round" stroke-linejoin="round" stroke-width="0.5"><title>2021-12-06 4.4km</title></polyline><polyline fill="none" points="40.31639284291305,232.0 35.74611988442484,233.4158028368547 34.636830331524834,235.30353071846184 29.400983641389757,235.6406238725176 25.762513907509856,241.30373854676145 24.65322435449343,246.62967640036368 25.496284414664842,253.30383436131524 24.253880115458742,259.23630847854656 20.260437724529766,257.6857855305134 16.799454319290817,257.7531997198821 16.62196799076628,265.101265668578 18.041858618613333,267.52811471148743 20.349180888850242,267.86517569894204 22.390273666474968,266.2472798899689 22.523388412664644,259.9104466700519 20.837268292205408,258.0228563423734 19.41737766447477,257.82061389577575 17.553771215258166,259.3711362245376 17.243170140427537,266.1798673964222 19.151148171629757,268.0 21.236612531356514,267.7977635283896 22.345902084256522,266.1798673964222 22.390273666474968,260.38234260337777 20.21606614254415,258.0228563423734 17.46502805093769,259.43855007729144 16.97694064769894,265.7079795644968 19.41737766447477,267.9325878563686 21.990929427323863,266.5169297296088 22.390273666474968,260.11268786521396 21.059126202831976,258.2925127494382 19.10677658941131,257.7531997198821 17.50939963327255,259.23630847854656 17.198798558441922,265.91021728742635 19.86109348561149,268.0 21.946557845221832,266.7865793543169 22.168415755731985,259.5733777425485 19.506120828562416,257.8880280580488 17.553771215258166,259.43855007729144 17.50939963327255,265.37091642350424 18.485574439750053,267.2584656790714 19.949836649699137,267.66293914677226 21.946557845221832,266.584342156013 22.390273666474968,259.43855007729144 20.52666721737478,257.7531997198821 18.973661843221635,258.49475491340854 17.686885961680673,259.97786041506333 17.331913304748014,262.5395727583382 17.065683812019415,259.16889458545484 23.898907458526082,256.94422856069286 26.294972892967053,241.97791253897594 29.267868895083666,239.1463727269147 35.21366089908406,237.12382975281798 40.582622335641645,238.74186510121217 38.14218531886581,235.84287960352958 41.15945290320087,233.0787074615364 43.37803200923372,233.01128834628616" stroke="#4dd2ff" stroke-linecap="round" stroke-linejoin="round" stroke-width="0.5"><title>2021-11-11 3.8km</title></polyline><polyline fill="none" points="89.21565825043945,233.6201853157254 90.26223032589769,232.39004620941705 89.51185789436568,232.0 87.81364660221152,232.060007174965 86.25366181047866,233.11012885962555 84.08153108786792,233.59018204265158 82.73875936848344,235.36036490194965 81.9488936511334,235.57038521335926 78.41424456622917,233.38015896374418 74.97832869592821,233.6201853157254 70.51558739307802,232.99011532419536 69.58749517524848,233.26014564406069 68.67914960038615,235.2103502140235 67.83004395430908,235.78040523128584 67.21789802337298,238.5706433299929 69.03458917315584,250.4210773458908 68.87661602970911,260.68069840855605 71.18697325285757,267.4600636991818 68.4816831710632,268.0 67.6128308820189,265.7502526167664 65.46044680231716,255.34098303303472 63.07110300747445,250.5410769617738 63.7622355101048,250.0010779355507 65.44070015940815,249.8510778616328 68.77788281504763,250.48107716582308 67.88928388309432,241.99086451975745" stroke="#4dd2ff" stroke-linecap="round" stroke-linejoin="round" stroke-width="0.5"><title>2021-11-07 3.5km</title></polyline><polyline fill="none" points="136.78758294967702,232.0 135.87202405463904,232.06710861729516 133.05835525516886,235.3218450233253 131.07092253182782,234.65077040923643 128.10093879903434,239.11336724078865 128.23492302763043,240.32126820950361 124.81832519971067,242.53573121393856 120.19586931494996,246.69616010712343 114.94815369689604,253.60761717348942 113.80928775429493,256.5264498217002 110.34802851692075,261.4581575854827 110.01306794560514,262.76654603803763 110.39268992649158,264.4439525244379 111.88884714519372,266.490366213402 114.61319312558044,267.7316216316249 116.86859430605546,268.0 114.30056325899204,267.7987162631907 111.39757164049661,265.95360433030874 110.437351335946,264.67878812286654 109.87908371700905,262.8671908900724 110.16938287887024,261.6259002528823 113.83161845913855,256.69419731447124 114.09958691615611,254.84896586717514 117.56084615353029,249.91706797228835 120.70947552431608,246.15933624605532 128.12326950387796,239.98574101629492 130.8922768936609,234.51655517113977 131.47287521738326,234.34878597571515 133.03602455044165,235.45605963082926 136.09533110220218,232.10066291609837 136.6089373116265,232.06710861729516 136.22931533079827,232.40265131002525" stroke="#4dd2ff" stroke-linecap="round" stroke-linejoin="round" stroke-width="0.5"><title>2016-05-06 3.5km</title></polyline></svg>