<?xml version="1.0" encoding="utf-8" ?>
<svg baseProfile="full" height="300mm" version="1.1" viewBox="0,0,200,300" width="200mm" xmlns="http://www.w3.org/2000/svg" xmlns:ev="http://www.w3.org/2001/xml-events" xmlns:xlink="http://www.w3.org/1999/xlink"><defs /><rect fill="#222222" height="300" width="200" x="0" y="0" /><text fill="#FFFFFF" style="font-size:12px; font-family:Arial; font-weight:bold;" x="10" y="20">Over 3kms Workouts</text><text fill="#FFFFFF" style="font-size:4px; font-family:Arial" x="10" y="280">ATHLETE</text><text fill="#FFFFFF" style="font-size:9px; font-family:Arial" x="10" y="290">underwindfall</text><text fill="#FFFFFF" style="font-size:4px; font-family:Arial" x="120" y="280">STATISTICS</text><text fill="#FFFFFF" style="font-size:3px; font-family:Arial" x="120" y="285">Number: 15</text><text fill="#FFFFFF" style="font-size:3px; font-family:Arial" x="120" y="290">Weekly: 1.7</text><text fill="#FFFFFF" style="font-size:3px; font-family:Arial" x="141" y="285">Total: 55.8 km</text><text fill="#FFFFFF" style="font-size:3px; font-family:Arial" x="141" y="290">Avg: 3.7 km</text><text fill="#FFFFFF" style="font-size:3px; font-family:Arial" x="167" y="285">Min: 3.0 km</text><text fill="#FFFFFF" style="font-size:3px; font-family:Arial" x="167" y="290">Max: 5.2 km</text><polyline fill="none" points="12.399999999906868,45.956652157066856 13.477114870911464,47.68696786969667 15.015850400784984,50.773457800387405 15.592876224545762,52.223164284892846 15.977560106664896,53.71962980751414 16.323775601107627,54.51462476645247 16.59305431880057,55.63696781519684 17.20854853070341,56.99312799659674 17.439358860254288,57.78811624192167 18.016384684015065,59.05074128013803 18.47800534288399,60.219834870891646 20.516829920001328,64.52206892205868 20.555298308143392,64.75588462196174 20.516829920001328,65.17675252648769 20.86304541421123,66.06524993554922 20.78610863769427,66.71993093378842 20.939982190495357,66.953745308012 21.093855743762106,66.953745308012 21.97862867335789,66.48611641838215 23.248085485305637,65.55085694699665 23.51736420323141,65.2235155988601 23.825111309066415,64.709121493157 24.094390026526526,64.47530576513964 25.440783615224063,63.633567976008635 26.59483526274562,62.698301622091094 28.672128228005022,61.34216140076751 29.287622439907864,60.87452574149938 30.2878005343955,60.266598541114945 31.63419412309304,59.19103269727202 33.94229741767049,57.507532341522165 34.55779162957333,56.946363931463566 36.44274265365675,55.44991086606751 37.327515583485365,54.88873947717366 37.86607301887125,54.60815347812604 40.02030276041478,52.92463321791729 42.2514692787081,51.3346351471846 46.0983081033919,48.34167990874266 47.44470169185661,47.35961143532768 48.175601068651304,46.938724185019964 51.56081923423335,44.31985991410329 52.25325022265315,43.89896936304285 53.75351736438461,42.589529170130845 54.86910062353127,41.84127564512892 55.48459483520128,41.28008455343661 55.60000000009313,41.09302067547105 55.369189670542255,41.046254691988 55.40765805891715,41.18655262567336 55.33072128240019,41.28008455343661 53.44577025831677,42.823358100577025 52.637934105005115,43.43131265914417 51.79162956378423,43.94573500243132 45.790560997324064,48.62227044402971 43.17471059667878,50.446103972848505 41.28975957259536,51.89581168157747 39.7894924308639,53.158455913478974 38.21228851308115,54.18727409848361 36.71202137134969,55.44991086606751 34.55779162957333,56.89959986056783 33.98076580581255,57.4140043296793 33.09599287621677,57.975172062724596 32.51896705245599,58.48957510420587 29.287622439907864,60.87452574149938 28.210507569136098,61.71626952185761" stroke="#4dd2ff" stroke-linecap="round" stroke-linejoin="round" stroke-width="0.5"><title>2022-06-17 3.0km</title></polyline><polyline fill="none" points="102.99177003279328,32.40000000000873 102.70165899931453,32.532260485197185 102.5928673617309,32.532260485197185 102.1395688719349,32.70860764973622 101.9945133550791,32.73065103337285 101.57747874443885,33.01721477819956 101.39615934866015,33.083344809303526 101.19670801318716,33.01721477819956 100.79780534200836,33.23764812218724 100.72527758369688,33.32582138526777 100.32637491263449,33.458081200151355 100.21758327516727,33.546254356828285 99.90934030211065,33.6123841964727 99.546701510204,33.7666870624671 99.43790987262037,33.7666870624671 99.20219465799164,33.9871195020678 98.8939516848186,34.07529240351869 98.73076422850136,34.2075516757468 98.386257376289,34.38389722320426 98.13241022196598,34.60432891806704 97.91482694679871,34.758630946234916 97.479660396697,34.89088972379977 96.80877863173373,35.30970855435589 96.3736120815156,35.50809608634154 96.28295238350984,35.50809608634154 96.1016329874983,35.59626825363375 95.95657747087535,35.706483402944286 95.86591777286958,35.83874149431358 95.86591777286958,35.99304247988039 95.97470941045322,36.21347223315388 96.1016329874983,36.65433094187756 96.19229268550407,36.764545452810125 96.40987596055493,37.27153134676337 96.51866759813856,37.44787393664592 96.60932729614433,37.80055860565335 96.66372311499435,37.84464414147078 96.6999869941501,38.04302892074338 96.93570220877882,38.37366974077304 97.00822996720672,38.66022463417903 97.18954936310183,38.968821708956966 97.18954936310183,39.01290696283104 97.29834100068547,39.18924787189462 97.35273681941908,39.40967376877961 97.44339651742484,39.58601429486589 97.49779233615845,39.82848224029294 97.57032009458635,39.89460980590957 97.78790336975362,40.29137469705893 97.53405621543061,40.40158701388282 97.35273681941908,40.42362946931098 96.97196608805098,40.53384170634672 96.57306341698859,40.776308393862564 95.79339001444168,41.08490189439908 94.85052915569395,41.59187579940772 94.6148139409488,41.6580027268501 94.19777933030855,41.878425645205425 93.50876562576741,42.09884829771181 93.25491847156081,42.27518622824573 93.16425877355505,42.473566196567845 93.03733519639354,42.539692804872175 93.03733519639354,42.71603030990809 93.0735990756657,42.84828332695179 93.14612683397718,42.870325487165246 93.25491847156081,42.98053624830209 93.30931429029442,43.26708391608554 93.38184204872232,43.37729443790158 93.56316144461744,43.862219944028766 93.72634890093468,44.126724223126075 93.78074471966829,44.369186142488616 93.94393217610195,44.72185745094612 93.94393217610195,44.8100251716387 94.05272381368559,44.96431858053256 93.96206411567982,45.11861185914313 93.87140441767406,45.11861185914313 93.38184204872232,45.29494687523402 93.25491847156081,45.40515617375786 93.16425877355505,45.427198025528924 93.0735990756657,45.58149091324594 93.09173101524357,45.735783670665114 93.16425877355505,45.82395090213686 93.16425877355505,46.04436879466812 93.34557816945016,46.37499513482908 93.34557816945016,46.4190786016261 93.29118235071655,46.5072455033951 92.81975192134269,46.7056208767317 92.47524506913032,46.79378764021385 92.05821045849007,47.08032932765491 91.74996748531703,47.19053754924971 91.65930778742768,47.25666245039611 91.49612033099402,47.49912021630735 91.56864808942191,47.69749451277312 91.64117584784981,47.785660797555465 91.73183554585557,48.16036703354621 91.94941882090643,48.62323838174052 92.02194657921791,48.82161145780992 92.38458537112456,49.50489484882564 92.45711312955245,49.63714295189129 92.4933770087082,49.63714295189129 92.58403670659754,49.769390959336306 92.69282834418118,50.01184539096721 92.87414774019271,50.14409312719363 92.96480743808206,50.32042329327669 93.01920325681567,50.36450580814562 93.12799489439931,50.40858831243531 93.23678653198294,50.49675328913145 93.30931429029442,50.518794526622514 93.63568920304533,50.80533037245914 93.83514053851832,50.8714539653447 94.14338351157494,51.20207157100958 94.45162648463156,51.40044184717408 94.63294588064309,51.5988119081303 94.79613333696034,51.66493521393568 94.90492497442756,51.775140670361 94.92305691400543,51.88534606032772 95.2131679476006,52.061674545984715 95.53954286023509,52.39228999806801 96.01097328960896,52.59065898216795 96.30108432308771,52.766986787260976 96.21042462508194,53.16372372652404 96.26482044393197,53.27392827902804 96.77251475246157,53.62658240033488 96.86317445046734,53.71474582432711 96.86317445046734,53.84699088058551 96.82691057119519,53.82495004447992 97.20768130279612,54.39801091791014 97.31647294026334,54.508214725981816 97.46152845700271,54.508214725981816 97.53405621543061,54.57433697889792 97.55218815500848,54.662499945625314 97.87856306764297,55.12535482298699 98.15054216154385,55.43392408984073 98.4406531950226,55.87473642428813 98.73076422850136,56.29350715714099 98.83955586596858,56.38166929438012 99.36538211419247,57.10900530368963 99.76428478525486,57.57185398416186 99.81868060410488,57.70409624892636 99.8730764228385,57.748176982597215 100.10879163758364,57.72613661711512 100.27197909390088,57.990620827666135 100.09065969788935,58.100822469146806 99.78241672483273,58.431426994648064 98.1868060406996,59.55547790751734 98.09614634281024,59.643638471039594 96.77251475246157,60.67952190627693 96.55493147741072,60.94400184231927 96.15602880634833,61.58316010754788 95.5939386789687,62.26639578100003 95.52141092065722,62.39863464857626 95.30382764560636,62.61903254856588 95.19503600802273,62.86146993149305 95.2131679476006,62.83943018267746 93.96206411567982,64.69075981561036 93.70821696147323,65.17562876312877 93.30931429029442,65.70457523867663 93.05546713597141,66.10128409061872 92.92854355892632,66.23352018326113 92.74722416291479,66.58614929579198 92.36645343154669,67.04897397341847 92.23952985438518,67.26936626511451 92.07634239806794,67.37956231126736 91.8406271833228,67.7101500511344 91.49612033099402,67.9305415454437 91.0609537808923,68.43744097383751 90.68018304940779,68.85618291943683 90.62578723055776,68.9884170187288 90.2087526199175,69.42919665866066 90.13622486172244,69.53939140253351 90.11809292202815,69.60550821699144 89.66479443223216,70.09036412528076 88.5950099962065,71.50084672667435 88.25050314399414,71.89754299703054 87.96039211051539,72.29423840633535 87.92412823135965,72.4044314227649 87.34390616440214,73.10966515478503 87.28951034566853,73.24189617657976 87.27137840597425,73.3080116516503 87.12632288923487,73.50635793316178 87.09005901019555,73.63858866790542 87.1807187080849,73.79285773765878 87.21698258724064,73.96916508646973 86.99939931218978,74.21158741324325 86.94500349333975,74.32177927375596 86.79994797660038,74.49808611226035 86.94500349333975,74.65235445646977 87.03566319134552,74.63031612956547 87.07192707050126,74.67439278068196 87.108190949657,74.7845843621617 87.21698258724064,74.93885246456193 87.07192707050126,75.02700560748053 86.85434379533399,75.33554127285606 86.96313543291762,75.2914647811267 87.09005901019555,75.40165599045577 87.43456586229149,75.60000000000582 87.61588525830302,75.3135030282865 88.10544762725476,74.7845843621617 88.28676702314988,74.63031612956547 88.39555866073351,74.43197106775187 88.52248223789502,74.07935709299636 88.68566969421227,73.74878087389516 89.01204460684676,73.3741271027393 89.28402370074764,73.13170366508712 89.48347503622063,72.86724136637349 89.71919025108218,72.49258578811714 89.73732219066005,72.36035422414716 89.80984994897153,72.20608394533338 90.46259977435693,71.34657572236028 90.7345788681414,70.92783948269789 90.87963438499719,70.83968436263967 91.85875912290066,69.51735245906457 92.85601580049843,68.283167383619 93.09173101524357,67.9305415454437 93.20052265271079,67.73218921254738 93.38184204872232,67.5558758469706 94.2340432095807,66.47595277121582 94.34283484716434,66.29963819365366 94.30657096789218,66.21148084114247 94.2340432095807,66.12332344606693 93.92580023640767,65.85885100567248 93.79887665936258,65.68253583279147 93.72634890093468,65.68253583279147 93.47250174661167,65.88089039029728 93.43623786745593,65.81477222839021 93.70821696147323,65.52825991692953 93.87140441767406,65.24174715632398 94.16151545115281,64.86707594535255 94.25217514915857,64.66872028747457 94.36096678674221,64.55852260664687 94.4878903637873,64.31608747504652 94.74173751811031,63.985493595479056 94.77800139738247,63.83121624701016 94.81426527653821,63.83121624701016 94.85052915569395,63.72101806123101 94.85052915569395,63.78713698069623 94.86866109527182,63.632859464793 95.0137166120112,63.50062149032601 95.50327898107935,62.79535067711549 95.48514704138506,62.751271160974284 95.55767479981296,62.530873420473654 95.81152195413597,62.112116981239524 95.95657747087535,62.00191775888379 96.6274592357222,60.96604181974544 96.68185505457222,60.855841906159185 96.80877863173373,60.701561915528146 97.09888966521248,60.459121667125146 98.3137296178611,59.643638471039594 99.07527108083013,59.0265136333328 99.36538211419247,58.894272325575 99.76428478525486,58.519588100520195 100.09065969788935,58.29918525616813 100.18131939589512,58.21102404411067 100.7796734025469,57.81429806318192 101.46868710697163,57.263288327434566 101.8131939593004,57.0428839680244 101.84945783845615,56.9767626082903 102.08517305308487,56.84451981711027 102.35715214698575,56.60207445146807 103.11869360995479,56.09514219281846 103.19122136826627,55.98493934182625 103.71704761649016,55.63228977192193 103.88023507280741,55.47800537110015 104.2791377438698,55.191476852531196 106.01980394462589,53.869031713940785 106.32804691779893,53.670664117657 106.40057467611041,53.58250067240442 106.61815795127768,53.45025542473013 107.08958838076796,53.07556003671198 107.81486596434843,52.56861799453327 108.21376863541082,52.21596183143265 109.5192682860652,51.29023616477207 110.60718466166873,50.40858831243531 110.6797124199802,50.38654706160014 111.24180254735984,49.94572148694715 111.42312194325496,49.835514927108306 111.67696909757797,49.59306026154081 112.00334401032887,49.3946880230651 112.13026758737396,49.218356963654514 112.51103831885848,48.90977720016963 112.8192812919151,48.79957001552975 112.96433680865448,48.57915544677235 113.20005202339962,48.40282360035053 113.18192008382175,48.18240855293698" stroke="#4dd2ff" stroke-linecap="round" stroke-linejoin="round" stroke-width="0.5"><title>2022-06-14 5.2km</title></polyline><polyline fill="none" points="181.41166908747982,32.40000000000873 181.0385051870835,32.43779958409141 180.93899481371045,32.4755991606653 180.88923962693661,32.777995500786346 180.3916877596639,33.04259190222365 179.62048236548435,32.777995500786346 179.14780809159856,33.193789679789916 178.32684751064517,33.23158910551865 177.65515248989686,33.420586120017106 177.48100933636306,33.60958294584998 177.15760062268237,33.72298095085716 176.66004875540966,34.17657229132601 176.51078319532098,34.6301625452179 176.31176244840026,34.85695726465201 174.8688620334724,34.93255544400017 174.5703309130622,34.70576081519539 174.12253423262155,34.554564245045185 173.97326867241645,34.51676508368109 173.77424792555394,34.6301625452179 173.67473755212268,34.6301625452179 173.62498236534884,34.78135905502131 173.62498236534884,35.08375171228545 173.42596161848633,35.61293770046905 173.2269408715656,35.72633450543799 172.67963381763548,36.48231146983744 172.48061307071475,36.59570775410975 171.7094076765352,36.59570775410975 171.16210062254686,36.557909000242944 170.61479356861673,36.142122209319496 170.31626244826475,35.764133425444015 169.79383298766334,35.46174185471318 169.246525933675,35.27274687791942 168.87336203327868,35.27274687791942 167.92801348562352,35.159349801178905 167.33095124491956,34.9703545224329 167.13193049799884,35.04595265656826 166.63437863072613,34.85695726465201 166.0621939834091,34.78135905502131 165.7387852697284,34.66796168393921 165.44025414943462,34.66796168393921 165.04221265565138,34.4411667381064 164.39539522817358,34.403367554128636 164.221252074698,34.51676508368109 164.14661929459544,34.51676508368109 164.14661929459544,34.36556836255477 163.79833298752783,34.2521707425185 163.49980186723405,34.327769163341145 163.27590352698462,34.47896591476456 163.05200518667698,34.554564245045185 162.4051877592574,34.100973810011055 161.60910477174912,33.87417818506947 161.03692012443207,33.76078027069161 160.21595954347868,33.76078027069161 159.9174284231849,33.64738228832721 159.37012136919657,33.60958294584998 158.84769190865336,33.45838550022745 158.2506296679494,33.45838550022745 156.85748443967896,33.26938852346211 156.35993257246446,33.49618487301632 155.81262551847612,33.911977474723244 155.73799273837358,34.138773054481135 155.63848236494232,34.78135905502131 155.48921680473723,35.197148834340624 155.36482883797726,35.877530139754526 155.4145840247511,35.8397312425368 154.9419097508653,35.99092678636953 154.29509232344572,36.02872565349389 154.31996991677443,36.52011023889645 154.2453371367883,36.6713052392588 154.2453371367883,36.86029881998547 154.17070435668575,37.20048678993771 153.89705082960427,37.9942563426448 153.89705082960427,38.410039066002355 153.72290767607046,38.86361917712202 153.49900933593744,39.73297801971785 153.4492541491636,40.26215101295384 153.32486618240364,40.829120435679215 153.2999885889585,41.47168372903252 153.2502334023011,41.84966111811809 153.02633506199345,42.68120871798601 152.9517022818909,43.43715791213617 152.85219190845964,43.73953674486256 152.7526815350866,44.45768453665369 152.65317116153892,44.76006173939095 152.50390560145024,44.98684432450682 152.40439522790257,45.44040867964213 152.20537448104005,45.85617505077971 152.15561929438263,46.271940509046544 151.65806742716813,48.35075410468562 151.5834346470656,48.76651408489852 151.5834346470656,49.18227315209515 151.73270020715427,49.52243898260349 151.85708817403065,50.27836086216848 151.9068433608045,50.61852472333703 151.85708817403065,51.261054793794756 151.83221058070194,51.48782959218079 151.55855705362046,52.357130469652475 151.18539315328235,53.22642735588306 151.06100518640596,53.71776730877173 150.7624740661122,54.39808206161251 150.7873516594409,54.51146761617565 150.71271887933835,55.15398447561893 150.7873516594409,55.68311436979275 150.7873516594409,55.834294067986775 150.8122292527696,55.9476787623571 150.83710684621474,56.62798550292791 150.6132085059071,57.043727307842346 150.58833091257839,57.27049518028798 150.66296369268093,57.610646479559364 150.66296369268093,57.799619159675785 150.8122292527696,58.32874166039983 150.9614948129747,58.97124556622293 150.98637240630342,59.27359959107707 151.0858827798511,59.6137472918781 151.03612759307725,59.80271797270689 151.1107603731798,60.18065876857145 151.1107603731798,61.42785804266168 151.16051555995364,61.881383014668245 151.33465871342923,62.37270050836378 151.38441390014486,63.16636453573301 151.4341690868605,63.27974483957223 151.4590466801892,63.65767869517731 151.4839242735179,64.79147573595401 151.5834346470656,65.13161352431052 151.5834346470656,65.39616471498448 151.88196576735936,66.41657298820792 152.1307417009957,67.89048634143546 152.23025207436876,68.15503367755446 152.2551296678139,68.34399583419145 152.37951763457386,68.5707501732686 152.67804875498405,69.85568629867339 152.80243672174402,70.1580229432584 152.90194709517527,70.83827862881299 152.9765798752196,71.06502998081851 153.02633506199345,71.51853187030065 153.17560062219854,72.04761603525549 153.20047821552726,72.27436593917082 153.4492541491636,73.10577993025072 153.54876452259487,73.97498156303482 153.69803008274175,74.42847648327006 153.87217323627556,74.80638808706135 154.07119398313807,75.4866270731145 154.22045954334317,75.60000000000582 154.51899066369515,75.52441805644776 154.4194802902639,75.41104508431454 154.19558195001446,74.3906852814689 154.0960715765832,74.23952039847791 153.82241804961814,73.40811138555 153.72290767607046,72.50111557153286 153.57364211598178,72.19878266804153 153.52388692926615,71.78307413758012 153.34974377573235,71.40515649977897 153.2751109956298,70.98944622697309 153.20047821552726,70.76269478433824 153.20047821552726,70.64931896123744 153.0760902487673,70.19581498988555 152.90194709517527,69.8178941840888 152.70292634831276,69.175427083057 152.67804875498405,68.79750424069061 152.6034159748815,68.53295780223561 152.4541504146764,68.26841099413286 152.3048848544713,67.89048634143546 152.32976244791644,67.62593863562506 152.2800072611426,67.36139056028333 152.32976244791644,67.24801270051103 152.2800072611426,66.79450058283692 152.32976244791644,66.56774411658989 152.32976244791644,66.11423036950873 152.35464004124515,65.73630141708418 152.2551296678139,65.32057869822893 152.2551296678139,65.16940657413215 152.3048848544713,65.09382046683459 153.17560062219854,64.75368261062249 153.64827489602612,64.75368261062249 153.67315248941304,64.71588947779674 154.04631638980936,64.64030318942969 155.16580809111474,64.67809633734578 155.2404408712173,64.56471687091107 155.19068568444345,64.5269237003813 155.2404408712173,64.2623712951754 155.21556327777216,64.07340506507899 155.14093049772782,63.77105870482046 155.04142012429656,63.582091984470026 154.9170321575366,62.52387486524822 154.9419097508653,61.881383014668245 154.96678734419402,61.65462066445616 154.9170321575366,61.125507457967615 155.04142012429656,59.50036479279515 155.01654253096785,58.93345127918292 155.1160529043991,56.930343269734294 155.0911753110122,56.74136972212 155.0911753110122,55.267369577486534 154.99166493763914,54.7382385214587 154.9419097508653,54.43587725395628 154.86727697076276,53.302018200891325 154.89215456409147,52.9240636741888 154.7677665973315,51.979174056861666 154.7428890040028,51.14766729269468 154.4692354769213,49.29566183027055 154.4443578835926,48.72871776075044 154.36972510354826,48.42634689620172 154.36972510354826,48.199568430980435 154.2453371367883,47.44363825159962 154.0960715765832,47.14126533472154 153.99656120315194,46.34753413053113 153.99656120315194,45.78058123314986 153.89705082960427,45.32701769271807 153.7726628628443,45.13803256351093 153.797540456173,44.911250159551855 153.67315248941304,44.45768453665369 153.52388692926615,43.021386228938354 153.5985197093105,42.98358875793929 153.52388692926615,42.454423371193116 153.32486618240364,41.81186341318244 153.2751109956298,41.24489693331998 153.32486618240364,41.09370558527007 153.2999885889585,40.26215101295384 153.39949896238977,39.166005314400536 153.47413174249232,38.712425927544245 153.89705082960427,37.46507701060909 153.9219284230494,37.23828541560215 153.84729564294685,36.52011023889645 154.02143879648065,36.406713909236714 154.02143879648065,36.33111631842621 154.17070435668575,35.95312791176548 154.31996991677443,35.764133425444015 154.6185010371264,35.72633450543799 155.0911753110122,35.877530139754526 155.06629771762528,35.91532902952167 155.51409439818235,35.61293770046905 155.53897199151106,35.04595265656826 155.66335995838745,34.403367554128636 155.68823755171616,34.138773054481135 155.7877479251474,33.87417818506947 156.2604221990332,33.53398423813633 156.65846369281644,33.30718793388223 156.9321172197815,33.26938852346211 159.04671265545767,33.53398423813633 159.51938692940166,33.64738228832721 161.83300311205676,33.836378887761384 162.28079979249742,33.94977675691189 162.77835165971192,34.17657229132601 163.22614834021078,34.02537529858819 163.64906742732273,34.02537529858819 164.19637448136928,34.17657229132601 164.47002800827613,34.100973810011055 165.19147821579827,34.17657229132601 165.44025414943462,34.17657229132601 165.58951970963972,34.17657229132601 165.83829564321786,34.36556836255477 166.385602697148,34.327769163341145 167.52997199178208,34.403367554128636 168.20166701253038,34.592363398871385 168.52507572626928,34.78135905502131 169.27140352712013,34.89475635807321 169.66944502090337,35.08375171228545 170.0426089212997,35.34834489124478 170.19187448150478,35.61293770046905 170.34114004165167,35.68853557793773 170.51528319518548,35.877530139754526 170.83869190892437,36.142122209319496 171.13722302921815,36.2933175117505 171.7342852698639,36.33111631842621 171.80891804996645,36.48231146983744 172.7293890042929,36.52011023889645 172.97816493792925,36.59570775410975 173.0776753113605,36.709103970453725 173.45083921181504,37.049292212177534 174.0727790458477,37.3516812469461 174.29667738609714,37.540674148724065 174.91861722018803,37.72966686161817 175.31665871391306,38.03205480991164 175.34153630735818,37.9942563426448 175.61518983432325,38.03205480991164 175.93859854800394,37.6918683340773 176.0381089214352,37.72966686161817 176.2371296682977,37.38947984253173 176.212252074969,36.93589619947306 176.08786410820903,36.6713052392588 176.11274170153774,36.52011023889645 176.212252074969,36.44451269324054 176.6849263488548,36.48231146983744 177.0083350625937,36.406713909236714 177.63027489656815,36.10432336493977 178.25221473054262,36.142122209319496 178.30196991731646,36.0665245129785 178.97366493806476,36.21771987559623 178.97366493806476,35.95312791176548 179.44633921200875,35.61293770046905 179.49609439866617,35.38614388667338 179.5209719920531,34.592363398871385 179.42146161862183,34.78135905502131 179.29707365180366,34.85695726465201 179.29707365180366,34.78135905502131 179.14780809159856,34.89475635807321" stroke="#4dd2ff" stroke-linecap="round" stroke-linejoin="round" stroke-width="0.5"><title>2022-05-13 4.4km</title></polyline><polyline fill="none" points="47.118038010085,80.40000000002328 42.229606751701795,81.28585932805436 45.23442229581997,95.25487550123944 43.126566615654156,96.54953585521434 39.49387916654814,93.7557889559539 38.058743384317495,94.91417459174409 39.49387916654814,120.46579909996944 36.3545196428895,122.0329031473666 27.878248928580433,123.60000000000582 26.57765712600667,117.39970515383175 26.712201105430722,106.4296768141212 20.881961989915,105.74829696450615 21.106201955815777,113.72035606234567 22.765577704180032,115.7644437874842 24.200713486527093,115.96885188686429 25.860089234774932,114.81053770580911 26.398265153053217,107.7242947811319 23.30375362257473,106.36153889042907 21.330441921949387,108.06498290359741 21.285593928652816,114.26544731942704 22.855273690540344,115.83257983427029 24.33525746606756,115.96885188686429 25.591001275577582,115.83257983427029 26.08432920067571,114.53799262153916 26.218873180332594,107.58801943689468 24.02132151380647,106.22526300209574 21.285593928652816,107.58801943689468 21.106201955815777,114.06103820016142 22.451641751802526,115.56003556589712 25.591001275577582,115.69630772731034 26.30856916680932,110.92674970740336 26.039481207495555,107.24733083834872 24.738889404805377,106.36153889042907 22.13770579942502,106.90664189972449 21.599529880913906,115.15121875546174 23.30375362257473,116.10512388503412 25.770393248298205,115.56003556589712 26.174025187152438,110.31351598366746 26.039481207495555,114.81053770580911" stroke="#4dd2ff" stroke-linecap="round" stroke-linejoin="round" stroke-width="0.5"><title>2022-05-04 3.1km</title></polyline><polyline fill="none" points="112.78187932434957,80.93668003333732 112.9584856017027,80.39999999999418 112.34036363090854,81.13793482477195 113.17924344853964,80.93668003333732 112.60527304699644,81.47335920963087 111.01581655070186,81.60752886952832 109.77957260922994,82.01003752846736 107.92520669673104,81.87586802910664 108.41087395965587,82.2112916772021 108.14596454356797,82.88213796861237 108.67578337551095,83.35172957566101 108.49917709827423,83.95548924917239 108.63163180625997,84.76050045905868 108.98484436108265,85.36425760114798 109.29390534653794,86.6388524491922 109.29390534653794,87.3096899005759 109.64711790112779,87.84635889760102 110.00033045583405,89.18802763987333 110.35354301065672,91.4688522068318 110.30939144117292,92.07259729475481 110.35354301065672,94.2192377106112 110.48599771875888,94.95714218635112 110.9275134120835,95.56088100647321 110.13278516381979,96.70127359576873 108.8082380836131,96.83543717541033 108.45502552890684,96.36586441250984 108.01350983558223,95.89629099337617 106.95387217134703,95.15838858022471 106.33575020055287,94.95714218635112 105.27611253620125,94.15215540523059 104.52553585742135,94.08507308654953 104.08402016409673,94.68881347359275 103.86326231737621,95.29255277570337 103.9515654562274,96.63419178582262 104.34892958018463,97.90874388365773 104.3930811494356,98.64664025680395 104.34892958018463,100.65907667472493 104.3930811494356,102.00069425738184 104.56968742690515,103.40938695395016 104.3930811494356,105.55595494518639 104.52553585742135,106.22675463030464 104.52553585742135,106.96463273698464 104.21647487208247,107.5012703424436 104.12817173346411,108.77578122037812 104.4372327189194,109.98320811946178 104.48138428817037,110.65399896627059 104.61383899627253,111.39186735122348 104.52553585742135,112.66636347238091 104.79044527350925,114.00793311448069 105.01120312034618,115.55073158131563 105.36441567505244,116.82521192866261 105.40856724430341,117.56306676231907 105.76177979912609,118.90461685464834 105.27611253620125,120.44739283958916 104.6579905655235,120.98400891319034 104.12817173346411,121.25231662846636 103.46589819330256,121.52062412971281 102.80362465325743,121.58770097146044 102.18550268246327,121.92308497976046 100.06622735399287,122.19139194546733 97.19637534685899,122.72800523383194 96.48995023733005,123.06338810414309 95.78352512780111,123.197541158268 94.45897804759443,123.60000000000582 93.7967045075493,123.46584710630123 93.48764352221042,122.8621584220964 93.26688567537349,121.45354727451922 92.95782469003461,120.84985497512389 92.69291527394671,119.37415812155814 92.69291527394671,118.63630726476549 92.56046056607738,117.42891145861358 92.64876370457932,116.75813413609285 92.86952155141626,112.73344208177878 93.001976259402,112.12973411584971 93.04612782876939,110.78815697497339 92.86952155141626,109.98320811946178 92.86952155141626,109.3124159333529 92.7370668433141,108.64162240820588 92.91367312066723,107.23295164684532 92.69291527394671,106.62923379856511 92.03064173390158,106.49507412922685 90.48533680697437,106.025514865265 89.82306326681282,105.95843491677078 88.41021304775495,105.75719499142724 87.61548479972407,105.75719499142724 86.95321125967894,105.89135495506343 86.95321125967894,107.09879221883602 86.86490812082775,107.83666841057129 86.82075655157678,108.5074635426572 86.90905969019514,109.78197060435195 86.82075655157678,111.1235517624882 87.35057538363617,111.59310390218161 87.26227224501781,113.0688349272823 87.12981753691565,113.806698009721 87.70378793845885,115.014106831135 88.8075771718286,115.75196564165526 90.17627582140267,116.02027753478615 91.41251976310741,115.41657547422801 91.80988388706464,114.87995050946483 92.03064173390158,114.27624640020076 92.11894487263635,110.45276185270632 92.33970271924045,108.57454298218363 92.33970271924045,107.90374798391713 92.03064173390158,107.36711102144909 91.41251976310741,106.89755297609372 90.79439779231325,106.62923379856511 89.3373960040044,106.49507412922685 88.63097089459188,106.76339341400308 88.05700049304869,107.09879221883602 87.61548479972407,107.63542960988707 87.35057538363617,108.17206614391762 87.26227224501781,109.51365372969303 87.35057538363617,110.18444551408174 87.30642381426878,111.45894621490152 87.21812067553401,112.80052067758515 87.35057538363617,114.27624640020076 87.70378793845885,114.87995050946483 88.27775833988562,115.4836535344657 88.89588031067979,115.8861216152145 90.30873052950483,116.02027753478615 91.54497447109316,115.81904363512876 91.85403545654844,115.2824193132401 92.07479330315255,114.54455947168753 92.20724801113829,113.806698009721 92.20724801113829,112.33097022495349 92.29555114998948,111.66018272581277 92.25139958050568,111.05647283149301 92.33970271924045,110.45276185270632 92.29555114998948,108.37330462317914 92.16309644188732,107.76958882377949 91.80988388706464,107.16587193956366 90.70609465357848,106.49507412922685 89.99966954404954,106.4279942746216 88.14530363178346,106.69631361294887 87.35057538363617,107.7025092234835 87.26227224501781,108.57454298218363 87.35057538363617,111.45894621490152 87.26227224501781,112.19681283220416 87.35057538363617,112.93467782950029 87.21812067553401,113.53838434905629 87.12981753691565,114.14208978414536 87.48303009162191,114.6787159270898 87.88039421569556,115.14826309907949 88.45436461723875,115.55073158131563 89.0724865879165,115.95319958170876 89.69060855871066,116.0873554747086 90.35288209898863,116.02027753478615 90.97100406966638,116.0873554747086 91.54497447109316,115.75196564165526 92.11894487263635,114.47748122378835 92.29555114998948,110.9893938874884 92.11894487263635,108.03790709088207 91.98649016453419,107.43419068853837 91.41251976310741,106.96463273698464 90.70609465357848,106.56215397044434 89.38154757337179,106.4279942746216 88.71927403332666,106.56215397044434 88.18945520115085,107.09879221883602 87.70378793845885,107.63542960988707 87.52718166110571,108.37330462317914 87.39472695300356,109.78197060435195 87.43887852237094,110.45276185270632 87.30642381426878,111.79434033267898 87.30642381426878,112.53220621371293 87.21812067553401,113.20299197203713 87.39472695300356,114.54455947168753 87.65963636897504,115.21534121283912 88.67512246384285,116.0873554747086 89.3373960040044,116.15443340101046 91.28006505512167,116.02027753478615 91.72158074844629,115.61780961495242 91.94233859505039,114.94702867700835 92.07479330315255,113.53838434905629 92.11894487263635,112.93467782950029 92.03064173390158,112.33097022495349 92.25139958050568,111.72726153579424 92.16309644188732,110.38568278815364 92.20724801113829,111.05647283149301 92.33970271924045,111.66018272581277 92.38385428849142,113.60546278420952 92.29555114998948,114.20916809875052 92.03064173390158,114.81287232870818" stroke="#4dd2ff" stroke-linecap="round" stroke-linejoin="round" stroke-width="0.5"><title>2022-05-04 3.2km</title></polyline><polyline fill="none" points="178.78187932434957,80.93668003333732 178.9584856017027,80.39999999999418 178.34036363090854,81.13793482477195 179.17924344853964,80.93668003333732 178.60527304699644,81.47335920963087 177.01581655070186,81.60752886952832 175.77957260922994,82.01003752846736 173.92520669673104,81.87586802910664 174.41087395965587,82.2112916772021 174.14596454356797,82.88213796861237 174.67578337551095,83.35172957566101 174.49917709827423,83.95548924917239 174.63163180625997,84.76050045905868 174.98484436108265,85.36425760114798 175.29390534653794,86.6388524491922 175.29390534653794,87.3096899005759 175.64711790112779,87.84635889760102 176.00033045583405,89.18802763987333 176.35354301065672,91.4688522068318 176.30939144117292,92.07259729475481 176.35354301065672,94.2192377106112 176.48599771875888,94.95714218635112 176.9275134120835,95.56088100647321 176.1327851638198,96.70127359576873 174.8082380836131,96.83543717541033 174.45502552890684,96.36586441250984 174.01350983558223,95.89629099337617 172.95387217134703,95.15838858022471 172.33575020055287,94.95714218635112 171.27611253620125,94.15215540523059 170.52553585742135,94.08507308654953 170.08402016409673,94.68881347359275 169.8632623173762,95.29255277570337 169.9515654562274,96.63419178582262 170.34892958018463,97.90874388365773 170.3930811494356,98.64664025680395 170.34892958018463,100.65907667472493 170.3930811494356,102.00069425738184 170.56968742690515,103.40938695395016 170.3930811494356,105.55595494518639 170.52553585742135,106.22675463030464 170.52553585742135,106.96463273698464 170.21647487208247,107.5012703424436 170.12817173346411,108.77578122037812 170.4372327189194,109.98320811946178 170.48138428817037,110.65399896627059 170.61383899627253,111.39186735122348 170.52553585742135,112.66636347238091 170.79044527350925,114.00793311448069 171.01120312034618,115.55073158131563 171.36441567505244,116.82521192866261 171.4085672443034,117.56306676231907 171.7617797991261,118.90461685464834 171.27611253620125,120.44739283958916 170.6579905655235,120.98400891319034 170.12817173346411,121.25231662846636 169.46589819330256,121.52062412971281 168.80362465325743,121.58770097146044 168.18550268246327,121.92308497976046 166.06622735399287,122.19139194546733 163.19637534685899,122.72800523383194 162.48995023733005,123.06338810414309 161.7835251278011,123.197541158268 160.45897804759443,123.60000000000582 159.7967045075493,123.46584710630123 159.48764352221042,122.8621584220964 159.2668856753735,121.45354727451922 158.9578246900346,120.84985497512389 158.6929152739467,119.37415812155814 158.6929152739467,118.63630726476549 158.56046056607738,117.42891145861358 158.64876370457932,116.75813413609285 158.86952155141626,112.73344208177878 159.001976259402,112.12973411584971 159.0461278287694,110.78815697497339 158.86952155141626,109.98320811946178 158.86952155141626,109.3124159333529 158.7370668433141,108.64162240820588 158.91367312066723,107.23295164684532 158.6929152739467,106.62923379856511 158.03064173390158,106.49507412922685 156.48533680697437,106.025514865265 155.82306326681282,105.95843491677078 154.41021304775495,105.75719499142724 153.61548479972407,105.75719499142724 152.95321125967894,105.89135495506343 152.95321125967894,107.09879221883602 152.86490812082775,107.83666841057129 152.82075655157678,108.5074635426572 152.90905969019514,109.78197060435195 152.82075655157678,111.1235517624882 153.35057538363617,111.59310390218161 153.2622722450178,113.0688349272823 153.12981753691565,113.806698009721 153.70378793845885,115.014106831135 154.8075771718286,115.75196564165526 156.17627582140267,116.02027753478615 157.4125197631074,115.41657547422801 157.80988388706464,114.87995050946483 158.03064173390158,114.27624640020076 158.11894487263635,110.45276185270632 158.33970271924045,108.57454298218363 158.33970271924045,107.90374798391713 158.03064173390158,107.36711102144909 157.4125197631074,106.89755297609372 156.79439779231325,106.62923379856511 155.3373960040044,106.49507412922685 154.63097089459188,106.76339341400308 154.0570004930487,107.09879221883602 153.61548479972407,107.63542960988707 153.35057538363617,108.17206614391762 153.2622722450178,109.51365372969303 153.35057538363617,110.18444551408174 153.30642381426878,111.45894621490152 153.218120675534,112.80052067758515 153.35057538363617,114.27624640020076 153.70378793845885,114.87995050946483 154.27775833988562,115.4836535344657 154.8958803106798,115.8861216152145 156.30873052950483,116.02027753478615 157.54497447109316,115.81904363512876 157.85403545654844,115.2824193132401 158.07479330315255,114.54455947168753 158.2072480111383,113.806698009721 158.2072480111383,112.33097022495349 158.29555114998948,111.66018272581277 158.25139958050568,111.05647283149301 158.33970271924045,110.45276185270632 158.29555114998948,108.37330462317914 158.16309644188732,107.76958882377949 157.80988388706464,107.16587193956366 156.70609465357848,106.49507412922685 155.99966954404954,106.36091440645396 154.14530363178346,106.69631361294887 153.35057538363617,107.7025092234835 153.2622722450178,108.57454298218363 153.35057538363617,111.45894621490152 153.2622722450178,112.19681283220416 153.35057538363617,112.93467782950029 153.218120675534,113.53838434905629 153.12981753691565,114.14208978414536 153.4830300916219,114.6787159270898 153.88039421569556,115.14826309907949 154.45436461723875,115.55073158131563 155.0724865879165,115.95319958170876 155.69060855871066,116.0873554747086 156.35288209898863,116.02027753478615 156.97100406966638,116.0873554747086 157.54497447109316,115.75196564165526 158.11894487263635,114.47748122378835 158.29555114998948,110.9893938874884 158.11894487263635,108.03790709088207 157.9864901645342,107.43419068853837 157.4125197631074,106.96463273698464 156.70609465357848,106.56215397044434 155.3815475733718,106.4279942746216 154.71927403332666,106.56215397044434 154.18945520115085,107.09879221883602 153.70378793845885,107.63542960988707 153.52718166110571,108.37330462317914 153.39472695300356,109.78197060435195 153.43887852237094,110.45276185270632 153.30642381426878,111.79434033267898 153.30642381426878,112.53220621371293 153.218120675534,113.20299197203713 153.39472695300356,114.54455947168753 153.65963636897504,115.21534121283912 154.67512246384285,116.0873554747086 155.3373960040044,116.15443340101046 157.28006505512167,116.02027753478615 157.72158074844629,115.61780961495242 157.9423385950504,114.94702867700835 158.07479330315255,113.53838434905629 158.11894487263635,112.93467782950029 158.03064173390158,112.33097022495349 158.25139958050568,111.72726153579424 158.16309644188732,110.38568278815364 158.2072480111383,111.05647283149301 158.33970271924045,111.66018272581277 158.38385428849142,113.60546278420952 158.29555114998948,114.20916809875052 158.03064173390158,114.81287232870818" stroke="#4dd2ff" stroke-linecap="round" stroke-linejoin="round" stroke-width="0.5"><title>2022-05-04 3.2km</title></polyline><polyline fill="none" points="40.95336366072297,171.59999999997672 36.835729314014316,161.44946400553454 37.37956781266257,130.05251707445132 27.20201876736246,128.40000000002328 27.12432755320333,141.14786924992222 29.99890247453004,146.22333328734385 35.28190503222868,144.21675968897762 35.9811259591952,132.76735652732896 33.26193346618675,129.46233293507248 28.21200455049984,131.58699307934148 28.445078192744404,144.4528275245102 31.241961899911985,146.1052997346269 35.6703611027915,143.39052152226213 35.825743530876935,131.58699307934148 31.86349161248654,129.46233293507248 28.289695764426142,131.94110236107372 27.901239694096148,143.39052152226213 30.154284902848303,145.7511989356135 33.49500710819848,145.86923255905276 35.825743530876935,143.39052152226213 35.825743530876935,131.70502953010146 30.85350582934916,129.69840666168602 27.97893090802245,133.1214651017217 28.21200455049984,144.21675968897762 34.34961046348326,146.1052997346269 36.29189081536606,143.9806917590322 36.44727324368432,132.17717509769136 34.038845606846735,129.58036981045734 30.69812340126373,129.46233293507248 27.512783623533323,133.35753736720653 28.289695764426142,144.09872573567554 33.41731589427218,146.45940032153158 36.36958202952519,143.03641909745056 35.59266988863237,130.40662727534072 33.72808075044304,129.10822216887027 28.445078192744404,130.1705538315 27.04663633927703,141.50197280570865 29.532755189808086,146.1052997346269 35.12652260437608,145.51513161836192 36.52496445784345,136.42646824056283 35.048831389984116,130.5246639617253 30.154284902848303,129.46233293507248 27.668166051851586,134.77396898024017 27.512783623533323,143.50855561695062 29.84352004621178,145.86923255905276 34.2719192490913,145.51513161836192 35.9811259591952,142.6823164606467 35.825743530876935,132.41324774018722 28.445078192744404,131.468956604891 27.357401195447892,136.78057462419383" stroke="#4dd2ff" stroke-linecap="round" stroke-linejoin="round" stroke-width="0.5"><title>2022-03-10 3.4km</title></polyline><polyline fill="none" points="103.93667983380146,162.4067229697539 101.59419265971519,156.87090394250117 101.72433083620854,130.37719899590593 98.34073825157247,128.5977202548238 93.00507302186452,128.39999999999418 93.07014211011119,139.76878642229713 95.21742201945744,143.22880005164188 98.92636004509404,142.8333711460291 100.2277418083977,141.25165236651083 100.74829451367259,131.16807638364844 96.77908013551496,129.0920205464936 93.59069481538609,131.26693596850964 93.46055663912557,141.05393716381514 97.7551164580509,143.22880005164188 100.48801816091873,140.6585065216059 100.48801816091873,130.67377816452063 96.77908013551496,129.28974052527337 93.59069481538609,131.4646550786565 93.46055663912557,140.55964881181717 96.25852743024006,143.22880005164188 100.35787998489104,140.85622188213165 100.61815633741207,131.76123359586927 98.92636004509404,129.4874604245997 95.1523529314436,129.6851802453166 93.85097116813995,130.97035715528182 93.46055663912557,140.16421777495998 96.77908013551496,143.32765722853946 100.2277418083977,141.54822502241586 100.48801816091873,131.76123359586927 99.64212001487613,129.98175982839894 96.64894195925444,129.1908805455314 93.59069481538609,131.662374109932 93.91604025615379,141.64708253505523 98.01539281080477,143.32765722853946 100.94350177817978,140.85622188213165 99.64212001487613,129.58632034470793 95.54276746045798,129.1908805455314 93.59069481538609,131.76123359586927 93.65576390363276,141.05393716381514 95.93318198923953,143.0310856383294 98.99142913310789,143.12994285472087 100.55308724939823,140.46079108206322 100.0325345438905,130.47605873833527 94.56673113792203,129.78404012596002 92.67972758086398,135.81445553005324 92.35438214032911,132.25553072977345 92.67972758086398,128.39999999999418 101.6592617481947,128.89430048898794 102.04967627697624,150.14875478780596 103.48119621677324,160.72621302068 107.64561785943806,170.11722492522676 106.99492697766982,171.60000000000582" stroke="#4dd2ff" stroke-linecap="round" stroke-linejoin="round" stroke-width="0.5"><title>2022-03-08 3.7km</title></polyline><polyline fill="none" points="177.17660511331633,131.5903455542575 176.73916460003238,130.92569275188725 178.3576944990782,131.45741510007065 178.09523019124754,129.7957799421274 179.5825279362034,129.39698627023608 178.44518260180485,128.40000000002328 177.57030157523695,131.05862341856118 178.27020639646798,128.66586329741403 178.22646234510466,130.19457313645398 174.07077746931463,130.46043500042288 173.76456911012065,131.98913659882965 174.9019144445192,134.64773135370342 175.5580752142705,144.35142203446594 173.72082505875733,144.41788469391759 169.69637233694084,141.69290477325558 169.39016397763044,142.35753607895458 169.74011638830416,156.58032800036017 171.1399260306498,167.41316840003128 168.42779484868515,169.207531247288 159.8539607890416,171.60000000000582 158.10419873613864,167.28025224880548 158.45415114681236,154.65297590140835 152.50496016663965,153.7889868557104 152.6361923206132,161.0331332848 154.2109781684121,163.42566078095115 156.0919723752886,163.5585784711002 157.49178201763425,162.36231734981993 157.6230141716078,155.78280434713815 156.31069263187237,154.38713335702778 154.9108829894103,154.32067268787068 153.07363283389714,156.1151061015844 153.24860903911758,162.6946125368122 155.30457945133094,163.5585784711002 157.49178201763425,162.49523546430282 157.53552606888115,156.18156641258975 156.26694858062547,154.58651528524933 153.2923530904809,155.3840418041218 153.20486498787068,161.4318890616123 154.8233948869165,163.3592019159114 157.6667582228547,162.09648096130695 157.6230141716078,156.58032800036017 156.48566883709282,154.52005465567345 153.51107334718108,154.918818233622 153.02988878265023,161.83064436053974 154.64841868157964,163.62503729615128 157.44803796627093,162.22939918210614 157.6230141716078,155.84926472447114 157.14182960707694,154.71943650447065 155.30457945133094,154.187751309335 153.24860903911758,155.64988355254172 153.02988878265023,161.9635626874806 154.2109781684121,163.49211963274865 155.65453186212108,163.62503729615128 157.6230141716078,162.09648096130695 157.6230141716078,156.04864577695844 156.48566883709282,154.58651528524933 153.51107334718108,155.05173932012985 152.6799363719765,158.77350819544517 152.417472063913,153.6560652650369 158.6291273520328,153.19083927985048 161.47249068808742,136.8410560429911 162.65358007373288,136.37580655887723 167.11547330894973,138.76851126478869 168.25281864323188,138.2368005940225 168.5590270026587,135.9770207692054 174.42072987998836,136.44227081065765 175.99551572755445,135.04651873576222 178.970111217699,135.8440920666617 178.6201588070253,129.7957799421274 178.27020639646798,131.39094985308475 176.60793244605884,131.19155403214972" stroke="#4dd2ff" stroke-linecap="round" stroke-linejoin="round" stroke-width="0.5"><title>2021-12-30 4.7km</title></polyline><polyline fill="none" points="40.96219485090114,219.60000000000582 35.685584016377106,206.3508711908944 37.15130924805999,177.73613261681749 27.330950194969773,176.40000000002328 27.257663933560252,189.7611821348255 29.96925561246462,192.7674040060083 33.26713738380931,192.65606274400488 35.46572523145005,190.09520758723374 35.83215653966181,179.62898167801904 32.460988506441936,177.06806670859805 28.50353038054891,178.4041977247398 27.330950194969773,189.53849838871974 30.40897318185307,192.5447214600863 32.827419814420864,192.7674040060083 35.172580185113475,190.6519162300974 35.75887027778663,179.51763779352768 33.41370990709402,177.29075543332146 29.163106734864414,177.95882107515354 27.037805148866028,188.87044661672553 29.45625178120099,192.65606274400488 33.56028243014589,192.21069747427828 35.75887027778663,189.98386579184444 35.83215653966181,180.1857007679355 33.04727859888226,177.17941108206287 27.770667764591053,178.73822997888783 27.404236456612125,189.98386579184444 30.628831966780126,192.65606274400488 35.172580185113475,190.54057454614667 35.685584016377106,179.51763779352768 31.434980844147503,176.6226889915124 27.917240287875757,178.84957401902648 27.330950194969773,189.98386579184444 29.38296551955864,192.43338015390327 34.732862615492195,191.2086243176891 36.052015324356034,180.51973195493338 35.31915270839818,178.4041977247398 32.021270936820656,177.29075543332146 28.283671595854685,179.18360600611777 27.55080897989683,190.54057454614667 29.749396827537566,192.65606274400488 34.07328626140952,192.32203882519389 35.46572523145005,190.6519162300974 35.75887027778663,180.40838824794628 33.92671373812482,177.06806670859805 27.477522718254477,177.95882107515354 27.477522718254477,190.87459953181678" stroke="#4dd2ff" stroke-linecap="round" stroke-linejoin="round" stroke-width="0.5"><title>2021-12-27 3.1km</title></polyline><polyline fill="none" points="107.0094402465038,219.59999999997672 109.52225844794884,179.01214568980504 90.4777415515855,176.40000000002328 93.12281334307045,203.7267271024175 97.48718179855496,207.94622913462808 103.43859332846478,208.3480855480302 107.40620101522654,204.32951418921584 106.87718665692955,184.035483731539 98.80971769383177,178.81121164635988 92.99055975303054,182.628951606981 94.97436359664425,202.92301042337203 100.13225358957425,208.3480855480302 106.74493306688964,204.93230091611622 106.21591870905831,184.035483731539 99.6032392308116,179.41401365533238 93.12281334307045,182.82988488784758 95.50337795494124,205.3341585333692 102.64507179101929,208.5490136956214 107.14169383561239,204.73137204768136 106.21591870905831,184.6382826117915 99.86774641042575,179.41401365533238 95.76788513408974,179.8158814611961 92.46154539473355,184.43734969198704 93.65182770090178,203.7267271024175 100.39676076825708,207.74530086718732 107.0094402465038,204.93230091611622 106.74493306688964,185.24108113144757 98.94197128340602,179.61494757881155 92.59379898477346,184.23641673161183 93.65182770090178,202.92301042337203 99.6032392308116,207.74530086718732 105.29014358203858,206.94158739753766 107.80296178394929,201.11464555124985 106.34817229863256,184.035483731539 97.88394256681204,179.21307969256304 93.78408129047602,180.82055027305614 92.7260525743477,185.04014833195833 93.78408129047602,203.7267271024175 102.64507179101929,208.95086986821843 107.40620101522654,202.52115184388822 106.08366511948407,183.03081812890014 101.19028230570257,179.21307969256304 95.23887077532709,179.61494757881155 91.40351667860523,186.64760960580315 93.12281334307045,204.73137204768136 101.58704307442531,208.1471573613817 107.53845460433513,202.72208115371177 107.80296178394929,183.8345506914775 98.54521051468328,178.20840927632526 92.46154539473355,181.82521808188176 92.46154539473355,202.72208115371177 98.41295692510903,207.94622913462808 106.87718665692955,202.92301042337203 106.61267947778106,184.83921549131628 104.89338281331584,181.2224175169831 97.61943538766354,179.01214568980504 92.0647846260108,183.23175132955657" stroke="#4dd2ff" stroke-linecap="round" stroke-linejoin="round" stroke-width="0.5"><title>2021-12-07 3.6km</title></polyline><polyline fill="none" points="169.60175785492174,197.48200399940833 167.70609582588077,177.8976541121665 159.9717947486788,176.40000000002328 158.5310916067101,179.7409153758781 159.2893564181868,192.52837829227792 163.45981288165785,194.71719489456154 166.79617805220187,193.79558891622582 167.8577487883158,191.60676881839754 167.1753104578238,179.85611900954973 160.57840659772046,178.35846998007037 158.75857105036266,185.15546128939604 160.7300595601555,194.02599054848542 166.11373972170986,194.486793537857 168.00940175075084,186.99869937138283 166.56869860878214,179.39530433740583 160.57840659772046,179.28010061202804 159.2135299372021,188.4963259777869 161.18501844722778,193.68038806520053 163.91477176873013,195.75399986139382 166.94783101440407,194.94759615923977 167.47861638269387,183.31221732022823 166.11373972170986,179.97132262011291 160.57840659772046,178.81928548013093 158.68274456914514,184.11863728109165 161.18501844722778,194.83239553822204 166.79617805220187,194.6019942278799 167.1753104578238,180.6625438000192 164.14225121191703,178.70408163944376 160.7300595601555,179.39530433740583 158.9860504937824,183.08181141037494 161.26084492821246,194.486793537857 165.88626027829014,194.71719489456154 167.32696342025883,192.98918247775873 167.8577487883158,182.85140540791326 164.82468954240903,178.81928548013093 160.57840659772046,179.5105080397916 159.2135299372021,181.3537641518633 159.51683586183935,191.95237254386302 162.70154807018116,195.177997331979 166.18956620292738,194.6019942278799 167.40278990124352,192.98918247775873 167.78192230733112,182.27539000057732 165.5071278726682,179.39530433740583 162.47406862676144,178.70408163944376 159.59266234305687,182.1601868495345 159.6684888242744,193.10438346638693 163.83894528727978,194.94759615923977 167.63026934489608,191.72197008301737 167.1753104578238,181.3537641518633 162.09493622090667,179.0496930918307 159.59266234305687,182.85140540791326 160.6542330791708,193.79558891622582 163.68729232507758,195.06279675726546 167.55444286367856,192.87398146581836 167.47861638269387,181.81457726005465 166.03791324072517,179.5105080397916 162.85320103238337,178.81928548013093 160.12344771111384,180.54734032734996 158.9860504937824,183.65782601278624 158.68274456914514,193.56518719159067 158.5310916067101,177.66724604048068 168.5401871188078,177.32163375988603 169.22262544883415,203.01158247128478 173.4689083932899,219.60000000000582" stroke="#4dd2ff" stroke-linecap="round" stroke-linejoin="round" stroke-width="0.5"><title>2021-12-06 4.4km</title></polyline><polyline fill="none" points="46.37967141147237,224.39999999999418 40.89534386130981,226.09896340419073 39.56419639789965,228.36423686210765 33.28118036966771,228.7687486470095 28.915016688988544,235.5644862561021 27.583869225461967,241.9556116804306 28.595541297690943,249.96460123357247 27.104656138457358,257.0835701742326 22.312525269459,255.22294263661024 18.159345183172263,255.30383966382942 17.946361589012668,264.1215188022761 19.650230342289433,267.0337376537791 22.419017066713423,267.43821083870716 24.868328399723396,265.4967358679278 25.028066095197573,257.8925360040448 23.004721950623207,255.62742761083064 21.30085319734644,255.38473667492508 19.06452545837965,257.2453634694102 18.691804168513045,265.41584087567753 20.98137780604884,267.6000000000058 23.4839350375114,267.3573162340617 24.815082501037978,265.41584087567753 24.868328399723396,258.45881112403003 22.259279371006414,255.62742761083064 18.958033661125228,257.32626009272644 18.372328777215444,264.8495754773903 21.30085319734644,267.51910542763653 24.3891153128352,265.82031567551894 24.868328399723396,258.1352254382218 23.27095144346822,255.95101529930253 20.928131907247007,255.30383966382942 19.01127955992706,257.0835701742326 18.638558270060457,265.09226074488834 21.83331218280364,267.6000000000058 24.3358694142662,266.14389522516285 24.602098906878382,257.4880532910174 21.407344994251616,255.46563366963528 19.06452545837965,257.32626009272644 19.01127955992706,264.4450997081876 20.18268932774663,266.71015881485073 21.939803979708813,267.19552697610925 24.3358694142662,265.9012105872098 24.868328399723396,257.32626009272644 22.632000660756603,255.30383966382942 20.768394211889245,256.19370589609025 19.22426315397024,257.9734324980818 18.798295965767466,261.04748730998836 18.478820574469864,257.0026735025167 26.678688950254582,254.33307427281397 29.553967471583746,236.37349504677695 33.121442674077116,232.9756472723093 40.25639307894744,230.54859570338158 46.699146802769974,232.49023812144878 43.77062238275539,229.01145552421804 47.391343483817764,225.69444895384368 50.05363841110375,225.61354601552011" stroke="#4dd2ff" stroke-linecap="round" stroke-linejoin="round" stroke-width="0.5"><title>2021-11-11 3.8km</title></polyline><polyline fill="none" points="115.05878990050405,226.34422237887338 116.31467639101902,224.86805545132665 115.41422947321553,224.40000000000873 113.37637592264218,224.4720086099842 111.5043941725744,225.73215463155066 108.8978373054415,226.3082184511877 107.28651124215685,228.43243788235122 106.33867238136008,228.68446225604566 102.097093479475,226.05619075649884 97.97399443510221,226.34422237887338 92.61870487168198,225.5881383890519 91.50499421026325,225.91217477287864 90.41497952048667,228.25242025684565 89.39605274511268,228.93648627755465 88.66147762804758,232.28477199601184 90.84150700777536,246.50529281508352 90.65193923562765,258.8168380902789 93.42436790344073,266.9520764390327 90.17801980528748,267.6000000000058 89.13539705844596,264.90030314012256 86.5525361627806,252.4091796396533 83.68532360898098,246.64929235415184 84.51468261209084,246.00129352268414 86.52884019131307,245.8212934339681 90.53345937799895,246.57729259900225 89.4671406596899,236.3890374237235" stroke="#4dd2ff" stroke-linecap="round" stroke-linejoin="round" stroke-width="0.5"><title>2021-11-07 3.5km</title></polyline><polyline fill="none" points="182.14509953954257,224.40000000000873 181.04642886552028,224.48053034074837 177.67002630617935,228.38621402799617 175.28510703810025,227.5809244910779 171.721126558783,232.93604068896093 171.8819076330983,234.3855218514218 167.78199023957131,237.04287745674083 162.23504317790503,242.0353921285714 155.93778443621704,250.32914060819894 154.571145305119,253.8317397860519 150.41763422026997,259.74978910258505 150.01568153465632,261.3198552456597 150.4712279117084,263.3327430293284 152.26661657419754,265.78843945609697 155.5358317506616,267.2779459579615 158.2423131672549,267.6000000000058 155.16067591076717,267.35845951584633 151.67708596854936,265.1443251963792 150.52482160308864,263.6145457474486 149.85490046039922,261.4406290681072 150.20325945463264,259.95108030346455 154.59794215089642,254.03303677738586 154.9195042993524,251.818759040616 159.07301538420143,245.9004815667431 162.851370629156,241.39120349528093 171.74792340456042,233.98288921956555 175.0707322724047,227.41986620536773 175.76745026081335,227.218543170864 177.64322946046013,228.54727155700675 181.31439732259605,224.52079549932387 181.93072477390524,224.48053034074837 181.47517839685315,224.88318157204776" stroke="#4dd2ff" stroke-linecap="round" stroke-linejoin="round" stroke-width="0.5"><title>2016-05-06 3.5km</title></polyline></svg>