<?xml version="1.0" encoding="utf-8" ?>
<svg baseProfile="full" height="300mm" version="1.1" viewBox="0,0,200,300" width="200mm" xmlns="http://www.w3.org/2000/svg" xmlns:ev="http://www.w3.org/2001/xml-events" xmlns:xlink="http://www.w3.org/1999/xlink"><defs /><rect fill="#222222" height="300" width="200" x="0" y="0" /><text fill="#FFFFFF" style="font-size:12px; font-family:Arial; font-weight:bold;" x="10" y="20">Over 3kms Workouts</text><text fill="#FFFFFF" style="font-size:4px; font-family:Arial" x="10" y="280">ATHLETE</text><text fill="#FFFFFF" style="font-size:9px; font-family:Arial" x="10" y="290">underwindfall</text><text fill="#FFFFFF" style="font-size:4px; font-family:Arial" x="120" y="280">STATISTICS</text><text fill="#FFFFFF" style="font-size:3px; font-family:Arial" x="120" y="285">Number: 16</text><text fill="#FFFFFF" style="font-size:3px; font-family:Arial" x="120" y="290">Weekly: 1.8</text><text fill="#FFFFFF" style="font-size:3px; font-family:Arial" x="141" y="285">Total: 60.5 km</text><text fill="#FFFFFF" style="font-size:3px; font-family:Arial" x="141" y="290">Avg: 3.8 km</text><text fill="#FFFFFF" style="font-size:3px; font-family:Arial" x="167" y="285">Min: 3.0 km</text><text fill="#FFFFFF" style="font-size:3px; font-family:Arial" x="167" y="290">Max: 5.2 km</text><polyline fill="none" points="21.884709876030684,40.37372869433602 22.81194907356985,42.70586176760844 23.547345678554848,44.18287064926699 25.11406018480193,47.56441811856348 25.56169290083926,48.38064839731669 25.68958796269726,48.49725255405065 25.785509258974344,48.53612059695297 25.817483024322428,48.30291226945701 25.65761419723276,47.75875884870766 24.76234876504168,45.7376095255604 24.69840123434551,45.42666235048091 24.73037499957718,45.15458332610433 24.986165123060346,44.84363558833138 25.56169290083926,44.493819024792174 26.90459104895126,43.83305336814374 28.854990740539506,42.97794285984128 29.398544752853923,42.66699302132474 29.46249228378292,42.39491166648804 29.430518518434837,42.122830081760185 28.91893827135209,40.956763545196736 28.759069444262423,40.529204757651314 28.791043209726922,40.25712159747491 28.91893827135209,40.02390727723832 29.14275462948717,39.82956188148819 29.750256172614172,39.47973987358273 32.787763888947666,37.96384011692135 34.162635802524164,37.18645285957609 35.82527160504833,35.86489021690795 39.72607098799199,32.48321994775324 40.14172993856482,32.28887000310351 40.42949382739607,32.25 40.621336420066655,32.40547998389229 40.84515277808532,32.833049552718876 41.35673302505165,34.348973451327765 42.4438410497969,36.797758527391125 42.891473765834235,38.23592521387036 43.147263889200985,38.89670234970981 46.88819444493856,47.331209087657044 47.463722222833894,49.11914067735779 47.55964351911098,49.93536701751873 47.463722222833894,50.12970631761709 47.112010803073645,50.47951676216326 45.83306018577423,51.41234275791794 42.891473765834235,53.705528517166385 38.319225308834575,57.0092420191213 36.20895679027308,58.64165265741758 34.29053086426575,60.23518839874305 31.892498456756584,62.02304838600685 31.60473456780892,62.411712287925184 31.57276080234442,63.07243984541856 31.22104938258417,63.88863083993783 30.997233024565503,64.74368585500633 30.645521604688838,65.09348043444334 27.480118826846592,67.42543459378066 26.936564814532176,67.85295769246295 26.90459104895126,67.89182340051048 26.968538579996675,67.85295769246295 26.90459104895126,67.89182340051048 26.90459104895126,67.85295769246295 26.968538579996675,67.85295769246295 26.90459104895126,67.9306891039887 26.552879629307427,68.08615187075338 25.178007715614513,69.17438913852675 24.76234876504168,69.36871683530626 24.538532407023013,69.40758236052352 24.282742283656262,69.32985130528687 23.675240740412846,68.98006132457522 23.38747685146518,68.90233016616548 22.907870369963348,68.86346457983018 22.556158950086683,68.94119574764045 19.10299228329677,71.42858321644599 18.62338580179494,71.85610100414488 17.951936727855355,72.6334046194388 17.696146604255773,72.75 17.504304011701606,72.6334046194388 17.440356480772607,72.361348567385 17.472330246237107,71.27312206223723 17.53627777704969,70.84560350116226 17.66417283890769,70.5735459397838 17.983910493087023,70.379218969465 18.815228394349106,70.22375730896601 19.134966048877686,70.1071610142535 19.32680864154827,69.95169922255445 19.710493826656602,69.40758236052352 20.4458904316416,68.78573339330615 20.73365432047285,68.43594282187405 20.829575616749935,68.12501755080302 20.829575616749935,67.46430035351659 21.0533919747686,66.92017929136637 21.0533919747686,66.25945962360129 21.213260801974684,65.3266766097804 21.181287036510184,65.05461438879138 21.021418209420517,64.54935536900302 21.0533919747686,64.00522938466747 20.989444443956017,63.88863083993783 20.829575616749935,63.77203225303674 20.222074073622935,63.61656740482431 19.93431018467527,63.61656740482431 18.65535956725944,64.47162314181332 18.175753085757606,64.16069404539303 18.01588425866794,64.12182788731297 17.85601543157827,64.16069404539303 17.728120369720273,64.39389089582255 17.66417283890769,64.78255193808582 17.696146604255773,67.1145083475858 17.88798919680994,67.77522626216523 18.27167438203469,68.31934588038712 18.719307098072022,68.59140534495236 19.134966048877686,68.66913657839177 19.83838888828177,68.43594282187405 20.094179011764936,67.9306891039887 20.4139166661771,67.69749481312465 20.669706789660268,67.69749481312465 21.1173395056976,68.00842049680068 21.820762345101684,67.81409197958419 22.076552468701266,67.9306891039887 22.300368826719932,68.24161456272122 22.36431635764893,68.47480845972314 22.396290122997016,68.86346457983018 22.588132715667598,68.86346457983018 23.131686727982014,68.59140534495236 24.69840123434551,67.34770306036808 26.39301080221776,66.18172780901659 28.439331789966673,64.51048925772193 29.974072530749254,63.461102481523994 35.56948148156516,59.26352120141382" stroke="#4dd2ff" stroke-linecap="round" stroke-linejoin="round" stroke-width="0.5"><title>2022-06-19 4.7km</title></polyline><polyline fill="none" points="57.25,44.959361397253815 58.259795191464946,46.58153237783699 59.70235975063406,49.475116687855916 60.24332146043889,50.83421651707613 60.60396260023117,52.23715294452268 60.928539626067504,52.982460718543734 61.18098842399195,54.03465732673067 61.758014247519895,55.30605749681126 61.974398931488395,56.05135897680884 62.51536064129323,57.235069950140314 62.948130008997396,58.331095191446366 64.85952805005945,62.364439614408184 64.89559216378257,62.58364183307276 64.85952805005945,62.97820549359312 65.18410507589579,63.81117181456648 65.11197684775107,64.42493525042664 65.25623330357485,64.64413622624124 65.40048975963145,64.64413622624124 66.22996438131668,64.20573414221872 67.42008014256135,63.32892838778207 67.67252894048579,63.02204587392043 67.96104185236618,62.53980139983469 68.21349065005779,62.32059915483114 69.47573463944718,61.531469977489905 70.55765805882402,60.654657770704944 72.50512021384202,59.38327631322318 73.08214603736997,58.94486788267386 74.01981300092302,58.37493613228435 75.28205699031241,57.366593153681606 77.44590382906608,55.7883115701552 78.02292965282686,55.262216185743455 79.79007123783231,53.85929143693647 80.61954585951753,53.33319325983757 81.12444345513359,53.07014388573589 83.14403383806348,51.49184364179382 85.23575244890526,50.00122045050375 88.84216384706087,47.19532491444261 90.10440783621743,46.2746357206197 90.78962600184605,45.88005392346531 93.96326803206466,43.42486866947729 94.61242208373733,43.03028377785813 96.0189225289505,41.80268359699403 97.06478183460422,41.10119591729017 97.64180765813217,40.57507926886319 97.75,40.39970688323956 97.53361531626433,40.35586377372965 97.56967943022028,40.48739308657241 97.49755120230839,40.57507926886319 95.73040961730294,42.02189821927459 94.9730632235296,42.59185561793856 94.17965271603316,43.07412656478118 88.55365093518049,47.458378541254206 86.10129118454643,49.16822247451637 84.33414959930815,50.52732345147524 82.92764915409498,51.711052418890176 81.44902048096992,52.675569467333844 80.04252003552392,53.85929143693647 78.02292965282686,55.218374869262334 77.48196794302203,55.7006290590507 76.65249332156964,56.226723808795214 76.1115316117648,56.708976660185726 73.08214603736997,58.94486788267386 72.07235084613785,59.734002676734235" stroke="#4dd2ff" stroke-linecap="round" stroke-linejoin="round" stroke-width="0.5"><title>2022-06-17 3.0km</title></polyline><polyline fill="none" points="125.3047844056855,32.25 125.03280531178461,32.37399420485599 124.93081315164454,32.37399420485599 124.50584581738804,32.539319671617704 124.36985627037939,32.55998534378887 123.97888632293325,32.82863885455299 123.80889938928885,32.89063575871114 123.62191376229748,32.82863885455299 123.24794250814011,33.0352951145469 123.179947734694,33.117957548674894 122.80597648059484,33.24195112513553 122.70398432039656,33.3246134595247 122.4150065331487,33.386610184184974 122.07503266574349,33.53126912105654 121.97304050560342,33.53126912105654 121.75205749180168,33.737924533183104 121.46307970455382,33.82058662828058 121.3100914641982,33.94457969600626 120.98711629019817,34.10990364673489 120.74913458304945,34.31655836068967 120.54515026259469,34.461216512092506 120.13718162185978,34.5852091160632 119.50822996714851,34.977851769697736 119.1002613263554,35.1638400809461 119.0152678595623,35.1638400809461 118.84528092580149,35.24650148778164 118.70929137885105,35.34982819025754 118.62429791205795,35.47382015091716 118.62429791205795,35.618477324882406 118.72629007231444,35.82513021858176 118.84528092580149,36.23843525799748 118.93027439265279,36.34176136201131 119.13425871304935,36.817060637593386 119.23625087324763,36.98238181558554 119.32124434015714,37.313023692782735 119.37224042025628,37.354353882634314 119.40623780700844,37.540339613187825 119.62722082075197,37.85031538197654 119.6952155942563,38.11896059454011 119.86520252790069,38.4082703521417 119.86520252790069,38.449600277643185 119.96719468809897,38.61491987989575 120.01819076819811,38.821569158215425 120.1031842349912,38.98688840142859 120.15418031514855,39.21420210026554 120.22217508865288,39.27619669302658 120.42615940910764,39.648163778489106 120.18817770190071,39.75148782550241 120.01819076819811,39.77215262748359 119.66121820750413,39.87547659970005 119.28724695334677,40.10278911923524 118.55630313855363,40.39209552599641 117.67237108346308,40.8673835619411 117.45138806966133,40.92937755641469 117.06041812215699,41.136024042381905 116.41446777415695,41.34267027910391 116.17648606706643,41.507987088974915 116.09149260021513,41.693968309278716 115.97250174661167,41.755962004564935 115.97250174661167,41.921278415524284 116.00649913336383,42.04526561900275 116.07449390686816,42.065930144221056 116.17648606706643,42.16925273278321 116.22748214710737,42.437891171328374 116.29547692061169,42.541213535529096 116.4654638543143,42.9958311975206 116.61845209461171,43.243803959179786 116.66944817471085,43.471112008570344 116.82243641500827,43.801741360264714 116.82243641500827,43.88439859839855 116.92442857526476,44.02904866923927 116.83943510847166,44.173698617945774 116.75444164156215,44.173698617945774 116.29547692061169,44.33901269553462 116.17648606706643,44.44233391288435 116.09149260021513,44.462998148927 116.00649913336383,44.60764773115807 116.02349782671081,44.75229719124036 116.09149260021513,44.83495397074148 116.09149260021513,45.04159574498772 116.26147953385953,45.3515579389059 116.26147953385953,45.39288618903083 116.21048345376039,45.47554265942017 115.76851742627332,45.66151957193506 115.44554225221509,45.744175912681385 115.05457230476895,46.01280874466465 114.7655945175211,46.11612895241706 114.68060105061159,46.17812104723998 114.52761281031417,46.40542520278541 114.59560758381849,46.59140110571752 114.66360235726461,46.67405699771189 114.74859582417412,47.025344093941385 114.95258014462888,47.45928598288447 115.02057491801679,47.6452607416868 115.36054878536379,48.28583892076858 115.42854355886811,48.40982151738717 115.46254094556207,48.40982151738717 115.54753441241337,48.53380402436596 115.64952657261165,48.76110505402903 115.81951350637246,48.885087306727655 115.90450697316555,49.05039683743962 115.95550305326469,49.0917241951247 116.05749521352118,49.13305154289992 116.15948737371946,49.21570620854618 116.22748214710737,49.236369868696784 116.53345862776041,49.50499722416862 116.72044425480999,49.56698809249792 117.00942204205785,49.87694209780602 117.29839982930571,50.06291423171933 117.46838676306652,50.248886163855786 117.62137500336394,50.31087676306197 117.72336716356222,50.41419437844888 117.7403658569092,50.51751193153905 118.01234495081007,50.68281988684612 118.31832143140491,50.992771873192396 118.7602874590084,51.17874279577518 119.03226655290928,51.34405011305353 118.94727308599977,51.71599099361629 118.99826916609891,51.81930776158697 119.47423258039635,52.149921000309405 119.55922604724765,52.23257421029848 119.55922604724765,52.35655395053618 119.52522866049549,52.335890666698106 119.88220122130588,52.87313523552439 119.98419338150416,52.97645130559977 120.1201829284546,52.97645130559977 120.18817770190071,53.038440917705884 120.20517639524769,53.12109369901009 120.51115287590073,53.55502014653757 120.76613327639643,53.844303834222956 121.03811237029731,54.25756539776921 121.3100914641982,54.65016295982059 121.41208362433827,54.732814963470446 121.90504573204089,55.41469247220084 122.27901698608184,55.8486131101381 122.3300130662974,55.97259023335937 122.38100914633833,56.01391592118307 122.60199216019828,55.99325307854451 122.75498040043749,56.241207025930635 122.5849934667931,56.34452106482058 122.29601567954523,56.6544628074771 120.8001306631486,57.70826053828932 120.7151371963555,57.79091106659325 119.47423258039635,58.76205178712553 119.27024825999979,59.01000172717613 118.89627700590063,59.609212600815226 118.36931751150405,60.2497460446757 118.30132273805793,60.3737199830357 118.09733841766138,60.5803430142696 117.9953462574631,60.80762806077837 118.01234495081007,60.7869657962583 116.83943510847166,62.52258732712653 116.60145340132294,62.9771519654314 116.22748214710737,63.47303928625479 115.98950043995865,63.84495383493777 115.8705095864716,63.96892517179367 115.70052265271079,64.29951496479043 115.34355009201681,64.73341310008254 115.22455923841335,64.94003087353485 115.07157099811593,65.0433396668086 114.8505879843724,65.35326567293669 114.52761281031417,65.55988269884256 114.11964416952105,66.0351009129663 113.76267160876887,66.42767148696294 113.71167552866973,66.55164095504733 113.32070558116538,66.96487186748709 113.25271080777748,67.06817943986971 113.23571211437229,67.13016395342129 112.8107447802322,67.58471636744798 111.80782187147997,68.90704380626266 111.48484669742174,69.27894655970158 111.21286760363728,69.65084850593121 111.17887021682691,69.75415445884573 110.63491202908335,70.41531108260097 110.58391594898421,70.53927766553534 110.56691725557903,70.6012609234167 110.4309277086868,70.78721056233917 110.39693032199284,70.91117687615042 110.48192378878593,71.05580412904965 110.51592117547989,71.22109226854809 110.31193685508333,71.44836319990281 110.26094077498419,71.55166806913621 110.12495122809196,71.71695573024044 110.26094077498419,71.86158230292494 110.3459342418355,71.84092137146217 110.37993162852945,71.88224323188479 110.41392901533982,71.9855478395184 110.51592117547989,72.13017418551317 110.37993162852945,72.21281775699754 110.17594730813289,72.50206994329346 110.27793946833117,72.46074823230447 110.39693032199284,72.56405249104137 110.71990549593465,72.75 110.88989242957905,72.48140908901405 111.34885715052951,71.9855478395184 111.51884408423211,71.84092137146217 111.62083624437219,71.6549728760001 111.73982709803386,71.32439727467136 111.89281533833127,71.0144820692658 112.19879181892611,70.66324415880081 112.45377221942181,70.43597218600917 112.64075784647139,70.18803878096514 112.86174086033134,69.83679917635163 112.87873955367832,69.71283208511886 112.94673432712443,69.56820369874185 113.55868728837231,68.76241473971459 113.81366768886801,68.36984951501654 113.94965723587666,68.28720408996742 114.86758667771937,67.04751793037576 115.80251481296727,65.8904694221419 116.02349782671081,65.55988269884256 116.12548998690909,65.37392738675408 116.29547692061169,65.20863360652584 117.09441550890915,64.1962057230121 117.19640766916564,64.03091080654121 117.16241028241348,63.948263288562885 117.09441550890915,63.8656157306832 116.80543772160308,63.61767281781067 116.68644686811604,63.452377343244734 116.61845209461171,63.452377343244734 116.38047038746299,63.638334740899154 116.34647300076904,63.576348964095814 116.60145340132294,63.30774367212143 116.75444164156215,63.03913795904373 117.02642073546303,62.68788369875983 117.11141420225613,62.50192526949104 117.21340636251261,62.39861494372599 117.33239721605787,62.17133200785611 117.57037892320659,61.86140024574706 117.60437630995875,61.716765231554746 117.6383736966527,61.716765231554746 117.67237108346308,61.61345443238679 117.67237108346308,61.67544091939635 117.68936977681005,61.530805748232524 117.82535932370229,61.40683264717518 118.28432404471096,60.745641259796685 118.26732535130577,60.70431671341066 118.3353201248101,60.49769383168314 118.57330183195882,60.105109669908416 118.70929137885105,60.001797898934456 119.33824303350411,59.03066420600226 119.38923911360325,58.92735178701696 119.50822996714851,58.782714295812184 119.78020906104939,58.555426562918 120.91912151675206,57.79091106659325 121.63306663819822,57.212356531235855 121.90504573204089,57.088380305227474 122.27901698608184,56.73711384422495 122.5849934667931,56.530486177653074 122.66998693358619,56.44783504134102 123.23094381479314,56.075904434226686 123.87689416267676,55.55933280696627 124.1998693367932,55.35270372001105 124.23386672348715,55.29071494526579 124.4548497372889,55.16673732854542 124.70983013778459,54.93944479824859 125.42377525923075,54.46419580576185 125.49177003267687,54.36088063294301 125.98473214037949,54.03027166117681 126.13772038073512,53.88563003539457 126.51169163477607,53.61700954924163 128.14356619806495,52.37721723181312 128.432543985371,52.191247610302526 128.50053875887534,52.108594380362774 128.7045230793301,51.98461446068541 129.14648910687538,51.63333753441111 129.82643684156938,51.158079369866755 130.20040809566854,50.82746421695629 131.4243140181061,49.95959640445653 132.4442356202635,49.13305154289992 132.51223039370961,49.11238787023467 133.03918988804799,48.69911389400659 133.2091768218088,48.59579524415312 133.44715852895752,48.36849399517814 133.75313500961056,48.18252002161171 133.87212586315582,48.01720965342247 134.229098423908,47.72791612514993 134.51807621115586,47.62459688955278 134.6540657581063,47.41795823133725 134.87504877184983,47.252647125322255 134.85805007850286,47.04600801838387" stroke="#4dd2ff" stroke-linecap="round" stroke-linejoin="round" stroke-width="0.5"><title>2022-06-14 5.2km</title></polyline><polyline fill="none" points="181.94843976944685,32.25 181.59859861287987,32.28543711009843 181.50530763779534,32.320874213124625 181.45866215019487,32.60437078199175 180.9922072746558,32.85242990833649 180.2692022175761,32.60437078199175 179.82607008580817,32.994177824803046 179.0564195411862,33.02961478642828 178.426705459191,33.20679948752513 178.26344625279307,33.38398401174345 177.96025058371015,33.490294641436776 177.4937957081711,33.91553652312723 177.3538592455443,34.340777386154514 177.16727729531704,34.55339743560762 175.81455815630034,34.624270728745614 175.53468523093034,34.41165076424659 175.11487584299175,34.26990397972986 174.97493938030675,34.234467265952844 174.7883574301377,34.340777386154514 174.69506645505317,34.340777386154514 174.6484209674527,34.482524114093394 174.6484209674527,34.766017230271245 174.46183901728364,35.26212909418973 174.27525706699817,35.36843859885994 173.76215670397505,36.077167002964416 173.5755747537478,36.18347601949063 172.85256969666807,36.18347601949063 172.33946933352854,36.14803968773049 171.82636897050543,35.75823957123794 171.54649604519363,35.403875086354674 171.05671842588345,35.12038298879634 170.54361806274392,34.943200198045815 170.19377690617694,34.943200198045815 169.3075126426993,34.836890438600676 168.7477667920757,34.6597073647863 168.56118484179024,34.73058061553456 168.09472996625118,34.55339743560762 167.55830685939873,34.482524114093394 167.2551111903158,34.376214078700286 166.975238265004,34.376214078700286 166.6020743646077,34.16359381697839 165.99568302638363,34.128157081999234 165.8324238199275,34.234467265952844 165.7624555886141,34.234467265952844 165.7624555886141,34.09272033990419 165.43593717576005,33.986410071112914 165.15606425050646,34.05728359063505 164.94615955644986,34.199030545089045 164.73625486245146,34.26990397972986 164.1298635242274,33.84466294689628 163.38353572343476,33.63204204849899 162.8471126165823,33.525731503774296 162.07746207196033,33.525731503774296 161.79758914670674,33.419420895312214 161.2844887835672,33.38398401174345 160.79471116425702,33.2422364064696 160.23496531363344,33.2422364064696 158.928891662159,33.06505174074846 158.46243678661995,33.2776733184437 157.94933642348042,33.667478882562136 157.87936819216702,33.8800997385697 157.7860772170825,34.482524114093394 157.6461407543975,34.87232703220798 157.52952703554183,35.510184506027144 157.5761725231423,35.47474803988007 157.13304039137438,35.61649386222416 156.52664905315032,35.65193030015507 156.54997179692145,36.11260334895633 156.48000356566627,36.25434866180876 156.48000356566627,36.431530143745476 156.41003533429466,36.750456365567516 156.1534851526958,37.49461532123678 156.1534851526958,37.88441162438539 155.99022594629787,38.309642978565535 155.78032125235768,39.12466689347639 155.7336757647572,39.62076657464786 155.61706204590155,40.15230040844472 155.5937393020722,40.754703495971626 155.54709381458815,41.10905729823571 155.33718912058976,41.88863317311916 155.26722088921815,42.597335542639485 155.17392991413362,42.88081569829956 155.0806389390491,43.5540792531101 154.98734796384815,43.83755788068811 154.84741150127957,44.05016655422514 154.75412052613683,44.47538313717814 154.56753857590957,44.86516411011689 154.5208930884255,45.25494422722841 154.05443821288645,47.2038319731364 153.98446998157306,47.593606954600546 153.98446998157306,47.98338108009193 154.12440644414164,48.30228654619714 154.2410201630555,49.01096330827568 154.28766565065598,49.32986692813574 154.2410201630555,49.93223886919441 154.21769741934258,50.144840242675855 153.96114723774372,50.95980981529283 153.61130608111853,51.774775646146736 153.49469236220466,52.23540685197804 153.21481943695107,52.873201932772645 153.238142180664,52.97950089015649 153.1681739493506,53.58186044590548 153.238142180664,54.077919721690705 153.238142180664,54.21965068874124 153.26146492443513,54.32594883971615 153.28478766826447,54.963736409001285 153.07488297426607,55.35349435110402 153.05156023049494,55.56608923152089 153.12152846186655,55.88498107458872 153.12152846186655,56.06214296219696 153.26146492443513,56.55819530662848 153.40140138712013,57.16054271833855 153.42472413083306,57.44399961663294 153.518015106034,57.76288808614481 153.47136961843353,57.94004809940816 153.54133784980513,58.294367595546646 153.54133784980513,59.46361691500351 153.5879833373474,59.88879657625512 153.75124254380353,60.349406726585585 153.79788803128758,61.093466752252425 153.84453351888806,61.199760787101695 153.8678562626592,61.55407377672964 153.8911790063721,62.61700850246416 153.98446998157306,62.93588767903566 153.98446998157306,63.183904420307954 154.26434290682664,64.14053717645584 154.49757034459617,65.52233094509575 154.5908613196807,65.77034407270548 154.61418406351004,65.94749609455175 154.7307977823657,66.16007828744478 155.0106707077357,67.36470590499812 155.12728442653315,67.6481465093093 155.22057540161768,68.28588621452218 155.29054363298928,68.49846560701553 155.33718912058976,68.92362362840504 155.47712558327476,69.41964003305475 155.50044832698768,69.63221806797083 155.7336757647572,70.41166868461005 155.82696673984174,71.2265452153515 155.96690320252674,71.65169670306204 156.13016240898287,72.00598883163184 156.31674435915193,72.6437128810503 156.45668082183693,72.75 156.73655374714872,72.67914192791795 156.6432627720642,72.57285476654943 156.4333580780658,71.61626745137619 156.34006710298127,71.47455037357577 156.0835169214406,70.69510442395404 155.99022594629787,69.8447958483157 155.85028948367108,69.56135875129257 155.8036439961288,69.171632003985 155.64038478967268,68.81733421853278 155.57041655835928,68.42760583778727 155.50044832698768,68.21502636032528 155.50044832698768,68.10873652616283 155.38383460819023,67.6835765530268 155.22057540161768,67.32927579758689 155.03399345144862,66.72696289037412 155.0106707077357,66.37266022565018 154.9407024763641,66.12464793959225 154.8007660136791,65.87663530700956 154.6608295509941,65.52233094509575 154.68415229488164,65.27431747090304 154.63750680728117,65.0263036502729 154.68415229488164,64.92001190673909 154.63750680728117,64.4948442964087 154.68415229488164,64.28226010929211 154.68415229488164,63.85709097140352 154.70747503859457,63.502782578521874 154.61418406351004,63.11304252958507 154.61418406351004,62.97131866324344 154.6608295509941,62.90045668765379 155.47712558327476,62.581577447461314 155.92025771492627,62.581577447461314 155.9435804587556,62.54614638542989 156.2934216153808,62.47528424009215 157.34294508537278,62.51071531625348 157.41291331674438,62.40442206648004 157.3662678291439,62.36899096911657 157.41291331674438,62.120973089229665 157.38959057285683,61.94381724852428 157.31962234154344,61.66036753576191 157.2263313664589,61.483211235448834 157.10971764760325,60.49113268617657 157.13304039137438,59.88879657625512 157.1563631350873,59.67620687292947 157.10971764760325,59.180163241850096 157.2263313664589,57.656591993247275 157.20300862268778,57.12511057424126 157.2962995977723,55.247196815369534 157.27297685405938,55.07003411448386 157.27297685405938,53.68815897889726 157.17968587897485,53.192098613872076 157.13304039137438,52.90863492558128 157.06307216000278,51.84564206333016 157.0863949037739,51.49130969455291 156.96978118491825,50.60547567831236 156.94645844120532,49.82593808689853 156.68990825960645,48.08968296588864 156.66658551583532,47.558172900709906 156.59661728446372,47.274700215188204 156.59661728446372,47.062095404049614 156.48000356566627,46.35341086088738 156.34006710298127,46.06993625131145 156.24677612789674,45.325813247371116 156.24677612789674,44.79429490608163 156.1534851526958,44.36907908692956 156.03687143389834,44.19190552829241 156.06019417761127,43.97929702459078 155.9435804587556,43.5540792531101 155.8036439961288,42.20754958962789 155.8736122274422,42.17211446058354 155.8036439961288,41.67602191049082 155.61706204590155,41.0736219498649 155.57041655835928,40.542090874994756 155.61706204590155,40.40034898619342 155.5937393020722,39.62076657464786 155.68703027715674,38.59312998225505 155.75699850852834,38.16789930706727 156.1534851526958,36.99850969745603 156.17680789652513,36.785892577128834 156.10683966521174,36.11260334895633 156.27009887160966,36.00629428992397 156.27009887160966,35.935421548521845 156.41003533429466,35.581057417279226 156.54997179692145,35.403875086354674 156.82984472223325,35.36843859885994 157.27297685405938,35.510184506027144 157.24965411017183,35.5456209651893 157.66946349822683,35.26212909418973 157.69278624199796,34.73058061553456 157.80939996091183,34.128157081999234 157.83272270468296,33.8800997385697 157.9260136797675,33.63204204849899 158.36914581153542,33.31311022324371 158.74230971198995,33.100488688010955 158.9988598934724,33.06505174074846 160.98129311442608,33.31311022324371 161.4244252462522,33.419420895312214 163.59344041749137,33.5966052072763 164.01324980542995,33.70291570961126 164.479704680969,33.91553652312723 164.8995140689076,33.77378934243461 165.29600071307505,33.77378934243461 165.80910107621457,33.91553652312723 166.06565125769703,33.84466294689628 166.7420108272927,33.91553652312723 166.975238265004,33.91553652312723 167.115174727689,33.91553652312723 167.34840216545854,34.09272033990419 167.86150252848165,34.05728359063505 168.93434874224477,34.128157081999234 169.56406282418175,34.3053406864492 169.86725849332288,34.482524114093394 170.56694080663146,34.58883408570546 170.94010470702779,34.766017230271245 171.28994586365297,35.01407333553652 171.42988232633797,35.26212909418973 171.56981878902297,35.33300210432208 171.7330779954209,35.510184506027144 172.03627366456203,35.75823957123794 172.31614658981562,35.89998516727064 172.8758924404392,35.935421548521845 172.9458606717526,36.077167002964416 173.80880219151732,36.11260334895633 174.04202962922864,36.18347601949063 174.13532060437137,36.28978497230855 174.48516176105477,36.608711448920076 175.06823035539128,36.89220116901561 175.27813504944788,37.069382014422445 175.8612036439008,37.24656268277613 176.23436754423892,37.5300513842958 176.25769028806826,37.49461532123678 176.51424046960892,37.5300513842958 176.81743613869185,37.21112656319747 176.91072711377637,37.24656268277613 177.09730906394543,36.927637352375314 177.0739863202325,36.502402687008725 176.95737260137685,36.25434866180876 176.98069534514798,36.11260334895633 177.0739863202325,36.041730649914825 177.51711845200043,36.077167002964416 177.82031412108336,36.00629428992397 178.40338271547807,35.72280315464013 178.98645130981458,35.75823957123794 179.03309679741506,35.68736673092644 179.66281087941024,35.82911238337692 179.66281087941024,35.581057417279226 180.10594301117817,35.26212909418973 180.15258849866223,35.04950989376812 180.17591124249157,34.3053406864492 180.08262026740704,34.482524114093394 179.96600654849317,34.55339743560762 179.96600654849317,34.482524114093394 179.82607008580817,34.58883408570546" stroke="#4dd2ff" stroke-linecap="round" stroke-linejoin="round" stroke-width="0.5"><title>2022-05-13 4.4km</title></polyline><polyline fill="none" points="44.798160634352826,97.25 40.215256329625845,98.08049312001094 43.032270902302116,111.17644578238833 41.05615620210301,112.39018986426527 37.65051171858795,109.77105214621406 36.305071922717616,110.85703867973643 37.65051171858795,134.81168665620498 34.70736216509249,136.28084670062526 26.760858370456845,137.75 25.541553555522114,131.93722358168452 25.667688536224887,121.65282201321679 20.20183936553076,121.01402840422816 20.41206433356274,128.48783380843815 21.96772909758147,130.40416605075006 23.313168893568218,130.59579864391708 24.868833657586947,129.50987909917603 25.3733735808637,122.8665263572766 22.47226902109105,121.58894270975725 20.622289301711135,123.18592147208983 20.580244307988323,128.9988568619592 22.051819084910676,130.46804359459202 23.439303874387406,130.59579864391708 24.616563695832156,130.46804359459202 25.079058625618927,129.2543680826784 25.205193606438115,122.7387682220724 23.14498891902622,121.46118406445021 20.580244307988323,122.7387682220724 20.41206433356274,128.80722331264406 21.67341414222028,130.21253334300127 24.616563695832156,130.34028849433525 25.289283593767323,125.86882785067428 25.03701363201253,122.41937266092282 23.81770881684497,121.58894270975725 21.379099186859094,122.09997678096988 20.87455926334951,129.82926758323447 22.47226902109105,130.72355364219402 24.78474367025774,130.21253334300127 25.16314861283172,125.29392123466823 25.03701363201253,129.50987909917603" stroke="#4dd2ff" stroke-linecap="round" stroke-linejoin="round" stroke-width="0.5"><title>2022-05-04 3.1km</title></polyline><polyline fill="none" points="89.48301186657045,97.75313753125374 89.64858025149442,97.25 89.06909090396948,97.9418138982146 89.85554073285311,97.75313753125374 89.31744348153006,98.25627425900893 87.82732801616658,98.3820583151828 86.66834932100028,98.75941018294543 84.92988127807621,98.63362627726747 85.3851943371119,98.9480859473988 85.13684175955132,99.57700434557046 85.63354691455606,100.01724647718947 85.46797852951568,100.58327117111185 85.59215481823776,101.33796918037115 85.92329158843495,101.90399150105077 86.21303626219742,103.09892417112133 86.21303626219742,103.72783428177354 86.5441730322782,104.23096146649914 86.87530980224255,105.48877591238124 87.20644657243975,107.62704894389026 87.16505447600503,108.19305996381445 87.20644657243975,110.20553535368526 87.33062286116183,110.89732079970418 87.7445438237628,111.463325943565 86.99948609108105,112.53244399602409 85.75772320327815,112.65822235195083 85.42658643331379,112.21799788670614 85.01266547071282,111.7777728062647 84.01925516058691,111.08598929393338 83.43976581294555,110.89732079970418 82.44635550270323,110.14264569239458 81.74268986622337,110.07975601864746 81.32876890373882,110.64576263149502 81.12180842249654,111.21176822722191 81.20459261501674,112.46955479920143 81.5771214812994,113.66444739091094 81.61851357750129,114.35622524074279 81.5771214812994,116.24288438257645 81.61851357750129,117.50065086630639 81.78408196265809,118.82130026930827 81.61851357750129,120.83370776110678 81.74268986622337,121.4625824659015 81.74268986622337,122.1543431909231 81.4529451924609,122.65744094602996 81.37016100005712,123.85229489410995 81.6599056738196,124.98425761199906 81.70129777002148,125.61312403087504 81.82547405885998,126.30487564174109 81.74268986622337,127.49971575534437 81.99104244390037,128.75743729481474 82.19800292525906,130.2038108574634 82.52913969522342,131.39863618311938 82.57053179142531,132.09037508966867 82.9016685616225,133.34807830123464 82.44635550270323,134.7944307871221 81.86686615506187,135.2975083561032 81.37016100005712,135.54904683917994 80.74927955609746,135.80058512158575 80.12839811237063,135.8634696607478 79.54890876472928,136.17789216854726 77.56208814424463,136.4294299488829 74.87160188762937,136.93250490672654 74.20932834746782,137.24692634760868 73.54705480730627,137.3726948358817 72.30529191950336,137.75 71.68441047577653,137.62423166216468 71.39466580189764,137.0582735207281 71.18770532053895,135.73770056987996 70.89796064677648,135.17173903918592 70.6496080692159,133.7882732389553 70.6496080692159,133.0965380607231 70.52543178061023,131.96460449247388 70.60821597301401,131.33575075259432 70.8151764543727,127.56260195167852 70.93935274309479,126.99662573359092 70.98074483929668,125.7388971640321 70.8151764543727,124.98425761199906 70.8151764543727,124.35538993752562 70.6910001655342,123.72652100768755 70.8565685505746,122.4058921689284 70.6496080692159,121.83990668616025 70.02872662537266,121.71413199615199 68.58000325644389,121.27392018618411 67.95912181248423,121.21103273445624 66.63457473216113,121.02237030444667 65.8895169995958,121.02237030444667 65.26863555575255,121.14814527035924 65.26863555575255,122.28011770514422 65.18585136323236,122.97187663492514 65.14445926703047,123.60074707123567 65.22724345943425,124.79559744158178 65.14445926703047,126.05332977735088 65.64116442203522,126.49353490830981 65.55838022963144,127.87703274434898 65.43420394079294,128.56877938410616 65.97230119223241,129.70072515419452 67.0071035985602,130.3924677890609 68.29025858244859,130.64401018887293 69.44923727784771,130.07803950709058 69.82176614401396,129.57495360262692 70.02872662537266,129.0089810001664 70.11151081800926,125.42446423691581 70.31847129913513,123.66363404577714 70.31847129913513,123.03476373493322 70.02872662537266,122.53166658259579 69.44923727784771,122.09145591506967 68.86974793020636,121.83990668616025 67.50380875368137,121.71413199615199 66.84153521351982,121.96568132561515 66.30343796219677,122.28011770514422 65.8895169995958,122.78321525926003 65.64116442203522,123.2863120099064 65.55838022963144,124.5440503715945 65.64116442203522,125.17291766943526 65.59977232583333,126.36776207646471 65.51698813319672,127.62548813523608 65.64116442203522,129.0089810001664 65.97230119223241,129.57495360262692 66.51039844355546,130.14092518857797 67.0898877910804,130.51823901425814 68.41443487128709,130.64401018887293 69.5734135665698,130.45535340791685 69.86315824044868,129.9522681061644 70.07011872157454,129.2605245047016 70.19429501041304,128.56877938410616 70.19429501041304,127.18528458589572 70.27707920293324,126.55642130546039 70.23568710661493,125.99044327950105 70.31847129913513,125.42446423691581 70.27707920293324,123.47497308423044 70.15290291421115,122.90898952228599 69.82176614401396,122.34300494333729 68.78696373768616,121.71413199615199 68.12469019752461,121.6512446324632 66.38622215471696,121.90279401215957 65.64116442203522,122.84610239701578 65.55838022963144,123.66363404577714 65.64116442203522,126.36776207646471 65.55838022963144,127.05951203018776 65.64116442203522,127.75126046515652 65.51698813319672,128.31723532723845 65.43420394079294,128.88320917263627 65.7653407107573,129.3862961816485 66.13786957715638,129.82649665538338 66.67596682859585,130.2038108574634 67.25545617612079,130.58112460785196 67.83494552376214,130.70689575752476 68.45582696760539,130.64401018887293 69.03531631524675,130.70689575752476 69.5734135665698,130.3924677890609 70.11151081800926,129.19763864731067 70.27707920293324,125.92755676951492 70.11151081800926,123.16053789769649 69.98733452917077,122.59455377049744 69.44923727784771,122.1543431909231 68.78696373768616,121.77701934729703 67.54520084988326,121.6512446324632 66.92431940615643,121.77701934729703 66.42761425091885,122.28011770514422 65.97230119223241,122.78321525926003 65.80673280719202,123.47497308423044 65.68255651835352,124.79559744158178 65.72394861455541,125.42446423691581 65.59977232583333,126.68219406189746 65.59977232583333,127.37394332536496 65.51698813319672,128.0028049737739 65.68255651835352,129.2605245047016 65.93090909579769,129.88938238704577 66.88292730972171,130.70689575752476 67.50380875368137,130.76978131342912 69.32506098900922,130.64401018887293 69.73898195161019,130.2666965140088 69.94594243285246,129.63783938469714 70.07011872157454,128.31723532723845 70.11151081800926,127.75126046515652 70.02872662537266,127.18528458589572 70.23568710661493,126.61930768980528 70.15290291421115,125.3615776138904 70.19429501041304,125.99044327950105 70.31847129913513,126.55642130546039 70.35986339545343,128.3801213602128 70.27707920293324,128.94609509257134 70.02872662537266,129.51206780815846" stroke="#4dd2ff" stroke-linecap="round" stroke-linejoin="round" stroke-width="0.5"><title>2022-05-04 3.2km</title></polyline><polyline fill="none" points="134.48301186657045,97.75313753125374 134.64858025149442,97.25 134.06909090396948,97.9418138982146 134.85554073285311,97.75313753125374 134.31744348153006,98.25627425900893 132.82732801616658,98.3820583151828 131.66834932100028,98.75941018294543 129.9298812780762,98.63362627726747 130.3851943371119,98.9480859473988 130.13684175955132,99.57700434557046 130.63354691455606,100.01724647718947 130.46797852951568,100.58327117111185 130.59215481823776,101.33796918037115 130.92329158843495,101.90399150105077 131.21303626219742,103.09892417112133 131.21303626219742,103.72783428177354 131.5441730322782,104.23096146649914 131.87530980224255,105.48877591238124 132.20644657243975,107.62704894389026 132.16505447600503,108.19305996381445 132.20644657243975,110.20553535368526 132.33062286116183,110.89732079970418 132.7445438237628,111.463325943565 131.99948609108105,112.53244399602409 130.75772320327815,112.65822235195083 130.4265864333138,112.21799788670614 130.01266547071282,111.7777728062647 129.0192551605869,111.08598929393338 128.43976581294555,110.89732079970418 127.44635550270323,110.14264569239458 126.74268986622337,110.07975601864746 126.32876890373882,110.64576263149502 126.12180842249654,111.21176822722191 126.20459261501674,112.46955479920143 126.5771214812994,113.66444739091094 126.61851357750129,114.35622524074279 126.5771214812994,116.24288438257645 126.61851357750129,117.50065086630639 126.78408196265809,118.82130026930827 126.61851357750129,120.83370776110678 126.74268986622337,121.4625824659015 126.74268986622337,122.1543431909231 126.4529451924609,122.65744094602996 126.37016100005712,123.85229489410995 126.6599056738196,124.98425761199906 126.70129777002148,125.61312403087504 126.82547405885998,126.30487564174109 126.74268986622337,127.49971575534437 126.99104244390037,128.75743729481474 127.19800292525906,130.2038108574634 127.52913969522342,131.39863618311938 127.57053179142531,132.09037508966867 127.9016685616225,133.34807830123464 127.44635550270323,134.7944307871221 126.86686615506187,135.2975083561032 126.37016100005712,135.54904683917994 125.74927955609746,135.80058512158575 125.12839811237063,135.8634696607478 124.54890876472928,136.17789216854726 122.56208814424463,136.4294299488829 119.87160188762937,136.93250490672654 119.20932834746782,137.24692634760868 118.54705480730627,137.3726948358817 117.30529191950336,137.75 116.68441047577653,137.62423166216468 116.39466580189764,137.0582735207281 116.18770532053895,135.73770056987996 115.89796064677648,135.17173903918592 115.6496080692159,133.7882732389553 115.6496080692159,133.0965380607231 115.52543178061023,131.96460449247388 115.60821597301401,131.33575075259432 115.8151764543727,127.56260195167852 115.93935274309479,126.99662573359092 115.98074483929668,125.7388971640321 115.8151764543727,124.98425761199906 115.8151764543727,124.35538993752562 115.6910001655342,123.72652100768755 115.8565685505746,122.4058921689284 115.6496080692159,121.83990668616025 115.02872662537266,121.71413199615199 113.58000325644389,121.27392018618411 112.95912181248423,121.21103273445624 111.63457473216113,121.02237030444667 110.8895169995958,121.02237030444667 110.26863555575255,121.14814527035924 110.26863555575255,122.28011770514422 110.18585136323236,122.97187663492514 110.14445926703047,123.60074707123567 110.22724345943425,124.79559744158178 110.14445926703047,126.05332977735088 110.64116442203522,126.49353490830981 110.55838022963144,127.87703274434898 110.43420394079294,128.56877938410616 110.97230119223241,129.70072515419452 112.0071035985602,130.3924677890609 113.29025858244859,130.64401018887293 114.44923727784771,130.07803950709058 114.82176614401396,129.57495360262692 115.02872662537266,129.0089810001664 115.11151081800926,125.42446423691581 115.31847129913513,123.66363404577714 115.31847129913513,123.03476373493322 115.02872662537266,122.53166658259579 114.44923727784771,122.09145591506967 113.86974793020636,121.83990668616025 112.50380875368137,121.71413199615199 111.84153521351982,121.96568132561515 111.30343796219677,122.28011770514422 110.8895169995958,122.78321525926003 110.64116442203522,123.2863120099064 110.55838022963144,124.5440503715945 110.64116442203522,125.17291766943526 110.59977232583333,126.36776207646471 110.51698813319672,127.62548813523608 110.64116442203522,129.0089810001664 110.97230119223241,129.57495360262692 111.51039844355546,130.14092518857797 112.0898877910804,130.51823901425814 113.41443487128709,130.64401018887293 114.5734135665698,130.45535340791685 114.86315824044868,129.9522681061644 115.07011872157454,129.2605245047016 115.19429501041304,128.56877938410616 115.19429501041304,127.18528458589572 115.27707920293324,126.55642130546039 115.23568710661493,125.99044327950105 115.31847129913513,125.42446423691581 115.27707920293324,123.47497308423044 115.15290291421115,122.90898952228599 114.82176614401396,122.34300494333729 113.78696373768616,121.71413199615199 113.12469019752461,121.58835725605604 111.38622215471696,121.90279401215957 110.64116442203522,122.84610239701578 110.55838022963144,123.66363404577714 110.64116442203522,126.36776207646471 110.55838022963144,127.05951203018776 110.64116442203522,127.75126046515652 110.51698813319672,128.31723532723845 110.43420394079294,128.88320917263627 110.7653407107573,129.3862961816485 111.13786957715638,129.82649665538338 111.67596682859585,130.2038108574634 112.25545617612079,130.58112460785196 112.83494552376214,130.70689575752476 113.45582696760539,130.64401018887293 114.03531631524675,130.70689575752476 114.5734135665698,130.3924677890609 115.11151081800926,129.19763864731067 115.27707920293324,125.92755676951492 115.11151081800926,123.16053789769649 114.98733452917077,122.59455377049744 114.44923727784771,122.1543431909231 113.78696373768616,121.77701934729703 112.54520084988326,121.6512446324632 111.92431940615643,121.77701934729703 111.42761425091885,122.28011770514422 110.97230119223241,122.78321525926003 110.80673280719202,123.47497308423044 110.68255651835352,124.79559744158178 110.72394861455541,125.42446423691581 110.59977232583333,126.68219406189746 110.59977232583333,127.37394332536496 110.51698813319672,128.0028049737739 110.68255651835352,129.2605245047016 110.93090909579769,129.88938238704577 111.88292730972171,130.70689575752476 112.50380875368137,130.76978131342912 114.32506098900922,130.64401018887293 114.73898195161019,130.2666965140088 114.94594243285246,129.63783938469714 115.07011872157454,128.31723532723845 115.11151081800926,127.75126046515652 115.02872662537266,127.18528458589572 115.23568710661493,126.61930768980528 115.15290291421115,125.3615776138904 115.19429501041304,125.99044327950105 115.31847129913513,126.55642130546039 115.35986339545343,128.3801213602128 115.27707920293324,128.94609509257134 115.02872662537266,129.51206780815846" stroke="#4dd2ff" stroke-linecap="round" stroke-linejoin="round" stroke-width="0.5"><title>2022-05-04 3.2km</title></polyline><polyline fill="none" points="174.01877843192779,137.75 170.15849623200484,128.2338725051959 170.66834482434206,98.7992347572872 161.12689259438775,97.25 161.05405708122998,109.20112742178026 163.74897106993012,113.95937495690305 168.70178596768528,112.0782122084347 169.3573055868037,101.34439674435998 166.80806262465194,98.24593712665956 162.07375426613726,100.23780601189355 162.29226080561057,112.2995258042356 164.91433928115293,113.84871850119089 169.0659635339398,111.30361392709892 169.21163456025533,100.23780601189355 165.49702338664792,98.24593712665956 162.1465897790622,100.56978346349206 161.78241221327335,111.30361392709892 163.89464209624566,113.51674900212674 167.02656916389242,113.62740552413743 169.21163456025533,111.30361392709892 169.21163456025533,100.34846518444829 164.55016171513125,98.46725624531973 161.85524772643112,101.67637353288592 162.07375426613726,112.0782122084347 167.8277598095592,113.84871850119089 169.64864763943478,111.85689852409996 169.79431866598316,100.79110165408929 167.53641775646247,98.35659669729648 164.4044906888157,98.24593712665956 161.41823464701883,101.89769128174521 162.1465897790622,111.96755537719582 166.95373365096748,114.18068780144677 169.72148315259255,110.97164290383807 168.9931280205492,99.13121307062102 167.24507570359856,97.91395828334498 162.29226080561057,98.90989421700942 160.98122156807221,109.53309950532275 163.31195799051784,113.84871850119089 168.55611494160257,113.2954358922434 169.86715417914093,104.77481397552765 168.48327942821197,99.24187246413203 163.89464209624566,98.24593712665956 161.5639056735672,103.2255959189497 161.41823464701883,111.41427089087665 163.60330004338175,113.62740552413743 167.7549242961686,113.2954358922434 169.3573055868037,110.63967168185627 169.21163456025533,101.0124197564437 162.29226080561057,100.12714681707439 161.27256362093613,105.10678871019627" stroke="#4dd2ff" stroke-linecap="round" stroke-linejoin="round" stroke-width="0.5"><title>2022-03-10 3.4km</title></polyline><polyline fill="none" points="36.19063734426163,194.13130278413882 33.99455561861396,188.9414724460803 34.11656015901826,164.10362405865453 30.944442110834643,162.4353627389064 25.942255958216265,162.25 26.003258228302002,172.90823727089446 28.016333143459633,176.15200004840153 31.49346254230477,175.78128544939682 32.713507945416495,174.2984240935766 33.20152610656805,164.84507160965586 29.480387627147138,162.8987692623341 26.49127638968639,164.93775247049052 26.369271849282086,174.11306609108578 30.395421679597348,176.15200004840153 32.957517025992274,173.7423498640128 32.957517025992274,164.381667029229 29.480387627147138,163.08413174244924 26.49127638968639,165.1231141362514 26.369271849282086,173.6496707610786 28.99236946599558,176.15200004840153 32.8355124858208,173.9277080144966 33.07952156639658,165.40115649611107 31.49346254230477,163.26949414805858 27.955330873373896,163.45485647997702 26.73528547026217,164.6597098330967 26.369271849282086,173.2789541640086 29.480387627147138,176.24467865176848 32.713507945416495,174.5764609585167 32.957517025992274,165.40115649611107 32.16448751394637,163.73289983911673 29.358383086975664,162.99145051144296 26.49127638968639,165.30847572805942 26.796287740347907,174.66913987661246 30.639430760173127,176.24467865176848 33.384532917058095,173.9277080144966 32.16448751394637,163.3621753231564 28.32134449435398,162.99145051144296 26.49127638968639,165.40115649611107 26.552278659772128,174.11306609108578 28.687358115101233,175.9666427859338 31.554464812390506,176.05932142629172 33.01851929631084,173.55699163943063 32.53050113492645,164.19630506719113 27.40631044190377,163.54753761808388 25.637244607321918,169.20105205941945 25.332233256660402,165.86456005915534 25.637244607321918,162.25 34.055557888932526,162.71340670844074 34.42157150967978,182.639457613579 35.76362145319581,192.55582470688387 39.6677667433396,201.3598983674019 39.057744041783735,202.75" stroke="#4dd2ff" stroke-linecap="round" stroke-linejoin="round" stroke-width="0.5"><title>2022-03-08 3.7km</title></polyline><polyline fill="none" points="87.97806729364675,165.24094895710004 87.56796681252308,164.61783695485792 89.08533859276213,165.11632665627985 88.83927830425091,163.55854369571898 90.23361994011793,163.18467462834087 89.16735868912656,162.25 88.34715772676282,164.74245945486473 89.00331849663053,162.49924684129655 88.9623084483901,163.93241231539287 85.06635387742426,164.18165781287826 84.77928354067262,165.61481556139188 85.845544791664,168.10724814407877 86.4606955134077,177.2044581572991 84.73827349254861,177.2667669005168 80.96534906583838,174.71209822490346 80.67827872897033,175.33519007399445 81.0063591140788,188.66905750031583 82.31868065369781,198.8248453750275 79.77605767047498,200.50706054430339 71.73808823968284,202.75 70.09768631507177,198.70023648324423 70.42576670006383,186.86216490756487 64.84840015613008,186.05217517720303 64.9714303005021,192.84356245447998 66.44779203273356,195.0865569821326 68.21122410183307,195.21116731662187 69.52354564145207,194.08967251543072 69.6465757858241,187.92137907541473 68.41627434233669,186.61293752220809 67.10395280248486,186.55063064483693 65.38153078174219,188.23291197020444 65.5455709741218,194.4011992532469 67.47304323560093,195.21116731662187 69.52354564145207,194.21428324774024 69.56455568945967,188.2952185117756 68.37526429421268,186.79985807990306 65.58658102224581,187.54753919132054 65.50456092611421,193.2173959952197 67.02193270635325,195.02425179613056 69.68758583383169,193.8404509011889 69.6465757858241,188.66905750031583 68.58031453471631,186.7375512396684 65.79163126286585,187.11139209399698 65.34052073361818,193.59122908796417 66.85789251397364,195.27347246510908 69.48253559332807,193.96506173320813 69.6465757858241,187.98368567915168 69.19546525657643,186.92447172291577 67.47304323560093,186.42601685246336 65.5455709741218,187.79676583048422 65.34052073361818,193.7158400194894 66.44779203273356,195.14886215567822 67.80112362059299,195.27347246510908 69.6465757858241,193.8404509011889 69.6465757858241,188.1706054158858 68.58031453471631,186.79985807990306 65.79163126286585,187.23600561261992 65.01244034862611,190.72516393320984 64.76638005988207,185.927561185963 70.58980689244345,185.49141182482708 73.25546001992188,170.16349004025687 74.36273131903727,169.7273186489183 78.54575622698758,171.97047931072302 79.61201747797895,171.47200055685244 79.89908781484701,169.35345697111916 85.39443426241633,169.7896288849588 86.87079599453136,168.4811113147589 89.65947926649824,169.2288363124535 89.33139888150617,163.55854369571898 89.00331849663053,165.05401548725786 87.44493666815106,164.8670819051331" stroke="#4dd2ff" stroke-linecap="round" stroke-linejoin="round" stroke-width="0.5"><title>2021-12-30 4.7km</title></polyline><polyline fill="none" points="129.0270576728508,202.75 124.08023501560092,190.3289417414635 125.45435242028907,163.5026243282482 116.24776580813341,162.25 116.17905993806198,174.77610825138981 118.72117713675834,177.59444125561276 121.81294129765593,177.49005882247002 123.87411740468815,175.08925711302436 124.21764675620943,165.2771703231556 121.0571767250076,162.87631253930158 117.34705973207019,164.12893536692718 116.24776580813341,174.56734223940293 119.13341235835105,177.38567636880907 121.40070607629605,177.59444125561276 123.59929392393678,175.61117146571632 124.14894088567235,165.17278543140856 121.95035303803161,163.08508321875706 117.96541256434284,163.7113947579346 115.97294232714921,173.94104370317655 118.2402360450942,177.49005882247002 122.08776477840729,177.0725288821268 124.14894088567235,174.9848741798487 124.21764675620943,165.79909446992679 121.60682368674316,162.98069788943394 116.66000102972612,164.44209060521098 116.31647167820483,174.9848741798487 119.33952996903099,177.49005882247002 123.59929392393678,175.50678863702342 124.08023501560092,165.17278543140856 120.09529454167932,162.4587709295447 116.79741277033463,164.5464756428264 116.24776580813341,174.9848741798487 118.17153017478995,177.28129389428068 123.18705870234407,176.13308529782807 124.42376436688937,166.1122487077664 123.7367056645453,164.12893536692718 120.64494150341488,163.08508321875706 117.14094212139025,164.85963063072995 116.45388341881335,175.50678863702342 118.5150595260784,177.49005882247002 122.56870587030426,177.1769113986229 123.87411740468815,175.61117146571632 124.14894088567235,166.00786398243508 122.43129412969574,162.87631253930158 116.38517754874192,163.7113947579346 116.38517754874192,175.81993706105277" stroke="#4dd2ff" stroke-linecap="round" stroke-linejoin="round" stroke-width="0.5"><title>2021-12-27 3.1km</title></polyline><polyline fill="none" points="174.07135023130104,202.75 176.42711729556322,164.6988865841995 158.57288270490244,162.25 161.052637509536,187.8688066584873 165.14423293620348,191.8245898137102 170.72368124546483,192.20133020123467 174.4433134519495,188.4339195523644 173.94736249139532,169.40826599829597 166.38411033852026,164.51051091839327 160.92864976869896,168.0896421315265 162.78846587240696,187.11532227188582 167.62398774037138,192.20133020123467 173.8233747505583,188.99903210881166 173.3274237900041,169.40826599829597 167.12803677935153,165.07563780184137 161.052637509536,168.27801708236802 163.28441683296114,189.3757736250409 169.9797548041679,192.38970033958321 174.19533797120675,188.81066129467217 173.3274237900041,169.97338994854363 167.37601226009429,165.07563780184137 163.5323923137039,165.45238886983134 160.43269880814478,169.78501533623785 161.54858847009018,187.8688066584873 167.87196322064847,191.63621956296265 174.07135023130104,188.99903210881166 173.8233747505583,170.53851356066298 166.50809807842597,165.26401335507398 160.55668654851615,169.59664068586426 161.54858847009018,187.11532227188582 167.12803677935153,191.63621956296265 172.4595096083358,190.88273818517337 174.81527667259797,185.41998020425672 173.45141153037548,169.40826599829597 165.5161961563863,164.8872622117633 161.6725762099959,166.39426588092465 160.68067428842187,170.35013906122185 161.6725762099959,187.8688066584873 169.9797548041679,192.7664405014366 174.4433134519495,186.73857985367067 173.2034360500984,168.46639199584024 168.6158896619454,164.8872622117633 163.0364413522184,165.26401335507398 159.44079688657075,171.85713400540408 161.052637509536,188.81066129467217 168.98785288259387,192.0129600262735 174.56730119185522,186.92695108160842 174.81527667259797,169.21989127324196 166.1361348577775,163.94538369652582 160.43269880814478,167.3361419517314 160.43269880814478,186.92695108160842 166.0121471178718,191.8245898137102 173.94736249139532,187.11532227188582 173.69938701065257,170.16176452307263 172.08754638768733,166.7710164221935 165.26822067657486,164.6988865841995 160.0607355874963,168.65476687141927" stroke="#4dd2ff" stroke-linecap="round" stroke-linejoin="round" stroke-width="0.5"><title>2021-12-07 3.6km</title></polyline><polyline fill="none" points="35.87664798856713,247.0143787494453 34.09946483653039,228.65405073013972 26.848557576769963,227.25 25.497898381203413,230.3821081648639 26.208771641831845,242.37035464899964 30.118574576452374,244.4223702136369 33.246416923822835,243.55836460893624 34.24163948884234,241.50634576720768 33.60185355390422,230.4901115714456 27.417256185319275,229.08606560630142 25.71116035943851,235.45824495877605 27.559430837398395,243.77436613920145 32.60663098888472,244.2063689417264 34.38381414115429,237.1862806606514 33.03315494558774,230.05809781627613 27.417256185319275,229.95009432375082 26.1376843159087,238.59030560415704 27.985954794101417,243.4503638111055 30.545098532922566,245.39437487002579 33.388591575669125,244.63837139925454 33.88620285852812,233.7302037377085 32.60663098888472,230.59811495634494 27.417256185319275,229.51808013761183 25.640073033282533,234.48622245099978 27.985954794101417,244.53037081705406 33.246416923822835,244.3143695886247 33.60185355390422,231.24613481250708 30.75836051092483,229.4100765369658 27.559430837398395,230.05809781627613 25.924422337673604,233.5141981971974 28.057042120024562,244.2063689417264 32.39336901064962,244.4223702136369 33.74402820621617,242.80235857286607 34.24163948884234,233.29819256989867 31.39814644563012,229.51808013761183 27.417256185319275,230.1661012872937 26.1376843159087,231.89415389235364 26.42203362006694,241.8303492598643 29.407701315591112,244.85437249872484 32.67771831504069,244.3143695886247 33.81511553237215,242.80235857286607 34.17055216291919,232.75817812551395 32.037932380568236,230.05809781627613 29.194439337356016,229.4100765369658 26.493120946455747,232.6501751714095 26.56420827237889,242.9103594997141 30.47401120653376,244.63837139925454 34.02837751060724,241.61434695281787 33.60185355390422,231.89415389235364 28.83900270680897,229.73408727359492 26.493120946455747,233.29819256989867 27.48834351147525,243.55836460893624 30.33183655468747,244.74637195991818 33.95729018445127,242.69435762416106 33.88620285852812,232.32616618130123 32.53554366296157,230.1661012872937 29.549875967670232,229.51808013761183 26.990732229081914,231.13813155685784 25.924422337673604,234.0542118869489 25.640073033282533,243.34236299208715 25.497898381203413,228.43804316292517 34.881425423547626,228.11403164989315 35.52121135802008,252.1983585668204 39.502101618563756,267.75" stroke="#4dd2ff" stroke-linecap="round" stroke-linejoin="round" stroke-width="0.5"><title>2021-12-06 4.4km</title></polyline><polyline fill="none" points="89.10594194813166,227.25 83.96438486990519,228.84277819143608 82.71643412287813,230.96647205823683 76.82610659650527,231.34570185656776 72.73282814584672,237.71670586511027 71.48487739881966,243.70838595039095 72.43331996642519,251.21681365650147 71.03561512974557,257.89084703836124 66.54299244005233,256.1465087218385 62.649386109085754,256.2223496848601 62.449713989626616,264.4889238771575 64.04709094576538,267.21912905041245 66.64282849989831,267.5983226613025 68.93905787472613,265.7781898762041 69.08881196414586,258.6492525038193 67.19192682858557,256.5257133851701 65.5945498724468,256.2981906327477 63.497992617078125,258.042528252583 63.14856640796643,265.7023508209677 65.29504169302527,267.75 67.64118909765966,267.5224839694274 68.88913984468672,265.7023508209677 68.93905787472613,259.1801354287891 66.49307441024575,256.5257133851701 63.39815655723214,258.1183688369347 62.84905822854489,265.17147701006616 65.5945498724468,267.674161338422 68.48979560565203,266.0815459458099 68.93905787472613,258.8767738483439 67.44151697808411,256.8290768431034 65.24512366298586,256.2223496848601 63.44807458727155,257.89084703836124 63.09864837815985,265.3989944483619 66.09373017121106,267.75 68.43987757584546,266.384901773592 68.68946772522759,258.2700499603525 65.69438593205996,256.3740315652976 63.497992617078125,258.1183688369347 63.44807458727155,264.7922809764568 64.54627124464605,266.9157738889335 66.19356623094063,267.3708065401006 68.43987757584546,266.1573849255219 68.93905787472613,258.1183688369347 66.84250061947387,256.2223496848601 65.09536957356613,257.0565992775955 63.6477467068471,258.7250929669535 63.24840246781241,261.6070193531341 62.94889428850729,257.8150064086367 70.63627089071088,255.31225713077583 73.33184450457338,238.47515160634066 76.67635250685271,235.2896693177754 83.36536851141136,233.01430847193114 89.4054501275532,234.83459823887097 86.65995848365128,231.5732395539526 90.05438451608643,228.46354589422117 92.55028601025697,228.3876993895392" stroke="#4dd2ff" stroke-linecap="round" stroke-linejoin="round" stroke-width="0.5"><title>2021-11-11 3.8km</title></polyline><polyline fill="none" points="136.61761553172255,229.07270848017652 137.79500911658397,227.68880198559782 136.95084013114683,227.25 135.04035242745886,227.31750807183562 133.28536953678122,228.498894967066 130.8417224738514,229.0389547979721 129.3311042895075,231.0304105146788 128.44250535755418,231.26668336502917 124.46602513699327,228.80267883419583 120.60061978292651,229.07270848017652 115.58003581722733,228.36387973971432 114.53593207214726,228.66766384955554 113.5140433004126,230.86164399077825 112.5587994485395,231.50295588518202 111.87013527628733,234.641973746242 113.91391281981487,247.9737120141217 113.73619303340092,259.5157857096201 116.33534490945749,267.1425716615777 113.29189356742427,267.75 112.31443474226398,265.2190341938549 109.89300265262136,253.5086059121677 107.20499088341603,248.10871158199734 107.98251494881697,247.50121267749637 109.87078767933417,247.33246259433508 113.62511816690676,248.04121181154915 112.62544436845928,238.4897225847235" stroke="#4dd2ff" stroke-linecap="round" stroke-linejoin="round" stroke-width="0.5"><title>2021-11-07 3.5km</title></polyline><polyline fill="none" points="182.63603081839392,227.25 181.60602706146892,227.32549719445524 178.44064966205042,230.98707565123914 176.20478784828447,230.23211671039462 172.86355614895,235.25253814589814 173.0142884060624,236.6114267357043 169.17061584966723,239.10269761568634 163.9703529793769,243.78318012053205 158.06667290901532,251.5585693201865 156.78544872358907,254.84225604942185 152.89153208152857,260.39042728368076 152.51470143877668,261.8623642927996 152.9417761673103,263.7494465899945 154.6249530383502,266.0516619900882 157.68984226626344,267.4480743355816 160.2271685943124,267.75 157.33813366637332,267.52355579609866 154.07226809556596,265.4478048715973 152.99202025291743,264.01363663823577 152.3639691816643,261.9755897513387 152.69055573875085,260.57913778450165 156.81057076650904,255.03097197879106 157.11203528067563,252.95508660057385 161.00595192273613,247.40670146881894 164.5481599648483,243.17925327683042 172.88867819186999,236.23395864333725 176.00381150539033,230.0811245675286 176.65698461956345,229.89238422267954 178.41552761924686,231.13806708468474 181.85724748997018,227.36324578060885 182.4350544756162,227.32549719445524 182.00797974714078,227.70298272378568" stroke="#4dd2ff" stroke-linecap="round" stroke-linejoin="round" stroke-width="0.5"><title>2016-05-06 3.5km</title></polyline></svg>