<?xml version="1.0" encoding="utf-8" ?>
<svg baseProfile="full" height="300mm" version="1.1" viewBox="0,0,200,300" width="200mm" xmlns="http://www.w3.org/2000/svg" xmlns:ev="http://www.w3.org/2001/xml-events" xmlns:xlink="http://www.w3.org/1999/xlink"><defs /><rect fill="#222222" height="300" width="200" x="0" y="0" /><text fill="#FFFFFF" style="font-size:12px; font-family:Arial; font-weight:bold;" x="10" y="20">Over 3kms Workouts</text><text fill="#FFFFFF" style="font-size:4px; font-family:Arial" x="10" y="280">ATHLETE</text><text fill="#FFFFFF" style="font-size:9px; font-family:Arial" x="10" y="290">underwindfall</text><text fill="#FFFFFF" style="font-size:4px; font-family:Arial" x="120" y="280">STATISTICS</text><text fill="#FFFFFF" style="font-size:3px; font-family:Arial" x="120" y="285">Number: 20</text><text fill="#FFFFFF" style="font-size:3px; font-family:Arial" x="120" y="290">Weekly: 1.8</text><text fill="#FFFFFF" style="font-size:3px; font-family:Arial" x="141" y="285">Total: 77.7 km</text><text fill="#FFFFFF" style="font-size:3px; font-family:Arial" x="141" y="290">Avg: 3.9 km</text><text fill="#FFFFFF" style="font-size:3px; font-family:Arial" x="167" y="285">Min: 3.0 km</text><text fill="#FFFFFF" style="font-size:3px; font-family:Arial" x="167" y="290">Max: 5.3 km</text><polyline fill="none" points="33.013548586168326,35.501725953494315 33.35591431031935,35.29361696149863 33.84806503879372,35.11152142864012 34.040645758621395,34.92942574204062 34.12623718963005,34.90341206001176 34.23322647844907,34.92942574204062 34.490000771475025,35.13753508563968 34.01924790092744,34.85138468645164 33.441505741444416,34.773343602588284 33.07774215948302,34.591247630363796 32.927957155159675,34.33111026031838 32.735376435332,33.706779291591374 32.692580719827674,33.42062699336384 32.75677429314237,33.36859926197212 33.869462896487676,32.77027944846486 35.089140788652,32.25 35.26032365078572,32.25 35.49570008611772,32.32804199734528 35.77387223695405,32.56216781977855 36.20182939211372,33.36859926197212 36.522797258454375,33.91488981540897 36.758173693786375,34.17502768764098 36.929356555920094,34.695302490421454 37.20752870675642,35.267603323358344 37.27172228007112,35.501725953494315 37.656883719726466,36.17807879016618 38.0420451592654,37.2446308752551 38.42720659903716,37.842938271394814 38.726776607567444,38.41523074886936 38.919357327511534,39.065561265611905 38.962153042899445,39.507784896486555 39.004948758520186,39.61183738370892 39.47570162918419,39.97602069354616 39.75387378002051,40.52229450478626 40.053443788550794,41.53679933933017 40.90935809887014,43.66984521626728 41.05914310330991,44.34617242946115 41.14473453420214,44.58028520134394 41.38011096965056,45.02249752120406 41.52989597385749,45.41268410910561 41.872261698008515,46.06299351979396 42.129035991150886,46.713300969146076 42.55699314631056,47.49366731928603 43.09193959028926,48.79427162661159 43.862262469599955,50.40701007237658 44.18323033594061,51.317421610234305 44.20462819363456,51.55152681293839 44.097638904931955,51.863666687873774 44.11903676262591,51.96771321239066 44.2474239092553,52.04574807290919 44.2474239092553,52.0977712974709 43.15613316348754,53.060198689083336 40.52419665933121,54.98504058533581 39.41150805586949,55.869421641735244 38.08484087488614,56.80582115969446 32.307419280172326,61.227652834772016 25.010749784647487,66.61176075261028 24.539996913983487,67.10594749767915 23.87666332349181,68.14633694352233 23.405910452711396,68.71854899929895 23.17053401749581,69.16071182079031 22.97795329755172,69.39479765335273 22.229028276051395,70.56522300503275 21.030748241581023,72.3078445373394 20.880963237257674,72.67197263124399 20.816769664059393,72.75 20.752576090744697,72.75 20.795371806249022,72.64596350210195 21.758275405387394,71.24146586858842 22.057845413917676,70.85132601382793 23.277523306314833,68.90061615323066 24.753975491505116,66.84584935194289 24.989351926837116,66.55974102939945 26.89376126730349,65.12919372273609 28.32741773710586,64.08878972107777 29.033547043218277,63.62060628279869 33.95505432749633,59.87510218335956 34.6825814913027,59.38089886758826 35.51709794392809,58.730629621320986 36.00924867228605,58.26243454980431 36.67258226289414,57.846260299527785 37.870862297248095,56.909865299618104 38.17043230589479,56.72778802186076 39.39011019805912,55.73936583142495 40.60978809033986,54.88099551672349 41.658283120486885,54.1006559018133 42.17183170665521,53.63245077736792 43.43430531444028,52.67002593996585 43.73387532297056,52.40991038166976 43.94785390049219,52.149794509547064 44.140434620319866,52.04574807290919 44.054843189311214,51.78563176144962 44.097638904931955,51.65557348811126 44.097638904931955,51.55152681293839 43.88366032729391,51.083316153337364 43.92645604291465,50.71915160413482 43.88366032729391,50.53706909887842 43.19892887910828,49.314511152901105 42.749573866138235,48.24801877311256 42.53559528850019,47.85783731612901" stroke="#4dd2ff" stroke-linecap="round" stroke-linejoin="round" stroke-width="0.5"><title>2022-07-08 4.2km</title></polyline><polyline fill="none" points="94.79306093521882,68.84039795660647 95.035770562361,68.39779834789806 95.06610926578287,67.95519809835241 94.94475445209537,67.54948064006749 94.85373834194615,67.36506343545625 94.7020448250696,67.2912965224823 94.45933519792743,67.2912965224823 93.24578706210013,67.84454793587793 91.03106171428226,68.65598153081373 89.90852968860418,69.17234724242007 85.1756919589825,71.42221623411751 83.81045030627865,72.23364033194957 82.80927309417166,72.75 82.5362247636076,72.71311719546793 82.3238538398873,72.52870310621802 81.9901281024795,72.0123430643871 81.65640236518811,71.42221623411751 80.20014460233506,67.91831471535261 79.56303183094133,66.5905099613301 78.31914499169216,63.492276437347755 77.65169351699296,61.98003200290259 77.56067740684375,61.648074905970134 77.59101611026563,61.42676997440867 78.16745147469919,60.947275406477274 77.65169351699296,61.05792806582758 77.34830648323987,61.02104385054554 77.0752581525594,60.83662270702189 76.86288722872268,60.50466436846182 76.01340353372507,58.73421380663058 74.86053280474152,56.63179044474964 74.25375873688608,55.23016683559399 73.49529115192126,53.238374860491604 72.88851708394941,52.058047564991284 72.34242042305414,50.54574655587203 71.64463024493307,48.996552397467894 70.91650136339013,47.631779608665965 70.03667896485422,45.56616595789092 68.85346953256521,43.16856117764837 68.6410986087285,42.91035646403907 68.58042120200116,42.68903796444647 68.61075990542304,42.46771930452087 68.76245342229959,42.320173442334635 70.24904988869093,41.50866992640658 71.37158191436902,40.660277583257994 73.76833948248532,39.44301489004283 75.04256502515636,38.92659894929966 76.74153241526801,37.9675384585571 78.16745147469919,36.787152184406295 78.80456424609292,36.19695733752451 78.95625776296947,35.93874673364917 79.01693516969681,35.68053591158241 78.98659646650776,35.42232487138244 78.89558035635855,35.05345157830743 77.68203222053126,32.729539593245136 77.46966129657812,32.434438394149765 77.19661296613049,32.25 76.92356463556644,32.25 75.8617100167321,32.61887667697738 75.25493594887666,32.91397769804462 74.5571457707556,33.393516249372624 73.3435976349283,34.610803038813174 72.40309782978147,35.127226272481494 71.4929367279401,35.717423185298685 71.37158191436902,35.97563397616614 71.34124321083073,36.565829250379466 71.21988839725964,36.75026503985282 70.97717877023388,36.75026503985282 70.15803377854172,36.233844548871275 69.88498544797767,36.27073175582336 69.15685656643473,37.22979757146095 68.4287276850082,37.819990423624404 66.85111510846764,38.81593827705365 66.36569585406687,38.963485831191065 65.94095400674269,39.03725958141149 65.06113160820678,39.00037270854227 63.90826087910682,38.668390651699156 63.69588995538652,38.77905137732159 63.30148681125138,38.852825172274606 63.18013199768029,38.81593827705365 62.99809977726545,38.70527756478987 62.84640626027249,38.48395601985976 62.63403533655219,38.078199437994044 62.300309599144384,36.787152184406295 62.23963219241705,35.97563397616614 62.33064830256626,34.50014080380788 62.20929348911159,33.65172900381731 62.087938675424084,33.28285357358982 61.93624515843112,33.09841569146374 61.45082590414677,32.87709008593811 60.63168091245461,33.06152810170897 60.20693906501401,33.28285357358982 60.02490684459917,33.54106642160332 59.964229437871836,33.76239154612995 59.933890734333545,34.13126639756956 59.9945681411773,34.68457783991471 60.26761647174135,35.49609947655699 60.84405183629133,36.565829250379466 61.84522904828191,37.672442317416426 62.512680522864684,38.078199437994044 63.11945459083654,38.852825172274606 63.42284162493888,39.184807028766954 63.78690606553573,39.40612806600984 64.87909938779194,39.92254319644417 65.39485734549817,40.365184042195324 65.576889565913,40.58650422471692 65.9106153032044,41.50866992640658 66.24434104049578,42.13574101423728 66.85111510846764,42.799697234208 67.09382473560981,42.94724286501878 67.33653436275199,43.02101565364865 67.73093750688713,42.94724286501878 68.51974379527383,42.430832845682744 70.27938859211281,41.545556496595964 71.28056580410339,40.7709375875711 72.34242042305414,40.070090216206154 74.86053280474152,39.00037270854227 75.95272612699773,38.29952127666911 76.86288722872268,37.85687743901508 78.47083850868512,36.45516772332485 78.50117721199058,36.38139334967127 78.41016110195778,36.086295676912414 78.07643536454998,35.68053591158241 77.74270962725859,35.5698740639491 76.62017760158051,35.93874673364917 75.80103261000477,36.307618958177045 74.58748447417747,36.233844548871275 73.85935559263453,36.49205490347231 73.73800077917986,36.676490737416316 73.64698466903064,36.971587840263965 73.85935559263453,37.672442317416426 73.85935559263453,38.22574734830414 73.73800077917986,38.55772988588433 73.37393633846659,39.147920173592865 73.31325893150643,39.44301489004283 73.131226711208,39.70122253312729 72.73682356707286,40.03320346787223 71.55361413478386,40.697164255805546 70.49175951583311,41.50866992640658 69.36922749027144,42.06196801183978 68.61075990542304,42.50460575893521 68.39838898158632,42.72592439208529 68.36805027816445,43.02101565364865 68.45906638843007,43.279220273776446 68.73211471887771,43.64808363842894 69.12651786312927,44.75467106109136 70.4007434056839,47.66866543987999 71.79632376180962,50.47197558361222 72.13004949921742,51.430996835260885 72.82783967722207,52.832637866871664 73.131226711208,53.8285367989738 73.61664596560877,54.9350873620715 74.04138781304937,56.115403547126334 74.70883928774856,57.406369155301945 75.37629076244775,58.40225318461307 75.89204872015398,59.361249553388916 76.40780667786021,61.02104385054554 77.04491944913752,62.680829134449596 77.92474184755702,64.45125683635706 78.44049980526324,65.88972179353004 79.10795128007885,67.2175295916386 80.04845108522568,69.61494572952506 80.41251552593894,70.42637462480343 80.71590256004129,70.79520522878738 81.29233792447485,70.86897129612043 81.47437014488969,71.01650337758474 82.08114421274513,72.23364033194957 82.26317643315997,72.49182027505594 82.50588606018573,72.63935157310334 82.7789343908662,72.67623438648297 83.17333753488492,72.52870310621802 83.78011160274036,72.23364033194957 84.47790178086143,71.79104563654982" stroke="#4dd2ff" stroke-linecap="round" stroke-linejoin="round" stroke-width="0.5"><title>2022-07-05 5.3km</title></polyline><polyline fill="none" points="124.19696994230617,34.60030383049161 124.30437310319394,34.704761186105316 124.49769879272208,34.9920186540985 124.36881499981973,34.9920186540985 124.21845057455357,34.809218491311185 124.06808614928741,34.730875517154345 123.6599541377509,34.704761186105316 123.42366718384437,34.62641817408439 123.10145770106465,34.39138896802615 122.95109327579848,34.18247390385659 122.75776758627035,33.84298649447737 122.65036442526616,33.55572750142892 122.62888379313517,33.34681163055939 122.75776758627035,33.19012459507212 123.359225287335,32.90286473539891 123.93920235615224,32.720062808002695 124.64806321810465,32.35445849002281 125.07767586177215,32.25 125.44284660881385,32.30222925130511 125.67913356272038,32.40668771606579 125.78653672372457,32.5111461305205 126.30207189603243,33.39904061719426 127.16129718325101,34.57418948371196 127.39758413715754,35.38373276867787 127.65535172342788,35.80156037621782 127.84867741295602,36.32384375123365 127.99904183822218,37.028924308222486 128.08496436697897,37.159494529652875 128.3856932175113,37.78623049608723 128.57901890715584,38.073483874162775 129.82489557366353,40.658747120702174 130.06118252757005,41.57272168810596 130.79152402176987,43.27009278812329 130.94188844691962,43.740131662401836 131.0492916079238,44.340735405057785 131.17817540094256,44.654093217963236 131.4789042514749,45.22858136323339 132.66033902135678,47.81375914803357 133.0040291362675,48.67547821496555 133.69140936608892,50.033331601007376 133.92769631999545,50.66003029081912 133.94917695224285,50.84281706689217 133.92769631999545,50.97337895529927 134.07806074537802,51.23450249590678 134.1854639062658,51.57396262764814 134.1854639062658,51.70452407511766 134.1425026418874,51.96564673363173 134.1854639062658,52.200656857021386 134.099541377509,52.35733013082063 133.3477192511782,52.98402209216147 132.53145522845443,53.53237607004121 129.22343787248246,56.091342932981206 127.5694291946711,57.214145375211956 125.2710015514167,58.98972804816731 122.58592252875678,60.974185565675725 121.68373597715981,61.67918583074061 116.42098109296057,65.56970155435556 115.06770126556512,66.64023388312489 114.50920482887886,67.26688449722133 113.2418475302402,69.04238472033467 112.16781592124607,70.63510047191812 110.81453609385062,72.75 110.90045862249099,72.69778050736932 111.3085906340275,72.01892595637764 111.95300959935412,71.15729980706237 112.72631235793233,69.90401928663778 113.09148310509045,69.43403722101357 113.90774712781422,68.18074672474177 114.22995661059394,67.6063194892049 114.83141431154218,66.84911762269621 115.73360086325556,66.11802365236508 118.95569569035433,63.74195119741489 119.53567275917158,63.298066638977616 120.07268856372684,62.801959290736704 122.30667431035545,61.26140817310079 123.23034149419982,60.50418411348073 125.70061419496778,58.67639098771906 126.17318810289726,58.258607534866314 127.01093275786843,57.73637708497699 127.80571614869405,57.16192213486647 128.51457701064646,56.48301886492118 129.8463762057945,55.569107254515984 131.15669476881158,54.550744057720294" stroke="#4dd2ff" stroke-linecap="round" stroke-linejoin="round" stroke-width="0.5"><title>2022-07-01 3.7km</title></polyline><polyline fill="none" points="171.2554331984138,33.27165923303983 171.90322354034288,32.97367590133217 172.06079416407738,32.99496044169064 172.28839617606718,33.12266763011576 172.34091971733142,33.10138310509501 172.76110804727068,32.888537714097765 173.30385130667128,32.441561556988745 173.58397685998352,32.31385387547198 173.8991181073361,32.25 173.9866573428153,32.31385387547198 174.12672011944233,32.50541536304809 174.38933782553067,33.03752951478236 174.58192414348014,33.31422823933826 174.72198692004895,33.59092652985419 175.17719094414497,34.82542130725051 175.7724577448098,35.86834981791617 176.0000597568578,36.42173795233248 176.07009114517132,36.76228363363771 176.14012253348483,36.9751243507053 176.2451696159551,37.145396739360876 176.4727716280031,37.44337302412896 176.66535794583615,37.82648465076636 176.80542072252138,38.40115053055342 177.06803842866793,39.08223359359545 177.47071891155792,39.97615112333733 177.6457973822835,40.699795329768676 177.803368006018,41.104183446383104 177.8733993943315,41.35958598981961 178.06598571216455,41.78525607381016 178.22355633589905,42.27477540062682 179.886801808374,45.7865046604129 179.95683319674572,45.9780515187158 179.93932534963824,46.16959816907183 180.16692736162804,46.61653954444046 180.16692736162804,46.722953990800306 180.114403820422,46.87193410782493 180.21945090289228,47.02091409899003 180.201943055843,47.08476262811746 179.58916840801248,47.59555002943671 178.67876035999507,48.276597597505315 177.8733993943315,48.9363599219796 176.7879128753557,49.72381495065929 175.63239496812457,50.617678561931825 174.9145732379984,51.10717338245013 173.54896116576856,52.171287872377434 171.1854018101585,53.95898576786567 170.0999152911827,54.70385454517964 169.18950724310707,55.47000200704497 168.4716855129227,55.980765133324894 167.80638732388616,56.55537188316521 167.10607344069285,57.00228695044643 166.9309949699673,57.151258387981215 166.68588511087,57.25766648068384 166.03809476894094,57.78970598144224 164.93510040297406,58.598402950301534 164.56743561424082,58.832498749558 164.3573414493003,59.0240314451803 164.112231590203,59.343252142556594 163.79709034279222,59.85400405719702 163.23683923628414,60.59884794932441 162.81665090634488,61.27984532783739 162.4139704235131,61.79059163693455 160.41807585651986,64.8550384475966 159.71776197338477,65.72754482040182 158.98243239609292,66.40852240653476 158.56224406621186,66.85541251934774 155.1832295799395,71.17529193212977 155.0431668033125,71.51577054275549 154.97313541494077,71.83496864371409 154.8680883325287,72.04776705689437 154.78054909710772,72.43080355413258 155.02565895626321,72.49464288941817 155.16572173294844,72.34568440435396 155.1832295799395,72.23928540945053 155.200737427047,72.28184501512442 155.28827666240977,72.324404610481 155.4983708274085,72.09032670878514 155.51587867445778,72.09032670878514 155.51587867445778,72.13288635034405 155.5859100627713,72.13288635034405 155.60341790987877,72.15416616732546 155.5859100627713,72.21800560274278 155.14821388578275,72.75 155.200737427047,72.72872025491961 155.16572173294844,72.72872025491961 155.1832295799395,72.6861607570172 155.55089436861454,72.23928540945053 155.69095714524155,71.98392755989335 155.8135120747611,71.85624849659507 156.3562553342199,71.21785179432482 156.75893581705168,70.64329278781952 157.80940664181253,69.30264783122402 158.05451650096802,68.9408847487939 158.3871655954281,68.6004011703044 158.66729114868212,68.17479577328777 159.19252656103345,67.57894649299851 159.8578247500118,66.66388832386292 161.4685466812807,64.64223136082 161.52107022248674,64.53582772122172 161.50356237543747,64.42942401742039 161.3284839046537,64.25917795790883 161.15340543386992,64.00380856063566 161.1709132809192,63.87612372341391 161.34599175181938,63.493068657422555 162.01128994079772,62.53542735452356 162.30892334110104,62.045964237171574 162.7116038238746,61.51393756971811 163.07926861254964,60.896784625801956 163.60450402495917,60.1732232531067" stroke="#4dd2ff" stroke-linecap="round" stroke-linejoin="round" stroke-width="0.5"><title>2022-06-30 3.9km</title></polyline><polyline fill="none" points="21.884709876030684,89.12372869433602 22.81194907356985,91.45586176760844 23.547345678554848,92.93287064926699 25.11406018480193,96.31441811856348 25.56169290083926,97.13064839731669 25.68958796269726,97.24725255405065 25.785509258974344,97.28612059695297 25.817483024322428,97.05291226945701 25.65761419723276,96.50875884870766 24.76234876504168,94.4876095255604 24.69840123434551,94.17666235048091 24.73037499957718,93.90458332610433 24.986165123060346,93.59363558833138 25.56169290083926,93.24381902479217 26.90459104895126,92.58305336814374 28.854990740539506,91.72794285984128 29.398544752853923,91.41699302132474 29.46249228378292,91.14491166648804 29.430518518434837,90.87283008176018 28.91893827135209,89.70676354519674 28.759069444262423,89.27920475765131 28.791043209726922,89.0071215974749 28.91893827135209,88.77390727723832 29.14275462948717,88.57956188148819 29.750256172614172,88.22973987358273 32.787763888947666,86.71384011692135 34.162635802524164,85.9364528595761 35.82527160504833,84.61489021690795 39.72607098799199,81.23321994775324 40.14172993856482,81.03887000310351 40.42949382739607,81.0 40.621336420066655,81.15547998389229 40.84515277808532,81.58304955271888 41.35673302505165,83.09897345132777 42.4438410497969,85.54775852739112 42.891473765834235,86.98592521387036 43.147263889200985,87.64670234970981 46.88819444493856,96.08120908765704 47.463722222833894,97.86914067735779 47.55964351911098,98.68536701751873 47.463722222833894,98.87970631761709 47.112010803073645,99.22951676216326 45.83306018577423,100.16234275791794 42.891473765834235,102.45552851716639 38.319225308834575,105.7592420191213 36.20895679027308,107.39165265741758 34.29053086426575,108.98518839874305 31.892498456756584,110.77304838600685 31.60473456780892,111.16171228792518 31.57276080234442,111.82243984541856 31.22104938258417,112.63863083993783 30.997233024565503,113.49368585500633 30.645521604688838,113.84348043444334 27.480118826846592,116.17543459378066 26.936564814532176,116.60295769246295 26.90459104895126,116.64182340051048 26.968538579996675,116.60295769246295 26.90459104895126,116.64182340051048 26.90459104895126,116.60295769246295 26.968538579996675,116.60295769246295 26.90459104895126,116.6806891039887 26.552879629307427,116.83615187075338 25.178007715614513,117.92438913852675 24.76234876504168,118.11871683530626 24.538532407023013,118.15758236052352 24.282742283656262,118.07985130528687 23.675240740412846,117.73006132457522 23.38747685146518,117.65233016616548 22.907870369963348,117.61346457983018 22.556158950086683,117.69119574764045 19.10299228329677,120.17858321644599 18.62338580179494,120.60610100414488 17.951936727855355,121.3834046194388 17.696146604255773,121.5 17.504304011701606,121.3834046194388 17.440356480772607,121.111348567385 17.472330246237107,120.02312206223723 17.53627777704969,119.59560350116226 17.66417283890769,119.3235459397838 17.983910493087023,119.129218969465 18.815228394349106,118.97375730896601 19.134966048877686,118.8571610142535 19.32680864154827,118.70169922255445 19.710493826656602,118.15758236052352 20.4458904316416,117.53573339330615 20.73365432047285,117.18594282187405 20.829575616749935,116.87501755080302 20.829575616749935,116.21430035351659 21.0533919747686,115.67017929136637 21.0533919747686,115.00945962360129 21.213260801974684,114.0766766097804 21.181287036510184,113.80461438879138 21.021418209420517,113.29935536900302 21.0533919747686,112.75522938466747 20.989444443956017,112.63863083993783 20.829575616749935,112.52203225303674 20.222074073622935,112.36656740482431 19.93431018467527,112.36656740482431 18.65535956725944,113.22162314181332 18.175753085757606,112.91069404539303 18.01588425866794,112.87182788731297 17.85601543157827,112.91069404539303 17.728120369720273,113.14389089582255 17.66417283890769,113.53255193808582 17.696146604255773,115.8645083475858 17.88798919680994,116.52522626216523 18.27167438203469,117.06934588038712 18.719307098072022,117.34140534495236 19.134966048877686,117.41913657839177 19.83838888828177,117.18594282187405 20.094179011764936,116.6806891039887 20.4139166661771,116.44749481312465 20.669706789660268,116.44749481312465 21.1173395056976,116.75842049680068 21.820762345101684,116.56409197958419 22.076552468701266,116.6806891039887 22.300368826719932,116.99161456272122 22.36431635764893,117.22480845972314 22.396290122997016,117.61346457983018 22.588132715667598,117.61346457983018 23.131686727982014,117.34140534495236 24.69840123434551,116.09770306036808 26.39301080221776,114.93172780901659 28.439331789966673,113.26048925772193 29.974072530749254,112.211102481524 35.56948148156516,108.01352120141382" stroke="#4dd2ff" stroke-linecap="round" stroke-linejoin="round" stroke-width="0.5"><title>2022-06-19 4.7km</title></polyline><polyline fill="none" points="57.25,93.70936139725382 58.259795191464946,95.331532377837 59.70235975063406,98.22511668785592 60.24332146043889,99.58421651707613 60.60396260023117,100.98715294452268 60.928539626067504,101.73246071854373 61.18098842399195,102.78465732673067 61.758014247519895,104.05605749681126 61.974398931488395,104.80135897680884 62.51536064129323,105.98506995014031 62.948130008997396,107.08109519144637 64.85952805005945,111.11443961440818 64.89559216378257,111.33364183307276 64.85952805005945,111.72820549359312 65.18410507589579,112.56117181456648 65.11197684775107,113.17493525042664 65.25623330357485,113.39413622624124 65.40048975963145,113.39413622624124 66.22996438131668,112.95573414221872 67.42008014256135,112.07892838778207 67.67252894048579,111.77204587392043 67.96104185236618,111.28980139983469 68.21349065005779,111.07059915483114 69.47573463944718,110.2814699774899 70.55765805882402,109.40465777070494 72.50512021384202,108.13327631322318 73.08214603736997,107.69486788267386 74.01981300092302,107.12493613228435 75.28205699031241,106.1165931536816 77.44590382906608,104.5383115701552 78.02292965282686,104.01221618574345 79.79007123783231,102.60929143693647 80.61954585951753,102.08319325983757 81.12444345513359,101.82014388573589 83.14403383806348,100.24184364179382 85.23575244890526,98.75122045050375 88.84216384706087,95.94532491444261 90.10440783621743,95.0246357206197 90.78962600184605,94.63005392346531 93.96326803206466,92.17486866947729 94.61242208373733,91.78028377785813 96.0189225289505,90.55268359699403 97.06478183460422,89.85119591729017 97.64180765813217,89.32507926886319 97.75,89.14970688323956 97.53361531626433,89.10586377372965 97.56967943022028,89.23739308657241 97.49755120230839,89.32507926886319 95.73040961730294,90.77189821927459 94.9730632235296,91.34185561793856 94.17965271603316,91.82412656478118 88.55365093518049,96.2083785412542 86.10129118454643,97.91822247451637 84.33414959930815,99.27732345147524 82.92764915409498,100.46105241889018 81.44902048096992,101.42556946733384 80.04252003552392,102.60929143693647 78.02292965282686,103.96837486926233 77.48196794302203,104.4506290590507 76.65249332156964,104.97672380879521 76.1115316117648,105.45897666018573 73.08214603736997,107.69486788267386 72.07235084613785,108.48400267673424" stroke="#4dd2ff" stroke-linecap="round" stroke-linejoin="round" stroke-width="0.5"><title>2022-06-17 3.0km</title></polyline><polyline fill="none" points="125.3047844056855,81.0 125.03280531178461,81.12399420485599 124.93081315164454,81.12399420485599 124.50584581738804,81.2893196716177 124.36985627037939,81.30998534378887 123.97888632293325,81.57863885455299 123.80889938928885,81.64063575871114 123.62191376229748,81.57863885455299 123.24794250814011,81.7852951145469 123.179947734694,81.8679575486749 122.80597648059484,81.99195112513553 122.70398432039656,82.0746134595247 122.4150065331487,82.13661018418497 122.07503266574349,82.28126912105654 121.97304050560342,82.28126912105654 121.75205749180168,82.4879245331831 121.46307970455382,82.57058662828058 121.3100914641982,82.69457969600626 120.98711629019817,82.85990364673489 120.74913458304945,83.06655836068967 120.54515026259469,83.2112165120925 120.13718162185978,83.3352091160632 119.50822996714851,83.72785176969774 119.1002613263554,83.9138400809461 119.0152678595623,83.9138400809461 118.84528092580149,83.99650148778164 118.70929137885105,84.09982819025754 118.62429791205795,84.22382015091716 118.62429791205795,84.3684773248824 118.72629007231444,84.57513021858176 118.84528092580149,84.98843525799748 118.93027439265279,85.09176136201131 119.13425871304935,85.56706063759339 119.23625087324763,85.73238181558554 119.32124434015714,86.06302369278274 119.37224042025628,86.10435388263431 119.40623780700844,86.29033961318783 119.62722082075197,86.60031538197654 119.6952155942563,86.86896059454011 119.86520252790069,87.1582703521417 119.86520252790069,87.19960027764319 119.96719468809897,87.36491987989575 120.01819076819811,87.57156915821542 120.1031842349912,87.73688840142859 120.15418031514855,87.96420210026554 120.22217508865288,88.02619669302658 120.42615940910764,88.3981637784891 120.18817770190071,88.50148782550241 120.01819076819811,88.52215262748359 119.66121820750413,88.62547659970005 119.28724695334677,88.85278911923524 118.55630313855363,89.14209552599641 117.67237108346308,89.6173835619411 117.45138806966133,89.67937755641469 117.06041812215699,89.8860240423819 116.41446777415695,90.09267027910391 116.17648606706643,90.25798708897491 116.09149260021513,90.44396830927872 115.97250174661167,90.50596200456494 115.97250174661167,90.67127841552428 116.00649913336383,90.79526561900275 116.07449390686816,90.81593014422106 116.17648606706643,90.9192527327832 116.22748214710737,91.18789117132837 116.29547692061169,91.2912135355291 116.4654638543143,91.7458311975206 116.61845209461171,91.99380395917979 116.66944817471085,92.22111200857034 116.82243641500827,92.55174136026471 116.82243641500827,92.63439859839855 116.92442857526476,92.77904866923927 116.83943510847166,92.92369861794577 116.75444164156215,92.92369861794577 116.29547692061169,93.08901269553462 116.17648606706643,93.19233391288435 116.09149260021513,93.212998148927 116.00649913336383,93.35764773115807 116.02349782671081,93.50229719124036 116.09149260021513,93.58495397074148 116.09149260021513,93.79159574498772 116.26147953385953,94.1015579389059 116.26147953385953,94.14288618903083 116.21048345376039,94.22554265942017 115.76851742627332,94.41151957193506 115.44554225221509,94.49417591268138 115.05457230476895,94.76280874466465 114.7655945175211,94.86612895241706 114.68060105061159,94.92812104723998 114.52761281031417,95.15542520278541 114.59560758381849,95.34140110571752 114.66360235726461,95.42405699771189 114.74859582417412,95.77534409394138 114.95258014462888,96.20928598288447 115.02057491801679,96.3952607416868 115.36054878536379,97.03583892076858 115.42854355886811,97.15982151738717 115.46254094556207,97.15982151738717 115.54753441241337,97.28380402436596 115.64952657261165,97.51110505402903 115.81951350637246,97.63508730672766 115.90450697316555,97.80039683743962 115.95550305326469,97.8417241951247 116.05749521352118,97.88305154289992 116.15948737371946,97.96570620854618 116.22748214710737,97.98636986869678 116.53345862776041,98.25499722416862 116.72044425480999,98.31698809249792 117.00942204205785,98.62694209780602 117.29839982930571,98.81291423171933 117.46838676306652,98.99888616385579 117.62137500336394,99.06087676306197 117.72336716356222,99.16419437844888 117.7403658569092,99.26751193153905 118.01234495081007,99.43281988684612 118.31832143140491,99.7427718731924 118.7602874590084,99.92874279577518 119.03226655290928,100.09405011305353 118.94727308599977,100.46599099361629 118.99826916609891,100.56930776158697 119.47423258039635,100.8999210003094 119.55922604724765,100.98257421029848 119.55922604724765,101.10655395053618 119.52522866049549,101.0858906666981 119.88220122130588,101.62313523552439 119.98419338150416,101.72645130559977 120.1201829284546,101.72645130559977 120.18817770190071,101.78844091770588 120.20517639524769,101.87109369901009 120.51115287590073,102.30502014653757 120.76613327639643,102.59430383422296 121.03811237029731,103.00756539776921 121.3100914641982,103.40016295982059 121.41208362433827,103.48281496347045 121.90504573204089,104.16469247220084 122.27901698608184,104.5986131101381 122.3300130662974,104.72259023335937 122.38100914633833,104.76391592118307 122.60199216019828,104.74325307854451 122.75498040043749,104.99120702593063 122.5849934667931,105.09452106482058 122.29601567954523,105.4044628074771 120.8001306631486,106.45826053828932 120.7151371963555,106.54091106659325 119.47423258039635,107.51205178712553 119.27024825999979,107.76000172717613 118.89627700590063,108.35921260081523 118.36931751150405,108.9997460446757 118.30132273805793,109.1237199830357 118.09733841766138,109.3303430142696 117.9953462574631,109.55762806077837 118.01234495081007,109.5369657962583 116.83943510847166,111.27258732712653 116.60145340132294,111.7271519654314 116.22748214710737,112.22303928625479 115.98950043995865,112.59495383493777 115.8705095864716,112.71892517179367 115.70052265271079,113.04951496479043 115.34355009201681,113.48341310008254 115.22455923841335,113.69003087353485 115.07157099811593,113.7933396668086 114.8505879843724,114.10326567293669 114.52761281031417,114.30988269884256 114.11964416952105,114.7851009129663 113.76267160876887,115.17767148696294 113.71167552866973,115.30164095504733 113.32070558116538,115.71487186748709 113.25271080777748,115.81817943986971 113.23571211437229,115.88016395342129 112.8107447802322,116.33471636744798 111.80782187147997,117.65704380626266 111.48484669742174,118.02894655970158 111.21286760363728,118.40084850593121 111.17887021682691,118.50415445884573 110.63491202908335,119.16531108260097 110.58391594898421,119.28927766553534 110.56691725557903,119.3512609234167 110.4309277086868,119.53721056233917 110.39693032199284,119.66117687615042 110.48192378878593,119.80580412904965 110.51592117547989,119.97109226854809 110.31193685508333,120.19836319990281 110.26094077498419,120.30166806913621 110.12495122809196,120.46695573024044 110.26094077498419,120.61158230292494 110.3459342418355,120.59092137146217 110.37993162852945,120.63224323188479 110.41392901533982,120.7355478395184 110.51592117547989,120.88017418551317 110.37993162852945,120.96281775699754 110.17594730813289,121.25206994329346 110.27793946833117,121.21074823230447 110.39693032199284,121.31405249104137 110.71990549593465,121.5 110.88989242957905,121.23140908901405 111.34885715052951,120.7355478395184 111.51884408423211,120.59092137146217 111.62083624437219,120.4049728760001 111.73982709803386,120.07439727467136 111.89281533833127,119.7644820692658 112.19879181892611,119.41324415880081 112.45377221942181,119.18597218600917 112.64075784647139,118.93803878096514 112.86174086033134,118.58679917635163 112.87873955367832,118.46283208511886 112.94673432712443,118.31820369874185 113.55868728837231,117.51241473971459 113.81366768886801,117.11984951501654 113.94965723587666,117.03720408996742 114.86758667771937,115.79751793037576 115.80251481296727,114.6404694221419 116.02349782671081,114.30988269884256 116.12548998690909,114.12392738675408 116.29547692061169,113.95863360652584 117.09441550890915,112.9462057230121 117.19640766916564,112.78091080654121 117.16241028241348,112.69826328856288 117.09441550890915,112.6156157306832 116.80543772160308,112.36767281781067 116.68644686811604,112.20237734324473 116.61845209461171,112.20237734324473 116.38047038746299,112.38833474089915 116.34647300076904,112.32634896409581 116.60145340132294,112.05774367212143 116.75444164156215,111.78913795904373 117.02642073546303,111.43788369875983 117.11141420225613,111.25192526949104 117.21340636251261,111.14861494372599 117.33239721605787,110.92133200785611 117.57037892320659,110.61140024574706 117.60437630995875,110.46676523155475 117.6383736966527,110.46676523155475 117.67237108346308,110.36345443238679 117.67237108346308,110.42544091939635 117.68936977681005,110.28080574823252 117.82535932370229,110.15683264717518 118.28432404471096,109.49564125979668 118.26732535130577,109.45431671341066 118.3353201248101,109.24769383168314 118.57330183195882,108.85510966990842 118.70929137885105,108.75179789893446 119.33824303350411,107.78066420600226 119.38923911360325,107.67735178701696 119.50822996714851,107.53271429581218 119.78020906104939,107.305426562918 120.91912151675206,106.54091106659325 121.63306663819822,105.96235653123586 121.90504573204089,105.83838030522747 122.27901698608184,105.48711384422495 122.5849934667931,105.28048617765307 122.66998693358619,105.19783504134102 123.23094381479314,104.82590443422669 123.87689416267676,104.30933280696627 124.1998693367932,104.10270372001105 124.23386672348715,104.04071494526579 124.4548497372889,103.91673732854542 124.70983013778459,103.68944479824859 125.42377525923075,103.21419580576185 125.49177003267687,103.11088063294301 125.98473214037949,102.78027166117681 126.13772038073512,102.63563003539457 126.51169163477607,102.36700954924163 128.14356619806495,101.12721723181312 128.432543985371,100.94124761030253 128.50053875887534,100.85859438036277 128.7045230793301,100.7346144606854 129.14648910687538,100.38333753441111 129.82643684156938,99.90807936986675 130.20040809566854,99.57746421695629 131.4243140181061,98.70959640445653 132.4442356202635,97.88305154289992 132.51223039370961,97.86238787023467 133.03918988804799,97.44911389400659 133.2091768218088,97.34579524415312 133.44715852895752,97.11849399517814 133.75313500961056,96.93252002161171 133.87212586315582,96.76720965342247 134.229098423908,96.47791612514993 134.51807621115586,96.37459688955278 134.6540657581063,96.16795823133725 134.87504877184983,96.00264712532226 134.85805007850286,95.79600801838387" stroke="#4dd2ff" stroke-linecap="round" stroke-linejoin="round" stroke-width="0.5"><title>2022-06-14 5.2km</title></polyline><polyline fill="none" points="181.94843976944685,81.0 181.59859861287987,81.03543711009843 181.50530763779534,81.07087421312463 181.45866215019487,81.35437078199175 180.9922072746558,81.60242990833649 180.2692022175761,81.35437078199175 179.82607008580817,81.74417782480305 179.0564195411862,81.77961478642828 178.426705459191,81.95679948752513 178.26344625279307,82.13398401174345 177.96025058371015,82.24029464143678 177.4937957081711,82.66553652312723 177.3538592455443,83.09077738615451 177.16727729531704,83.30339743560762 175.81455815630034,83.37427072874561 175.53468523093034,83.16165076424659 175.11487584299175,83.01990397972986 174.97493938030675,82.98446726595284 174.7883574301377,83.09077738615451 174.69506645505317,83.09077738615451 174.6484209674527,83.2325241140934 174.6484209674527,83.51601723027125 174.46183901728364,84.01212909418973 174.27525706699817,84.11843859885994 173.76215670397505,84.82716700296442 173.5755747537478,84.93347601949063 172.85256969666807,84.93347601949063 172.33946933352854,84.89803968773049 171.82636897050543,84.50823957123794 171.54649604519363,84.15387508635467 171.05671842588345,83.87038298879634 170.54361806274392,83.69320019804582 170.19377690617694,83.69320019804582 169.3075126426993,83.58689043860068 168.7477667920757,83.4097073647863 168.56118484179024,83.48058061553456 168.09472996625118,83.30339743560762 167.55830685939873,83.2325241140934 167.2551111903158,83.12621407870029 166.975238265004,83.12621407870029 166.6020743646077,82.91359381697839 165.99568302638363,82.87815708199923 165.8324238199275,82.98446726595284 165.7624555886141,82.98446726595284 165.7624555886141,82.84272033990419 165.43593717576005,82.73641007111291 165.15606425050646,82.80728359063505 164.94615955644986,82.94903054508904 164.73625486245146,83.01990397972986 164.1298635242274,82.59466294689628 163.38353572343476,82.38204204849899 162.8471126165823,82.2757315037743 162.07746207196033,82.2757315037743 161.79758914670674,82.16942089531221 161.2844887835672,82.13398401174345 160.79471116425702,81.9922364064696 160.23496531363344,81.9922364064696 158.928891662159,81.81505174074846 158.46243678661995,82.0276733184437 157.94933642348042,82.41747888256214 157.87936819216702,82.6300997385697 157.7860772170825,83.2325241140934 157.6461407543975,83.62232703220798 157.52952703554183,84.26018450602714 157.5761725231423,84.22474803988007 157.13304039137438,84.36649386222416 156.52664905315032,84.40193030015507 156.54997179692145,84.86260334895633 156.48000356566627,85.00434866180876 156.48000356566627,85.18153014374548 156.41003533429466,85.50045636556752 156.1534851526958,86.24461532123678 156.1534851526958,86.6344116243854 155.99022594629787,87.05964297856553 155.78032125235768,87.87466689347639 155.7336757647572,88.37076657464786 155.61706204590155,88.90230040844472 155.5937393020722,89.50470349597163 155.54709381458815,89.85905729823571 155.33718912058976,90.63863317311916 155.26722088921815,91.34733554263948 155.17392991413362,91.63081569829956 155.0806389390491,92.3040792531101 154.98734796384815,92.58755788068811 154.84741150127957,92.80016655422514 154.75412052613683,93.22538313717814 154.56753857590957,93.6151641101169 154.5208930884255,94.0049442272284 154.05443821288645,95.9538319731364 153.98446998157306,96.34360695460055 153.98446998157306,96.73338108009193 154.12440644414164,97.05228654619714 154.2410201630555,97.76096330827568 154.28766565065598,98.07986692813574 154.2410201630555,98.6822388691944 154.21769741934258,98.89484024267585 153.96114723774372,99.70980981529283 153.61130608111853,100.52477564614674 153.49469236220466,100.98540685197804 153.21481943695107,101.62320193277264 153.238142180664,101.72950089015649 153.1681739493506,102.33186044590548 153.238142180664,102.8279197216907 153.238142180664,102.96965068874124 153.26146492443513,103.07594883971615 153.28478766826447,103.71373640900129 153.07488297426607,104.10349435110402 153.05156023049494,104.31608923152089 153.12152846186655,104.63498107458872 153.12152846186655,104.81214296219696 153.26146492443513,105.30819530662848 153.40140138712013,105.91054271833855 153.42472413083306,106.19399961663294 153.518015106034,106.51288808614481 153.47136961843353,106.69004809940816 153.54133784980513,107.04436759554665 153.54133784980513,108.21361691500351 153.5879833373474,108.63879657625512 153.75124254380353,109.09940672658558 153.79788803128758,109.84346675225243 153.84453351888806,109.9497607871017 153.8678562626592,110.30407377672964 153.8911790063721,111.36700850246416 153.98446998157306,111.68588767903566 153.98446998157306,111.93390442030795 154.26434290682664,112.89053717645584 154.49757034459617,114.27233094509575 154.5908613196807,114.52034407270548 154.61418406351004,114.69749609455175 154.7307977823657,114.91007828744478 155.0106707077357,116.11470590499812 155.12728442653315,116.3981465093093 155.22057540161768,117.03588621452218 155.29054363298928,117.24846560701553 155.33718912058976,117.67362362840504 155.47712558327476,118.16964003305475 155.50044832698768,118.38221806797083 155.7336757647572,119.16166868461005 155.82696673984174,119.9765452153515 155.96690320252674,120.40169670306204 156.13016240898287,120.75598883163184 156.31674435915193,121.3937128810503 156.45668082183693,121.5 156.73655374714872,121.42914192791795 156.6432627720642,121.32285476654943 156.4333580780658,120.36626745137619 156.34006710298127,120.22455037357577 156.0835169214406,119.44510442395404 155.99022594629787,118.5947958483157 155.85028948367108,118.31135875129257 155.8036439961288,117.921632003985 155.64038478967268,117.56733421853278 155.57041655835928,117.17760583778727 155.50044832698768,116.96502636032528 155.50044832698768,116.85873652616283 155.38383460819023,116.4335765530268 155.22057540161768,116.07927579758689 155.03399345144862,115.47696289037412 155.0106707077357,115.12266022565018 154.9407024763641,114.87464793959225 154.8007660136791,114.62663530700956 154.6608295509941,114.27233094509575 154.68415229488164,114.02431747090304 154.63750680728117,113.7763036502729 154.68415229488164,113.67001190673909 154.63750680728117,113.2448442964087 154.68415229488164,113.03226010929211 154.68415229488164,112.60709097140352 154.70747503859457,112.25278257852187 154.61418406351004,111.86304252958507 154.61418406351004,111.72131866324344 154.6608295509941,111.65045668765379 155.47712558327476,111.33157744746131 155.92025771492627,111.33157744746131 155.9435804587556,111.29614638542989 156.2934216153808,111.22528424009215 157.34294508537278,111.26071531625348 157.41291331674438,111.15442206648004 157.3662678291439,111.11899096911657 157.41291331674438,110.87097308922966 157.38959057285683,110.69381724852428 157.31962234154344,110.4103675357619 157.2263313664589,110.23321123544883 157.10971764760325,109.24113268617657 157.13304039137438,108.63879657625512 157.1563631350873,108.42620687292947 157.10971764760325,107.9301632418501 157.2263313664589,106.40659199324728 157.20300862268778,105.87511057424126 157.2962995977723,103.99719681536953 157.27297685405938,103.82003411448386 157.27297685405938,102.43815897889726 157.17968587897485,101.94209861387208 157.13304039137438,101.65863492558128 157.06307216000278,100.59564206333016 157.0863949037739,100.24130969455291 156.96978118491825,99.35547567831236 156.94645844120532,98.57593808689853 156.68990825960645,96.83968296588864 156.66658551583532,96.3081729007099 156.59661728446372,96.0247002151882 156.59661728446372,95.81209540404961 156.48000356566627,95.10341086088738 156.34006710298127,94.81993625131145 156.24677612789674,94.07581324737112 156.24677612789674,93.54429490608163 156.1534851526958,93.11907908692956 156.03687143389834,92.94190552829241 156.06019417761127,92.72929702459078 155.9435804587556,92.3040792531101 155.8036439961288,90.95754958962789 155.8736122274422,90.92211446058354 155.8036439961288,90.42602191049082 155.61706204590155,89.8236219498649 155.57041655835928,89.29209087499476 155.61706204590155,89.15034898619342 155.5937393020722,88.37076657464786 155.68703027715674,87.34312998225505 155.75699850852834,86.91789930706727 156.1534851526958,85.74850969745603 156.17680789652513,85.53589257712883 156.10683966521174,84.86260334895633 156.27009887160966,84.75629428992397 156.27009887160966,84.68542154852184 156.41003533429466,84.33105741727923 156.54997179692145,84.15387508635467 156.82984472223325,84.11843859885994 157.27297685405938,84.26018450602714 157.24965411017183,84.2956209651893 157.66946349822683,84.01212909418973 157.69278624199796,83.48058061553456 157.80939996091183,82.87815708199923 157.83272270468296,82.6300997385697 157.9260136797675,82.38204204849899 158.36914581153542,82.06311022324371 158.74230971198995,81.85048868801096 158.9988598934724,81.81505174074846 160.98129311442608,82.06311022324371 161.4244252462522,82.16942089531221 163.59344041749137,82.3466052072763 164.01324980542995,82.45291570961126 164.479704680969,82.66553652312723 164.8995140689076,82.52378934243461 165.29600071307505,82.52378934243461 165.80910107621457,82.66553652312723 166.06565125769703,82.59466294689628 166.7420108272927,82.66553652312723 166.975238265004,82.66553652312723 167.115174727689,82.66553652312723 167.34840216545854,82.84272033990419 167.86150252848165,82.80728359063505 168.93434874224477,82.87815708199923 169.56406282418175,83.0553406864492 169.86725849332288,83.2325241140934 170.56694080663146,83.33883408570546 170.94010470702779,83.51601723027125 171.28994586365297,83.76407333553652 171.42988232633797,84.01212909418973 171.56981878902297,84.08300210432208 171.7330779954209,84.26018450602714 172.03627366456203,84.50823957123794 172.31614658981562,84.64998516727064 172.8758924404392,84.68542154852184 172.9458606717526,84.82716700296442 173.80880219151732,84.86260334895633 174.04202962922864,84.93347601949063 174.13532060437137,85.03978497230855 174.48516176105477,85.35871144892008 175.06823035539128,85.6422011690156 175.27813504944788,85.81938201442244 175.8612036439008,85.99656268277613 176.23436754423892,86.2800513842958 176.25769028806826,86.24461532123678 176.51424046960892,86.2800513842958 176.81743613869185,85.96112656319747 176.91072711377637,85.99656268277613 177.09730906394543,85.67763735237531 177.0739863202325,85.25240268700873 176.95737260137685,85.00434866180876 176.98069534514798,84.86260334895633 177.0739863202325,84.79173064991483 177.51711845200043,84.82716700296442 177.82031412108336,84.75629428992397 178.40338271547807,84.47280315464013 178.98645130981458,84.50823957123794 179.03309679741506,84.43736673092644 179.66281087941024,84.57911238337692 179.66281087941024,84.33105741727923 180.10594301117817,84.01212909418973 180.15258849866223,83.79950989376812 180.17591124249157,83.0553406864492 180.08262026740704,83.2325241140934 179.96600654849317,83.30339743560762 179.96600654849317,83.2325241140934 179.82607008580817,83.33883408570546" stroke="#4dd2ff" stroke-linecap="round" stroke-linejoin="round" stroke-width="0.5"><title>2022-05-13 4.4km</title></polyline><polyline fill="none" points="44.798160634352826,129.75 40.215256329625845,130.58049312001094 43.032270902302116,143.67644578238833 41.05615620210301,144.89018986426527 37.65051171858795,142.27105214621406 36.305071922717616,143.35703867973643 37.65051171858795,167.31168665620498 34.70736216509249,168.78084670062526 26.760858370456845,170.25 25.541553555522114,164.43722358168452 25.667688536224887,154.1528220132168 20.20183936553076,153.51402840422816 20.41206433356274,160.98783380843815 21.96772909758147,162.90416605075006 23.313168893568218,163.09579864391708 24.868833657586947,162.00987909917603 25.3733735808637,155.3665263572766 22.47226902109105,154.08894270975725 20.622289301711135,155.68592147208983 20.580244307988323,161.4988568619592 22.051819084910676,162.96804359459202 23.439303874387406,163.09579864391708 24.616563695832156,162.96804359459202 25.079058625618927,161.7543680826784 25.205193606438115,155.2387682220724 23.14498891902622,153.9611840644502 20.580244307988323,155.2387682220724 20.41206433356274,161.30722331264406 21.67341414222028,162.71253334300127 24.616563695832156,162.84028849433525 25.289283593767323,158.36882785067428 25.03701363201253,154.91937266092282 23.81770881684497,154.08894270975725 21.379099186859094,154.59997678096988 20.87455926334951,162.32926758323447 22.47226902109105,163.22355364219402 24.78474367025774,162.71253334300127 25.16314861283172,157.79392123466823 25.03701363201253,162.00987909917603" stroke="#4dd2ff" stroke-linecap="round" stroke-linejoin="round" stroke-width="0.5"><title>2022-05-04 3.1km</title></polyline><polyline fill="none" points="89.48301186657045,130.25313753125374 89.64858025149442,129.75 89.06909090396948,130.4418138982146 89.85554073285311,130.25313753125374 89.31744348153006,130.75627425900893 87.82732801616658,130.8820583151828 86.66834932100028,131.25941018294543 84.92988127807621,131.13362627726747 85.3851943371119,131.4480859473988 85.13684175955132,132.07700434557046 85.63354691455606,132.51724647718947 85.46797852951568,133.08327117111185 85.59215481823776,133.83796918037115 85.92329158843495,134.40399150105077 86.21303626219742,135.59892417112133 86.21303626219742,136.22783428177354 86.5441730322782,136.73096146649914 86.87530980224255,137.98877591238124 87.20644657243975,140.12704894389026 87.16505447600503,140.69305996381445 87.20644657243975,142.70553535368526 87.33062286116183,143.39732079970418 87.7445438237628,143.963325943565 86.99948609108105,145.03244399602409 85.75772320327815,145.15822235195083 85.42658643331379,144.71799788670614 85.01266547071282,144.2777728062647 84.01925516058691,143.58598929393338 83.43976581294555,143.39732079970418 82.44635550270323,142.64264569239458 81.74268986622337,142.57975601864746 81.32876890373882,143.14576263149502 81.12180842249654,143.7117682272219 81.20459261501674,144.96955479920143 81.5771214812994,146.16444739091094 81.61851357750129,146.8562252407428 81.5771214812994,148.74288438257645 81.61851357750129,150.0006508663064 81.78408196265809,151.32130026930827 81.61851357750129,153.33370776110678 81.74268986622337,153.9625824659015 81.74268986622337,154.6543431909231 81.4529451924609,155.15744094602996 81.37016100005712,156.35229489410995 81.6599056738196,157.48425761199906 81.70129777002148,158.11312403087504 81.82547405885998,158.8048756417411 81.74268986622337,159.99971575534437 81.99104244390037,161.25743729481474 82.19800292525906,162.7038108574634 82.52913969522342,163.89863618311938 82.57053179142531,164.59037508966867 82.9016685616225,165.84807830123464 82.44635550270323,167.2944307871221 81.86686615506187,167.7975083561032 81.37016100005712,168.04904683917994 80.74927955609746,168.30058512158575 80.12839811237063,168.3634696607478 79.54890876472928,168.67789216854726 77.56208814424463,168.9294299488829 74.87160188762937,169.43250490672654 74.20932834746782,169.74692634760868 73.54705480730627,169.8726948358817 72.30529191950336,170.25 71.68441047577653,170.12423166216468 71.39466580189764,169.5582735207281 71.18770532053895,168.23770056987996 70.89796064677648,167.67173903918592 70.6496080692159,166.2882732389553 70.6496080692159,165.5965380607231 70.52543178061023,164.46460449247388 70.60821597301401,163.83575075259432 70.8151764543727,160.06260195167852 70.93935274309479,159.49662573359092 70.98074483929668,158.2388971640321 70.8151764543727,157.48425761199906 70.8151764543727,156.85538993752562 70.6910001655342,156.22652100768755 70.8565685505746,154.9058921689284 70.6496080692159,154.33990668616025 70.02872662537266,154.214131996152 68.58000325644389,153.7739201861841 67.95912181248423,153.71103273445624 66.63457473216113,153.52237030444667 65.8895169995958,153.52237030444667 65.26863555575255,153.64814527035924 65.26863555575255,154.78011770514422 65.18585136323236,155.47187663492514 65.14445926703047,156.10074707123567 65.22724345943425,157.29559744158178 65.14445926703047,158.55332977735088 65.64116442203522,158.9935349083098 65.55838022963144,160.37703274434898 65.43420394079294,161.06877938410616 65.97230119223241,162.20072515419452 67.0071035985602,162.8924677890609 68.29025858244859,163.14401018887293 69.44923727784771,162.57803950709058 69.82176614401396,162.07495360262692 70.02872662537266,161.5089810001664 70.11151081800926,157.9244642369158 70.31847129913513,156.16363404577714 70.31847129913513,155.53476373493322 70.02872662537266,155.0316665825958 69.44923727784771,154.59145591506967 68.86974793020636,154.33990668616025 67.50380875368137,154.214131996152 66.84153521351982,154.46568132561515 66.30343796219677,154.78011770514422 65.8895169995958,155.28321525926003 65.64116442203522,155.7863120099064 65.55838022963144,157.0440503715945 65.64116442203522,157.67291766943526 65.59977232583333,158.86776207646471 65.51698813319672,160.12548813523608 65.64116442203522,161.5089810001664 65.97230119223241,162.07495360262692 66.51039844355546,162.64092518857797 67.0898877910804,163.01823901425814 68.41443487128709,163.14401018887293 69.5734135665698,162.95535340791685 69.86315824044868,162.4522681061644 70.07011872157454,161.7605245047016 70.19429501041304,161.06877938410616 70.19429501041304,159.68528458589572 70.27707920293324,159.0564213054604 70.23568710661493,158.49044327950105 70.31847129913513,157.9244642369158 70.27707920293324,155.97497308423044 70.15290291421115,155.408989522286 69.82176614401396,154.8430049433373 68.78696373768616,154.214131996152 68.12469019752461,154.1512446324632 66.38622215471696,154.40279401215957 65.64116442203522,155.34610239701578 65.55838022963144,156.16363404577714 65.64116442203522,158.86776207646471 65.55838022963144,159.55951203018776 65.64116442203522,160.25126046515652 65.51698813319672,160.81723532723845 65.43420394079294,161.38320917263627 65.7653407107573,161.8862961816485 66.13786957715638,162.32649665538338 66.67596682859585,162.7038108574634 67.25545617612079,163.08112460785196 67.83494552376214,163.20689575752476 68.45582696760539,163.14401018887293 69.03531631524675,163.20689575752476 69.5734135665698,162.8924677890609 70.11151081800926,161.69763864731067 70.27707920293324,158.42755676951492 70.11151081800926,155.66053789769649 69.98733452917077,155.09455377049744 69.44923727784771,154.6543431909231 68.78696373768616,154.27701934729703 67.54520084988326,154.1512446324632 66.92431940615643,154.27701934729703 66.42761425091885,154.78011770514422 65.97230119223241,155.28321525926003 65.80673280719202,155.97497308423044 65.68255651835352,157.29559744158178 65.72394861455541,157.9244642369158 65.59977232583333,159.18219406189746 65.59977232583333,159.87394332536496 65.51698813319672,160.5028049737739 65.68255651835352,161.7605245047016 65.93090909579769,162.38938238704577 66.88292730972171,163.20689575752476 67.50380875368137,163.26978131342912 69.32506098900922,163.14401018887293 69.73898195161019,162.7666965140088 69.94594243285246,162.13783938469714 70.07011872157454,160.81723532723845 70.11151081800926,160.25126046515652 70.02872662537266,159.68528458589572 70.23568710661493,159.11930768980528 70.15290291421115,157.8615776138904 70.19429501041304,158.49044327950105 70.31847129913513,159.0564213054604 70.35986339545343,160.8801213602128 70.27707920293324,161.44609509257134 70.02872662537266,162.01206780815846" stroke="#4dd2ff" stroke-linecap="round" stroke-linejoin="round" stroke-width="0.5"><title>2022-05-04 3.2km</title></polyline><polyline fill="none" points="134.48301186657045,130.25313753125374 134.64858025149442,129.75 134.06909090396948,130.4418138982146 134.85554073285311,130.25313753125374 134.31744348153006,130.75627425900893 132.82732801616658,130.8820583151828 131.66834932100028,131.25941018294543 129.9298812780762,131.13362627726747 130.3851943371119,131.4480859473988 130.13684175955132,132.07700434557046 130.63354691455606,132.51724647718947 130.46797852951568,133.08327117111185 130.59215481823776,133.83796918037115 130.92329158843495,134.40399150105077 131.21303626219742,135.59892417112133 131.21303626219742,136.22783428177354 131.5441730322782,136.73096146649914 131.87530980224255,137.98877591238124 132.20644657243975,140.12704894389026 132.16505447600503,140.69305996381445 132.20644657243975,142.70553535368526 132.33062286116183,143.39732079970418 132.7445438237628,143.963325943565 131.99948609108105,145.03244399602409 130.75772320327815,145.15822235195083 130.4265864333138,144.71799788670614 130.01266547071282,144.2777728062647 129.0192551605869,143.58598929393338 128.43976581294555,143.39732079970418 127.44635550270323,142.64264569239458 126.74268986622337,142.57975601864746 126.32876890373882,143.14576263149502 126.12180842249654,143.7117682272219 126.20459261501674,144.96955479920143 126.5771214812994,146.16444739091094 126.61851357750129,146.8562252407428 126.5771214812994,148.74288438257645 126.61851357750129,150.0006508663064 126.78408196265809,151.32130026930827 126.61851357750129,153.33370776110678 126.74268986622337,153.9625824659015 126.74268986622337,154.6543431909231 126.4529451924609,155.15744094602996 126.37016100005712,156.35229489410995 126.6599056738196,157.48425761199906 126.70129777002148,158.11312403087504 126.82547405885998,158.8048756417411 126.74268986622337,159.99971575534437 126.99104244390037,161.25743729481474 127.19800292525906,162.7038108574634 127.52913969522342,163.89863618311938 127.57053179142531,164.59037508966867 127.9016685616225,165.84807830123464 127.44635550270323,167.2944307871221 126.86686615506187,167.7975083561032 126.37016100005712,168.04904683917994 125.74927955609746,168.30058512158575 125.12839811237063,168.3634696607478 124.54890876472928,168.67789216854726 122.56208814424463,168.9294299488829 119.87160188762937,169.43250490672654 119.20932834746782,169.74692634760868 118.54705480730627,169.8726948358817 117.30529191950336,170.25 116.68441047577653,170.12423166216468 116.39466580189764,169.5582735207281 116.18770532053895,168.23770056987996 115.89796064677648,167.67173903918592 115.6496080692159,166.2882732389553 115.6496080692159,165.5965380607231 115.52543178061023,164.46460449247388 115.60821597301401,163.83575075259432 115.8151764543727,160.06260195167852 115.93935274309479,159.49662573359092 115.98074483929668,158.2388971640321 115.8151764543727,157.48425761199906 115.8151764543727,156.85538993752562 115.6910001655342,156.22652100768755 115.8565685505746,154.9058921689284 115.6496080692159,154.33990668616025 115.02872662537266,154.214131996152 113.58000325644389,153.7739201861841 112.95912181248423,153.71103273445624 111.63457473216113,153.52237030444667 110.8895169995958,153.52237030444667 110.26863555575255,153.64814527035924 110.26863555575255,154.78011770514422 110.18585136323236,155.47187663492514 110.14445926703047,156.10074707123567 110.22724345943425,157.29559744158178 110.14445926703047,158.55332977735088 110.64116442203522,158.9935349083098 110.55838022963144,160.37703274434898 110.43420394079294,161.06877938410616 110.97230119223241,162.20072515419452 112.0071035985602,162.8924677890609 113.29025858244859,163.14401018887293 114.44923727784771,162.57803950709058 114.82176614401396,162.07495360262692 115.02872662537266,161.5089810001664 115.11151081800926,157.9244642369158 115.31847129913513,156.16363404577714 115.31847129913513,155.53476373493322 115.02872662537266,155.0316665825958 114.44923727784771,154.59145591506967 113.86974793020636,154.33990668616025 112.50380875368137,154.214131996152 111.84153521351982,154.46568132561515 111.30343796219677,154.78011770514422 110.8895169995958,155.28321525926003 110.64116442203522,155.7863120099064 110.55838022963144,157.0440503715945 110.64116442203522,157.67291766943526 110.59977232583333,158.86776207646471 110.51698813319672,160.12548813523608 110.64116442203522,161.5089810001664 110.97230119223241,162.07495360262692 111.51039844355546,162.64092518857797 112.0898877910804,163.01823901425814 113.41443487128709,163.14401018887293 114.5734135665698,162.95535340791685 114.86315824044868,162.4522681061644 115.07011872157454,161.7605245047016 115.19429501041304,161.06877938410616 115.19429501041304,159.68528458589572 115.27707920293324,159.0564213054604 115.23568710661493,158.49044327950105 115.31847129913513,157.9244642369158 115.27707920293324,155.97497308423044 115.15290291421115,155.408989522286 114.82176614401396,154.8430049433373 113.78696373768616,154.214131996152 113.12469019752461,154.08835725605604 111.38622215471696,154.40279401215957 110.64116442203522,155.34610239701578 110.55838022963144,156.16363404577714 110.64116442203522,158.86776207646471 110.55838022963144,159.55951203018776 110.64116442203522,160.25126046515652 110.51698813319672,160.81723532723845 110.43420394079294,161.38320917263627 110.7653407107573,161.8862961816485 111.13786957715638,162.32649665538338 111.67596682859585,162.7038108574634 112.25545617612079,163.08112460785196 112.83494552376214,163.20689575752476 113.45582696760539,163.14401018887293 114.03531631524675,163.20689575752476 114.5734135665698,162.8924677890609 115.11151081800926,161.69763864731067 115.27707920293324,158.42755676951492 115.11151081800926,155.66053789769649 114.98733452917077,155.09455377049744 114.44923727784771,154.6543431909231 113.78696373768616,154.27701934729703 112.54520084988326,154.1512446324632 111.92431940615643,154.27701934729703 111.42761425091885,154.78011770514422 110.97230119223241,155.28321525926003 110.80673280719202,155.97497308423044 110.68255651835352,157.29559744158178 110.72394861455541,157.9244642369158 110.59977232583333,159.18219406189746 110.59977232583333,159.87394332536496 110.51698813319672,160.5028049737739 110.68255651835352,161.7605245047016 110.93090909579769,162.38938238704577 111.88292730972171,163.20689575752476 112.50380875368137,163.26978131342912 114.32506098900922,163.14401018887293 114.73898195161019,162.7666965140088 114.94594243285246,162.13783938469714 115.07011872157454,160.81723532723845 115.11151081800926,160.25126046515652 115.02872662537266,159.68528458589572 115.23568710661493,159.11930768980528 115.15290291421115,157.8615776138904 115.19429501041304,158.49044327950105 115.31847129913513,159.0564213054604 115.35986339545343,160.8801213602128 115.27707920293324,161.44609509257134 115.02872662537266,162.01206780815846" stroke="#4dd2ff" stroke-linecap="round" stroke-linejoin="round" stroke-width="0.5"><title>2022-05-04 3.2km</title></polyline><polyline fill="none" points="174.01877843192779,170.25 170.15849623200484,160.7338725051959 170.66834482434206,131.2992347572872 161.12689259438775,129.75 161.05405708122998,141.70112742178026 163.74897106993012,146.45937495690305 168.70178596768528,144.5782122084347 169.3573055868037,133.84439674435998 166.80806262465194,130.74593712665956 162.07375426613726,132.73780601189355 162.29226080561057,144.7995258042356 164.91433928115293,146.3487185011909 169.0659635339398,143.80361392709892 169.21163456025533,132.73780601189355 165.49702338664792,130.74593712665956 162.1465897790622,133.06978346349206 161.78241221327335,143.80361392709892 163.89464209624566,146.01674900212674 167.02656916389242,146.12740552413743 169.21163456025533,143.80361392709892 169.21163456025533,132.8484651844483 164.55016171513125,130.96725624531973 161.85524772643112,134.17637353288592 162.07375426613726,144.5782122084347 167.8277598095592,146.3487185011909 169.64864763943478,144.35689852409996 169.79431866598316,133.2911016540893 167.53641775646247,130.85659669729648 164.4044906888157,130.74593712665956 161.41823464701883,134.3976912817452 162.1465897790622,144.46755537719582 166.95373365096748,146.68068780144677 169.72148315259255,143.47164290383807 168.9931280205492,131.63121307062102 167.24507570359856,130.41395828334498 162.29226080561057,131.40989421700942 160.98122156807221,142.03309950532275 163.31195799051784,146.3487185011909 168.55611494160257,145.7954358922434 169.86715417914093,137.27481397552765 168.48327942821197,131.74187246413203 163.89464209624566,130.74593712665956 161.5639056735672,135.7255959189497 161.41823464701883,143.91427089087665 163.60330004338175,146.12740552413743 167.7549242961686,145.7954358922434 169.3573055868037,143.13967168185627 169.21163456025533,133.5124197564437 162.29226080561057,132.6271468170744 161.27256362093613,137.60678871019627" stroke="#4dd2ff" stroke-linecap="round" stroke-linejoin="round" stroke-width="0.5"><title>2022-03-10 3.4km</title></polyline><polyline fill="none" points="36.19063734426163,210.38130278413882 33.99455561861396,205.1914724460803 34.11656015901826,180.35362405865453 30.944442110834643,178.6853627389064 25.942255958216265,178.5 26.003258228302002,189.15823727089446 28.016333143459633,192.40200004840153 31.49346254230477,192.03128544939682 32.713507945416495,190.5484240935766 33.20152610656805,181.09507160965586 29.480387627147138,179.1487692623341 26.49127638968639,181.18775247049052 26.369271849282086,190.36306609108578 30.395421679597348,192.40200004840153 32.957517025992274,189.9923498640128 32.957517025992274,180.631667029229 29.480387627147138,179.33413174244924 26.49127638968639,181.3731141362514 26.369271849282086,189.8996707610786 28.99236946599558,192.40200004840153 32.8355124858208,190.1777080144966 33.07952156639658,181.65115649611107 31.49346254230477,179.51949414805858 27.955330873373896,179.70485647997702 26.73528547026217,180.9097098330967 26.369271849282086,189.5289541640086 29.480387627147138,192.49467865176848 32.713507945416495,190.8264609585167 32.957517025992274,181.65115649611107 32.16448751394637,179.98289983911673 29.358383086975664,179.24145051144296 26.49127638968639,181.55847572805942 26.796287740347907,190.91913987661246 30.639430760173127,192.49467865176848 33.384532917058095,190.1777080144966 32.16448751394637,179.6121753231564 28.32134449435398,179.24145051144296 26.49127638968639,181.65115649611107 26.552278659772128,190.36306609108578 28.687358115101233,192.2166427859338 31.554464812390506,192.30932142629172 33.01851929631084,189.80699163943063 32.53050113492645,180.44630506719113 27.40631044190377,179.79753761808388 25.637244607321918,185.45105205941945 25.332233256660402,182.11456005915534 25.637244607321918,178.5 34.055557888932526,178.96340670844074 34.42157150967978,198.889457613579 35.76362145319581,208.80582470688387 39.6677667433396,217.6098983674019 39.057744041783735,219.0" stroke="#4dd2ff" stroke-linecap="round" stroke-linejoin="round" stroke-width="0.5"><title>2022-03-08 3.7km</title></polyline><polyline fill="none" points="87.97806729364675,181.49094895710004 87.56796681252308,180.86783695485792 89.08533859276213,181.36632665627985 88.83927830425091,179.80854369571898 90.23361994011793,179.43467462834087 89.16735868912656,178.5 88.34715772676282,180.99245945486473 89.00331849663053,178.74924684129655 88.9623084483901,180.18241231539287 85.06635387742426,180.43165781287826 84.77928354067262,181.86481556139188 85.845544791664,184.35724814407877 86.4606955134077,193.4544581572991 84.73827349254861,193.5167669005168 80.96534906583838,190.96209822490346 80.67827872897033,191.58519007399445 81.0063591140788,204.91905750031583 82.31868065369781,215.0748453750275 79.77605767047498,216.75706054430339 71.73808823968284,219.0 70.09768631507177,214.95023648324423 70.42576670006383,203.11216490756487 64.84840015613008,202.30217517720303 64.9714303005021,209.09356245447998 66.44779203273356,211.3365569821326 68.21122410183307,211.46116731662187 69.52354564145207,210.33967251543072 69.6465757858241,204.17137907541473 68.41627434233669,202.86293752220809 67.10395280248486,202.80063064483693 65.38153078174219,204.48291197020444 65.5455709741218,210.6511992532469 67.47304323560093,211.46116731662187 69.52354564145207,210.46428324774024 69.56455568945967,204.5452185117756 68.37526429421268,203.04985807990306 65.58658102224581,203.79753919132054 65.50456092611421,209.4673959952197 67.02193270635325,211.27425179613056 69.68758583383169,210.0904509011889 69.6465757858241,204.91905750031583 68.58031453471631,202.9875512396684 65.79163126286585,203.36139209399698 65.34052073361818,209.84122908796417 66.85789251397364,211.52347246510908 69.48253559332807,210.21506173320813 69.6465757858241,204.23368567915168 69.19546525657643,203.17447172291577 67.47304323560093,202.67601685246336 65.5455709741218,204.04676583048422 65.34052073361818,209.9658400194894 66.44779203273356,211.39886215567822 67.80112362059299,211.52347246510908 69.6465757858241,210.0904509011889 69.6465757858241,204.4206054158858 68.58031453471631,203.04985807990306 65.79163126286585,203.48600561261992 65.01244034862611,206.97516393320984 64.76638005988207,202.177561185963 70.58980689244345,201.74141182482708 73.25546001992188,186.41349004025687 74.36273131903727,185.9773186489183 78.54575622698758,188.22047931072302 79.61201747797895,187.72200055685244 79.89908781484701,185.60345697111916 85.39443426241633,186.0396288849588 86.87079599453136,184.7311113147589 89.65947926649824,185.4788363124535 89.33139888150617,179.80854369571898 89.00331849663053,181.30401548725786 87.44493666815106,181.1170819051331" stroke="#4dd2ff" stroke-linecap="round" stroke-linejoin="round" stroke-width="0.5"><title>2021-12-30 4.7km</title></polyline><polyline fill="none" points="129.0270576728508,219.0 124.08023501560092,206.5789417414635 125.45435242028907,179.7526243282482 116.24776580813341,178.5 116.17905993806198,191.02610825138981 118.72117713675834,193.84444125561276 121.81294129765593,193.74005882247002 123.87411740468815,191.33925711302436 124.21764675620943,181.5271703231556 121.0571767250076,179.12631253930158 117.34705973207019,180.37893536692718 116.24776580813341,190.81734223940293 119.13341235835105,193.63567636880907 121.40070607629605,193.84444125561276 123.59929392393678,191.86117146571632 124.14894088567235,181.42278543140856 121.95035303803161,179.33508321875706 117.96541256434284,179.9613947579346 115.97294232714921,190.19104370317655 118.2402360450942,193.74005882247002 122.08776477840729,193.3225288821268 124.14894088567235,191.2348741798487 124.21764675620943,182.04909446992679 121.60682368674316,179.23069788943394 116.66000102972612,180.69209060521098 116.31647167820483,191.2348741798487 119.33952996903099,193.74005882247002 123.59929392393678,191.75678863702342 124.08023501560092,181.42278543140856 120.09529454167932,178.7087709295447 116.79741277033463,180.7964756428264 116.24776580813341,191.2348741798487 118.17153017478995,193.53129389428068 123.18705870234407,192.38308529782807 124.42376436688937,182.3622487077664 123.7367056645453,180.37893536692718 120.64494150341488,179.33508321875706 117.14094212139025,181.10963063072995 116.45388341881335,191.75678863702342 118.5150595260784,193.74005882247002 122.56870587030426,193.4269113986229 123.87411740468815,191.86117146571632 124.14894088567235,182.25786398243508 122.43129412969574,179.12631253930158 116.38517754874192,179.9613947579346 116.38517754874192,192.06993706105277" stroke="#4dd2ff" stroke-linecap="round" stroke-linejoin="round" stroke-width="0.5"><title>2021-12-27 3.1km</title></polyline><polyline fill="none" points="174.07135023130104,219.0 176.42711729556322,180.9488865841995 158.57288270490244,178.5 161.052637509536,204.1188066584873 165.14423293620348,208.0745898137102 170.72368124546483,208.45133020123467 174.4433134519495,204.6839195523644 173.94736249139532,185.65826599829597 166.38411033852026,180.76051091839327 160.92864976869896,184.3396421315265 162.78846587240696,203.36532227188582 167.62398774037138,208.45133020123467 173.8233747505583,205.24903210881166 173.3274237900041,185.65826599829597 167.12803677935153,181.32563780184137 161.052637509536,184.52801708236802 163.28441683296114,205.6257736250409 169.9797548041679,208.63970033958321 174.19533797120675,205.06066129467217 173.3274237900041,186.22338994854363 167.37601226009429,181.32563780184137 163.5323923137039,181.70238886983134 160.43269880814478,186.03501533623785 161.54858847009018,204.1188066584873 167.87196322064847,207.88621956296265 174.07135023130104,205.24903210881166 173.8233747505583,186.78851356066298 166.50809807842597,181.51401335507398 160.55668654851615,185.84664068586426 161.54858847009018,203.36532227188582 167.12803677935153,207.88621956296265 172.4595096083358,207.13273818517337 174.81527667259797,201.66998020425672 173.45141153037548,185.65826599829597 165.5161961563863,181.1372622117633 161.6725762099959,182.64426588092465 160.68067428842187,186.60013906122185 161.6725762099959,204.1188066584873 169.9797548041679,209.0164405014366 174.4433134519495,202.98857985367067 173.2034360500984,184.71639199584024 168.6158896619454,181.1372622117633 163.0364413522184,181.51401335507398 159.44079688657075,188.10713400540408 161.052637509536,205.06066129467217 168.98785288259387,208.2629600262735 174.56730119185522,203.17695108160842 174.81527667259797,185.46989127324196 166.1361348577775,180.19538369652582 160.43269880814478,183.5861419517314 160.43269880814478,203.17695108160842 166.0121471178718,208.0745898137102 173.94736249139532,203.36532227188582 173.69938701065257,186.41176452307263 172.08754638768733,183.0210164221935 165.26822067657486,180.9488865841995 160.0607355874963,184.90476687141927" stroke="#4dd2ff" stroke-linecap="round" stroke-linejoin="round" stroke-width="0.5"><title>2021-12-07 3.6km</title></polyline><polyline fill="none" points="35.87664798856713,247.0143787494453 34.09946483653039,228.65405073013972 26.848557576769963,227.25 25.497898381203413,230.3821081648639 26.208771641831845,242.37035464899964 30.118574576452374,244.4223702136369 33.246416923822835,243.55836460893624 34.24163948884234,241.50634576720768 33.60185355390422,230.4901115714456 27.417256185319275,229.08606560630142 25.71116035943851,235.45824495877605 27.559430837398395,243.77436613920145 32.60663098888472,244.2063689417264 34.38381414115429,237.1862806606514 33.03315494558774,230.05809781627613 27.417256185319275,229.95009432375082 26.1376843159087,238.59030560415704 27.985954794101417,243.4503638111055 30.545098532922566,245.39437487002579 33.388591575669125,244.63837139925454 33.88620285852812,233.7302037377085 32.60663098888472,230.59811495634494 27.417256185319275,229.51808013761183 25.640073033282533,234.48622245099978 27.985954794101417,244.53037081705406 33.246416923822835,244.3143695886247 33.60185355390422,231.24613481250708 30.75836051092483,229.4100765369658 27.559430837398395,230.05809781627613 25.924422337673604,233.5141981971974 28.057042120024562,244.2063689417264 32.39336901064962,244.4223702136369 33.74402820621617,242.80235857286607 34.24163948884234,233.29819256989867 31.39814644563012,229.51808013761183 27.417256185319275,230.1661012872937 26.1376843159087,231.89415389235364 26.42203362006694,241.8303492598643 29.407701315591112,244.85437249872484 32.67771831504069,244.3143695886247 33.81511553237215,242.80235857286607 34.17055216291919,232.75817812551395 32.037932380568236,230.05809781627613 29.194439337356016,229.4100765369658 26.493120946455747,232.6501751714095 26.56420827237889,242.9103594997141 30.47401120653376,244.63837139925454 34.02837751060724,241.61434695281787 33.60185355390422,231.89415389235364 28.83900270680897,229.73408727359492 26.493120946455747,233.29819256989867 27.48834351147525,243.55836460893624 30.33183655468747,244.74637195991818 33.95729018445127,242.69435762416106 33.88620285852812,232.32616618130123 32.53554366296157,230.1661012872937 29.549875967670232,229.51808013761183 26.990732229081914,231.13813155685784 25.924422337673604,234.0542118869489 25.640073033282533,243.34236299208715 25.497898381203413,228.43804316292517 34.881425423547626,228.11403164989315 35.52121135802008,252.1983585668204 39.502101618563756,267.75" stroke="#4dd2ff" stroke-linecap="round" stroke-linejoin="round" stroke-width="0.5"><title>2021-12-06 4.4km</title></polyline><polyline fill="none" points="89.10594194813166,227.25 83.96438486990519,228.84277819143608 82.71643412287813,230.96647205823683 76.82610659650527,231.34570185656776 72.73282814584672,237.71670586511027 71.48487739881966,243.70838595039095 72.43331996642519,251.21681365650147 71.03561512974557,257.89084703836124 66.54299244005233,256.1465087218385 62.649386109085754,256.2223496848601 62.449713989626616,264.4889238771575 64.04709094576538,267.21912905041245 66.64282849989831,267.5983226613025 68.93905787472613,265.7781898762041 69.08881196414586,258.6492525038193 67.19192682858557,256.5257133851701 65.5945498724468,256.2981906327477 63.497992617078125,258.042528252583 63.14856640796643,265.7023508209677 65.29504169302527,267.75 67.64118909765966,267.5224839694274 68.88913984468672,265.7023508209677 68.93905787472613,259.1801354287891 66.49307441024575,256.5257133851701 63.39815655723214,258.1183688369347 62.84905822854489,265.17147701006616 65.5945498724468,267.674161338422 68.48979560565203,266.0815459458099 68.93905787472613,258.8767738483439 67.44151697808411,256.8290768431034 65.24512366298586,256.2223496848601 63.44807458727155,257.89084703836124 63.09864837815985,265.3989944483619 66.09373017121106,267.75 68.43987757584546,266.384901773592 68.68946772522759,258.2700499603525 65.69438593205996,256.3740315652976 63.497992617078125,258.1183688369347 63.44807458727155,264.7922809764568 64.54627124464605,266.9157738889335 66.19356623094063,267.3708065401006 68.43987757584546,266.1573849255219 68.93905787472613,258.1183688369347 66.84250061947387,256.2223496848601 65.09536957356613,257.0565992775955 63.6477467068471,258.7250929669535 63.24840246781241,261.6070193531341 62.94889428850729,257.8150064086367 70.63627089071088,255.31225713077583 73.33184450457338,238.47515160634066 76.67635250685271,235.2896693177754 83.36536851141136,233.01430847193114 89.4054501275532,234.83459823887097 86.65995848365128,231.5732395539526 90.05438451608643,228.46354589422117 92.55028601025697,228.3876993895392" stroke="#4dd2ff" stroke-linecap="round" stroke-linejoin="round" stroke-width="0.5"><title>2021-11-11 3.8km</title></polyline><polyline fill="none" points="136.61761553172255,229.07270848017652 137.79500911658397,227.68880198559782 136.95084013114683,227.25 135.04035242745886,227.31750807183562 133.28536953678122,228.498894967066 130.8417224738514,229.0389547979721 129.3311042895075,231.0304105146788 128.44250535755418,231.26668336502917 124.46602513699327,228.80267883419583 120.60061978292651,229.07270848017652 115.58003581722733,228.36387973971432 114.53593207214726,228.66766384955554 113.5140433004126,230.86164399077825 112.5587994485395,231.50295588518202 111.87013527628733,234.641973746242 113.91391281981487,247.9737120141217 113.73619303340092,259.5157857096201 116.33534490945749,267.1425716615777 113.29189356742427,267.75 112.31443474226398,265.2190341938549 109.89300265262136,253.5086059121677 107.20499088341603,248.10871158199734 107.98251494881697,247.50121267749637 109.87078767933417,247.33246259433508 113.62511816690676,248.04121181154915 112.62544436845928,238.4897225847235" stroke="#4dd2ff" stroke-linecap="round" stroke-linejoin="round" stroke-width="0.5"><title>2021-11-07 3.5km</title></polyline><polyline fill="none" points="182.63603081839392,227.25 181.60602706146892,227.32549719445524 178.44064966205042,230.98707565123914 176.20478784828447,230.23211671039462 172.86355614895,235.25253814589814 173.0142884060624,236.6114267357043 169.17061584966723,239.10269761568634 163.9703529793769,243.78318012053205 158.06667290901532,251.5585693201865 156.78544872358907,254.84225604942185 152.89153208152857,260.39042728368076 152.51470143877668,261.8623642927996 152.9417761673103,263.7494465899945 154.6249530383502,266.0516619900882 157.68984226626344,267.4480743355816 160.2271685943124,267.75 157.33813366637332,267.52355579609866 154.07226809556596,265.4478048715973 152.99202025291743,264.01363663823577 152.3639691816643,261.9755897513387 152.69055573875085,260.57913778450165 156.81057076650904,255.03097197879106 157.11203528067563,252.95508660057385 161.00595192273613,247.40670146881894 164.5481599648483,243.17925327683042 172.88867819186999,236.23395864333725 176.00381150539033,230.0811245675286 176.65698461956345,229.89238422267954 178.41552761924686,231.13806708468474 181.85724748997018,227.36324578060885 182.4350544756162,227.32549719445524 182.00797974714078,227.70298272378568" stroke="#4dd2ff" stroke-linecap="round" stroke-linejoin="round" stroke-width="0.5"><title>2016-05-06 3.5km</title></polyline></svg>