<?xml version="1.0" encoding="utf-8" ?>
<svg baseProfile="full" height="300mm" version="1.1" viewBox="0,0,200,300" width="200mm" xmlns="http://www.w3.org/2000/svg" xmlns:ev="http://www.w3.org/2001/xml-events" xmlns:xlink="http://www.w3.org/1999/xlink"><defs /><rect fill="#222222" height="300" width="200" x="0" y="0" /><text fill="#FFFFFF" style="font-size:12px; font-family:Arial; font-weight:bold;" x="10" y="20">Over 1km Workouts</text><text fill="#FFFFFF" style="font-size:4px; font-family:Arial" x="10" y="280">ATHLETE</text><text fill="#FFFFFF" style="font-size:9px; font-family:Arial" x="10" y="290">underwindfall</text><text fill="#FFFFFF" style="font-size:4px; font-family:Arial" x="120" y="280">STATISTICS</text><text fill="#FFFFFF" style="font-size:3px; font-family:Arial" x="120" y="285">Number: 21</text><text fill="#FFFFFF" style="font-size:3px; font-family:Arial" x="120" y="290">Weekly: 1.9</text><text fill="#FFFFFF" style="font-size:3px; font-family:Arial" x="141" y="285">Total: 65.4 km</text><text fill="#FFFFFF" style="font-size:3px; font-family:Arial" x="141" y="290">Avg: 3.1 km</text><text fill="#FFFFFF" style="font-size:3px; font-family:Arial" x="167" y="285">Min: 1.7 km</text><text fill="#FFFFFF" style="font-size:3px; font-family:Arial" x="167" y="290">Max: 4.7 km</text><polyline fill="none" points="39.970529135956895,43.314150533406064 39.7776289350586,42.25168609096727 39.68117883452214,42.324959698235034 38.789015405171085,42.324959698235034 38.6202277293778,42.25168609096727 38.52377762895776,42.25168609096727 38.258539852686226,42.141775625088485 38.017414601519704,42.178412454391946 37.6316141996067,42.105138788567274 37.2458137976937,41.92195449589053 36.28131279302761,41.77540693021729 35.557937039469834,41.592222308478085 34.97923643665854,41.62885924743023 34.64166108507197,41.482311447689426 34.569323509698734,41.518948408571305 34.35231078363722,42.141775625088485 34.15941058273893,42.43487005439238 33.99062290688744,42.508143588594976 33.70127260545269,42.324959698235034 33.29135967849288,42.21504927641945 32.88144675147487,42.21504927641945 32.80910917610163,42.288322898282786 32.833221701323055,42.25168609096727 32.44742129941005,42.36159649095498 32.30274614866357,42.324959698235034 32.254521098395344,42.21504927641945 32.03750837239204,42.03186509346415 31.67582049558405,41.95859136918443 30.590756865392905,41.95859136918443 30.229068988584913,41.88531761546619 29.98794373741839,41.92195449589053 28.90288010716904,41.70213310344843 28.613529805734288,41.70213310344843 28.15539182856446,41.592222308478085 26.925653047510423,41.482311447689426 26.226389819174074,41.7387700205436 26.057602143322583,41.66549617915007 25.792364366992842,41.409037503777654 25.59946416609455,41.372400520936935 25.406563965196256,41.66549617915007 25.141326188808307,43.38742371647095 24.924313462805003,44.12015393789625 24.39383791020373,43.97360812766419 24.225050234410446,44.12015393789625 23.79102478234563,45.329152406644425 23.42933690553764,45.47569713422854 23.42933690553764,45.62224174501898 23.50167448085267,45.84205844158714 23.62223710649414,45.87869453204621 23.64634963159915,45.9886027595785 23.52578700595768,46.75795850950817 23.57401205622591,46.8678662104212 23.64634963159915,46.904502096091164 23.42933690553764,47.234224738233024 23.33288680505939,47.307496355919284 23.33288680505939,47.527311033773 23.236436704639345,48.11348222060769 23.236436704639345,48.47983826158452 23.091761553892866,48.91946454520803 23.043536503624637,49.359089775636676 23.164099129266106,49.79871395294322 22.922973878099583,50.09179615259927 22.874748827831354,50.34824269337696 23.139986604161095,50.53141857456649 23.164099129266106,50.604688875740976 22.850636302726343,51.11758016537351 22.826523777621333,51.227485255294596 22.874748827831354,51.41066025881446 22.874748827831354,51.63047002158419 22.802411252458114,51.8136446228018 22.802411252458114,51.96018417215964 22.53717347618658,52.50970643990149 22.46483590081334,52.58297595125623 21.886135298002046,52.58297595125623 21.669122571940534,52.36316732944397 21.572672471462283,52.36316732944397 21.403884795669,52.1799932767899 21.09042196912924,52.216628101916285 20.27059611515142,52.070088757333 19.474882786278613,52.03345390294271 19.18553248490207,52.25326291969395 18.823844608094078,52.692880163536756 18.968519758840557,52.72951488626131 18.775619557942264,52.83941901070648 18.60683188214898,53.1324963542138 18.630944407195784,53.27903485031857 18.60683188214898,53.498842375178356 18.679169457405806,53.53547693703149 18.53449430677574,53.865187664923724 18.510381781612523,54.12162893253844 18.36570663098246,54.597876050218474 18.38981915602926,54.67114472776302 18.341594105761033,55.03748767710931 18.29336905560922,55.220658877602546 18.24514400534099,55.733537266161875 18.14869390486274,56.026609987413394 18.14869390486274,56.24641422127024 18.0763563294895,56.50285216132761 17.931681178801227,56.50285216132761 17.811118553276174,56.68602189910598 17.787006028054748,56.97909309928946 17.690555927634705,57.08899467876472 13.06095110514434,58.73751047151745 13.03683858003933,58.59097633401689 13.205626255832613,58.29790770809632 13.085063630191144,58.11473957913404 12.843938379024621,57.93157126751612 12.651038178126328,57.60186784566031 12.313462826539762,57.34543144136842 12.024112525046803,56.97909309928946 12.0,56.75928974301496 12.168787675793283,56.50285216132761 12.940388479502872,55.989975922886515 13.229738780937623,55.58700073004002 13.95311453443719,55.44046407673159 14.387139986560214,55.25729309572489 14.628265237726737,55.07412193187338 14.724715338263195,54.78104768936464 14.79705291352002,54.7077790555777 14.700602813099977,55.220658877602546 14.604152712621726,55.33056151009805 14.628265237726737,55.29392730649852 14.411252511723433,54.9642191457242 14.628265237726737,54.7077790555777 14.700602813099977,54.5246073432354 14.700602813099977,54.15826337001636 14.676490287994966,54.011725575939636 14.748827863368206,53.64538057886239 14.79705291352002,53.791918665374396 15.062290689907968,53.755284154758556 15.761553918244317,54.04836003539094 15.761553918244317,54.15826337001636 15.689216342871077,54.26816663876525 16.07501674478408,53.682015111422515 16.171466845204122,53.64538057886239 16.388479571265634,53.682015111422515 16.29202947084559,53.57211149156501 16.243804420577362,53.31566945603117 16.34025452111382,53.1324963542138 16.629604822490364,52.766149601797224 16.677829872758593,52.43643689931196 16.653717347537167,52.1799932767899 16.34025452111382,51.740374804358 16.43670462159207,51.703739884032984 16.629604822490364,51.44729523756541 16.822505023388658,51.33739027931006 17.13596784992842,51.00767500983784 17.16008037509164,50.787864500962314 17.352980575989932,50.53141857456649 17.42531815136317,50.49478341289796 17.594105827156454,50.641324015450664 17.811118553276174,50.641324015450664 18.510381781612523,49.61553734035988 18.60683188214898,49.54226664414455 18.751507032779045,49.50563128510839 18.920294708572328,49.359089775636676 19.4266577361268,48.66301600766019 19.595445411920082,48.29666033256217 19.860683188191615,48.076846576310345 20.077695914253127,47.747125448295265 20.27059611515142,47.56394678786455 20.34293369052466,47.34413215391396 20.873409243125934,46.75795850950817 20.969859343604185,46.53814291008166 20.945746818440966,46.39159903085965 21.25920964492252,46.13514696073253 21.837910247850232,45.329152406644425 22.006697923643515,45.2192437841295 22.175485599495005,44.88951752145658 22.3683858003933,44.63306335201196 22.3683858003933,44.55979066634609 22.73007367720129,44.193426799130975 22.778298727353103,43.97360812766419 23.139986604161095,43.60724309003854 23.26054922968615,43.38742371647095 23.50167448085267,43.13096744765062 23.62223710649414,42.80123743263539 23.839249832497444,42.508143588594976 23.887474882765673,42.36159649095498 24.128600133932196,42.178412454391946 24.32150033483049,41.92195449589053 24.514400535845198,42.03186509346415 24.70730073674349,42.36159649095498 24.876088412536774,42.36159649095498 25.117213663761504,42.508143588594976 25.310113864718005,42.47150682518259 25.38245143997483,42.43487005439238 25.310113864718005,42.25168609096727 25.43067649024306,41.995228234969545 25.478901540569495,41.77540693021729 25.695914266514592,41.262489528467995 25.91292699263431,41.518948408571305 26.298727394489106,41.592222308478085 26.80509042192716,41.518948408571305 26.8774279973004,41.44567447928421 27.02210314804688,41.44567447928421 27.72136637638323,41.592222308478085 31.699933020805474,42.03186509346415 32.10984594776528,42.105138788567274 32.23040857329033,42.25168609096727 32.42330877430504,42.36159649095498 33.00200937711634,42.21504927641945 33.677160080347676,42.25168609096727 34.08707300736569,42.39823327631166 34.3040857334272,42.324959698235034 34.64166108507197,42.508143588594976 35.50971198931802,42.80123743263539 36.59477561956737,42.80123743263539 37.31815137306694,43.05769416225667 37.6316141996067,43.05769416225667 38.13797722704476,43.314150533406064 38.4032150033745,43.350787128540105 38.6202277293778,43.314150533406064 39.030140656395815,43.38742371647095 39.36771600798238,43.533969994750805 39.75351640989538,43.936971656861715 39.80174146016361,44.04688104732486 40.018754186225124,44.193426799130975 40.091091761540156,44.30333603596955 40.25987943733344,44.44988158298656 40.59745478903642,44.55979066634609 40.91091761557618,44.85288123344071 41.176155391847715,44.7796086356102 41.85130609507905,44.81624493819254 41.97186872072052,44.85288123344071 42.188881446723826,44.85288123344071 42.62290689890506,44.99942634148465 42.6952444742783,45.10933509575261 43.82853315473767,45.951966690976406 43.94909578032093,45.951966690976406 44.383121232443955,46.42823501158273 44.57602143334225,46.50150695128832 44.76892163429875,46.28169104468543 44.84125920961378,46.17178299256193 44.84125920961378,46.20841901720269 45.03415941062849,46.2450550346839 45.34762223705184,45.951966690976406 45.444072337588295,45.951966690976406 45.612860013439786,45.8054223437357 45.6610850635916,45.695514006351004 45.612860013439786,45.54896945430664 45.636972538544796,45.47569713422854 45.56463496317156,44.742972325650044 45.49229738779832,44.70633600842848 45.73342263896484,44.523154312570114 46.84259879437741,44.596427012758795 47.469524447456934,44.55979066634609 48.0,44.7796086356102" stroke="#4dd2ff" stroke-linecap="round" stroke-linejoin="round" stroke-width="0.5"><title>2022-05-17 2.8km</title></polyline><polyline fill="none" points="94.66666666662786,35.77617893740535 94.35972391394898,35.57630385883385 93.78968737309333,35.509678806120064 93.21965083235409,35.70955392444739 92.82501015020534,35.97605389615637 90.93950466904789,36.44242833426688 90.72025984572247,36.84217733403784 90.67641088110395,37.10867640117067 90.93950466904789,37.50842460276908 91.20259845710825,40.040152092056815 91.42184328055009,40.57314490538556 91.42184328055009,40.77301699097734 91.29029638657812,40.90626498157508 91.50954120978713,41.039512918825494 91.64108810387552,41.239384725049604 90.50101502228063,41.37263252932462 90.76410881034099,42.371989365667105 90.4571660576621,42.57186037377687 87.12464474211447,41.972246990393614 85.8530247665476,41.972246990393614 85.72147787245922,41.639127978356555 85.72147787245922,43.17147267979453 85.8530247665476,43.704460491921054 85.72147787245922,44.37069405973307 84.93219650816172,44.63718711450929 84.97604547301307,44.63718711450929 84.53755582624581,45.236795709322905 84.01136825000867,45.303418820287334 83.79212342668325,45.5699111300346 81.81892001617234,44.37069405973307 79.49492488824762,43.57121361873578 79.18798213545233,43.504590162076056 78.48639870085754,43.7710839084757 78.44254973600619,44.37069405973307 78.22330491268076,45.1035494482785 77.82866423053201,47.43535134001286 77.87251319515053,48.23482252363465 77.74096630129497,49.300781122234184 77.47787251323462,49.900381337618455 77.43402354838327,50.56660253551672 77.21477872505784,50.899712635873584 77.12708079570439,52.03228448948357 76.77628907829057,53.631202915275935 76.73244011367206,54.16417402136722 76.86398700776044,55.23011368029984 76.68859114893712,57.162120633525774 76.77628907829057,58.16143018574803 76.60089321970008,58.827634891611524 76.51319529023021,59.56045853186515 75.98700771422591,60.426520759094274 75.28542427928187,60.5597609023971 73.09297604544554,59.826939456455875 71.382866422995,59.7603192453098 69.4096630126005,59.49383826734265 69.05887129507028,59.693699020834174 68.97117336583324,59.826939456455875 69.19041818915866,61.49244041505153 69.19041818915866,62.22525820333976 69.10272025980521,62.69159595828387 68.83962647174485,63.157933061389485 67.61185546091292,63.69088895278401 67.1295168492943,63.82412779267179 62.08688591141254,64.42370191347436 61.82379212335218,64.2904633130529 59.938286642194726,64.49032119387994 59.41209906619042,64.2904633130529 58.79821356071625,63.22455259444541 58.79821356071625,62.35849762856378 58.88591148995329,61.892159408307634 58.84206252533477,61.292580738838296 58.92976045480464,61.092720943066524 58.754364595981315,60.759621017379686 58.66666666662786,60.35990066762315 58.92976045480464,58.7610144809878 59.06130734866019,58.49453270496451 59.017458384041674,58.36129173723748 59.14900527813006,58.16143018574803 59.14900527813006,57.76170672403532 58.973609419423155,57.29536207995261 58.92976045480464,56.762395974627 59.017458384041674,55.69646121034748 58.92976045480464,55.03025025353418 58.973609419423155,54.16417402136722 59.19285424274858,53.43133853105246 59.14900527813006,52.96498783561401 59.236703207483515,52.69850143123767 59.10515631351154,52.298771425674204 58.92976045480464,52.36539312644163 58.710515631362796,52.0989062434528 58.710515631362796,51.03295658269781 58.88591148995329,50.100247836642666 58.79821356071625,49.767136938578915 58.88591148995329,48.36806753449491 59.06130734866019,47.901709763129475 59.32440113672055,46.569255396403605 59.54364596027881,46.10289511116571 59.63134388951585,45.76978022282128 59.89443767757621,45.50328807262122 59.982135607046075,45.170172585349064 60.81526593572926,44.30407076267875 60.902963865199126,44.037577442097245 61.47300040605478,43.10484914359404 61.60454730002675,42.57186037377687 61.82379212335218,42.371989365667105 63.44620381644927,42.5052367177268 64.3231831099838,42.838354865059955 65.41940722696017,43.03822559377295 65.85789687372744,43.30471971281804 66.34023548511323,43.3713432092045 66.77872513188049,43.57121361873578 67.26106374338269,43.63783706186223 68.31343889550772,44.10420079212054 69.05887129507028,44.63718711450929 69.67275680066086,44.83705676579848 70.85667884699069,44.903679956449196 71.86520503461361,44.83705676579848 73.04912708082702,45.03692629741272 73.31222086877096,44.903679956449196 76.38164839614183,45.370041917660274 76.95168493699748,45.1035494482785 77.30247665452771,44.770433561876416 77.56557044247165,43.3713432092045 77.52172147785313,43.17147267979453 78.70564352406655,42.705107646033866 79.40722695901059,42.6384840166138 79.58262281760108,42.90497845472419 80.28420625254512,43.23809620295651 82.0820138042327,44.57056387083139 82.52050345099997,44.57056387083139 83.26593585056253,44.83705676579848 83.83597239130177,44.57056387083139 84.49370686139446,44.63718711450929 84.8883475435432,44.30407076267875 84.93219650816172,44.10420079212054 84.71295168495271,43.57121361873578 84.49370686139446,43.10484914359404 84.27446203818545,42.771731262124376 85.15144133171998,42.30536566959927 87.08079577749595,42.1054945019132" stroke="#4dd2ff" stroke-linecap="round" stroke-linejoin="round" stroke-width="0.5"><title>2022-05-14 2.0km</title></polyline><polyline fill="none" points="121.85880244080909,34.76139147557842 121.61876252805814,35.126101372836274 121.48159686371218,35.54291205998743 121.4473054476548,35.751317153757554 120.96722562215291,36.16812684228353 121.20726553502027,37.73115724523086 121.31013978319243,37.83535893911903 121.4473054476548,37.887459770572605 121.51588827976957,38.14796377152379 121.51588827976957,37.83535893911903 121.37872261542361,37.93956059163611 121.20726553502027,38.773172312867246 121.34443119936623,38.98157482717943 121.65305394423194,39.08577602193691 121.75592819252051,39.294178286610986 121.68734536040574,39.50258038484026 121.72163677646313,39.65888184926007 122.03025952132884,40.336187113498454 122.16742518579122,40.90929019487521 122.13313376973383,42.52439210761804 122.16742518579122,42.7327916262293 122.06455093750264,43.35798918396176 122.2017166018486,44.08738444157643 122.09884235356003,44.452081305891625 122.13313376973383,45.38987090262526 122.06455093750264,45.49406953869038 122.16742518579122,46.17135965905618 122.13313376973383,46.900747053688974 122.2017166018486,47.057044087399845 122.13313376973383,47.42173680187261 122.2017166018486,48.463713177945465 122.13313376973383,48.984699805878336 122.33888226619456,49.50568539388769 122.44175651448313,50.18296510337677 122.30459085013717,50.547653449713835 122.51033934683073,51.95430372598639 122.44175651448313,52.05849974116427 122.44175651448313,52.31898959704267 122.51033934683073,52.423185466672294 122.47604793077335,53.204653162523755 122.6132135951193,53.621434976827004 122.57892217906192,53.986118518339936 122.64750501117669,54.663386600645026 122.6132135951193,55.02806868618063 122.64750501117669,55.75743132850039 122.6132135951193,55.86162582520046 122.81896209169645,56.27840339658724 122.85325350775383,56.799374424590496 122.9904191722162,57.2161504982505 122.95612775615882,57.4245382854715 123.0590020044474,57.789216512814164 122.9904191722162,58.101797444949625 122.9904191722162,58.362281269204686 123.26475050090812,59.247924326497014 123.50479041377548,59.56050351145677 123.57337324589025,59.76888942686492 123.64195607812144,59.76888942686492 123.7791217424674,60.654527710954426 124.01916165521834,61.019201425107894 124.12203590350691,61.696451256546425 124.39636723231524,62.16531549493084 124.46495006454643,62.998849838913884 124.567824312835,63.10304144475958 124.60211572889239,63.72819020616589 124.77357280952856,63.93657279390027 124.97932130598929,64.71800601611903 125.39081829925999,65.08267405239167 125.39081829925999,65.34315090936434 125.69944104424212,66.07248472544597 125.8023152925307,66.43715086924203 125.76802387635689,66.80181650348823 125.66514962806832,66.95810161928239 125.66514962806832,67.42695640529564 125.8023152925307,67.84371550794458 125.87089812464546,67.94790517965157 126.1795208696276,67.79162065668788 126.21381228568498,67.94790517965157 126.31668653397355,67.84371550794458 126.38526936620474,67.84371550794458 125.97377237293404,68.0 126.00806378899142,67.89581034895673 125.97377237293404,67.94790517965157 126.1795208696276,67.84371550794458 126.1795208696276,67.89581034895673 126.11093803739641,68.0 126.11093803739641,67.73952579463366 126.04235520528164,67.94790517965157 126.38526936620474,67.94790517965157 125.93948095687665,67.16648162821366 125.93948095687665,67.01019663702755 125.83660670858808,66.69762637422536 125.90518954070285,66.43715086924203 125.87089812464546,66.07248472544597 125.8023152925307,65.81200859640376 125.8023152925307,65.39524624946353 125.66514962806832,65.08267405239167 125.59656679595355,64.40543300793797 124.70498997718096,62.47789118580113 124.53353289677761,61.64435517799575 124.46495006454643,61.019201425107894 124.22491015179548,60.39404617466789 124.1906187357381,60.18566075855051 124.12203590350691,60.08146798801317 123.74483032641001,58.726958186220145 123.4362075815443,57.99760384255205 123.23045908485074,57.63292590637866 122.9904191722162,56.48679193251883 122.88754492381122,56.38259768529679 123.02471058827359,55.86162582520046 122.9904191722162,55.288555578139494 122.85325350775383,54.871776426109136 122.75037925946526,54.19450888475694 122.75037925946526,52.78787068267411 122.78467067552265,52.423185466672294 122.71608784340788,52.21479368604196 122.75037925946526,51.85010766919004 122.71608784340788,51.64171543082921 122.78467067552265,51.172832286320045 122.68179642723408,51.01653771760175 122.68179642723408,50.59975174309511 122.75037925946526,50.2350634697068 122.64750501117669,49.81827624734433 122.71608784340788,49.609882386546815 122.64750501117669,49.34938982661697 122.71608784340788,49.245192729795235 122.51033934683073,48.15112070189207 122.54463076288812,47.786429006708204 122.44175651448313,47.36963787392597 122.51033934683073,47.26543998657144 122.47604793077335,46.69235086331901 122.44175651448313,46.53605361121299 122.40746509842575,46.067161293380195 122.2017166018486,45.33777156902943 122.2360080180224,44.452081305891625 122.33888226619456,44.24368316018081 122.33888226619456,43.56638803702663 122.30459085013717,43.1495901644812 122.13313376973383,42.88909115610295 122.2360080180224,42.36809235927649 122.2017166018486,41.58659221393464 122.16742518579122,41.48239201772958 122.30459085013717,41.16979117943265 122.2360080180224,40.70088921995193 122.27029943407979,40.54458837964921 122.2360080180224,40.336187113498454 121.96167668909766,39.91938408196438 121.72163677646313,39.137876603752375 121.413014031481,38.72107165836496 121.24155695107765,38.616870317971916 121.31013978319243,38.564769632110256 121.48159686371218,37.887459770572605 121.24155695107765,37.41855191352079 121.17297411873005,37.05384522002714 121.20726553502027,36.79334012675099 121.07009987044148,36.532834773737704 121.00151703832671,35.751317153757554 120.89864279003814,35.17820274521364 120.72718570940197,34.76139147557842 120.6586028772872,34.13617332307331 120.6586028772872,33.45885196744348 120.55572862899862,33.30254678944766 120.48714579676744,32.78152885384043 120.28139730030671,32.05210199636349 120.93293420609552,32.260509877989534 121.07009987044148,32.208407923259074 121.20726553502027,32.0" stroke="#4dd2ff" stroke-linecap="round" stroke-linejoin="round" stroke-width="0.5"><title>2022-05-14 1.7km</title></polyline><polyline fill="none" points="182.84305757289985,32.0 182.53208765591262,32.03149965341436 182.4491623447393,32.06299930054229 182.40769968909444,32.31499625064316 181.99307313305326,32.53549325185304 181.35040197125636,32.31499625064316 180.9565067430376,32.66149139982008 180.27237292553764,32.69299092126312 179.71262707491405,32.85048843335244 179.56750778033165,33.007985788208316 179.29800051887287,33.10248412571673 178.8833739628899,33.48047690943349 178.75898599612992,33.858468787686434 178.59313537366688,34.04746438720031 177.3907183611882,34.11046286999772 177.14194242755184,33.92146734599373 176.76877852715552,33.79547020418977 176.64439056033734,33.76397090306273 176.47853993799072,33.858468787686434 176.3956146267592,33.858468787686434 176.35415197117254,33.98446587918443 176.35415197117254,34.23645976022817 176.1883013487677,34.677448083719355 176.02245072630467,34.7719454212056 175.56636151473504,35.40192622486211 175.400510892272,35.496423128424794 174.7578397304169,35.496423128424794 174.30175051878905,35.464924166866695 173.84566130721942,35.11843517443049 173.59688537352486,34.80344452119607 173.16152748971945,34.55145154558704 172.7054382780916,34.39395573158981 172.39446836110437,34.39395573158981 171.60667790466687,34.29945816764666 171.10912603745237,34.141962102017715 170.94327541498933,34.20496054714022 170.52864885894815,34.04746438720031 170.05182831955608,33.98446587918443 169.7823210580973,33.88996806993964 169.53354512451915,33.88996806993964 169.2018438797095,33.700972281745635 168.66282935685012,33.66947296175931 168.51771006226772,33.76397090306273 168.45551607880043,33.76397090306273 168.45551607880043,33.637973635457456 168.16527748963563,33.54347561876057 167.91650155605748,33.60647430278186 167.72991960583022,33.732471595634706 167.54333765560295,33.79547020418977 167.0043231327436,33.41747817500436 166.34092064312426,33.22848182088637 165.864100103674,33.1339835589024 165.17996628623223,33.1339835589024 164.93119035265408,33.03948524026782 164.47510114102624,33.007985788208316 164.03974325722083,32.881987916858634 163.54219139000634,32.881987916858634 162.3812370331143,32.724490436216 161.96661047707312,32.91348739416571 161.51052126538707,33.259981228926335 161.44832728197798,33.44897754539852 161.36540197080467,33.98446587918443 161.2410140039865,34.330957361948094 161.13735736499075,34.89794178312877 161.1788200206356,34.866442702114 160.78492479235865,34.99243898862915 160.2459102695575,35.02393804457097 160.26664159732172,35.43342519906582 160.20444761397084,35.559421032710816 160.20444761397084,35.71691568332608 160.14225363056175,36.00040565828385 159.91420902468963,36.661880285537336 159.91420902468963,37.00836588833772 159.76908973010723,37.386349314270774 159.58250777993817,38.11081501642184 159.5410451242933,38.551792510799714 159.43738848535577,39.024267029730254 159.41665715747513,39.55973644086043 159.37519450194668,39.87471759841719 159.1886125516612,40.56767393165501 159.12641856825212,41.197631593444385 159.0434932570788,41.449613954042434 158.9605679459055,42.04807044719928 158.87764263461577,42.30005144949246 158.7532546678558,42.489036937084165 158.67032935662428,42.867007233027834 158.50447873421945,43.21347920897824 158.463016078691,43.55995042419818 158.0483895226498,45.29229508723074 157.98619553924073,45.638761737413006 157.98619553924073,45.98522762674838 158.1105835060007,46.2686991521623 158.21424014505465,46.89863405180222 158.2557028006413,47.18210393610934 158.21424014505465,47.717545661493205 158.1935088172322,47.90652466015308 157.96546421136009,48.63094205803645 157.65449429437285,49.355356129890424 157.5508376553189,49.76480609063583 157.30206172179896,50.33173505133891 157.3227930495632,50.42622301346273 157.2605990661541,50.96165372968244 157.3227930495632,51.4025953081582 157.3227930495632,51.52857838998898 157.3435243773274,51.62306563530001 157.36425570520805,52.18998791910417 157.1776737549808,52.5364394231874 157.15694242715836,52.72541265023756 157.21913641056744,53.00887206628977 157.21913641056744,53.166349299732246 157.3435243773274,53.60728471699986 157.4679123441456,54.142704638521536 157.4886436719098,54.39466632589756 157.57156898319954,54.6781227432366 157.53010632755468,54.83559831058665 157.59230031096376,55.15054897380469 157.59230031096376,56.189881702215644 157.63376296660863,56.567819178890204 157.77888226124924,56.97725042363163 157.82034491677769,57.638637113108416 157.86180757242255,57.7331206996314 157.88253890018677,58.04806557930715 157.903270227951,58.99289644662349 157.98619553924073,59.2763446035824 157.98619553924073,59.49680392915616 158.23497147281887,60.34714415683993 158.44228475081036,61.57540528452955 158.52521006198367,61.7958613979572 158.5459413898643,61.95332986181893 158.64959802880185,62.14229181104747 158.8983739624964,63.21307191555388 159.00203060143394,63.465019119379576 159.08495591260726,64.03189885734173 159.14714989607455,64.2208583173342 159.1886125516612,64.59877655857417 159.3130005185376,65.039680029382 159.33373184630182,65.22863828264235 159.5410451242933,65.92148327520408 159.62397043546662,66.6458179691981 159.748358402343,67.0237304027105 159.8934776969254,67.33865673921537 160.05932831927203,67.9055225609336 160.1837162860902,68.0 160.43249221978476,67.93701504703495 160.34956690855324,67.84253757026454 160.16298495832598,66.99223773455014 160.08005964715267,66.86626699872431 159.85201504133875,66.17342615462258 159.76908973010723,65.41759630960587 159.64470176334726,65.16565222335339 159.6032391077024,64.81922844798828 159.45811981312,64.50429708314186 159.3959258297109,64.1578718558012 159.33373184630182,63.96891232028429 159.33373184630182,63.87443246769544 159.23007520730607,63.49651249157614 159.08495591260726,63.181578486735816 158.91910529026063,62.64618923587841 158.8983739624964,62.33125353390642 158.83617997908732,62.11079816851998 158.71179201226914,61.890342495113146 158.58740404539276,61.57540528452955 158.6081353732734,61.35494886302331 158.56667271762853,61.13449213356944 158.6081353732734,61.040010583761614 158.56667271762853,60.66208381901379 158.6081353732734,60.47312009714369 158.6081353732734,60.09519197458576 158.62886670103762,59.78025118089863 158.5459413898643,59.43381558184046 158.5459413898643,59.307838811771944 158.58740404539276,59.24485038901912 159.3130005185376,58.961402175511466 159.70689574669814,58.961402175511466 159.72762707452057,58.92990789815667 160.0385969915078,58.86691932451504 160.97150674264412,58.89841361444269 161.0337007260532,58.8039307257568 160.99223807040835,58.77243641698442 161.0337007260532,58.55197607931041 161.01296939817257,58.394504220894305 160.95077541476348,58.14254892067402 160.86785010359017,57.98507665372745 160.76419346459443,57.10322905436624 160.78492479235865,56.567819178890204 160.80565612018108,56.37885055370862 160.76419346459443,55.93792288163968 160.86785010359017,54.58363732731959 160.84711877582595,54.11120939931425 160.93004408699926,52.44195272476645 160.90931275923504,52.28447476842848 160.90931275923504,51.05614131457696 160.82638744800352,50.61519876787497 160.78492479235865,50.36323104496114 160.72273080894956,49.41834850073792 160.743462136772,49.10338639514521 160.63980549777625,48.31597838072048 160.61907417001203,47.62305607723829 160.3910295641399,46.0797181918897 160.37029823637567,45.60726480062294 160.3081042529666,45.355289080165676 160.3081042529666,45.16630702580733 160.20444761397084,44.5363652096712 160.08005964715267,44.28438777892734 159.99713433597935,43.62294510877109 159.99713433597935,43.150484360943665 159.91420902468963,42.7725147439196 159.8105523857521,42.615027136256685 159.8312837135163,42.426041799626546 159.72762707452057,42.04807044719928 159.6032391077024,40.85115519077226 159.66543309111148,40.819657298285165 159.6032391077024,40.3786861426488 159.43738848535577,39.84321951099264 159.3959258297109,39.370747444438166 159.43738848535577,39.24475465438445 159.41665715747513,38.551792510799714 159.49958246864844,37.63833776200772 159.56177645205753,37.260354939615354 159.91420902468963,36.220897508843336 159.93494035257027,36.03190451298724 159.87274636916118,35.43342519906582 160.01786566374358,35.33892825769726 160.01786566374358,35.2759302653576 160.14225363056175,34.960939926459105 160.26664159732172,34.80344452119607 160.51541753095808,34.7719454212056 160.90931275923504,34.89794178312877 160.8885814313544,34.929440857929876 161.26174533180892,34.677448083719355 161.28247665963136,34.20496054714022 161.3861332986271,33.66947296175931 161.40686462644953,33.44897754539852 161.48978993762285,33.22848182088637 161.8836851658416,32.944986865099054 162.21538641070947,32.75598994489701 162.4434310165234,32.724490436216 164.20559387956746,32.944986865099054 164.59948910784442,33.03948524026782 166.52750259335153,33.19698240645812 166.90066649374785,33.29148063076718 167.31529304978903,33.48047690943349 167.68845695018535,33.35447941548773 168.04088952281745,33.35447941548773 168.4969787344453,33.48047690943349 168.7250233402592,33.41747817500436 169.32623184652766,33.48047690943349 169.53354512451915,33.48047690943349 169.65793309133733,33.48047690943349 169.86524636938702,33.637973635457456 170.32133558095666,33.60647430278186 171.2749766598572,33.66947296175931 171.8347225104808,33.82696949905949 172.10422977188136,33.98446587918443 172.72616960591404,34.0789636317204 173.0578708507819,34.23645976022817 173.36884076776914,34.456954076027614 173.49322873458732,34.677448083719355 173.6176167014055,34.740446314943256 173.7627359959879,34.89794178312877 174.03224325744668,35.11843517443049 174.28101919102482,35.24443125979451 174.77857105823932,35.2759302653576 174.8407650416484,35.40192622486211 175.60782417026348,35.43342519906582 175.81513744831318,35.496423128424794 175.8980627594865,35.59091997538053 176.20903267653193,35.87441017680976 176.72731587151065,36.1264010391169 176.91389782179613,36.283895123924594 177.43218101683306,36.441389051338774 177.7638822615845,36.69337900825485 177.78461358946515,36.661880285537336 178.01265819527907,36.69337900825485 178.28216545667965,36.40989027838805 178.36509076785296,36.441389051338774 178.5309413902578,36.15789986876189 178.51021006249357,35.77991349955846 178.40655342349783,35.559421032710816 178.42728475126205,35.43342519906582 178.51021006249357,35.370427244357415 178.90410529071232,35.40192622486211 179.1736125521711,35.33892825769726 179.69189574714983,35.08693613744981 180.21017894212855,35.11843517443049 180.2516415977734,35.05543709413905 180.811387448397,35.181433229663526 180.811387448397,34.960939926459105 181.20528267667396,34.677448083719355 181.2467453322024,34.48845323889691 181.26747666008305,33.82696949905949 181.18455134890974,33.98446587918443 181.08089470985578,34.04746438720031 181.08089470985578,33.98446587918443 180.9565067430376,34.0789636317204" stroke="#4dd2ff" stroke-linecap="round" stroke-linejoin="round" stroke-width="0.5"><title>2022-05-13 4.4km</title></polyline><polyline fill="none" points="40.9316983417375,72.0 36.858005626359954,72.73821610669256 39.36201857984997,84.37906291768013 37.605472179711796,85.45794654601195 34.578232638770714,83.12982412995188 33.382286153617315,84.09514549312007 34.578232638770714,105.38816591663635 31.96209970244672,106.69408595611458 24.898540773778223,108.0 23.814714271691628,102.83308762818342 23.926834254525602,93.691397345101 19.0683016582625,93.12358080374543 19.255168296513148,99.76696338529291 20.637981420150027,101.4703698228841 21.83392790541984,101.64070990571054 23.216741028940305,100.67544808815 23.665220960858278,94.7702456509287 21.086461352184415,93.63461574201938 19.442034934996627,95.0541524196451 19.404661607113667,100.22120609950798 20.712728075450286,101.52714986186766 21.946047888486646,101.64070990571054 22.99250106292311,101.52714986186766 23.403607667190954,100.44832718459656 23.51572765025776,94.65668286406435 21.684434594819322,93.5210525017319 19.404661607113667,94.65668286406435 19.255168296513148,100.05086516679148 20.376368126482703,101.30002963822335 22.99250106292311,101.41358977273921 23.590474305674434,97.43895808947855 23.36623433965724,94.37277569860453 22.282407837337814,93.63461574201938 20.11475483281538,94.08886824974616 19.66627490078099,100.95934896287508 21.086461352184415,101.75426990418055 23.141994373640046,101.30002963822335 23.47835432260763,96.92792998637015 23.36623433965724,100.67544808815" stroke="#4dd2ff" stroke-linecap="round" stroke-linejoin="round" stroke-width="0.5"><title>2022-05-04 3.1km</title></polyline><polyline fill="none" points="87.31823277031071,72.44723336111929 87.46540466812439,72.0 86.95030302577652,72.61494568730996 87.64936954039149,72.44723336111929 87.17106087249704,72.89446600803058 85.84651379229035,73.00627405795967 84.81631050759461,73.34169794039917 83.2710055806674,73.22989002424583 83.67572829965502,73.50940973102115 83.4549704529345,74.06844830718182 83.89648614625912,74.45977464638418 83.74931424856186,74.96290770765336 83.85969317192212,75.6337503825489 84.15403696754947,76.13688133428514 84.41158778872341,77.19904370766017 84.41158778872341,77.75807491714659 84.70593158423435,78.20529908133904 85.0002753798617,79.3233563665708 85.29461917548906,81.22404350568831 85.25782620103564,81.72716441229568 85.29461917548906,83.51603142550448 85.40499809884932,84.13095182196412 85.77292784338351,84.63406750539434 85.11065430322196,85.5843946631503 84.00686506961938,85.69619764617528 83.71252127410844,85.30488701041031 83.34459152957425,84.91357582779892 82.4615601428086,84.29865715018241 81.94645850046072,84.13095182196412 81.06342711357865,83.46012950435397 80.43794654787052,83.40422757212946 80.07001680333633,83.90734456131759 79.88605193118565,84.41046064642433 79.95963788009249,85.52849315485219 80.29077465005685,86.59061990304326 80.32756762451027,87.20553354734147 80.29077465005685,88.88256389561866 80.32756762451027,90.0005785478279 80.47473952244036,91.17448912828695 80.32756762451027,92.96329578766017 80.43794654787052,93.52229552525387 80.43794654787052,94.1371939474775 80.18039572669659,94.58439195204119 80.10680977790616,95.64648435031995 80.3643605990801,96.65267343287996 80.4011535734171,97.2116658052255 80.51153249677736,97.82655612600502 80.43794654787052,98.88863622698409 80.65870439459104,100.00661092874361 80.84266926697455,101.29227631776303 81.1370130624855,102.35434327388066 81.17380603693891,102.96922230192285 81.46814983256627,104.0871807122021 81.06342711357865,105.37282736632915 80.54832547123078,105.82000742766832 80.10680977790616,106.04359719039348 79.55491516110487,106.26718677475583 79.00302054430358,106.32308414288855 78.48791890207212,106.6025708164816 76.72185612830799,106.82615995456581 74.33031278906856,107.27333769485995 73.74162519781385,107.55282342010469 73.15293760655914,107.66461763190455 72.04914837295655,108.0 71.49725375627168,107.88820592191769 71.23970293509774,107.38513201841852 71.05573806283064,106.21128939544724 70.7981872416567,105.70821247927961 70.57742939493619,104.4784651013033 70.57742939493619,103.86358938731428 70.46705047169235,102.85742621553072 70.54063642048277,102.29844511342526 70.72460129286628,98.94453506814898 70.83498021622654,98.44144509654143 70.87177319056354,97.32346414582571 70.72460129286628,96.65267343287996 70.72460129286628,96.0936799444753 70.61422236950602,95.53468534018612 70.76139426720329,94.36079303904262 70.57742939493619,93.85769483214244 70.02553477825131,93.74589510768419 68.73778067249805,93.35459572107357 68.18588605558034,93.29869576396595 67.00851087307092,93.13099582618452 66.34623733302578,93.13099582618452 65.7943427163409,93.2427957958862 65.7943427163409,94.24899351569184 65.72075676731765,94.86389034215244 65.68396379298065,95.42288628555252 65.75754974177107,96.48497550364118 65.68396379298065,97.6029598020832 66.12547948630527,97.99425325181801 66.05189353751484,99.22402910607343 65.94151461415458,99.83891500810569 66.41982328204904,100.84508902595553 67.33964764326811,101.4599713680509 68.4802298512077,101.68356461233634 69.51043313590344,101.18047956185183 69.8415699058678,100.7332920912304 70.02553477825131,100.23020533350063 70.09912072715815,97.04396821059345 70.28308559930883,95.4787858184718 70.28308559930883,94.91978998661216 70.02553477825131,94.4725925178791 69.51043313590344,94.08129414674477 68.99533149355557,93.85769483214244 67.78116333670914,93.74589510768419 67.19247574545443,93.96949451166438 66.71416707755998,94.24899351569184 66.34623733302578,94.69619134157256 66.12547948630527,95.14338845325983 66.05189353751484,96.26137810808723 66.12547948630527,96.82037126172509 66.08868651185185,97.88245517908945 66.01510056294501,99.00043389800703 66.12547948630527,100.23020533350063 66.41982328204904,100.7332920912304 66.89813194982708,101.23637794540264 67.41323359217495,101.57176801266905 68.59060877456795,101.68356461233634 69.6208120592637,101.51586969594064 69.87836288043763,101.06868276103341 70.06232775258832,100.45379955973476 70.17270667594858,99.83891500810569 70.17270667594858,98.60914185413276 70.24629262497183,98.05015227152035 70.209499650402,97.54706069290114 70.28308559930883,97.04396821059345 70.24629262497183,95.31108718598261 70.13591370161157,94.80799068648776 69.8415699058678,94.30489328296972 68.92174554464873,93.74589510768419 68.33305795339402,93.68999522886588 66.78775302646682,93.91359467746224 66.12547948630527,94.75209101955988 66.05189353751484,95.4787858184718 66.12547948630527,97.88245517908945 66.05189353751484,98.49734402682225 66.12547948630527,99.11223152457387 66.01510056294501,99.61532029088994 65.94151461415458,100.11840815344476 66.23585840966552,100.56559660591302 66.5669951797463,100.95688591590442 67.04530384764075,101.29227631776303 67.56040548998863,101.62766631809063 68.07550713222008,101.7394628955808 68.62740174913779,101.68356461233634 69.14250339136925,101.7394628955808 69.6208120592637,101.4599713680509 70.09912072715815,100.39790101983817 70.24629262497183,97.49116157292156 70.09912072715815,95.03158924239688 69.9887418037979,94.52849224045349 69.51043313590344,94.1371939474775 68.92174554464873,93.80179497537029 67.81795631104615,93.68999522886588 67.26606169436127,93.80179497537029 66.82454600092024,94.24899351569184 66.41982328204904,94.69619134157256 66.27265138423536,95.31108718598261 66.1622724608751,96.48497550364118 66.1990654352121,97.04396821059345 66.08868651185185,98.16195027723734 66.08868651185185,98.77683851143229 66.01510056294501,99.33582664334972 66.1622724608751,100.45379955973476 66.3830303074792,101.01278434402775 67.22926871979143,101.7394628955808 67.78116333670914,101.79536116750387 69.40005421254318,101.68356461233634 69.76798395707738,101.34817467913672 69.95194882922806,100.78919056418817 70.06232775258832,99.61532029088994 70.09912072715815,99.11223152457387 70.02553477825131,98.60914185413276 70.209499650402,98.10605127982853 70.13591370161157,96.98806899013289 70.17270667594858,97.54706069290114 70.28308559930883,98.05015227152035 70.31987857376225,99.67121898685582 70.24629262497183,100.17430674897332 70.02553477825131,100.67739360725682" stroke="#4dd2ff" stroke-linecap="round" stroke-linejoin="round" stroke-width="0.5"><title>2022-05-04 3.2km</title></polyline><polyline fill="none" points="133.98489943693858,72.44723336111929 134.13207133475225,72.0 133.61696969240438,72.61494568730996 134.31603620701935,72.44723336111929 133.8377275391249,72.89446600803058 132.5131804589182,73.00627405795967 131.48297717422247,73.34169794039917 129.93767224729527,73.22989002424583 130.34239496628288,73.50940973102115 130.12163711956237,74.06844830718182 130.56315281288698,74.45977464638418 130.41598091518972,74.96290770765336 130.52635983854998,75.6337503825489 130.82070363417733,76.13688133428514 131.07825445535127,77.19904370766017 131.07825445535127,77.75807491714659 131.3725982508622,78.20529908133904 131.66694204648957,79.3233563665708 131.96128584211692,81.22404350568831 131.9244928676635,81.72716441229568 131.96128584211692,83.51603142550448 132.07166476547718,84.13095182196412 132.43959451001137,84.63406750539434 131.77732096984982,85.5843946631503 130.67353173624724,85.69619764617528 130.3791879407363,85.30488701041031 130.0112581962021,84.91357582779892 129.12822680943646,84.29865715018241 128.61312516708858,84.13095182196412 127.73009378020652,83.46012950435397 127.10461321449839,83.40422757212946 126.73668346996419,83.90734456131759 126.55271859781351,84.41046064642433 126.62630454672035,85.52849315485219 126.95744131668471,86.59061990304326 126.99423429113813,87.20553354734147 126.95744131668471,88.88256389561866 126.99423429113813,90.0005785478279 127.14140618906822,91.17448912828695 126.99423429113813,92.96329578766017 127.10461321449839,93.52229552525387 127.10461321449839,94.1371939474775 126.84706239332445,94.58439195204119 126.77347644453403,95.64648435031995 127.03102726570796,96.65267343287996 127.06782024004497,97.2116658052255 127.17819916340522,97.82655612600502 127.10461321449839,98.88863622698409 127.3253710612189,100.00661092874361 127.50933593360242,101.29227631776303 127.80367972911336,102.35434327388066 127.84047270356677,102.96922230192285 128.13481649919413,104.0871807122021 127.73009378020652,105.37282736632915 127.21499213785864,105.82000742766832 126.77347644453403,106.04359719039348 126.22158182773273,106.26718677475583 125.66968721093144,106.32308414288855 125.15458556869999,106.6025708164816 123.38852279493585,106.82615995456581 120.99697945569642,107.27333769485995 120.40829186444171,107.55282342010469 119.819604273187,107.66461763190455 118.71581503958441,108.0 118.16392042289954,107.88820592191769 117.9063696017256,107.38513201841852 117.7224047294585,106.21128939544724 117.46485390828457,105.70821247927961 117.24409606156405,104.4784651013033 117.24409606156405,103.86358938731428 117.13371713832021,102.85742621553072 117.20730308711063,102.29844511342526 117.39126795949414,98.94453506814898 117.5016468828544,98.44144509654143 117.5384398571914,97.32346414582571 117.39126795949414,96.65267343287996 117.39126795949414,96.0936799444753 117.28088903613389,95.53468534018612 117.42806093383115,94.36079303904262 117.24409606156405,93.85769483214244 116.69220144487917,93.74589510768419 115.40444733912591,93.35459572107357 114.8525527222082,93.29869576396595 113.67517753969878,93.13099582618452 113.01290399965364,93.13099582618452 112.46100938296877,93.2427957958862 112.46100938296877,94.24899351569184 112.38742343394551,94.86389034215244 112.35063045960851,95.42288628555252 112.42421640839893,96.48497550364118 112.35063045960851,97.6029598020832 112.79214615293313,97.99425325181801 112.7185602041427,99.22402910607343 112.60818128078245,99.83891500810569 113.0864899486769,100.84508902595553 114.00631430989597,101.4599713680509 115.14689651783556,101.68356461233634 116.1770998025313,101.18047956185183 116.50823657249566,100.7332920912304 116.69220144487917,100.23020533350063 116.76578739378601,97.04396821059345 116.9497522659367,95.4787858184718 116.9497522659367,94.91978998661216 116.69220144487917,94.4725925178791 116.1770998025313,94.08129414674477 115.66199816018343,93.85769483214244 114.447830003337,93.74589510768419 113.85914241208229,93.96949451166438 113.38083374418784,94.24899351569184 113.01290399965364,94.69619134157256 112.79214615293313,95.14338845325983 112.7185602041427,96.26137810808723 112.79214615293313,96.82037126172509 112.75535317847971,97.88245517908945 112.68176722957287,99.00043389800703 112.79214615293313,100.23020533350063 113.0864899486769,100.7332920912304 113.56479861645494,101.23637794540264 114.07990025880281,101.57176801266905 115.25727544119582,101.68356461233634 116.28747872589156,101.51586969594064 116.5450295470655,101.06868276103341 116.72899441921618,100.45379955973476 116.83937334257644,99.83891500810569 116.83937334257644,98.60914185413276 116.91295929159969,98.05015227152035 116.87616631702986,97.54706069290114 116.9497522659367,97.04396821059345 116.91295929159969,95.31108718598261 116.80258036823943,94.80799068648776 116.50823657249566,94.30489328296972 115.58841221127659,93.74589510768419 114.99972462002188,93.63409533871163 113.45441969309468,93.91359467746224 112.79214615293313,94.75209101955988 112.7185602041427,95.4787858184718 112.79214615293313,97.88245517908945 112.7185602041427,98.49734402682225 112.79214615293313,99.11223152457387 112.68176722957287,99.61532029088994 112.60818128078245,100.11840815344476 112.90252507629339,100.56559660591302 113.23366184637416,100.95688591590442 113.71197051426861,101.29227631776303 114.22707215661649,101.62766631809063 114.74217379884794,101.7394628955808 115.29406841576565,101.68356461233634 115.80917005799711,101.7394628955808 116.28747872589156,101.4599713680509 116.76578739378601,100.39790101983817 116.91295929159969,97.49116157292156 116.76578739378601,95.03158924239688 116.65540847042575,94.52849224045349 116.1770998025313,94.1371939474775 115.58841221127659,93.80179497537029 114.48462297767401,93.68999522886588 113.93272836098913,93.80179497537029 113.4912126675481,94.24899351569184 113.0864899486769,94.69619134157256 112.93931805086322,95.31108718598261 112.82893912750296,96.48497550364118 112.86573210183997,97.04396821059345 112.75535317847971,98.16195027723734 112.75535317847971,98.77683851143229 112.68176722957287,99.33582664334972 112.82893912750296,100.45379955973476 113.04969697410706,101.01278434402775 113.8959353864193,101.7394628955808 114.447830003337,101.79536116750387 116.06672087917104,101.68356461233634 116.43465062370524,101.34817467913672 116.61861549585592,100.78919056418817 116.72899441921618,99.61532029088994 116.76578739378601,99.11223152457387 116.69220144487917,98.60914185413276 116.87616631702986,98.10605127982853 116.80258036823943,96.98806899013289 116.83937334257644,97.54706069290114 116.9497522659367,98.05015227152035 116.98654524039011,99.67121898685582 116.91295929159969,100.17430674897332 116.69220144487917,100.67739360725682" stroke="#4dd2ff" stroke-linecap="round" stroke-linejoin="round" stroke-width="0.5"><title>2022-05-04 3.2km</title></polyline><polyline fill="none" points="175.79446971719153,108.0 172.36310776183382,99.54122000461211 172.81630651047453,73.37709756201366 164.3350156394299,72.0 164.2702729611192,82.62322437489638 166.66575206210837,86.85277773946291 171.0682541935239,85.18063307413831 171.65093829925172,75.63946377273533 169.38494455534965,72.88527744589373 165.17667045863345,74.6558275661082 165.37089849403128,85.37735627041548 167.70163491670974,86.75441644547391 171.391967585776,84.49210126852267 171.52145294239745,74.6558275661082 168.219576343894,72.88527744589373 165.24141313694417,74.95091863418929 164.91769974515773,84.49210126852267 166.79523741896264,86.45933244630578 169.57917259028181,86.55769379920093 171.52145294239745,84.49210126852267 171.52145294239745,74.75419127504574 167.37792152445763,73.08200555137591 164.98244242346846,75.93455425143475 165.17667045863345,85.18063307413831 170.2913420528639,86.75441644547391 171.90990901296027,84.9839097991935 172.03939436981454,75.1476459147234 170.03237133915536,72.98364150870475 167.2484361678362,72.88527744589373 164.59398635290563,76.13128113929997 165.24141313694417,85.08227144635748 169.5144299119711,87.04950026792358 171.974651691271,84.19701591451303 171.32722490723245,73.67218939610757 169.7734006254468,72.59018514072523 165.37089849403128,73.4754615262209 164.20553028280847,82.91831067137537 166.27729599154554,86.75441644547391 170.93876883690245,86.26260968195857 172.10413704812527,78.68872353379265 170.8740261583589,73.77055330143776 166.79523741896264,72.88527744589373 164.72347170999274,77.311640816828 164.59398635290563,84.59046301408671 166.5362667052541,86.55769379920093 170.22659937432036,86.26260968195857 171.65093829925172,83.90193038384314 171.52145294239745,75.34437311682268 165.37089849403128,74.55746383738006 164.4645009962842,78.98381218680879" stroke="#4dd2ff" stroke-linecap="round" stroke-linejoin="round" stroke-width="0.5"><title>2022-03-10 3.4km</title></polyline><polyline fill="none" points="33.28056652843952,140.3389358081331 31.328493883367628,135.72575328542734 31.436942363739945,113.6476658299216 28.617281876388006,112.16476687905379 24.170894185081124,112.0 24.225118425209075,121.47398868526216 26.0145183497807,124.35733337639249 29.105300037772395,124.02780928838183 30.189784840564243,122.70971030544024 30.62357876158785,114.30673031971673 27.315900113084354,112.57668378876406 24.658912346465513,114.38911330711562 24.550463866093196,122.54494763651746 28.129263715352863,124.35733337639249 30.406681801076047,122.21542210134794 30.406681801076047,113.89481513711507 27.315900113084354,112.74145043775206 24.658912346465513,114.55387923223316 24.550463866093196,122.13304067653371 26.882106192060746,124.35733337639249 30.298233320820145,122.38018490179093 30.515130281448364,114.80102799655288 29.105300037772395,112.90621702049975 25.960294109769166,113.07098353776382 24.875809306977317,114.14196429608273 24.550463866093196,121.8035148124618 27.315900113084354,124.43971435714047 30.189784840564243,122.9568541853514 30.406681801076047,114.80102799655288 29.701766679179855,113.31813319033245 27.207451632944867,112.65906712130527 24.658912346465513,114.71864509163424 24.930033546988852,123.03923544590361 28.346160675864667,124.43971435714047 30.786251481971703,122.38018490179093 29.701766679179855,112.98860028726631 26.285639550653286,112.65906712130527 24.658912346465513,114.80102799655288 24.71313658647705,122.54494763651746 26.610984991304576,124.19257136530359 29.15952427778393,124.2749523789389 30.460906041320413,122.05065923507209 30.027112120063975,113.73004894860787 25.472275948384777,113.15336677164305 23.899772984324954,118.17871294173528 23.6286517836852,115.21294227484032 23.899772984324954,112.0 31.382718123611994,112.41191707417602 31.7080635643797,130.12396232318133 32.90099684742745,138.93851085056667 36.3713482163148,146.7643541043799 35.829105814918876,148.0" stroke="#4dd2ff" stroke-linecap="round" stroke-linejoin="round" stroke-width="0.5"><title>2022-03-08 3.7km</title></polyline><polyline fill="none" points="74.59334365173709,112.0 73.67515774513595,112.90007007514942 73.52706324402243,115.87027582318115 76.51857216563076,128.20071148774878 76.13352646282874,133.19569601750118 76.60742886620574,138.37056325584126 78.79922748205718,147.05507347434468 79.8062700892333,148.0 78.29570617841091,141.97040083618776 76.66666666662786,138.2805665796477 76.31123986421153,127.34570304135559 76.75552336731926,124.69065614134888 76.31123986421153,123.34062030026689 75.09686495538335,122.71060080741881 73.7936333459802,117.5353740460123 74.32677354989573,116.59031980729196" stroke="#4dd2ff" stroke-linecap="round" stroke-linejoin="round" stroke-width="0.5"><title>2022-01-09 1.7km</title></polyline><polyline fill="none" points="132.64717092760839,114.65862129519519 132.28263716667425,114.1047439598915 133.63141208246816,114.54784591670614 133.4126918258844,113.16314995175344 134.65210661338642,112.8308218918537 133.70431883470155,112.0 132.97525131260045,114.21551951544825 133.55850533035118,112.22155274784018 133.52205195405986,113.4954776136874 130.05898122431245,113.71702916700451 129.8038075916702,114.99094716568652 130.75159537035506,117.20644279473345 131.29839601181448,125.29285169538343 129.7673542156117,125.34823724490707 126.41364361403976,123.07742064436025 126.15846998128109,123.63128006579063 126.45009699021466,135.4836066669668 127.6166050254833,144.51097366669273 125.356495707063,146.0062760393921 118.21163399075158,148.0 116.75349894666579,144.4002102073282 117.04512595559936,133.87747991783544 112.08746680547483,133.15748904639622 112.19682693376672,139.19427773731877 113.50914847350214,141.18805065078777 115.07664364599623,141.29881539256894 116.24315168126486,140.3019311248354 116.35251180955674,134.81900362258602 115.25891052640509,133.65594446418982 114.09240249102004,133.60056057319161 112.56136069481727,135.09592175131547 112.70717419916764,140.57884378067683 114.4204828760121,141.29881539256894 116.24315168126486,140.4126962202281 116.27960505732335,135.15130534379568 115.2224571503466,133.8220960710314 112.74362757522613,134.4867015034106 112.67072082310915,139.52657421799086 114.01949573890306,141.1326682632498 116.38896518561523,140.08040080107457 116.35251180955674,135.4836066669668 115.40472403087188,133.7667122130515 112.92589445586782,134.0990151946753 112.52490731875878,139.85887030043523 113.87368223455269,141.35419774678303 116.20669830520637,140.19116598508845 116.35251180955674,134.87438727037807 115.9515246724477,133.932863753711 114.4204828760121,133.4897927577549 112.70717419916764,134.70823629377992 112.52490731875878,139.9696355728811 113.50914847350214,141.24343302728084 114.71210988494568,141.35419774678303 116.35251180955674,140.08040080107457 116.35251180955674,135.04053814745566 115.40472403087188,133.8220960710314 112.92589445586782,134.20978276677488 112.2332803098252,137.3112568295328 112.01456005324144,133.04672105418285 117.19093945994973,132.65903273319418 119.56040890654549,119.03421336913016 120.54465006140526,118.64650546570192 124.26289442402776,120.64042605397117 125.21068220259622,120.19733382832783 125.4658558354713,118.31418397433299 130.35060823324602,118.70189234220015 131.66292977286503,117.53876561312063 134.1417593479855,118.203410055532 133.85013233905192,113.16314995175344 133.55850533035118,114.49245821089426 132.17327703826595,114.32629502678174" stroke="#4dd2ff" stroke-linecap="round" stroke-linejoin="round" stroke-width="0.5"><title>2021-12-30 4.7km</title></polyline><polyline fill="none" points="175.8018290423788,148.0 171.4046533468645,136.95905932574533 172.62609103997238,113.1134438473382 164.44245849596336,112.0 164.38138661137782,123.13431844569277 166.6410463436041,125.63950333831599 169.38928115321323,125.54671895332285 171.22143769287504,123.41267298936145 171.52679711626843,114.69081806502072 168.71749042207375,112.5567222571699 165.41960865049623,113.67016477059224 164.44245849596336,122.94874865724705 167.00747765158303,125.45393455005251 169.02284984546714,125.63950333831599 170.97715015430003,123.87659685840481 171.46572523145005,114.59803149459185 169.51142492261715,112.74229619442485 165.96925561246462,113.29901756261825 164.19817095738836,122.39203884726157 166.21354315103963,125.54671895332285 169.63356869178824,125.17558122857008 171.46572523145005,123.31988815986551 171.52679711626843,115.15475063992199 169.20606549922377,112.64950923505239 164.8088898039423,113.94852498240652 164.5035303805489,123.31988815986551 167.1906933055725,125.54671895332285 170.97715015430003,123.78381212177919 171.4046533468645,114.59803149459185 167.86248403671198,112.18557415957912 164.9310335733462,114.04131168249296 164.44245849596336,123.31988815986551 166.15247126622126,125.36115012824303 170.6107188463211,124.34052026472636 171.7100127702579,115.43310996243963 171.09929392370395,113.67016477059224 168.351059113862,112.74229619442485 165.23639299650677,114.31967167175026 164.62567414995283,123.78381212177919 166.45783068961464,125.54671895332285 170.06107188458554,125.26836568766157 171.22143769287504,123.87659685840481 171.46572523145005,115.34032353994553 169.93892811518162,112.5567222571699 164.56460226536728,113.29901756261825 164.56460226536728,124.06216627650429" stroke="#4dd2ff" stroke-linecap="round" stroke-linejoin="round" stroke-width="0.5"><title>2021-12-27 3.1km</title></polyline><polyline fill="none" points="35.84120020526461,188.0 37.93521537352353,154.17678807483753 22.064784626476467,152.0 24.269011119147763,174.7722725853091 27.90598483197391,178.28852427884704 32.8654944403097,178.6234046233585 36.17183417920023,175.27459515765077 35.73098888085224,158.36290310963523 29.008098078425974,154.00934303860413 24.158799794036895,157.1907930058078 25.81196966394782,174.10250868613366 30.110211324645206,178.6234046233585 35.6207775559742,175.77691743004834 35.179932257393375,158.36290310963523 29.66936602583155,154.51167804608122 24.269011119147763,157.35823740652995 26.252814962295815,176.11179877776885 32.204226492438465,178.79084474634146 35.95141152990982,175.60947670636233 35.179932257393375,158.86523550981656 29.889788675121963,154.51167804608122 26.47323761181906,154.8465678843204 23.7179544956889,158.6977914099698 24.709856417495757,174.7722725853091 30.33063397370279,178.12108405597974 35.84120020526461,175.77691743004834 35.6207775559742,159.36756760952994 29.11830940283835,154.67912298231386 23.828165820566937,158.53034727630438 24.709856417495757,174.10250868613366 29.66936602583155,178.12108405597974 34.40845298510976,177.45132283127168 36.50246815313585,172.59553795936517 35.29014358227141,158.36290310963523 28.236618805443868,154.34423307713587 24.820067742140964,155.68379189417465 23.938377145212144,159.20012360997498 24.820067742140964,174.7722725853091 32.204226492438465,179.12572489015292 36.17183417920023,173.76762653660262 35.069720932981,157.52568177407375 30.991901921574026,154.34423307713587 26.032392312772572,154.67912298231386 22.83626389876008,160.53967467148323 24.269011119147763,175.60947670636233 31.322535895509645,178.45596446777927 36.28204550384544,173.93506762810284 36.50246815313585,158.19545890955487 28.78767542890273,153.50700773025164 23.7179544956889,156.5210150682251 23.7179544956889,173.93506762810284 28.677464104490355,178.28852427884704 35.73098888085224,174.10250868613366 35.510566231328994,159.0326795760775 34.07781901117414,156.0186812641332 28.016196156619117,154.17678807483753 23.38732052175328,157.6931261079735" stroke="#4dd2ff" stroke-linecap="round" stroke-linejoin="round" stroke-width="0.5"><title>2021-12-07 3.6km</title></polyline><polyline fill="none" points="79.6681315456517,169.5683366661542 78.08841318823397,153.24804509343812 71.6431622907985,152.0 70.4425763390027,154.78409614652628 71.07446368201636,165.44031524352613 74.54984406824224,167.26432907878188 77.33014837699011,166.49632409680635 78.21479065692984,164.6723073486355 77.64609204838052,154.88009917459567 72.14867216488346,153.6320583166962 70.63214254193008,159.29621774112456 72.27504963357933,166.68832545704208 76.76144976820797,167.07232794817537 78.3411681256257,160.8322494761378 77.14058217406273,154.49608694779454 72.14867216488346,154.4000838433276 71.01127494778484,162.08027164812665 72.65418203943409,166.40032338764286 74.92897647386417,168.12833321781363 77.45652584545314,167.4563301326707 77.89884698577225,157.76018110016594 76.76144976820797,154.97610218339832 72.14867216488346,154.01607123340364 70.56895380769856,158.4321977342188 72.65418203943409,167.36032961515593 77.33014837699011,167.1683285231993 77.64609204838052,155.55211983332993 75.11854267655872,153.92006803286495 72.27504963357933,154.49608694779454 70.82170874485746,157.56817617529305 72.7173707736656,167.07232794817537 76.57188356528059,167.26432907878188 77.77246951707639,165.8243187314365 78.21479065692984,157.3761711732368 75.68724128534086,154.01607123340364 72.14867216488346,154.59209003314027 71.01127494778484,156.1281367932097 71.26402988494374,164.96031045319978 73.91795672522858,167.64833110995824 76.82463850243948,167.1683285231993 77.8356582513079,165.8243187314365 78.15160192269832,156.89615833378048 76.255939894123,154.49608694779454 73.7283905223012,153.92006803286495 71.32721861940809,156.80015570792602 71.3904073536396,165.9203195552982 74.86578773939982,167.4563301326707 78.02522445400245,164.76830840250477 77.64609204838052,156.1281367932097 73.41244685067795,154.20807757650618 71.32721861940809,157.3761711732368 72.21186089934781,166.49632409680635 74.73941027116962,167.55233063103515 77.96203572000377,165.72831788813346 77.89884698577225,156.5121477166831 76.69826103397645,154.59209003314027 74.04433419369161,154.01607123340364 71.76953975926153,155.4561169394292 70.82170874485746,158.04818834396428 70.56895380769856,166.30432265962008 70.4425763390027,153.05603836703813 78.78348926571198,152.76802813322865 79.35218787426129,174.1763187260367 82.89075699448586,188.0" stroke="#4dd2ff" stroke-linecap="round" stroke-linejoin="round" stroke-width="0.5"><title>2021-12-06 4.4km</title></polyline><polyline fill="none" points="133.64972617628518,152.0 129.07945321779698,153.4158028368547 127.97016366489697,155.30353071846184 122.7343169747619,155.6406238725176 119.095847240882,161.30373854676145 117.98655768786557,166.62967640036368 118.82961774803698,173.30383436131524 117.58721344883088,179.23630847854656 113.5937710579019,177.68578553051339 110.13278765266296,177.7531997198821 109.95530132413842,185.10126566857798 111.37519195198547,187.52811471148743 113.68251422222238,187.86517569894204 115.7236069998471,186.24727988996892 115.85672174603678,179.9104466700519 114.17060162557755,178.02285634237342 112.75071099784691,177.82061389577575 110.8871045486303,179.37113622453762 110.57650347379968,186.1798673964222 112.4844815050019,188.0 114.56994586472865,187.79776352838962 115.67923541762866,186.1798673964222 115.7236069998471,180.38234260337777 113.54939947591629,178.02285634237342 110.79836138430983,179.43855007729144 110.31027398107108,185.70797956449678 112.75071099784691,187.93258785636863 115.324262760696,186.51692972960882 115.7236069998471,180.11268786521396 114.39245953620411,178.29251274943817 112.44010992278345,177.7531997198821 110.84273296664469,179.23630847854656 110.53213189181406,185.91021728742635 113.19442681898363,188.0 115.27989117859397,186.78657935431693 115.50174908910412,179.57337774254847 112.83945416193455,177.8880280580488 110.8871045486303,179.43855007729144 110.84273296664469,185.37091642350424 111.81890777312219,187.25846567907138 113.28316998307128,187.66293914677226 115.27989117859397,186.584342156013 115.7236069998471,179.43855007729144 113.86000055074692,177.7531997198821 112.30699517659377,178.49475491340854 111.02021929505281,179.97786041506333 110.66524663812015,182.53957275833818 110.39901714539155,179.16889458545484 117.23224079189822,176.94422856069286 119.62830622633919,161.97791253897594 122.6012022284558,159.1463727269147 128.5469942324562,157.12382975281798 133.91595566901378,158.74186510121217 131.47551865223795,155.84287960352958 134.492786236573,153.0787074615364 136.71136534260586,153.01128834628616" stroke="#4dd2ff" stroke-linecap="round" stroke-linejoin="round" stroke-width="0.5"><title>2021-11-11 3.8km</title></polyline><polyline fill="none" points="188.0,158.02408186461253 185.4453781512566,158.12622821464902 184.80672268918715,158.84125152172055 183.9327731092926,158.48374011801207 181.1428571428405,154.60215557213814 178.89075630251318,155.93007270302041 175.59663865552284,159.8116370986245 172.84033613442443,160.67987370530318 166.21848739509005,159.70949142186146 164.1008403361775,161.54810736516083 160.73949579836335,160.42451030341908 154.35294117650483,159.76056426536525 153.3445378151955,160.2202193984558 152.0,163.48885430155497 153.243697479018,160.47558300413948 154.6554621849209,159.9648555375752 163.96638655476272,161.2927448299015 169.4453781512566,161.0373820396926 170.89075630251318,161.75239720965328 172.1344537815312,163.6420705379569 174.42016806721222,164.66350976815738 173.21008403366432,176.97153181892645 172.50420168065466,177.63543318776647 170.6890756302746,177.12473998015048 167.9327731092926,177.83971018560987 167.7647058822913,183.35512746371387 168.57142857136205,185.29570896703808 171.19327731104568,185.39784442786186 172.3025210085325,183.86580823398253 172.50420168065466,180.75063967828464 171.86554621858522,179.47392029438925 168.60504201683216,178.86109272710746 167.9663865546463,181.6698736892431 167.8991596638225,178.24826369145012 168.47058823541738,177.58436391294526 171.76470588240772,177.5332946278795 173.445378151373,176.00121133406356 174.38655462185852,168.39172834648343" stroke="#4dd2ff" stroke-linecap="round" stroke-linejoin="round" stroke-width="0.5"><title>2021-11-09 2.8km</title></polyline><polyline fill="none" points="42.54899158375338,193.6201853157254 43.59556365921162,192.39004620941705 42.84519122767961,192.0 41.14697993552545,192.060007174965 39.58699514379259,193.11012885962555 37.414864421181846,193.59018204265158 36.072092701797374,195.36036490194965 35.282226984447334,195.57038521335926 31.747577899543103,193.38015896374418 28.311662029242143,193.6201853157254 23.848920726391952,192.99011532419536 22.92082850856241,193.26014564406069 22.012482933700085,195.2103502140235 21.163377287623007,195.78040523128584 20.551231356686912,198.5706433299929 22.367922506469768,210.4210773458908 22.209949363023043,220.68069840855605 24.5203065861715,227.46006369918177 21.815016504377127,228.0 20.94616421533283,225.75025261676637 18.793780135631096,215.34098303303472 16.40443634078838,210.5410769617738 17.095568843418732,210.0010779355507 18.774033492722083,209.8510778616328 22.111216148361564,210.48107716582308 21.222617216408253,201.99086451975745" stroke="#4dd2ff" stroke-linecap="round" stroke-linejoin="round" stroke-width="0.5"><title>2021-11-07 3.5km</title></polyline><polyline fill="none" points="79.49331805133261,226.58721348310064 79.75366752094124,227.0958174415282 74.69544925354421,225.9655851816642 73.6912441564491,222.74439848020847 72.61265349655878,222.23578670235293 70.4182793952059,223.4790583234426 67.14531463407911,227.37837480123562 66.55023013206664,226.41767862725828 69.89758045598865,208.84201428260712 71.31090614828281,194.0346589777182 72.68703905923758,192.39562928020314 75.51369044394232,192.0 80.90664374362677,193.3564409437531 83.36136731458828,195.44760799524374 86.52275373158045,195.56064361176686 86.78310320118908,198.10393305122852 85.14662082062569,204.37728262064047 85.77889810397755,207.7682244927273 83.95645181660075,208.27686226945661 83.6217167841969,209.6332252053253 78.6750768609345,213.92833161949238 76.85263057355769,217.43218594574137 73.39370190550108,221.21856040516286 74.10036475164816,225.90907345025335 75.73684713221155,227.2653518913139 78.30314904719125,226.700236663979 79.04700467467774,228.0" stroke="#4dd2ff" stroke-linecap="round" stroke-linejoin="round" stroke-width="0.5"><title>2021-11-04 2.2km</title></polyline><polyline fill="none" points="135.90329740248853,192.21037559180695 134.99343375634635,192.0 133.47040113108233,192.72128651919775 132.95613037451403,192.4808580634417 128.38703249883838,195.09549689939013 122.82895239902427,193.3824627923459 120.47517470555613,193.56278309004847 116.02475469681667,192.7813935730519 114.87753531674389,193.2021422786638 114.48194242705358,194.73485976009397 113.69075664773118,195.00533769559115 112.97868944634683,198.73187310835056 114.58084064949071,210.51192668442673 114.44238313811366,220.87881327280775 116.28189007501351,225.35588559416647 116.65770332020475,227.429115593186 115.29290785093326,228.0 114.2445866932976,227.69953479258402 113.61163806979312,224.33428350005124 112.0292665110901,220.81871743671945 111.87102935527219,215.1996507802396 111.02050464245258,213.03610395141004 110.76336926419754,210.69222646421986 111.1787417983287,209.6705248565704 112.6028762011556,209.82077552792907" stroke="#4dd2ff" stroke-linecap="round" stroke-linejoin="round" stroke-width="0.5"><title>2021-11-02 3.0km</title></polyline><polyline fill="none" points="183.4542496163631,192.0 182.5386907213251,192.06710861729516 179.72502192185493,195.3218450233253 177.7375891985139,194.65077040923643 174.7676054657204,199.11336724078865 174.9015896943165,200.32126820950361 171.48499186639674,202.53573121393856 166.86253598163603,206.69616010712343 161.6148203635821,213.60761717348942 160.475954420981,216.52644982170023 157.01469518360682,221.4581575854827 156.6797346122912,222.76654603803763 157.05935659317765,224.44395252443792 158.5555138118798,226.490366213402 161.2798597922665,227.73162163162488 163.53526097274153,228.0 160.9672299256781,227.79871626319073 158.06423830718268,225.95360433030874 157.10401800263207,224.67878812286654 156.54575038369512,222.86719089007238 156.8360495455563,221.62590025288227 160.49828512582462,216.69419731447124 160.76625358284218,214.84896586717514 164.22751282021636,209.91706797228835 167.37614219100215,206.15933624605532 174.78993617056403,199.98574101629492 177.55894356034696,194.51655517113977 178.13954188406933,194.34878597571515 179.70269121712772,195.45605963082926 182.76199776888825,192.10066291609837 183.27560397831257,192.06710861729516 182.89598199748434,192.40265131002525" stroke="#4dd2ff" stroke-linecap="round" stroke-linejoin="round" stroke-width="0.5"><title>2016-05-06 3.5km</title></polyline><polyline fill="none" points="20.614222748787142,268.0 17.816539145074785,266.03409144880425 16.57563109509647,263.0512910399266 16.959184492356144,261.7632477119332 20.72703257156536,256.9838453419652 20.81728042976465,255.1534009992174 26.99925871542655,246.9500609770039 34.6703266610275,240.27184853854124 38.0094974138774,234.23750620585633 39.837016542151105,235.1867425300734 43.19874925946351,232.0 43.42436890496174,232.5085266760143" stroke="#4dd2ff" stroke-linecap="round" stroke-linejoin="round" stroke-width="0.5"><title>2016-03-22 1.7km</title></polyline></svg>