<?xml version="1.0" encoding="utf-8" ?>
<svg baseProfile="full" height="200mm" version="1.1" viewBox="0,0,200,200" width="200mm" xmlns="http://www.w3.org/2000/svg" xmlns:ev="http://www.w3.org/2001/xml-events" xmlns:xlink="http://www.w3.org/1999/xlink"><defs /><rect fill="#1a1a1a" height="200" width="200" x="0" y="0" /><text alignment-baseline="middle" fill="#e1ed5e" style="dominant-baseline: central; font-size:9.0px; font-family:Arial;" text-anchor="middle" x="100.0" y="100.0">2022</text><line stroke="#e1ed5e" stroke-width="0.3" x1="100.0" x2="100.0" y1="15.0" y2="10.0" /><path d="M 100.0 14.0 a86.0,86.0 0 0,1 42.46469731375804,11.215312516191453" fill="none" id="id73" stroke="none" /><text fill="#e1ed5e" style="font-size:6.75px; font-family:Arial;" text-anchor="middle"><textPath startOffset="22.20632615414155" xlink:href="#id73">January</textPath></text><path d="M 102.88285421437855 79.19881850522331 l 1.574442357338845 -11.360359835306182 a32.46894259834884,32.46894259834884 0 0,0 0.552947668850045,0.08149011278066022 l -1.769759006617546 11.331575238364554" fill="#ff0901" stroke="none" /><line stroke="#e1ed5e" stroke-width="0.3" x1="143.23703022742887" x2="145.7803849466894" y1="26.81831364943548" y2="22.513508569990506" /><path d="M 143.74570117128098 25.957352633546492 a86.0,86.0 0 0,1 28.547481713284135,27.462654790039103" fill="none" id="id74" stroke="none" /><text fill="#e1ed5e" style="font-size:6.75px; font-family:Arial;" text-anchor="middle"><textPath startOffset="19.985693538727396" xlink:href="#id74">February</textPath></text><line stroke="#e1ed5e" stroke-width="0.3" x1="172.23445277983987" x2="176.4835382374775" y1="55.19839476539836" y2="52.563006222186495" /><path d="M 173.08426987136738 54.67131705675599 a86.0,86.0 0 0,1 12.851231095245387,41.99856678651699" fill="none" id="id75" stroke="none" /><text fill="#e1ed5e" style="font-size:6.75px; font-family:Arial;" text-anchor="middle"><textPath startOffset="22.20632615414155" xlink:href="#id75">March</textPath></text><path d="M 119.04729006885535 91.15688171328212 l 22.082759216569364 -10.252400795246972 a45.34666253685215,45.34666253685215 0 0,0 0.32260411030717645,0.7108153942665657 l -22.25596564383989 9.870763392138343" fill="#ffd914" stroke="none" /><path d="M 119.34039704204932 91.81776055985345 l 20.764364940101714 -8.784670004090763 a43.54615884017713,43.54615884017713 0 0,0 0.2861155018739687,0.6928513822658512 l -20.91250212886188 8.425944051371609" fill="#ffbd11" stroke="none" /><line stroke="#e1ed5e" stroke-width="0.3" x1="184.98032266829074" x2="189.97916517819016" y1="98.17113171792111" y2="98.06355123074" /><path d="M 185.9800911702706 98.14961562048488 a86.0,86.0 0 0,1 -9.607161424134198,41.387399972396054" fill="none" id="id76" stroke="none" /><text fill="#e1ed5e" style="font-size:6.75px; font-family:Arial;" text-anchor="middle"><textPath startOffset="21.466115282336823" xlink:href="#id76">April</textPath></text><line stroke="#e1ed5e" stroke-width="0.3" x1="174.80103733775053" x2="179.2010983576182" y1="140.37084112569926" y2="142.7455964860345" /><path d="M 175.68104954172406 140.8457921977663 a86.0,86.0 0 0,1 -30.038265399797805,32.042727171017184" fill="none" id="id77" stroke="none" /><text fill="#e1ed5e" style="font-size:6.75px; font-family:Arial;" text-anchor="middle"><textPath startOffset="22.206326154141568" xlink:href="#id77">May</textPath></text><path d="M 117.94076556474637 110.91462005526583 l 53.8222966942391 32.74386016579747 a84.0,84.0 0 0,0 -0.7621414413281484,1.228814674538906 l -53.25069061324299 -33.665471171701654" fill="#4dd2ff" stroke="none" /><path d="M 116.0416608686014 113.55231037782055 l 22.16180263748127 18.722726426851207 a50.01182484776482,50.01182484776482 0 0,0 -0.5612219588290489,0.6528279287378508 l -21.83623816908144 -19.101431454750585" fill="#e2ff1b" stroke="none" /><path d="M 115.80600337817218 113.82643327865902 l 18.344781374222126 16.047250504358715 a45.373043560820385,45.373043560820385 0 0,0 -0.5192861659220775,0.5834235123283027 l -18.06583635865171 -16.360648186427884" fill="#ffd914" stroke="none" /><path d="M 115.07121518719521 114.62390073753431 l 13.250755721139557 12.857472602998673 a39.46339971181294,39.46339971181294 0 0,0 -0.47724287257121767,0.48344451027164653 l -13.027472223512804 -13.083657607250984" fill="#ff7d0b" stroke="none" /><path d="M 114.0293411484842 115.62618273729858 l 12.621584347713554 14.058192851979282 a39.89278110045975,39.89278110045975 0 0,0 -0.5149163514811032,0.4543538118844656 l -12.377725643325864 -14.273369805636037" fill="#ff840c" stroke="none" /><path d="M 113.75828350139079 115.86535959552629 l 7.1812930475684915 8.28110545541598 a31.961189597793474,31.961189597793474 0 0,0 -0.41874412704854963,0.3568628295306016 l -7.037683443942894 -8.40349267516953" fill="#ff0000" stroke="none" /><line stroke="#e1ed5e" stroke-width="0.3" x1="143.8653032363475" x2="146.44561519142675" y1="172.8068346515853" y2="177.08958963109032" /><path d="M 144.38136562736335 173.6633856474863 a86.0,86.0 0 0,1 -40.68145358897372,12.25698825130547" fill="none" id="id78" stroke="none" /><text fill="#e1ed5e" style="font-size:6.75px; font-family:Arial;" text-anchor="middle"><textPath startOffset="21.466115282336833" xlink:href="#id78">June</textPath></text><path d="M 106.57524785965236 119.94407469862006 l 10.848622434492782 32.906095835311795 a55.64828642009449,55.64828642009449 0 0,0 -0.912310342700201,0.2920929619215392 l -10.280590746701641 -33.08796164389304" fill="#95ff23" stroke="none" /><path d="M 106.2309692047433 120.05430185196036 l 4.215341977823836 13.567029085646293 a35.2068077413885,35.2068077413885 0 0,0 -0.5802836775888308,0.17483471191792302 l -3.9811833257947593 -13.637579166669942" fill="#ff3805" stroke="none" /><path d="M 105.88484417918355 120.15858648285463 l 4.325769699553546 14.817962878578776 a36.436460324974576,36.436460324974576 0 0,0 -0.6035766138881802,0.1705767800486394 l -4.07006191756076 -14.890228451965934" fill="#ff4c07" stroke="none" /><path d="M 105.53697534728816 120.25689768951611 l 5.29858129588064 19.384738503993194 a41.095846601157476,41.095846601157476 0 0,0 -0.683971007040818,0.18064295947522577 l -4.964119846028325 -19.473072812772003" fill="#ff970e" stroke="none" /><path d="M 104.83641907484287 120.43548508189849 l 7.233896432333431 30.56562724183522 a52.40997972429377,52.40997972429377 0 0,0 -0.8796886582639141,0.20021427460048463 l -6.706687624676655 -30.685618250013388" fill="#c0ff1e" stroke="none" /><path d="M 104.13013068566511 120.58985236759428 l 3.8818480091503935 19.35209403887789 a40.737585659237,40.737585659237 0 0,0 -0.6887220101518304,0.1319952124177977 l -3.5481583844268587 -19.416046449644156" fill="#ff920d" stroke="none" /><path d="M 103.06178313531738 120.77559828337769 l 3.4581144350717516 23.464887337147434 a44.71833664469483,44.71833664469483 0 0,0 -0.7624932286736887,0.10567461364005017 l -3.0536926152112325 -23.520936516280088" fill="#ffcf13" stroke="none" /><path d="M 100.90346689309514 120.98055641714683 l 1.1227319067307366 26.072388806409162 a47.09655120905751,47.09655120905751 0 0,0 -0.8102393075307155,0.027906280006195192 l -0.6737722475253688 -26.08785188484145" fill="#fff216" stroke="none" /><line stroke="#e1ed5e" stroke-width="0.3" x1="102.19456741930631" x2="102.32365962044197" y1="184.97166512339345" y2="189.96999836594603" /><path d="M 102.22038585953345 185.97133177190398 a86.0,86.0 0 0,1 -42.740103519485714,-10.115201625700543" fill="none" id="id79" stroke="none" /><text fill="#e1ed5e" style="font-size:6.75px; font-family:Arial;" text-anchor="middle"><textPath startOffset="22.20632615414155" xlink:href="#id79">July</textPath></text><path d="M 100.54218724476979 120.99299961872073 l 0.6384379024167466 24.7197380080423 a45.72798111737983,45.72798111737983 0 0,0 -0.7870445559832375,0.013549685784812096 l -0.21283365654084102 -24.72706517110627" fill="#ffde14" stroke="none" /><line stroke="#e1ed5e" stroke-width="0.3" x1="58.666819895761336" x2="56.23545636021788" y1="174.27360380694188" y2="178.64263932499728" /><path d="M 58.180547188652646 175.14741091055294 a86.0,86.0 0 0,1 -31.652253787137756,-30.449443065178592" fill="none" id="id80" stroke="none" /><text fill="#e1ed5e" style="font-size:6.75px; font-family:Arial;" text-anchor="middle"><textPath startOffset="22.20632615414155" xlink:href="#id80">August</textPath></text><line stroke="#e1ed5e" stroke-width="0.3" x1="26.63291911575756" x2="22.317208475507996" y1="142.92168965132927" y2="145.44649492493687" /><path d="M 25.769776987707644 143.4266507060508 a86.0,86.0 0 0,1 -11.730757126820373,-40.83630448921669" fill="none" id="id81" stroke="none" /><text fill="#e1ed5e" style="font-size:6.75px; font-family:Arial;" text-anchor="middle"><textPath startOffset="21.46611528233685" xlink:href="#id81">September</textPath></text><line stroke="#e1ed5e" stroke-width="0.3" x1="15.007084014347285" x2="10.007500721073583" y1="101.09737516637583" y2="101.16192664675087" /><path d="M 14.007167355692545 101.11028546245083 a86.0,86.0 0 0,1 10.666146001902534,-42.60595125391555" fill="none" id="id82" stroke="none" /><text fill="#e1ed5e" style="font-size:6.75px; font-family:Arial;" text-anchor="middle"><textPath startOffset="22.20632615414155" xlink:href="#id82">October</textPath></text><line stroke="#e1ed5e" stroke-width="0.3" x1="26.266209847984243" x2="21.928928074336255" y1="57.711370442889674" y2="55.22380399835377" /><path d="M 25.398753493254645 57.213857153982495 a86.0,86.0 0 0,1 29.58750427330803,-30.492523968695096" fill="none" id="id83" stroke="none" /><text fill="#e1ed5e" style="font-size:6.75px; font-family:Arial;" text-anchor="middle"><textPath startOffset="21.46611528233685" xlink:href="#id83">November</textPath></text><line stroke="#e1ed5e" stroke-width="0.3" x1="56.762969772571076" x2="54.21961505331055" y1="26.818313649435495" y2="22.513508569990535" /><path d="M 56.25429882871897 25.957352633546506 a86.0,86.0 0 0,1 42.265352541879196,-11.944610805530505" fill="none" id="id84" stroke="none" /><text fill="#e1ed5e" style="font-size:6.75px; font-family:Arial;" text-anchor="middle"><textPath startOffset="22.20632615414155" xlink:href="#id84">December</textPath></text></svg>