<?xml version="1.0" encoding="utf-8" ?>
<svg baseProfile="full" height="200mm" version="1.1" viewBox="0,0,200,200" width="200mm" xmlns="http://www.w3.org/2000/svg" xmlns:ev="http://www.w3.org/2001/xml-events" xmlns:xlink="http://www.w3.org/1999/xlink"><defs /><rect fill="#1a1a1a" height="200" width="200" x="0" y="0" /><text alignment-baseline="middle" fill="#e1ed5e" style="dominant-baseline: central; font-size:9.0px; font-family:Arial;" text-anchor="middle" x="100.0" y="100.0">2022</text><line stroke="#e1ed5e" stroke-width="0.3" x1="100.0" x2="100.0" y1="15.0" y2="10.0" /><path d="M 100.0 14.0 a86.0,86.0 0 0,1 42.46469731375804,11.215312516191453" fill="none" id="id73" stroke="none" /><text fill="#e1ed5e" style="font-size:6.75px; font-family:Arial;" text-anchor="middle"><textPath startOffset="22.20632615414155" xlink:href="#id73">January</textPath></text><path d="M 102.88285421437855 79.19881850522331 l 1.574442357338845 -11.360359835306182 a32.46894259834884,32.46894259834884 0 0,0 0.552947668850045,0.08149011278066022 l -1.769759006617546 11.331575238364554" fill="#ff0901" stroke="none" /><line stroke="#e1ed5e" stroke-width="0.3" x1="143.23703022742887" x2="145.7803849466894" y1="26.81831364943548" y2="22.513508569990506" /><path d="M 143.74570117128098 25.957352633546492 a86.0,86.0 0 0,1 28.547481713284135,27.462654790039103" fill="none" id="id74" stroke="none" /><text fill="#e1ed5e" style="font-size:6.75px; font-family:Arial;" text-anchor="middle"><textPath startOffset="19.985693538727396" xlink:href="#id74">February</textPath></text><line stroke="#e1ed5e" stroke-width="0.3" x1="172.23445277983987" x2="176.4835382374775" y1="55.19839476539836" y2="52.563006222186495" /><path d="M 173.08426987136738 54.67131705675599 a86.0,86.0 0 0,1 12.851231095245387,41.99856678651699" fill="none" id="id75" stroke="none" /><text fill="#e1ed5e" style="font-size:6.75px; font-family:Arial;" text-anchor="middle"><textPath startOffset="22.20632615414155" xlink:href="#id75">March</textPath></text><path d="M 119.04729006885535 91.15688171328212 l 22.082759216569364 -10.252400795246972 a45.34666253685215,45.34666253685215 0 0,0 0.32260411030717645,0.7108153942665657 l -22.25596564383989 9.870763392138343" fill="#ffd914" stroke="none" /><path d="M 119.34039704204932 91.81776055985345 l 20.764364940101714 -8.784670004090763 a43.54615884017713,43.54615884017713 0 0,0 0.2861155018739687,0.6928513822658512 l -20.91250212886188 8.425944051371609" fill="#ffbd11" stroke="none" /><line stroke="#e1ed5e" stroke-width="0.3" x1="184.98032266829074" x2="189.97916517819016" y1="98.17113171792111" y2="98.06355123074" /><path d="M 185.9800911702706 98.14961562048488 a86.0,86.0 0 0,1 -9.607161424134198,41.387399972396054" fill="none" id="id76" stroke="none" /><text fill="#e1ed5e" style="font-size:6.75px; font-family:Arial;" text-anchor="middle"><textPath startOffset="21.466115282336823" xlink:href="#id76">April</textPath></text><line stroke="#e1ed5e" stroke-width="0.3" x1="174.80103733775053" x2="179.2010983576182" y1="140.37084112569926" y2="142.7455964860345" /><path d="M 175.68104954172406 140.8457921977663 a86.0,86.0 0 0,1 -30.038265399797805,32.042727171017184" fill="none" id="id77" stroke="none" /><text fill="#e1ed5e" style="font-size:6.75px; font-family:Arial;" text-anchor="middle"><textPath startOffset="22.206326154141568" xlink:href="#id77">May</textPath></text><path d="M 117.94076556474637 110.91462005526583 l 53.8222966942391 32.74386016579747 a84.0,84.0 0 0,0 -0.7621414413281484,1.228814674538906 l -53.25069061324299 -33.665471171701654" fill="#4dd2ff" stroke="none" /><path d="M 116.0416608686014 113.55231037782055 l 22.16180263748127 18.722726426851207 a50.01182484776482,50.01182484776482 0 0,0 -0.5612219588290489,0.6528279287378508 l -21.83623816908144 -19.101431454750585" fill="#e2ff1b" stroke="none" /><path d="M 115.80600337817218 113.82643327865902 l 18.344781374222126 16.047250504358715 a45.373043560820385,45.373043560820385 0 0,0 -0.5192861659220775,0.5834235123283027 l -18.06583635865171 -16.360648186427884" fill="#ffd914" stroke="none" /><path d="M 115.07121518719521 114.62390073753431 l 13.250755721139557 12.857472602998673 a39.46339971181294,39.46339971181294 0 0,0 -0.47724287257121767,0.48344451027164653 l -13.027472223512804 -13.083657607250984" fill="#ff7d0b" stroke="none" /><path d="M 114.0293411484842 115.62618273729858 l 12.621584347713554 14.058192851979282 a39.89278110045975,39.89278110045975 0 0,0 -0.5149163514811032,0.4543538118844656 l -12.377725643325864 -14.273369805636037" fill="#ff840c" stroke="none" /><path d="M 113.75828350139079 115.86535959552629 l 7.1812930475684915 8.28110545541598 a31.961189597793474,31.961189597793474 0 0,0 -0.41874412704854963,0.3568628295306016 l -7.037683443942894 -8.40349267516953" fill="#ff0000" stroke="none" /><line stroke="#e1ed5e" stroke-width="0.3" x1="143.8653032363475" x2="146.44561519142675" y1="172.8068346515853" y2="177.08958963109032" /><path d="M 144.38136562736335 173.6633856474863 a86.0,86.0 0 0,1 -40.68145358897372,12.25698825130547" fill="none" id="id78" stroke="none" /><text fill="#e1ed5e" style="font-size:6.75px; font-family:Arial;" text-anchor="middle"><textPath startOffset="21.466115282336833" xlink:href="#id78">June</textPath></text><path d="M 106.57524785965236 119.94407469862006 l 10.848622434492782 32.906095835311795 a55.64828642009449,55.64828642009449 0 0,0 -0.912310342700201,0.2920929619215392 l -10.280590746701641 -33.08796164389304" fill="#95ff23" stroke="none" /><path d="M 106.2309692047433 120.05430185196036 l 4.215341977823836 13.567029085646293 a35.2068077413885,35.2068077413885 0 0,0 -0.5802836775888308,0.17483471191792302 l -3.9811833257947593 -13.637579166669942" fill="#ff3805" stroke="none" /><path d="M 105.88484417918355 120.15858648285463 l 4.325769699553546 14.817962878578776 a36.436460324974576,36.436460324974576 0 0,0 -0.6035766138881802,0.1705767800486394 l -4.07006191756076 -14.890228451965934" fill="#ff4c07" stroke="none" /><path d="M 105.53697534728816 120.25689768951611 l 5.29858129588064 19.384738503993194 a41.095846601157476,41.095846601157476 0 0,0 -0.683971007040818,0.18064295947522577 l -4.964119846028325 -19.473072812772003" fill="#ff970e" stroke="none" /><path d="M 104.83641907484287 120.43548508189849 l 7.233896432333431 30.56562724183522 a52.40997972429377,52.40997972429377 0 0,0 -0.8796886582639141,0.20021427460048463 l -6.706687624676655 -30.685618250013388" fill="#c0ff1e" stroke="none" /><path d="M 104.13013068566511 120.58985236759428 l 3.8818480091503935 19.35209403887789 a40.737585659237,40.737585659237 0 0,0 -0.6887220101518304,0.1319952124177977 l -3.5481583844268587 -19.416046449644156" fill="#ff920d" stroke="none" /><path d="M 103.06178313531738 120.77559828337769 l 3.4581144350717516 23.464887337147434 a44.71833664469483,44.71833664469483 0 0,0 -0.7624932286736887,0.10567461364005017 l -3.0536926152112325 -23.520936516280088" fill="#ffcf13" stroke="none" /><path d="M 100.90346689309514 120.98055641714683 l 1.1227319067307366 26.072388806409162 a47.09655120905751,47.09655120905751 0 0,0 -0.8102393075307155,0.027906280006195192 l -0.6737722475253688 -26.08785188484145" fill="#fff216" stroke="none" /><line stroke="#e1ed5e" stroke-width="0.3" x1="102.19456741930631" x2="102.32365962044197" y1="184.97166512339345" y2="189.96999836594603" /><path d="M 102.22038585953345 185.97133177190398 a86.0,86.0 0 0,1 -42.740103519485714,-10.115201625700543" fill="none" id="id79" stroke="none" /><text fill="#e1ed5e" style="font-size:6.75px; font-family:Arial;" text-anchor="middle"><textPath startOffset="22.20632615414155" xlink:href="#id79">July</textPath></text><path d="M 100.54218724476979 120.99299961872073 l 0.6384379024167466 24.7197380080423 a45.72798111737983,45.72798111737983 0 0,0 -0.7870445559832375,0.013549685784812096 l -0.21283365654084102 -24.72706517110627" fill="#ffde14" stroke="none" /><path d="M 99.09653310690486 120.98055641714683 l -1.5119505910186415 35.110932029985015 a56.14347083888997,56.14347083888997 0 0,0 -0.9651648977866012,-0.049888000709255705 l 2.116103557218732 -35.07970422251356" fill="#8fff24" stroke="none" /><path d="M 98.01472825383883 120.90594882070398 l -2.6664002255308064 28.078587608094118 a49.204906882103465,49.204906882103465 0 0,0 -0.8424990762791197,-0.08732847402721339 l 3.1493318984155194 -28.028529765611147" fill="#edff1a" stroke="none" /><path d="M 97.2962882734958 120.8252237178851 l -2.1757688247322378 16.758766139626196 a37.899414560905896,37.899414560905896 0 0,0 -0.646223655477043,-0.08956071024575483 l 2.4639210713961117 -16.718830863887835" fill="#ff6409" stroke="none" /><path d="M 92.40401165467489 119.57807347666478 l -6.553204900661296 16.890379660962374 a39.11710295719221,39.11710295719221 0 0,0 -0.6256481166486462,-0.24895829752007256 l 6.8429740933518 -16.775074519036234" fill="#ff780b" stroke="none" /><path d="M 91.7346041902142 119.30500536409082 l -9.043611049313965 21.122637540365012 a43.97722170918214,43.97722170918214 0 0,0 -0.6933308997096603,-0.30393589131576493 l 9.405862623681369 -20.963837095754794" fill="#ffc412" stroke="none" /><path d="M 91.40352486487194 119.15986991738527 l -4.746601679832262 10.579251298430453 a32.59529152468056,32.59529152468056 0 0,0 -0.5099331644356453,-0.23408530515009482 l 4.928002840035326 -10.495978922946284" fill="#ff0b01" stroke="none" /><path d="M 90.7491055286396 118.85261126421891 l -25.575147764245415 52.12018365542683 a79.05688354914005,79.05688354914005 0 0,0 -1.216520142365889,-0.6099884539261448 l 26.468521814294064 -51.67222736059138" fill="#46fff5" stroke="none" /><path d="M 90.42595943632237 118.69057910512821 l -9.177285544225223 17.9160282739394 a41.129745131840124,41.129745131840124 0 0,0 -0.6273443591664272,-0.32819691859038835 l 9.484320805918145 -17.755401936404294" fill="#ff980e" stroke="none" /><line stroke="#e1ed5e" stroke-width="0.3" x1="58.666819895761336" x2="56.23545636021788" y1="174.27360380694188" y2="178.64263932499728" /><path d="M 58.180547188652646 175.14741091055294 a86.0,86.0 0 0,1 -31.652253787137756,-30.449443065178592" fill="none" id="id80" stroke="none" /><text fill="#e1ed5e" style="font-size:6.75px; font-family:Arial;" text-anchor="middle"><textPath startOffset="22.20632615414155" xlink:href="#id80">August</textPath></text><path d="M 89.7882731507175 118.34994917583269 l -10.49024394577264 18.850430107278072 a42.572759055605175,42.572759055605175 0 0,0 -0.6372761573664679,-0.3618620340387328 l 10.813168870060315 -18.667064907444704" fill="#ffae10" stroke="none" /><path d="M 89.1626897886671 117.98757091392108 l -6.700108852871462 11.120719142650891 a33.983137251452305,33.983137251452305 0 0,0 -0.4984530059525001,-0.3061905476823308 l 6.89054105875627 -11.003740128140183" fill="#ff2303" stroke="none" /><path d="M 85.44109423537348 115.13401014063109 l -16.47343005759917 17.12416177240628 a44.76154065438839,44.76154065438839 0 0,0 -0.5506736266568601,-0.538950045118539 l 16.765753636631825 -16.838061624365167" fill="#ffd013" stroke="none" /><path d="M 84.9287848128048 114.62390073753433 l -12.423120139881824 12.054401288785899 a38.31018499153087,38.31018499153087 0 0,0 -0.4551495319451019,-0.47722246458058987 l 12.628776223205882 -11.838771707622808" fill="#ff6b09" stroke="none" /><path d="M 84.43433777217949 114.09645910891817 l -16.055236719183547 14.539823913913995 a42.66049642913673,42.66049642913673 0 0,0 -0.4882415612548418,-0.5485445698830735 l 16.30313713008673 -14.261305174290058" fill="#ffb010" stroke="none" /><path d="M 83.95833913139862 113.55231037782056 l -21.175773020500205 17.889709227416077 a48.72102197353554,48.72102197353554 0 0,0 -0.5357085172840127,-0.6452954192310474 l 21.480577537677757 -17.522552551071268" fill="#f4ff19" stroke="none" /><path d="M 83.72743513129214 113.27417163493432 l -8.533309563234193 6.9609564730769895 a32.01236973235355,32.01236973235355 0 0,0 -0.3446392090077268,-0.429990403938034 l 8.651866684296781 -6.813038235560695" fill="#ff0100" stroke="none" /><line stroke="#e1ed5e" stroke-width="0.3" x1="26.63291911575756" x2="22.317208475507996" y1="142.92168965132927" y2="145.44649492493687" /><path d="M 25.769776987707644 143.4266507060508 a86.0,86.0 0 0,1 -11.730757126820373,-40.83630448921669" fill="none" id="id81" stroke="none" /><text fill="#e1ed5e" style="font-size:6.75px; font-family:Arial;" text-anchor="middle"><textPath startOffset="21.46611528233685" xlink:href="#id81">September</textPath></text><path d="M 81.87401531095188 110.60418214915194 l -22.653543960645553 13.252924495056568 a47.24543887323226,47.24543887323226 0 0,0 -0.4046189462978906,-0.7054872383028623 l 22.87831490309582 -12.8610174108954" fill="#fff517" stroke="none" /><path d="M 79.86692584326677 105.97154293290107 l -25.276035419967585 7.496963926563891 a47.36441606915761,47.36441606915761 0 0,0 -0.22511035587105055,-0.7836386804913715 l 25.40133841272474 -7.0607677705679235" fill="#fff617" stroke="none" /><line stroke="#e1ed5e" stroke-width="0.3" x1="15.007084014347285" x2="10.007500721073583" y1="101.09737516637583" y2="101.16192664675087" /><path d="M 14.007167355692545 101.11028546245083 a86.0,86.0 0 0,1 10.666146001902534,-42.60595125391555" fill="none" id="id82" stroke="none" /><text fill="#e1ed5e" style="font-size:6.75px; font-family:Arial;" text-anchor="middle"><textPath startOffset="22.20632615414155" xlink:href="#id82">October</textPath></text><path d="M 79.01574976396665 99.18683210126434 l -16.34012122527592 -0.6332016580238401 a37.35238533047814,37.35238533047814 0 0,0 0.030426882708403394,-0.6422634039987286 l 16.326800734334018 0.9143761686455778" fill="#ff5b08" stroke="none" /><path d="M 79.05617556472873 98.46500227214037 l -22.46962596715939 -1.646825531413444 a43.52989403958569,43.52989403958569 0 0,0 0.06120202813339833,-0.7468197622801336 l 22.437949455206496 2.033359210901356" fill="#ffbd11" stroke="none" /><path d="M 79.08570108090925 98.10471618934814 l -16.551760920993136 -1.49994435064248 a37.61958551350604,37.61958551350604 0 0,0 0.063994272627887,-0.6444135920935838 l 16.52348952268302 1.7846334734404943" fill="#ff6008" stroke="none" /><path d="M 79.21141760316559 97.0276538004421 l -26.426010940824195 -3.778384292398657 a47.69476057404533,47.69476057404533 0 0,0 0.12319807976026106,-0.8117214173052598 l 26.357056967624633 4.232704822096008" fill="#fffb17" stroke="none" /><line stroke="#e1ed5e" stroke-width="0.3" x1="26.266209847984243" x2="21.928928074336255" y1="57.711370442889674" y2="55.22380399835377" /><path d="M 25.398753493254645 57.213857153982495 a86.0,86.0 0 0,1 29.58750427330803,-30.492523968695096" fill="none" id="id83" stroke="none" /><text fill="#e1ed5e" style="font-size:6.75px; font-family:Arial;" text-anchor="middle"><textPath startOffset="21.46611528233685" xlink:href="#id83">November</textPath></text><line stroke="#e1ed5e" stroke-width="0.3" x1="56.762969772571076" x2="54.21961505331055" y1="26.818313649435495" y2="22.513508569990535" /><path d="M 56.25429882871897 25.957352633546506 a86.0,86.0 0 0,1 42.265352541879196,-11.944610805530505" fill="none" id="id84" stroke="none" /><text fill="#e1ed5e" style="font-size:6.75px; font-family:Arial;" text-anchor="middle"><textPath startOffset="22.20632615414155" xlink:href="#id84">December</textPath></text></svg>