<?xml version="1.0" encoding="utf-8" ?>
<svg baseProfile="full" height="300mm" version="1.1" viewBox="0,0,200,300" width="200mm" xmlns="http://www.w3.org/2000/svg" xmlns:ev="http://www.w3.org/2001/xml-events" xmlns:xlink="http://www.w3.org/1999/xlink"><defs /><rect fill="#222222" height="300" width="200" x="0" y="0" /><text fill="#FFFFFF" style="font-size:12px; font-family:Arial; font-weight:bold;" x="10" y="20">Over 3kms Workouts</text><text fill="#FFFFFF" style="font-size:4px; font-family:Arial" x="10" y="280">ATHLETE</text><text fill="#FFFFFF" style="font-size:9px; font-family:Arial" x="10" y="290">underwindfall</text><text fill="#FFFFFF" style="font-size:4px; font-family:Arial" x="120" y="280">STATISTICS</text><text fill="#FFFFFF" style="font-size:3px; font-family:Arial" x="120" y="285">Number: 24</text><text fill="#FFFFFF" style="font-size:3px; font-family:Arial" x="120" y="290">Weekly: 1.8</text><text fill="#FFFFFF" style="font-size:3px; font-family:Arial" x="141" y="285">Total: 92.7 km</text><text fill="#FFFFFF" style="font-size:3px; font-family:Arial" x="141" y="290">Avg: 3.9 km</text><text fill="#FFFFFF" style="font-size:3px; font-family:Arial" x="167" y="285">Min: 3.0 km</text><text fill="#FFFFFF" style="font-size:3px; font-family:Arial" x="167" y="290">Max: 5.3 km</text><polyline fill="none" points="26.110288505791686,33.189449513243744 26.325057852081954,33.01538409834029 26.56369045912288,33.01538409834029 26.706870023277588,33.07340591729735 26.921639369567856,33.276482173387194 26.993229151703417,33.305493053165264 26.993229151703417,33.218460403440986 27.04095567308832,33.42153653698915 27.04095567308832,33.305493053165264 27.112545455107465,33.16043861948128 27.876169797615148,32.66725289056194 28.353435011580586,32.3191211787198 29.09319609333761,32.0 29.284102178993635,32.05802206390945 29.4034184825141,32.174066149949795 29.880683696479537,33.16043861948128 30.548854996217415,34.14680704240163 30.859077385161072,35.07515009694907 30.930667167296633,35.68437327844731 31.24088955647312,36.32260543198208 31.52724868489895,36.699741817312315 31.742018031072803,37.07687761107809 32.147693463019095,38.12125056805962 32.45791585219558,38.5564046279178 32.696548459120095,38.99155790026998 33.19767693395261,40.38404307956807 33.91357475495897,41.9215694302693 34.22379714413546,42.907901912753005 34.36697670829017,43.43007629481144 34.7010623581009,44.329373961430974 37.34988429583609,50.218240074493224 37.564653642242774,51.00147741042019 37.85101277055219,51.52363421698101 37.87487603130285,51.72669489120017 37.755559727782384,52.016781271100626 37.827149509917945,52.24885012311279 37.70783320639748,52.393893041837146 37.42147407797165,52.538935873191804 36.037404957343824,53.64125853184669 32.147693463019095,56.54208348868997 30.97839368879795,57.354308206093265 27.470494365668856,60.05203490135318 25.084168295608833,61.82149511636817 23.771688957232982,62.86576060966763 23.031927875359543,63.3878916559479 21.671722015365958,64.46115746890428 21.051277237245813,64.86725679771916 20.239926373353228,65.50541150046047 20.144473330583423,65.6214394462877 20.02515702706296,66.66568843978166 19.881977462791838,67.15880444399954 19.667208116617985,67.59390596101002 19.69107137725223,67.70993289927719 20.02515702706296,68.0 20.144473330583423,68.0 20.311516155372374,67.50688572059153 20.45469571975991,67.36185191654658 27.160271976608783,62.28561367317161 27.49435762653593,62.082561914794496 27.971622840384953,61.879509984952165 28.950016529182903,61.2123381512356 29.594324568170123,61.0673005511635 32.21928324515466,59.21081154451531 32.36246280930936,59.0367649654072 32.38632607017644,58.92073384266405 32.09996694163419,58.4856166337413 32.076103680883534,58.369585245032795 32.12383020250127,58.2825616668124 32.41018933081068,57.99248284519126 32.863591284141876,57.644387797350646 33.29312997672241,57.209268279140815 33.937438015593216,56.86117209761869 36.132858000230044,55.207708354631905 37.111251688795164,54.39547638692602 37.540790381492116,54.134401243252796 38.44759428803809,53.46720792162523 38.73395341646392,53.177123291417956 39.068039066391066,52.654970075178426 39.66462058387697,52.27785871384549 39.71234710526187,52.16182432991627 39.688483844627626,52.04578988988942 39.13962884841021,51.7847121951927 39.068039066391066,51.69768623395066 39.09190232702531,51.61066024124739 39.21121863054577,51.465616850066 39.37826145545114,51.34958207413729 39.783936887281016,51.175529805303086 40.18961231922731,51.05949488938495 40.33279188349843,50.97246866571368 39.95097971218638,50.79841612384189 39.97484297293704,50.682381025952054 39.879389930167235,50.47931946993049 39.879389930167235,50.218240074493224 39.76007362664677,49.95716039562831 39.545304280356504,49.69608043326298" stroke="#4dd2ff" stroke-linecap="round" stroke-linejoin="round" stroke-width="0.5"><title>2022-08-01 3.2km</title></polyline><polyline fill="none" points="71.42486166243907,32.583160722919274 71.39959995169193,33.319782886479516 71.47538508416619,33.41186050718534 71.65221706032753,33.289090338890674 71.70274048193824,33.012857243738836 71.55117021675687,32.0 71.65221706032753,33.012857243738836 71.65221706032753,33.2277052324207 71.57643192773685,33.44255304004764 71.70274048193824,33.841555630700896 71.65221706032753,34.24055759666953 71.70274048193824,34.57817415689351 71.65221706032753,34.94648262154078 71.82904903637245,37.21770639135502 71.87957245809957,38.81368936377112 72.20797469920944,41.79078473613481 72.20797469920944,43.11051692033652 72.3090215427801,45.10544794690213 72.38480667537078,45.84203391717165 72.46059180796146,46.333090048021404 72.51111522957217,47.652798711671494 72.58690036227927,48.174542112479685 72.66268549486995,49.00319120089989 72.71320891648065,50.9366952633718 72.81425576005131,52.19499955227366 72.89004089264199,53.51467786417925 73.09213457943406,55.540217329893494 73.1426580012776,57.044016521802405 73.31948997732252,58.425048780743964 73.49632195325103,59.345732796529774 73.59736879670527,60.358481372881215 73.62263050756883,61.64742828684393 73.59736879670527,62.9977466345299 73.3952751099132,64.37874663679395 73.09213457943406,65.57560725347139 72.9405643142527,66.95659328985494 72.91530260350555,67.41692030613194 72.83951747079846,67.66242770830286 72.83951747079846,67.81586971448269 72.91530260350555,67.93862325299415 73.04161115770694,68.0 74.80993091815617,67.72380452186917 76.07301646133419,67.47829717883724 76.5782506786054,67.47829717883724 78.04342990857549,67.2327895994531 78.27078530634753,67.2327895994531 80.140151910251,66.86452778690727 81.63059285120107,66.68039668118581 81.807424827246,66.61901961639524 81.9337333815638,66.43488833325682 81.75690140551887,66.74177373124985 79.91279651247896,67.07934724216466 78.42235557164531,67.2327895994531 77.76555108907633,67.3555434186419 75.51725882221945,67.66242770830286 74.98676289420109,67.81586971448269 73.92577103793155,67.96931162837427 73.0668728685705,68.0 72.83951747079846,67.84655810470576 72.81425576005131,67.66242770830286 72.99108773597982,66.43488833325682 73.0668728685705,65.60629591339966 73.34475168806966,64.62425696509308 73.4457985315239,63.949102993443375 73.62263050756883,61.86225213872967 73.62263050756883,61.0950232646137 73.54684537497815,60.082277614681516 73.47106024250388,59.621937352756504 73.3952751099132,58.88539120435598 73.1931814228883,57.8112575893756 72.96582602511626,55.20262853676104 72.89004089264199,53.51467786417925 72.66268549486995,50.660481295373756 72.66268549486995,50.07736193531309 72.53637694043573,48.84973786919727 72.51111522957217,47.59141706483206 72.41006838611793,47.131054242752725 72.3595449643908,46.42516296720714 72.13218956661876,42.71152884114417 72.15745127759874,41.60663551592734" stroke="#4dd2ff" stroke-linecap="round" stroke-linejoin="round" stroke-width="0.5"><title>2022-07-30 3.0km</title></polyline><polyline fill="none" points="111.4164055470028,67.9728652499034 111.33826175821014,68.0 111.66200031165499,67.87789357294969 112.36529441049788,67.70151738889399 112.8006669479073,67.53870835823909 113.20254929008661,67.3080618283202 113.32534667250002,67.2130895903756 113.49279764835956,67.02314487412514 113.6267584291054,66.80606480578717 114.00631397456164,66.00557843506249 114.40819631674094,65.23222178803553 115.44639236747753,63.37343056606187 115.54686295299325,63.10207161510334 115.81478451448493,62.55935175018385 115.93758189678192,62.2608547088239 116.43993482459337,61.21610882884852 116.9087975571747,60.198489880684065 117.10973872826435,59.8321448065617 117.50045767205302,58.990903455909574 117.77954263193533,58.62455445037631 118.47167333244579,57.756166858140205 118.92937266657827,57.11844045217731 120.26898047397844,55.62587516068015 121.6978954684455,53.9161851349927 122.21141179464757,53.183452885576116 123.6626535859541,50.9445192235944 123.90824835066451,50.53743558916176 123.97522874100832,50.279615192179335 123.9975555377896,49.95394647781359 123.97522874100832,49.51972005896096 123.97522874100832,47.416412123107875 123.98639213939896,47.253573739668354 124.04220913135214,47.05002542898728 124.10918952175416,46.84647674996813 124.19849670893745,46.710777426022105 124.32129409123445,46.60221784905298 124.5222352623241,46.50722813323955 124.75666662864387,46.49365816729551 124.93528100295225,46.534368060238194 125.12505877565127,46.724347365801805 125.97347705368884,47.86421646219969 126.21907181839924,48.12204239436687 126.38652279425878,48.24417026125593 126.50932017661398,48.2848795207974 126.63211755891098,48.29844927066006 126.8218953316682,48.257740016051685 127.11214368994115,48.06776329984859 128.0163789599319,47.36213268816209 129.28900637693005,46.39866835986322 130.58396059065126,45.57089664283558 131.2760912911035,45.06880263373023 131.84542460925877,44.715978475920565 132.13567296753172,44.512425573848304 133.70971214119345,43.25038936002966 133.83250952354865,43.14182644376706 134.07810428820085,42.843277883701376 134.97117615980096,42.083332519257965 135.30607811169466,41.716928455629386 135.32840490841772,41.64907572026277 135.30607811169466,41.51337012680597 134.99350295658223,40.94340484647546 134.7367447935394,40.31915384493186 134.02228729624767,38.75851118458377 133.3859735877486,37.61854981796205 133.02874483907362,36.89928253512335 132.5933723017224,35.922157348672044 132.29196054505883,35.36573504660919 132.1914899595431,35.026451804129465 131.5440128526534,33.764309157231764 131.22027429915033,32.922872857430775 131.00816972972825,32.44786571480654 130.86304555059178,32.14928876976046 130.79606516013155,32.0407151387044 130.7514115666272,32.0 130.70675797300646,32.0 130.27138543565525,32.25786229605001 130.09277106128866,32.40715072353487 130.00346387410536,32.3528640455479 129.891829890199,32.32572069673188 129.7355423126719,32.40715072353487 129.45645735278958,32.502152346933144 129.19969918974675,32.502152346933144 128.88712403463433,32.678583720371535 128.84247044113,32.63786881259148 128.83130704268115,32.556438952822646 128.85363383952063,32.58358224596304 128.85363383952063,32.62429717340274 128.67501946515404,32.76001349168655 128.56338548124768,32.895729646210384 128.58571227802895,33.41144953987532 128.4517514972831,33.737166149039695 128.40709790372057,33.954310031178466 128.40709790372057,34.00859593617497 128.44058809883427,34.03573887886159 128.5968756764196,34.03573887886159 128.68618286354467,34.0493103477711" stroke="#4dd2ff" stroke-linecap="round" stroke-linejoin="round" stroke-width="0.5"><title>2022-07-29 4.7km</title></polyline><polyline fill="none" points="175.80187635601033,32.6287997346808 175.85809608810814,32.51944350980921 175.9480476594763,32.45109581566794 176.31909789156634,32.32806986225478 176.44278130226303,32.32806986225478 176.8700512663927,32.10935672628693 177.02746651641792,32.04100878472673 177.18488176638493,32.0 177.30856517708162,32.027339191430656 177.48846831987612,32.1366958913859 177.67961540911347,32.3690785282306 177.76956698059803,32.505773974255135 177.97195801622001,32.91585932276212 178.05066564126173,33.038884637790034 178.20808089117054,33.325943186740915 178.38798403396504,33.831711241240555 178.53415533754742,34.077759748644894 178.62410690891556,34.31013840380183 178.66908269462874,34.54251658231806 178.87147373030894,34.92525607254356 179.0401329267188,35.157632989343256 179.27625580161111,35.78641519787925 179.44491499807918,36.03245945995877 179.602330247988,36.33317949905177 179.7822333908407,36.879941161467286 180.22074730147142,37.97345657025289 180.29945492645493,38.287840296870854 180.43438228353625,38.65689834105433 181.73868006898556,41.527308759810694 181.80614374752622,41.81434580210043 181.91858321183827,42.11505049504922 181.9298271582811,42.238065821286 181.91858321183827,42.33374431600532 181.96355899755144,42.45675940475485 181.9523150511086,42.48409607301437 181.6937042833306,42.702789181617845 179.9846244265209,43.97393451834796 179.34371948020998,44.47965504181775 178.3542521946947,45.176725577119214 177.66837146272883,45.73711250591441 174.0365767670446,48.443332324728544 173.4181597136194,48.94903290164075 172.86720633867662,49.33172372997069 172.03515430312837,49.94675985368667 171.7877874817932,50.1654385599104 171.59664039255586,50.384116844164964 171.27056594617898,50.88980876022106 171.00071123195812,51.24515848640294 169.59521792869782,53.39090046189813 169.1567040180671,54.005914556008065 168.98804482165724,54.251919259142596 168.72943405387923,54.51159031087445 168.3921156611177,54.78492761732923 168.111017000454,55.14026513014687 167.8299183397903,55.454601231991546 167.23398917919258,56.23360433549533 166.37944925075863,57.272266811058216 166.1658142686938,57.62759652537352 165.51366537599824,58.43391751406307 165.2775425009895,58.76191085121536 165.03017567965435,59.17190118787403 164.79405280464562,59.650221372816304 164.64788150117965,59.89621382478799 164.5354420368676,60.169538145266415 164.40051467978628,60.41552947013406 164.28807521553244,60.68885253826738 164.0969281262951,61.044171541463584 164.02946444769623,61.26282883599197 163.92826892982703,61.50881778805342 163.74836578709073,61.85046822478034 163.62468237633584,62.1237878326865 163.42229134071385,62.438104566979746 162.98377743008314,63.35371791229409 162.8488500729436,63.58603653990576 162.80387428723043,63.58603653990576 162.6914348230348,63.53137337627413 162.62397114443593,63.599702326719125 161.85938278748654,65.08926321045146 161.70196753746131,65.34890943446953 161.61201596609317,65.55389287543949 161.45460071606794,65.71787936133478 161.40962493041297,65.8545345849925 161.33091730537126,65.97752414546267 161.2859415197163,66.14151001851133 161.1397702161339,66.30549565429828 161.0610625911504,66.57880452011159 160.92613523406908,66.77012033409119 160.74623209127458,66.97510120506195 160.397669752012,67.26207380169217 160.22901055566035,67.38506183499703 159.86920427001314,67.57637628822704 159.54312982363626,67.6993639805587 158.85724909167038,67.80868626170559 158.48619885958033,67.91800843739475 158.03644100250676,68.0" stroke="#4dd2ff" stroke-linecap="round" stroke-linejoin="round" stroke-width="0.5"><title>2022-07-29 4.0km</title></polyline><polyline fill="none" points="30.456487632123753,74.89042306976626 30.760812720283866,74.70543729909696 31.198280034470372,74.54357460323081 31.369462896487676,74.38171177070762 31.44554416858591,74.35858849778015 31.540645758621395,74.38171177070762 31.76888957468327,74.56669785389386 31.350442578550428,74.31234194349963 30.8368939923821,74.24297209118959 30.513548586168326,74.08110900476458 30.380406360141933,73.84987578695291 30.209223498008214,73.29491492586385 30.171182862017304,73.04055732743291 30.228243816061877,72.99431045509118 31.21730035240762,72.46247062085604 32.301458478788845,72.0 32.45362102298532,72.0 32.66284452099353,72.06937066430692 32.910108654992655,72.27748250646982 33.290515015251,72.99431045509118 33.57581978535745,73.4799020581413 33.78504328336567,73.71113572234754 33.93720582744572,74.17360221370473 34.18446996156126,74.68231406519772 34.241530915605836,74.89042306976626 34.58389663975686,75.49162559125398 34.926262363791466,76.43967188910756 35.26862808794249,76.9715006856859 35.53491254011169,77.48020511009963 35.706095402128994,78.05827668054553 35.744136038119905,78.45136435242603 35.78217667422723,78.54385545218247 36.20062367036007,78.86757394981396 36.4478878043592,79.35315067091142 36.7141722565284,80.25493274607288 37.474984976812266,82.15097352556768 37.608127202955075,82.75215327063052 37.68420847482048,82.96025351231219 37.89343197294511,83.35333112995431 38.0265741989715,83.70016365253832 38.330899287131615,84.27821646202938 38.55914310319349,84.85626752812823 38.93954946345184,85.54992650602071 39.41505741351284,86.70601922365313 40.099788861814886,88.13956450877595 40.385093631921336,88.94881920909393 40.40411394985858,89.15691272259573 40.309012359939516,89.43437038922275 40.32803267787676,89.52685618877877 40.44215458596591,89.596220509251 40.44215458596591,89.64246337552322 39.472118367557414,90.49795439030277 37.13261925277766,92.20892496473971 36.1435627163155,92.9950414593186 34.96430299989879,93.82739658639184 29.82881713786628,97.75791363090684 23.342888697516173,102.54378733565682 22.924441701266915,102.98306444237824 22.334811843116768,103.90785506089742 21.91636484686751,104.41648799937684 21.707141348859295,104.80952161847381 21.535958486725576,105.01759791409131 20.870247356477194,106.0579760044784 19.805109548033215,107.60697292207624 19.67196732200682,107.93064233887708 19.61490636796225,108.0 19.55784541403409,108.0 19.595886050025,107.90752311296819 20.45180036034435,106.65908077206404 20.718084812397137,106.31228979007574 21.80224293889478,104.57832546952704 23.11464488133788,102.7518660906062 23.32386837946251,102.49754758169001 25.016676682047546,101.2259499757638 26.291037988616154,100.30114641872933 26.918708482873626,99.88498336248449 31.29338162438944,96.55564638519718 31.940072436700575,96.1163545489544 32.68186483904719,95.53833744116127 33.119332153117284,95.12216404426727 33.708962011383846,94.75223137735156 34.774099819827825,93.91988026631589 35.04038427188061,93.75803379721765 36.12454239826184,92.87943629459187 37.20870052464306,92.11644045930007 38.14069610706065,91.42280524605303 38.59718373930082,91.00662291322078 39.71938250167295,90.1511341688456 39.985666953842156,89.91992033926363 40.17587013379671,89.68870623070688 40.347052995930426,89.596220509251 40.27097172383219,89.36500601017906 40.309012359939516,89.24939865610213 40.309012359939516,89.15691272259573 40.11880917986855,88.74072546962998 40.15684981585946,88.41702364811499 40.11880917986855,88.25517253232829 39.51015900366474,87.16845435813593 39.110732325469144,86.22046113164106 38.92052914539818,85.87363316988922" stroke="#4dd2ff" stroke-linecap="round" stroke-linejoin="round" stroke-width="0.5"><title>2022-07-08 4.2km</title></polyline><polyline fill="none" points="92.03827638668008,104.52479818364372 92.25401827751193,104.13137630923302 92.28098601393867,103.73795386520214 92.17311506846454,103.37731612450443 92.09221185930073,103.21338972038939 91.95737317763269,103.14781913108891 91.74163128691725,103.14781913108891 90.66292183287442,103.63959816523129 88.69427707919385,104.3608724718215 87.69647083419841,104.81986421547481 83.48950396338478,106.81974776365678 82.2759558276739,107.54101362838992 81.38602052803617,108.0 81.14331090077758,107.96721528485068 80.95453674637247,107.8032916499651 80.65789164649323,107.3443049461057 80.3612465467304,106.81974776365678 79.06679520185571,103.70516863584635 78.50047273840755,102.52489774339483 77.39479554793797,99.77091238874709 76.8015053482959,98.42669511368149 76.72060213924851,98.13162213863689 76.74756987567525,97.93490664393175 77.25995686626993,97.50868925021496 76.8015053482959,97.60704716961482 76.53182798495982,97.57426120049786 76.28911835770123,97.4103312951047 76.1003442031797,97.11525721641374 75.34524758532643,95.54152338366839 74.32047360402066,93.67270261753583 73.78111887699924,92.42681496497244 73.10692546819337,90.65633320933557 72.56757074117195,89.6071533910872 72.08215148700401,88.26288582745474 71.4618935509352,86.88582435328863 70.81466787843965,85.67269298547762 70.03260352415964,83.8365919625794 68.98086180654354,81.70538771344582 68.79208765213843,81.47587241246947 68.73815217940137,81.27914485728252 68.76511991582811,81.0824171595741 68.89995859749615,80.95126528205583 70.22137767868116,80.22992882347899 71.21918392367661,79.47580229624873 73.34963509533554,78.39379101336817 74.48228002223186,77.93475462158676 75.99247325782198,77.08225640759338 77.25995686626993,76.0330241639167 77.82627932971809,75.50840652224724 77.96111801138613,75.2788859854627 78.01505348400678,75.04936525473022 77.98808574781287,74.81984433010803 77.90718253876548,74.49195695848903 76.82847308472265,72.4262574161985 76.63969893020112,72.163945239241 76.39698930305894,72.0 76.15427967591677,72.0 75.21040890365839,72.32789037952898 74.67105417663697,72.59020239827805 74.05079624056816,73.01645888833445 72.97208678652532,74.09849159006262 72.13608695962466,74.55753446443123 71.32705486915074,75.08215394246508 71.21918392367661,75.31167464546161 71.19221618724987,75.83629266699427 71.08434524189215,76.00023559096735 70.86860335117672,76.00023559096735 70.14047446963377,75.54119515456841 69.8977648424916,75.57398378293146 69.25053917011246,76.42648673019721 68.60331349761691,76.95110259877401 67.2009912073845,77.83638957960648 66.7695074257208,77.96754296106519 66.39195911691058,78.03311962791486 65.60989476274699,78.00033129646908 64.5851207813248,77.70523613484693 64.39634662680328,77.80360122429556 64.04576605430339,77.86917793093016 63.93789510882925,77.83638957960648 63.77608869073447,77.7380245020322 63.64125000895001,77.54129423986888 63.4524758545449,77.1806217226549 63.15583075466566,76.0330241639167 63.10189528204501,75.31167464546161 63.18279849097598,74.0001251589274 63.07492754573468,73.2459813367168 62.96705660026055,72.91809206540347 62.83221791847609,72.75414728128817 62.40073413681239,72.557413409726 61.67260525538586,72.72135831264313 61.295056946459226,72.91809206540347 61.13325052836444,73.14761459696456 61.07931505574379,73.34434804102057 61.05234731931705,73.67223679783638 61.10628279205412,74.16406919102883 61.34899241907988,74.88542175691691 61.86137940979097,75.83629266699427 62.7513147094287,76.81994872659561 63.34460490907077,77.1806217226549 63.883959636092186,77.86917793093016 64.15363699977752,78.16427291446598 64.47724983585067,78.36100272531621 65.44808834453579,78.82003839683603 65.90653986250982,79.21349692638614 66.0683462806046,79.41022597753908 66.36499138048384,80.22992882347899 66.66163648036309,80.7873253459693 67.2009912073845,81.37750865262933 67.41673309821635,81.50866032447084 67.63247498893179,81.57423613657011 67.9830555615481,81.50866032447084 68.6842167066643,81.04962919614627 70.24834541499149,80.26271688585985 71.13828071462922,79.57416674451088 72.08215148700401,78.95119130329113 74.32047360402066,78.00033129646908 75.29131211270578,77.3773522459378 76.1003442031797,76.98389105690876 77.52963422983885,75.73792686517118 77.55660196614917,75.67234964415547 77.47569875710178,75.41004060170962 77.17905365722254,75.04936525473022 76.8824085573433,74.95099916795152 75.88460231234785,75.2788859854627 75.15647343092132,75.60677240727819 74.07776397687849,75.54119515456841 73.43053830449935,75.77071546972729 73.32266735902522,75.93465843325248 73.24176415009424,76.19696696911706 73.43053830449935,76.81994872659561 73.43053830449935,77.31177542070509 73.32266735902522,77.60687100965879 72.99905452295206,78.13148459873628 72.94511905009858,78.39379101336817 72.7833126320038,78.62330891832244 72.4327320595039,78.91840308255632 71.38099034188781,79.50859044960816 70.43711956951302,80.22992882347899 69.43931332451757,80.72174934385112 68.76511991582811,81.11520511904382 68.57634576119017,81.3119327929744 68.54937802487984,81.57423613657011 68.63028123392724,81.80375135445502 68.87299086106941,82.1316299008322 69.22357143380214,83.1152631654113 70.35621636046562,85.70548039098503 71.59673223260324,88.19731162989046 71.89337733248249,89.04977496468928 72.5136352685513,90.29567810389563 72.7833126320038,91.18092159909429 73.2147964136675,92.16452209962881 73.59234472259413,93.21369204187067 74.1856349222362,94.3612170269189 74.77892512199469,95.24644727521809 75.23737663996872,96.09888849192066 75.69582815794274,97.57426120049786 76.26215062127449,99.0496258972853 77.0442149755545,100.62333941008546 77.50266649341211,101.9019749275758 78.09595669328701,103.08224852589774 78.93195652007125,105.2132850929047 79.25556935626082,105.93455522204749 79.52524671982974,106.2624046478013 80.03763371042442,106.32797448543715 80.19944012863562,106.45911411341513 80.73879485565703,107.54101362838992 80.90060127375182,107.77050691115437 81.11634316446725,107.90164584276499 81.35905279172584,107.93443056574324 81.70963336422574,107.8032916499651 82.24898809124716,107.54101362838992 82.86924602731597,107.14759612135822" stroke="#4dd2ff" stroke-linecap="round" stroke-linejoin="round" stroke-width="0.5"><title>2022-07-05 5.3km</title></polyline><polyline fill="none" points="124.8417510597501,74.0891589604289 124.93722053617239,74.1820099431934 125.10906559356954,74.43734991474776 124.99450222193263,74.43734991474776 124.86084495508112,74.27486088116711 124.7271876882296,74.20522268190689 124.36440367798787,74.1820099431934 124.15437083004508,74.11237171028915 123.86796240089461,73.9034568604693 123.7343051340431,73.717754581201 123.56246007664595,73.41598799508938 123.46699060022365,73.16064666793682 123.44789670500904,72.97494367159379 123.56246007664595,72.8356663067243 124.09708914416842,72.580324209237 124.6126243165927,72.41783360711997 125.24272286053747,72.09285199112492 125.62460076599382,72.0 125.94919698557351,72.04642600116495 126.15922983351629,72.13927796983626 126.25469930993859,72.23212989378953 126.71295279636979,73.02136943749792 127.47670860728249,74.06594620774558 127.68674145522527,74.78554023880861 127.91586819849908,75.15694255662675 128.08771325589623,75.62119444552809 128.22137052286416,76.2479327184119 128.29774610395543,76.36399513746437 128.56506063777488,76.92109377430461 128.73690569517203,77.17643011036853 129.84435162099544,79.47444188507507 130.05438446893822,80.28686372275115 130.70357690821402,81.79563803388737 130.83723417506553,82.21345036657294 130.93270365148783,82.74732036003843 131.04726702300832,83.02586063818308 131.31458155682776,83.53651676731533 132.3647457967745,85.83445257603307 132.6702481211396,86.60042507997423 133.28125276975334,87.80740586755564 133.49128561769612,88.36447136961215 133.51037951302715,88.52694850388798 133.49128561769612,88.64300351581187 133.62494288466405,88.87511332969007 133.72041236108635,89.17685566902219 133.72041236108635,89.29291028899024 133.6822245705407,89.52501931878214 133.72041236108635,89.73391720623476 133.64403677999508,89.87318233850237 132.97575044550467,90.43024185969261 132.25018242525402,90.91766761781764 129.30972255335655,93.19230482931016 127.83949261740781,94.19035144463123 125.79644582339097,95.76864715392003 123.40970891446341,97.53260939171014 122.60776531300507,98.15927629399812 117.92976097145583,101.61751249275403 116.72684556932654,102.56909678499505 116.2304042923497,103.12611955308239 115.10386447131168,104.7043419736292 114.14916970778722,106.12008930837328 112.94625430565793,108.0 113.02262988663279,107.95358267321717 113.38541389687452,107.35015640566417 113.95823075494263,106.58426649516332 114.64561098476406,105.4702393658954 114.97020720446017,105.05247752978175 115.69577522471081,103.93844153310056 115.98218365374487,103.42783954595507 116.51681272138376,102.7547712201631 117.31875632284209,102.10490991320694 120.18284061353188,99.99284550880839 120.69837578583974,99.59828145687061 121.17572316771839,99.15729714732151 123.16148827585857,97.7879183760815 123.98252577253152,97.11483032308752 126.17832372884732,95.49012532240886 126.59838942473289,95.11876225321612 127.34305134031456,94.65455740886682 128.049525465467,94.14393078655121 128.67962400941178,93.54046121325518 129.86344551621005,92.72809533735563 131.0281731277937,91.82288360685925" stroke="#4dd2ff" stroke-linecap="round" stroke-linejoin="round" stroke-width="0.5"><title>2022-07-01 3.7km</title></polyline><polyline fill="none" points="173.33816284313798,72.90814154047985 173.91397648036946,72.64326746785082 174.05403925705468,72.66218705927895 174.2563521565753,72.7757045601029 174.3030397487455,72.75678498230991 174.67654048651457,72.56758907918993 175.15897893934743,72.17027693954878 175.40797943115467,72.05675900042115 175.6881049844087,72.0 175.76591763808392,72.05675900042115 175.89041788404575,72.22703587825526 176.12385584501317,72.70002623535402 176.2950436831452,72.9459806571831 176.4195439289906,73.19193469319725 176.82416972820647,74.28926338421297 177.35329577320954,75.21631094925397 177.55560867284657,75.70821151317796 177.61785879574018,76.01091878545412 177.68010891869199,76.20011053395865 177.7734841031488,76.35146376832563 177.97579700272763,76.61633157700999 178.14698484080145,76.9568752451305 178.27148508670507,77.46768936049193 178.5049230477307,78.0730965276307 178.86286125477636,78.86768988741096 179.01848656206857,79.51092918201175 179.1585493387538,79.87038528567064 179.2207994616474,80.09740976872854 179.39198729977943,80.47578317672014 179.53205007640645,80.91091146721737 181.01049049641006,84.03244858703692 181.07274061936187,84.20271246107586 181.05717808858026,84.37297615029092 181.2594909882173,84.77025737284566 181.2594909882173,84.86484799181926 181.21280339598889,84.99727476249973 181.3061785803875,85.12970142131962 181.2906160497223,85.18645566943451 180.74592747387942,85.64048891505809 179.9366758755641,86.2458645311126 179.2207994616474,86.83231993064692 178.25592255592346,87.53227995613997 177.22879552730592,88.32682538838708 176.59073176718084,88.76193189551122 175.37685436964966,89.70781144211651 173.27591272018617,91.2968762380915 172.31103581446223,91.95898181793746 171.50178421620512,92.64000178403512 170.86372045596363,93.09401345184597 170.27234428795055,93.6047750072612 169.64984305843245,94.0020328448445 169.49421775114024,94.13445190041966 169.276342320838,94.2290368717222 168.70052868360654,94.7019608723931 167.7200892471592,95.42080262248055 167.39327610161854,95.6288877773768 167.2065257327631,95.79913906237925 166.98865030246088,96.08289079337555 166.70852474920684,96.5368924952927 166.21052376565058,97.19897595494695 165.83702302793972,97.80430695807445 165.47908482095227,98.25830367728486 163.70495631697122,100.98225639786688 163.08245508751133,101.75781761812686 162.42882879654644,102.36313102803251 162.0553280588938,102.7603666838695 159.05175962665817,106.60025949521514 158.92725938075455,106.90290714910952 158.86500925780274,107.18663879441738 158.77163407340413,107.37579293946328 158.6938214196707,107.71626982589078 158.91169685008936,107.77301590169373 159.03619709599297,107.64060835943383 159.05175962665817,107.54603147506714 159.06732215743978,107.58386223566777 159.14513481111499,107.62169298710069 159.3318851799704,107.41362374114397 159.3474477106938,107.41362374114397 159.3474477106938,107.45145453364239 159.40969783358742,107.45145453364239 159.42526036436902,107.47036992650828 159.40969783358742,107.5271160913253 159.02063456521137,108.0 159.06732215743978,107.98108467103157 159.03619709599297,107.98108467103157 159.05175962665817,107.94325400624075 159.37857277219882,107.54603147506714 159.50307301804423,107.31904671990196 159.61201073322445,107.20555421919562 160.0944491859991,106.63809048384428 160.45238739298657,106.12737136695068 161.3861392372055,104.93568696109287 161.60401466756593,104.61411977671378 161.89970275154337,104.3114677069243 162.1487032433506,103.93315179846832 162.61557916546008,103.40350799377484 163.20695533341495,102.59012295454158 164.63870816119015,100.79309454295435 164.68539575341856,100.69851352996193 164.66983322269516,100.603932459926 164.51420791528653,100.45260262925876 164.3585826079361,100.22560760944907 164.37414513865951,100.11210997636954 164.52977044606814,99.77161658437399 165.12114661408123,98.92037987068761 165.38570963661186,98.48530154414766 165.7436478434829,98.01238895085407 166.07046098902356,97.46380855626194 166.53733691113302,96.82064289164555" stroke="#4dd2ff" stroke-linecap="round" stroke-linejoin="round" stroke-width="0.5"><title>2022-06-30 3.9km</title></polyline><polyline fill="none" points="20.564186556614004,119.22109217275283 21.388399176648818,121.29409934897558 22.042085047694854,122.60699613267207 23.43472016439773,125.612816105393 23.832615911960602,126.33835413097404 23.946300411364064,126.4420022702543 24.031563785858452,126.4765516417392 24.059984910534695,126.26925535063492 23.91787928645499,125.7855634210573 23.12208779132925,123.98898624494905 23.065245541743934,123.71258875599597 23.093666666420177,123.4707407343376 23.321035665110685,123.19434274517698 23.832615911960602,122.88339468868799 25.02630315476563,122.29604743834352 26.75999176944606,121.53594920874457 27.243150891619734,121.25954935228219 27.299993141321465,121.01769925910048 27.271572016528808,120.77584896158078 26.816834019031376,119.73934537352761 26.67472839495167,119.35929311791551 26.703149519860744,119.1174414199777 26.816834019031376,118.91013980199932 27.01578189304564,118.73738833909738 27.555783264688216,118.42643544319435 30.25579012359958,117.07896899283514 31.47789849131368,116.38795809738804 32.95579698239453,115.21323574837879 36.42317421163898,112.20730662022834 36.79264883429278,112.03455111387302 37.04843895789236,112.0 37.218965706881136,112.13820443014265 37.41791358066257,112.51826626909315 37.87265157792717,113.86575417895801 38.838969822158106,116.04245202435413 39.236865569720976,117.32082241235184 39.46423456829507,117.90817986641196 42.78950617345981,125.40551918902202 43.301086420426145,126.9947917132231 43.386349794920534,127.72032623778796 43.301086420426145,127.89307228231337 42.98845404735766,128.2040148997039 41.85160905413795,129.03319356261636 39.236865569720976,131.0715809041576 35.17264471901581,134.008215128124 33.296850480372086,135.45924680659664 31.591582990600727,136.87572302110493 29.459998628357425,138.46493189866305 29.20420850487426,138.81041092259693 29.175787379965186,139.3977243070549 28.863155006896704,140.12322741327807 28.66420713311527,140.88327631555148 28.351574759813957,141.19420483062277 25.53788340173196,143.2670529722527 25.0547242796747,143.64707350439858 25.02630315476563,143.68162080046022 25.083145404583775,143.64707350439858 25.02630315476563,143.68162080046022 25.02630315476563,143.64707350439858 25.083145404583775,143.64707350439858 25.02630315476563,143.71616809244733 24.713670781697147,143.85435721845715 23.491562413983047,144.82167923427187 23.12208779132925,144.9944149647199 22.923139917547815,145.02896209823666 22.695770918857306,144.9598678269249 22.155769547098316,144.64894339963212 21.89997942361515,144.57984903658507 21.473662551259622,144.54530184876057 21.16103017795831,144.6143962201313 18.091548696393147,146.82540730352048 17.665231823921204,147.2054231147922 17.068388202576898,147.89635966173955 16.84101920388639,148.0 16.670492454897612,147.89635966173955 16.61365020519588,147.6545320598816 16.642071330104955,146.6872196108743 16.69891357969027,146.307203112141 16.812598079093732,146.06537416868377 17.096809327369556,145.89263908396242 17.83575857290998,145.75445094131283 18.11996982130222,145.65080979047343 18.290496570290998,145.51262153114658 18.631550068268552,145.02896209823666 19.28523593931459,144.47620746071334 19.54102606268134,144.16528250832926 19.62628943717573,143.88890448960592 19.62628943717573,143.3016003142402 19.825237310957164,142.81793714789092 19.825237310957164,142.23063077652478 19.9673429352697,141.40149031981127 19.938921810360625,141.15965723447152 19.796816186164506,140.71053810577723 19.825237310957164,140.2268705641327 19.768395061371848,140.12322741327807 19.62628943717573,140.01958422493772 19.086288065533154,139.8813932487392 18.830497942049988,139.8813932487392 17.693652948830277,140.64144279275206 17.267336076358333,140.3650613736827 17.12523045227863,140.330513677618 16.98312482808251,140.3650613736827 16.869440328679048,140.57234746296308 16.812598079093732,140.9178239449684 16.84101920388639,142.9906740867591 17.011545952758752,143.57797889970243 17.352599450852722,144.0616407825728 17.750495198415592,144.30347141774837 18.11996982130222,144.3725658474723 18.7452345675556,144.16528250832926 18.972603566129692,143.71616809244733 19.25681481452193,143.5088842783298 19.484183813096024,143.5088842783298 19.882079560658894,143.7852626638487 20.507344306912273,143.61252620408777 20.73471330560278,143.71616809244733 20.933661179384217,143.99254627796472 20.990503429085948,144.1998297419923 21.018924553878605,144.54530184876057 21.189451302867383,144.54530184876057 21.672610425041057,144.30347141774837 23.065245541743934,143.1979582758795 24.571565157617442,142.16153583023697 26.390517146792263,140.6759904513019 27.754731138586067,139.74320220580557 32.72842798382044,136.01201884570764" stroke="#4dd2ff" stroke-linecap="round" stroke-linejoin="round" stroke-width="0.5"><title>2022-06-19 4.7km</title></polyline><polyline fill="none" points="58.66666666662786,123.29721013089875 59.56426239234861,124.7391398914333 60.84654200053774,127.31121483366587 61.327396853710525,128.51930357076344 61.64796675555408,129.76635817292845 61.936479667550884,130.42885397205828 62.16087859903928,131.36413984600222 62.67379044217523,132.49427333052154 62.86613238346763,133.15676353493473 63.346987236640416,134.2089510668011 63.73167111899238,135.18319572575274 65.43069159984589,138.76839076838223 65.46274859004188,138.96323718497297 65.43069159984589,139.31396043873974 65.71920451172628,140.0543749462813 65.65509053133428,140.5999424448528 65.78331849211827,140.79478775666212 65.91154645301867,140.79478775666212 66.64885722775944,140.40509701531846 67.70673790434375,139.62571412249235 67.93113683594856,139.35292966573616 68.18759275751654,138.92426791097387 68.41199168888852,138.72942147095455 69.53398634609766,138.02797331335023 70.4956960522104,137.24858468509046 72.22677352325991,136.11846783399233 72.73968536662869,135.7287714512786 73.57316711195745,135.22216545094852 74.69516176916659,134.32586058106972 76.61858118139207,132.92294361794484 77.13149302464444,132.45530327621964 78.70228554471396,131.2082590550708 79.43959631945472,130.7406162309926 79.8883941823151,130.50679456509533 81.68358563364018,129.10386101494078 83.5428910657065,127.77886262268294 86.74859008612111,125.28473325728555 87.87058474321384,124.46634286278277 88.47966755717061,124.11560348753119 91.30068269523326,121.93321659509093 91.87770851887763,121.58247446920723 93.12793113687076,120.49127430847147 94.05758385290392,119.8677297042741 94.57049569603987,119.40007046121173 94.66666666662786,119.24418389622588 94.47432472545188,119.20521224333788 94.50638171564788,119.32212718809023 94.44226773525588,119.40007046121173 92.87147521530278,120.6861317504663 92.1982784208376,121.19276054928196 91.49302463640925,121.62144583536428 86.49213416443672,125.51855870336294 84.31225883052684,127.03841997738346 82.74146631045733,128.2465097346576 81.4912436924642,129.29871326123248 80.17690709419549,130.1560617487412 78.92668447608594,131.2082590550708 77.13149302464444,132.4163332171447 76.65063817147166,132.84500360806123 75.91332739673089,133.31264338560868 75.43247254379094,133.74131258684793 72.73968536662869,135.7287714512786 71.84208964090794,136.4302246015577" stroke="#4dd2ff" stroke-linecap="round" stroke-linejoin="round" stroke-width="0.5"><title>2022-06-17 3.0km</title></polyline><polyline fill="none" points="125.82647502730833,112.0 125.5847158327233,112.11021707097825 125.49405613483395,112.11021707097825 125.11630739329848,112.25717304143473 124.99542779597687,112.27554252780101 124.64789895375725,112.51434564848023 124.4967994572362,112.56945400773839 124.3305900109699,112.51434564848023 123.99817111843731,112.69804010180815 123.93773131980561,112.77151782103465 123.60531242721481,112.88173433343763 123.51465272932546,112.95521196401387 123.25778358511161,113.01032016371028 122.95558459183667,113.13890588536742 122.86492489388911,113.13890588536742 122.66849554830696,113.3225995850371 122.41162640409311,113.39607700290799 122.27563685714267,113.5062930631102 121.98854781355476,113.65324768598657 121.77700851834379,113.83694076504617 121.59568912239047,113.96552578851697 121.23305033060024,114.07574143649254 120.67398219311144,114.42475712861051 120.311343401263,114.59008007193916 120.23579365300247,114.59008007193916 120.0846941563068,114.66355687801843 119.96381455904339,114.75540283576993 119.88826481078286,114.86561791191343 119.88826481078286,114.99420206654759 119.97892450878862,115.17789352760883 120.0846941563068,115.54527578488342 120.16024390462553,115.63712121066055 120.34156330052065,116.05960945562401 120.43222299852641,116.2065616138425 120.50777274684515,116.50046550469415 120.55310259584803,116.5372034512111 120.58332249516388,116.70252410060493 120.77975184068782,116.97805811729631 120.84019163943594,117.21685386179888 120.991291135957,117.47401809078292 120.991291135957,117.51075580234465 121.08195083390456,117.65770655989763 121.12728068290744,117.84139480729937 121.20283043116797,117.9883452457143 121.24816028017085,118.19040186690108 121.30860007886076,118.24550817157433 121.48991947481409,118.57614558086789 121.27838017954491,118.66798917822598 121.12728068290744,118.68635789108521 120.80997174006188,118.77820142194105 120.4775528475293,118.98025699486607 119.82782501209294,119.23741824532044 119.04210762976436,119.65989649949188 118.84567828418221,119.71500227235083 118.4981494419626,119.89868803766149 117.92397135484498,120.08237358141923 117.71243205969222,120.22932185686659 117.63688231137348,120.39463849713502 117.5311126637389,120.44974400404317 117.5311126637389,120.59669192490401 117.56133256305475,120.70690277243557 117.62177236168645,120.72527123929467 117.71243205969222,120.81711354023719 117.75776190857869,121.05590326339006 117.8182017072686,121.14774536489858 117.96930120390607,121.55184995335003 118.1052907507983,121.77227018593112 118.15062059980119,121.97432178539748 118.28661014675163,122.26821454244782 118.28661014675163,122.34168764301285 118.3772698447574,122.47026548376016 118.30172009643866,122.59884321593563 118.22617034811992,122.59884321593563 117.8182017072686,122.74578906268289 117.71243205969222,122.83763014477154 117.63688231137348,122.85599835458561 117.56133256305475,122.98457576101646 117.57644251274178,123.11315305887547 117.63688231137348,123.18662575175404 117.63688231137348,123.37030732886342 117.78798180795275,123.64582927901938 117.78798180795275,123.6825655013381 117.74265195894986,123.75603791947651 117.34979326784378,123.92135073059762 117.06270422425587,123.99482303348486 116.71517538209446,124.23360777302878 116.4583062378224,124.32544795768626 116.38275648950366,124.38055204198463 116.24676694255322,124.58260018024885 116.30720674124314,124.74791209395335 116.36764653987484,124.82138399795804 116.44319628819358,125.13363919460971 116.6245156841469,125.51936531810497 116.6849554827204,125.68467621481977 116.98715447593713,126.25407904067833 117.04759427462704,126.36428579322819 117.07781417388469,126.36428579322819 117.15336392220343,126.47449246609176 117.24402362015098,126.67653782579873 117.39512311684666,126.78674427264195 117.47067286510719,126.93368607771117 117.51600271411007,126.97042150677589 117.60666241205763,127.0071569270076 117.6973221100634,127.08062774092832 117.75776190857869,127.09899543883512 118.02974100253778,127.33777531035594 118.19595044880407,127.39287830443936 118.45281959301792,127.66839297581464 118.70968873723177,127.83370153930446 118.86078823386924,127.99900992341281 118.99677778087789,128.05411267826275 119.08743747876724,128.1459505586099 119.10254742839606,128.23778838358703 119.3443066229811,128.38472878829634 119.61628571688198,128.66024166504212 120.00914440804627,128.82554915179207 120.2509036026313,128.9724889893696 120.17535385431256,129.303103105427 120.22068370325724,129.39494023250882 120.64376229373738,129.6888186669239 120.71931204211432,129.76228818691743 120.71931204211432,129.87249240046367 120.68909214274026,129.8541250370472 121.00640108564403,130.33167576490087 121.0970607836498,130.42351227163454 121.2179403809132,130.42351227163454 121.27838017954491,130.4786141490622 121.29349012917373,130.55208328799927 121.56546922307462,130.9377956857934 121.79211846797261,131.19493674152181 122.03387766255764,131.5622803535516 122.27563685714267,131.91125596426718 122.36629655503202,131.98472441197373 122.8044850951992,132.5908377530577 123.13690398773178,132.97654498678457 123.18223383673467,133.08674687409075 123.22756368567934,133.12348081881646 123.4239930313197,133.10511384758865 123.55998257827014,133.32551735636662 123.40888308163267,133.41735205761506 123.15201393741881,133.69285582886369 121.82233836728847,134.62956492291414 121.74678861902794,134.70303205918754 120.64376229373738,135.56626825522108 120.46244289784227,135.78666820192302 120.13002400530968,136.31930008959898 119.66161556582665,136.88866315080668 119.60117576719495,136.9988622071396 119.41985637129983,137.1825271237758 119.32919667335227,137.38455827622965 119.3443066229811,137.36619181888818 118.30172009643866,138.90896651300136 118.09018080122769,139.31302396925457 117.75776190857869,139.7538126988802 117.54622261336772,140.08440340882225 117.44045296579134,140.19460015269578 117.28935346915387,140.48845774646907 116.97204452630831,140.87414497783175 116.86627487867372,141.05780522091663 116.73028533172328,141.1496352593822 116.53385598619934,141.4251250426023 116.24676694255322,141.60878462118853 115.88412815076299,142.03120081151428 115.56681920785923,142.38015243284462 115.52148935885634,142.49034751558793 115.17396051669493,142.85766388221236 115.11352071812144,142.9494928354252 115.0984107683762,143.00459018080437 114.72066202689894,143.40863677105517 113.82917499693576,144.58403893889044 113.54208595334785,144.91461916417757 113.30032675882103,145.2451986719243 113.27010685950518,145.33702618563257 112.78658847039333,145.92472096229903 112.74125862139044,146.034913480471 112.72614867170341,146.09000970968918 112.60526907444,146.25529827762512 112.57504917512415,146.3654905565636 112.65059892344289,146.4940481146914 112.68081882270053,146.6409709053696 112.49949942680541,146.84298951101664 112.45416957780253,146.93481606144633 112.33328998053912,147.08173842687393 112.45416957780253,147.21029538036964 112.52971932617947,147.19193010796153 112.55993922543712,147.22866065055132 112.59015912481118,147.32048696845595 112.68081882270053,147.4490437204513 112.55993922543712,147.52250467288832 112.3786198294838,147.7796177273558 112.46927952748956,147.7428873175959 112.57504917512415,147.8347133253701 112.86213821865385,148.0 113.01323771529133,147.76125252355996 113.42120635608444,147.32048696845595 113.57230585272191,147.19193010796153 113.66296555061126,147.02664255643322 113.76873519830406,146.73279757748242 113.9047247452545,146.45731739488838 114.17670383909717,146.14510591892758 114.40335308399517,145.94308638756047 114.56956253026146,145.7227011386276 114.76599187590182,145.4104881567473 114.78110182553064,145.30029518676747 114.84154162416235,145.17173662109417 115.38549981196411,144.45547976861417 115.61214905686211,144.10653290223854 115.73302865418373,144.03307030219003 116.54896593582816,142.9311270492035 117.38001316710142,141.9026394863322 117.57644251274178,141.60878462118853 117.66710221063113,141.44349101044645 117.8182017072686,141.29656320578943 118.52836934133666,140.39662730932469 118.61902903928421,140.24969849469198 118.58880913996836,140.17623403426842 118.52836934133666,140.10276953836728 118.2715001970646,139.88237583804585 118.16573054948822,139.73544652730925 118.1052907507983,139.73544652730925 117.89375145558733,139.90074199189257 117.86353155627148,139.8456435236294 118.09018080122769,139.60688326408854 118.22617034811992,139.36812263025786 118.46792954270495,139.05589662111015 118.54347929096548,138.8906002395379 118.63413898897124,138.798768838853 118.73990863654763,138.5967395625339 118.9514479318168,138.32124466287496 118.98166783113265,138.19268020581512 119.0118877304485,138.19268020581512 119.04210762976436,138.1008483843325 119.04210762976436,138.1559474839014 119.05721757945139,138.0273828873178 119.17809717665659,137.91718457525712 119.58606581756612,137.32945889758412 119.57095586787909,137.2927259674616 119.631395666569,137.1090611837135 119.84293496177997,136.76009748435172 119.96381455904339,136.66826479905285 120.52288269647397,135.80503484976362 120.56821254547685,135.7132015884563 120.67398219311144,135.5846349295898 120.91574138769647,135.38260138925398 121.92810801492305,134.70303205918754 122.56272590067238,134.18876136108884 122.8044850951992,134.07856027130038 123.13690398773178,133.7663234170759 123.40888308163267,133.58265438012313 123.4844328298932,133.50918670340616 123.98306116875028,133.1785817193013 124.55723925580969,132.71940693950455 124.8443282993976,132.5357366399985 124.87454819871346,132.48063550688676 125.0709775442956,132.3704331809131 125.2976267891936,132.16839537621127 125.93224467494292,131.745951827339 125.99268447357463,131.6541161181667 126.4308730137418,131.3602414765919 126.56686256069224,131.23167114256648 126.89928145322483,130.9928973770875 128.34983662056038,129.8908597615955 128.60670576489065,129.725553431359 128.66714556346415,129.65208389364125 128.84846495941747,129.54187952059146 129.24132365063997,129.22963336390967 129.84572163701523,128.80718166209408 130.17814052954782,128.51330152618175 131.26605690509314,127.74186347062641 132.17265388474334,127.0071569270076 132.23309368331684,126.98878921798314 132.70150212279987,126.62143457244383 132.85260161943734,126.5295957725757 133.0641409147065,126.32755021793128 133.3361200086074,126.16224001919909 133.44188965618378,126.01529746969754 133.75919859908754,125.75814766678377 134.0160677433014,125.66630834624812 134.1369473405648,125.48262953895028 134.33337668614695,125.33568633360846 134.31826673651813,125.15200712744263" stroke="#4dd2ff" stroke-linecap="round" stroke-linejoin="round" stroke-width="0.5"><title>2022-06-14 5.2km</title></polyline><polyline fill="none" points="182.84305757289985,112.0 182.53208765591262,112.03149965341436 182.4491623447393,112.06299930054229 182.40769968909444,112.31499625064316 181.99307313305326,112.53549325185304 181.35040197125636,112.31499625064316 180.9565067430376,112.66149139982008 180.27237292553764,112.69299092126312 179.71262707491405,112.85048843335244 179.56750778033165,113.00798578820832 179.29800051887287,113.10248412571673 178.8833739628899,113.48047690943349 178.75898599612992,113.85846878768643 178.59313537366688,114.0474643872003 177.3907183611882,114.11046286999772 177.14194242755184,113.92146734599373 176.76877852715552,113.79547020418977 176.64439056033734,113.76397090306273 176.47853993799072,113.85846878768643 176.3956146267592,113.85846878768643 176.35415197117254,113.98446587918443 176.35415197117254,114.23645976022817 176.1883013487677,114.67744808371936 176.02245072630467,114.7719454212056 175.56636151473504,115.40192622486211 175.400510892272,115.4964231284248 174.7578397304169,115.4964231284248 174.30175051878905,115.4649241668667 173.84566130721942,115.11843517443049 173.59688537352486,114.80344452119607 173.16152748971945,114.55145154558704 172.7054382780916,114.39395573158981 172.39446836110437,114.39395573158981 171.60667790466687,114.29945816764666 171.10912603745237,114.14196210201771 170.94327541498933,114.20496054714022 170.52864885894815,114.0474643872003 170.05182831955608,113.98446587918443 169.7823210580973,113.88996806993964 169.53354512451915,113.88996806993964 169.2018438797095,113.70097228174563 168.66282935685012,113.66947296175931 168.51771006226772,113.76397090306273 168.45551607880043,113.76397090306273 168.45551607880043,113.63797363545746 168.16527748963563,113.54347561876057 167.91650155605748,113.60647430278186 167.72991960583022,113.7324715956347 167.54333765560295,113.79547020418977 167.0043231327436,113.41747817500436 166.34092064312426,113.22848182088637 165.864100103674,113.1339835589024 165.17996628623223,113.1339835589024 164.93119035265408,113.03948524026782 164.47510114102624,113.00798578820832 164.03974325722083,112.88198791685863 163.54219139000634,112.88198791685863 162.3812370331143,112.724490436216 161.96661047707312,112.91348739416571 161.51052126538707,113.25998122892634 161.44832728197798,113.44897754539852 161.36540197080467,113.98446587918443 161.2410140039865,114.3309573619481 161.13735736499075,114.89794178312877 161.1788200206356,114.866442702114 160.78492479235865,114.99243898862915 160.2459102695575,115.02393804457097 160.26664159732172,115.43342519906582 160.20444761397084,115.55942103271082 160.20444761397084,115.71691568332608 160.14225363056175,116.00040565828385 159.91420902468963,116.66188028553734 159.91420902468963,117.00836588833772 159.76908973010723,117.38634931427077 159.58250777993817,118.11081501642184 159.5410451242933,118.55179251079971 159.43738848535577,119.02426702973025 159.41665715747513,119.55973644086043 159.37519450194668,119.87471759841719 159.1886125516612,120.56767393165501 159.12641856825212,121.19763159344438 159.0434932570788,121.44961395404243 158.9605679459055,122.04807044719928 158.87764263461577,122.30005144949246 158.7532546678558,122.48903693708417 158.67032935662428,122.86700723302783 158.50447873421945,123.21347920897824 158.463016078691,123.55995042419818 158.0483895226498,125.29229508723074 157.98619553924073,125.638761737413 157.98619553924073,125.98522762674838 158.1105835060007,126.2686991521623 158.21424014505465,126.89863405180222 158.2557028006413,127.18210393610934 158.21424014505465,127.7175456614932 158.1935088172322,127.90652466015308 157.96546421136009,128.63094205803645 157.65449429437285,129.35535612989042 157.5508376553189,129.76480609063583 157.30206172179896,130.3317350513389 157.3227930495632,130.42622301346273 157.2605990661541,130.96165372968244 157.3227930495632,131.4025953081582 157.3227930495632,131.52857838998898 157.3435243773274,131.6230656353 157.36425570520805,132.18998791910417 157.1776737549808,132.5364394231874 157.15694242715836,132.72541265023756 157.21913641056744,133.00887206628977 157.21913641056744,133.16634929973225 157.3435243773274,133.60728471699986 157.4679123441456,134.14270463852154 157.4886436719098,134.39466632589756 157.57156898319954,134.6781227432366 157.53010632755468,134.83559831058665 157.59230031096376,135.1505489738047 157.59230031096376,136.18988170221564 157.63376296660863,136.5678191788902 157.77888226124924,136.97725042363163 157.82034491677769,137.63863711310842 157.86180757242255,137.7331206996314 157.88253890018677,138.04806557930715 157.903270227951,138.9928964466235 157.98619553924073,139.2763446035824 157.98619553924073,139.49680392915616 158.23497147281887,140.34714415683993 158.44228475081036,141.57540528452955 158.52521006198367,141.7958613979572 158.5459413898643,141.95332986181893 158.64959802880185,142.14229181104747 158.8983739624964,143.21307191555388 159.00203060143394,143.46501911937958 159.08495591260726,144.03189885734173 159.14714989607455,144.2208583173342 159.1886125516612,144.59877655857417 159.3130005185376,145.039680029382 159.33373184630182,145.22863828264235 159.5410451242933,145.92148327520408 159.62397043546662,146.6458179691981 159.748358402343,147.0237304027105 159.8934776969254,147.33865673921537 160.05932831927203,147.9055225609336 160.1837162860902,148.0 160.43249221978476,147.93701504703495 160.34956690855324,147.84253757026454 160.16298495832598,146.99223773455014 160.08005964715267,146.8662669987243 159.85201504133875,146.17342615462258 159.76908973010723,145.41759630960587 159.64470176334726,145.1656522233534 159.6032391077024,144.81922844798828 159.45811981312,144.50429708314186 159.3959258297109,144.1578718558012 159.33373184630182,143.9689123202843 159.33373184630182,143.87443246769544 159.23007520730607,143.49651249157614 159.08495591260726,143.18157848673582 158.91910529026063,142.6461892358784 158.8983739624964,142.33125353390642 158.83617997908732,142.11079816851998 158.71179201226914,141.89034249511315 158.58740404539276,141.57540528452955 158.6081353732734,141.3549488630233 158.56667271762853,141.13449213356944 158.6081353732734,141.0400105837616 158.56667271762853,140.6620838190138 158.6081353732734,140.4731200971437 158.6081353732734,140.09519197458576 158.62886670103762,139.78025118089863 158.5459413898643,139.43381558184046 158.5459413898643,139.30783881177194 158.58740404539276,139.24485038901912 159.3130005185376,138.96140217551147 159.70689574669814,138.96140217551147 159.72762707452057,138.92990789815667 160.0385969915078,138.86691932451504 160.97150674264412,138.8984136144427 161.0337007260532,138.8039307257568 160.99223807040835,138.77243641698442 161.0337007260532,138.5519760793104 161.01296939817257,138.3945042208943 160.95077541476348,138.14254892067402 160.86785010359017,137.98507665372745 160.76419346459443,137.10322905436624 160.78492479235865,136.5678191788902 160.80565612018108,136.37885055370862 160.76419346459443,135.93792288163968 160.86785010359017,134.5836373273196 160.84711877582595,134.11120939931425 160.93004408699926,132.44195272476645 160.90931275923504,132.28447476842848 160.90931275923504,131.05614131457696 160.82638744800352,130.61519876787497 160.78492479235865,130.36323104496114 160.72273080894956,129.41834850073792 160.743462136772,129.1033863951452 160.63980549777625,128.31597838072048 160.61907417001203,127.62305607723829 160.3910295641399,126.0797181918897 160.37029823637567,125.60726480062294 160.3081042529666,125.35528908016568 160.3081042529666,125.16630702580733 160.20444761397084,124.5363652096712 160.08005964715267,124.28438777892734 159.99713433597935,123.62294510877109 159.99713433597935,123.15048436094366 159.91420902468963,122.7725147439196 159.8105523857521,122.61502713625669 159.8312837135163,122.42604179962655 159.72762707452057,122.04807044719928 159.6032391077024,120.85115519077226 159.66543309111148,120.81965729828516 159.6032391077024,120.3786861426488 159.43738848535577,119.84321951099264 159.3959258297109,119.37074744443817 159.43738848535577,119.24475465438445 159.41665715747513,118.55179251079971 159.49958246864844,117.63833776200772 159.56177645205753,117.26035493961535 159.91420902468963,116.22089750884334 159.93494035257027,116.03190451298724 159.87274636916118,115.43342519906582 160.01786566374358,115.33892825769726 160.01786566374358,115.2759302653576 160.14225363056175,114.9609399264591 160.26664159732172,114.80344452119607 160.51541753095808,114.7719454212056 160.90931275923504,114.89794178312877 160.8885814313544,114.92944085792988 161.26174533180892,114.67744808371936 161.28247665963136,114.20496054714022 161.3861332986271,113.66947296175931 161.40686462644953,113.44897754539852 161.48978993762285,113.22848182088637 161.8836851658416,112.94498686509905 162.21538641070947,112.75598994489701 162.4434310165234,112.724490436216 164.20559387956746,112.94498686509905 164.59948910784442,113.03948524026782 166.52750259335153,113.19698240645812 166.90066649374785,113.29148063076718 167.31529304978903,113.48047690943349 167.68845695018535,113.35447941548773 168.04088952281745,113.35447941548773 168.4969787344453,113.48047690943349 168.7250233402592,113.41747817500436 169.32623184652766,113.48047690943349 169.53354512451915,113.48047690943349 169.65793309133733,113.48047690943349 169.86524636938702,113.63797363545746 170.32133558095666,113.60647430278186 171.2749766598572,113.66947296175931 171.8347225104808,113.82696949905949 172.10422977188136,113.98446587918443 172.72616960591404,114.0789636317204 173.0578708507819,114.23645976022817 173.36884076776914,114.45695407602761 173.49322873458732,114.67744808371936 173.6176167014055,114.74044631494326 173.7627359959879,114.89794178312877 174.03224325744668,115.11843517443049 174.28101919102482,115.24443125979451 174.77857105823932,115.2759302653576 174.8407650416484,115.40192622486211 175.60782417026348,115.43342519906582 175.81513744831318,115.4964231284248 175.8980627594865,115.59091997538053 176.20903267653193,115.87441017680976 176.72731587151065,116.1264010391169 176.91389782179613,116.2838951239246 177.43218101683306,116.44138905133877 177.7638822615845,116.69337900825485 177.78461358946515,116.66188028553734 178.01265819527907,116.69337900825485 178.28216545667965,116.40989027838805 178.36509076785296,116.44138905133877 178.5309413902578,116.15789986876189 178.51021006249357,115.77991349955846 178.40655342349783,115.55942103271082 178.42728475126205,115.43342519906582 178.51021006249357,115.37042724435742 178.90410529071232,115.40192622486211 179.1736125521711,115.33892825769726 179.69189574714983,115.08693613744981 180.21017894212855,115.11843517443049 180.2516415977734,115.05543709413905 180.811387448397,115.18143322966353 180.811387448397,114.9609399264591 181.20528267667396,114.67744808371936 181.2467453322024,114.48845323889691 181.26747666008305,113.82696949905949 181.18455134890974,113.98446587918443 181.08089470985578,114.0474643872003 181.08089470985578,113.98446587918443 180.9565067430376,114.0789636317204" stroke="#4dd2ff" stroke-linecap="round" stroke-linejoin="round" stroke-width="0.5"><title>2022-05-13 4.4km</title></polyline><polyline fill="none" points="40.9316983417375,152.0 36.858005626359954,152.73821610669256 39.36201857984997,164.37906291768013 37.605472179711796,165.45794654601195 34.578232638770714,163.12982412995188 33.382286153617315,164.09514549312007 34.578232638770714,185.38816591663635 31.96209970244672,186.69408595611458 24.898540773778223,188.0 23.814714271691628,182.83308762818342 23.926834254525602,173.691397345101 19.0683016582625,173.12358080374543 19.255168296513148,179.7669633852929 20.637981420150027,181.4703698228841 21.83392790541984,181.64070990571054 23.216741028940305,180.67544808815 23.665220960858278,174.7702456509287 21.086461352184415,173.63461574201938 19.442034934996627,175.0541524196451 19.404661607113667,180.22120609950798 20.712728075450286,181.52714986186766 21.946047888486646,181.64070990571054 22.99250106292311,181.52714986186766 23.403607667190954,180.44832718459656 23.51572765025776,174.65668286406435 21.684434594819322,173.5210525017319 19.404661607113667,174.65668286406435 19.255168296513148,180.05086516679148 20.376368126482703,181.30002963822335 22.99250106292311,181.41358977273921 23.590474305674434,177.43895808947855 23.36623433965724,174.37277569860453 22.282407837337814,173.63461574201938 20.11475483281538,174.08886824974616 19.66627490078099,180.95934896287508 21.086461352184415,181.75426990418055 23.141994373640046,181.30002963822335 23.47835432260763,176.92792998637015 23.36623433965724,180.67544808815" stroke="#4dd2ff" stroke-linecap="round" stroke-linejoin="round" stroke-width="0.5"><title>2022-05-04 3.1km</title></polyline><polyline fill="none" points="87.31823277031071,152.4472333611193 87.46540466812439,152.0 86.95030302577652,152.61494568730996 87.64936954039149,152.4472333611193 87.17106087249704,152.89446600803058 85.84651379229035,153.00627405795967 84.81631050759461,153.34169794039917 83.2710055806674,153.22989002424583 83.67572829965502,153.50940973102115 83.4549704529345,154.06844830718182 83.89648614625912,154.45977464638418 83.74931424856186,154.96290770765336 83.85969317192212,155.6337503825489 84.15403696754947,156.13688133428514 84.41158778872341,157.19904370766017 84.41158778872341,157.7580749171466 84.70593158423435,158.20529908133904 85.0002753798617,159.3233563665708 85.29461917548906,161.22404350568831 85.25782620103564,161.72716441229568 85.29461917548906,163.51603142550448 85.40499809884932,164.13095182196412 85.77292784338351,164.63406750539434 85.11065430322196,165.5843946631503 84.00686506961938,165.69619764617528 83.71252127410844,165.3048870104103 83.34459152957425,164.91357582779892 82.4615601428086,164.2986571501824 81.94645850046072,164.13095182196412 81.06342711357865,163.46012950435397 80.43794654787052,163.40422757212946 80.07001680333633,163.9073445613176 79.88605193118565,164.41046064642433 79.95963788009249,165.52849315485219 80.29077465005685,166.59061990304326 80.32756762451027,167.20553354734147 80.29077465005685,168.88256389561866 80.32756762451027,170.0005785478279 80.47473952244036,171.17448912828695 80.32756762451027,172.96329578766017 80.43794654787052,173.52229552525387 80.43794654787052,174.1371939474775 80.18039572669659,174.5843919520412 80.10680977790616,175.64648435031995 80.3643605990801,176.65267343287996 80.4011535734171,177.2116658052255 80.51153249677736,177.82655612600502 80.43794654787052,178.8886362269841 80.65870439459104,180.0066109287436 80.84266926697455,181.29227631776303 81.1370130624855,182.35434327388066 81.17380603693891,182.96922230192285 81.46814983256627,184.0871807122021 81.06342711357865,185.37282736632915 80.54832547123078,185.82000742766832 80.10680977790616,186.04359719039348 79.55491516110487,186.26718677475583 79.00302054430358,186.32308414288855 78.48791890207212,186.6025708164816 76.72185612830799,186.8261599545658 74.33031278906856,187.27333769485995 73.74162519781385,187.5528234201047 73.15293760655914,187.66461763190455 72.04914837295655,188.0 71.49725375627168,187.8882059219177 71.23970293509774,187.38513201841852 71.05573806283064,186.21128939544724 70.7981872416567,185.7082124792796 70.57742939493619,184.4784651013033 70.57742939493619,183.86358938731428 70.46705047169235,182.85742621553072 70.54063642048277,182.29844511342526 70.72460129286628,178.94453506814898 70.83498021622654,178.44144509654143 70.87177319056354,177.3234641458257 70.72460129286628,176.65267343287996 70.72460129286628,176.0936799444753 70.61422236950602,175.53468534018612 70.76139426720329,174.36079303904262 70.57742939493619,173.85769483214244 70.02553477825131,173.7458951076842 68.73778067249805,173.35459572107357 68.18588605558034,173.29869576396595 67.00851087307092,173.13099582618452 66.34623733302578,173.13099582618452 65.7943427163409,173.2427957958862 65.7943427163409,174.24899351569184 65.72075676731765,174.86389034215244 65.68396379298065,175.42288628555252 65.75754974177107,176.48497550364118 65.68396379298065,177.6029598020832 66.12547948630527,177.994253251818 66.05189353751484,179.22402910607343 65.94151461415458,179.8389150081057 66.41982328204904,180.84508902595553 67.33964764326811,181.4599713680509 68.4802298512077,181.68356461233634 69.51043313590344,181.18047956185183 69.8415699058678,180.7332920912304 70.02553477825131,180.23020533350063 70.09912072715815,177.04396821059345 70.28308559930883,175.4787858184718 70.28308559930883,174.91978998661216 70.02553477825131,174.4725925178791 69.51043313590344,174.08129414674477 68.99533149355557,173.85769483214244 67.78116333670914,173.7458951076842 67.19247574545443,173.96949451166438 66.71416707755998,174.24899351569184 66.34623733302578,174.69619134157256 66.12547948630527,175.14338845325983 66.05189353751484,176.26137810808723 66.12547948630527,176.82037126172509 66.08868651185185,177.88245517908945 66.01510056294501,179.00043389800703 66.12547948630527,180.23020533350063 66.41982328204904,180.7332920912304 66.89813194982708,181.23637794540264 67.41323359217495,181.57176801266905 68.59060877456795,181.68356461233634 69.6208120592637,181.51586969594064 69.87836288043763,181.06868276103341 70.06232775258832,180.45379955973476 70.17270667594858,179.8389150081057 70.17270667594858,178.60914185413276 70.24629262497183,178.05015227152035 70.209499650402,177.54706069290114 70.28308559930883,177.04396821059345 70.24629262497183,175.31108718598261 70.13591370161157,174.80799068648776 69.8415699058678,174.30489328296972 68.92174554464873,173.7458951076842 68.33305795339402,173.68999522886588 66.78775302646682,173.91359467746224 66.12547948630527,174.75209101955988 66.05189353751484,175.4787858184718 66.12547948630527,177.88245517908945 66.05189353751484,178.49734402682225 66.12547948630527,179.11223152457387 66.01510056294501,179.61532029088994 65.94151461415458,180.11840815344476 66.23585840966552,180.56559660591302 66.5669951797463,180.95688591590442 67.04530384764075,181.29227631776303 67.56040548998863,181.62766631809063 68.07550713222008,181.7394628955808 68.62740174913779,181.68356461233634 69.14250339136925,181.7394628955808 69.6208120592637,181.4599713680509 70.09912072715815,180.39790101983817 70.24629262497183,177.49116157292156 70.09912072715815,175.03158924239688 69.9887418037979,174.5284922404535 69.51043313590344,174.1371939474775 68.92174554464873,173.80179497537029 67.81795631104615,173.68999522886588 67.26606169436127,173.80179497537029 66.82454600092024,174.24899351569184 66.41982328204904,174.69619134157256 66.27265138423536,175.31108718598261 66.1622724608751,176.48497550364118 66.1990654352121,177.04396821059345 66.08868651185185,178.16195027723734 66.08868651185185,178.7768385114323 66.01510056294501,179.33582664334972 66.1622724608751,180.45379955973476 66.3830303074792,181.01278434402775 67.22926871979143,181.7394628955808 67.78116333670914,181.79536116750387 69.40005421254318,181.68356461233634 69.76798395707738,181.34817467913672 69.95194882922806,180.78919056418817 70.06232775258832,179.61532029088994 70.09912072715815,179.11223152457387 70.02553477825131,178.60914185413276 70.209499650402,178.10605127982853 70.13591370161157,176.9880689901329 70.17270667594858,177.54706069290114 70.28308559930883,178.05015227152035 70.31987857376225,179.67121898685582 70.24629262497183,180.17430674897332 70.02553477825131,180.67739360725682" stroke="#4dd2ff" stroke-linecap="round" stroke-linejoin="round" stroke-width="0.5"><title>2022-05-04 3.2km</title></polyline><polyline fill="none" points="133.98489943693858,152.4472333611193 134.13207133475225,152.0 133.61696969240438,152.61494568730996 134.31603620701935,152.4472333611193 133.8377275391249,152.89446600803058 132.5131804589182,153.00627405795967 131.48297717422247,153.34169794039917 129.93767224729527,153.22989002424583 130.34239496628288,153.50940973102115 130.12163711956237,154.06844830718182 130.56315281288698,154.45977464638418 130.41598091518972,154.96290770765336 130.52635983854998,155.6337503825489 130.82070363417733,156.13688133428514 131.07825445535127,157.19904370766017 131.07825445535127,157.7580749171466 131.3725982508622,158.20529908133904 131.66694204648957,159.3233563665708 131.96128584211692,161.22404350568831 131.9244928676635,161.72716441229568 131.96128584211692,163.51603142550448 132.07166476547718,164.13095182196412 132.43959451001137,164.63406750539434 131.77732096984982,165.5843946631503 130.67353173624724,165.69619764617528 130.3791879407363,165.3048870104103 130.0112581962021,164.91357582779892 129.12822680943646,164.2986571501824 128.61312516708858,164.13095182196412 127.73009378020652,163.46012950435397 127.10461321449839,163.40422757212946 126.73668346996419,163.9073445613176 126.55271859781351,164.41046064642433 126.62630454672035,165.52849315485219 126.95744131668471,166.59061990304326 126.99423429113813,167.20553354734147 126.95744131668471,168.88256389561866 126.99423429113813,170.0005785478279 127.14140618906822,171.17448912828695 126.99423429113813,172.96329578766017 127.10461321449839,173.52229552525387 127.10461321449839,174.1371939474775 126.84706239332445,174.5843919520412 126.77347644453403,175.64648435031995 127.03102726570796,176.65267343287996 127.06782024004497,177.2116658052255 127.17819916340522,177.82655612600502 127.10461321449839,178.8886362269841 127.3253710612189,180.0066109287436 127.50933593360242,181.29227631776303 127.80367972911336,182.35434327388066 127.84047270356677,182.96922230192285 128.13481649919413,184.0871807122021 127.73009378020652,185.37282736632915 127.21499213785864,185.82000742766832 126.77347644453403,186.04359719039348 126.22158182773273,186.26718677475583 125.66968721093144,186.32308414288855 125.15458556869999,186.6025708164816 123.38852279493585,186.8261599545658 120.99697945569642,187.27333769485995 120.40829186444171,187.5528234201047 119.819604273187,187.66461763190455 118.71581503958441,188.0 118.16392042289954,187.8882059219177 117.9063696017256,187.38513201841852 117.7224047294585,186.21128939544724 117.46485390828457,185.7082124792796 117.24409606156405,184.4784651013033 117.24409606156405,183.86358938731428 117.13371713832021,182.85742621553072 117.20730308711063,182.29844511342526 117.39126795949414,178.94453506814898 117.5016468828544,178.44144509654143 117.5384398571914,177.3234641458257 117.39126795949414,176.65267343287996 117.39126795949414,176.0936799444753 117.28088903613389,175.53468534018612 117.42806093383115,174.36079303904262 117.24409606156405,173.85769483214244 116.69220144487917,173.7458951076842 115.40444733912591,173.35459572107357 114.8525527222082,173.29869576396595 113.67517753969878,173.13099582618452 113.01290399965364,173.13099582618452 112.46100938296877,173.2427957958862 112.46100938296877,174.24899351569184 112.38742343394551,174.86389034215244 112.35063045960851,175.42288628555252 112.42421640839893,176.48497550364118 112.35063045960851,177.6029598020832 112.79214615293313,177.994253251818 112.7185602041427,179.22402910607343 112.60818128078245,179.8389150081057 113.0864899486769,180.84508902595553 114.00631430989597,181.4599713680509 115.14689651783556,181.68356461233634 116.1770998025313,181.18047956185183 116.50823657249566,180.7332920912304 116.69220144487917,180.23020533350063 116.76578739378601,177.04396821059345 116.9497522659367,175.4787858184718 116.9497522659367,174.91978998661216 116.69220144487917,174.4725925178791 116.1770998025313,174.08129414674477 115.66199816018343,173.85769483214244 114.447830003337,173.7458951076842 113.85914241208229,173.96949451166438 113.38083374418784,174.24899351569184 113.01290399965364,174.69619134157256 112.79214615293313,175.14338845325983 112.7185602041427,176.26137810808723 112.79214615293313,176.82037126172509 112.75535317847971,177.88245517908945 112.68176722957287,179.00043389800703 112.79214615293313,180.23020533350063 113.0864899486769,180.7332920912304 113.56479861645494,181.23637794540264 114.07990025880281,181.57176801266905 115.25727544119582,181.68356461233634 116.28747872589156,181.51586969594064 116.5450295470655,181.06868276103341 116.72899441921618,180.45379955973476 116.83937334257644,179.8389150081057 116.83937334257644,178.60914185413276 116.91295929159969,178.05015227152035 116.87616631702986,177.54706069290114 116.9497522659367,177.04396821059345 116.91295929159969,175.31108718598261 116.80258036823943,174.80799068648776 116.50823657249566,174.30489328296972 115.58841221127659,173.7458951076842 114.99972462002188,173.63409533871163 113.45441969309468,173.91359467746224 112.79214615293313,174.75209101955988 112.7185602041427,175.4787858184718 112.79214615293313,177.88245517908945 112.7185602041427,178.49734402682225 112.79214615293313,179.11223152457387 112.68176722957287,179.61532029088994 112.60818128078245,180.11840815344476 112.90252507629339,180.56559660591302 113.23366184637416,180.95688591590442 113.71197051426861,181.29227631776303 114.22707215661649,181.62766631809063 114.74217379884794,181.7394628955808 115.29406841576565,181.68356461233634 115.80917005799711,181.7394628955808 116.28747872589156,181.4599713680509 116.76578739378601,180.39790101983817 116.91295929159969,177.49116157292156 116.76578739378601,175.03158924239688 116.65540847042575,174.5284922404535 116.1770998025313,174.1371939474775 115.58841221127659,173.80179497537029 114.48462297767401,173.68999522886588 113.93272836098913,173.80179497537029 113.4912126675481,174.24899351569184 113.0864899486769,174.69619134157256 112.93931805086322,175.31108718598261 112.82893912750296,176.48497550364118 112.86573210183997,177.04396821059345 112.75535317847971,178.16195027723734 112.75535317847971,178.7768385114323 112.68176722957287,179.33582664334972 112.82893912750296,180.45379955973476 113.04969697410706,181.01278434402775 113.8959353864193,181.7394628955808 114.447830003337,181.79536116750387 116.06672087917104,181.68356461233634 116.43465062370524,181.34817467913672 116.61861549585592,180.78919056418817 116.72899441921618,179.61532029088994 116.76578739378601,179.11223152457387 116.69220144487917,178.60914185413276 116.87616631702986,178.10605127982853 116.80258036823943,176.9880689901329 116.83937334257644,177.54706069290114 116.9497522659367,178.05015227152035 116.98654524039011,179.67121898685582 116.91295929159969,180.17430674897332 116.69220144487917,180.67739360725682" stroke="#4dd2ff" stroke-linecap="round" stroke-linejoin="round" stroke-width="0.5"><title>2022-05-04 3.2km</title></polyline><polyline fill="none" points="175.79446971719153,188.0 172.36310776183382,179.54122000461211 172.81630651047453,153.37709756201366 164.3350156394299,152.0 164.2702729611192,162.62322437489638 166.66575206210837,166.8527777394629 171.0682541935239,165.1806330741383 171.65093829925172,155.63946377273533 169.38494455534965,152.88527744589373 165.17667045863345,154.6558275661082 165.37089849403128,165.37735627041548 167.70163491670974,166.7544164454739 171.391967585776,164.49210126852267 171.52145294239745,154.6558275661082 168.219576343894,152.88527744589373 165.24141313694417,154.9509186341893 164.91769974515773,164.49210126852267 166.79523741896264,166.45933244630578 169.57917259028181,166.55769379920093 171.52145294239745,164.49210126852267 171.52145294239745,154.75419127504574 167.37792152445763,153.08200555137591 164.98244242346846,155.93455425143475 165.17667045863345,165.1806330741383 170.2913420528639,166.7544164454739 171.90990901296027,164.9839097991935 172.03939436981454,155.1476459147234 170.03237133915536,152.98364150870475 167.2484361678362,152.88527744589373 164.59398635290563,156.13128113929997 165.24141313694417,165.08227144635748 169.5144299119711,167.04950026792358 171.974651691271,164.19701591451303 171.32722490723245,153.67218939610757 169.7734006254468,152.59018514072523 165.37089849403128,153.4754615262209 164.20553028280847,162.91831067137537 166.27729599154554,166.7544164454739 170.93876883690245,166.26260968195857 172.10413704812527,158.68872353379265 170.8740261583589,153.77055330143776 166.79523741896264,152.88527744589373 164.72347170999274,157.311640816828 164.59398635290563,164.5904630140867 166.5362667052541,166.55769379920093 170.22659937432036,166.26260968195857 171.65093829925172,163.90193038384314 171.52145294239745,155.34437311682268 165.37089849403128,154.55746383738006 164.4645009962842,158.9838121868088" stroke="#4dd2ff" stroke-linecap="round" stroke-linejoin="round" stroke-width="0.5"><title>2022-03-10 3.4km</title></polyline><polyline fill="none" points="33.28056652843952,220.3389358081331 31.328493883367628,215.72575328542734 31.436942363739945,193.6476658299216 28.617281876388006,192.1647668790538 24.170894185081124,192.0 24.225118425209075,201.47398868526216 26.0145183497807,204.3573333763925 29.105300037772395,204.02780928838183 30.189784840564243,202.70971030544024 30.62357876158785,194.30673031971673 27.315900113084354,192.57668378876406 24.658912346465513,194.38911330711562 24.550463866093196,202.54494763651746 28.129263715352863,204.3573333763925 30.406681801076047,202.21542210134794 30.406681801076047,193.89481513711507 27.315900113084354,192.74145043775206 24.658912346465513,194.55387923223316 24.550463866093196,202.1330406765337 26.882106192060746,204.3573333763925 30.298233320820145,202.38018490179093 30.515130281448364,194.80102799655288 29.105300037772395,192.90621702049975 25.960294109769166,193.07098353776382 24.875809306977317,194.14196429608273 24.550463866093196,201.8035148124618 27.315900113084354,204.43971435714047 30.189784840564243,202.9568541853514 30.406681801076047,194.80102799655288 29.701766679179855,193.31813319033245 27.207451632944867,192.65906712130527 24.658912346465513,194.71864509163424 24.930033546988852,203.0392354459036 28.346160675864667,204.43971435714047 30.786251481971703,202.38018490179093 29.701766679179855,192.9886002872663 26.285639550653286,192.65906712130527 24.658912346465513,194.80102799655288 24.71313658647705,202.54494763651746 26.610984991304576,204.1925713653036 29.15952427778393,204.2749523789389 30.460906041320413,202.0506592350721 30.027112120063975,193.73004894860787 25.472275948384777,193.15336677164305 23.899772984324954,198.17871294173528 23.6286517836852,195.21294227484032 23.899772984324954,192.0 31.382718123611994,192.41191707417602 31.7080635643797,210.12396232318133 32.90099684742745,218.93851085056667 36.3713482163148,226.7643541043799 35.829105814918876,228.0" stroke="#4dd2ff" stroke-linecap="round" stroke-linejoin="round" stroke-width="0.5"><title>2022-03-08 3.7km</title></polyline><polyline fill="none" points="85.98050426086411,194.6586212951952 85.61597049992997,194.1047439598915 86.96474541572388,194.54784591670614 86.74602515914012,193.16314995175344 87.98543994664215,192.8308218918537 87.03765216795728,192.0 86.30858464585617,194.21551951544825 86.8918386636069,192.22155274784018 86.85538528731558,193.4954776136874 83.39231455756817,193.7170291670045 83.13714092492592,194.99094716568652 84.08492870361079,197.20644279473345 84.6317293450702,205.29285169538343 83.10068754886743,205.34823724490707 79.74697694729548,203.07742064436025 79.49180331453681,203.63128006579063 79.78343032347038,215.4836066669668 80.94993835873902,224.51097366669273 78.68982904031873,226.0062760393921 71.5449673240073,228.0 70.08683227992151,224.4002102073282 70.37845928885508,213.87747991783544 65.42080013873056,213.15748904639622 65.53016026702244,219.19427773731877 66.84248180675786,221.18805065078777 68.40997697925195,221.29881539256894 69.57648501452059,220.3019311248354 69.68584514281247,214.81900362258602 68.59224385966081,213.65594446418982 67.42573582427576,213.60056057319161 65.89469402807299,215.09592175131547 66.04050753242336,220.57884378067683 67.75381620926782,221.29881539256894 69.57648501452059,220.4126962202281 69.61293839057907,215.15130534379568 68.55579048360232,213.8220960710314 66.07696090848185,214.4867015034106 66.00405415636487,219.52657421799086 67.35282907215878,221.1326682632498 69.72229851887096,220.08040080107457 69.68584514281247,215.4836066669668 68.7380573641276,213.7667122130515 66.25922778912354,214.0990151946753 65.8582406520145,219.85887030043523 67.20701556780841,221.35419774678303 69.5400316384621,220.19116598508845 69.68584514281247,214.87438727037807 69.28485800570343,213.932863753711 67.75381620926782,213.4897927577549 66.04050753242336,214.70823629377992 65.8582406520145,219.9696355728811 66.84248180675786,221.24343302728084 68.0454432182014,221.35419774678303 69.68584514281247,220.08040080107457 69.68584514281247,215.04053814745566 68.7380573641276,213.8220960710314 66.25922778912354,214.20978276677488 65.56661364308093,217.3112568295328 65.34789338649716,213.04672105418285 70.52427279320545,212.65903273319418 72.89374223980121,199.03421336913016 73.87798339466099,198.64650546570192 77.59622775728349,200.64042605397117 78.54401553585194,200.19733382832783 78.79918916872703,198.314183974333 83.68394156650174,198.70189234220015 84.99626310612075,197.53876561312063 87.47509268124122,198.203410055532 87.18346567230765,193.16314995175344 86.8918386636069,194.49245821089426 85.50661037152167,194.32629502678174" stroke="#4dd2ff" stroke-linecap="round" stroke-linejoin="round" stroke-width="0.5"><title>2021-12-30 4.7km</title></polyline><polyline fill="none" points="129.13516237586737,228.0 124.73798668035306,216.95905932574533 125.95942437346093,193.1134438473382 117.77579182945192,192.0 117.71471994486637,203.13431844569277 119.97437967709266,205.639503338316 122.72261448670179,205.54671895332285 124.5547710263636,203.41267298936145 124.86013044975698,194.69081806502072 122.0508237555623,192.5567222571699 118.75294198398478,193.67016477059224 117.77579182945192,202.94874865724705 120.34081098507158,205.4539345500525 122.35618317895569,205.639503338316 124.31048348778859,203.8765968584048 124.7990585649386,194.59803149459185 122.8447582561057,192.74229619442485 119.30258894595318,193.29901756261825 117.53150429087691,202.39203884726157 119.54687648452818,205.54671895332285 122.9669020252768,205.17558122857008 124.7990585649386,203.3198881598655 124.86013044975698,195.15475063992199 122.53939883271232,192.6495092350524 118.14222313743085,193.94852498240652 117.83686371403746,203.3198881598655 120.52402663906105,205.54671895332285 124.31048348778859,203.7838121217792 124.73798668035306,194.59803149459185 121.19581737020053,192.18557415957912 118.26436690683477,194.04131168249296 117.77579182945192,203.3198881598655 119.48580459970981,205.36115012824303 123.94405217980966,204.34052026472636 125.04334610374644,195.43310996243963 124.43262725719251,193.67016477059224 121.68439244735055,192.74229619442485 118.56972632999532,194.31967167175026 117.95900748344138,203.7838121217792 119.79116402310319,205.54671895332285 123.3944052180741,205.26836568766157 124.5547710263636,203.8765968584048 124.7990585649386,195.34032353994553 123.27226144867018,192.5567222571699 117.89793559885584,193.29901756261825 117.89793559885584,204.06216627650429" stroke="#4dd2ff" stroke-linecap="round" stroke-linejoin="round" stroke-width="0.5"><title>2021-12-27 3.1km</title></polyline><polyline fill="none" points="175.8412002052646,228.0 177.93521537352353,194.17678807483753 162.06478462647647,192.0 164.26901111914776,214.7722725853091 167.9059848319739,218.28852427884704 172.8654944403097,218.6234046233585 176.17183417920023,215.27459515765077 175.73098888085224,198.36290310963523 169.00809807842597,194.00934303860413 164.1587997940369,197.1907930058078 165.81196966394782,214.10250868613366 170.1102113246452,218.6234046233585 175.6207775559742,215.77691743004834 175.17993225739338,198.36290310963523 169.66936602583155,194.51167804608122 164.26901111914776,197.35823740652995 166.25281496229582,216.11179877776885 172.20422649243847,218.79084474634146 175.95141152990982,215.60947670636233 175.17993225739338,198.86523550981656 169.88978867512196,194.51167804608122 166.47323761181906,194.8465678843204 163.7179544956889,198.6977914099698 164.70985641749576,214.7722725853091 170.3306339737028,218.12108405597974 175.8412002052646,215.77691743004834 175.6207775559742,199.36756760952994 169.11830940283835,194.67912298231386 163.82816582056694,198.53034727630438 164.70985641749576,214.10250868613366 169.66936602583155,218.12108405597974 174.40845298510976,217.45132283127168 176.50246815313585,212.59553795936517 175.2901435822714,198.36290310963523 168.23661880544387,194.34423307713587 164.82006774214096,195.68379189417465 163.93837714521214,199.20012360997498 164.82006774214096,214.7722725853091 172.20422649243847,219.12572489015292 176.17183417920023,213.76762653660262 175.069720932981,197.52568177407375 170.99190192157403,194.34423307713587 166.03239231277257,194.67912298231386 162.83626389876008,200.53967467148323 164.26901111914776,215.60947670636233 171.32253589550965,218.45596446777927 176.28204550384544,213.93506762810284 176.50246815313585,198.19545890955487 168.78767542890273,193.50700773025164 163.7179544956889,196.5210150682251 163.7179544956889,213.93506762810284 168.67746410449035,218.28852427884704 175.73098888085224,214.10250868613366 175.510566231329,199.0326795760775 174.07781901117414,196.0186812641332 168.01619615661912,194.17678807483753 163.38732052175328,197.6931261079735" stroke="#4dd2ff" stroke-linecap="round" stroke-linejoin="round" stroke-width="0.5"><title>2021-12-07 3.6km</title></polyline><polyline fill="none" points="33.00146487890743,249.5683366661542 31.421746521489695,233.24804509343812 24.976495624054223,232.0 23.775909672258422,234.78409614652628 24.40779701527208,245.44031524352613 27.88317740149796,247.26432907878188 30.663481710245833,246.49632409680635 31.54812399018556,244.6723073486355 30.979425381636247,234.88009917459567 25.482005498139188,233.6320583166962 23.965475875185803,239.29621774112456 25.60838296683505,246.68832545704208 30.09478310146369,247.07232794817537 31.674501458881423,240.8322494761378 30.473915507318452,234.49608694779454 25.482005498139188,234.4000838433276 24.344608281040564,242.08027164812665 25.987515372689813,246.40032338764286 28.26230980711989,248.12833321781363 30.789859178708866,247.4563301326707 31.232180319027975,237.76018110016594 30.09478310146369,234.97610218339832 25.482005498139188,234.01607123340364 23.902287140954286,238.4321977342188 25.987515372689813,247.36032961515593 30.663481710245833,247.1683285231993 30.979425381636247,235.55211983332993 28.45187600981444,233.92006803286495 25.60838296683505,234.49608694779454 24.155042078113183,237.56817617529305 26.05070410692133,247.07232794817537 29.90521689853631,247.26432907878188 31.10580285033211,245.8243187314365 31.54812399018556,237.3761711732368 29.020574618596584,234.01607123340364 25.482005498139188,234.59209003314027 24.344608281040564,236.1281367932097 24.59736321819946,244.96031045319978 27.2512900584843,247.64833110995824 30.157971835695207,247.1683285231993 31.168991584563628,245.8243187314365 31.484935255954042,236.89615833378048 29.589273227378726,234.49608694779454 27.06172385555692,233.92006803286495 24.66055195266381,236.80015570792602 24.723740686895326,245.9203195552982 28.199121072655544,247.4563301326707 31.358557787258178,244.76830840250477 30.979425381636247,236.1281367932097 26.745780183933675,234.20807757650618 24.66055195266381,237.3761711732368 25.545194232603535,246.49632409680635 28.07274360442534,247.55233063103515 31.295369053259492,245.72831788813346 31.232180319027975,236.5121477166831 30.031594367232174,234.59209003314027 27.377667526947334,234.01607123340364 25.102873092517257,235.4561169394292 24.155042078113183,238.04818834396428 23.902287140954286,246.30432265962008 23.775909672258422,233.05603836703813 32.1168225989677,232.76802813322865 32.68552120751701,254.1763187260367 36.22409032774158,268.0" stroke="#4dd2ff" stroke-linecap="round" stroke-linejoin="round" stroke-width="0.5"><title>2021-12-06 4.4km</title></polyline><polyline fill="none" points="86.98305950965732,232.0 82.41278655116912,233.4158028368547 81.30349699826911,235.30353071846184 76.06765030813403,235.6406238725176 72.42918057425413,241.30373854676145 71.31989102123771,246.62967640036368 72.16295108140912,253.30383436131524 70.92054678220302,259.23630847854656 66.92710439127404,257.6857855305134 63.466120986035094,257.7531997198821 63.288634657510556,265.101265668578 64.70852528535761,267.52811471148743 67.01584755559452,267.86517569894204 69.05694033321925,266.2472798899689 69.19005507940892,259.9104466700519 67.50393495894969,258.0228563423734 66.08404433121905,257.82061389577575 64.22043788200244,259.3711362245376 63.909836807171814,266.1798673964222 65.81781483837403,268.0 67.90327919810079,267.7977635283896 69.0125687510008,266.1798673964222 69.05694033321925,260.38234260337777 66.88273280928843,258.0228563423734 64.13169471768197,259.43855007729144 63.643607314443216,265.7079795644968 66.08404433121905,267.9325878563686 68.65759609406814,266.5169297296088 69.05694033321925,260.11268786521396 67.72579286957625,258.2925127494382 65.77344325615559,257.7531997198821 64.17606630001683,259.23630847854656 63.8654652251862,265.91021728742635 66.52776015235577,268.0 68.61322451196611,266.7865793543169 68.83508242247626,259.5733777425485 66.1727874953067,257.8880280580488 64.22043788200244,259.43855007729144 64.17606630001683,265.37091642350424 65.15224110649433,267.2584656790714 66.61650331644341,267.66293914677226 68.61322451196611,266.584342156013 69.05694033321925,259.43855007729144 67.19333388411906,257.7531997198821 65.64032850996591,258.49475491340854 64.35355262842495,259.97786041506333 63.99857997149229,262.5395727583382 63.73235047876369,259.16889458545484 70.56557412527036,256.94422856069286 72.96163955971133,241.97791253897594 75.93453556182794,239.1463727269147 81.88032756582834,237.12382975281798 87.24928900238592,238.74186510121217 84.80885198561009,235.84287960352958 87.82611956994515,233.0787074615364 90.044698675978,233.01128834628616" stroke="#4dd2ff" stroke-linecap="round" stroke-linejoin="round" stroke-width="0.5"><title>2021-11-11 3.8km</title></polyline><polyline fill="none" points="135.88232491712552,233.6201853157254 136.92889699258376,232.39004620941705 136.17852456105174,232.0 134.4803132688976,232.060007174965 132.92032847716473,233.11012885962555 130.74819775455398,233.59018204265158 129.4054260351695,235.36036490194965 128.61556031781947,235.57038521335926 125.08091123291524,233.38015896374418 121.64499536261428,233.6201853157254 117.18225405976409,232.99011532419536 116.25416184193455,233.26014564406069 115.34581626707222,235.2103502140235 114.49671062099515,235.78040523128584 113.88456469005905,238.5706433299929 115.7012558398419,250.4210773458908 115.54328269639518,260.68069840855605 117.85363991954364,267.4600636991818 115.14834983774927,268.0 114.27949754870497,265.7502526167664 112.12711346900323,255.34098303303472 109.73776967416052,250.5410769617738 110.42890217679087,250.0010779355507 112.10736682609422,249.8510778616328 115.4445494817337,250.48107716582308 114.55595054978039,241.99086451975745" stroke="#4dd2ff" stroke-linecap="round" stroke-linejoin="round" stroke-width="0.5"><title>2021-11-07 3.5km</title></polyline><polyline fill="none" points="183.4542496163631,232.0 182.5386907213251,232.06710861729516 179.72502192185493,235.3218450233253 177.7375891985139,234.65077040923643 174.7676054657204,239.11336724078865 174.9015896943165,240.32126820950361 171.48499186639674,242.53573121393856 166.86253598163603,246.69616010712343 161.6148203635821,253.60761717348942 160.475954420981,256.5264498217002 157.01469518360682,261.4581575854827 156.6797346122912,262.76654603803763 157.05935659317765,264.4439525244379 158.5555138118798,266.490366213402 161.2798597922665,267.7316216316249 163.53526097274153,268.0 160.9672299256781,267.7987162631907 158.06423830718268,265.95360433030874 157.10401800263207,264.67878812286654 156.54575038369512,262.8671908900724 156.8360495455563,261.6259002528823 160.49828512582462,256.69419731447124 160.76625358284218,254.84896586717514 164.22751282021636,249.91706797228835 167.37614219100215,246.15933624605532 174.78993617056403,239.98574101629492 177.55894356034696,234.51655517113977 178.13954188406933,234.34878597571515 179.70269121712772,235.45605963082926 182.76199776888825,232.10066291609837 183.27560397831257,232.06710861729516 182.89598199748434,232.40265131002525" stroke="#4dd2ff" stroke-linecap="round" stroke-linejoin="round" stroke-width="0.5"><title>2016-05-06 3.5km</title></polyline></svg>