<?xml version="1.0" encoding="utf-8" ?>
<svg baseProfile="full" height="300mm" version="1.1" viewBox="0,0,200,300" width="200mm" xmlns="http://www.w3.org/2000/svg" xmlns:ev="http://www.w3.org/2001/xml-events" xmlns:xlink="http://www.w3.org/1999/xlink"><defs /><rect fill="#222222" height="300" width="200" x="0" y="0" /><text fill="#FFFFFF" style="font-size:12px; font-family:Arial; font-weight:bold;" x="10" y="20">Over 1km Workouts</text><text fill="#FFFFFF" style="font-size:4px; font-family:Arial" x="10" y="280">ATHLETE</text><text fill="#FFFFFF" style="font-size:9px; font-family:Arial" x="10" y="290">underwindfall</text><text fill="#FFFFFF" style="font-size:4px; font-family:Arial" x="120" y="280">STATISTICS</text><text fill="#FFFFFF" style="font-size:3px; font-family:Arial" x="120" y="285">Number: 20</text><text fill="#FFFFFF" style="font-size:3px; font-family:Arial" x="120" y="290">Weekly: 2.0</text><text fill="#FFFFFF" style="font-size:3px; font-family:Arial" x="141" y="285">Total: 62.6 km</text><text fill="#FFFFFF" style="font-size:3px; font-family:Arial" x="141" y="290">Avg: 3.1 km</text><text fill="#FFFFFF" style="font-size:3px; font-family:Arial" x="167" y="285">Min: 1.7 km</text><text fill="#FFFFFF" style="font-size:3px; font-family:Arial" x="167" y="290">Max: 4.7 km</text><polyline fill="none" points="52.75,36.498201304581016 52.40468940325081,36.27334184118081 51.763398294802755,36.19838865689235 51.1221071863547,36.42324816499604 50.678136418922804,36.72306063317228 48.55694275267888,37.24773187603569 48.31029232637957,37.697449500788935 48.26096224121284,37.99726095129154 48.55694275267888,38.446977678104304 48.852923264261335,41.29517110355664 49.09957369067706,41.894788018544205 49.09957369067706,42.119644114834955 48.951583434827626,42.26954810426105 49.19823386112694,42.41945203370415 49.34622411685996,42.64430781567353 48.063641900080256,42.794211595493834 48.35962241166271,43.91848803637549 48.01431181479711,44.143342920491705 44.26522533490788,43.4687778641819 42.83465286239516,43.4687778641819 42.686662606545724,43.094018975651124 42.686662606545724,44.81790676477249 42.83465286239516,45.41751805340755 42.686662606545724,46.16703081721789 41.798721071798354,46.46683550381567 41.848051157197915,46.46683550381567 41.35475030448288,47.141395172977354 40.762789281317964,47.21634617279051 40.51613885513507,47.516150021285284 38.29628501820844,46.16703081721789 35.68179049924947,45.267615321063204 35.33647990250029,45.19266393233556 34.54719853843562,45.49246939702425 34.49786845303606,46.16703081721789 34.25121802685317,46.99149312931695 33.807247259421274,49.614770257496275 33.856577344588004,50.514175339078065 33.7085870889714,51.713378762535285 33.41260657738894,52.38792900479166 33.36327649198938,53.13742785245995 33.116626065806486,53.512176715332316 33.01796589512378,54.78632005068357 32.62332521309145,56.58510327967815 32.57399512792472,57.18469577404903 32.721985383774154,58.38387789033004 32.52466504252516,60.557385712716496 32.62332521309145,61.681608958984725 32.42600487207528,62.43108925304841 32.32734470150899,63.25551584834466 31.735383678460494,64.22983585397014 30.946102314279415,64.37973101518583 28.479598051169887,63.555306888505584 26.555724725825712,63.48035915096989 24.33587088913191,63.18056805073866 23.941230206983164,63.40541139841662 23.84257003653329,63.555306888505584 24.089220462716185,65.42899546693661 24.089220462716185,66.25341547874268 23.990560292382725,66.77804545307299 23.694579780683853,67.30267469404498 22.313337393454276,67.9022500719002 21.770706455456093,68.05214376674849 16.09774665045552,68.72666465264047 15.801766138756648,68.57677122717723 13.680572472512722,68.80161134310765 13.088611449464224,68.57677122717723 12.397990255849436,67.37762166874018 12.397990255849436,66.40330983212334 12.496650426299311,65.87867933433154 12.447320341016166,65.20415333117126 12.545980511698872,64.9793110609462 12.348660170449875,64.60457364455215 12.25,64.15488825106877 12.545980511698872,62.35614129109308 12.693970767199062,62.05634929309599 12.644640682032332,61.90645320437034 12.792630937881768,61.681608958984725 12.792630937881768,61.231920064543374 12.595310596865602,60.70728233992122 12.545980511698872,60.107695471466286 12.644640682032332,58.90851886163 12.545980511698872,58.15903153523686 12.595310596865602,57.18469577404903 12.841961023048498,56.36025584745221 12.792630937881768,55.83561131506576 12.891291108448058,55.53581411013147 12.743300852598622,55.0861178538762 12.545980511698872,55.16106726723956 12.299330085283145,54.8612695238553 12.299330085283145,53.66207615553867 12.496650426299311,52.61277881619753 12.397990255849436,52.23802905587945 12.496650426299311,50.66407597629586 12.693970767199062,50.13942348351702 12.989951278897934,48.64041232096497 13.23660170531366,48.11575700005051 13.33526187564712,47.741002750670305 13.631242387345992,47.441199081687955 13.729902557912283,47.06644415852497 14.667174177709967,46.09207960800268 14.765834348392673,45.792274622333935 15.407125456724316,44.742955286521465 15.555115712573752,44.143342920491705 15.801766138756648,43.91848803637549 17.626979293418117,44.06839130743174 18.613580998731777,44.443149223166984 19.84683313034475,44.66800379299093 20.34013398294337,44.9678096769203 20.88276492082514,45.04276111035142 21.37606577342376,45.267615321063204 21.91869671130553,45.342566694598645 23.10261875751894,45.867225891153794 23.941230206983164,46.46683550381567 24.631851400830783,46.69168886152329 25.96376370289363,46.766639951005345 27.09835566394031,46.69168886152329 28.430267966003157,46.916542084596585 28.726248477352783,46.766639951005345 32.17935444577597,47.291297157353256 32.820645554107614,46.99149312931695 33.215286236372776,46.61673775711097 33.5112667477224,45.04276111035142 33.46193666255567,44.81790676477249 34.79384896461852,44.293246101762634 35.58313032891601,44.21829451870872 35.78045066993218,44.51810076154652 36.56973203411326,44.89285822832608 38.59226552979089,46.39188435469987 39.085566382389516,46.39188435469987 39.92417783185374,46.69168886152329 40.5654689403018,46.39188435469987 41.30542021908332,46.46683550381567 41.74939098651521,46.09207960800268 41.798721071798354,45.867225891153794 41.55207064549904,45.267615321063204 41.30542021908332,44.742955286521465 41.05876979290042,44.368197669886285 42.04537149821408,43.8435363782919 44.21589524962474,43.61868131466326" stroke="#4dd2ff" stroke-linecap="round" stroke-linejoin="round" stroke-width="0.5"><title>2022-05-14 2.0km</title></polyline><polyline fill="none" points="75.84115274599753,35.356565410023904 75.57110784424003,35.766864044446265 75.41679647180717,36.23577606747858 75.37821862869896,36.470231797982706 74.83812882495113,36.93914269756351 75.10817372694146,38.69755190088472 75.22390725614969,38.81477880649618 75.37821862869896,38.87339224189054 75.45537431479897,39.16645924297336 75.45537431479897,38.81477880649618 75.30106294236612,38.93200566559972 75.10817372694146,39.86981885197747 75.26248509937432,40.104271680582315 75.60968568723183,40.22149802467902 75.72541921667289,40.4559505724319 75.64826353045646,40.69040293294529 75.68684137356468,40.86624208041758 76.03404196165502,41.62821050269122 76.18835333408788,42.272951469232794 76.14977549097966,44.0899411210703 76.18835333408788,44.32439057949523 76.07261980464682,45.0277378319588 76.22693117707968,45.84830749676621 76.11119764775503,46.2585914691299 76.14977549097966,47.31360476545524 76.07261980464682,47.43082823102304 76.18835333408788,48.1927796164382 76.14977549097966,49.01334043539828 76.22693117707968,49.18917459833028 76.14977549097966,49.59945390210487 76.22693117707968,50.77167732518865 76.14977549097966,51.35778728160949 76.38124254951254,51.943896068129106 76.4969760789536,52.70583574130433 76.34266470652074,53.116110130926245 76.57413176517002,54.69859169173287 76.4969760789536,54.815812208806165 76.4969760789536,55.10886329668574 76.57413176517002,55.22608365000633 76.53555392217822,56.105234807837405 76.68986529461108,56.57411434892856 76.65128745150287,56.984383333139704 76.72844313760288,57.74630992572929 76.68986529461108,58.156577271962306 76.72844313760288,58.977110244566575 76.68986529461108,59.09432905334688 76.92133235326037,59.56320382116246 76.95991019636858,60.149296227667946 77.11422156880144,60.61816931051726 77.07564372569323,60.852605571155436 77.19137725501787,61.262868576915935 77.11422156880144,61.614522125571966 77.11422156880144,61.907566427849815 77.42284431366716,62.903914867318235 77.69288921554107,63.25556645037432 77.77004490164109,63.49000060521939 77.84720058797393,63.49000060521939 78.00151196040679,64.48634367481282 78.27155686216429,64.89660160323547 78.38729039148893,65.65850766361109 78.69591313635465,66.18597993180447 78.77306882268749,67.1237060687854 78.88880235201214,67.24092162535817 78.92738019512035,67.9442139819439 79.12026941077784,68.17864439314872 79.35173646931071,69.0577567681321 79.8146705867257,69.46800830893335 79.8146705867257,69.76104477304034 80.16187117481604,70.58154531611945 80.27760470414069,70.99179472788819 80.23902686091606,71.40204356642789 80.12329333159141,71.57786432169087 80.12329333159141,72.10532595595578 80.27760470414069,72.57417994643038 80.35476039035711,72.69139332709892 80.70196097833104,72.51557323877933 80.74053882143926,72.69139332709892 80.8562723507639,72.57417994643038 80.93342803709675,72.57417994643038 80.47049391968176,72.75 80.50907176278997,72.63278664257086 80.47049391968176,72.69139332709892 80.70196097833104,72.57417994643038 80.70196097833104,72.63278664257086 80.62480529211462,72.75 80.62480529211462,72.45696651896287 80.5476496060146,72.69139332709892 80.93342803709675,72.69139332709892 80.43191607657354,71.81229183173855 80.43191607657354,71.63647121665417 80.3161825472489,71.2848296709999 80.39333823334891,70.99179472788819 80.35476039035711,70.58154531611945 80.27760470414069,70.28850967095059 80.27760470414069,69.81965203065192 80.12329333159141,69.46800830893335 80.0461376454914,68.70611213393568 79.04311372444499,66.537627584039 78.85022450902034,65.59989957524522 78.77306882268749,64.89660160323547 78.50302392092999,64.19330194650684 78.46444607782178,63.95886835336569 78.38729039148893,63.84165148650936 77.96293411729857,62.3178279595013 77.61573352920823,61.49730432286742 77.38426647055894,61.08704164468509 77.11422156880144,59.79764092408004 76.99848803936038,59.68042239596252 77.15279941179324,59.09432905334688 77.11422156880144,58.449625025401474 76.95991019636858,57.98074847937096 76.84417666692752,57.21882249535702 76.84417666692752,55.636354518006556 76.88275451003574,55.22608365000633 76.80559882393572,54.99164289679902 76.84417666692752,54.58137112783152 76.80559882393572,54.34692985967558 76.88275451003574,53.81943632211187 76.7670209807111,53.64360493229469 76.7670209807111,53.174720710972906 76.84417666692752,52.76444640342379 76.72844313760288,52.29556077826419 76.80559882393572,52.06111768486153 76.72844313760288,51.76806355494773 76.80559882393572,51.65084182101418 76.57413176517002,50.420010789632215 76.61270960827824,50.009732632533996 76.4969760789536,49.5408426081558 76.57413176517002,49.42361998488195 76.53555392217822,48.77889472123934 76.4969760789536,48.6030603126128 76.45839823584538,48.07555645504908 76.22693117707968,47.25499301515811 76.26550902030431,46.2585914691299 76.38124254951254,46.02414355520159 76.38124254951254,45.26218654165859 76.34266470652074,44.79328893504862 76.14977549097966,44.50022755061218 76.26550902030431,43.91410390418605 76.22693117707968,43.034916240678285 76.18835333408788,42.91769101994578 76.34266470652074,42.56601507686719 76.26550902030431,42.03850037243683 76.30408686341252,41.86266192709445 76.26550902030431,41.62821050269122 75.95688627532218,41.15930709220993 75.68684137356468,40.28011117922142 75.33964078547433,39.81120561565331 75.14675157004967,39.693979107716586 75.22390725614969,39.63536583611858 75.41679647180717,38.87339224189054 75.14675157004967,38.34587090271816 75.06959588371683,37.935575872528716 75.10817372694146,37.642507642594865 74.95386235439219,37.349439120458555 74.87670666817576,36.470231797982706 74.76097313885111,35.82547808837262 74.56808392319363,35.356565410023904 74.49092823709361,34.653194988466566 74.49092823709361,33.891208463363 74.37519470776897,33.71536513812316 74.29803902143613,33.129219960581395 74.06657196290325,32.30861474589619 74.79955098195933,32.54307361273095 74.95386235439219,32.48445891366282 75.10817372694146,32.25" stroke="#4dd2ff" stroke-linecap="round" stroke-linejoin="round" stroke-width="0.5"><title>2022-05-14 1.7km</title></polyline><polyline fill="none" points="136.94843976944685,32.25 136.59859861287987,32.28543711009843 136.50530763779534,32.320874213124625 136.45866215019487,32.60437078199175 135.9922072746558,32.85242990833649 135.2692022175761,32.60437078199175 134.82607008580817,32.994177824803046 134.0564195411862,33.02961478642828 133.426705459191,33.20679948752513 133.26344625279307,33.38398401174345 132.96025058371015,33.490294641436776 132.4937957081711,33.91553652312723 132.3538592455443,34.340777386154514 132.16727729531704,34.55339743560762 130.81455815630034,34.624270728745614 130.53468523093034,34.41165076424659 130.11487584299175,34.26990397972986 129.97493938030675,34.234467265952844 129.7883574301377,34.340777386154514 129.69506645505317,34.340777386154514 129.6484209674527,34.482524114093394 129.6484209674527,34.766017230271245 129.46183901728364,35.26212909418973 129.27525706699817,35.36843859885994 128.76215670397505,36.077167002964416 128.5755747537478,36.18347601949063 127.85256969666807,36.18347601949063 127.33946933352854,36.14803968773049 126.82636897050543,35.75823957123794 126.54649604519363,35.403875086354674 126.05671842588345,35.12038298879634 125.54361806274392,34.943200198045815 125.19377690617694,34.943200198045815 124.3075126426993,34.836890438600676 123.74776679207571,34.6597073647863 123.56118484179024,34.73058061553456 123.09472996625118,34.55339743560762 122.55830685939873,34.482524114093394 122.2551111903158,34.376214078700286 121.97523826500401,34.376214078700286 121.60207436460769,34.16359381697839 120.99568302638363,34.128157081999234 120.8324238199275,34.234467265952844 120.7624555886141,34.234467265952844 120.7624555886141,34.09272033990419 120.43593717576005,33.986410071112914 120.15606425050646,34.05728359063505 119.94615955644986,34.199030545089045 119.73625486245146,34.26990397972986 119.1298635242274,33.84466294689628 118.38353572343476,33.63204204849899 117.84711261658231,33.525731503774296 117.07746207196033,33.525731503774296 116.79758914670674,33.419420895312214 116.28448878356721,33.38398401174345 115.79471116425702,33.2422364064696 115.23496531363344,33.2422364064696 113.928891662159,33.06505174074846 113.46243678661995,33.2776733184437 112.94933642348042,33.667478882562136 112.87936819216702,33.8800997385697 112.7860772170825,34.482524114093394 112.64614075439749,34.87232703220798 112.52952703554183,35.510184506027144 112.5761725231423,35.47474803988007 112.13304039137438,35.61649386222416 111.52664905315032,35.65193030015507 111.54997179692145,36.11260334895633 111.48000356566627,36.25434866180876 111.48000356566627,36.431530143745476 111.41003533429466,36.750456365567516 111.1534851526958,37.49461532123678 111.1534851526958,37.88441162438539 110.99022594629787,38.309642978565535 110.78032125235768,39.12466689347639 110.73367576475721,39.62076657464786 110.61706204590155,40.15230040844472 110.59373930207221,40.754703495971626 110.54709381458815,41.10905729823571 110.33718912058976,41.88863317311916 110.26722088921815,42.597335542639485 110.17392991413362,42.88081569829956 110.0806389390491,43.5540792531101 109.98734796384815,43.83755788068811 109.84741150127957,44.05016655422514 109.75412052613683,44.47538313717814 109.56753857590957,44.86516411011689 109.52089308842551,45.25494422722841 109.05443821288645,47.2038319731364 108.98446998157306,47.593606954600546 108.98446998157306,47.98338108009193 109.12440644414164,48.30228654619714 109.24102016305551,49.01096330827568 109.28766565065598,49.32986692813574 109.24102016305551,49.93223886919441 109.21769741934258,50.144840242675855 108.96114723774372,50.95980981529283 108.61130608111853,51.774775646146736 108.49469236220466,52.23540685197804 108.21481943695107,52.873201932772645 108.238142180664,52.97950089015649 108.1681739493506,53.58186044590548 108.238142180664,54.077919721690705 108.238142180664,54.21965068874124 108.26146492443513,54.32594883971615 108.28478766826447,54.963736409001285 108.07488297426607,55.35349435110402 108.05156023049494,55.56608923152089 108.12152846186655,55.88498107458872 108.12152846186655,56.06214296219696 108.26146492443513,56.55819530662848 108.40140138712013,57.16054271833855 108.42472413083306,57.44399961663294 108.518015106034,57.76288808614481 108.47136961843353,57.94004809940816 108.54133784980513,58.294367595546646 108.54133784980513,59.46361691500351 108.5879833373474,59.88879657625512 108.75124254380353,60.349406726585585 108.79788803128758,61.093466752252425 108.84453351888806,61.199760787101695 108.86785626265919,61.55407377672964 108.89117900637211,62.61700850246416 108.98446998157306,62.93588767903566 108.98446998157306,63.183904420307954 109.26434290682664,64.14053717645584 109.49757034459617,65.52233094509575 109.5908613196807,65.77034407270548 109.61418406351004,65.94749609455175 109.7307977823657,66.16007828744478 110.0106707077357,67.36470590499812 110.12728442653315,67.6481465093093 110.22057540161768,68.28588621452218 110.29054363298928,68.49846560701553 110.33718912058976,68.92362362840504 110.47712558327476,69.41964003305475 110.50044832698768,69.63221806797083 110.73367576475721,70.41166868461005 110.82696673984174,71.2265452153515 110.96690320252674,71.65169670306204 111.13016240898287,72.00598883163184 111.31674435915193,72.6437128810503 111.45668082183693,72.75 111.73655374714872,72.67914192791795 111.64326277206419,72.57285476654943 111.4333580780658,71.61626745137619 111.34006710298127,71.47455037357577 111.0835169214406,70.69510442395404 110.99022594629787,69.8447958483157 110.85028948367108,69.56135875129257 110.80364399612881,69.171632003985 110.64038478967268,68.81733421853278 110.57041655835928,68.42760583778727 110.50044832698768,68.21502636032528 110.50044832698768,68.10873652616283 110.38383460819023,67.6835765530268 110.22057540161768,67.32927579758689 110.03399345144862,66.72696289037412 110.0106707077357,66.37266022565018 109.9407024763641,66.12464793959225 109.8007660136791,65.87663530700956 109.6608295509941,65.52233094509575 109.68415229488164,65.27431747090304 109.63750680728117,65.0263036502729 109.68415229488164,64.92001190673909 109.63750680728117,64.4948442964087 109.68415229488164,64.28226010929211 109.68415229488164,63.85709097140352 109.70747503859457,63.502782578521874 109.61418406351004,63.11304252958507 109.61418406351004,62.97131866324344 109.6608295509941,62.90045668765379 110.47712558327476,62.581577447461314 110.92025771492627,62.581577447461314 110.9435804587556,62.54614638542989 111.2934216153808,62.47528424009215 112.34294508537278,62.51071531625348 112.41291331674438,62.40442206648004 112.36626782914391,62.36899096911657 112.41291331674438,62.120973089229665 112.38959057285683,61.94381724852428 112.31962234154344,61.66036753576191 112.22633136645891,61.483211235448834 112.10971764760325,60.49113268617657 112.13304039137438,59.88879657625512 112.1563631350873,59.67620687292947 112.10971764760325,59.180163241850096 112.22633136645891,57.656591993247275 112.20300862268778,57.12511057424126 112.2962995977723,55.247196815369534 112.27297685405938,55.07003411448386 112.27297685405938,53.68815897889726 112.17968587897485,53.192098613872076 112.13304039137438,52.90863492558128 112.06307216000278,51.84564206333016 112.08639490377391,51.49130969455291 111.96978118491825,50.60547567831236 111.94645844120532,49.82593808689853 111.68990825960645,48.08968296588864 111.66658551583532,47.558172900709906 111.59661728446372,47.274700215188204 111.59661728446372,47.062095404049614 111.48000356566627,46.35341086088738 111.34006710298127,46.06993625131145 111.24677612789674,45.325813247371116 111.24677612789674,44.79429490608163 111.1534851526958,44.36907908692956 111.03687143389834,44.19190552829241 111.06019417761127,43.97929702459078 110.9435804587556,43.5540792531101 110.80364399612881,42.20754958962789 110.87361222744221,42.17211446058354 110.80364399612881,41.67602191049082 110.61706204590155,41.0736219498649 110.57041655835928,40.542090874994756 110.61706204590155,40.40034898619342 110.59373930207221,39.62076657464786 110.68703027715674,38.59312998225505 110.75699850852834,38.16789930706727 111.1534851526958,36.99850969745603 111.17680789652513,36.785892577128834 111.10683966521174,36.11260334895633 111.27009887160966,36.00629428992397 111.27009887160966,35.935421548521845 111.41003533429466,35.581057417279226 111.54997179692145,35.403875086354674 111.82984472223325,35.36843859885994 112.27297685405938,35.510184506027144 112.24965411017183,35.5456209651893 112.66946349822683,35.26212909418973 112.69278624199796,34.73058061553456 112.80939996091183,34.128157081999234 112.83272270468296,33.8800997385697 112.9260136797675,33.63204204849899 113.36914581153542,33.31311022324371 113.74230971198995,33.100488688010955 113.9988598934724,33.06505174074846 115.98129311442608,33.31311022324371 116.42442524625221,33.419420895312214 118.59344041749137,33.5966052072763 119.01324980542995,33.70291570961126 119.47970468096901,33.91553652312723 119.89951406890759,33.77378934243461 120.29600071307505,33.77378934243461 120.80910107621457,33.91553652312723 121.06565125769703,33.84466294689628 121.74201082729269,33.91553652312723 121.97523826500401,33.91553652312723 122.11517472768901,33.91553652312723 122.34840216545854,34.09272033990419 122.86150252848165,34.05728359063505 123.93434874224477,34.128157081999234 124.56406282418175,34.3053406864492 124.86725849332288,34.482524114093394 125.56694080663146,34.58883408570546 125.94010470702779,34.766017230271245 126.28994586365297,35.01407333553652 126.42988232633797,35.26212909418973 126.56981878902297,35.33300210432208 126.7330779954209,35.510184506027144 127.03627366456203,35.75823957123794 127.31614658981562,35.89998516727064 127.8758924404392,35.935421548521845 127.9458606717526,36.077167002964416 128.80880219151732,36.11260334895633 129.04202962922864,36.18347601949063 129.13532060437137,36.28978497230855 129.48516176105477,36.608711448920076 130.06823035539128,36.89220116901561 130.27813504944788,37.069382014422445 130.8612036439008,37.24656268277613 131.23436754423892,37.5300513842958 131.25769028806826,37.49461532123678 131.51424046960892,37.5300513842958 131.81743613869185,37.21112656319747 131.91072711377637,37.24656268277613 132.09730906394543,36.927637352375314 132.0739863202325,36.502402687008725 131.95737260137685,36.25434866180876 131.98069534514798,36.11260334895633 132.0739863202325,36.041730649914825 132.51711845200043,36.077167002964416 132.82031412108336,36.00629428992397 133.40338271547807,35.72280315464013 133.98645130981458,35.75823957123794 134.03309679741506,35.68736673092644 134.66281087941024,35.82911238337692 134.66281087941024,35.581057417279226 135.10594301117817,35.26212909418973 135.15258849866223,35.04950989376812 135.17591124249157,34.3053406864492 135.08262026740704,34.482524114093394 134.96600654849317,34.55339743560762 134.96600654849317,34.482524114093394 134.82607008580817,34.58883408570546" stroke="#4dd2ff" stroke-linecap="round" stroke-linejoin="round" stroke-width="0.5"><title>2022-05-13 4.4km</title></polyline><polyline fill="none" points="179.79816063435283,32.25 175.21525632962584,33.08049312001094 178.03227090230212,46.17644578238833 176.056156202103,47.39018986426527 172.65051171858795,44.77105214621406 171.30507192271762,45.85703867973643 172.65051171858795,69.81168665620498 169.7073621650925,71.28084670062526 161.76085837045684,72.75 160.5415535555221,66.93722358168452 160.6676885362249,56.65282201321679 155.20183936553076,56.014028404228156 155.41206433356274,63.487833808438154 156.96772909758147,65.40416605075006 158.31316889356822,65.59579864391708 159.86883365758695,64.50987909917603 160.3733735808637,57.8665263572766 157.47226902109105,56.58894270975725 155.62228930171113,58.18592147208983 155.58024430798832,63.99885686195921 157.05181908491068,65.46804359459202 158.4393038743874,65.59579864391708 159.61656369583216,65.46804359459202 160.07905862561893,64.25436808267841 160.20519360643812,57.738768222072395 158.14498891902622,56.46118406445021 155.58024430798832,57.738768222072395 155.41206433356274,63.807223312644055 156.67341414222028,65.21253334300127 159.61656369583216,65.34028849433525 160.28928359376732,60.86882785067428 160.03701363201253,57.41937266092282 158.81770881684497,56.58894270975725 156.3790991868591,57.09997678096988 155.8745592633495,64.82926758323447 157.47226902109105,65.72355364219402 159.78474367025774,65.21253334300127 160.16314861283172,60.29392123466823 160.03701363201253,64.50987909917603" stroke="#4dd2ff" stroke-linecap="round" stroke-linejoin="round" stroke-width="0.5"><title>2022-05-04 3.1km</title></polyline><polyline fill="none" points="44.48301186657045,81.50313753125374 44.64858025149442,81.0 44.06909090396948,81.6918138982146 44.855540732853115,81.50313753125374 44.31744348153006,82.00627425900893 42.827328016166575,82.1320583151828 41.66834932100028,82.50941018294543 39.92988127807621,82.38362627726747 40.3851943371119,82.6980859473988 40.13684175955132,83.32700434557046 40.633546914556064,83.76724647718947 40.467978529515676,84.33327117111185 40.59215481823776,85.08796918037115 40.92329158843495,85.65399150105077 41.21303626219742,86.84892417112133 41.21303626219742,87.47783428177354 41.544173032278195,87.98096146649914 41.875309802242555,89.23877591238124 42.206446572439745,91.37704894389026 42.165054476005025,91.94305996381445 42.206446572439745,93.95553535368526 42.33062286116183,94.64732079970418 42.7445438237628,95.213325943565 41.99948609108105,96.28244399602409 40.75772320327815,96.40822235195083 40.42658643331379,95.96799788670614 40.01266547071282,95.5277728062647 39.01925516058691,94.83598929393338 38.43976581294555,94.64732079970418 37.44635550270323,93.89264569239458 36.74268986622337,93.82975601864746 36.32876890373882,94.39576263149502 36.12180842249654,94.96176822722191 36.204592615016736,96.21955479920143 36.5771214812994,97.41444739091094 36.61851357750129,98.10622524074279 36.5771214812994,99.99288438257645 36.61851357750129,101.25065086630639 36.78408196265809,102.57130026930827 36.61851357750129,104.58370776110678 36.74268986622337,105.2125824659015 36.74268986622337,105.9043431909231 36.4529451924609,106.40744094602996 36.370161000057124,107.60229489410995 36.659905673819594,108.73425761199906 36.70129777002148,109.36312403087504 36.82547405885998,110.05487564174109 36.74268986622337,111.24971575534437 36.99104244390037,112.50743729481474 37.19800292525906,113.9538108574634 37.52913969522342,115.14863618311938 37.57053179142531,115.84037508966867 37.9016685616225,117.09807830123464 37.44635550270323,118.54443078712211 36.86686615506187,119.04750835610321 36.370161000057124,119.29904683917994 35.74927955609746,119.55058512158575 35.12839811237063,119.6134696607478 34.548908764729276,119.92789216854726 32.562088144244626,120.1794299488829 29.871601887629367,120.68250490672654 29.209328347467817,120.99692634760868 28.547054807306267,121.1226948358817 27.30529191950336,121.5 26.68441047577653,121.37423166216468 26.394665801897645,120.80827352072811 26.187705320538953,119.48770056987996 25.897960646776482,118.92173903918592 25.6496080692159,117.5382732389553 25.6496080692159,116.8465380607231 25.525431780610234,115.71460449247388 25.608215973014012,115.08575075259432 25.815176454372704,111.31260195167852 25.939352743094787,110.74662573359092 25.980744839296676,109.4888971640321 25.815176454372704,108.73425761199906 25.815176454372704,108.10538993752562 25.691000165534206,107.47652100768755 25.856568550574593,106.1558921689284 25.6496080692159,105.58990668616025 25.028726625372656,105.46413199615199 23.580003256443888,105.02392018618411 22.959121812484227,104.96103273445624 21.634574732161127,104.77237030444667 20.8895169995958,104.77237030444667 20.268635555752553,104.89814527035924 20.268635555752553,106.03011770514422 20.18585136323236,106.72187663492514 20.14445926703047,107.35074707123567 20.22724345943425,108.54559744158178 20.14445926703047,109.80332977735088 20.641164422035217,110.24353490830981 20.55838022963144,111.62703274434898 20.43420394079294,112.31877938410616 20.972301192232408,113.45072515419452 22.007103598560207,114.1424677890609 23.290258582448587,114.39401018887293 24.449237277847715,113.82803950709058 24.821766144013964,113.32495360262692 25.028726625372656,112.75898100016639 25.111510818009265,109.17446423691581 25.318471299135126,107.41363404577714 25.318471299135126,106.78476373493322 25.028726625372656,106.28166658259579 24.449237277847715,105.84145591506967 23.86974793020636,105.58990668616025 22.50380875368137,105.46413199615199 21.84153521351982,105.71568132561515 21.303437962196767,106.03011770514422 20.8895169995958,106.53321525926003 20.641164422035217,107.0363120099064 20.55838022963144,108.2940503715945 20.641164422035217,108.92291766943526 20.599772325833328,110.11776207646471 20.51698813319672,111.37548813523608 20.641164422035217,112.75898100016639 20.972301192232408,113.32495360262692 21.51039844355546,113.89092518857797 22.0898877910804,114.26823901425814 23.414434871287085,114.39401018887293 24.573413566569798,114.20535340791685 24.863158240448684,113.70226810616441 25.070118721574545,113.0105245047016 25.194295010413043,112.31877938410616 25.194295010413043,110.93528458589572 25.277079202933237,110.30642130546039 25.235687106614932,109.74044327950105 25.318471299135126,109.17446423691581 25.277079202933237,107.22497308423044 25.152902914211154,106.65898952228599 24.821766144013964,106.09300494333729 23.786963737686165,105.46413199615199 23.124690197524615,105.4012446324632 21.38622215471696,105.65279401215957 20.641164422035217,106.59610239701578 20.55838022963144,107.41363404577714 20.641164422035217,110.11776207646471 20.55838022963144,110.80951203018776 20.641164422035217,111.50126046515652 20.51698813319672,112.06723532723845 20.43420394079294,112.63320917263627 20.7653407107573,113.1362961816485 21.13786957715638,113.57649665538338 21.675966828595847,113.9538108574634 22.255456176120788,114.33112460785196 22.834945523762144,114.45689575752476 23.45582696760539,114.39401018887293 24.035316315246746,114.45689575752476 24.573413566569798,114.1424677890609 25.111510818009265,112.94763864731067 25.277079202933237,109.67755676951492 25.111510818009265,106.91053789769649 24.987334529170766,106.34455377049744 24.449237277847715,105.9043431909231 23.786963737686165,105.52701934729703 22.54520084988326,105.4012446324632 21.924319406156428,105.52701934729703 21.42761425091885,106.03011770514422 20.972301192232408,106.53321525926003 20.80673280719202,107.22497308423044 20.682556518353522,108.54559744158178 20.72394861455541,109.17446423691581 20.599772325833328,110.43219406189746 20.599772325833328,111.12394332536496 20.51698813319672,111.75280497377389 20.682556518353522,113.0105245047016 20.930909095797688,113.63938238704577 21.88292730972171,114.45689575752476 22.50380875368137,114.51978131342912 24.325060989009216,114.39401018887293 24.738981951610185,114.0166965140088 24.945942432852462,113.38783938469714 25.070118721574545,112.06723532723845 25.111510818009265,111.50126046515652 25.028726625372656,110.93528458589572 25.235687106614932,110.36930768980528 25.152902914211154,109.1115776138904 25.194295010413043,109.74044327950105 25.318471299135126,110.30642130546039 25.35986339545343,112.1301213602128 25.277079202933237,112.69609509257134 25.028726625372656,113.26206780815846" stroke="#4dd2ff" stroke-linecap="round" stroke-linejoin="round" stroke-width="0.5"><title>2022-05-04 3.2km</title></polyline><polyline fill="none" points="89.48301186657045,81.50313753125374 89.64858025149442,81.0 89.06909090396948,81.6918138982146 89.85554073285311,81.50313753125374 89.31744348153006,82.00627425900893 87.82732801616658,82.1320583151828 86.66834932100028,82.50941018294543 84.92988127807621,82.38362627726747 85.3851943371119,82.6980859473988 85.13684175955132,83.32700434557046 85.63354691455606,83.76724647718947 85.46797852951568,84.33327117111185 85.59215481823776,85.08796918037115 85.92329158843495,85.65399150105077 86.21303626219742,86.84892417112133 86.21303626219742,87.47783428177354 86.5441730322782,87.98096146649914 86.87530980224255,89.23877591238124 87.20644657243975,91.37704894389026 87.16505447600503,91.94305996381445 87.20644657243975,93.95553535368526 87.33062286116183,94.64732079970418 87.7445438237628,95.213325943565 86.99948609108105,96.28244399602409 85.75772320327815,96.40822235195083 85.42658643331379,95.96799788670614 85.01266547071282,95.5277728062647 84.01925516058691,94.83598929393338 83.43976581294555,94.64732079970418 82.44635550270323,93.89264569239458 81.74268986622337,93.82975601864746 81.32876890373882,94.39576263149502 81.12180842249654,94.96176822722191 81.20459261501674,96.21955479920143 81.5771214812994,97.41444739091094 81.61851357750129,98.10622524074279 81.5771214812994,99.99288438257645 81.61851357750129,101.25065086630639 81.78408196265809,102.57130026930827 81.61851357750129,104.58370776110678 81.74268986622337,105.2125824659015 81.74268986622337,105.9043431909231 81.4529451924609,106.40744094602996 81.37016100005712,107.60229489410995 81.6599056738196,108.73425761199906 81.70129777002148,109.36312403087504 81.82547405885998,110.05487564174109 81.74268986622337,111.24971575534437 81.99104244390037,112.50743729481474 82.19800292525906,113.9538108574634 82.52913969522342,115.14863618311938 82.57053179142531,115.84037508966867 82.9016685616225,117.09807830123464 82.44635550270323,118.54443078712211 81.86686615506187,119.04750835610321 81.37016100005712,119.29904683917994 80.74927955609746,119.55058512158575 80.12839811237063,119.6134696607478 79.54890876472928,119.92789216854726 77.56208814424463,120.1794299488829 74.87160188762937,120.68250490672654 74.20932834746782,120.99692634760868 73.54705480730627,121.1226948358817 72.30529191950336,121.5 71.68441047577653,121.37423166216468 71.39466580189764,120.80827352072811 71.18770532053895,119.48770056987996 70.89796064677648,118.92173903918592 70.6496080692159,117.5382732389553 70.6496080692159,116.8465380607231 70.52543178061023,115.71460449247388 70.60821597301401,115.08575075259432 70.8151764543727,111.31260195167852 70.93935274309479,110.74662573359092 70.98074483929668,109.4888971640321 70.8151764543727,108.73425761199906 70.8151764543727,108.10538993752562 70.6910001655342,107.47652100768755 70.8565685505746,106.1558921689284 70.6496080692159,105.58990668616025 70.02872662537266,105.46413199615199 68.58000325644389,105.02392018618411 67.95912181248423,104.96103273445624 66.63457473216113,104.77237030444667 65.8895169995958,104.77237030444667 65.26863555575255,104.89814527035924 65.26863555575255,106.03011770514422 65.18585136323236,106.72187663492514 65.14445926703047,107.35074707123567 65.22724345943425,108.54559744158178 65.14445926703047,109.80332977735088 65.64116442203522,110.24353490830981 65.55838022963144,111.62703274434898 65.43420394079294,112.31877938410616 65.97230119223241,113.45072515419452 67.0071035985602,114.1424677890609 68.29025858244859,114.39401018887293 69.44923727784771,113.82803950709058 69.82176614401396,113.32495360262692 70.02872662537266,112.75898100016639 70.11151081800926,109.17446423691581 70.31847129913513,107.41363404577714 70.31847129913513,106.78476373493322 70.02872662537266,106.28166658259579 69.44923727784771,105.84145591506967 68.86974793020636,105.58990668616025 67.50380875368137,105.46413199615199 66.84153521351982,105.71568132561515 66.30343796219677,106.03011770514422 65.8895169995958,106.53321525926003 65.64116442203522,107.0363120099064 65.55838022963144,108.2940503715945 65.64116442203522,108.92291766943526 65.59977232583333,110.11776207646471 65.51698813319672,111.37548813523608 65.64116442203522,112.75898100016639 65.97230119223241,113.32495360262692 66.51039844355546,113.89092518857797 67.0898877910804,114.26823901425814 68.41443487128709,114.39401018887293 69.5734135665698,114.20535340791685 69.86315824044868,113.70226810616441 70.07011872157454,113.0105245047016 70.19429501041304,112.31877938410616 70.19429501041304,110.93528458589572 70.27707920293324,110.30642130546039 70.23568710661493,109.74044327950105 70.31847129913513,109.17446423691581 70.27707920293324,107.22497308423044 70.15290291421115,106.65898952228599 69.82176614401396,106.09300494333729 68.78696373768616,105.46413199615199 68.12469019752461,105.33835725605604 66.38622215471696,105.65279401215957 65.64116442203522,106.59610239701578 65.55838022963144,107.41363404577714 65.64116442203522,110.11776207646471 65.55838022963144,110.80951203018776 65.64116442203522,111.50126046515652 65.51698813319672,112.06723532723845 65.43420394079294,112.63320917263627 65.7653407107573,113.1362961816485 66.13786957715638,113.57649665538338 66.67596682859585,113.9538108574634 67.25545617612079,114.33112460785196 67.83494552376214,114.45689575752476 68.45582696760539,114.39401018887293 69.03531631524675,114.45689575752476 69.5734135665698,114.1424677890609 70.11151081800926,112.94763864731067 70.27707920293324,109.67755676951492 70.11151081800926,106.91053789769649 69.98733452917077,106.34455377049744 69.44923727784771,105.9043431909231 68.78696373768616,105.52701934729703 67.54520084988326,105.4012446324632 66.92431940615643,105.52701934729703 66.42761425091885,106.03011770514422 65.97230119223241,106.53321525926003 65.80673280719202,107.22497308423044 65.68255651835352,108.54559744158178 65.72394861455541,109.17446423691581 65.59977232583333,110.43219406189746 65.59977232583333,111.12394332536496 65.51698813319672,111.75280497377389 65.68255651835352,113.0105245047016 65.93090909579769,113.63938238704577 66.88292730972171,114.45689575752476 67.50380875368137,114.51978131342912 69.32506098900922,114.39401018887293 69.73898195161019,114.0166965140088 69.94594243285246,113.38783938469714 70.07011872157454,112.06723532723845 70.11151081800926,111.50126046515652 70.02872662537266,110.93528458589572 70.23568710661493,110.36930768980528 70.15290291421115,109.1115776138904 70.19429501041304,109.74044327950105 70.31847129913513,110.30642130546039 70.35986339545343,112.1301213602128 70.27707920293324,112.69609509257134 70.02872662537266,113.26206780815846" stroke="#4dd2ff" stroke-linecap="round" stroke-linejoin="round" stroke-width="0.5"><title>2022-05-04 3.2km</title></polyline><polyline fill="none" points="129.01877843192779,121.5 125.15849623200484,111.9838725051959 125.66834482434206,82.5492347572872 116.12689259438775,81.0 116.05405708122998,92.95112742178026 118.74897106993012,97.70937495690305 123.70178596768528,95.8282122084347 124.3573055868037,85.09439674435998 121.80806262465194,81.99593712665956 117.07375426613726,83.98780601189355 117.29226080561057,96.0495258042356 119.91433928115293,97.59871850119089 124.0659635339398,95.05361392709892 124.21163456025533,83.98780601189355 120.49702338664792,81.99593712665956 117.1465897790622,84.31978346349206 116.78241221327335,95.05361392709892 118.89464209624566,97.26674900212674 122.02656916389242,97.37740552413743 124.21163456025533,95.05361392709892 124.21163456025533,84.09846518444829 119.55016171513125,82.21725624531973 116.85524772643112,85.42637353288592 117.07375426613726,95.8282122084347 122.82775980955921,97.59871850119089 124.64864763943478,95.60689852409996 124.79431866598316,84.54110165408929 122.53641775646247,82.10659669729648 119.40449068881571,81.99593712665956 116.41823464701883,85.64769128174521 117.1465897790622,95.71755537719582 121.95373365096748,97.93068780144677 124.72148315259255,94.72164290383807 123.9931280205492,82.88121307062102 122.24507570359856,81.66395828334498 117.29226080561057,82.65989421700942 115.98122156807221,93.28309950532275 118.31195799051784,97.59871850119089 123.55611494160257,97.0454358922434 124.86715417914093,88.52481397552765 123.48327942821197,82.99187246413203 118.89464209624566,81.99593712665956 116.5639056735672,86.9755959189497 116.41823464701883,95.16427089087665 118.60330004338175,97.37740552413743 122.75492429616861,97.0454358922434 124.3573055868037,94.38967168185627 124.21163456025533,84.7624197564437 117.29226080561057,83.87714681707439 116.27256362093613,88.85678871019627" stroke="#4dd2ff" stroke-linecap="round" stroke-linejoin="round" stroke-width="0.5"><title>2022-03-10 3.4km</title></polyline><polyline fill="none" points="171.19063734426163,112.88130278413882 168.99455561861396,107.6914724460803 169.11656015901826,82.85362405865453 165.94444211083464,81.1853627389064 160.94225595821626,81.0 161.003258228302,91.65823727089446 163.01633314345963,94.90200004840153 166.49346254230477,94.53128544939682 167.7135079454165,93.04842409357661 168.20152610656805,83.59507160965586 164.48038762714714,81.6487692623341 161.4912763896864,83.68775247049052 161.3692718492821,92.86306609108578 165.39542167959735,94.90200004840153 167.95751702599227,92.4923498640128 167.95751702599227,83.13166702922899 164.48038762714714,81.83413174244924 161.4912763896864,83.87311413625139 161.3692718492821,92.3996707610786 163.99236946599558,94.90200004840153 167.8355124858208,92.6777080144966 168.07952156639658,84.15115649611107 166.49346254230477,82.01949414805858 162.9553308733739,82.20485647997702 161.73528547026217,83.40970983309671 161.3692718492821,92.02895416400861 164.48038762714714,94.99467865176848 167.7135079454165,93.32646095851669 167.95751702599227,84.15115649611107 167.16448751394637,82.48289983911673 164.35838308697566,81.74145051144296 161.4912763896864,84.05847572805942 161.7962877403479,93.41913987661246 165.63943076017313,94.99467865176848 168.3845329170581,92.6777080144966 167.16448751394637,82.1121753231564 163.32134449435398,81.74145051144296 161.4912763896864,84.15115649611107 161.55227865977213,92.86306609108578 163.68735811510123,94.7166427859338 166.5544648123905,94.80932142629172 168.01851929631084,92.30699163943063 167.53050113492645,82.94630506719113 162.40631044190377,82.29753761808388 160.63724460732192,87.95105205941945 160.3322332566604,84.61456005915534 160.63724460732192,81.0 169.05555788893253,81.46340670844074 169.42157150967978,101.389457613579 170.7636214531958,111.30582470688387 174.6677667433396,120.10989836740191 174.05774404178374,121.5" stroke="#4dd2ff" stroke-linecap="round" stroke-linejoin="round" stroke-width="0.5"><title>2022-03-08 3.7km</title></polyline><polyline fill="none" points="30.167511608218774,129.75 29.134552463307045,130.76257883454673 28.967946149525233,134.10406030107697 32.3333936863346,147.97580042372283 31.900217270711437,153.5951580196852 32.43335747451056,159.41688366282324 34.89913091738708,169.1869576586323 36.03205385047477,170.25 34.33266945078503,163.46670094071305 32.5,159.3156374021055 32.10014484717976,147.01391592151776 32.59996378829237,144.02698815900658 32.10014484717976,142.50819783780025 30.733973074820824,141.7994259083498 29.26783751428593,135.97729580175655 29.867620243690908,134.91410978320346" stroke="#4dd2ff" stroke-linecap="round" stroke-linejoin="round" stroke-width="0.5"><title>2022-01-09 1.7km</title></polyline><polyline fill="none" points="87.97806729364675,132.74094895710004 87.56796681252308,132.11783695485792 89.08533859276213,132.61632665627985 88.83927830425091,131.05854369571898 90.23361994011793,130.68467462834087 89.16735868912656,129.75 88.34715772676282,132.24245945486473 89.00331849663053,129.99924684129655 88.9623084483901,131.43241231539287 85.06635387742426,131.68165781287826 84.77928354067262,133.11481556139188 85.845544791664,135.60724814407877 86.4606955134077,144.7044581572991 84.73827349254861,144.7667669005168 80.96534906583838,142.21209822490346 80.67827872897033,142.83519007399445 81.0063591140788,156.16905750031583 82.31868065369781,166.3248453750275 79.77605767047498,168.00706054430339 71.73808823968284,170.25 70.09768631507177,166.20023648324423 70.42576670006383,154.36216490756487 64.84840015613008,153.55217517720303 64.9714303005021,160.34356245447998 66.44779203273356,162.5865569821326 68.21122410183307,162.71116731662187 69.52354564145207,161.58967251543072 69.6465757858241,155.42137907541473 68.41627434233669,154.11293752220809 67.10395280248486,154.05063064483693 65.38153078174219,155.73291197020444 65.5455709741218,161.9011992532469 67.47304323560093,162.71116731662187 69.52354564145207,161.71428324774024 69.56455568945967,155.7952185117756 68.37526429421268,154.29985807990306 65.58658102224581,155.04753919132054 65.50456092611421,160.7173959952197 67.02193270635325,162.52425179613056 69.68758583383169,161.3404509011889 69.6465757858241,156.16905750031583 68.58031453471631,154.2375512396684 65.79163126286585,154.61139209399698 65.34052073361818,161.09122908796417 66.85789251397364,162.77347246510908 69.48253559332807,161.46506173320813 69.6465757858241,155.48368567915168 69.19546525657643,154.42447172291577 67.47304323560093,153.92601685246336 65.5455709741218,155.29676583048422 65.34052073361818,161.2158400194894 66.44779203273356,162.64886215567822 67.80112362059299,162.77347246510908 69.6465757858241,161.3404509011889 69.6465757858241,155.6706054158858 68.58031453471631,154.29985807990306 65.79163126286585,154.73600561261992 65.01244034862611,158.22516393320984 64.76638005988207,153.427561185963 70.58980689244345,152.99141182482708 73.25546001992188,137.66349004025687 74.36273131903727,137.2273186489183 78.54575622698758,139.47047931072302 79.61201747797895,138.97200055685244 79.89908781484701,136.85345697111916 85.39443426241633,137.2896288849588 86.87079599453136,135.9811113147589 89.65947926649824,136.7288363124535 89.33139888150617,131.05854369571898 89.00331849663053,132.55401548725786 87.44493666815106,132.3670819051331" stroke="#4dd2ff" stroke-linecap="round" stroke-linejoin="round" stroke-width="0.5"><title>2021-12-30 4.7km</title></polyline><polyline fill="none" points="129.0270576728508,170.25 124.08023501560092,157.8289417414635 125.45435242028907,131.0026243282482 116.24776580813341,129.75 116.17905993806198,142.27610825138981 118.72117713675834,145.09444125561276 121.81294129765593,144.99005882247002 123.87411740468815,142.58925711302436 124.21764675620943,132.7771703231556 121.0571767250076,130.37631253930158 117.34705973207019,131.62893536692718 116.24776580813341,142.06734223940293 119.13341235835105,144.88567636880907 121.40070607629605,145.09444125561276 123.59929392393678,143.11117146571632 124.14894088567235,132.67278543140856 121.95035303803161,130.58508321875706 117.96541256434284,131.2113947579346 115.97294232714921,141.44104370317655 118.2402360450942,144.99005882247002 122.08776477840729,144.5725288821268 124.14894088567235,142.4848741798487 124.21764675620943,133.29909446992679 121.60682368674316,130.48069788943394 116.66000102972612,131.94209060521098 116.31647167820483,142.4848741798487 119.33952996903099,144.99005882247002 123.59929392393678,143.00678863702342 124.08023501560092,132.67278543140856 120.09529454167932,129.9587709295447 116.79741277033463,132.0464756428264 116.24776580813341,142.4848741798487 118.17153017478995,144.78129389428068 123.18705870234407,143.63308529782807 124.42376436688937,133.6122487077664 123.7367056645453,131.62893536692718 120.64494150341488,130.58508321875706 117.14094212139025,132.35963063072995 116.45388341881335,143.00678863702342 118.5150595260784,144.99005882247002 122.56870587030426,144.6769113986229 123.87411740468815,143.11117146571632 124.14894088567235,133.50786398243508 122.43129412969574,130.37631253930158 116.38517754874192,131.2113947579346 116.38517754874192,143.31993706105277" stroke="#4dd2ff" stroke-linecap="round" stroke-linejoin="round" stroke-width="0.5"><title>2021-12-27 3.1km</title></polyline><polyline fill="none" points="174.07135023130104,170.25 176.42711729556322,132.1988865841995 158.57288270490244,129.75 161.052637509536,155.3688066584873 165.14423293620348,159.3245898137102 170.72368124546483,159.70133020123467 174.4433134519495,155.9339195523644 173.94736249139532,136.90826599829597 166.38411033852026,132.01051091839327 160.92864976869896,135.5896421315265 162.78846587240696,154.61532227188582 167.62398774037138,159.70133020123467 173.8233747505583,156.49903210881166 173.3274237900041,136.90826599829597 167.12803677935153,132.57563780184137 161.052637509536,135.77801708236802 163.28441683296114,156.8757736250409 169.9797548041679,159.88970033958321 174.19533797120675,156.31066129467217 173.3274237900041,137.47338994854363 167.37601226009429,132.57563780184137 163.5323923137039,132.95238886983134 160.43269880814478,137.28501533623785 161.54858847009018,155.3688066584873 167.87196322064847,159.13621956296265 174.07135023130104,156.49903210881166 173.8233747505583,138.03851356066298 166.50809807842597,132.76401335507398 160.55668654851615,137.09664068586426 161.54858847009018,154.61532227188582 167.12803677935153,159.13621956296265 172.4595096083358,158.38273818517337 174.81527667259797,152.91998020425672 173.45141153037548,136.90826599829597 165.5161961563863,132.3872622117633 161.6725762099959,133.89426588092465 160.68067428842187,137.85013906122185 161.6725762099959,155.3688066584873 169.9797548041679,160.2664405014366 174.4433134519495,154.23857985367067 173.2034360500984,135.96639199584024 168.6158896619454,132.3872622117633 163.0364413522184,132.76401335507398 159.44079688657075,139.35713400540408 161.052637509536,156.31066129467217 168.98785288259387,159.5129600262735 174.56730119185522,154.42695108160842 174.81527667259797,136.71989127324196 166.1361348577775,131.44538369652582 160.43269880814478,134.8361419517314 160.43269880814478,154.42695108160842 166.0121471178718,159.3245898137102 173.94736249139532,154.61532227188582 173.69938701065257,137.66176452307263 172.08754638768733,134.2710164221935 165.26822067657486,132.1988865841995 160.0607355874963,136.15476687141927" stroke="#4dd2ff" stroke-linecap="round" stroke-linejoin="round" stroke-width="0.5"><title>2021-12-07 3.6km</title></polyline><polyline fill="none" points="35.87664798856713,198.2643787494453 34.09946483653039,179.90405073013972 26.848557576769963,178.5 25.497898381203413,181.6321081648639 26.208771641831845,193.62035464899964 30.118574576452374,195.6723702136369 33.246416923822835,194.80836460893624 34.24163948884234,192.75634576720768 33.60185355390422,181.7401115714456 27.417256185319275,180.33606560630142 25.71116035943851,186.70824495877605 27.559430837398395,195.02436613920145 32.60663098888472,195.4563689417264 34.38381414115429,188.4362806606514 33.03315494558774,181.30809781627613 27.417256185319275,181.20009432375082 26.1376843159087,189.84030560415704 27.985954794101417,194.7003638111055 30.545098532922566,196.64437487002579 33.388591575669125,195.88837139925454 33.88620285852812,184.9802037377085 32.60663098888472,181.84811495634494 27.417256185319275,180.76808013761183 25.640073033282533,185.73622245099978 27.985954794101417,195.78037081705406 33.246416923822835,195.5643695886247 33.60185355390422,182.49613481250708 30.75836051092483,180.6600765369658 27.559430837398395,181.30809781627613 25.924422337673604,184.7641981971974 28.057042120024562,195.4563689417264 32.39336901064962,195.6723702136369 33.74402820621617,194.05235857286607 34.24163948884234,184.54819256989867 31.39814644563012,180.76808013761183 27.417256185319275,181.4161012872937 26.1376843159087,183.14415389235364 26.42203362006694,193.0803492598643 29.407701315591112,196.10437249872484 32.67771831504069,195.5643695886247 33.81511553237215,194.05235857286607 34.17055216291919,184.00817812551395 32.037932380568236,181.30809781627613 29.194439337356016,180.6600765369658 26.493120946455747,183.9001751714095 26.56420827237889,194.1603594997141 30.47401120653376,195.88837139925454 34.02837751060724,192.86434695281787 33.60185355390422,183.14415389235364 28.83900270680897,180.98408727359492 26.493120946455747,184.54819256989867 27.48834351147525,194.80836460893624 30.33183655468747,195.99637195991818 33.95729018445127,193.94435762416106 33.88620285852812,183.57616618130123 32.53554366296157,181.4161012872937 29.549875967670232,180.76808013761183 26.990732229081914,182.38813155685784 25.924422337673604,185.3042118869489 25.640073033282533,194.59236299208715 25.497898381203413,179.68804316292517 34.881425423547626,179.36403164989315 35.52121135802008,203.4483585668204 39.502101618563756,219.0" stroke="#4dd2ff" stroke-linecap="round" stroke-linejoin="round" stroke-width="0.5"><title>2021-12-06 4.4km</title></polyline><polyline fill="none" points="89.10594194813166,178.5 83.96438486990519,180.09277819143608 82.71643412287813,182.21647205823683 76.82610659650527,182.59570185656776 72.73282814584672,188.96670586511027 71.48487739881966,194.95838595039095 72.43331996642519,202.46681365650147 71.03561512974557,209.14084703836124 66.54299244005233,207.39650872183847 62.649386109085754,207.4723496848601 62.449713989626616,215.7389238771575 64.04709094576538,218.46912905041245 66.64282849989831,218.84832266130252 68.93905787472613,217.02818987620412 69.08881196414586,209.8992525038193 67.19192682858557,207.7757133851701 65.5945498724468,207.54819063274772 63.497992617078125,209.292528252583 63.14856640796643,216.9523508209677 65.29504169302527,219.0 67.64118909765966,218.7724839694274 68.88913984468672,216.9523508209677 68.93905787472613,210.43013542878907 66.49307441024575,207.7757133851701 63.39815655723214,209.36836883693468 62.84905822854489,216.42147701006616 65.5945498724468,218.92416133842198 68.48979560565203,217.33154594580992 68.93905787472613,210.12677384834387 67.44151697808411,208.0790768431034 65.24512366298586,207.4723496848601 63.44807458727155,209.14084703836124 63.09864837815985,216.64899444836192 66.09373017121106,219.0 68.43987757584546,217.634901773592 68.68946772522759,209.52004996035248 65.69438593205996,207.62403156529763 63.497992617078125,209.36836883693468 63.44807458727155,216.04228097645682 64.54627124464605,218.16577388893347 66.19356623094063,218.6208065401006 68.43987757584546,217.4073849255219 68.93905787472613,209.36836883693468 66.84250061947387,207.4723496848601 65.09536957356613,208.30659927759552 63.6477467068471,209.97509296695353 63.24840246781241,212.8570193531341 62.94889428850729,209.0650064086367 70.63627089071088,206.56225713077583 73.33184450457338,189.72515160634066 76.67635250685271,186.5396693177754 83.36536851141136,184.26430847193114 89.4054501275532,186.08459823887097 86.65995848365128,182.8232395539526 90.05438451608643,179.71354589422117 92.55028601025697,179.6376993895392" stroke="#4dd2ff" stroke-linecap="round" stroke-linejoin="round" stroke-width="0.5"><title>2021-11-11 3.8km</title></polyline><polyline fill="none" points="142.75,185.2770920976909 139.87605042010546,185.39200674147287 139.15756302524824,186.19640796195017 138.1743697479833,185.7942076327745 135.03571428568102,181.42742501865723 132.50210084032733,182.9213317909016 128.7962184874341,187.288091735958 125.69537815125659,188.26485791847517 118.24579831946176,187.17317784960323 115.8634453782579,189.24162078580412 112.08193277323153,187.97757409134647 104.89705882361159,187.23063479854318 103.7626050420804,187.7477468232537 102.25,191.42496108925843 103.64915966393892,188.03503087966237 105.23739495803602,187.46046247976483 115.71218487410806,188.95433793365373 121.87605042022187,188.66705479467055 123.50210084032733,189.47144686087267 124.90126050426625,191.59732935520879 127.4726890756283,192.7464484891825 126.11134453793056,206.5929732962977 125.31722689070739,207.33986233624455 123.27521008404437,206.76533247767657 120.17436974798329,207.56967395881657 119.98529411770869,213.77451839667629 120.89285714284051,215.95767258791602 123.84243697486818,216.07257498134277 125.09033613454085,214.34903426324308 125.31722689070739,210.84446963806113 124.59873949585017,209.40816033119336 120.93067226896528,208.71872931800317 120.21218487399165,211.87860790039122 120.13655462185852,208.02929665289412 120.77941176481545,207.2824094020616 124.48529411770869,207.2249564563681 126.37605042022187,205.5013627508306 127.43487394961994,196.9406943898066" stroke="#4dd2ff" stroke-linecap="round" stroke-linejoin="round" stroke-width="0.5"><title>2021-11-09 2.8km</title></polyline><polyline fill="none" points="181.61761553172255,180.32270848017652 182.79500911658397,178.93880198559782 181.95084013114683,178.5 180.04035242745886,178.56750807183562 178.28536953678122,179.748894967066 175.8417224738514,180.2889547979721 174.3311042895075,182.2804105146788 173.44250535755418,182.51668336502917 169.46602513699327,180.05267883419583 165.60061978292651,180.32270848017652 160.58003581722733,179.61387973971432 159.53593207214726,179.91766384955554 158.5140433004126,182.11164399077825 157.5587994485395,182.75295588518202 156.87013527628733,185.891973746242 158.91391281981487,199.2237120141217 158.73619303340092,210.7657857096201 161.3353449094575,218.39257166157768 158.29189356742427,219.0 157.31443474226398,216.4690341938549 154.89300265262136,204.7586059121677 152.20499088341603,199.35871158199734 152.98251494881697,198.75121267749637 154.87078767933417,198.58246259433508 158.62511816690676,199.29121181154915 157.62544436845928,189.7397225847235" stroke="#4dd2ff" stroke-linecap="round" stroke-linejoin="round" stroke-width="0.5"><title>2021-11-07 3.5km</title></polyline><polyline fill="none" points="35.67998280772008,266.16061516848276 35.972875961102545,266.7327946216974 30.282380410353653,265.4612833293504 29.152649675961584,261.8374482902291 27.939235183643177,261.26526004011976 25.47056431963574,262.66394061385654 21.788478963426314,267.05067165137734 21.11900889861863,265.969888455671 24.884778012987226,246.1972660679021 26.474769416847266,229.5389913499239 28.02291894168593,227.69508294021944 31.202901749522425,227.25 37.26997421158012,228.77599606171134 40.031538228853606,231.1285589946201 43.588097947998904,231.25572406323045 43.88099110138137,234.11692468260298 42.03994842316024,241.17444294819143 42.7512603669893,244.98925255431095 40.70100829366129,245.5614700531296 40.32443138223607,247.08737835596548 34.75946146855131,251.9193730719271 32.70920939533971,255.8612091889372 28.817914643674158,260.1208804557973 29.612910345662385,265.39770763152046 31.4539530237671,266.9235208777245 34.341042678104714,266.2877662469691 35.17788025911432,267.75" stroke="#4dd2ff" stroke-linecap="round" stroke-linejoin="round" stroke-width="0.5"><title>2021-11-04 2.2km</title></polyline><polyline fill="none" points="91.64120957779232,227.48667254077736 90.61761297588237,227.25 88.90420127246762,228.06144733409747 88.32564667135011,227.79096532138647 83.18541156122228,230.73243401180662 76.93257144890958,228.80527064138732 74.28457154374337,229.00813097630453 69.27784903388238,228.12906776969612 67.98722723132232,228.6024100634968 67.54218523041345,230.326717230113 66.65210122865392,230.63100490754005 65.85102562716929,234.82335724690347 67.65344573068433,248.0759175199928 67.49768103036331,259.7386649319087 69.56712633441202,264.77537129343546 69.98991623526672,267.1077550423506 68.45452133228537,267.75 67.27516002993798,267.4119766416552 66.56309282849543,263.62606893757766 64.78292482497636,259.671057116313 64.60490802465938,253.34960712777684 63.64806772279553,250.91561694533448 63.358790422207676,248.27875477224006 63.82608452311251,247.12934046363807 65.4282357263146,247.29837246892566" stroke="#4dd2ff" stroke-linecap="round" stroke-linejoin="round" stroke-width="0.5"><title>2021-11-02 3.0km</title></polyline><polyline fill="none" points="137.63603081839392,227.25 136.60602706146892,227.32549719445524 133.44064966205042,230.98707565123914 131.20478784828447,230.23211671039462 127.86355614895001,235.25253814589814 128.0142884060624,236.6114267357043 124.17061584966723,239.10269761568634 118.97035297937691,243.78318012053205 113.06667290901532,251.5585693201865 111.78544872358907,254.84225604942185 107.89153208152857,260.39042728368076 107.51470143877668,261.8623642927996 107.94177616731031,263.7494465899945 109.62495303835021,266.0516619900882 112.68984226626344,267.4480743355816 115.22716859431239,267.75 112.33813366637332,267.52355579609866 109.07226809556596,265.4478048715973 107.99202025291743,264.01363663823577 107.36396918166429,261.9755897513387 107.69055573875085,260.57913778450165 111.81057076650904,255.03097197879106 112.11203528067563,252.95508660057385 116.00595192273613,247.40670146881894 119.54815996484831,243.17925327683042 127.88867819186999,236.23395864333725 131.00381150539033,230.0811245675286 131.65698461956345,229.89238422267954 133.41552761924686,231.13806708468474 136.85724748997018,227.36324578060885 137.4350544756162,227.32549719445524 137.00797974714078,227.70298272378568" stroke="#4dd2ff" stroke-linecap="round" stroke-linejoin="round" stroke-width="0.5"><title>2016-05-06 3.5km</title></polyline><polyline fill="none" points="156.94100059237098,267.75 153.79360653820913,265.5383528799139 152.39758498198353,262.1827024199156 152.8290825539152,260.73365367592487 157.06791164301103,255.35682600970904 157.16944048344158,253.2975761241105 164.12416605482576,244.0688185991312 172.7541174936341,236.5558296058589 176.51068459055386,229.7671944815811 178.56664360989816,230.83508534631983 182.348592916911,227.25 182.60241501801647,227.82209251051245" stroke="#4dd2ff" stroke-linecap="round" stroke-linejoin="round" stroke-width="0.5"><title>2016-03-22 1.7km</title></polyline></svg>