<?xml version="1.0" encoding="utf-8" ?>
<svg baseProfile="full" height="300mm" version="1.1" viewBox="0,0,200,300" width="200mm" xmlns="http://www.w3.org/2000/svg" xmlns:ev="http://www.w3.org/2001/xml-events" xmlns:xlink="http://www.w3.org/1999/xlink"><defs /><rect fill="#222222" height="300" width="200" x="0" y="0" /><text fill="#FFFFFF" style="font-size:12px; font-family:Arial; font-weight:bold;" x="10" y="20">Over 3kms Workouts</text><text fill="#FFFFFF" style="font-size:4px; font-family:Arial" x="10" y="280">ATHLETE</text><text fill="#FFFFFF" style="font-size:9px; font-family:Arial" x="10" y="290">underwindfall</text><text fill="#FFFFFF" style="font-size:4px; font-family:Arial" x="120" y="280">STATISTICS</text><text fill="#FFFFFF" style="font-size:3px; font-family:Arial" x="120" y="285">Number: 14</text><text fill="#FFFFFF" style="font-size:3px; font-family:Arial" x="120" y="290">Weekly: 1.6</text><text fill="#FFFFFF" style="font-size:3px; font-family:Arial" x="141" y="285">Total: 52.8 km</text><text fill="#FFFFFF" style="font-size:3px; font-family:Arial" x="141" y="290">Avg: 3.8 km</text><text fill="#FFFFFF" style="font-size:3px; font-family:Arial" x="167" y="285">Min: 3.1 km</text><text fill="#FFFFFF" style="font-size:3px; font-family:Arial" x="167" y="290">Max: 5.2 km</text><polyline fill="none" points="36.99177003279328,32.40000000000873 36.70165899931453,32.532260485197185 36.592867361730896,32.532260485197185 36.1395688719349,32.70860764973622 35.99451335507911,32.73065103337285 35.57747874443885,33.01721477819956 35.39615934866015,33.083344809303526 35.19670801318716,33.01721477819956 34.79780534200836,33.23764812218724 34.72527758369688,33.32582138526777 34.32637491263449,33.458081200151355 34.21758327516727,33.546254356828285 33.90934030211065,33.6123841964727 33.546701510204,33.7666870624671 33.43790987262037,33.7666870624671 33.20219465799164,33.9871195020678 32.8939516848186,34.07529240351869 32.73076422850136,34.2075516757468 32.386257376288995,34.38389722320426 32.13241022196598,34.60432891806704 31.914826946798712,34.758630946234916 31.479660396697,34.89088972379977 30.80877863173373,35.30970855435589 30.373612081515603,35.50809608634154 30.282952383509837,35.50809608634154 30.101632987498306,35.59626825363375 29.956577470875345,35.706483402944286 29.86591777286958,35.83874149431358 29.86591777286958,35.99304247988039 29.974709410453215,36.21347223315388 30.101632987498306,36.65433094187756 30.19229268550407,36.764545452810125 30.409875960554928,37.27153134676337 30.518667598138563,37.44787393664592 30.60932729614433,37.80055860565335 30.663723114994355,37.84464414147078 30.699986994150095,38.04302892074338 30.93570220877882,38.37366974077304 31.008229967206717,38.66022463417903 31.189549363101833,38.968821708956966 31.189549363101833,39.01290696283104 31.29834100068547,39.18924787189462 31.35273681941908,39.40967376877961 31.443396517424844,39.58601429486589 31.497792336158454,39.82848224029294 31.57032009458635,39.89460980590957 31.78790336975362,40.29137469705893 31.53405621543061,40.40158701388282 31.35273681941908,40.42362946931098 30.971966088050976,40.53384170634672 30.57306341698859,40.776308393862564 29.793390014441684,41.08490189439908 28.85052915569395,41.59187579940772 28.614813940948807,41.6580027268501 28.19777933030855,41.878425645205425 27.50876562576741,42.09884829771181 27.254918471560813,42.27518622824573 27.164258773555048,42.473566196567845 27.037335196393542,42.539692804872175 27.037335196393542,42.71603030990809 27.073599075665697,42.84828332695179 27.146126833977178,42.870325487165246 27.254918471560813,42.98053624830209 27.309314290294424,43.26708391608554 27.38184204872232,43.37729443790158 27.563161444617435,43.862219944028766 27.72634890093468,44.126724223126075 27.78074471966829,44.369186142488616 27.943932176101953,44.72185745094612 27.943932176101953,44.8100251716387 28.05272381368559,44.96431858053256 27.962064115679823,45.11861185914313 27.871404417674057,45.11861185914313 27.38184204872232,45.29494687523402 27.254918471560813,45.40515617375786 27.164258773555048,45.427198025528924 27.073599075665697,45.58149091324594 27.091731015243568,45.735783670665114 27.164258773555048,45.82395090213686 27.164258773555048,46.04436879466812 27.345578169450164,46.37499513482908 27.345578169450164,46.4190786016261 27.291182350716554,46.5072455033951 26.819751921342686,46.7056208767317 26.475245069130324,46.79378764021385 26.058210458490066,47.08032932765491 25.74996748531703,47.19053754924971 25.65930778742768,47.25666245039611 25.496120330994017,47.49912021630735 25.568648089421913,47.69749451277312 25.64117584784981,47.785660797555465 25.731835545855574,48.16036703354621 25.94941882090643,48.62323838174052 26.02194657921791,48.82161145780992 26.384585371124558,49.50489484882564 26.457113129552454,49.63714295189129 26.493377008708194,49.63714295189129 26.584036706597544,49.769390959336306 26.69282834418118,50.01184539096721 26.87414774019271,50.14409312719363 26.96480743808206,50.32042329327669 27.019203256815672,50.36450580814562 27.127994894399308,50.40858831243531 27.236786531982943,50.49675328913145 27.309314290294424,50.518794526622514 27.63568920304533,50.80533037245914 27.835140538518317,50.8714539653447 28.14338351157494,51.20207157100958 28.45162648463156,51.40044184717408 28.632945880643092,51.5988119081303 28.796133336960338,51.66493521393568 28.90492497442756,51.775140670361 28.92305691400543,51.88534606032772 29.213167947600596,52.061674545984715 29.539542860235088,52.39228999806801 30.010973289608955,52.59065898216795 30.301084323087707,52.766986787260976 30.21042462508194,53.16372372652404 30.264820443931967,53.27392827902804 30.772514752461575,53.62658240033488 30.86317445046734,53.71474582432711 30.86317445046734,53.84699088058551 30.826910571195185,53.82495004447992 31.207681302796118,54.39801091791014 31.31647294026334,54.508214725981816 31.461528457002714,54.508214725981816 31.53405621543061,54.57433697889792 31.55218815500848,54.662499945625314 31.878563067642972,55.12535482298699 32.150542161543854,55.43392408984073 32.440653195022605,55.87473642428813 32.73076422850136,56.29350715714099 32.83955586596858,56.38166929438012 33.36538211419247,57.10900530368963 33.76428478525486,57.57185398416186 33.818680604104884,57.70409624892636 33.873076422838494,57.748176982597215 34.108791637583636,57.72613661711512 34.27197909390088,57.990620827666135 34.09065969788935,58.100822469146806 33.78241672483273,58.431426994648064 32.186806040699594,59.55547790751734 32.09614634281024,59.643638471039594 30.772514752461575,60.67952190627693 30.55493147741072,60.94400184231927 30.15602880634833,61.58316010754788 29.593938678968698,62.26639578100003 29.521410920657218,62.39863464857626 29.30382764560636,62.61903254856588 29.195036008022726,62.86146993149305 29.213167947600596,62.83943018267746 27.962064115679823,64.69075981561036 27.708216961473227,65.17562876312877 27.309314290294424,65.70457523867663 27.055467135971412,66.10128409061872 26.92854355892632,66.23352018326113 26.74722416291479,66.58614929579198 26.366453431546688,67.04897397341847 26.239529854385182,67.26936626511451 26.076342398067936,67.37956231126736 25.840627183322795,67.7101500511344 25.496120330994017,67.9305415454437 25.060953780892305,68.43744097383751 24.680183049407788,68.85618291943683 24.625787230557762,68.9884170187288 24.208752619917504,69.42919665866066 24.13622486172244,69.53939140253351 24.118092922028154,69.60550821699144 23.664794432232156,70.09036412528076 22.5950099962065,71.50084672667435 22.250503143994138,71.89754299703054 21.960392110515386,72.29423840633535 21.924128231359646,72.4044314227649 21.343906164402142,73.10966515478503 21.289510345668532,73.24189617657976 21.271378405974247,73.3080116516503 21.12632288923487,73.50635793316178 21.090059010195546,73.63858866790542 21.180718708084896,73.79285773765878 21.216982587240636,73.96916508646973 20.99939931218978,74.21158741324325 20.945003493339755,74.32177927375596 20.79994797660038,74.49808611226035 20.945003493339755,74.65235445646977 21.03566319134552,74.63031612956547 21.07192707050126,74.67439278068196 21.108190949657,74.7845843621617 21.216982587240636,74.93885246456193 21.07192707050126,75.02700560748053 20.85434379533399,75.33554127285606 20.963135432917625,75.2914647811267 21.090059010195546,75.40165599045577 21.434565862291493,75.60000000000582 21.615885258303024,75.3135030282865 22.10544762725476,74.7845843621617 22.286767023149878,74.63031612956547 22.395558660733514,74.43197106775187 22.52248223789502,74.07935709299636 22.685669694212265,73.74878087389516 23.012044606846757,73.3741271027393 23.28402370074764,73.13170366508712 23.483475036220625,72.86724136637349 23.719190251082182,72.49258578811714 23.737322190660052,72.36035422414716 23.809849948971532,72.20608394533338 24.46259977435693,71.34657572236028 24.734578868141398,70.92783948269789 24.87963438499719,70.83968436263967 25.858759122900665,69.51735245906457 26.856015800498426,68.283167383619 27.091731015243568,67.9305415454437 27.200522652710788,67.73218921254738 27.38184204872232,67.5558758469706 28.234043209580705,66.47595277121582 28.34283484716434,66.29963819365366 28.306570967892185,66.21148084114247 28.234043209580705,66.12332344606693 27.925800236407667,65.85885100567248 27.798876659362577,65.68253583279147 27.72634890093468,65.68253583279147 27.47250174661167,65.88089039029728 27.43623786745593,65.81477222839021 27.708216961473227,65.52825991692953 27.871404417674057,65.24174715632398 28.16151545115281,64.86707594535255 28.252175149158575,64.66872028747457 28.36096678674221,64.55852260664687 28.4878903637873,64.31608747504652 28.741737518110313,63.985493595479056 28.778001397382468,63.83121624701016 28.814265276538208,63.83121624701016 28.85052915569395,63.72101806123101 28.85052915569395,63.78713698069623 28.86866109527182,63.632859464793 29.013716612011194,63.50062149032601 29.503278981079347,62.79535067711549 29.485147041385062,62.751271160974284 29.557674799812958,62.530873420473654 29.81152195413597,62.112116981239524 29.956577470875345,62.00191775888379 30.6274592357222,60.96604181974544 30.681855054572225,60.855841906159185 30.80877863173373,60.701561915528146 31.098889665212482,60.459121667125146 32.3137296178611,59.643638471039594 33.075271080830134,59.0265136333328 33.36538211419247,58.894272325575 33.76428478525486,58.519588100520195 34.09065969788935,58.29918525616813 34.181319395895116,58.21102404411067 34.779673402546905,57.81429806318192 35.46868710697163,57.263288327434566 35.813193959300406,57.0428839680244 35.849457838456146,56.9767626082903 36.08517305308487,56.84451981711027 36.357152146985754,56.60207445146807 37.11869360995479,56.09514219281846 37.19122136826627,55.98493934182625 37.71704761649016,55.63228977192193 37.88023507280741,55.47800537110015 38.279137743869796,55.191476852531196 40.01980394462589,53.869031713940785 40.32804691779893,53.670664117657 40.40057467611041,53.58250067240442 40.61815795127768,53.45025542473013 41.089588380767964,53.07556003671198 41.81486596434843,52.56861799453327 42.213768635410815,52.21596183143265 43.5192682860652,51.29023616477207 44.607184661668725,50.40858831243531 44.679712419980206,50.38654706160014 45.24180254735984,49.94572148694715 45.423121943254955,49.835514927108306 45.67696909757797,49.59306026154081 46.003344010328874,49.3946880230651 46.130267587373964,49.218356963654514 46.51103831885848,48.90977720016963 46.819281291915104,48.79957001552975 46.96433680865448,48.57915544677235 47.20005202339962,48.40282360035053 47.18192008382175,48.18240855293698" stroke="#4dd2ff" stroke-linecap="round" stroke-linejoin="round" stroke-width="0.5"><title>2022-06-14 5.2km</title></polyline><polyline fill="none" points="115.41166908747982,32.40000000000873 115.0385051870835,32.43779958409141 114.93899481371045,32.4755991606653 114.88923962693661,32.777995500786346 114.39168775966391,33.04259190222365 113.62048236548435,32.777995500786346 113.14780809159856,33.193789679789916 112.32684751064517,33.23158910551865 111.65515248989686,33.420586120017106 111.48100933636306,33.60958294584998 111.15760062268237,33.72298095085716 110.66004875540966,34.17657229132601 110.51078319532098,34.6301625452179 110.31176244840026,34.85695726465201 108.8688620334724,34.93255544400017 108.57033091306221,34.70576081519539 108.12253423262155,34.554564245045185 107.97326867241645,34.51676508368109 107.77424792555394,34.6301625452179 107.67473755212268,34.6301625452179 107.62498236534884,34.78135905502131 107.62498236534884,35.08375171228545 107.42596161848633,35.61293770046905 107.2269408715656,35.72633450543799 106.67963381763548,36.48231146983744 106.48061307071475,36.59570775410975 105.70940767653519,36.59570775410975 105.16210062254686,36.557909000242944 104.61479356861673,36.142122209319496 104.31626244826475,35.764133425444015 103.79383298766334,35.46174185471318 103.246525933675,35.27274687791942 102.87336203327868,35.27274687791942 101.92801348562352,35.159349801178905 101.33095124491956,34.9703545224329 101.13193049799884,35.04595265656826 100.63437863072613,34.85695726465201 100.06219398340909,34.78135905502131 99.7387852697284,34.66796168393921 99.44025414943462,34.66796168393921 99.04221265565138,34.4411667381064 98.39539522817358,34.403367554128636 98.22125207469799,34.51676508368109 98.14661929459544,34.51676508368109 98.14661929459544,34.36556836255477 97.79833298752783,34.2521707425185 97.49980186723405,34.327769163341145 97.27590352698462,34.47896591476456 97.05200518667698,34.554564245045185 96.40518775925739,34.100973810011055 95.60910477174912,33.87417818506947 95.03692012443207,33.76078027069161 94.21595954347868,33.76078027069161 93.9174284231849,33.64738228832721 93.37012136919657,33.60958294584998 92.84769190865336,33.45838550022745 92.2506296679494,33.45838550022745 90.85748443967896,33.26938852346211 90.35993257246446,33.49618487301632 89.81262551847612,33.911977474723244 89.73799273837358,34.138773054481135 89.63848236494232,34.78135905502131 89.48921680473723,35.197148834340624 89.36482883797726,35.877530139754526 89.4145840247511,35.8397312425368 88.9419097508653,35.99092678636953 88.29509232344572,36.02872565349389 88.31996991677443,36.52011023889645 88.2453371367883,36.6713052392588 88.2453371367883,36.86029881998547 88.17070435668575,37.20048678993771 87.89705082960427,37.9942563426448 87.89705082960427,38.410039066002355 87.72290767607046,38.86361917712202 87.49900933593744,39.73297801971785 87.44925414916361,40.26215101295384 87.32486618240364,40.829120435679215 87.29998858895851,41.47168372903252 87.25023340230109,41.84966111811809 87.02633506199345,42.68120871798601 86.9517022818909,43.43715791213617 86.85219190845964,43.73953674486256 86.7526815350866,44.45768453665369 86.65317116153892,44.76006173939095 86.50390560145024,44.98684432450682 86.40439522790257,45.44040867964213 86.20537448104005,45.85617505077971 86.15561929438263,46.271940509046544 85.65806742716813,48.35075410468562 85.58343464706559,48.76651408489852 85.58343464706559,49.18227315209515 85.73270020715427,49.52243898260349 85.85708817403065,50.27836086216848 85.90684336080449,50.61852472333703 85.85708817403065,51.261054793794756 85.83221058070194,51.48782959218079 85.55855705362046,52.357130469652475 85.18539315328235,53.22642735588306 85.06100518640596,53.71776730877173 84.76247406611219,54.39808206161251 84.7873516594409,54.51146761617565 84.71271887933835,55.15398447561893 84.7873516594409,55.68311436979275 84.7873516594409,55.834294067986775 84.81222925276961,55.9476787623571 84.83710684621474,56.62798550292791 84.6132085059071,57.043727307842346 84.58833091257839,57.27049518028798 84.66296369268093,57.610646479559364 84.66296369268093,57.799619159675785 84.81222925276961,58.32874166039983 84.9614948129747,58.97124556622293 84.98637240630342,59.27359959107707 85.08588277985109,59.6137472918781 85.03612759307725,59.80271797270689 85.1107603731798,60.18065876857145 85.1107603731798,61.42785804266168 85.16051555995364,61.881383014668245 85.33465871342923,62.37270050836378 85.38441390014486,63.16636453573301 85.43416908686049,63.27974483957223 85.4590466801892,63.65767869517731 85.48392427351791,64.79147573595401 85.58343464706559,65.13161352431052 85.58343464706559,65.39616471498448 85.88196576735936,66.41657298820792 86.13074170099571,67.89048634143546 86.23025207436876,68.15503367755446 86.25512966781389,68.34399583419145 86.37951763457386,68.5707501732686 86.67804875498405,69.85568629867339 86.80243672174402,70.1580229432584 86.90194709517527,70.83827862881299 86.97657987521961,71.06502998081851 87.02633506199345,71.51853187030065 87.17560062219854,72.04761603525549 87.20047821552726,72.27436593917082 87.44925414916361,73.10577993025072 87.54876452259487,73.97498156303482 87.69803008274175,74.42847648327006 87.87217323627556,74.80638808706135 88.07119398313807,75.4866270731145 88.22045954334317,75.60000000000582 88.51899066369515,75.52441805644776 88.41948029026389,75.41104508431454 88.19558195001446,74.3906852814689 88.0960715765832,74.23952039847791 87.82241804961814,73.40811138555 87.72290767607046,72.50111557153286 87.57364211598178,72.19878266804153 87.52388692926615,71.78307413758012 87.34974377573235,71.40515649977897 87.2751109956298,70.98944622697309 87.20047821552726,70.76269478433824 87.20047821552726,70.64931896123744 87.07609024876729,70.19581498988555 86.90194709517527,69.8178941840888 86.70292634831276,69.175427083057 86.67804875498405,68.79750424069061 86.6034159748815,68.53295780223561 86.4541504146764,68.26841099413286 86.30488485447131,67.89048634143546 86.32976244791644,67.62593863562506 86.2800072611426,67.36139056028333 86.32976244791644,67.24801270051103 86.2800072611426,66.79450058283692 86.32976244791644,66.56774411658989 86.32976244791644,66.11423036950873 86.35464004124515,65.73630141708418 86.25512966781389,65.32057869822893 86.25512966781389,65.16940657413215 86.30488485447131,65.09382046683459 87.17560062219854,64.75368261062249 87.64827489602612,64.75368261062249 87.67315248941304,64.71588947779674 88.04631638980936,64.64030318942969 89.16580809111474,64.67809633734578 89.24044087121729,64.56471687091107 89.19068568444345,64.5269237003813 89.24044087121729,64.2623712951754 89.21556327777216,64.07340506507899 89.14093049772782,63.77105870482046 89.04142012429656,63.582091984470026 88.9170321575366,62.52387486524822 88.9419097508653,61.881383014668245 88.96678734419402,61.65462066445616 88.9170321575366,61.125507457967615 89.04142012429656,59.50036479279515 89.01654253096785,58.93345127918292 89.11605290439911,56.930343269734294 89.0911753110122,56.74136972212 89.0911753110122,55.267369577486534 88.99166493763914,54.7382385214587 88.9419097508653,54.43587725395628 88.86727697076276,53.302018200891325 88.89215456409147,52.9240636741888 88.7677665973315,51.979174056861666 88.74288900400279,51.14766729269468 88.46923547692131,49.29566183027055 88.4443578835926,48.72871776075044 88.36972510354826,48.42634689620172 88.36972510354826,48.199568430980435 88.2453371367883,47.44363825159962 88.0960715765832,47.14126533472154 87.99656120315194,46.34753413053113 87.99656120315194,45.78058123314986 87.89705082960427,45.32701769271807 87.7726628628443,45.13803256351093 87.79754045617301,44.911250159551855 87.67315248941304,44.45768453665369 87.52388692926615,43.021386228938354 87.5985197093105,42.98358875793929 87.52388692926615,42.454423371193116 87.32486618240364,41.81186341318244 87.2751109956298,41.24489693331998 87.32486618240364,41.09370558527007 87.29998858895851,40.26215101295384 87.39949896238977,39.166005314400536 87.47413174249232,38.712425927544245 87.89705082960427,37.46507701060909 87.9219284230494,37.23828541560215 87.84729564294685,36.52011023889645 88.02143879648065,36.406713909236714 88.02143879648065,36.33111631842621 88.17070435668575,35.95312791176548 88.31996991677443,35.764133425444015 88.6185010371264,35.72633450543799 89.0911753110122,35.877530139754526 89.06629771762528,35.91532902952167 89.51409439818235,35.61293770046905 89.53897199151106,35.04595265656826 89.66335995838745,34.403367554128636 89.68823755171616,34.138773054481135 89.78774792514741,33.87417818506947 90.2604221990332,33.53398423813633 90.65846369281644,33.30718793388223 90.9321172197815,33.26938852346211 93.04671265545767,33.53398423813633 93.51938692940166,33.64738228832721 95.83300311205676,33.836378887761384 96.28079979249742,33.94977675691189 96.77835165971192,34.17657229132601 97.22614834021078,34.02537529858819 97.64906742732273,34.02537529858819 98.19637448136928,34.17657229132601 98.47002800827613,34.100973810011055 99.19147821579827,34.17657229132601 99.44025414943462,34.17657229132601 99.58951970963972,34.17657229132601 99.83829564321786,34.36556836255477 100.38560269714799,34.327769163341145 101.52997199178208,34.403367554128636 102.20166701253038,34.592363398871385 102.52507572626928,34.78135905502131 103.27140352712013,34.89475635807321 103.66944502090337,35.08375171228545 104.04260892129969,35.34834489124478 104.19187448150478,35.61293770046905 104.34114004165167,35.68853557793773 104.51528319518548,35.877530139754526 104.83869190892437,36.142122209319496 105.13722302921815,36.2933175117505 105.7342852698639,36.33111631842621 105.80891804996645,36.48231146983744 106.7293890042929,36.52011023889645 106.97816493792925,36.59570775410975 107.07767531136051,36.709103970453725 107.45083921181504,37.049292212177534 108.07277904584771,37.3516812469461 108.29667738609714,37.540674148724065 108.91861722018803,37.72966686161817 109.31665871391306,38.03205480991164 109.34153630735818,37.9942563426448 109.61518983432325,38.03205480991164 109.93859854800394,37.6918683340773 110.0381089214352,37.72966686161817 110.23712966829771,37.38947984253173 110.212252074969,36.93589619947306 110.08786410820903,36.6713052392588 110.11274170153774,36.52011023889645 110.212252074969,36.44451269324054 110.68492634885479,36.48231146983744 111.00833506259369,36.406713909236714 111.63027489656815,36.10432336493977 112.25221473054262,36.142122209319496 112.30196991731646,36.0665245129785 112.97366493806476,36.21771987559623 112.97366493806476,35.95312791176548 113.44633921200875,35.61293770046905 113.49609439866617,35.38614388667338 113.52097199205309,34.592363398871385 113.42146161862183,34.78135905502131 113.29707365180366,34.85695726465201 113.29707365180366,34.78135905502131 113.14780809159856,34.89475635807321" stroke="#4dd2ff" stroke-linecap="round" stroke-linejoin="round" stroke-width="0.5"><title>2022-05-13 4.4km</title></polyline><polyline fill="none" points="179.118038010085,32.40000000002328 174.2296067517018,33.28585932805436 177.23442229581997,47.25487550123944 175.12656661565416,48.549535855214344 171.49387916654814,45.7557889559539 170.0587433843175,46.914174591744086 171.49387916654814,72.46579909996944 168.3545196428895,74.0329031473666 159.87824892858043,75.60000000000582 158.57765712600667,69.39970515383175 158.71220110543072,58.429676814121194 152.881961989915,57.74829696450615 153.10620195581578,65.72035606234567 154.76557770418003,67.7644437874842 156.2007134865271,67.96885188686429 157.86008923477493,66.81053770580911 158.39826515305322,59.7242947811319 155.30375362257473,58.361538890429074 153.3304419219494,60.06498290359741 153.28559392865282,66.26544731942704 154.85527369054034,67.83257983427029 156.33525746606756,67.96885188686429 157.59100127557758,67.83257983427029 158.0843292006757,66.53799262153916 158.2188731803326,59.58801943689468 156.02132151380647,58.225263002095744 153.28559392865282,59.58801943689468 153.10620195581578,66.06103820016142 154.45164175180253,67.56003556589712 157.59100127557758,67.69630772731034 158.30856916680932,62.92674970740336 158.03948120749556,59.24733083834872 156.73888940480538,58.361538890429074 154.13770579942502,58.90664189972449 153.5995298809139,67.15121875546174 155.30375362257473,68.10512388503412 157.7703932482982,67.56003556589712 158.17402518715244,62.31351598366746 158.03948120749556,66.81053770580911" stroke="#4dd2ff" stroke-linecap="round" stroke-linejoin="round" stroke-width="0.5"><title>2022-05-04 3.1km</title></polyline><polyline fill="none" points="46.781879324349575,80.93668003333732 46.958485601702705,80.39999999999418 46.34036363090854,81.13793482477195 47.17924344853964,80.93668003333732 46.605273046996444,81.47335920963087 45.01581655070186,81.60752886952832 43.779572609229945,82.01003752846736 41.92520669673104,81.87586802910664 42.41087395965587,82.2112916772021 42.14596454356797,82.88213796861237 42.675783375510946,83.35172957566101 42.49917709827423,83.95548924917239 42.631631806259975,84.76050045905868 42.98484436108265,85.36425760114798 43.29390534653794,86.6388524491922 43.29390534653794,87.3096899005759 43.647117901127785,87.84635889760102 44.000330455834046,89.18802763987333 44.35354301065672,91.4688522068318 44.30939144117292,92.07259729475481 44.35354301065672,94.2192377106112 44.48599771875888,94.95714218635112 44.9275134120835,95.56088100647321 44.13278516381979,96.70127359576873 42.808238083613105,96.83543717541033 42.455025528906845,96.36586441250984 42.01350983558223,95.89629099337617 40.95387217134703,95.15838858022471 40.335750200552866,94.95714218635112 39.27611253620125,94.15215540523059 38.525535857421346,94.08507308654953 38.08402016409673,94.68881347359275 37.86326231737621,95.29255277570337 37.9515654562274,96.63419178582262 38.34892958018463,97.90874388365773 38.3930811494356,98.64664025680395 38.34892958018463,100.65907667472493 38.3930811494356,102.00069425738184 38.56968742690515,103.40938695395016 38.3930811494356,105.55595494518639 38.525535857421346,106.22675463030464 38.525535857421346,106.96463273698464 38.21647487208247,107.5012703424436 38.128171733464114,108.77578122037812 38.437232718919404,109.98320811946178 38.481384288170375,110.65399896627059 38.613838996272534,111.39186735122348 38.525535857421346,112.66636347238091 38.79044527350925,114.00793311448069 39.01120312034618,115.55073158131563 39.36441567505244,116.82521192866261 39.40856724430341,117.56306676231907 39.76177979912609,118.90461685464834 39.27611253620125,120.44739283958916 38.657990565523505,120.98400891319034 38.128171733464114,121.25231662846636 37.465898193302564,121.52062412971281 36.80362465325743,121.58770097146044 36.185502682463266,121.92308497976046 34.06622735399287,122.19139194546733 31.196375346858986,122.72800523383194 30.48995023733005,123.06338810414309 29.783525127801113,123.197541158268 28.458978047594428,123.60000000000582 27.796704507549293,123.46584710630123 27.48764352221042,122.8621584220964 27.266885675373487,121.45354727451922 26.957824690034613,120.84985497512389 26.69291527394671,119.37415812155814 26.69291527394671,118.63630726476549 26.56046056607738,117.42891145861358 26.648763704579324,116.75813413609285 26.869521551416256,112.73344208177878 27.001976259402,112.12973411584971 27.046127828769386,110.78815697497339 26.869521551416256,109.98320811946178 26.869521551416256,109.3124159333529 26.737066843314096,108.64162240820588 26.913673120667227,107.23295164684532 26.69291527394671,106.62923379856511 26.030641733901575,106.49507412922685 24.485336806974374,106.025514865265 23.823063266812824,105.95843491677078 22.41021304775495,105.75719499142724 21.615484799724072,105.75719499142724 20.953211259678937,105.89135495506343 20.953211259678937,107.09879221883602 20.86490812082775,107.83666841057129 20.82075655157678,108.5074635426572 20.909059690195136,109.78197060435195 20.82075655157678,111.1235517624882 21.35057538363617,111.59310390218161 21.26227224501781,113.0688349272823 21.129817536915652,113.806698009721 21.703787938458845,115.014106831135 22.807577171828598,115.75196564165526 24.17627582140267,116.02027753478615 25.41251976310741,115.41657547422801 25.809883887064643,114.87995050946483 26.030641733901575,114.27624640020076 26.118944872636348,110.45276185270632 26.33970271924045,108.57454298218363 26.33970271924045,107.90374798391713 26.030641733901575,107.36711102144909 25.41251976310741,106.89755297609372 24.794397792313248,106.62923379856511 23.337396004004404,106.49507412922685 22.630970894591883,106.76339341400308 22.05700049304869,107.09879221883602 21.615484799724072,107.63542960988707 21.35057538363617,108.17206614391762 21.26227224501781,109.51365372969303 21.35057538363617,110.18444551408174 21.306423814268783,111.45894621490152 21.21812067553401,112.80052067758515 21.35057538363617,114.27624640020076 21.703787938458845,114.87995050946483 22.277758339885622,115.4836535344657 22.895880310679786,115.8861216152145 24.308730529504828,116.02027753478615 25.544974471093155,115.81904363512876 25.854035456548445,115.2824193132401 26.074793303152546,114.54455947168753 26.20724801113829,113.806698009721 26.20724801113829,112.33097022495349 26.29555114998948,111.66018272581277 26.251399580505677,111.05647283149301 26.33970271924045,110.45276185270632 26.29555114998948,108.37330462317914 26.16309644188732,107.76958882377949 25.809883887064643,107.16587193956366 24.706094653578475,106.49507412922685 23.99966954404954,106.4279942746216 22.145303631783463,106.69631361294887 21.35057538363617,107.7025092234835 21.26227224501781,108.57454298218363 21.35057538363617,111.45894621490152 21.26227224501781,112.19681283220416 21.35057538363617,112.93467782950029 21.21812067553401,113.53838434905629 21.129817536915652,114.14208978414536 21.483030091621913,114.6787159270898 21.88039421569556,115.14826309907949 22.454364617238753,115.55073158131563 23.0724865879165,115.95319958170876 23.690608558710665,116.0873554747086 24.35288209898863,116.02027753478615 24.971004069666378,116.0873554747086 25.544974471093155,115.75196564165526 26.118944872636348,114.47748122378835 26.29555114998948,110.9893938874884 26.118944872636348,108.03790709088207 25.98649016453419,107.43419068853837 25.41251976310741,106.96463273698464 24.706094653578475,106.56215397044434 23.38154757337179,106.4279942746216 22.719274033326656,106.56215397044434 22.18945520115085,107.09879221883602 21.703787938458845,107.63542960988707 21.527181661105715,108.37330462317914 21.394726953003556,109.78197060435195 21.438878522370942,110.45276185270632 21.306423814268783,111.79434033267898 21.306423814268783,112.53220621371293 21.21812067553401,113.20299197203713 21.394726953003556,114.54455947168753 21.659636368975043,115.21534121283912 22.675122463842854,116.0873554747086 23.337396004004404,116.15443340101046 25.280065055121668,116.02027753478615 25.721580748446286,115.61780961495242 25.942338595050387,114.94702867700835 26.074793303152546,113.53838434905629 26.118944872636348,112.93467782950029 26.030641733901575,112.33097022495349 26.251399580505677,111.72726153579424 26.16309644188732,110.38568278815364 26.20724801113829,111.05647283149301 26.33970271924045,111.66018272581277 26.38385428849142,113.60546278420952 26.29555114998948,114.20916809875052 26.030641733901575,114.81287232870818" stroke="#4dd2ff" stroke-linecap="round" stroke-linejoin="round" stroke-width="0.5"><title>2022-05-04 3.2km</title></polyline><polyline fill="none" points="112.78187932434957,80.93668003333732 112.9584856017027,80.39999999999418 112.34036363090854,81.13793482477195 113.17924344853964,80.93668003333732 112.60527304699644,81.47335920963087 111.01581655070186,81.60752886952832 109.77957260922994,82.01003752846736 107.92520669673104,81.87586802910664 108.41087395965587,82.2112916772021 108.14596454356797,82.88213796861237 108.67578337551095,83.35172957566101 108.49917709827423,83.95548924917239 108.63163180625997,84.76050045905868 108.98484436108265,85.36425760114798 109.29390534653794,86.6388524491922 109.29390534653794,87.3096899005759 109.64711790112779,87.84635889760102 110.00033045583405,89.18802763987333 110.35354301065672,91.4688522068318 110.30939144117292,92.07259729475481 110.35354301065672,94.2192377106112 110.48599771875888,94.95714218635112 110.9275134120835,95.56088100647321 110.13278516381979,96.70127359576873 108.8082380836131,96.83543717541033 108.45502552890684,96.36586441250984 108.01350983558223,95.89629099337617 106.95387217134703,95.15838858022471 106.33575020055287,94.95714218635112 105.27611253620125,94.15215540523059 104.52553585742135,94.08507308654953 104.08402016409673,94.68881347359275 103.86326231737621,95.29255277570337 103.9515654562274,96.63419178582262 104.34892958018463,97.90874388365773 104.3930811494356,98.64664025680395 104.34892958018463,100.65907667472493 104.3930811494356,102.00069425738184 104.56968742690515,103.40938695395016 104.3930811494356,105.55595494518639 104.52553585742135,106.22675463030464 104.52553585742135,106.96463273698464 104.21647487208247,107.5012703424436 104.12817173346411,108.77578122037812 104.4372327189194,109.98320811946178 104.48138428817037,110.65399896627059 104.61383899627253,111.39186735122348 104.52553585742135,112.66636347238091 104.79044527350925,114.00793311448069 105.01120312034618,115.55073158131563 105.36441567505244,116.82521192866261 105.40856724430341,117.56306676231907 105.76177979912609,118.90461685464834 105.27611253620125,120.44739283958916 104.6579905655235,120.98400891319034 104.12817173346411,121.25231662846636 103.46589819330256,121.52062412971281 102.80362465325743,121.58770097146044 102.18550268246327,121.92308497976046 100.06622735399287,122.19139194546733 97.19637534685899,122.72800523383194 96.48995023733005,123.06338810414309 95.78352512780111,123.197541158268 94.45897804759443,123.60000000000582 93.7967045075493,123.46584710630123 93.48764352221042,122.8621584220964 93.26688567537349,121.45354727451922 92.95782469003461,120.84985497512389 92.69291527394671,119.37415812155814 92.69291527394671,118.63630726476549 92.56046056607738,117.42891145861358 92.64876370457932,116.75813413609285 92.86952155141626,112.73344208177878 93.001976259402,112.12973411584971 93.04612782876939,110.78815697497339 92.86952155141626,109.98320811946178 92.86952155141626,109.3124159333529 92.7370668433141,108.64162240820588 92.91367312066723,107.23295164684532 92.69291527394671,106.62923379856511 92.03064173390158,106.49507412922685 90.48533680697437,106.025514865265 89.82306326681282,105.95843491677078 88.41021304775495,105.75719499142724 87.61548479972407,105.75719499142724 86.95321125967894,105.89135495506343 86.95321125967894,107.09879221883602 86.86490812082775,107.83666841057129 86.82075655157678,108.5074635426572 86.90905969019514,109.78197060435195 86.82075655157678,111.1235517624882 87.35057538363617,111.59310390218161 87.26227224501781,113.0688349272823 87.12981753691565,113.806698009721 87.70378793845885,115.014106831135 88.8075771718286,115.75196564165526 90.17627582140267,116.02027753478615 91.41251976310741,115.41657547422801 91.80988388706464,114.87995050946483 92.03064173390158,114.27624640020076 92.11894487263635,110.45276185270632 92.33970271924045,108.57454298218363 92.33970271924045,107.90374798391713 92.03064173390158,107.36711102144909 91.41251976310741,106.89755297609372 90.79439779231325,106.62923379856511 89.3373960040044,106.49507412922685 88.63097089459188,106.76339341400308 88.05700049304869,107.09879221883602 87.61548479972407,107.63542960988707 87.35057538363617,108.17206614391762 87.26227224501781,109.51365372969303 87.35057538363617,110.18444551408174 87.30642381426878,111.45894621490152 87.21812067553401,112.80052067758515 87.35057538363617,114.27624640020076 87.70378793845885,114.87995050946483 88.27775833988562,115.4836535344657 88.89588031067979,115.8861216152145 90.30873052950483,116.02027753478615 91.54497447109316,115.81904363512876 91.85403545654844,115.2824193132401 92.07479330315255,114.54455947168753 92.20724801113829,113.806698009721 92.20724801113829,112.33097022495349 92.29555114998948,111.66018272581277 92.25139958050568,111.05647283149301 92.33970271924045,110.45276185270632 92.29555114998948,108.37330462317914 92.16309644188732,107.76958882377949 91.80988388706464,107.16587193956366 90.70609465357848,106.49507412922685 89.99966954404954,106.36091440645396 88.14530363178346,106.69631361294887 87.35057538363617,107.7025092234835 87.26227224501781,108.57454298218363 87.35057538363617,111.45894621490152 87.26227224501781,112.19681283220416 87.35057538363617,112.93467782950029 87.21812067553401,113.53838434905629 87.12981753691565,114.14208978414536 87.48303009162191,114.6787159270898 87.88039421569556,115.14826309907949 88.45436461723875,115.55073158131563 89.0724865879165,115.95319958170876 89.69060855871066,116.0873554747086 90.35288209898863,116.02027753478615 90.97100406966638,116.0873554747086 91.54497447109316,115.75196564165526 92.11894487263635,114.47748122378835 92.29555114998948,110.9893938874884 92.11894487263635,108.03790709088207 91.98649016453419,107.43419068853837 91.41251976310741,106.96463273698464 90.70609465357848,106.56215397044434 89.38154757337179,106.4279942746216 88.71927403332666,106.56215397044434 88.18945520115085,107.09879221883602 87.70378793845885,107.63542960988707 87.52718166110571,108.37330462317914 87.39472695300356,109.78197060435195 87.43887852237094,110.45276185270632 87.30642381426878,111.79434033267898 87.30642381426878,112.53220621371293 87.21812067553401,113.20299197203713 87.39472695300356,114.54455947168753 87.65963636897504,115.21534121283912 88.67512246384285,116.0873554747086 89.3373960040044,116.15443340101046 91.28006505512167,116.02027753478615 91.72158074844629,115.61780961495242 91.94233859505039,114.94702867700835 92.07479330315255,113.53838434905629 92.11894487263635,112.93467782950029 92.03064173390158,112.33097022495349 92.25139958050568,111.72726153579424 92.16309644188732,110.38568278815364 92.20724801113829,111.05647283149301 92.33970271924045,111.66018272581277 92.38385428849142,113.60546278420952 92.29555114998948,114.20916809875052 92.03064173390158,114.81287232870818" stroke="#4dd2ff" stroke-linecap="round" stroke-linejoin="round" stroke-width="0.5"><title>2022-05-04 3.2km</title></polyline><polyline fill="none" points="172.95336366072297,123.59999999997672 168.83572931401432,113.44946400553454 169.37956781266257,82.05251707445132 159.20201876736246,80.40000000002328 159.12432755320333,93.14786924992222 161.99890247453004,98.22333328734385 167.28190503222868,96.21675968897762 167.9811259591952,84.76735652732896 165.26193346618675,81.46233293507248 160.21200455049984,83.58699307934148 160.4450781927444,96.45282752451021 163.24196189991198,98.1052997346269 167.6703611027915,95.39052152226213 167.82574353087693,83.58699307934148 163.86349161248654,81.46233293507248 160.28969576442614,83.94110236107372 159.90123969409615,95.39052152226213 162.1542849028483,97.7511989356135 165.49500710819848,97.86923255905276 167.82574353087693,95.39052152226213 167.82574353087693,83.70502953010146 162.85350582934916,81.69840666168602 159.97893090802245,85.1214651017217 160.21200455049984,96.21675968897762 166.34961046348326,98.1052997346269 168.29189081536606,95.9806917590322 168.44727324368432,84.17717509769136 166.03884560684673,81.58036981045734 162.69812340126373,81.46233293507248 159.51278362353332,85.35753736720653 160.28969576442614,96.09872573567554 165.41731589427218,98.45940032153158 168.3695820295252,95.03641909745056 167.59266988863237,82.40662727534072 165.72808075044304,81.10822216887027 160.4450781927444,82.1705538315 159.04663633927703,93.50197280570865 161.53275518980809,98.1052997346269 167.12652260437608,97.51513161836192 168.52496445784345,88.42646824056283 167.04883138998412,82.52466396172531 162.1542849028483,81.46233293507248 159.66816605185159,86.77396898024017 159.51278362353332,95.50855561695062 161.84352004621178,97.86923255905276 166.2719192490913,97.51513161836192 167.9811259591952,94.68231646064669 167.82574353087693,84.41324774018722 160.4450781927444,83.46895660489099 159.3574011954479,88.78057462419383" stroke="#4dd2ff" stroke-linecap="round" stroke-linejoin="round" stroke-width="0.5"><title>2022-03-10 3.4km</title></polyline><polyline fill="none" points="37.93667983380146,162.4067229697539 35.59419265971519,156.87090394250117 35.72433083620854,130.37719899590593 32.340738251572475,128.5977202548238 27.00507302186452,128.39999999999418 27.070142110111192,139.76878642229713 29.217422019457445,143.22880005164188 32.92636004509404,142.8333711460291 34.227741808397695,141.25165236651083 34.74829451367259,131.16807638364844 30.77908013551496,129.0920205464936 27.590694815386087,131.26693596850964 27.46055663912557,141.05393716381514 31.755116458050907,143.22880005164188 34.48801816091873,140.6585065216059 34.48801816091873,130.67377816452063 30.77908013551496,129.28974052527337 27.590694815386087,131.4646550786565 27.46055663912557,140.55964881181717 30.258527430240065,143.22880005164188 34.35787998489104,140.85622188213165 34.618156337412074,131.76123359586927 32.92636004509404,129.4874604245997 29.152352931443602,129.6851802453166 27.85097116813995,130.97035715528182 27.46055663912557,140.16421777495998 30.77908013551496,143.32765722853946 34.227741808397695,141.54822502241586 34.48801816091873,131.76123359586927 33.64212001487613,129.98175982839894 30.648941959254444,129.1908805455314 27.590694815386087,131.662374109932 27.916040256153792,141.64708253505523 32.01539281080477,143.32765722853946 34.94350177817978,140.85622188213165 33.64212001487613,129.58632034470793 29.54276746045798,129.1908805455314 27.590694815386087,131.76123359586927 27.65576390363276,141.05393716381514 29.93318198923953,143.0310856383294 32.991429133107886,143.12994285472087 34.55308724939823,140.46079108206322 34.032534543890506,130.47605873833527 28.566731137922034,129.78404012596002 26.679727580863982,135.81445553005324 26.354382140329108,132.25553072977345 26.679727580863982,128.39999999999418 35.659261748194695,128.89430048898794 36.04967627697624,150.14875478780596 37.48119621677324,160.72621302068 41.64561785943806,170.11722492522676 40.99492697766982,171.60000000000582" stroke="#4dd2ff" stroke-linecap="round" stroke-linejoin="round" stroke-width="0.5"><title>2022-03-08 3.7km</title></polyline><polyline fill="none" points="111.17660511331633,131.5903455542575 110.73916460003238,130.92569275188725 112.3576944990782,131.45741510007065 112.09523019124754,129.7957799421274 113.5825279362034,129.39698627023608 112.44518260180485,128.40000000002328 111.57030157523695,131.05862341856118 112.27020639646798,128.66586329741403 112.22646234510466,130.19457313645398 108.07077746931463,130.46043500042288 107.76456911012065,131.98913659882965 108.9019144445192,134.64773135370342 109.5580752142705,144.35142203446594 107.72082505875733,144.41788469391759 103.69637233694084,141.69290477325558 103.39016397763044,142.35753607895458 103.74011638830416,156.58032800036017 105.1399260306498,167.41316840003128 102.42779484868515,169.207531247288 93.8539607890416,171.60000000000582 92.10419873613864,167.28025224880548 92.45415114681236,154.65297590140835 86.50496016663965,153.7889868557104 86.63619232061319,161.0331332848 88.21097816841211,163.42566078095115 90.0919723752886,163.5585784711002 91.49178201763425,162.36231734981993 91.62301417160779,155.78280434713815 90.31069263187237,154.38713335702778 88.91088298941031,154.32067268787068 87.07363283389714,156.1151061015844 87.24860903911758,162.6946125368122 89.30457945133094,163.5585784711002 91.49178201763425,162.49523546430282 91.53552606888115,156.18156641258975 90.26694858062547,154.58651528524933 87.2923530904809,155.3840418041218 87.20486498787068,161.4318890616123 88.8233948869165,163.3592019159114 91.6667582228547,162.09648096130695 91.62301417160779,156.58032800036017 90.48566883709282,154.52005465567345 87.51107334718108,154.918818233622 87.02988878265023,161.83064436053974 88.64841868157964,163.62503729615128 91.44803796627093,162.22939918210614 91.62301417160779,155.84926472447114 91.14182960707694,154.71943650447065 89.30457945133094,154.187751309335 87.24860903911758,155.64988355254172 87.02988878265023,161.9635626874806 88.21097816841211,163.49211963274865 89.65453186212108,163.62503729615128 91.62301417160779,162.09648096130695 91.62301417160779,156.04864577695844 90.48566883709282,154.58651528524933 87.51107334718108,155.05173932012985 86.67993637197651,158.77350819544517 86.41747206391301,153.6560652650369 92.62912735203281,153.19083927985048 95.47249068808742,136.8410560429911 96.65358007373288,136.37580655887723 101.11547330894973,138.76851126478869 102.25281864323188,138.2368005940225 102.5590270026587,135.9770207692054 108.42072987998836,136.44227081065765 109.99551572755445,135.04651873576222 112.97011121769901,135.8440920666617 112.62015880702529,129.7957799421274 112.27020639646798,131.39094985308475 110.60793244605884,131.19155403214972" stroke="#4dd2ff" stroke-linecap="round" stroke-linejoin="round" stroke-width="0.5"><title>2021-12-30 4.7km</title></polyline><polyline fill="none" points="172.96219485090114,171.60000000000582 167.6855840163771,158.3508711908944 169.15130924806,129.73613261681749 159.33095019496977,128.40000000002328 159.25766393356025,141.7611821348255 161.96925561246462,144.7674040060083 165.2671373838093,144.65606274400488 167.46572523145005,142.09520758723374 167.8321565396618,131.62898167801904 164.46098850644194,129.06806670859805 160.5035303805489,130.4041977247398 159.33095019496977,141.53849838871974 162.40897318185307,144.5447214600863 164.82741981442086,144.7674040060083 167.17258018511347,142.6519162300974 167.75887027778663,131.51763779352768 165.41370990709402,129.29075543332146 161.1631067348644,129.95882107515354 159.03780514886603,140.87044661672553 161.456251781201,144.65606274400488 165.5602824301459,144.21069747427828 167.75887027778663,141.98386579184444 167.8321565396618,132.1857007679355 165.04727859888226,129.17941108206287 159.77066776459105,130.73822997888783 159.40423645661213,141.98386579184444 162.62883196678013,144.65606274400488 167.17258018511347,142.54057454614667 167.6855840163771,131.51763779352768 163.4349808441475,128.6226889915124 159.91724028787576,130.84957401902648 159.33095019496977,141.98386579184444 161.38296551955864,144.43338015390327 166.7328626154922,143.2086243176891 168.05201532435603,132.51973195493338 167.31915270839818,130.4041977247398 164.02127093682066,129.29075543332146 160.28367159585468,131.18360600611777 159.55080897989683,142.54057454614667 161.74939682753757,144.65606274400488 166.07328626140952,144.32203882519389 167.46572523145005,142.6519162300974 167.75887027778663,132.40838824794628 165.92671373812482,129.06806670859805 159.47752271825448,129.95882107515354 159.47752271825448,142.87459953181678" stroke="#4dd2ff" stroke-linecap="round" stroke-linejoin="round" stroke-width="0.5"><title>2021-12-27 3.1km</title></polyline><polyline fill="none" points="41.0094402465038,219.59999999997672 43.52225844794884,179.01214568980504 24.477741551585495,176.40000000002328 27.122813343070447,203.7267271024175 31.487181798554957,207.94622913462808 37.438593328464776,208.3480855480302 41.40620101522654,204.32951418921584 40.87718665692955,184.035483731539 32.80971769383177,178.81121164635988 26.99055975303054,182.628951606981 28.974363596644253,202.92301042337203 34.13225358957425,208.3480855480302 40.744933066889644,204.93230091611622 40.215918709058315,184.035483731539 33.603239230811596,179.41401365533238 27.122813343070447,182.82988488784758 29.503377954941243,205.3341585333692 36.64507179101929,208.5490136956214 41.14169383561239,204.73137204768136 40.215918709058315,184.6382826117915 33.86774641042575,179.41401365533238 29.767885134089738,179.8158814611961 26.461545394733548,184.43734969198704 27.651827700901777,203.7267271024175 34.39676076825708,207.74530086718732 41.0094402465038,204.93230091611622 40.744933066889644,185.24108113144757 32.94197128340602,179.61494757881155 26.593798984773457,184.23641673161183 27.651827700901777,202.92301042337203 33.603239230811596,207.74530086718732 39.29014358203858,206.94158739753766 41.802961783949286,201.11464555124985 40.34817229863256,184.035483731539 31.88394256681204,179.21307969256304 27.784081290476024,180.82055027305614 26.726052574347705,185.04014833195833 27.784081290476024,203.7267271024175 36.64507179101929,208.95086986821843 41.40620101522654,202.52115184388822 40.08366511948407,183.03081812890014 35.19028230570257,179.21307969256304 29.238870775327086,179.61494757881155 25.40351667860523,186.64760960580315 27.122813343070447,204.73137204768136 35.58704307442531,208.1471573613817 41.53845460433513,202.72208115371177 41.802961783949286,183.8345506914775 32.545210514683276,178.20840927632526 26.461545394733548,181.82521808188176 26.461545394733548,202.72208115371177 32.41295692510903,207.94622913462808 40.87718665692955,202.92301042337203 40.61267947778106,184.83921549131628 38.89338281331584,181.2224175169831 31.619435387663543,179.01214568980504 26.064784626010805,183.23175132955657" stroke="#4dd2ff" stroke-linecap="round" stroke-linejoin="round" stroke-width="0.5"><title>2021-12-07 3.6km</title></polyline><polyline fill="none" points="103.60175785492174,197.48200399940833 101.70609582588077,177.8976541121665 93.9717947486788,176.40000000002328 92.5310916067101,179.7409153758781 93.2893564181868,192.52837829227792 97.45981288165785,194.71719489456154 100.79617805220187,193.79558891622582 101.8577487883158,191.60676881839754 101.1753104578238,179.85611900954973 94.57840659772046,178.35846998007037 92.75857105036266,185.15546128939604 94.7300595601555,194.02599054848542 100.11373972170986,194.486793537857 102.00940175075084,186.99869937138283 100.56869860878214,179.39530433740583 94.57840659772046,179.28010061202804 93.21352993720211,188.4963259777869 95.18501844722778,193.68038806520053 97.91477176873013,195.75399986139382 100.94783101440407,194.94759615923977 101.47861638269387,183.31221732022823 100.11373972170986,179.97132262011291 94.57840659772046,178.81928548013093 92.68274456914514,184.11863728109165 95.18501844722778,194.83239553822204 100.79617805220187,194.6019942278799 101.1753104578238,180.6625438000192 98.14225121191703,178.70408163944376 94.7300595601555,179.39530433740583 92.98605049378239,183.08181141037494 95.26084492821246,194.486793537857 99.88626027829014,194.71719489456154 101.32696342025883,192.98918247775873 101.8577487883158,182.85140540791326 98.82468954240903,178.81928548013093 94.57840659772046,179.5105080397916 93.21352993720211,181.3537641518633 93.51683586183935,191.95237254386302 96.70154807018116,195.177997331979 100.18956620292738,194.6019942278799 101.40278990124352,192.98918247775873 101.78192230733112,182.27539000057732 99.5071278726682,179.39530433740583 96.47406862676144,178.70408163944376 93.59266234305687,182.1601868495345 93.66848882427439,193.10438346638693 97.83894528727978,194.94759615923977 101.63026934489608,191.72197008301737 101.1753104578238,181.3537641518633 96.09493622090667,179.0496930918307 93.59266234305687,182.85140540791326 94.65423307917081,193.79558891622582 97.68729232507758,195.06279675726546 101.55444286367856,192.87398146581836 101.47861638269387,181.81457726005465 100.03791324072517,179.5105080397916 96.85320103238337,178.81928548013093 94.12344771111384,180.54734032734996 92.98605049378239,183.65782601278624 92.68274456914514,193.56518719159067 92.5310916067101,177.66724604048068 102.54018711880781,177.32163375988603 103.22262544883415,203.01158247128478 107.4689083932899,219.60000000000582" stroke="#4dd2ff" stroke-linecap="round" stroke-linejoin="round" stroke-width="0.5"><title>2021-12-06 4.4km</title></polyline><polyline fill="none" points="178.37967141147237,176.39999999999418 172.8953438613098,178.09896340419073 171.56419639789965,180.36423686210765 165.2811803696677,180.7687486470095 160.91501668898854,187.5644862561021 159.58386922546197,193.9556116804306 160.59554129769094,201.96460123357247 159.10465613845736,209.0835701742326 154.312525269459,207.22294263661024 150.15934518317226,207.30383966382942 149.94636158901267,216.1215188022761 151.65023034228943,219.0337376537791 154.41901706671342,219.43821083870716 156.8683283997234,217.49673586792778 157.02806609519757,209.8925360040448 155.0047219506232,207.62742761083064 153.30085319734644,207.38473667492508 151.06452545837965,209.24536346941022 150.69180416851304,217.41584087567753 152.98137780604884,219.60000000000582 155.4839350375114,219.35731623406173 156.81508250103798,217.41584087567753 156.8683283997234,210.45881112403003 154.25927937100641,207.62742761083064 150.95803366112523,209.32626009272644 150.37232877721544,216.84957547739032 153.30085319734644,219.51910542763653 156.3891153128352,217.82031567551894 156.8683283997234,210.13522543822182 155.27095144346822,207.95101529930253 152.928131907247,207.30383966382942 151.01127955992706,209.0835701742326 150.63855827006046,217.09226074488834 153.83331218280364,219.60000000000582 156.3358694142662,218.14389522516285 156.60209890687838,209.48805329101742 153.40734499425162,207.46563366963528 151.06452545837965,209.32626009272644 151.01127955992706,216.44509970818763 152.18268932774663,218.71015881485073 153.9398039797088,219.19552697610925 156.3358694142662,217.9012105872098 156.8683283997234,209.32626009272644 154.6320006607566,207.30383966382942 152.76839421188924,208.19370589609025 151.22426315397024,209.97343249808182 150.79829596576747,213.04748730998836 150.47882057446986,209.0026735025167 158.67868895025458,206.33307427281397 161.55396747158375,188.37349504677695 165.12144267407712,184.9756472723093 172.25639307894744,182.54859570338158 178.69914680276997,184.49023812144878 175.7706223827554,181.01145552421804 179.39134348381776,177.69444895384368 182.05363841110375,177.61354601552011" stroke="#4dd2ff" stroke-linecap="round" stroke-linejoin="round" stroke-width="0.5"><title>2021-11-11 3.8km</title></polyline><polyline fill="none" points="49.05878990050405,226.34422237887338 50.31467639101902,224.86805545132665 49.41422947321553,224.40000000000873 47.37637592264218,224.4720086099842 45.50439417257439,225.73215463155066 42.8978373054415,226.3082184511877 41.28651124215685,228.43243788235122 40.338672381360084,228.68446225604566 36.09709347947501,226.05619075649884 31.973994435102213,226.34422237887338 26.618704871681985,225.5881383890519 25.50499421026325,225.91217477287864 24.414979520486668,228.25242025684565 23.396052745112684,228.93648627755465 22.661477628047578,232.28477199601184 24.841507007775363,246.50529281508352 24.65193923562765,258.8168380902789 27.424367903440725,266.9520764390327 24.178019805287477,267.6000000000058 23.13539705844596,264.90030314012256 20.552536162780598,252.4091796396533 17.68532360898098,246.64929235415184 18.514682612090837,246.00129352268414 20.528840191313066,245.8212934339681 24.533459377998952,246.57729259900225 23.467140659689903,236.3890374237235" stroke="#4dd2ff" stroke-linecap="round" stroke-linejoin="round" stroke-width="0.5"><title>2021-11-07 3.5km</title></polyline><polyline fill="none" points="116.14509953954257,224.40000000000873 115.04642886552028,224.48053034074837 111.67002630617935,228.38621402799617 109.28510703810025,227.5809244910779 105.721126558783,232.93604068896093 105.88190763309831,234.3855218514218 101.78199023957131,237.04287745674083 96.23504317790503,242.0353921285714 89.93778443621704,250.32914060819894 88.57114530511899,253.8317397860519 84.41763422026997,259.74978910258505 84.01568153465632,261.3198552456597 84.47122791170841,263.3327430293284 86.26661657419754,265.78843945609697 89.5358317506616,267.2779459579615 92.2423131672549,267.6000000000058 89.16067591076717,267.35845951584633 85.67708596854936,265.1443251963792 84.52482160308864,263.6145457474486 83.85490046039922,261.4406290681072 84.20325945463264,259.95108030346455 88.59794215089642,254.03303677738586 88.91950429935241,251.818759040616 93.07301538420143,245.9004815667431 96.85137062915601,241.39120349528093 105.74792340456042,233.98288921956555 109.07073227240471,227.41986620536773 109.76745026081335,227.218543170864 111.64322946046013,228.54727155700675 115.31439732259605,224.52079549932387 115.93072477390524,224.48053034074837 115.47517839685315,224.88318157204776" stroke="#4dd2ff" stroke-linecap="round" stroke-linejoin="round" stroke-width="0.5"><title>2016-05-06 3.5km</title></polyline></svg>