<?xml version="1.0" encoding="utf-8" ?>
<svg baseProfile="full" height="300mm" version="1.1" viewBox="0,0,200,300" width="200mm" xmlns="http://www.w3.org/2000/svg" xmlns:ev="http://www.w3.org/2001/xml-events" xmlns:xlink="http://www.w3.org/1999/xlink"><defs /><rect fill="#222222" height="300" width="200" x="0" y="0" /><text fill="#FFFFFF" style="font-size:12px; font-family:Arial; font-weight:bold;" x="10" y="20">Over 3kms Workouts</text><text fill="#FFFFFF" style="font-size:4px; font-family:Arial" x="10" y="280">ATHLETE</text><text fill="#FFFFFF" style="font-size:9px; font-family:Arial" x="10" y="290">underwindfall</text><text fill="#FFFFFF" style="font-size:4px; font-family:Arial" x="120" y="280">STATISTICS</text><text fill="#FFFFFF" style="font-size:3px; font-family:Arial" x="120" y="285">Number: 18</text><text fill="#FFFFFF" style="font-size:3px; font-family:Arial" x="120" y="290">Weekly: 1.8</text><text fill="#FFFFFF" style="font-size:3px; font-family:Arial" x="141" y="285">Total: 68.2 km</text><text fill="#FFFFFF" style="font-size:3px; font-family:Arial" x="141" y="290">Avg: 3.8 km</text><text fill="#FFFFFF" style="font-size:3px; font-family:Arial" x="167" y="285">Min: 3.0 km</text><text fill="#FFFFFF" style="font-size:3px; font-family:Arial" x="167" y="290">Max: 5.2 km</text><polyline fill="none" points="34.19696994230617,34.60030383049161 34.30437310319394,34.704761186105316 34.497698792722076,34.9920186540985 34.36881499981973,34.9920186540985 34.21845057455357,34.809218491311185 34.06808614928741,34.730875517154345 33.6599541377509,34.704761186105316 33.42366718384437,34.62641817408439 33.101457701064646,34.39138896802615 32.951093275798485,34.18247390385659 32.75776758627035,33.84298649447737 32.65036442526616,33.55572750142892 32.628883793135174,33.34681163055939 32.75776758627035,33.19012459507212 33.35922528733499,32.90286473539891 33.93920235615224,32.720062808002695 34.64806321810465,32.35445849002281 35.07767586177215,32.25 35.44284660881385,32.30222925130511 35.67913356272038,32.40668771606579 35.786536723724566,32.5111461305205 36.30207189603243,33.39904061719426 37.16129718325101,34.57418948371196 37.39758413715754,35.38373276867787 37.655351723427884,35.80156037621782 37.84867741295602,36.32384375123365 37.99904183822218,37.028924308222486 38.084964366978966,37.159494529652875 38.38569321751129,37.78623049608723 38.57901890715584,38.073483874162775 39.824895573663525,40.658747120702174 40.061182527570054,41.57272168810596 40.791524021769874,43.27009278812329 40.94188844691962,43.740131662401836 41.049291607923806,44.340735405057785 41.178175400942564,44.654093217963236 41.47890425147489,45.22858136323339 42.660339021356776,47.81375914803357 43.00402913626749,48.67547821496555 43.69140936608892,50.033331601007376 43.92769631999545,50.66003029081912 43.94917695224285,50.84281706689217 43.92769631999545,50.97337895529927 44.078060745378025,51.23450249590678 44.185463906265795,51.57396262764814 44.185463906265795,51.70452407511766 44.142502641887404,51.96564673363173 44.185463906265795,52.200656857021386 44.09954137750901,52.35733013082063 43.347719251178205,52.98402209216147 42.53145522845443,53.53237607004121 39.223437872482464,56.091342932981206 37.5694291946711,57.214145375211956 35.2710015514167,58.98972804816731 32.58592252875678,60.974185565675725 31.683735977159813,61.67918583074061 26.420981092960574,65.56970155435556 25.06770126556512,66.64023388312489 24.509204828878865,67.26688449722133 23.241847530240193,69.04238472033467 22.167815921246074,70.63510047191812 20.81453609385062,72.75 20.900458622490987,72.69778050736932 21.308590634027496,72.01892595637764 21.953009599354118,71.15729980706237 22.72631235793233,69.90401928663778 23.091483105090447,69.43403722101357 23.90774712781422,68.18074672474177 24.229956610593945,67.6063194892049 24.831414311542176,66.84911762269621 25.73360086325556,66.11802365236508 28.955695690354332,63.74195119741489 29.535672759171575,63.298066638977616 30.072688563726842,62.801959290736704 32.30667431035545,61.26140817310079 33.23034149419982,60.50418411348073 35.700614194967784,58.67639098771906 36.17318810289726,58.258607534866314 37.01093275786843,57.73637708497699 37.805716148694046,57.16192213486647 38.51457701064646,56.48301886492118 39.84637620579451,55.569107254515984 41.156694768811576,54.550744057720294" stroke="#4dd2ff" stroke-linecap="round" stroke-linejoin="round" stroke-width="0.5"><title>2022-07-01 3.7km</title></polyline><polyline fill="none" points="81.25543319841381,33.27165923303983 81.90322354034288,32.97367590133217 82.06079416407738,32.99496044169064 82.28839617606718,33.12266763011576 82.34091971733142,33.10138310509501 82.76110804727068,32.888537714097765 83.30385130667128,32.441561556988745 83.58397685998352,32.31385387547198 83.89911810733611,32.25 83.9866573428153,32.31385387547198 84.12672011944233,32.50541536304809 84.38933782553067,33.03752951478236 84.58192414348014,33.31422823933826 84.72198692004895,33.59092652985419 85.17719094414497,34.82542130725051 85.7724577448098,35.86834981791617 86.00005975685781,36.42173795233248 86.07009114517132,36.76228363363771 86.14012253348483,36.9751243507053 86.24516961595509,37.145396739360876 86.4727716280031,37.44337302412896 86.66535794583615,37.82648465076636 86.80542072252138,38.40115053055342 87.06803842866793,39.08223359359545 87.47071891155792,39.97615112333733 87.64579738228349,40.699795329768676 87.80336800601799,41.104183446383104 87.8733993943315,41.35958598981961 88.06598571216455,41.78525607381016 88.22355633589905,42.27477540062682 89.886801808374,45.7865046604129 89.95683319674572,45.9780515187158 89.93932534963824,46.16959816907183 90.16692736162804,46.61653954444046 90.16692736162804,46.722953990800306 90.11440382042201,46.87193410782493 90.21945090289228,47.02091409899003 90.201943055843,47.08476262811746 89.58916840801248,47.59555002943671 88.67876035999507,48.276597597505315 87.8733993943315,48.9363599219796 86.78791287535569,49.72381495065929 85.63239496812457,50.617678561931825 84.91457323799841,51.10717338245013 83.54896116576856,52.171287872377434 81.18540181015851,53.95898576786567 80.0999152911827,54.70385454517964 79.18950724310707,55.47000200704497 78.4716855129227,55.980765133324894 77.80638732388616,56.55537188316521 77.10607344069285,57.00228695044643 76.93099496996729,57.151258387981215 76.68588511087,57.25766648068384 76.03809476894094,57.78970598144224 74.93510040297406,58.598402950301534 74.56743561424082,58.832498749558 74.35734144930029,59.0240314451803 74.11223159020301,59.343252142556594 73.79709034279222,59.85400405719702 73.23683923628414,60.59884794932441 72.81665090634488,61.27984532783739 72.41397042351309,61.79059163693455 70.41807585651986,64.8550384475966 69.71776197338477,65.72754482040182 68.98243239609292,66.40852240653476 68.56224406621186,66.85541251934774 65.1832295799395,71.17529193212977 65.04316680331249,71.51577054275549 64.97313541494077,71.83496864371409 64.86808833252871,72.04776705689437 64.78054909710772,72.43080355413258 65.02565895626321,72.49464288941817 65.16572173294844,72.34568440435396 65.1832295799395,72.23928540945053 65.20073742704699,72.28184501512442 65.28827666240977,72.324404610481 65.49837082740851,72.09032670878514 65.51587867445778,72.09032670878514 65.51587867445778,72.13288635034405 65.58591006277129,72.13288635034405 65.60341790987877,72.15416616732546 65.58591006277129,72.21800560274278 65.14821388578275,72.75 65.20073742704699,72.72872025491961 65.16572173294844,72.72872025491961 65.1832295799395,72.6861607570172 65.55089436861454,72.23928540945053 65.69095714524155,71.98392755989335 65.81351207476109,71.85624849659507 66.3562553342199,71.21785179432482 66.75893581705168,70.64329278781952 67.80940664181253,69.30264783122402 68.05451650096802,68.9408847487939 68.38716559542809,68.6004011703044 68.66729114868212,68.17479577328777 69.19252656103345,67.57894649299851 69.85782475001179,66.66388832386292 71.46854668128071,64.64223136082 71.52107022248674,64.53582772122172 71.50356237543747,64.42942401742039 71.3284839046537,64.25917795790883 71.15340543386992,64.00380856063566 71.1709132809192,63.87612372341391 71.34599175181938,63.493068657422555 72.01128994079772,62.53542735452356 72.30892334110104,62.045964237171574 72.71160382387461,61.51393756971811 73.07926861254964,60.896784625801956 73.60450402495917,60.1732232531067" stroke="#4dd2ff" stroke-linecap="round" stroke-linejoin="round" stroke-width="0.5"><title>2022-06-30 3.9km</title></polyline><polyline fill="none" points="111.88470987603068,40.37372869433602 112.81194907356985,42.70586176760844 113.54734567855485,44.18287064926699 115.11406018480193,47.56441811856348 115.56169290083926,48.38064839731669 115.68958796269726,48.49725255405065 115.78550925897434,48.53612059695297 115.81748302432243,48.30291226945701 115.65761419723276,47.75875884870766 114.76234876504168,45.7376095255604 114.69840123434551,45.42666235048091 114.73037499957718,45.15458332610433 114.98616512306035,44.84363558833138 115.56169290083926,44.493819024792174 116.90459104895126,43.83305336814374 118.8549907405395,42.97794285984128 119.39854475285392,42.66699302132474 119.46249228378292,42.39491166648804 119.43051851843484,42.122830081760185 118.91893827135209,40.956763545196736 118.75906944426242,40.529204757651314 118.79104320972692,40.25712159747491 118.91893827135209,40.02390727723832 119.14275462948717,39.82956188148819 119.75025617261417,39.47973987358273 122.78776388894767,37.96384011692135 124.16263580252416,37.18645285957609 125.82527160504833,35.86489021690795 129.726070987992,32.48321994775324 130.14172993856482,32.28887000310351 130.42949382739607,32.25 130.62133642006665,32.40547998389229 130.84515277808532,32.833049552718876 131.35673302505165,34.348973451327765 132.4438410497969,36.797758527391125 132.89147376583423,38.23592521387036 133.14726388920099,38.89670234970981 136.88819444493856,47.331209087657044 137.4637222228339,49.11914067735779 137.55964351911098,49.93536701751873 137.4637222228339,50.12970631761709 137.11201080307364,50.47951676216326 135.83306018577423,51.41234275791794 132.89147376583423,53.705528517166385 128.31922530883458,57.0092420191213 126.20895679027308,58.64165265741758 124.29053086426575,60.23518839874305 121.89249845675658,62.02304838600685 121.60473456780892,62.411712287925184 121.57276080234442,63.07243984541856 121.22104938258417,63.88863083993783 120.9972330245655,64.74368585500633 120.64552160468884,65.09348043444334 117.48011882684659,67.42543459378066 116.93656481453218,67.85295769246295 116.90459104895126,67.89182340051048 116.96853857999668,67.85295769246295 116.90459104895126,67.89182340051048 116.90459104895126,67.85295769246295 116.96853857999668,67.85295769246295 116.90459104895126,67.9306891039887 116.55287962930743,68.08615187075338 115.17800771561451,69.17438913852675 114.76234876504168,69.36871683530626 114.53853240702301,69.40758236052352 114.28274228365626,69.32985130528687 113.67524074041285,68.98006132457522 113.38747685146518,68.90233016616548 112.90787036996335,68.86346457983018 112.55615895008668,68.94119574764045 109.10299228329677,71.42858321644599 108.62338580179494,71.85610100414488 107.95193672785535,72.6334046194388 107.69614660425577,72.75 107.5043040117016,72.6334046194388 107.4403564807726,72.361348567385 107.4723302462371,71.27312206223723 107.53627777704969,70.84560350116226 107.66417283890769,70.5735459397838 107.98391049308702,70.379218969465 108.8152283943491,70.22375730896601 109.13496604887769,70.1071610142535 109.32680864154827,69.95169922255445 109.7104938266566,69.40758236052352 110.4458904316416,68.78573339330615 110.73365432047285,68.43594282187405 110.82957561674993,68.12501755080302 110.82957561674993,67.46430035351659 111.0533919747686,66.92017929136637 111.0533919747686,66.25945962360129 111.21326080197468,65.3266766097804 111.18128703651018,65.05461438879138 111.02141820942052,64.54935536900302 111.0533919747686,64.00522938466747 110.98944444395602,63.88863083993783 110.82957561674993,63.77203225303674 110.22207407362293,63.61656740482431 109.93431018467527,63.61656740482431 108.65535956725944,64.47162314181332 108.1757530857576,64.16069404539303 108.01588425866794,64.12182788731297 107.85601543157827,64.16069404539303 107.72812036972027,64.39389089582255 107.66417283890769,64.78255193808582 107.69614660425577,67.1145083475858 107.88798919680994,67.77522626216523 108.27167438203469,68.31934588038712 108.71930709807202,68.59140534495236 109.13496604887769,68.66913657839177 109.83838888828177,68.43594282187405 110.09417901176494,67.9306891039887 110.4139166661771,67.69749481312465 110.66970678966027,67.69749481312465 111.1173395056976,68.00842049680068 111.82076234510168,67.81409197958419 112.07655246870127,67.9306891039887 112.30036882671993,68.24161456272122 112.36431635764893,68.47480845972314 112.39629012299702,68.86346457983018 112.5881327156676,68.86346457983018 113.13168672798201,68.59140534495236 114.69840123434551,67.34770306036808 116.39301080221776,66.18172780901659 118.43933178996667,64.51048925772193 119.97407253074925,63.461102481523994 125.56948148156516,59.26352120141382" stroke="#4dd2ff" stroke-linecap="round" stroke-linejoin="round" stroke-width="0.5"><title>2022-06-19 4.7km</title></polyline><polyline fill="none" points="147.25,44.959361397253815 148.25979519146495,46.58153237783699 149.70235975063406,49.475116687855916 150.2433214604389,50.83421651707613 150.60396260023117,52.23715294452268 150.9285396260675,52.982460718543734 151.18098842399195,54.03465732673067 151.7580142475199,55.30605749681126 151.9743989314884,56.05135897680884 152.51536064129323,57.235069950140314 152.9481300089974,58.331095191446366 154.85952805005945,62.364439614408184 154.89559216378257,62.58364183307276 154.85952805005945,62.97820549359312 155.1841050758958,63.81117181456648 155.11197684775107,64.42493525042664 155.25623330357485,64.64413622624124 155.40048975963145,64.64413622624124 156.22996438131668,64.20573414221872 157.42008014256135,63.32892838778207 157.6725289404858,63.02204587392043 157.96104185236618,62.53980139983469 158.2134906500578,62.32059915483114 159.47573463944718,61.531469977489905 160.55765805882402,60.654657770704944 162.50512021384202,59.38327631322318 163.08214603736997,58.94486788267386 164.01981300092302,58.37493613228435 165.2820569903124,57.366593153681606 167.44590382906608,55.7883115701552 168.02292965282686,55.262216185743455 169.7900712378323,53.85929143693647 170.61954585951753,53.33319325983757 171.1244434551336,53.07014388573589 173.14403383806348,51.49184364179382 175.23575244890526,50.00122045050375 178.84216384706087,47.19532491444261 180.10440783621743,46.2746357206197 180.78962600184605,45.88005392346531 183.96326803206466,43.42486866947729 184.61242208373733,43.03028377785813 186.0189225289505,41.80268359699403 187.06478183460422,41.10119591729017 187.64180765813217,40.57507926886319 187.75,40.39970688323956 187.53361531626433,40.35586377372965 187.56967943022028,40.48739308657241 187.4975512023084,40.57507926886319 185.73040961730294,42.02189821927459 184.9730632235296,42.59185561793856 184.17965271603316,43.07412656478118 178.55365093518049,47.458378541254206 176.10129118454643,49.16822247451637 174.33414959930815,50.52732345147524 172.92764915409498,51.711052418890176 171.44902048096992,52.675569467333844 170.04252003552392,53.85929143693647 168.02292965282686,55.218374869262334 167.48196794302203,55.7006290590507 166.65249332156964,56.226723808795214 166.1115316117648,56.708976660185726 163.08214603736997,58.94486788267386 162.07235084613785,59.734002676734235" stroke="#4dd2ff" stroke-linecap="round" stroke-linejoin="round" stroke-width="0.5"><title>2022-06-17 3.0km</title></polyline><polyline fill="none" points="35.304784405685496,81.0 35.032805311784614,81.12399420485599 34.93081315164454,81.12399420485599 34.505845817388035,81.2893196716177 34.36985627037939,81.30998534378887 33.97888632293325,81.57863885455299 33.808899389288854,81.64063575871114 33.62191376229748,81.57863885455299 33.24794250814011,81.7852951145469 33.179947734694,81.8679575486749 32.805976480594836,81.99195112513553 32.70398432039656,82.0746134595247 32.4150065331487,82.13661018418497 32.07503266574349,82.28126912105654 31.97304050560342,82.28126912105654 31.75205749180168,82.4879245331831 31.46307970455382,82.57058662828058 31.310091464198194,82.69457969600626 30.987116290198173,82.85990364673489 30.749134583049454,83.06655836068967 30.54515026259469,83.2112165120925 30.13718162185978,83.3352091160632 29.50822996714851,83.72785176969774 29.100261326355394,83.9138400809461 29.0152678595623,83.9138400809461 28.84528092580149,83.99650148778164 28.70929137885105,84.09982819025754 28.624297912057955,84.22382015091716 28.624297912057955,84.3684773248824 28.72629007231444,84.57513021858176 28.84528092580149,84.98843525799748 28.93027439265279,85.09176136201131 29.13425871304935,85.56706063759339 29.236250873247627,85.73238181558554 29.321244340157136,86.06302369278274 29.372240420256276,86.10435388263431 29.406237807008438,86.29033961318783 29.627220820751972,86.60031538197654 29.695215594256297,86.86896059454011 29.865202527900692,87.1582703521417 29.865202527900692,87.19960027764319 29.96719468809897,87.36491987989575 30.01819076819811,87.57156915821542 30.103184234991204,87.73688840142859 30.15418031514855,87.96420210026554 30.222175088652875,88.02619669302658 30.42615940910764,88.3981637784891 30.188177701900713,88.50148782550241 30.01819076819811,88.52215262748359 29.661218207504135,88.62547659970005 29.287246953346767,88.85278911923524 28.55630313855363,89.14209552599641 27.672371083463077,89.6173835619411 27.451388069661334,89.67937755641469 27.06041812215699,89.8860240423819 26.414467774156947,90.09267027910391 26.176486067066435,90.25798708897491 26.091492600215133,90.44396830927872 25.97250174661167,90.50596200456494 25.97250174661167,90.67127841552428 26.006499133363832,90.79526561900275 26.074493906868156,90.81593014422106 26.176486067066435,90.9192527327832 26.227482147107366,91.18789117132837 26.29547692061169,91.2912135355291 26.465463854314294,91.7458311975206 26.618452094611712,91.99380395917979 26.66944817471085,92.22111200857034 26.82243641500827,92.55174136026471 26.82243641500827,92.63439859839855 26.924428575264756,92.77904866923927 26.839435108471662,92.92369861794577 26.754441641562153,92.92369861794577 26.29547692061169,93.08901269553462 26.176486067066435,93.19233391288435 26.091492600215133,93.212998148927 26.006499133363832,93.35764773115807 26.02349782671081,93.50229719124036 26.091492600215133,93.58495397074148 26.091492600215133,93.79159574498772 26.26147953385953,94.1015579389059 26.26147953385953,94.14288618903083 26.21048345376039,94.22554265942017 25.76851742627332,94.41151957193506 25.44554225221509,94.49417591268138 25.054572304768953,94.76280874466465 24.765594517521095,94.86612895241706 24.680601050611585,94.92812104723998 24.527612810314167,95.15542520278541 24.59560758381849,95.34140110571752 24.663602357264608,95.42405699771189 24.748595824174117,95.77534409394138 24.952580144628882,96.20928598288447 25.02057491801679,96.3952607416868 25.36054878536379,97.03583892076858 25.428543558868114,97.15982151738717 25.46254094556207,97.15982151738717 25.54753441241337,97.28380402436596 25.64952657261165,97.51110505402903 25.81951350637246,97.63508730672766 25.904506973165553,97.80039683743962 25.955503053264692,97.8417241951247 26.05749521352118,97.88305154289992 26.159487373719458,97.96570620854618 26.227482147107366,97.98636986869678 26.53345862776041,98.25499722416862 26.72044425480999,98.31698809249792 27.00942204205785,98.62694209780602 27.29839982930571,98.81291423171933 27.46838676306652,98.99888616385579 27.621375003363937,99.06087676306197 27.723367163562216,99.16419437844888 27.740365856909193,99.26751193153905 28.012344950810075,99.43281988684612 28.31832143140491,99.7427718731924 28.760287459008396,99.92874279577518 29.032266552909277,100.09405011305353 28.94727308599977,100.46599099361629 28.998269166098908,100.56930776158697 29.474232580396347,100.8999210003094 29.55922604724765,100.98257421029848 29.55922604724765,101.10655395053618 29.525228660495486,101.0858906666981 29.882201221305877,101.62313523552439 29.984193381504156,101.72645130559977 30.120182928454597,101.72645130559977 30.188177701900713,101.78844091770588 30.20517639524769,101.87109369901009 30.511152875900734,102.30502014653757 30.76613327639643,102.59430383422296 31.038112370297313,103.00756539776921 31.310091464198194,103.40016295982059 31.412083624338266,103.48281496347045 31.90504573204089,104.16469247220084 32.27901698608184,104.5986131101381 32.3300130662974,104.72259023335937 32.38100914633833,104.76391592118307 32.60199216019828,104.74325307854451 32.75498040043749,104.99120702593063 32.584993466793094,105.09452106482058 32.296015679545235,105.4044628074771 30.800130663148593,106.45826053828932 30.7151371963555,106.54091106659325 29.474232580396347,107.51205178712553 29.27024825999979,107.76000172717613 28.89627700590063,108.35921260081523 28.36931751150405,108.9997460446757 28.301322738057934,109.1237199830357 28.097338417661376,109.3303430142696 27.995346257463098,109.55762806077837 28.012344950810075,109.5369657962583 26.839435108471662,111.27258732712653 26.601453401322942,111.7271519654314 26.227482147107366,112.22303928625479 25.989500439958647,112.59495383493777 25.8705095864716,112.71892517179367 25.700522652710788,113.04951496479043 25.343550092016812,113.48341310008254 25.22455923841335,113.69003087353485 25.07157099811593,113.7933396668086 24.850587984372396,114.10326567293669 24.527612810314167,114.30988269884256 24.119644169521052,114.7851009129663 23.76267160876887,115.17767148696294 23.71167552866973,115.30164095504733 23.320705581165385,115.71487186748709 23.252710807777476,115.81817943986971 23.23571211437229,115.88016395342129 22.8107447802322,116.33471636744798 21.807821871479973,117.65704380626266 21.484846697421744,118.02894655970158 21.212867603637278,118.40084850593121 21.17887021682691,118.50415445884573 20.634912029083353,119.16531108260097 20.583915948984213,119.28927766553534 20.56691725557903,119.3512609234167 20.430927708686795,119.53721056233917 20.39693032199284,119.66117687615042 20.481923788785934,119.80580412904965 20.51592117547989,119.97109226854809 20.31193685508333,120.19836319990281 20.260940774984192,120.30166806913621 20.12495122809196,120.46695573024044 20.260940774984192,120.61158230292494 20.345934241835494,120.59092137146217 20.379931628529448,120.63224323188479 20.413929015339818,120.7355478395184 20.51592117547989,120.88017418551317 20.379931628529448,120.96281775699754 20.17594730813289,121.25206994329346 20.27793946833117,121.21074823230447 20.39693032199284,121.31405249104137 20.719905495934654,121.5 20.88989242957905,121.23140908901405 21.34885715052951,120.7355478395184 21.518844084232114,120.59092137146217 21.620836244372185,120.4049728760001 21.739827098033857,120.07439727467136 21.892815338331275,119.7644820692658 22.19879181892611,119.41324415880081 22.453772219421808,119.18597218600917 22.640757846471388,118.93803878096514 22.861740860331338,118.58679917635163 22.878739553678315,118.46283208511886 22.94673432712443,118.31820369874185 23.55868728837231,117.51241473971459 23.81366768886801,117.11984951501654 23.949657235876657,117.03720408996742 24.867586677719373,115.79751793037576 25.802514812967274,114.6404694221419 26.02349782671081,114.30988269884256 26.125489986909088,114.12392738675408 26.29547692061169,113.95863360652584 27.09441550890915,112.9462057230121 27.196407669165637,112.78091080654121 27.162410282413475,112.69826328856288 27.09441550890915,112.6156157306832 26.805437721603084,112.36767281781067 26.686446868116036,112.20237734324473 26.618452094611712,112.20237734324473 26.380470387462992,112.38833474089915 26.346473000769038,112.32634896409581 26.601453401322942,112.05774367212143 26.754441641562153,111.78913795904373 27.026420735463034,111.43788369875983 27.111414202256128,111.25192526949104 27.213406362512615,111.14861494372599 27.33239721605787,110.92133200785611 27.57037892320659,110.61140024574706 27.604376309958752,110.46676523155475 27.638373696652707,110.46676523155475 27.672371083463077,110.36345443238679 27.672371083463077,110.42544091939635 27.689369776810054,110.28080574823252 27.825359323702287,110.15683264717518 28.284324044710957,109.49564125979668 28.26732535130577,109.45431671341066 28.335320124810096,109.24769383168314 28.573301831958815,108.85510966990842 28.70929137885105,108.75179789893446 29.338243033504114,107.78066420600226 29.389239113603253,107.67735178701696 29.50822996714851,107.53271429581218 29.78020906104939,107.305426562918 30.919121516752057,106.54091106659325 31.633066638198216,105.96235653123586 31.90504573204089,105.83838030522747 32.27901698608184,105.48711384422495 32.584993466793094,105.28048617765307 32.66998693358619,105.19783504134102 33.230943814793136,104.82590443422669 33.87689416267676,104.30933280696627 34.1998693367932,104.10270372001105 34.233866723487154,104.04071494526579 34.454849737288896,103.91673732854542 34.70983013778459,103.68944479824859 35.42377525923075,103.21419580576185 35.49177003267687,103.11088063294301 35.98473214037949,102.78027166117681 36.13772038073512,102.63563003539457 36.51169163477607,102.36700954924163 38.143566198064946,101.12721723181312 38.43254398537101,100.94124761030253 38.50053875887534,100.85859438036277 38.7045230793301,100.7346144606854 39.14648910687538,100.38333753441111 39.826436841569375,99.90807936986675 40.200408095668536,99.57746421695629 41.42431401810609,98.70959640445653 42.4442356202635,97.88305154289992 42.512230393709615,97.86238787023467 43.039189888047986,97.44911389400659 43.209176821808796,97.34579524415312 43.447158528957516,97.11849399517814 43.75313500961056,96.93252002161171 43.872125863155816,96.76720965342247 44.229098423908,96.47791612514993 44.51807621115586,96.37459688955278 44.6540657581063,96.16795823133725 44.87504877184983,96.00264712532226 44.858050078502856,95.79600801838387" stroke="#4dd2ff" stroke-linecap="round" stroke-linejoin="round" stroke-width="0.5"><title>2022-06-14 5.2km</title></polyline><polyline fill="none" points="91.94843976944685,81.0 91.59859861287987,81.03543711009843 91.50530763779534,81.07087421312463 91.45866215019487,81.35437078199175 90.99220727465581,81.60242990833649 90.2692022175761,81.35437078199175 89.82607008580817,81.74417782480305 89.05641954118619,81.77961478642828 88.426705459191,81.95679948752513 88.26344625279307,82.13398401174345 87.96025058371015,82.24029464143678 87.49379570817109,82.66553652312723 87.3538592455443,83.09077738615451 87.16727729531704,83.30339743560762 85.81455815630034,83.37427072874561 85.53468523093034,83.16165076424659 85.11487584299175,83.01990397972986 84.97493938030675,82.98446726595284 84.7883574301377,83.09077738615451 84.69506645505317,83.09077738615451 84.6484209674527,83.2325241140934 84.6484209674527,83.51601723027125 84.46183901728364,84.01212909418973 84.27525706699817,84.11843859885994 83.76215670397505,84.82716700296442 83.57557475374779,84.93347601949063 82.85256969666807,84.93347601949063 82.33946933352854,84.89803968773049 81.82636897050543,84.50823957123794 81.54649604519363,84.15387508635467 81.05671842588345,83.87038298879634 80.54361806274392,83.69320019804582 80.19377690617694,83.69320019804582 79.3075126426993,83.58689043860068 78.74776679207571,83.4097073647863 78.56118484179024,83.48058061553456 78.09472996625118,83.30339743560762 77.55830685939873,83.2325241140934 77.2551111903158,83.12621407870029 76.97523826500401,83.12621407870029 76.60207436460769,82.91359381697839 75.99568302638363,82.87815708199923 75.8324238199275,82.98446726595284 75.7624555886141,82.98446726595284 75.7624555886141,82.84272033990419 75.43593717576005,82.73641007111291 75.15606425050646,82.80728359063505 74.94615955644986,82.94903054508904 74.73625486245146,83.01990397972986 74.1298635242274,82.59466294689628 73.38353572343476,82.38204204849899 72.84711261658231,82.2757315037743 72.07746207196033,82.2757315037743 71.79758914670674,82.16942089531221 71.28448878356721,82.13398401174345 70.79471116425702,81.9922364064696 70.23496531363344,81.9922364064696 68.928891662159,81.81505174074846 68.46243678661995,82.0276733184437 67.94933642348042,82.41747888256214 67.87936819216702,82.6300997385697 67.7860772170825,83.2325241140934 67.64614075439749,83.62232703220798 67.52952703554183,84.26018450602714 67.5761725231423,84.22474803988007 67.13304039137438,84.36649386222416 66.52664905315032,84.40193030015507 66.54997179692145,84.86260334895633 66.48000356566627,85.00434866180876 66.48000356566627,85.18153014374548 66.41003533429466,85.50045636556752 66.1534851526958,86.24461532123678 66.1534851526958,86.6344116243854 65.99022594629787,87.05964297856553 65.78032125235768,87.87466689347639 65.73367576475721,88.37076657464786 65.61706204590155,88.90230040844472 65.59373930207221,89.50470349597163 65.54709381458815,89.85905729823571 65.33718912058976,90.63863317311916 65.26722088921815,91.34733554263948 65.17392991413362,91.63081569829956 65.0806389390491,92.3040792531101 64.98734796384815,92.58755788068811 64.84741150127957,92.80016655422514 64.75412052613683,93.22538313717814 64.56753857590957,93.6151641101169 64.52089308842551,94.0049442272284 64.05443821288645,95.9538319731364 63.984469981573056,96.34360695460055 63.984469981573056,96.73338108009193 64.12440644414164,97.05228654619714 64.24102016305551,97.76096330827568 64.28766565065598,98.07986692813574 64.24102016305551,98.6822388691944 64.21769741934258,98.89484024267585 63.96114723774372,99.70980981529283 63.61130608111853,100.52477564614674 63.49469236220466,100.98540685197804 63.214819436951075,101.62320193277264 63.238142180664,101.72950089015649 63.1681739493506,102.33186044590548 63.238142180664,102.8279197216907 63.238142180664,102.96965068874124 63.26146492443513,103.07594883971615 63.28478766826447,103.71373640900129 63.074882974266075,104.10349435110402 63.05156023049494,104.31608923152089 63.121528461866546,104.63498107458872 63.121528461866546,104.81214296219696 63.26146492443513,105.30819530662848 63.40140138712013,105.91054271833855 63.424724130833056,106.19399961663294 63.518015106034,106.51288808614481 63.47136961843353,106.69004809940816 63.54133784980513,107.04436759554665 63.54133784980513,108.21361691500351 63.587983337347396,108.63879657625512 63.75124254380353,109.09940672658558 63.797888031287584,109.84346675225243 63.844533518888056,109.9497607871017 63.86785626265919,110.30407377672964 63.89117900637211,111.36700850246416 63.984469981573056,111.68588767903566 63.984469981573056,111.93390442030795 64.26434290682664,112.89053717645584 64.49757034459617,114.27233094509575 64.5908613196807,114.52034407270548 64.61418406351004,114.69749609455175 64.7307977823657,114.91007828744478 65.0106707077357,116.11470590499812 65.12728442653315,116.3981465093093 65.22057540161768,117.03588621452218 65.29054363298928,117.24846560701553 65.33718912058976,117.67362362840504 65.47712558327476,118.16964003305475 65.50044832698768,118.38221806797083 65.73367576475721,119.16166868461005 65.82696673984174,119.9765452153515 65.96690320252674,120.40169670306204 66.13016240898287,120.75598883163184 66.31674435915193,121.3937128810503 66.45668082183693,121.5 66.73655374714872,121.42914192791795 66.64326277206419,121.32285476654943 66.4333580780658,120.36626745137619 66.34006710298127,120.22455037357577 66.0835169214406,119.44510442395404 65.99022594629787,118.5947958483157 65.85028948367108,118.31135875129257 65.80364399612881,117.921632003985 65.64038478967268,117.56733421853278 65.57041655835928,117.17760583778727 65.50044832698768,116.96502636032528 65.50044832698768,116.85873652616283 65.38383460819023,116.4335765530268 65.22057540161768,116.07927579758689 65.03399345144862,115.47696289037412 65.0106707077357,115.12266022565018 64.9407024763641,114.87464793959225 64.8007660136791,114.62663530700956 64.6608295509941,114.27233094509575 64.68415229488164,114.02431747090304 64.63750680728117,113.7763036502729 64.68415229488164,113.67001190673909 64.63750680728117,113.2448442964087 64.68415229488164,113.03226010929211 64.68415229488164,112.60709097140352 64.70747503859457,112.25278257852187 64.61418406351004,111.86304252958507 64.61418406351004,111.72131866324344 64.6608295509941,111.65045668765379 65.47712558327476,111.33157744746131 65.92025771492627,111.33157744746131 65.9435804587556,111.29614638542989 66.2934216153808,111.22528424009215 67.34294508537278,111.26071531625348 67.41291331674438,111.15442206648004 67.36626782914391,111.11899096911657 67.41291331674438,110.87097308922966 67.38959057285683,110.69381724852428 67.31962234154344,110.4103675357619 67.22633136645891,110.23321123544883 67.10971764760325,109.24113268617657 67.13304039137438,108.63879657625512 67.1563631350873,108.42620687292947 67.10971764760325,107.9301632418501 67.22633136645891,106.40659199324728 67.20300862268778,105.87511057424126 67.2962995977723,103.99719681536953 67.27297685405938,103.82003411448386 67.27297685405938,102.43815897889726 67.17968587897485,101.94209861387208 67.13304039137438,101.65863492558128 67.06307216000278,100.59564206333016 67.08639490377391,100.24130969455291 66.96978118491825,99.35547567831236 66.94645844120532,98.57593808689853 66.68990825960645,96.83968296588864 66.66658551583532,96.3081729007099 66.59661728446372,96.0247002151882 66.59661728446372,95.81209540404961 66.48000356566627,95.10341086088738 66.34006710298127,94.81993625131145 66.24677612789674,94.07581324737112 66.24677612789674,93.54429490608163 66.1534851526958,93.11907908692956 66.03687143389834,92.94190552829241 66.06019417761127,92.72929702459078 65.9435804587556,92.3040792531101 65.80364399612881,90.95754958962789 65.87361222744221,90.92211446058354 65.80364399612881,90.42602191049082 65.61706204590155,89.8236219498649 65.57041655835928,89.29209087499476 65.61706204590155,89.15034898619342 65.59373930207221,88.37076657464786 65.68703027715674,87.34312998225505 65.75699850852834,86.91789930706727 66.1534851526958,85.74850969745603 66.17680789652513,85.53589257712883 66.10683966521174,84.86260334895633 66.27009887160966,84.75629428992397 66.27009887160966,84.68542154852184 66.41003533429466,84.33105741727923 66.54997179692145,84.15387508635467 66.82984472223325,84.11843859885994 67.27297685405938,84.26018450602714 67.24965411017183,84.2956209651893 67.66946349822683,84.01212909418973 67.69278624199796,83.48058061553456 67.80939996091183,82.87815708199923 67.83272270468296,82.6300997385697 67.9260136797675,82.38204204849899 68.36914581153542,82.06311022324371 68.74230971198995,81.85048868801096 68.9988598934724,81.81505174074846 70.98129311442608,82.06311022324371 71.42442524625221,82.16942089531221 73.59344041749137,82.3466052072763 74.01324980542995,82.45291570961126 74.47970468096901,82.66553652312723 74.89951406890759,82.52378934243461 75.29600071307505,82.52378934243461 75.80910107621457,82.66553652312723 76.06565125769703,82.59466294689628 76.74201082729269,82.66553652312723 76.97523826500401,82.66553652312723 77.11517472768901,82.66553652312723 77.34840216545854,82.84272033990419 77.86150252848165,82.80728359063505 78.93434874224477,82.87815708199923 79.56406282418175,83.0553406864492 79.86725849332288,83.2325241140934 80.56694080663146,83.33883408570546 80.94010470702779,83.51601723027125 81.28994586365297,83.76407333553652 81.42988232633797,84.01212909418973 81.56981878902297,84.08300210432208 81.7330779954209,84.26018450602714 82.03627366456203,84.50823957123794 82.31614658981562,84.64998516727064 82.8758924404392,84.68542154852184 82.9458606717526,84.82716700296442 83.80880219151732,84.86260334895633 84.04202962922864,84.93347601949063 84.13532060437137,85.03978497230855 84.48516176105477,85.35871144892008 85.06823035539128,85.6422011690156 85.27813504944788,85.81938201442244 85.86120364390081,85.99656268277613 86.23436754423892,86.2800513842958 86.25769028806826,86.24461532123678 86.51424046960892,86.2800513842958 86.81743613869185,85.96112656319747 86.91072711377637,85.99656268277613 87.09730906394543,85.67763735237531 87.0739863202325,85.25240268700873 86.95737260137685,85.00434866180876 86.98069534514798,84.86260334895633 87.0739863202325,84.79173064991483 87.51711845200043,84.82716700296442 87.82031412108336,84.75629428992397 88.40338271547807,84.47280315464013 88.98645130981458,84.50823957123794 89.03309679741506,84.43736673092644 89.66281087941024,84.57911238337692 89.66281087941024,84.33105741727923 90.10594301117817,84.01212909418973 90.15258849866223,83.79950989376812 90.17591124249157,83.0553406864492 90.08262026740704,83.2325241140934 89.96600654849317,83.30339743560762 89.96600654849317,83.2325241140934 89.82607008580817,83.33883408570546" stroke="#4dd2ff" stroke-linecap="round" stroke-linejoin="round" stroke-width="0.5"><title>2022-05-13 4.4km</title></polyline><polyline fill="none" points="134.79816063435283,81.0 130.21525632962584,81.83049312001094 133.03227090230212,94.92644578238833 131.056156202103,96.14018986426527 127.65051171858795,93.52105214621406 126.30507192271762,94.60703867973643 127.65051171858795,118.56168665620498 124.70736216509249,120.03084670062526 116.76085837045684,121.5 115.54155355552211,115.68722358168452 115.66768853622489,105.40282201321679 110.20183936553076,104.76402840422816 110.41206433356274,112.23783380843815 111.96772909758147,114.15416605075006 113.31316889356822,114.34579864391708 114.86883365758695,113.25987909917603 115.3733735808637,106.6165263572766 112.47226902109105,105.33894270975725 110.62228930171113,106.93592147208983 110.58024430798832,112.74885686195921 112.05181908491068,114.21804359459202 113.4393038743874,114.34579864391708 114.61656369583216,114.21804359459202 115.07905862561893,113.00436808267841 115.20519360643812,106.4887682220724 113.14498891902622,105.21118406445021 110.58024430798832,106.4887682220724 110.41206433356274,112.55722331264406 111.67341414222028,113.96253334300127 114.61656369583216,114.09028849433525 115.28928359376732,109.61882785067428 115.03701363201253,106.16937266092282 113.81770881684497,105.33894270975725 111.3790991868591,105.84997678096988 110.87455926334951,113.57926758323447 112.47226902109105,114.47355364219402 114.78474367025774,113.96253334300127 115.16314861283172,109.04392123466823 115.03701363201253,113.25987909917603" stroke="#4dd2ff" stroke-linecap="round" stroke-linejoin="round" stroke-width="0.5"><title>2022-05-04 3.1km</title></polyline><polyline fill="none" points="179.48301186657045,81.50313753125374 179.64858025149442,81.0 179.06909090396948,81.6918138982146 179.85554073285311,81.50313753125374 179.31744348153006,82.00627425900893 177.82732801616658,82.1320583151828 176.66834932100028,82.50941018294543 174.9298812780762,82.38362627726747 175.3851943371119,82.6980859473988 175.13684175955132,83.32700434557046 175.63354691455606,83.76724647718947 175.46797852951568,84.33327117111185 175.59215481823776,85.08796918037115 175.92329158843495,85.65399150105077 176.21303626219742,86.84892417112133 176.21303626219742,87.47783428177354 176.5441730322782,87.98096146649914 176.87530980224255,89.23877591238124 177.20644657243975,91.37704894389026 177.16505447600503,91.94305996381445 177.20644657243975,93.95553535368526 177.33062286116183,94.64732079970418 177.7445438237628,95.213325943565 176.99948609108105,96.28244399602409 175.75772320327815,96.40822235195083 175.4265864333138,95.96799788670614 175.01266547071282,95.5277728062647 174.0192551605869,94.83598929393338 173.43976581294555,94.64732079970418 172.44635550270323,93.89264569239458 171.74268986622337,93.82975601864746 171.32876890373882,94.39576263149502 171.12180842249654,94.96176822722191 171.20459261501674,96.21955479920143 171.5771214812994,97.41444739091094 171.6185135775013,98.10622524074279 171.5771214812994,99.99288438257645 171.6185135775013,101.25065086630639 171.7840819626581,102.57130026930827 171.6185135775013,104.58370776110678 171.74268986622337,105.2125824659015 171.74268986622337,105.9043431909231 171.4529451924609,106.40744094602996 171.37016100005712,107.60229489410995 171.6599056738196,108.73425761199906 171.70129777002148,109.36312403087504 171.82547405885998,110.05487564174109 171.74268986622337,111.24971575534437 171.99104244390037,112.50743729481474 172.19800292525906,113.9538108574634 172.52913969522342,115.14863618311938 172.5705317914253,115.84037508966867 172.9016685616225,117.09807830123464 172.44635550270323,118.54443078712211 171.86686615506187,119.04750835610321 171.37016100005712,119.29904683917994 170.74927955609746,119.55058512158575 170.12839811237063,119.6134696607478 169.54890876472928,119.92789216854726 167.56208814424463,120.1794299488829 164.87160188762937,120.68250490672654 164.20932834746782,120.99692634760868 163.54705480730627,121.1226948358817 162.30529191950336,121.5 161.68441047577653,121.37423166216468 161.39466580189764,120.80827352072811 161.18770532053895,119.48770056987996 160.89796064677648,118.92173903918592 160.6496080692159,117.5382732389553 160.6496080692159,116.8465380607231 160.52543178061023,115.71460449247388 160.608215973014,115.08575075259432 160.8151764543727,111.31260195167852 160.9393527430948,110.74662573359092 160.98074483929668,109.4888971640321 160.8151764543727,108.73425761199906 160.8151764543727,108.10538993752562 160.6910001655342,107.47652100768755 160.8565685505746,106.1558921689284 160.6496080692159,105.58990668616025 160.02872662537266,105.46413199615199 158.5800032564439,105.02392018618411 157.95912181248423,104.96103273445624 156.63457473216113,104.77237030444667 155.8895169995958,104.77237030444667 155.26863555575255,104.89814527035924 155.26863555575255,106.03011770514422 155.18585136323236,106.72187663492514 155.14445926703047,107.35074707123567 155.22724345943425,108.54559744158178 155.14445926703047,109.80332977735088 155.64116442203522,110.24353490830981 155.55838022963144,111.62703274434898 155.43420394079294,112.31877938410616 155.9723011922324,113.45072515419452 157.0071035985602,114.1424677890609 158.2902585824486,114.39401018887293 159.44923727784771,113.82803950709058 159.82176614401396,113.32495360262692 160.02872662537266,112.75898100016639 160.11151081800926,109.17446423691581 160.31847129913513,107.41363404577714 160.31847129913513,106.78476373493322 160.02872662537266,106.28166658259579 159.44923727784771,105.84145591506967 158.86974793020636,105.58990668616025 157.50380875368137,105.46413199615199 156.84153521351982,105.71568132561515 156.30343796219677,106.03011770514422 155.8895169995958,106.53321525926003 155.64116442203522,107.0363120099064 155.55838022963144,108.2940503715945 155.64116442203522,108.92291766943526 155.59977232583333,110.11776207646471 155.51698813319672,111.37548813523608 155.64116442203522,112.75898100016639 155.9723011922324,113.32495360262692 156.51039844355546,113.89092518857797 157.0898877910804,114.26823901425814 158.41443487128709,114.39401018887293 159.5734135665698,114.20535340791685 159.86315824044868,113.70226810616441 160.07011872157454,113.0105245047016 160.19429501041304,112.31877938410616 160.19429501041304,110.93528458589572 160.27707920293324,110.30642130546039 160.23568710661493,109.74044327950105 160.31847129913513,109.17446423691581 160.27707920293324,107.22497308423044 160.15290291421115,106.65898952228599 159.82176614401396,106.09300494333729 158.78696373768616,105.46413199615199 158.12469019752461,105.4012446324632 156.38622215471696,105.65279401215957 155.64116442203522,106.59610239701578 155.55838022963144,107.41363404577714 155.64116442203522,110.11776207646471 155.55838022963144,110.80951203018776 155.64116442203522,111.50126046515652 155.51698813319672,112.06723532723845 155.43420394079294,112.63320917263627 155.7653407107573,113.1362961816485 156.13786957715638,113.57649665538338 156.67596682859585,113.9538108574634 157.2554561761208,114.33112460785196 157.83494552376214,114.45689575752476 158.4558269676054,114.39401018887293 159.03531631524675,114.45689575752476 159.5734135665698,114.1424677890609 160.11151081800926,112.94763864731067 160.27707920293324,109.67755676951492 160.11151081800926,106.91053789769649 159.98733452917077,106.34455377049744 159.44923727784771,105.9043431909231 158.78696373768616,105.52701934729703 157.54520084988326,105.4012446324632 156.92431940615643,105.52701934729703 156.42761425091885,106.03011770514422 155.9723011922324,106.53321525926003 155.80673280719202,107.22497308423044 155.68255651835352,108.54559744158178 155.7239486145554,109.17446423691581 155.59977232583333,110.43219406189746 155.59977232583333,111.12394332536496 155.51698813319672,111.75280497377389 155.68255651835352,113.0105245047016 155.9309090957977,113.63938238704577 156.8829273097217,114.45689575752476 157.50380875368137,114.51978131342912 159.32506098900922,114.39401018887293 159.73898195161019,114.0166965140088 159.94594243285246,113.38783938469714 160.07011872157454,112.06723532723845 160.11151081800926,111.50126046515652 160.02872662537266,110.93528458589572 160.23568710661493,110.36930768980528 160.15290291421115,109.1115776138904 160.19429501041304,109.74044327950105 160.31847129913513,110.30642130546039 160.35986339545343,112.1301213602128 160.27707920293324,112.69609509257134 160.02872662537266,113.26206780815846" stroke="#4dd2ff" stroke-linecap="round" stroke-linejoin="round" stroke-width="0.5"><title>2022-05-04 3.2km</title></polyline><polyline fill="none" points="44.48301186657045,130.25313753125374 44.64858025149442,129.75 44.06909090396948,130.4418138982146 44.855540732853115,130.25313753125374 44.31744348153006,130.75627425900893 42.827328016166575,130.8820583151828 41.66834932100028,131.25941018294543 39.92988127807621,131.13362627726747 40.3851943371119,131.4480859473988 40.13684175955132,132.07700434557046 40.633546914556064,132.51724647718947 40.467978529515676,133.08327117111185 40.59215481823776,133.83796918037115 40.92329158843495,134.40399150105077 41.21303626219742,135.59892417112133 41.21303626219742,136.22783428177354 41.544173032278195,136.73096146649914 41.875309802242555,137.98877591238124 42.206446572439745,140.12704894389026 42.165054476005025,140.69305996381445 42.206446572439745,142.70553535368526 42.33062286116183,143.39732079970418 42.7445438237628,143.963325943565 41.99948609108105,145.03244399602409 40.75772320327815,145.15822235195083 40.42658643331379,144.71799788670614 40.01266547071282,144.2777728062647 39.01925516058691,143.58598929393338 38.43976581294555,143.39732079970418 37.44635550270323,142.64264569239458 36.74268986622337,142.57975601864746 36.32876890373882,143.14576263149502 36.12180842249654,143.7117682272219 36.204592615016736,144.96955479920143 36.5771214812994,146.16444739091094 36.61851357750129,146.8562252407428 36.5771214812994,148.74288438257645 36.61851357750129,150.0006508663064 36.78408196265809,151.32130026930827 36.61851357750129,153.33370776110678 36.74268986622337,153.9625824659015 36.74268986622337,154.6543431909231 36.4529451924609,155.15744094602996 36.370161000057124,156.35229489410995 36.659905673819594,157.48425761199906 36.70129777002148,158.11312403087504 36.82547405885998,158.8048756417411 36.74268986622337,159.99971575534437 36.99104244390037,161.25743729481474 37.19800292525906,162.7038108574634 37.52913969522342,163.89863618311938 37.57053179142531,164.59037508966867 37.9016685616225,165.84807830123464 37.44635550270323,167.2944307871221 36.86686615506187,167.7975083561032 36.370161000057124,168.04904683917994 35.74927955609746,168.30058512158575 35.12839811237063,168.3634696607478 34.548908764729276,168.67789216854726 32.562088144244626,168.9294299488829 29.871601887629367,169.43250490672654 29.209328347467817,169.74692634760868 28.547054807306267,169.8726948358817 27.30529191950336,170.25 26.68441047577653,170.12423166216468 26.394665801897645,169.5582735207281 26.187705320538953,168.23770056987996 25.897960646776482,167.67173903918592 25.6496080692159,166.2882732389553 25.6496080692159,165.5965380607231 25.525431780610234,164.46460449247388 25.608215973014012,163.83575075259432 25.815176454372704,160.06260195167852 25.939352743094787,159.49662573359092 25.980744839296676,158.2388971640321 25.815176454372704,157.48425761199906 25.815176454372704,156.85538993752562 25.691000165534206,156.22652100768755 25.856568550574593,154.9058921689284 25.6496080692159,154.33990668616025 25.028726625372656,154.214131996152 23.580003256443888,153.7739201861841 22.959121812484227,153.71103273445624 21.634574732161127,153.52237030444667 20.8895169995958,153.52237030444667 20.268635555752553,153.64814527035924 20.268635555752553,154.78011770514422 20.18585136323236,155.47187663492514 20.14445926703047,156.10074707123567 20.22724345943425,157.29559744158178 20.14445926703047,158.55332977735088 20.641164422035217,158.9935349083098 20.55838022963144,160.37703274434898 20.43420394079294,161.06877938410616 20.972301192232408,162.20072515419452 22.007103598560207,162.8924677890609 23.290258582448587,163.14401018887293 24.449237277847715,162.57803950709058 24.821766144013964,162.07495360262692 25.028726625372656,161.5089810001664 25.111510818009265,157.9244642369158 25.318471299135126,156.16363404577714 25.318471299135126,155.53476373493322 25.028726625372656,155.0316665825958 24.449237277847715,154.59145591506967 23.86974793020636,154.33990668616025 22.50380875368137,154.214131996152 21.84153521351982,154.46568132561515 21.303437962196767,154.78011770514422 20.8895169995958,155.28321525926003 20.641164422035217,155.7863120099064 20.55838022963144,157.0440503715945 20.641164422035217,157.67291766943526 20.599772325833328,158.86776207646471 20.51698813319672,160.12548813523608 20.641164422035217,161.5089810001664 20.972301192232408,162.07495360262692 21.51039844355546,162.64092518857797 22.0898877910804,163.01823901425814 23.414434871287085,163.14401018887293 24.573413566569798,162.95535340791685 24.863158240448684,162.4522681061644 25.070118721574545,161.7605245047016 25.194295010413043,161.06877938410616 25.194295010413043,159.68528458589572 25.277079202933237,159.0564213054604 25.235687106614932,158.49044327950105 25.318471299135126,157.9244642369158 25.277079202933237,155.97497308423044 25.152902914211154,155.408989522286 24.821766144013964,154.8430049433373 23.786963737686165,154.214131996152 23.124690197524615,154.08835725605604 21.38622215471696,154.40279401215957 20.641164422035217,155.34610239701578 20.55838022963144,156.16363404577714 20.641164422035217,158.86776207646471 20.55838022963144,159.55951203018776 20.641164422035217,160.25126046515652 20.51698813319672,160.81723532723845 20.43420394079294,161.38320917263627 20.7653407107573,161.8862961816485 21.13786957715638,162.32649665538338 21.675966828595847,162.7038108574634 22.255456176120788,163.08112460785196 22.834945523762144,163.20689575752476 23.45582696760539,163.14401018887293 24.035316315246746,163.20689575752476 24.573413566569798,162.8924677890609 25.111510818009265,161.69763864731067 25.277079202933237,158.42755676951492 25.111510818009265,155.66053789769649 24.987334529170766,155.09455377049744 24.449237277847715,154.6543431909231 23.786963737686165,154.27701934729703 22.54520084988326,154.1512446324632 21.924319406156428,154.27701934729703 21.42761425091885,154.78011770514422 20.972301192232408,155.28321525926003 20.80673280719202,155.97497308423044 20.682556518353522,157.29559744158178 20.72394861455541,157.9244642369158 20.599772325833328,159.18219406189746 20.599772325833328,159.87394332536496 20.51698813319672,160.5028049737739 20.682556518353522,161.7605245047016 20.930909095797688,162.38938238704577 21.88292730972171,163.20689575752476 22.50380875368137,163.26978131342912 24.325060989009216,163.14401018887293 24.738981951610185,162.7666965140088 24.945942432852462,162.13783938469714 25.070118721574545,160.81723532723845 25.111510818009265,160.25126046515652 25.028726625372656,159.68528458589572 25.235687106614932,159.11930768980528 25.152902914211154,157.8615776138904 25.194295010413043,158.49044327950105 25.318471299135126,159.0564213054604 25.35986339545343,160.8801213602128 25.277079202933237,161.44609509257134 25.028726625372656,162.01206780815846" stroke="#4dd2ff" stroke-linecap="round" stroke-linejoin="round" stroke-width="0.5"><title>2022-05-04 3.2km</title></polyline><polyline fill="none" points="84.01877843192779,170.25 80.15849623200484,160.7338725051959 80.66834482434206,131.2992347572872 71.12689259438775,129.75 71.05405708122998,141.70112742178026 73.74897106993012,146.45937495690305 78.70178596768528,144.5782122084347 79.3573055868037,133.84439674435998 76.80806262465194,130.74593712665956 72.07375426613726,132.73780601189355 72.29226080561057,144.7995258042356 74.91433928115293,146.3487185011909 79.0659635339398,143.80361392709892 79.21163456025533,132.73780601189355 75.49702338664792,130.74593712665956 72.1465897790622,133.06978346349206 71.78241221327335,143.80361392709892 73.89464209624566,146.01674900212674 77.02656916389242,146.12740552413743 79.21163456025533,143.80361392709892 79.21163456025533,132.8484651844483 74.55016171513125,130.96725624531973 71.85524772643112,134.17637353288592 72.07375426613726,144.5782122084347 77.82775980955921,146.3487185011909 79.64864763943478,144.35689852409996 79.79431866598316,133.2911016540893 77.53641775646247,130.85659669729648 74.40449068881571,130.74593712665956 71.41823464701883,134.3976912817452 72.1465897790622,144.46755537719582 76.95373365096748,146.68068780144677 79.72148315259255,143.47164290383807 78.9931280205492,131.63121307062102 77.24507570359856,130.41395828334498 72.29226080561057,131.40989421700942 70.98122156807221,142.03309950532275 73.31195799051784,146.3487185011909 78.55611494160257,145.7954358922434 79.86715417914093,137.27481397552765 78.48327942821197,131.74187246413203 73.89464209624566,130.74593712665956 71.5639056735672,135.7255959189497 71.41823464701883,143.91427089087665 73.60330004338175,146.12740552413743 77.75492429616861,145.7954358922434 79.3573055868037,143.13967168185627 79.21163456025533,133.5124197564437 72.29226080561057,132.6271468170744 71.27256362093613,137.60678871019627" stroke="#4dd2ff" stroke-linecap="round" stroke-linejoin="round" stroke-width="0.5"><title>2022-03-10 3.4km</title></polyline><polyline fill="none" points="126.19063734426163,161.63130278413882 123.99455561861396,156.4414724460803 124.11656015901826,131.60362405865453 120.94444211083464,129.9353627389064 115.94225595821626,129.75 116.003258228302,140.40823727089446 118.01633314345963,143.65200004840153 121.49346254230477,143.28128544939682 122.7135079454165,141.7984240935766 123.20152610656805,132.34507160965586 119.48038762714714,130.3987692623341 116.49127638968639,132.43775247049052 116.36927184928209,141.61306609108578 120.39542167959735,143.65200004840153 122.95751702599227,141.2423498640128 122.95751702599227,131.881667029229 119.48038762714714,130.58413174244924 116.49127638968639,132.6231141362514 116.36927184928209,141.1496707610786 118.99236946599558,143.65200004840153 122.8355124858208,141.4277080144966 123.07952156639658,132.90115649611107 121.49346254230477,130.76949414805858 117.9553308733739,130.95485647997702 116.73528547026217,132.1597098330967 116.36927184928209,140.7789541640086 119.48038762714714,143.74467865176848 122.7135079454165,142.0764609585167 122.95751702599227,132.90115649611107 122.16448751394637,131.23289983911673 119.35838308697566,130.49145051144296 116.49127638968639,132.80847572805942 116.7962877403479,142.16913987661246 120.63943076017313,143.74467865176848 123.3845329170581,141.4277080144966 122.16448751394637,130.8621753231564 118.32134449435398,130.49145051144296 116.49127638968639,132.90115649611107 116.55227865977213,141.61306609108578 118.68735811510123,143.4666427859338 121.5544648123905,143.55932142629172 123.01851929631084,141.05699163943063 122.53050113492645,131.69630506719113 117.40631044190377,131.04753761808388 115.63724460732192,136.70105205941945 115.3322332566604,133.36456005915534 115.63724460732192,129.75 124.05555788893253,130.21340670844074 124.42157150967978,150.139457613579 125.76362145319581,160.05582470688387 129.6677667433396,168.8598983674019 129.05774404178374,170.25" stroke="#4dd2ff" stroke-linecap="round" stroke-linejoin="round" stroke-width="0.5"><title>2022-03-08 3.7km</title></polyline><polyline fill="none" points="177.97806729364675,132.74094895710004 177.56796681252308,132.11783695485792 179.08533859276213,132.61632665627985 178.8392783042509,131.05854369571898 180.23361994011793,130.68467462834087 179.16735868912656,129.75 178.34715772676282,132.24245945486473 179.00331849663053,129.99924684129655 178.9623084483901,131.43241231539287 175.06635387742426,131.68165781287826 174.77928354067262,133.11481556139188 175.845544791664,135.60724814407877 176.4606955134077,144.7044581572991 174.73827349254861,144.7667669005168 170.96534906583838,142.21209822490346 170.67827872897033,142.83519007399445 171.0063591140788,156.16905750031583 172.3186806536978,166.3248453750275 169.77605767047498,168.00706054430339 161.73808823968284,170.25 160.09768631507177,166.20023648324423 160.42576670006383,154.36216490756487 154.84840015613008,153.55217517720303 154.9714303005021,160.34356245447998 156.44779203273356,162.5865569821326 158.21122410183307,162.71116731662187 159.52354564145207,161.58967251543072 159.6465757858241,155.42137907541473 158.4162743423367,154.11293752220809 157.10395280248486,154.05063064483693 155.38153078174219,155.73291197020444 155.5455709741218,161.9011992532469 157.47304323560093,162.71116731662187 159.52354564145207,161.71428324774024 159.56455568945967,155.7952185117756 158.37526429421268,154.29985807990306 155.5865810222458,155.04753919132054 155.5045609261142,160.7173959952197 157.02193270635325,162.52425179613056 159.6875858338317,161.3404509011889 159.6465757858241,156.16905750031583 158.5803145347163,154.2375512396684 155.79163126286585,154.61139209399698 155.34052073361818,161.09122908796417 156.85789251397364,162.77347246510908 159.48253559332807,161.46506173320813 159.6465757858241,155.48368567915168 159.19546525657643,154.42447172291577 157.47304323560093,153.92601685246336 155.5455709741218,155.29676583048422 155.34052073361818,161.2158400194894 156.44779203273356,162.64886215567822 157.801123620593,162.77347246510908 159.6465757858241,161.3404509011889 159.6465757858241,155.6706054158858 158.5803145347163,154.29985807990306 155.79163126286585,154.73600561261992 155.01244034862611,158.22516393320984 154.76638005988207,153.427561185963 160.58980689244345,152.99141182482708 163.25546001992188,137.66349004025687 164.36273131903727,137.2273186489183 168.54575622698758,139.47047931072302 169.61201747797895,138.97200055685244 169.899087814847,136.85345697111916 175.39443426241633,137.2896288849588 176.87079599453136,135.9811113147589 179.65947926649824,136.7288363124535 179.33139888150617,131.05854369571898 179.00331849663053,132.55401548725786 177.44493666815106,132.3670819051331" stroke="#4dd2ff" stroke-linecap="round" stroke-linejoin="round" stroke-width="0.5"><title>2021-12-30 4.7km</title></polyline><polyline fill="none" points="39.02705767285079,219.0 34.08023501560092,206.5789417414635 35.45435242028907,179.7526243282482 26.24776580813341,178.5 26.179059938061982,191.02610825138981 28.721177136758342,193.84444125561276 31.812941297655925,193.74005882247002 33.87411740468815,191.33925711302436 34.21764675620943,181.5271703231556 31.057176725007594,179.12631253930158 27.347059732070193,180.37893536692718 26.24776580813341,190.81734223940293 29.133412358351052,193.63567636880907 31.400706076296046,193.84444125561276 33.599293923936784,191.86117146571632 34.148940885672346,181.42278543140856 31.950353038031608,179.33508321875706 27.96541256434284,179.9613947579346 25.972942327149212,190.19104370317655 28.240236045094207,193.74005882247002 32.08776477840729,193.3225288821268 34.148940885672346,191.2348741798487 34.21764675620943,182.04909446992679 31.606823686743155,179.23069788943394 26.660001029726118,180.69209060521098 26.316471678204834,191.2348741798487 29.33952996903099,193.74005882247002 33.599293923936784,191.75678863702342 34.08023501560092,181.42278543140856 30.095294541679323,178.7087709295447 26.79741277033463,180.7964756428264 26.24776580813341,191.2348741798487 28.17153017478995,193.53129389428068 33.187058702344075,192.38308529782807 34.42376436688937,182.3622487077664 33.7367056645453,180.37893536692718 30.644941503414884,179.33508321875706 27.140942121390253,181.10963063072995 26.453883418813348,191.75678863702342 28.515059526078403,193.74005882247002 32.56870587030426,193.4269113986229 33.87411740468815,191.86117146571632 34.148940885672346,182.25786398243508 32.43129412969574,179.12631253930158 26.385177548741922,179.9613947579346 26.385177548741922,192.06993706105277" stroke="#4dd2ff" stroke-linecap="round" stroke-linejoin="round" stroke-width="0.5"><title>2021-12-27 3.1km</title></polyline><polyline fill="none" points="84.07135023130104,219.0 86.42711729556322,180.9488865841995 68.57288270490244,178.5 71.052637509536,204.1188066584873 75.14423293620348,208.0745898137102 80.72368124546483,208.45133020123467 84.4433134519495,204.6839195523644 83.94736249139532,185.65826599829597 76.38411033852026,180.76051091839327 70.92864976869896,184.3396421315265 72.78846587240696,203.36532227188582 77.62398774037138,208.45133020123467 83.82337475055829,205.24903210881166 83.3274237900041,185.65826599829597 77.12803677935153,181.32563780184137 71.052637509536,184.52801708236802 73.28441683296114,205.6257736250409 79.9797548041679,208.63970033958321 84.19533797120675,205.06066129467217 83.3274237900041,186.22338994854363 77.37601226009429,181.32563780184137 73.5323923137039,181.70238886983134 70.43269880814478,186.03501533623785 71.54858847009018,204.1188066584873 77.87196322064847,207.88621956296265 84.07135023130104,205.24903210881166 83.82337475055829,186.78851356066298 76.50809807842597,181.51401335507398 70.55668654851615,185.84664068586426 71.54858847009018,203.36532227188582 77.12803677935153,207.88621956296265 82.4595096083358,207.13273818517337 84.81527667259797,201.66998020425672 83.45141153037548,185.65826599829597 75.51619615638629,181.1372622117633 71.6725762099959,182.64426588092465 70.68067428842187,186.60013906122185 71.6725762099959,204.1188066584873 79.9797548041679,209.0164405014366 84.4433134519495,202.98857985367067 83.20343605009839,184.71639199584024 78.6158896619454,181.1372622117633 73.03644135221839,181.51401335507398 69.44079688657075,188.10713400540408 71.052637509536,205.06066129467217 78.98785288259387,208.2629600262735 84.56730119185522,203.17695108160842 84.81527667259797,185.46989127324196 76.1361348577775,180.19538369652582 70.43269880814478,183.5861419517314 70.43269880814478,203.17695108160842 76.01214711787179,208.0745898137102 83.94736249139532,203.36532227188582 83.69938701065257,186.41176452307263 82.08754638768733,183.0210164221935 75.26822067657486,180.9488865841995 70.06073558749631,184.90476687141927" stroke="#4dd2ff" stroke-linecap="round" stroke-linejoin="round" stroke-width="0.5"><title>2021-12-07 3.6km</title></polyline><polyline fill="none" points="125.87664798856713,198.2643787494453 124.09946483653039,179.90405073013972 116.84855757676996,178.5 115.49789838120341,181.6321081648639 116.20877164183185,193.62035464899964 120.11857457645237,195.6723702136369 123.24641692382284,194.80836460893624 124.24163948884234,192.75634576720768 123.60185355390422,181.7401115714456 117.41725618531927,180.33606560630142 115.71116035943851,186.70824495877605 117.5594308373984,195.02436613920145 122.60663098888472,195.4563689417264 124.38381414115429,188.4362806606514 123.03315494558774,181.30809781627613 117.41725618531927,181.20009432375082 116.1376843159087,189.84030560415704 117.98595479410142,194.7003638111055 120.54509853292257,196.64437487002579 123.38859157566912,195.88837139925454 123.88620285852812,184.9802037377085 122.60663098888472,181.84811495634494 117.41725618531927,180.76808013761183 115.64007303328253,185.73622245099978 117.98595479410142,195.78037081705406 123.24641692382284,195.5643695886247 123.60185355390422,182.49613481250708 120.75836051092483,180.6600765369658 117.5594308373984,181.30809781627613 115.9244223376736,184.7641981971974 118.05704212002456,195.4563689417264 122.39336901064962,195.6723702136369 123.74402820621617,194.05235857286607 124.24163948884234,184.54819256989867 121.39814644563012,180.76808013761183 117.41725618531927,181.4161012872937 116.1376843159087,183.14415389235364 116.42203362006694,193.0803492598643 119.40770131559111,196.10437249872484 122.67771831504069,195.5643695886247 123.81511553237215,194.05235857286607 124.1705521629192,184.00817812551395 122.03793238056824,181.30809781627613 119.19443933735602,180.6600765369658 116.49312094645575,183.9001751714095 116.56420827237889,194.1603594997141 120.47401120653376,195.88837139925454 124.02837751060724,192.86434695281787 123.60185355390422,183.14415389235364 118.83900270680897,180.98408727359492 116.49312094645575,184.54819256989867 117.48834351147525,194.80836460893624 120.33183655468747,195.99637195991818 123.95729018445127,193.94435762416106 123.88620285852812,183.57616618130123 122.53554366296157,181.4161012872937 119.54987596767023,180.76808013761183 116.99073222908191,182.38813155685784 115.9244223376736,185.3042118869489 115.64007303328253,194.59236299208715 115.49789838120341,179.68804316292517 124.88142542354763,179.36403164989315 125.52121135802008,203.4483585668204 129.50210161856376,219.0" stroke="#4dd2ff" stroke-linecap="round" stroke-linejoin="round" stroke-width="0.5"><title>2021-12-06 4.4km</title></polyline><polyline fill="none" points="179.10594194813166,178.5 173.9643848699052,180.09277819143608 172.71643412287813,182.21647205823683 166.82610659650527,182.59570185656776 162.73282814584672,188.96670586511027 161.48487739881966,194.95838595039095 162.4333199664252,202.46681365650147 161.03561512974557,209.14084703836124 156.54299244005233,207.39650872183847 152.64938610908575,207.4723496848601 152.44971398962662,215.7389238771575 154.04709094576538,218.46912905041245 156.64282849989831,218.84832266130252 158.93905787472613,217.02818987620412 159.08881196414586,209.8992525038193 157.19192682858557,207.7757133851701 155.5945498724468,207.54819063274772 153.49799261707813,209.292528252583 153.14856640796643,216.9523508209677 155.29504169302527,219.0 157.64118909765966,218.7724839694274 158.88913984468672,216.9523508209677 158.93905787472613,210.43013542878907 156.49307441024575,207.7757133851701 153.39815655723214,209.36836883693468 152.8490582285449,216.42147701006616 155.5945498724468,218.92416133842198 158.48979560565203,217.33154594580992 158.93905787472613,210.12677384834387 157.4415169780841,208.0790768431034 155.24512366298586,207.4723496848601 153.44807458727155,209.14084703836124 153.09864837815985,216.64899444836192 156.09373017121106,219.0 158.43987757584546,217.634901773592 158.6894677252276,209.52004996035248 155.69438593205996,207.62403156529763 153.49799261707813,209.36836883693468 153.44807458727155,216.04228097645682 154.54627124464605,218.16577388893347 156.19356623094063,218.6208065401006 158.43987757584546,217.4073849255219 158.93905787472613,209.36836883693468 156.84250061947387,207.4723496848601 155.09536957356613,208.30659927759552 153.6477467068471,209.97509296695353 153.2484024678124,212.8570193531341 152.9488942885073,209.0650064086367 160.63627089071088,206.56225713077583 163.33184450457338,189.72515160634066 166.6763525068527,186.5396693177754 173.36536851141136,184.26430847193114 179.4054501275532,186.08459823887097 176.65995848365128,182.8232395539526 180.05438451608643,179.71354589422117 182.55028601025697,179.6376993895392" stroke="#4dd2ff" stroke-linecap="round" stroke-linejoin="round" stroke-width="0.5"><title>2021-11-11 3.8km</title></polyline><polyline fill="none" points="46.61761553172255,229.07270848017652 47.79500911658397,227.68880198559782 46.95084013114683,227.25 45.040352427458856,227.31750807183562 43.28536953678122,228.498894967066 40.841722473851405,229.0389547979721 39.33110428950749,231.0304105146788 38.44250535755418,231.26668336502917 34.46602513699327,228.80267883419583 30.600619782926515,229.07270848017652 25.580035817227326,228.36387973971432 24.53593207214726,228.66766384955554 23.514043300412595,230.86164399077825 22.558799448539503,231.50295588518202 21.87013527628733,234.641973746242 23.91391281981487,247.9737120141217 23.736193033400923,259.5157857096201 26.33534490945749,267.1425716615777 23.291893567424268,267.75 22.314434742263984,265.2190341938549 19.893002652621362,253.5086059121677 17.20499088341603,248.10871158199734 17.98251494881697,247.50121267749637 19.87078767933417,247.33246259433508 23.62511816690676,248.04121181154915 22.625444368459284,238.4897225847235" stroke="#4dd2ff" stroke-linecap="round" stroke-linejoin="round" stroke-width="0.5"><title>2021-11-07 3.5km</title></polyline><polyline fill="none" points="92.63603081839392,227.25 91.60602706146892,227.32549719445524 88.44064966205042,230.98707565123914 86.20478784828447,230.23211671039462 82.86355614895001,235.25253814589814 83.0142884060624,236.6114267357043 79.17061584966723,239.10269761568634 73.97035297937691,243.78318012053205 68.06667290901532,251.5585693201865 66.78544872358907,254.84225604942185 62.89153208152857,260.39042728368076 62.51470143877668,261.8623642927996 62.94177616731031,263.7494465899945 64.62495303835021,266.0516619900882 67.68984226626344,267.4480743355816 70.22716859431239,267.75 67.33813366637332,267.52355579609866 64.07226809556596,265.4478048715973 62.99202025291743,264.01363663823577 62.36396918166429,261.9755897513387 62.690555738750845,260.57913778450165 66.81057076650904,255.03097197879106 67.11203528067563,252.95508660057385 71.00595192273613,247.40670146881894 74.54815996484831,243.17925327683042 82.88867819186999,236.23395864333725 86.00381150539033,230.0811245675286 86.65698461956345,229.89238422267954 88.41552761924686,231.13806708468474 91.85724748997018,227.36324578060885 92.4350544756162,227.32549719445524 92.00797974714078,227.70298272378568" stroke="#4dd2ff" stroke-linecap="round" stroke-linejoin="round" stroke-width="0.5"><title>2016-05-06 3.5km</title></polyline></svg>