<?xml version="1.0" encoding="utf-8" ?>
<svg baseProfile="full" height="300mm" version="1.1" viewBox="0,0,200,300" width="200mm" xmlns="http://www.w3.org/2000/svg" xmlns:ev="http://www.w3.org/2001/xml-events" xmlns:xlink="http://www.w3.org/1999/xlink"><defs /><rect fill="#222222" height="300" width="200" x="0" y="0" /><text fill="#FFFFFF" style="font-size:12px; font-family:Arial; font-weight:bold;" x="10" y="20">Over 1km Workouts</text><text fill="#FFFFFF" style="font-size:4px; font-family:Arial" x="10" y="280">ATHLETE</text><text fill="#FFFFFF" style="font-size:9px; font-family:Arial" x="10" y="290">underwindfall</text><text fill="#FFFFFF" style="font-size:4px; font-family:Arial" x="120" y="280">STATISTICS</text><text fill="#FFFFFF" style="font-size:3px; font-family:Arial" x="120" y="285">Number: 24</text><text fill="#FFFFFF" style="font-size:3px; font-family:Arial" x="120" y="290">Weekly: 2.2</text><text fill="#FFFFFF" style="font-size:3px; font-family:Arial" x="141" y="285">Total: 69.9 km</text><text fill="#FFFFFF" style="font-size:3px; font-family:Arial" x="141" y="290">Avg: 2.9 km</text><text fill="#FFFFFF" style="font-size:3px; font-family:Arial" x="167" y="285">Min: 1.1 km</text><text fill="#FFFFFF" style="font-size:3px; font-family:Arial" x="167" y="290">Max: 4.7 km</text><polyline fill="none" points="47.68386388581712,40.36328689957736 48.0,40.87367426541459 47.92096597148338,40.93371972408204 47.66410537873162,40.72356051421957 47.44676180026727,40.69353774593037 47.130625686084386,40.72356051421957 46.93304061470553,40.813628783027525 46.814489571901504,40.78360603272449 46.71569703624118,40.99376515865151 46.43907793640392,41.053810569195775 46.28100987925427,41.1739013184706 45.78704720095266,41.38405989891908 45.66849615809042,41.47412777195859 45.39187705819495,41.56419559115602 45.23380900110351,41.654263356351294 45.15477497258689,41.74433106764627 44.72008781565819,41.984511367205414 44.423710208560806,42.04455638215586 44.3841931943316,42.104601373153855 44.34467618004419,42.104601373153855 44.206366630096454,42.16464634012664 43.92974753025919,42.22469128319062 43.79143798031146,42.31475865270477 43.63336992316181,42.46487081541272 43.00109769491246,42.825139394553844 42.68496158072958,43.06531796765921 42.34906695940299,43.03529566702491 41.55872667400399,43.42558510809613 41.262349066964816,43.45560733080492 41.08452250278788,43.60571835465089 40.68935236008838,43.81587353612122 40.29418221738888,43.935962079413 39.70142700331053,44.35627122555161 39.30625686061103,44.44633731828071 39.22722283209441,44.56642535800347 38.85181119648041,44.7465572378278 38.91108671791153,44.7465572378278 38.49615806812653,44.836623096765834 37.78485181124415,45.25692972527759 37.330406147113536,45.2869515823113 37.23161361145321,45.346995278596296 37.113062568649184,45.2869515823113 37.03402854013257,45.106820349916234 36.954994511499535,45.07679845691018 36.87596048298292,45.04677655787964 36.7969264544663,45.106820349916234 36.737650933035184,45.04677655787964 36.69813391880598,45.106820349916234 36.57958287600195,45.07679845691018 36.164654226158746,45.49710441404022 36.08562019758392,45.707256952053285 36.08562019758392,45.82734398485627 36.12513721187133,45.82734398485627 36.105378704785835,45.887387465147185 35.947310647636186,46.037496061311685 35.611416026367806,46.037496061311685 35.51262349070748,46.157582830273896 35.1767288694391,46.27766950328078 34.93962678377284,46.45779933306039 34.76180021953769,46.63792894704966 34.46542261255672,46.75801523651171 34.129527991230134,46.99818752762803 34.05049396271352,47.08825203788001 33.93194291990949,47.08825203788001 33.87266739847837,47.178316494246246 33.517014270066284,47.208337967662374 32.963776070275344,47.35844524508866 32.311745334765874,47.77874482452171 31.77826564211864,47.95887285609206 31.54116355656879,48.0789580905257 31.402854006621055,48.0789580905257 31.244785949529614,48.19904322910588 31.14599341386929,48.16902195350849 30.968166849634144,48.319128271745285 30.592755214020144,48.40919199086784 30.3951701426995,48.61934045891394 29.88144895725418,48.769446327743935 29.82217343582306,48.73942516592797 29.624588364444207,48.799467483506305 29.525795828725677,48.829488633258734 29.32821075740503,49.009615406088415 29.150384193228092,48.97959429232287 29.071350164653268,49.15972088529088 28.89352360047633,49.279805160767864 28.89352360047633,49.489952412070124 28.952799121907447,49.489952412070124 28.794731064757798,49.54999442990811 28.695938529097475,49.64005741174333 28.360043907829095,49.6100364238082 28.10318331507733,49.67007839365397 27.609220636659302,49.94026696155197 27.293084522534627,49.94026696155197 27.154774972528685,50.09037151177472 26.976948408351745,50.1504132898699 26.83863885840401,50.360559324442875 26.7991218441166,50.33053848030977 26.83863885840401,50.360559324442875 26.7793633370311,50.42060099466471 26.700329308514483,50.45062182075344 26.364434687187895,50.540684263192816 26.12733260152163,50.480642640948645 26.048298573005013,50.60072586152819 25.969264544488396,50.60072586152819 25.77167947316775,50.750829752360005 25.317233809037134,50.90093349335075 25.198682766174898,50.99099566608493 25.139407244801987,50.96097494781134 25.159165751887485,50.90093349335075 25.08013172337087,50.87091275716375 24.74423710210249,50.99099566608493 24.66520307358587,51.11107847902167 24.171240395167843,51.29120251875429 24.092206366593018,51.351243817291106 23.855104281043168,51.44130572024733 23.756311745324638,51.561388173737214 23.558726673945785,51.65144995080482 23.420417124056257,51.801552792749135 23.341383095481433,51.86159388758824 23.341383095481433,51.9216349584749 23.24259055982111,52.011696519795805 22.926454445696436,52.10175802723097 22.847420417063404,52.22183995312662 22.7881448957487,52.19181948066398 22.392974753049202,52.37194222578546 22.294182217330672,52.37194222578546 22.234906695899554,52.2818808802258 21.76070252468344,52.161799002220505 21.74094401759794,52.19181948066398 21.24698133917991,52.52204434853047 21.207464324950706,52.6121055502299 20.990120746428147,52.8522684910713 20.832052689336706,52.8522684910713 20.535675082355738,53.06241074981517 20.515916575153824,53.122451341187116 20.59495060367044,53.06241074981517 20.575192096584942,53.06241074981517 20.59495060367044,53.092431048542494 20.59495060367044,53.06241074981517 19.567508232721593,53.422653938498115 19.27113062562421,53.72285593651759 19.073545554303564,53.78289626412152 18.69813391880598,53.993037222273415 18.164654226158746,54.41331825742964 17.25576289789751,54.953677862271434 16.8210757409106,55.43399588091415 16.504939626785927,55.64413453161251 16.425905598211102,55.73419386349269 16.010976948367897,55.94433209465933 15.813391877047252,56.214509388955776 15.398463227204047,56.424646948929876 15.003293084504548,56.81490163835406 14.706915477465373,56.99501884565689 14.33150384190958,57.265194252177025 14.311745334824082,57.35525261318253 14.252469813392963,57.445310920185875 13.916575192124583,57.6554467601527 13.83754116349155,57.805543608919834 13.521405049425084,58.075717559157056 13.402854006562848,58.10573685703275 13.343578485189937,58.195794714585645 12.908891328144819,58.34589102404425 12.474204171216115,58.706121555369464 12.375411635555793,58.7361407274002 12.296377606980968,58.8261982073891 12.059275521431118,58.946274763540714 12.0,59.12638941797195 12.039517014229205,59.39656099501008 12.138309549947735,59.42658002913231 12.059275521431118,59.51663709568675 12.039517014229205,59.63671310043719 12.197585071378853,59.456599057331914 12.098792535660323,59.54665610592929 12.059275521431118,59.48661807947792 12.079034028516617,59.456599057331914" stroke="#4dd2ff" stroke-linecap="round" stroke-linejoin="round" stroke-width="0.5"><title>2022-05-22 1.6km</title></polyline><polyline fill="none" points="58.66666666662786,55.41632721904898 58.88671556627378,55.28259825985879 59.19478402589448,55.01514018140733 59.898940505227074,54.613952663203236 60.779136104276404,54.8145464824629 61.307253463659436,55.48319167850423 61.57131214346737,55.01514018140733 62.055419722921215,54.74768188933376 62.14343928266317,54.547088030172745 62.40749796235468,54.547088030172745 63.243683781591244,54.07903522491688 63.50774246128276,53.4103872255364 63.72779136092868,53.20979256549617 63.639771801186725,53.07606272553676 63.72779136092868,52.80860288487747 64.03585982054938,52.942332831793465 64.56397718004882,52.67487288470147 64.69600651995279,52.40741272387095 64.82803585985675,52.40741272387095 65.04808475950267,52.13995234944741 65.2241238792194,52.13995234944741 65.13610431947745,51.73876138747437 65.26813365938142,51.87249176140176 65.53219233895652,51.87249176140176 66.2363488181727,51.538165726175066 66.45639771805145,51.13697404321283 66.67644661769737,51.13697404321283 66.72045639762655,50.93637802160811 66.94050529738888,50.602051051741 67.33659331698436,50.20085824764101 68.04074979608413,49.799664962891256 68.12876935605891,49.866530543600675 68.34881825570483,49.398471197491745 68.52485737565439,49.19787413487211 68.96495517517906,49.1310084204888 69.18500407494139,49.19787413487211 69.09698451508302,48.99727695170441 69.27302363491617,48.796679648628924 70.0651996738743,48.5292163908598 70.68133659323212,47.99428923454252 70.90138549299445,47.9274232799944 71.12143439275678,47.65995932806982 71.20945395273156,47.726825336168986 71.693561532069,47.325629087834386 71.78158109204378,47.05816465537646 72.17766911152285,46.99129851392354 72.35370823147241,46.79070000926731 72.30969845142681,46.85756619088352 72.3977180114016,46.723833814263344 72.3977180114016,46.59010138458689 72.92583537066821,46.45636890135938 72.83781581092626,46.389502639794955 73.10187449061777,46.188903774658684 73.6740016300464,45.9214384345978 74.68622656876687,45.25277414944139 74.73023634881247,45.31964063795749 74.99429502850398,45.11904113221681 75.17033414833713,45.185907647624845 75.17033414833713,45.05217460371205 75.39038304798305,44.85157493763836 76.05052974738646,44.45037524521467 76.40260798693635,44.116041801346 77.06275468622334,43.78170802333625 77.76691116532311,43.647974418941885 78.20700896484777,43.44737391185481 78.33903830475174,43.58110759634292 78.73512632434722,43.11303946640692 78.99918500403874,43.04617253737524 78.99918500403874,42.97930559498491 78.91116544406395,42.77870468760375 78.99918500403874,42.71183769160416 79.1312143439427,42.4443695746304 79.35126324358862,41.575096719461726 80.45150774228387,41.1738931023865 81.0236348817125,40.705821608309634 81.50774246128276,40.638954198453575 81.72779136092868,40.304616949899355 81.90383048076183,40.23774945986224 82.16788916045334,40.304616949899355 83.04808475950267,40.03714691041387 83.75224123871885,39.635941451066174 84.41238793788943,39.56907382767531 85.24857375700958,39.167867807584116 85.99674001627136,39.03413236068445 87.22901385475416,38.43232218900812 87.7571312142536,38.43232218900812 87.88916055415757,38.2317185580323 88.24123879370745,38.09798273752676 88.4612876935862,37.89737890631659 88.94539527292363,37.696774955053115 89.56153219228145,37.362434769340325 89.73757131199818,37.42930283313035 90.74979625095148,36.760621593828546 90.61776691104751,37.02809424966108 90.48573757137638,36.894357948360266 90.26568867149763,37.09496238018619 90.52974735118914,37.362434769340325 90.52974735118914,38.09798273752676 90.35370823147241,38.2317185580323 90.7057864710223,38.29858644847991 90.92583537090104,38.43232218900812 91.01385493064299,38.766661306784954 90.96984515071381,39.03413236068445 91.10187449061777,39.10100009053713 91.10187449061777,39.2347355109232 91.49796251009684,39.635941451066174 91.85004074976314,40.23774945986224 92.02607986959629,40.37148442611215 91.58598207007162,40.304616949899355 91.71801140985917,40.50521933916025 91.71801140985917,40.705821608309634 92.02607986959629,40.973291113594314 91.9380603096215,41.04015845648246 91.9820700896671,41.24076040519867 91.80603096971754,41.44136223391979 91.89405052969232,41.70883115171455 92.68622656876687,41.90943270010757 93.08231458836235,42.4443695746304 93.39038304798305,42.64497068230412 94.00651996722445,43.380507049383596 94.00651996722445,43.58110759634292 93.9185004074825,43.58110759634292 94.00651996722445,43.647974418941885 93.96251018741168,43.848574805713724 94.40260798693635,45.05217460371205 94.31458842696156,45.31964063795749 94.13854930712841,45.453373575233854 94.05052974738646,45.453373575233854 94.05052974738646,45.65397288053646 93.9185004074825,45.85457206601859 93.74246128764935,46.25577007624088 93.78647106757853,46.59010138458689 94.05052974738646,47.125030783441616 94.09453952719923,47.59309330658289 94.44661776674911,48.26175291943946 94.49062754691113,48.395484681852395 94.49062754691113,48.59608222541283 94.66666666662786,48.8635454296309 94.62265688669868,49.26473983575124 94.13854930712841,49.799664962891256 92.2901385492878,51.070108716055984 91.85004074976314,51.939356928371126 91.89405052969232,52.07308722232119 91.40994295023847,52.87546786497114 90.79380603099708,53.00919778534444 90.52974735118914,52.942332831793465 90.44172779121436,53.00919778534444 90.17766911152285,53.47725208566408 89.78158109204378,53.81157618536963 89.0774246128276,54.74768188933376 88.54930725332815,55.28259825985879 88.28524857375305,55.683784977009054 87.93317033408675,56.08497121374239 87.66911165427882,56.1518355399312 87.36104319465812,56.48615696997149 87.36104319465812,56.686749667918775 87.18500407494139,56.82047806630726 87.1409942950122,57.02107056387467 86.78891605522949,57.28852704059682 86.70089649548754,57.48911925786524 85.73268133646343,58.62580622037058 85.5566422167467,59.093852672114735 85.46862265688833,59.160716397396754 85.38060309691355,59.36130749367294 85.07253463729285,59.49503482415457 84.72045639762655,59.829352917382494 84.19233903824352,59.829352917382494 83.6202118989313,60.163670676527545 83.31214343919419,60.63171497924486 82.9160554195987,60.63171497924486 82.607986959978,60.36426117212977 82.43194784026127,60.56485154744587 82.21189894038253,60.56485154744587 81.6837815809995,60.096807151450776 80.84759576187935,59.762489325366914 79.35126324358862,58.8263976367889 77.94295028503984,57.756575360835996 77.45884270570241,57.82343935332028 77.19478402589448,57.68971135522588 77.06275468622334,57.4222551988787 76.18255908717401,57.087934703187784 75.83048084750772,57.15479882908403 75.47840260795783,57.622847336228006 75.47840260795783,57.555983303900575 75.17033414833713,57.622847336228006 74.5982070089085,57.95716729798005 73.9820700896671,58.090895189292496 73.58598207007162,58.35835081152618 73.54197229014244,58.224623027053894 73.27791361033451,58.5589423882775 72.52974735118914,58.692670039163204 72.26568867149763,58.96012518121279 72.52974735118914,58.62580622037058 72.17766911152285,58.62580622037058 72.26568867149763,58.692670039163204 72.26568867149763,59.02698893327033 72.17766911152285,59.42817116557853 71.64955175225623,59.896216495893896 71.47351263242308,60.29739768707077 71.51752241235226,60.49798810240463 71.34148329251911,60.63171497924486 71.3854930724483,60.76544180267956 71.3854930724483,61.032895289274165 71.0774246128276,61.032895289274165 70.94539527292363,61.23348526429618 70.59331703337375,61.300348562479485 70.50529747339897,61.56780162215 70.59331703337375,61.9021176462702 70.4612876935862,62.16957022526185 70.02118989406154,62.303296434896765 69.49307253456209,62.23643333694781 69.27302363491617,62.57074869348435 69.00896495510824,62.57074869348435 69.00896495510824,62.77133774757385 68.74490627541672,63.105652570404345 68.21678891603369,63.239378406171454 67.90872045629658,63.105652570404345 67.60065199655946,62.77133774757385 67.33659331698436,62.70447474284447 66.98451507731806,62.43702259103884 66.98451507731806,62.23643333694781 66.72045639762655,62.10270710056648 65.97229013836477,61.9021176462702 65.84026079857722,61.76839127668063 65.35615321912337,61.70152807171689 64.47595762007404,61.16662195275421 63.067644661758095,60.96603193771443 62.53952730225865,60.69857839756878 62.451507742283866,60.43112464383012 61.4392828035634,60.02994361295714 61.3952730235178,59.96308006098843 61.483292583492585,59.96308006098843 60.47106764453929,59.69562571999268 60.295028524822555,59.49503482415457 60.33903830475174,59.29444380820496 60.16299918491859,59.29444380820496 59.94295028503984,59.160716397396754 59.986960065201856,59.093852672114735 59.986960065201856,58.8263976367889 59.23879380605649,59.42817116557853 59.018744906177744,59.49503482415457 59.15077424608171,59.42817116557853 59.06275468622334,59.49503482415457 59.15077424608171,59.56189846943016 59.018744906177744,59.69562571999268 58.97473512624856,59.62876210146351 59.018744906177744,59.56189846943016 58.88671556627378,59.69562571999268 58.93072534631938,59.49503482415457 58.842705786344595,59.36130749367294 58.88671556627378,59.36130749367294 58.79869600653183,59.36130749367294 58.93072534631938,59.49503482415457 58.842705786344595,59.42817116557853 58.88671556627378,59.56189846943016 58.88671556627378,59.36130749367294 58.75468622636981,59.36130749367294 59.06275468622334,59.42817116557853" stroke="#4dd2ff" stroke-linecap="round" stroke-linejoin="round" stroke-width="0.5"><title>2022-05-21 1.8km</title></polyline><polyline fill="none" points="141.33333333337214,62.735227103636134 140.63720073678996,61.82829675450921 140.38858195208013,61.67714148489176 139.9907918969402,61.601563827338396 139.29465930024162,60.921364231267944 138.99631675879937,60.24116341190529 139.1454880295787,59.78769551953883 138.94659300195053,59.25864895817358 138.3499079189496,58.80517988820793 137.9521178638097,58.27613195255981 136.46040515659843,57.293612395384116 136.16206261515617,56.764562345837476 135.56537753215525,56.31109028618084 135.0184162063524,55.630881177290576 134.02394106821157,54.87509184400551 132.93001841637306,53.590246512234444 131.73664825048763,52.68329423866817 131.04051565378904,51.851919411390554 130.79189686931204,51.851919411390554 130.64272559864912,51.625180504866876 130.34438305709045,51.549600839294726 128.6040515655186,53.81698424075148 128.15653775329702,53.66582577009103 127.36095764278434,53.13677064728108 126.21731123386417,52.5321353150357 125.86924493557308,52.22981728674495 125.62062615109608,52.38097633118741 125.37200736650266,51.700760155392345 124.02946593007073,50.71822352032177 123.63167587481439,50.18916427521617 123.43278084730264,50.113584322534734 122.98526703508105,49.357783966406714 121.09576427272987,47.39269597316161 120.69797421735711,47.241534935630625 119.65377532236744,46.0322444596095 119.25598526722752,45.80550206504995 118.41068139963318,44.74736909335479 118.11233885830734,44.67178805361618 117.06813996308483,43.46248936280608 115.97421731136274,42.555512807681225 115.27808471466415,41.72411572217243 113.83609576430172,40.43922572286101 114.43278084730264,41.11946214857744 114.43278084730264,41.195043898100266 113.48802946601063,41.27062563243089 112.64272559864912,42.933419969980605 112.1454880295787,43.613651910593035 111.64825046050828,44.82295011798851 111.89686924486887,46.183405980526004 112.24493554327637,47.241534935630625 112.59300184180029,47.46827646921156 113.13996316771954,48.299660930846585 112.99079189694021,48.75314259409788 112.09576427272987,49.50894415847142 111.59852670365945,50.113584322534734 110.90239410684444,50.340324135060655 110.5046040515881,50.4159040422237 109.95764272566885,50.18916427521617 109.16206261515617,50.340324135060655 106.87476979743224,49.357783966406714 106.42725598544348,48.75314259409788 106.27808471466415,48.67756235471461 105.63167587481439,49.357783966406714 105.33333333337214,49.28220384780434 105.63167587481439,48.60198209999362 106.02946593007073,48.072919895203086 106.07918968691956,47.84617872381932 106.32780847151298,47.46827646921156 106.8250460405834,46.0322444596095 107.42173112358432,45.12527406588197 108.06813996308483,43.84039561887039 108.21731123386417,43.46248936280608 108.31675874779467,42.78225715042208 108.66482504608575,42.47993133001728 108.91344383056276,41.11946214857744 108.86372007371392,40.36364382234751 108.91344383056276,39.305495628505014 108.81399631686509,38.77642042178195 108.963167587528,38.24734447503579 109.26151012908667,38.02059741405537 109.6593001842266,37.41593792074127 109.95764272566885,37.264772896363866 110.45488029473927,37.34035541623598" stroke="#4dd2ff" stroke-linecap="round" stroke-linejoin="round" stroke-width="0.5"><title>2022-05-21 1.1km</title></polyline><polyline fill="none" points="179.9705291359569,43.314150533406064 179.7776289350586,42.25168609096727 179.68117883452214,42.324959698235034 178.78901540517109,42.324959698235034 178.6202277293778,42.25168609096727 178.52377762895776,42.25168609096727 178.25853985268623,42.141775625088485 178.0174146015197,42.178412454391946 177.6316141996067,42.105138788567274 177.2458137976937,41.92195449589053 176.2813127930276,41.77540693021729 175.55793703946983,41.592222308478085 174.97923643665854,41.62885924743023 174.64166108507197,41.482311447689426 174.56932350969873,41.518948408571305 174.35231078363722,42.141775625088485 174.15941058273893,42.43487005439238 173.99062290688744,42.508143588594976 173.7012726054527,42.324959698235034 173.29135967849288,42.21504927641945 172.88144675147487,42.21504927641945 172.80910917610163,42.288322898282786 172.83322170132305,42.25168609096727 172.44742129941005,42.36159649095498 172.30274614866357,42.324959698235034 172.25452109839534,42.21504927641945 172.03750837239204,42.03186509346415 171.67582049558405,41.95859136918443 170.5907568653929,41.95859136918443 170.2290689885849,41.88531761546619 169.9879437374184,41.92195449589053 168.90288010716904,41.70213310344843 168.6135298057343,41.70213310344843 168.15539182856446,41.592222308478085 166.92565304751042,41.482311447689426 166.22638981917407,41.7387700205436 166.05760214332258,41.66549617915007 165.79236436699284,41.409037503777654 165.59946416609455,41.372400520936935 165.40656396519626,41.66549617915007 165.1413261888083,43.38742371647095 164.924313462805,44.12015393789625 164.39383791020373,43.97360812766419 164.22505023441045,44.12015393789625 163.79102478234563,45.329152406644425 163.42933690553764,45.47569713422854 163.42933690553764,45.62224174501898 163.50167448085267,45.84205844158714 163.62223710649414,45.87869453204621 163.64634963159915,45.9886027595785 163.52578700595768,46.75795850950817 163.5740120562259,46.8678662104212 163.64634963159915,46.904502096091164 163.42933690553764,47.234224738233024 163.3328868050594,47.307496355919284 163.3328868050594,47.527311033773 163.23643670463935,48.11348222060769 163.23643670463935,48.47983826158452 163.09176155389287,48.91946454520803 163.04353650362464,49.359089775636676 163.1640991292661,49.79871395294322 162.92297387809958,50.09179615259927 162.87474882783135,50.34824269337696 163.1399866041611,50.53141857456649 163.1640991292661,50.604688875740976 162.85063630272634,51.11758016537351 162.82652377762133,51.227485255294596 162.87474882783135,51.41066025881446 162.87474882783135,51.63047002158419 162.8024112524581,51.8136446228018 162.8024112524581,51.96018417215964 162.53717347618658,52.50970643990149 162.46483590081334,52.58297595125623 161.88613529800205,52.58297595125623 161.66912257194053,52.36316732944397 161.57267247146228,52.36316732944397 161.403884795669,52.1799932767899 161.09042196912924,52.216628101916285 160.27059611515142,52.070088757333 159.4748827862786,52.03345390294271 159.18553248490207,52.25326291969395 158.82384460809408,52.692880163536756 158.96851975884056,52.72951488626131 158.77561955794226,52.83941901070648 158.60683188214898,53.1324963542138 158.63094440719578,53.27903485031857 158.60683188214898,53.498842375178356 158.6791694574058,53.53547693703149 158.53449430677574,53.865187664923724 158.51038178161252,54.12162893253844 158.36570663098246,54.597876050218474 158.38981915602926,54.67114472776302 158.34159410576103,55.03748767710931 158.29336905560922,55.220658877602546 158.245144005341,55.733537266161875 158.14869390486274,56.026609987413394 158.14869390486274,56.24641422127024 158.0763563294895,56.50285216132761 157.93168117880123,56.50285216132761 157.81111855327617,56.68602189910598 157.78700602805475,56.97909309928946 157.6905559276347,57.08899467876472 153.06095110514434,58.73751047151745 153.03683858003933,58.59097633401689 153.2056262558326,58.29790770809632 153.08506363019114,58.11473957913404 152.84393837902462,57.93157126751612 152.65103817812633,57.60186784566031 152.31346282653976,57.34543144136842 152.0241125250468,56.97909309928946 152.0,56.75928974301496 152.16878767579328,56.50285216132761 152.94038847950287,55.989975922886515 153.22973878093762,55.58700073004002 153.9531145344372,55.44046407673159 154.38713998656021,55.25729309572489 154.62826523772674,55.07412193187338 154.7247153382632,54.78104768936464 154.79705291352002,54.7077790555777 154.70060281309998,55.220658877602546 154.60415271262173,55.33056151009805 154.62826523772674,55.29392730649852 154.41125251172343,54.9642191457242 154.62826523772674,54.7077790555777 154.70060281309998,54.5246073432354 154.70060281309998,54.15826337001636 154.67649028799497,54.011725575939636 154.7488278633682,53.64538057886239 154.79705291352002,53.791918665374396 155.06229068990797,53.755284154758556 155.76155391824432,54.04836003539094 155.76155391824432,54.15826337001636 155.68921634287108,54.26816663876525 156.07501674478408,53.682015111422515 156.17146684520412,53.64538057886239 156.38847957126563,53.682015111422515 156.2920294708456,53.57211149156501 156.24380442057736,53.31566945603117 156.34025452111382,53.1324963542138 156.62960482249036,52.766149601797224 156.6778298727586,52.43643689931196 156.65371734753717,52.1799932767899 156.34025452111382,51.740374804358 156.43670462159207,51.703739884032984 156.62960482249036,51.44729523756541 156.82250502338866,51.33739027931006 157.13596784992842,51.00767500983784 157.16008037509164,50.787864500962314 157.35298057598993,50.53141857456649 157.42531815136317,50.49478341289796 157.59410582715645,50.641324015450664 157.81111855327617,50.641324015450664 158.51038178161252,49.61553734035988 158.60683188214898,49.54226664414455 158.75150703277905,49.50563128510839 158.92029470857233,49.359089775636676 159.4266577361268,48.66301600766019 159.59544541192008,48.29666033256217 159.86068318819162,48.076846576310345 160.07769591425313,47.747125448295265 160.27059611515142,47.56394678786455 160.34293369052466,47.34413215391396 160.87340924312593,46.75795850950817 160.96985934360418,46.53814291008166 160.94574681844097,46.39159903085965 161.25920964492252,46.13514696073253 161.83791024785023,45.329152406644425 162.00669792364351,45.2192437841295 162.175485599495,44.88951752145658 162.3683858003933,44.63306335201196 162.3683858003933,44.55979066634609 162.7300736772013,44.193426799130975 162.7782987273531,43.97360812766419 163.1399866041611,43.60724309003854 163.26054922968615,43.38742371647095 163.50167448085267,43.13096744765062 163.62223710649414,42.80123743263539 163.83924983249744,42.508143588594976 163.88747488276567,42.36159649095498 164.1286001339322,42.178412454391946 164.3215003348305,41.92195449589053 164.5144005358452,42.03186509346415 164.7073007367435,42.36159649095498 164.87608841253677,42.36159649095498 165.1172136637615,42.508143588594976 165.310113864718,42.47150682518259 165.38245143997483,42.43487005439238 165.310113864718,42.25168609096727 165.43067649024306,41.995228234969545 165.4789015405695,41.77540693021729 165.6959142665146,41.262489528467995 165.9129269926343,41.518948408571305 166.2987273944891,41.592222308478085 166.80509042192716,41.518948408571305 166.8774279973004,41.44567447928421 167.02210314804688,41.44567447928421 167.72136637638323,41.592222308478085 171.69993302080547,42.03186509346415 172.10984594776528,42.105138788567274 172.23040857329033,42.25168609096727 172.42330877430504,42.36159649095498 173.00200937711634,42.21504927641945 173.67716008034768,42.25168609096727 174.0870730073657,42.39823327631166 174.3040857334272,42.324959698235034 174.64166108507197,42.508143588594976 175.50971198931802,42.80123743263539 176.59477561956737,42.80123743263539 177.31815137306694,43.05769416225667 177.6316141996067,43.05769416225667 178.13797722704476,43.314150533406064 178.4032150033745,43.350787128540105 178.6202277293778,43.314150533406064 179.03014065639582,43.38742371647095 179.36771600798238,43.533969994750805 179.75351640989538,43.936971656861715 179.8017414601636,44.04688104732486 180.01875418622512,44.193426799130975 180.09109176154016,44.30333603596955 180.25987943733344,44.44988158298656 180.59745478903642,44.55979066634609 180.91091761557618,44.85288123344071 181.17615539184771,44.7796086356102 181.85130609507905,44.81624493819254 181.97186872072052,44.85288123344071 182.18888144672383,44.85288123344071 182.62290689890506,44.99942634148465 182.6952444742783,45.10933509575261 183.82853315473767,45.951966690976406 183.94909578032093,45.951966690976406 184.38312123244395,46.42823501158273 184.57602143334225,46.50150695128832 184.76892163429875,46.28169104468543 184.84125920961378,46.17178299256193 184.84125920961378,46.20841901720269 185.0341594106285,46.2450550346839 185.34762223705184,45.951966690976406 185.4440723375883,45.951966690976406 185.61286001343979,45.8054223437357 185.6610850635916,45.695514006351004 185.61286001343979,45.54896945430664 185.6369725385448,45.47569713422854 185.56463496317156,44.742972325650044 185.49229738779832,44.70633600842848 185.73342263896484,44.523154312570114 186.8425987943774,44.596427012758795 187.46952444745693,44.55979066634609 188.0,44.7796086356102" stroke="#4dd2ff" stroke-linecap="round" stroke-linejoin="round" stroke-width="0.5"><title>2022-05-17 2.8km</title></polyline><polyline fill="none" points="48.0,75.77617893740535 47.69305724732112,75.57630385883385 47.12302070646547,75.50967880612006 46.55298416572623,75.70955392444739 46.15834348357748,75.97605389615637 44.27283800242003,76.44242833426688 44.053593179094605,76.84217733403784 44.009744214476086,77.10867640117067 44.27283800242003,77.50842460276908 44.53593179048039,80.04015209205681 44.75517661392223,80.57314490538556 44.75517661392223,80.77301699097734 44.62362971995026,80.90626498157508 44.84287454315927,81.0395129188255 44.974421437247656,81.2393847250496 43.834348355652764,81.37263252932462 44.097442143713124,82.3719893656671 43.790499391034245,82.57186037377687 40.45797807548661,81.97224699039361 39.186358099919744,81.97224699039361 39.054811205831356,81.63912797835656 39.054811205831356,83.17147267979453 39.186358099919744,83.70446049192105 39.054811205831356,84.37069405973307 38.26552984153386,84.63718711450929 38.30937880638521,84.63718711450929 37.870889159617946,85.2367957093229 37.34470158338081,85.30341882028733 37.125456760055386,85.5699111300346 35.15225334954448,84.37069405973307 32.82825822161976,83.57121361873578 32.52131546882447,83.50459016207606 31.819732034229673,83.7710839084757 31.775883069378324,84.37069405973307 31.5566382460529,85.1035494482785 31.16199756390415,87.43535134001286 31.20584652852267,88.23482252363465 31.074299634667113,89.30078112223418 30.811205846606754,89.90038133761846 30.767356881755404,90.56660253551672 30.54811205842998,90.89971263587358 30.460414129076526,92.03228448948357 30.109622411662713,93.63120291527594 30.065773447044194,94.16417402136722 30.19732034113258,95.23011368029984 30.02192448230926,97.16212063352577 30.109622411662713,98.16143018574803 29.93422655307222,98.82763489161152 29.846528623602353,99.56045853186515 29.32034104759805,100.42652075909427 28.618757612654008,100.5597609023971 26.426309378817677,99.82693945645588 24.716199756367132,99.7603192453098 22.742996345972642,99.49383826734265 22.392204628442414,99.69369902083417 22.304506699205376,99.82693945645588 22.5237515225308,101.49244041505153 22.5237515225308,102.22525820333976 22.43605359317735,102.69159595828387 22.17295980511699,103.15793306138949 20.94518879428506,103.69088895278401 20.462850182666443,103.82412779267179 15.420219244784676,104.42370191347436 15.157125456724316,104.2904633130529 13.271619975566864,104.49032119387994 12.74543239956256,104.2904633130529 12.131546894088387,103.22455259444541 12.131546894088387,102.35849762856378 12.219244823325425,101.89215940830763 12.175395858706906,101.2925807388383 12.263093788176775,101.09272094306652 12.087697929353453,100.75962101737969 12.0,100.35990066762315 12.263093788176775,98.7610144809878 12.394640682032332,98.49453270496451 12.350791717413813,98.36129173723748 12.4823386115022,98.16143018574803 12.4823386115022,97.76170672403532 12.306942752795294,97.29536207995261 12.263093788176775,96.762395974627 12.350791717413813,95.69646121034748 12.263093788176775,95.03025025353418 12.306942752795294,94.16417402136722 12.52618757612072,93.43133853105246 12.4823386115022,92.96498783561401 12.570036540855654,92.69850143123767 12.438489646883681,92.2987714256742 12.263093788176775,92.36539312644163 12.043848964734934,92.0989062434528 12.043848964734934,91.0329565826978 12.219244823325425,90.10024783664267 12.131546894088387,89.76713693857891 12.219244823325425,88.36806753449491 12.394640682032332,87.90170976312947 12.657734470092691,86.5692553964036 12.876979293650948,86.10289511116571 12.964677222887985,85.76978022282128 13.227771010948345,85.50328807262122 13.315468940418214,85.17017258534906 14.148599269101396,84.30407076267875 14.236297198571265,84.03757744209724 14.806333739426918,83.10484914359404 14.93788063339889,82.57186037377687 15.157125456724316,82.3719893656671 16.779537149821408,82.5052367177268 17.65651644335594,82.83835486505996 18.752740560332313,83.03822559377295 19.19123020709958,83.30471971281804 19.673568818485364,83.3713432092045 20.11205846525263,83.57121361873578 20.59439707675483,83.63783706186223 21.646772228879854,84.10420079212054 22.392204628442414,84.63718711450929 23.006090134033002,84.83705676579848 24.190012180362828,84.9036799564492 25.198538367985748,84.83705676579848 26.38246041419916,85.03692629741272 26.645554202143103,84.9036799564492 29.714981729513966,85.37004191766027 30.28501827036962,85.1035494482785 30.635809987899847,84.77043356187642 30.89890377584379,83.3713432092045 30.855054811225273,83.17147267979453 32.03897685743868,82.70510764603387 32.740560292382725,82.6384840166138 32.915956150973216,82.90497845472419 33.61753958591726,83.23809620295651 35.41534713760484,84.57056387083139 35.853836784372106,84.57056387083139 36.599269183934666,84.83705676579848 37.169305724673904,84.57056387083139 37.827040194766596,84.63718711450929 38.22168087691534,84.30407076267875 38.26552984153386,84.10420079212054 38.04628501832485,83.57121361873578 37.827040194766596,83.10484914359404 37.607795371557586,82.77173126212438 38.48477466509212,82.30536566959927 40.41412911086809,82.1054945019132" stroke="#4dd2ff" stroke-linecap="round" stroke-linejoin="round" stroke-width="0.5"><title>2022-05-14 2.0km</title></polyline><polyline fill="none" points="75.19213577418122,74.76139147557842 74.95209586143028,75.12610137283627 74.81493019708432,75.54291205998743 74.78063878102694,75.75131715375755 74.30055895552505,76.16812684228353 74.54059886839241,77.73115724523086 74.64347311656456,77.83535893911903 74.78063878102694,77.8874597705726 74.84922161314171,78.14796377152379 74.84922161314171,77.83535893911903 74.71205594879575,77.93956059163611 74.54059886839241,78.77317231286725 74.67776453273837,78.98157482717943 74.98638727760408,79.08577602193691 75.08926152589265,79.29417828661099 75.02067869377788,79.50258038484026 75.05497010983527,79.65888184926007 75.36359285470098,80.33618711349845 75.50075851916336,80.90929019487521 75.46646710310597,82.52439210761804 75.50075851916336,82.7327916262293 75.39788427087478,83.35798918396176 75.53504993522074,84.08738444157643 75.43217568693217,84.45208130589162 75.46646710310597,85.38987090262526 75.39788427087478,85.49406953869038 75.50075851916336,86.17135965905618 75.46646710310597,86.90074705368897 75.53504993522074,87.05704408739985 75.46646710310597,87.42173680187261 75.53504993522074,88.46371317794546 75.46646710310597,88.98469980587834 75.6722155995667,89.50568539388769 75.77508984785527,90.18296510337677 75.63792418350931,90.54765344971383 75.84367268020287,91.95430372598639 75.77508984785527,92.05849974116427 75.77508984785527,92.31898959704267 75.84367268020287,92.4231854666723 75.80938126414549,93.20465316252375 75.94654692849144,93.621434976827 75.91225551243406,93.98611851833994 75.98083834454883,94.66338660064503 75.94654692849144,95.02806868618063 75.98083834454883,95.75743132850039 75.94654692849144,95.86162582520046 76.15229542506859,96.27840339658724 76.18658684112597,96.7993744245905 76.32375250558835,97.2161504982505 76.28946108953096,97.4245382854715 76.39233533781953,97.78921651281416 76.32375250558835,98.10179744494963 76.32375250558835,98.36228126920469 76.59808383428026,99.24792432649701 76.83812374714762,99.56050351145677 76.90670657926239,99.76888942686492 76.97528941149358,99.76888942686492 77.11245507583953,100.65452771095443 77.35249498859048,101.0192014251079 77.45536923687905,101.69645125654642 77.72970056568738,102.16531549493084 77.79828339791857,102.99884983891388 77.90115764620714,103.10304144475958 77.93544906226452,103.72819020616589 78.1069061429007,103.93657279390027 78.31265463936143,104.71800601611903 78.72415163263213,105.08267405239167 78.72415163263213,105.34315090936434 79.03277437761426,106.07248472544597 79.13564862590283,106.43715086924203 79.10135720972903,106.80181650348823 78.99848296144046,106.95810161928239 78.99848296144046,107.42695640529564 79.13564862590283,107.84371550794458 79.2042314580176,107.94790517965157 79.51285420299973,107.79162065668788 79.54714561905712,107.94790517965157 79.65001986734569,107.84371550794458 79.71860269957688,107.84371550794458 79.30710570630617,108.0 79.34139712236356,107.89581034895673 79.30710570630617,107.94790517965157 79.51285420299973,107.84371550794458 79.51285420299973,107.89581034895673 79.44427137076855,108.0 79.44427137076855,107.73952579463366 79.37568853865378,107.94790517965157 79.71860269957688,107.94790517965157 79.27281429024879,107.16648162821366 79.27281429024879,107.01019663702755 79.16994004196022,106.69762637422536 79.23852287407499,106.43715086924203 79.2042314580176,106.07248472544597 79.13564862590283,105.81200859640376 79.13564862590283,105.39524624946353 78.99848296144046,105.08267405239167 78.92990012932569,104.40543300793797 78.0383233105531,102.47789118580113 77.86686623014975,101.64435517799575 77.79828339791857,101.0192014251079 77.55824348516762,100.39404617466789 77.52395206911024,100.18566075855051 77.45536923687905,100.08146798801317 77.07816365978215,98.72695818622014 76.76954091491643,97.99760384255205 76.56379241822287,97.63292590637866 76.32375250558835,96.48679193251883 76.22087825718336,96.38259768529679 76.35804392164573,95.86162582520046 76.32375250558835,95.2885555781395 76.18658684112597,94.87177642610914 76.0837125928374,94.19450888475694 76.0837125928374,92.78787068267411 76.11800400889479,92.4231854666723 76.04942117678002,92.21479368604196 76.0837125928374,91.85010766919004 76.04942117678002,91.64171543082921 76.11800400889479,91.17283228632004 76.01512976060621,91.01653771760175 76.01512976060621,90.59975174309511 76.0837125928374,90.2350634697068 75.98083834454883,89.81827624734433 76.04942117678002,89.60988238654681 75.98083834454883,89.34938982661697 76.04942117678002,89.24519272979524 75.84367268020287,88.15112070189207 75.87796409626026,87.7864290067082 75.77508984785527,87.36963787392597 75.84367268020287,87.26543998657144 75.80938126414549,86.692350863319 75.77508984785527,86.53605361121299 75.74079843179788,86.0671612933802 75.53504993522074,85.33777156902943 75.56934135139454,84.45208130589162 75.6722155995667,84.24368316018081 75.6722155995667,83.56638803702663 75.63792418350931,83.1495901644812 75.46646710310597,82.88909115610295 75.56934135139454,82.36809235927649 75.53504993522074,81.58659221393464 75.50075851916336,81.48239201772958 75.63792418350931,81.16979117943265 75.56934135139454,80.70088921995193 75.60363276745193,80.54458837964921 75.56934135139454,80.33618711349845 75.2950100224698,79.91938408196438 75.05497010983527,79.13787660375237 74.74634736485314,78.72107165836496 74.5748902844498,78.61687031797192 74.64347311656456,78.56476963211026 74.81493019708432,77.8874597705726 74.5748902844498,77.41855191352079 74.50630745210219,77.05384522002714 74.54059886839241,76.79334012675099 74.40343320381362,76.5328347737377 74.33485037169885,75.75131715375755 74.23197612341028,75.17820274521364 74.0605190427741,74.76139147557842 73.99193621065933,74.13617332307331 73.99193621065933,73.45885196744348 73.88906196237076,73.30254678944766 73.82047913013957,72.78152885384043 73.61473063367885,72.05210199636349 74.26626753946766,72.26050987798953 74.40343320381362,72.20840792325907 74.54059886839241,72.0" stroke="#4dd2ff" stroke-linecap="round" stroke-linejoin="round" stroke-width="0.5"><title>2022-05-14 1.7km</title></polyline><polyline fill="none" points="136.17639090621378,72.0 135.86542098922655,72.03149965341436 135.78249567805324,72.06299930054229 135.74103302240837,72.31499625064316 135.3264064663672,72.53549325185304 134.6837353045703,72.31499625064316 134.28984007635154,72.66149139982008 133.60570625885157,72.69299092126312 133.04596040822798,72.85048843335244 132.90084111364558,73.00798578820832 132.6313338521868,73.10248412571673 132.21670729620382,73.48047690943349 132.09231932944385,73.85846878768643 131.9264687069808,74.0474643872003 130.72405169450212,74.11046286999772 130.47527576086577,73.92146734599373 130.10211186046945,73.79547020418977 129.97772389365127,73.76397090306273 129.81187327130465,73.85846878768643 129.72894796007313,73.85846878768643 129.68748530448647,73.98446587918443 129.68748530448647,74.23645976022817 129.52163468208164,74.67744808371936 129.3557840596186,74.7719454212056 128.89969484804897,75.40192622486211 128.73384422558593,75.4964231284248 128.09117306373082,75.4964231284248 127.63508385210298,75.4649241668667 127.17899464053335,75.11843517443049 126.93021870683879,74.80344452119607 126.49486082303338,74.55145154558704 126.03877161140554,74.39395573158981 125.7278016944183,74.39395573158981 124.9400112379808,74.29945816764666 124.4424593707663,74.14196210201771 124.27660874830326,74.20496054714022 123.86198219226208,74.0474643872003 123.38516165287001,73.98446587918443 123.11565439141123,73.88996806993964 122.86687845783308,73.88996806993964 122.53517721302342,73.70097228174563 121.99616269016406,73.66947296175931 121.85104339558166,73.76397090306273 121.78884941211436,73.76397090306273 121.78884941211436,73.63797363545746 121.49861082294956,73.54347561876057 121.24983488937141,73.60647430278186 121.06325293914415,73.7324715956347 120.87667098891689,73.79547020418977 120.33765646605752,73.41747817500436 119.6742539764382,73.22848182088637 119.19743343698792,73.1339835589024 118.51329961954616,73.1339835589024 118.26452368596802,73.03948524026782 117.80843447434017,73.00798578820832 117.37307659053477,72.88198791685863 116.87552472332027,72.88198791685863 115.71457036642823,72.724490436216 115.29994381038705,72.91348739416571 114.843854598701,73.25998122892634 114.78166061529191,73.44897754539852 114.6987353041186,73.98446587918443 114.57434733730042,74.3309573619481 114.47069069830468,74.89794178312877 114.51215335394954,74.866442702114 114.11825812567258,74.99243898862915 113.57924360287143,75.02393804457097 113.59997493063565,75.43342519906582 113.53778094728477,75.55942103271082 113.53778094728477,75.71691568332608 113.47558696387568,76.00040565828385 113.24754235800356,76.66188028553734 113.24754235800356,77.00836588833772 113.10242306342116,77.38634931427077 112.9158411132521,78.11081501642184 112.87437845760724,78.55179251079971 112.7707218186697,79.02426702973025 112.74999049078906,79.55973644086043 112.70852783526061,79.87471759841719 112.52194588497514,80.56767393165501 112.45975190156605,81.19763159344438 112.37682659039274,81.44961395404243 112.29390127921943,82.04807044719928 112.2109759679297,82.30005144949246 112.08658800116973,82.48903693708417 112.00366268993821,82.86700723302783 111.83781206753338,83.21347920897824 111.79634941200493,83.55995042419818 111.38172285596374,85.29229508723074 111.31952887255466,85.638761737413 111.31952887255466,85.98522762674838 111.44391683931462,86.2686991521623 111.54757347836858,86.89863405180222 111.58903613395523,87.18210393610934 111.54757347836858,87.7175456614932 111.52684215054614,87.90652466015308 111.29879754467402,88.63094205803645 110.98782762768678,89.35535612989042 110.88417098863283,89.76480609063583 110.6353950551129,90.33173505133891 110.65612638287712,90.42622301346273 110.59393239946803,90.96165372968244 110.65612638287712,91.4025953081582 110.65612638287712,91.52857838998898 110.67685771064134,91.62306563530001 110.69758903852198,92.18998791910417 110.51100708829472,92.5364394231874 110.49027576047229,92.72541265023756 110.55246974388137,93.00887206628977 110.55246974388137,93.16634929973225 110.67685771064134,93.60728471699986 110.80124567745952,94.14270463852154 110.82197700522374,94.39466632589756 110.90490231651347,94.6781227432366 110.86343966086861,94.83559831058665 110.9256336442777,95.15054897380469 110.9256336442777,96.18988170221564 110.96709629992256,96.5678191788902 111.11221559456317,96.97725042363163 111.15367825009162,97.63863711310842 111.19514090573648,97.7331206996314 111.2158722335007,98.04806557930715 111.23660356126493,98.99289644662349 111.31952887255466,99.2763446035824 111.31952887255466,99.49680392915616 111.5683048061328,100.34714415683993 111.77561808412429,101.57540528452955 111.8585433952976,101.7958613979572 111.87927472317824,101.95332986181893 111.98293136211578,102.14229181104747 112.23170729581034,103.21307191555388 112.33536393474787,103.46501911937958 112.41828924592119,104.03189885734173 112.48048322938848,104.2208583173342 112.52194588497514,104.59877655857417 112.64633385185152,105.039680029382 112.66706517961575,105.22863828264235 112.87437845760724,105.92148327520408 112.95730376878055,106.6458179691981 113.08169173565693,107.0237304027105 113.22681103023933,107.33865673921537 113.39266165258596,107.9055225609336 113.51704961940413,108.0 113.7658255530987,107.93701504703495 113.68290024186717,107.84253757026454 113.49631829163991,106.99223773455014 113.4133929804666,106.86626699872431 113.18534837465268,106.17342615462258 113.10242306342116,105.41759630960587 112.97803509666119,105.16565222335339 112.93657244101632,104.81922844798828 112.79145314643392,104.50429708314186 112.72925916302484,104.1578718558012 112.66706517961575,103.96891232028429 112.66706517961575,103.87443246769544 112.56340854062,103.49651249157614 112.41828924592119,103.18157848673582 112.25243862357456,102.64618923587841 112.23170729581034,102.33125353390642 112.16951331240125,102.11079816851998 112.04512534558307,101.89034249511315 111.92073737870669,101.57540528452955 111.94146870658733,101.35494886302331 111.90000605094247,101.13449213356944 111.94146870658733,101.04001058376161 111.90000605094247,100.66208381901379 111.94146870658733,100.47312009714369 111.94146870658733,100.09519197458576 111.96220003435155,99.78025118089863 111.87927472317824,99.43381558184046 111.87927472317824,99.30783881177194 111.92073737870669,99.24485038901912 112.64633385185152,98.96140217551147 113.04022908001207,98.96140217551147 113.0609604078345,98.92990789815667 113.37193032482173,98.86691932451504 114.30484007595805,98.89841361444269 114.36703405936714,98.8039307257568 114.32557140372228,98.77243641698442 114.36703405936714,98.5519760793104 114.3463027314865,98.3945042208943 114.28410874807741,98.14254892067402 114.2011834369041,97.98507665372745 114.09752679790836,97.10322905436624 114.11825812567258,96.5678191788902 114.13898945349501,96.37885055370862 114.09752679790836,95.93792288163968 114.2011834369041,94.5836373273196 114.18045210913988,94.11120939931425 114.26337742031319,92.44195272476645 114.24264609254897,92.28447476842848 114.24264609254897,91.05614131457696 114.15972078131745,90.61519876787497 114.11825812567258,90.36323104496114 114.0560641422635,89.41834850073792 114.07679547008593,89.10338639514521 113.97313883109018,88.31597838072048 113.95240750332596,87.62305607723829 113.72436289745383,86.0797181918897 113.7036315696896,85.60726480062294 113.64143758628052,85.35528908016568 113.64143758628052,85.16630702580733 113.53778094728477,84.5363652096712 113.4133929804666,84.28438777892734 113.33046766929328,83.62294510877109 113.33046766929328,83.15048436094366 113.24754235800356,82.7725147439196 113.14388571906602,82.61502713625669 113.16461704683024,82.42604179962655 113.0609604078345,82.04807044719928 112.93657244101632,80.85115519077226 112.99876642442541,80.81965729828516 112.93657244101632,80.3786861426488 112.7707218186697,79.84321951099264 112.72925916302484,79.37074744443817 112.7707218186697,79.24475465438445 112.74999049078906,78.55179251079971 112.83291580196237,77.63833776200772 112.89510978537146,77.26035493961535 113.24754235800356,76.22089750884334 113.2682736858842,76.03190451298724 113.20607970247511,75.43342519906582 113.35119899705751,75.33892825769726 113.35119899705751,75.2759302653576 113.47558696387568,74.9609399264591 113.59997493063565,74.80344452119607 113.848750864272,74.7719454212056 114.24264609254897,74.89794178312877 114.22191476466833,74.92944085792988 114.59507866512286,74.67744808371936 114.61580999294529,74.20496054714022 114.71946663194103,73.66947296175931 114.74019795976346,73.44897754539852 114.82312327093678,73.22848182088637 115.21701849915553,72.94498686509905 115.5487197440234,72.75598994489701 115.77676434983732,72.724490436216 117.53892721288139,72.94498686509905 117.93282244115835,73.03948524026782 119.86083592666546,73.19698240645812 120.23399982706178,73.29148063076718 120.64862638310296,73.48047690943349 121.02179028349929,73.35447941548773 121.37422285613138,73.35447941548773 121.83031206775922,73.48047690943349 122.05835667357314,73.41747817500436 122.6595651798416,73.48047690943349 122.86687845783308,73.48047690943349 122.99126642465126,73.48047690943349 123.19857970270095,73.63797363545746 123.65466891427059,73.60647430278186 124.60830999317113,73.66947296175931 125.16805584379472,73.82696949905949 125.4375631051953,73.98446587918443 126.05950293922797,74.0789636317204 126.39120418409584,74.23645976022817 126.70217410108307,74.45695407602761 126.82656206790125,74.67744808371936 126.95095003471943,74.74044631494326 127.09606932930183,74.89794178312877 127.36557659076061,75.11843517443049 127.61435252433876,75.24443125979451 128.11190439155325,75.2759302653576 128.17409837496234,75.40192622486211 128.94115750357741,75.43342519906582 129.1484707816271,75.4964231284248 129.23139609280042,75.59091997538053 129.54236600984586,75.87441017680976 130.06064920482459,76.1264010391169 130.24723115511006,76.2838951239246 130.765514350147,76.44138905133877 131.09721559489844,76.69337900825485 131.11794692277908,76.66188028553734 131.345991528593,76.69337900825485 131.61549878999358,76.40989027838805 131.6984241011669,76.44138905133877 131.86427472357173,76.15789986876189 131.8435433958075,75.77991349955846 131.73988675681176,75.55942103271082 131.76061808457598,75.43342519906582 131.8435433958075,75.37042724435742 132.23743862402625,75.40192622486211 132.50694588548504,75.33892825769726 133.02522908046376,75.08693613744981 133.54351227544248,75.11843517443049 133.58497493108734,75.05543709413905 134.14472078171093,75.18143322966353 134.14472078171093,74.9609399264591 134.5386160099879,74.67744808371936 134.58007866551634,74.48845323889691 134.60080999339698,73.82696949905949 134.51788468222367,73.98446587918443 134.41422804316971,74.0474643872003 134.41422804316971,73.98446587918443 134.28984007635154,74.0789636317204" stroke="#4dd2ff" stroke-linecap="round" stroke-linejoin="round" stroke-width="0.5"><title>2022-05-13 4.4km</title></polyline><polyline fill="none" points="180.9316983417375,72.0 176.85800562635995,72.73821610669256 179.36201857984997,84.37906291768013 177.6054721797118,85.45794654601195 174.57823263877071,83.12982412995188 173.38228615361731,84.09514549312007 174.57823263877071,105.38816591663635 171.96209970244672,106.69408595611458 164.89854077377822,108.0 163.81471427169163,102.83308762818342 163.9268342545256,93.691397345101 159.0683016582625,93.12358080374543 159.25516829651315,99.76696338529291 160.63798142015003,101.4703698228841 161.83392790541984,101.64070990571054 163.2167410289403,100.67544808815 163.66522096085828,94.7702456509287 161.08646135218441,93.63461574201938 159.44203493499663,95.0541524196451 159.40466160711367,100.22120609950798 160.7127280754503,101.52714986186766 161.94604788848665,101.64070990571054 162.9925010629231,101.52714986186766 163.40360766719095,100.44832718459656 163.51572765025776,94.65668286406435 161.68443459481932,93.5210525017319 159.40466160711367,94.65668286406435 159.25516829651315,100.05086516679148 160.3763681264827,101.30002963822335 162.9925010629231,101.41358977273921 163.59047430567443,97.43895808947855 163.36623433965724,94.37277569860453 162.28240783733781,93.63461574201938 160.11475483281538,94.08886824974616 159.666274900781,100.95934896287508 161.08646135218441,101.75426990418055 163.14199437364005,101.30002963822335 163.47835432260763,96.92792998637015 163.36623433965724,100.67544808815" stroke="#4dd2ff" stroke-linecap="round" stroke-linejoin="round" stroke-width="0.5"><title>2022-05-04 3.1km</title></polyline><polyline fill="none" points="40.65156610356644,112.44723336111929 40.798738001380116,112.0 40.28363635903224,112.61494568730996 40.98270287364721,112.44723336111929 40.50439420575276,112.89446600803058 39.179847125546075,113.00627405795967 38.14964384085033,113.34169794039917 36.60433891392313,113.22989002424583 37.00906163291074,113.50940973102115 36.78830378619023,114.06844830718182 37.229819479514845,114.45977464638418 37.08264758181758,114.96290770765336 37.19302650517784,115.6337503825489 37.487370300805196,116.13688133428514 37.74492112197913,117.19904370766017 37.74492112197913,117.75807491714659 38.03926491749007,118.20529908133904 38.33360871311743,119.3233563665708 38.627952508744784,121.22404350568831 38.591159534291364,121.72716441229568 38.627952508744784,123.51603142550448 38.73833143210504,124.13095182196412 39.10626117663924,124.63406750539434 38.44398763647769,125.5843946631503 37.3401984028751,125.69619764617528 37.04585460736416,125.30488701041031 36.67792486282997,124.91357582779892 35.79489347606432,124.29865715018241 35.279791833716445,124.13095182196412 34.39676044683438,123.46012950435397 33.77127988112625,123.40422757212946 33.40335013659205,123.90734456131759 33.21938526444137,124.41046064642433 33.29297121334821,125.52849315485219 33.62410798331257,126.59061990304326 33.66090095776599,127.20553354734147 33.62410798331257,128.88256389561866 33.66090095776599,130.0005785478279 33.80807285569608,131.17448912828695 33.66090095776599,132.96329578766017 33.77127988112625,133.52229552525387 33.77127988112625,134.1371939474775 33.51372905995231,134.5843919520412 33.44014311116189,135.64648435031995 33.697693932335824,136.65267343287996 33.73448690667283,137.2116658052255 33.844865830033086,137.82655612600502 33.77127988112625,138.8886362269841 33.992037727846764,140.0066109287436 34.17600260023028,141.29227631776303 34.47034639574122,142.35434327388066 34.507139370194636,142.96922230192285 34.80148316582199,144.0871807122021 34.39676044683438,145.37282736632915 33.881658804486506,145.82000742766832 33.44014311116189,146.04359719039348 32.888248494360596,146.26718677475583 32.336353877559304,146.32308414288855 31.821252235327847,146.6025708164816 30.055189461563714,146.8261599545658 27.66364612232428,147.27333769485995 27.07495853106957,147.5528234201047 26.486270939814858,147.66461763190455 25.382481706212275,148.0 24.8305870895274,147.8882059219177 24.573036268353462,147.38513201841852 24.389071396086365,146.21128939544724 24.13152057491243,145.7082124792796 23.910762728191912,144.4784651013033 23.910762728191912,143.86358938731428 23.80038380494807,142.85742621553072 23.873969753738493,142.29844511342526 24.057934626122005,138.94453506814898 24.168313549482264,138.44144509654143 24.205106523819268,137.3234641458257 24.057934626122005,136.65267343287996 24.057934626122005,136.0936799444753 23.947555702761747,135.53468534018612 24.09472760045901,134.36079303904262 23.910762728191912,133.85769483214244 23.358868111507036,133.7458951076842 22.07111400575377,133.35459572107357 21.519219388836063,133.29869576396595 20.34184420632664,133.13099582618452 19.679570666281506,133.13099582618452 19.12767604959663,133.2427957958862 19.12767604959663,134.24899351569184 19.054090100573376,134.86389034215244 19.01729712623637,135.42288628555252 19.090883075026795,136.48497550364118 19.01729712623637,137.6029598020832 19.45881281956099,137.994253251818 19.385226870770566,139.22402910607343 19.274847947410308,139.8389150081057 19.75315661530476,140.84508902595553 20.67298097652383,141.4599713680509 21.81356318446342,141.68356461233634 22.843766469159164,141.18047956185183 23.174903239123523,140.7332920912304 23.358868111507036,140.23020533350063 23.432454060413875,137.04396821059345 23.616418932564557,135.4787858184718 23.616418932564557,134.91978998661216 23.358868111507036,134.4725925178791 22.843766469159164,134.08129414674477 22.32866482681129,133.85769483214244 21.114496669964865,133.7458951076842 20.525809078710154,133.96949451166438 20.0475004108157,134.24899351569184 19.679570666281506,134.69619134157256 19.45881281956099,135.14338845325983 19.385226870770566,136.26137810808723 19.45881281956099,136.82037126172509 19.42201984510757,137.88245517908945 19.34843389620073,139.00043389800703 19.45881281956099,140.23020533350063 19.75315661530476,140.7332920912304 20.231465283082798,141.23637794540264 20.74656692543067,141.57176801266905 21.923942107823677,141.68356461233634 22.954145392519422,141.51586969594064 23.211696213693358,141.06868276103341 23.39566108584404,140.45379955973476 23.5060400092043,139.8389150081057 23.5060400092043,138.60914185413276 23.579625958227552,138.05015227152035 23.542832983657718,137.54706069290114 23.616418932564557,137.04396821059345 23.579625958227552,135.31108718598261 23.469247034867294,134.80799068648776 23.174903239123523,134.30489328296972 22.255078877904452,133.7458951076842 21.66639128664974,133.68999522886588 20.12108635972254,133.91359467746224 19.45881281956099,134.75209101955988 19.385226870770566,135.4787858184718 19.45881281956099,137.88245517908945 19.385226870770566,138.49734402682225 19.45881281956099,139.11223152457387 19.34843389620073,139.61532029088994 19.274847947410308,140.11840815344476 19.569191742921248,140.56559660591302 19.900328513002023,140.95688591590442 20.378637180896476,141.29227631776303 20.893738823244348,141.62766631809063 21.408840465475805,141.7394628955808 21.960735082393512,141.68356461233634 22.47583672462497,141.7394628955808 22.954145392519422,141.4599713680509 23.432454060413875,140.39790101983817 23.579625958227552,137.49116157292156 23.432454060413875,135.03158924239688 23.322075137053616,134.5284922404535 22.843766469159164,134.1371939474775 22.255078877904452,133.80179497537029 21.15128964430187,133.68999522886588 20.599395027616993,133.80179497537029 20.15787933417596,134.24899351569184 19.75315661530476,134.69619134157256 19.605984717491083,135.31108718598261 19.495605794130825,136.48497550364118 19.53239876846783,137.04396821059345 19.42201984510757,138.16195027723734 19.42201984510757,138.7768385114323 19.34843389620073,139.33582664334972 19.495605794130825,140.45379955973476 19.716363640734926,141.01278434402775 20.562602053047158,141.7394628955808 21.114496669964865,141.79536116750387 22.733387545798905,141.68356461233634 23.1013172903331,141.34817467913672 23.28528216248378,140.78919056418817 23.39566108584404,139.61532029088994 23.432454060413875,139.11223152457387 23.358868111507036,138.60914185413276 23.542832983657718,138.10605127982853 23.469247034867294,136.9880689901329 23.5060400092043,137.54706069290114 23.616418932564557,138.05015227152035 23.653211907017976,139.67121898685582 23.579625958227552,140.17430674897332 23.358868111507036,140.67739360725682" stroke="#4dd2ff" stroke-linecap="round" stroke-linejoin="round" stroke-width="0.5"><title>2022-05-04 3.2km</title></polyline><polyline fill="none" points="87.31823277031071,112.44723336111929 87.46540466812439,112.0 86.95030302577652,112.61494568730996 87.64936954039149,112.44723336111929 87.17106087249704,112.89446600803058 85.84651379229035,113.00627405795967 84.81631050759461,113.34169794039917 83.2710055806674,113.22989002424583 83.67572829965502,113.50940973102115 83.4549704529345,114.06844830718182 83.89648614625912,114.45977464638418 83.74931424856186,114.96290770765336 83.85969317192212,115.6337503825489 84.15403696754947,116.13688133428514 84.41158778872341,117.19904370766017 84.41158778872341,117.75807491714659 84.70593158423435,118.20529908133904 85.0002753798617,119.3233563665708 85.29461917548906,121.22404350568831 85.25782620103564,121.72716441229568 85.29461917548906,123.51603142550448 85.40499809884932,124.13095182196412 85.77292784338351,124.63406750539434 85.11065430322196,125.5843946631503 84.00686506961938,125.69619764617528 83.71252127410844,125.30488701041031 83.34459152957425,124.91357582779892 82.4615601428086,124.29865715018241 81.94645850046072,124.13095182196412 81.06342711357865,123.46012950435397 80.43794654787052,123.40422757212946 80.07001680333633,123.90734456131759 79.88605193118565,124.41046064642433 79.95963788009249,125.52849315485219 80.29077465005685,126.59061990304326 80.32756762451027,127.20553354734147 80.29077465005685,128.88256389561866 80.32756762451027,130.0005785478279 80.47473952244036,131.17448912828695 80.32756762451027,132.96329578766017 80.43794654787052,133.52229552525387 80.43794654787052,134.1371939474775 80.18039572669659,134.5843919520412 80.10680977790616,135.64648435031995 80.3643605990801,136.65267343287996 80.4011535734171,137.2116658052255 80.51153249677736,137.82655612600502 80.43794654787052,138.8886362269841 80.65870439459104,140.0066109287436 80.84266926697455,141.29227631776303 81.1370130624855,142.35434327388066 81.17380603693891,142.96922230192285 81.46814983256627,144.0871807122021 81.06342711357865,145.37282736632915 80.54832547123078,145.82000742766832 80.10680977790616,146.04359719039348 79.55491516110487,146.26718677475583 79.00302054430358,146.32308414288855 78.48791890207212,146.6025708164816 76.72185612830799,146.8261599545658 74.33031278906856,147.27333769485995 73.74162519781385,147.5528234201047 73.15293760655914,147.66461763190455 72.04914837295655,148.0 71.49725375627168,147.8882059219177 71.23970293509774,147.38513201841852 71.05573806283064,146.21128939544724 70.7981872416567,145.7082124792796 70.57742939493619,144.4784651013033 70.57742939493619,143.86358938731428 70.46705047169235,142.85742621553072 70.54063642048277,142.29844511342526 70.72460129286628,138.94453506814898 70.83498021622654,138.44144509654143 70.87177319056354,137.3234641458257 70.72460129286628,136.65267343287996 70.72460129286628,136.0936799444753 70.61422236950602,135.53468534018612 70.76139426720329,134.36079303904262 70.57742939493619,133.85769483214244 70.02553477825131,133.7458951076842 68.73778067249805,133.35459572107357 68.18588605558034,133.29869576396595 67.00851087307092,133.13099582618452 66.34623733302578,133.13099582618452 65.7943427163409,133.2427957958862 65.7943427163409,134.24899351569184 65.72075676731765,134.86389034215244 65.68396379298065,135.42288628555252 65.75754974177107,136.48497550364118 65.68396379298065,137.6029598020832 66.12547948630527,137.994253251818 66.05189353751484,139.22402910607343 65.94151461415458,139.8389150081057 66.41982328204904,140.84508902595553 67.33964764326811,141.4599713680509 68.4802298512077,141.68356461233634 69.51043313590344,141.18047956185183 69.8415699058678,140.7332920912304 70.02553477825131,140.23020533350063 70.09912072715815,137.04396821059345 70.28308559930883,135.4787858184718 70.28308559930883,134.91978998661216 70.02553477825131,134.4725925178791 69.51043313590344,134.08129414674477 68.99533149355557,133.85769483214244 67.78116333670914,133.7458951076842 67.19247574545443,133.96949451166438 66.71416707755998,134.24899351569184 66.34623733302578,134.69619134157256 66.12547948630527,135.14338845325983 66.05189353751484,136.26137810808723 66.12547948630527,136.82037126172509 66.08868651185185,137.88245517908945 66.01510056294501,139.00043389800703 66.12547948630527,140.23020533350063 66.41982328204904,140.7332920912304 66.89813194982708,141.23637794540264 67.41323359217495,141.57176801266905 68.59060877456795,141.68356461233634 69.6208120592637,141.51586969594064 69.87836288043763,141.06868276103341 70.06232775258832,140.45379955973476 70.17270667594858,139.8389150081057 70.17270667594858,138.60914185413276 70.24629262497183,138.05015227152035 70.209499650402,137.54706069290114 70.28308559930883,137.04396821059345 70.24629262497183,135.31108718598261 70.13591370161157,134.80799068648776 69.8415699058678,134.30489328296972 68.92174554464873,133.7458951076842 68.33305795339402,133.63409533871163 66.78775302646682,133.91359467746224 66.12547948630527,134.75209101955988 66.05189353751484,135.4787858184718 66.12547948630527,137.88245517908945 66.05189353751484,138.49734402682225 66.12547948630527,139.11223152457387 66.01510056294501,139.61532029088994 65.94151461415458,140.11840815344476 66.23585840966552,140.56559660591302 66.5669951797463,140.95688591590442 67.04530384764075,141.29227631776303 67.56040548998863,141.62766631809063 68.07550713222008,141.7394628955808 68.62740174913779,141.68356461233634 69.14250339136925,141.7394628955808 69.6208120592637,141.4599713680509 70.09912072715815,140.39790101983817 70.24629262497183,137.49116157292156 70.09912072715815,135.03158924239688 69.9887418037979,134.5284922404535 69.51043313590344,134.1371939474775 68.92174554464873,133.80179497537029 67.81795631104615,133.68999522886588 67.26606169436127,133.80179497537029 66.82454600092024,134.24899351569184 66.41982328204904,134.69619134157256 66.27265138423536,135.31108718598261 66.1622724608751,136.48497550364118 66.1990654352121,137.04396821059345 66.08868651185185,138.16195027723734 66.08868651185185,138.7768385114323 66.01510056294501,139.33582664334972 66.1622724608751,140.45379955973476 66.3830303074792,141.01278434402775 67.22926871979143,141.7394628955808 67.78116333670914,141.79536116750387 69.40005421254318,141.68356461233634 69.76798395707738,141.34817467913672 69.95194882922806,140.78919056418817 70.06232775258832,139.61532029088994 70.09912072715815,139.11223152457387 70.02553477825131,138.60914185413276 70.209499650402,138.10605127982853 70.13591370161157,136.9880689901329 70.17270667594858,137.54706069290114 70.28308559930883,138.05015227152035 70.31987857376225,139.67121898685582 70.24629262497183,140.17430674897332 70.02553477825131,140.67739360725682" stroke="#4dd2ff" stroke-linecap="round" stroke-linejoin="round" stroke-width="0.5"><title>2022-05-04 3.2km</title></polyline><polyline fill="none" points="129.12780305044726,148.0 125.69644109508954,139.54122000461211 126.14963984373026,113.37709756201366 117.66834897268564,112.0 117.60360629437491,122.62322437489638 119.99908539536409,126.85277773946291 124.40158752677962,125.18063307413831 124.98427163250744,115.63946377273533 122.71827788860537,112.88527744589373 118.51000379188918,114.6558275661082 118.704231827287,125.37735627041548 121.03496824996546,126.75441644547391 124.72530091903172,124.49210126852267 124.85478627565317,114.6558275661082 121.55290967714973,112.88527744589373 118.5747464701999,114.95091863418929 118.25103307841346,124.49210126852267 120.12857075221837,126.45933244630578 122.91250592353754,126.55769379920093 124.85478627565317,124.49210126852267 124.85478627565317,114.75419127504574 120.71125485771336,113.08200555137591 118.31577575672418,115.93455425143475 118.51000379188918,125.18063307413831 123.62467538611963,126.75441644547391 125.243242346216,124.9839097991935 125.37272770307027,115.1476459147234 123.36570467241108,112.98364150870475 120.58176950109191,112.88527744589373 117.92731968616135,116.13128113929997 118.5747464701999,125.08227144635748 122.84776324522682,127.04950026792358 125.30798502452672,124.19701591451303 124.66055824048817,113.67218939610757 123.10673395870253,112.59018514072523 118.704231827287,113.4754615262209 117.53886361606419,122.91831067137537 119.61062932480127,126.75441644547391 124.27210217015818,126.26260968195857 125.43747038138099,118.68872353379265 124.20735949161462,113.77055330143776 120.12857075221837,112.88527744589373 118.05680504324846,117.311640816828 117.92731968616135,124.59046301408671 119.86960003850982,126.55769379920093 123.55993270757608,126.26260968195857 124.98427163250744,123.90193038384314 124.85478627565317,115.34437311682268 118.704231827287,114.55746383738006 117.79783432953991,118.98381218680879" stroke="#4dd2ff" stroke-linecap="round" stroke-linejoin="round" stroke-width="0.5"><title>2022-03-10 3.4km</title></polyline><polyline fill="none" points="173.28056652843952,140.3389358081331 171.32849388336763,135.72575328542734 171.43694236373994,113.6476658299216 168.617281876388,112.16476687905379 164.17089418508112,112.0 164.22511842520908,121.47398868526216 166.0145183497807,124.35733337639249 169.1053000377724,124.02780928838183 170.18978484056424,122.70971030544024 170.62357876158785,114.30673031971673 167.31590011308435,112.57668378876406 164.6589123464655,114.38911330711562 164.5504638660932,122.54494763651746 168.12926371535286,124.35733337639249 170.40668180107605,122.21542210134794 170.40668180107605,113.89481513711507 167.31590011308435,112.74145043775206 164.6589123464655,114.55387923223316 164.5504638660932,122.13304067653371 166.88210619206075,124.35733337639249 170.29823332082015,122.38018490179093 170.51513028144836,114.80102799655288 169.1053000377724,112.90621702049975 165.96029410976917,113.07098353776382 164.87580930697732,114.14196429608273 164.5504638660932,121.8035148124618 167.31590011308435,124.43971435714047 170.18978484056424,122.9568541853514 170.40668180107605,114.80102799655288 169.70176667917985,113.31813319033245 167.20745163294487,112.65906712130527 164.6589123464655,114.71864509163424 164.93003354698885,123.03923544590361 168.34616067586467,124.43971435714047 170.7862514819717,122.38018490179093 169.70176667917985,112.98860028726631 166.2856395506533,112.65906712130527 164.6589123464655,114.80102799655288 164.71313658647705,122.54494763651746 166.61098499130458,124.19257136530359 169.15952427778393,124.2749523789389 170.4609060413204,122.05065923507209 170.02711212006398,113.73004894860787 165.47227594838478,113.15336677164305 163.89977298432495,118.17871294173528 163.6286517836852,115.21294227484032 163.89977298432495,112.0 171.382718123612,112.41191707417602 171.7080635643797,130.12396232318133 172.90099684742745,138.93851085056667 176.3713482163148,146.7643541043799 175.82910581491888,148.0" stroke="#4dd2ff" stroke-linecap="round" stroke-linejoin="round" stroke-width="0.5"><title>2022-03-08 3.7km</title></polyline><polyline fill="none" points="27.926676985109225,152.0 27.008491078508087,152.90007007514942 26.860396577394567,155.87027582318115 29.851905499002896,168.20071148774878 29.46685979620088,173.19569601750118 29.940762199577875,178.37056325584126 32.132560815429315,187.05507347434468 33.13960342260543,188.0 31.62903951178305,181.97040083618776 30.0,178.2805665796477 29.644573197583668,167.3457030413556 30.088856700691395,164.69065614134888 29.644573197583668,163.3406203002669 28.43019828875549,162.7106008074188 27.126966679352336,157.5353740460123 27.660106883267872,156.59031980729196" stroke="#4dd2ff" stroke-linecap="round" stroke-linejoin="round" stroke-width="0.5"><title>2022-01-09 1.7km</title></polyline><polyline fill="none" points="85.98050426086411,154.6586212951952 85.61597049992997,154.1047439598915 86.96474541572388,154.54784591670614 86.74602515914012,153.16314995175344 87.98543994664215,152.8308218918537 87.03765216795728,152.0 86.30858464585617,154.21551951544825 86.8918386636069,152.22155274784018 86.85538528731558,153.4954776136874 83.39231455756817,153.7170291670045 83.13714092492592,154.99094716568652 84.08492870361079,157.20644279473345 84.6317293450702,165.29285169538343 83.10068754886743,165.34823724490707 79.74697694729548,163.07742064436025 79.49180331453681,163.63128006579063 79.78343032347038,175.4836066669668 80.94993835873902,184.51097366669273 78.68982904031873,186.0062760393921 71.5449673240073,188.0 70.08683227992151,184.4002102073282 70.37845928885508,173.87747991783544 65.42080013873056,173.15748904639622 65.53016026702244,179.19427773731877 66.84248180675786,181.18805065078777 68.40997697925195,181.29881539256894 69.57648501452059,180.3019311248354 69.68584514281247,174.81900362258602 68.59224385966081,173.65594446418982 67.42573582427576,173.60056057319161 65.89469402807299,175.09592175131547 66.04050753242336,180.57884378067683 67.75381620926782,181.29881539256894 69.57648501452059,180.4126962202281 69.61293839057907,175.15130534379568 68.55579048360232,173.8220960710314 66.07696090848185,174.4867015034106 66.00405415636487,179.52657421799086 67.35282907215878,181.1326682632498 69.72229851887096,180.08040080107457 69.68584514281247,175.4836066669668 68.7380573641276,173.7667122130515 66.25922778912354,174.0990151946753 65.8582406520145,179.85887030043523 67.20701556780841,181.35419774678303 69.5400316384621,180.19116598508845 69.68584514281247,174.87438727037807 69.28485800570343,173.932863753711 67.75381620926782,173.4897927577549 66.04050753242336,174.70823629377992 65.8582406520145,179.9696355728811 66.84248180675786,181.24343302728084 68.0454432182014,181.35419774678303 69.68584514281247,180.08040080107457 69.68584514281247,175.04053814745566 68.7380573641276,173.8220960710314 66.25922778912354,174.20978276677488 65.56661364308093,177.3112568295328 65.34789338649716,173.04672105418285 70.52427279320545,172.65903273319418 72.89374223980121,159.03421336913016 73.87798339466099,158.64650546570192 77.59622775728349,160.64042605397117 78.54401553585194,160.19733382832783 78.79918916872703,158.314183974333 83.68394156650174,158.70189234220015 84.99626310612075,157.53876561312063 87.47509268124122,158.203410055532 87.18346567230765,153.16314995175344 86.8918386636069,154.49245821089426 85.50661037152167,154.32629502678174" stroke="#4dd2ff" stroke-linecap="round" stroke-linejoin="round" stroke-width="0.5"><title>2021-12-30 4.7km</title></polyline><polyline fill="none" points="129.13516237586737,188.0 124.73798668035306,176.95905932574533 125.95942437346093,153.1134438473382 117.77579182945192,152.0 117.71471994486637,163.13431844569277 119.97437967709266,165.639503338316 122.72261448670179,165.54671895332285 124.5547710263636,163.41267298936145 124.86013044975698,154.69081806502072 122.0508237555623,152.5567222571699 118.75294198398478,153.67016477059224 117.77579182945192,162.94874865724705 120.34081098507158,165.4539345500525 122.35618317895569,165.639503338316 124.31048348778859,163.8765968584048 124.7990585649386,154.59803149459185 122.8447582561057,152.74229619442485 119.30258894595318,153.29901756261825 117.53150429087691,162.39203884726157 119.54687648452818,165.54671895332285 122.9669020252768,165.17558122857008 124.7990585649386,163.3198881598655 124.86013044975698,155.15475063992199 122.53939883271232,152.6495092350524 118.14222313743085,153.94852498240652 117.83686371403746,163.3198881598655 120.52402663906105,165.54671895332285 124.31048348778859,163.7838121217792 124.73798668035306,154.59803149459185 121.19581737020053,152.18557415957912 118.26436690683477,154.04131168249296 117.77579182945192,163.3198881598655 119.48580459970981,165.36115012824303 123.94405217980966,164.34052026472636 125.04334610374644,155.43310996243963 124.43262725719251,153.67016477059224 121.68439244735055,152.74229619442485 118.56972632999532,154.31967167175026 117.95900748344138,163.7838121217792 119.79116402310319,165.54671895332285 123.3944052180741,165.26836568766157 124.5547710263636,163.8765968584048 124.7990585649386,155.34032353994553 123.27226144867018,152.5567222571699 117.89793559885584,153.29901756261825 117.89793559885584,164.06216627650429" stroke="#4dd2ff" stroke-linecap="round" stroke-linejoin="round" stroke-width="0.5"><title>2021-12-27 3.1km</title></polyline><polyline fill="none" points="175.8412002052646,188.0 177.93521537352353,154.17678807483753 162.06478462647647,152.0 164.26901111914776,174.7722725853091 167.9059848319739,178.28852427884704 172.8654944403097,178.6234046233585 176.17183417920023,175.27459515765077 175.73098888085224,158.36290310963523 169.00809807842597,154.00934303860413 164.1587997940369,157.1907930058078 165.81196966394782,174.10250868613366 170.1102113246452,178.6234046233585 175.6207775559742,175.77691743004834 175.17993225739338,158.36290310963523 169.66936602583155,154.51167804608122 164.26901111914776,157.35823740652995 166.25281496229582,176.11179877776885 172.20422649243847,178.79084474634146 175.95141152990982,175.60947670636233 175.17993225739338,158.86523550981656 169.88978867512196,154.51167804608122 166.47323761181906,154.8465678843204 163.7179544956889,158.6977914099698 164.70985641749576,174.7722725853091 170.3306339737028,178.12108405597974 175.8412002052646,175.77691743004834 175.6207775559742,159.36756760952994 169.11830940283835,154.67912298231386 163.82816582056694,158.53034727630438 164.70985641749576,174.10250868613366 169.66936602583155,178.12108405597974 174.40845298510976,177.45132283127168 176.50246815313585,172.59553795936517 175.2901435822714,158.36290310963523 168.23661880544387,154.34423307713587 164.82006774214096,155.68379189417465 163.93837714521214,159.20012360997498 164.82006774214096,174.7722725853091 172.20422649243847,179.12572489015292 176.17183417920023,173.76762653660262 175.069720932981,157.52568177407375 170.99190192157403,154.34423307713587 166.03239231277257,154.67912298231386 162.83626389876008,160.53967467148323 164.26901111914776,175.60947670636233 171.32253589550965,178.45596446777927 176.28204550384544,173.93506762810284 176.50246815313585,158.19545890955487 168.78767542890273,153.50700773025164 163.7179544956889,156.5210150682251 163.7179544956889,173.93506762810284 168.67746410449035,178.28852427884704 175.73098888085224,174.10250868613366 175.510566231329,159.0326795760775 174.07781901117414,156.0186812641332 168.01619615661912,154.17678807483753 163.38732052175328,157.6931261079735" stroke="#4dd2ff" stroke-linecap="round" stroke-linejoin="round" stroke-width="0.5"><title>2021-12-07 3.6km</title></polyline><polyline fill="none" points="33.00146487890743,209.5683366661542 31.421746521489695,193.24804509343812 24.976495624054223,192.0 23.775909672258422,194.78409614652628 24.40779701527208,205.44031524352613 27.88317740149796,207.26432907878188 30.663481710245833,206.49632409680635 31.54812399018556,204.6723073486355 30.979425381636247,194.88009917459567 25.482005498139188,193.6320583166962 23.965475875185803,199.29621774112456 25.60838296683505,206.68832545704208 30.09478310146369,207.07232794817537 31.674501458881423,200.8322494761378 30.473915507318452,194.49608694779454 25.482005498139188,194.4000838433276 24.344608281040564,202.08027164812665 25.987515372689813,206.40032338764286 28.26230980711989,208.12833321781363 30.789859178708866,207.4563301326707 31.232180319027975,197.76018110016594 30.09478310146369,194.97610218339832 25.482005498139188,194.01607123340364 23.902287140954286,198.4321977342188 25.987515372689813,207.36032961515593 30.663481710245833,207.1683285231993 30.979425381636247,195.55211983332993 28.45187600981444,193.92006803286495 25.60838296683505,194.49608694779454 24.155042078113183,197.56817617529305 26.05070410692133,207.07232794817537 29.90521689853631,207.26432907878188 31.10580285033211,205.8243187314365 31.54812399018556,197.3761711732368 29.020574618596584,194.01607123340364 25.482005498139188,194.59209003314027 24.344608281040564,196.1281367932097 24.59736321819946,204.96031045319978 27.2512900584843,207.64833110995824 30.157971835695207,207.1683285231993 31.168991584563628,205.8243187314365 31.484935255954042,196.89615833378048 29.589273227378726,194.49608694779454 27.06172385555692,193.92006803286495 24.66055195266381,196.80015570792602 24.723740686895326,205.9203195552982 28.199121072655544,207.4563301326707 31.358557787258178,204.76830840250477 30.979425381636247,196.1281367932097 26.745780183933675,194.20807757650618 24.66055195266381,197.3761711732368 25.545194232603535,206.49632409680635 28.07274360442534,207.55233063103515 31.295369053259492,205.72831788813346 31.232180319027975,196.5121477166831 30.031594367232174,194.59209003314027 27.377667526947334,194.01607123340364 25.102873092517257,195.4561169394292 24.155042078113183,198.04818834396428 23.902287140954286,206.30432265962008 23.775909672258422,193.05603836703813 32.1168225989677,192.76802813322865 32.68552120751701,214.1763187260367 36.22409032774158,228.0" stroke="#4dd2ff" stroke-linecap="round" stroke-linejoin="round" stroke-width="0.5"><title>2021-12-06 4.4km</title></polyline><polyline fill="none" points="86.98305950965732,192.0 82.41278655116912,193.4158028368547 81.30349699826911,195.30353071846184 76.06765030813403,195.6406238725176 72.42918057425413,201.30373854676145 71.31989102123771,206.62967640036368 72.16295108140912,213.30383436131524 70.92054678220302,219.23630847854656 66.92710439127404,217.68578553051339 63.466120986035094,217.7531997198821 63.288634657510556,225.10126566857798 64.70852528535761,227.52811471148743 67.01584755559452,227.86517569894204 69.05694033321925,226.24727988996892 69.19005507940892,219.9104466700519 67.50393495894969,218.02285634237342 66.08404433121905,217.82061389577575 64.22043788200244,219.37113622453762 63.909836807171814,226.1798673964222 65.81781483837403,228.0 67.90327919810079,227.79776352838962 69.0125687510008,226.1798673964222 69.05694033321925,220.38234260337777 66.88273280928843,218.02285634237342 64.13169471768197,219.43855007729144 63.643607314443216,225.70797956449678 66.08404433121905,227.93258785636863 68.65759609406814,226.51692972960882 69.05694033321925,220.11268786521396 67.72579286957625,218.29251274943817 65.77344325615559,217.7531997198821 64.17606630001683,219.23630847854656 63.8654652251862,225.91021728742635 66.52776015235577,228.0 68.61322451196611,226.78657935431693 68.83508242247626,219.57337774254847 66.1727874953067,217.8880280580488 64.22043788200244,219.43855007729144 64.17606630001683,225.37091642350424 65.15224110649433,227.25846567907138 66.61650331644341,227.66293914677226 68.61322451196611,226.584342156013 69.05694033321925,219.43855007729144 67.19333388411906,217.7531997198821 65.64032850996591,218.49475491340854 64.35355262842495,219.97786041506333 63.99857997149229,222.53957275833818 63.73235047876369,219.16889458545484 70.56557412527036,216.94422856069286 72.96163955971133,201.97791253897594 75.93453556182794,199.1463727269147 81.88032756582834,197.12382975281798 87.24928900238592,198.74186510121217 84.80885198561009,195.84287960352958 87.82611956994515,193.0787074615364 90.044698675978,193.01128834628616" stroke="#4dd2ff" stroke-linecap="round" stroke-linejoin="round" stroke-width="0.5"><title>2021-11-11 3.8km</title></polyline><polyline fill="none" points="141.33333333337214,198.02408186461253 138.77871148462873,198.12622821464902 138.1400560225593,198.84125152172055 137.26610644266475,198.48374011801207 134.47619047621265,194.60215557213814 132.22408963588532,195.93007270302041 128.92997198889498,199.8116370986245 126.17366946779657,200.67987370530318 119.55182072846219,199.70949142186146 117.43417366954964,201.54810736516083 114.07282913173549,200.42451030341908 107.68627450987697,199.76056426536525 106.67787114856765,200.2202193984558 105.33333333337214,203.48885430155497 106.57703081239015,200.47558300413948 107.98879551829305,199.9648555375752 117.29971988813486,201.2927448299015 122.77871148462873,201.0373820396926 124.22408963588532,201.75239720965328 125.46778711490333,203.6420705379569 127.75350140058435,204.66350976815738 126.54341736703645,216.97153181892645 125.8375350140268,217.63543318776647 124.02240896364674,217.12473998015048 121.26610644266475,217.83971018560987 121.09803921566345,223.35512746371387 121.90476190473419,225.29570896703808 124.52661064441781,225.39784442786186 125.63585434190463,223.86580823398253 125.8375350140268,220.75063967828464 125.19887955195736,219.47392029438925 121.9383753502043,218.86109272710746 121.29971988801844,221.6698736892431 121.23249299719464,218.24826369145012 121.80392156878952,217.58436391294526 125.09803921577986,217.5332946278795 126.77871148474514,216.00121133406356 127.71988795523066,208.39172834648343" stroke="#4dd2ff" stroke-linecap="round" stroke-linejoin="round" stroke-width="0.5"><title>2021-11-09 2.8km</title></polyline><polyline fill="none" points="182.54899158375338,193.6201853157254 183.59556365921162,192.39004620941705 182.8451912276796,192.0 181.14697993552545,192.060007174965 179.5869951437926,193.11012885962555 177.41486442118185,193.59018204265158 176.07209270179737,195.36036490194965 175.28222698444733,195.57038521335926 171.7475778995431,193.38015896374418 168.31166202924214,193.6201853157254 163.84892072639195,192.99011532419536 162.9208285085624,193.26014564406069 162.01248293370008,195.2103502140235 161.163377287623,195.78040523128584 160.5512313566869,198.5706433299929 162.36792250646977,210.4210773458908 162.20994936302304,220.68069840855605 164.5203065861715,227.46006369918177 161.81501650437713,228.0 160.94616421533283,225.75025261676637 158.7937801356311,215.34098303303472 156.40443634078838,210.5410769617738 157.09556884341873,210.0010779355507 158.77403349272208,209.8510778616328 162.11121614836156,210.48107716582308 161.22261721640825,201.99086451975745" stroke="#4dd2ff" stroke-linecap="round" stroke-linejoin="round" stroke-width="0.5"><title>2021-11-07 3.5km</title></polyline><polyline fill="none" points="32.826651384704746,266.58721348310064 33.087000854313374,267.0958174415282 28.02878258691635,265.9655851816642 27.02457748982124,262.7443984802085 25.945986829930916,262.2357867023529 23.75161272857804,263.4790583234426 20.478647967451252,267.3783748012356 19.883563465438783,266.4176786272583 23.230913789360784,248.84201428260712 24.64423948165495,234.0346589777182 26.020372392609715,232.39562928020314 28.84702377731446,232.0 34.23997707699891,233.3564409437531 36.69470064796042,235.44760799524374 39.85608706495259,235.56064361176686 40.11643653456122,238.10393305122852 38.479954153997824,244.37728262064047 39.11223143734969,247.7682244927273 37.289785149972886,248.27686226945661 36.955050117569044,249.6332252053253 32.008410194306634,253.92833161949238 30.18596390692983,257.43218594574137 26.727035238873214,261.21856040516286 27.433698085020296,265.90907345025335 29.07018046558369,267.2653518913139 31.636482380563393,266.700236663979 32.380338008049875,268.0" stroke="#4dd2ff" stroke-linecap="round" stroke-linejoin="round" stroke-width="0.5"><title>2021-11-04 2.2km</title></polyline><polyline fill="none" points="89.23663073580246,232.21037559180695 88.32676708966028,232.0 86.80373446439626,232.72128651919775 86.28946370782796,232.4808580634417 81.72036583215231,235.09549689939013 76.1622857323382,233.3824627923459 73.80850803887006,233.56278309004847 69.3580880301306,232.7813935730519 68.21086865005782,233.2021422786638 67.81527576036751,234.73485976009397 67.02408998104511,235.00533769559115 66.31202277966077,238.73187310835056 67.91417398280464,250.51192668442673 67.77571647142759,260.87881327280775 69.61522340832744,265.35588559416647 69.99103665351868,267.429115593186 68.62624118424719,268.0 67.57792002661154,267.699534792584 66.94497140310705,264.33428350005124 65.36259984440403,260.81871743671945 65.20436268858612,255.1996507802396 64.35383797576651,253.03610395141004 64.09670259751147,250.69222646421986 64.51207513164263,249.6705248565704 65.93620953446953,249.82077552792907" stroke="#4dd2ff" stroke-linecap="round" stroke-linejoin="round" stroke-width="0.5"><title>2021-11-02 3.0km</title></polyline><polyline fill="none" points="136.78758294967702,232.0 135.87202405463904,232.06710861729516 133.05835525516886,235.3218450233253 131.07092253182782,234.65077040923643 128.10093879903434,239.11336724078865 128.23492302763043,240.32126820950361 124.81832519971067,242.53573121393856 120.19586931494996,246.69616010712343 114.94815369689604,253.60761717348942 113.80928775429493,256.5264498217002 110.34802851692075,261.4581575854827 110.01306794560514,262.76654603803763 110.39268992649158,264.4439525244379 111.88884714519372,266.490366213402 114.61319312558044,267.7316216316249 116.86859430605546,268.0 114.30056325899204,267.7987162631907 111.39757164049661,265.95360433030874 110.437351335946,264.67878812286654 109.87908371700905,262.8671908900724 110.16938287887024,261.6259002528823 113.83161845913855,256.69419731447124 114.09958691615611,254.84896586717514 117.56084615353029,249.91706797228835 120.70947552431608,246.15933624605532 128.12326950387796,239.98574101629492 130.8922768936609,234.51655517113977 131.47287521738326,234.34878597571515 133.03602455044165,235.45605963082926 136.09533110220218,232.10066291609837 136.6089373116265,232.06710861729516 136.22931533079827,232.40265131002525" stroke="#4dd2ff" stroke-linecap="round" stroke-linejoin="round" stroke-width="0.5"><title>2016-05-06 3.5km</title></polyline><polyline fill="none" points="160.61422274878714,268.0 157.81653914507478,266.03409144880425 156.57563109509647,263.0512910399266 156.95918449235614,261.7632477119332 160.72703257156536,256.9838453419652 160.81728042976465,255.1534009992174 166.99925871542655,246.9500609770039 174.6703266610275,240.27184853854124 178.0094974138774,234.23750620585633 179.8370165421511,235.1867425300734 183.1987492594635,232.0 183.42436890496174,232.5085266760143" stroke="#4dd2ff" stroke-linecap="round" stroke-linejoin="round" stroke-width="0.5"><title>2016-03-22 1.7km</title></polyline></svg>