<?xml version="1.0" encoding="utf-8" ?>
<svg baseProfile="full" height="300mm" version="1.1" viewBox="0,0,200,300" width="200mm" xmlns="http://www.w3.org/2000/svg" xmlns:ev="http://www.w3.org/2001/xml-events" xmlns:xlink="http://www.w3.org/1999/xlink"><defs /><rect fill="#222222" height="300" width="200" x="0" y="0" /><text fill="#FFFFFF" style="font-size:12px; font-family:Arial; font-weight:bold;" x="10" y="20">Over 1km Workouts</text><text fill="#FFFFFF" style="font-size:4px; font-family:Arial" x="10" y="280">ATHLETE</text><text fill="#FFFFFF" style="font-size:9px; font-family:Arial" x="10" y="290">underwindfall</text><text fill="#FFFFFF" style="font-size:4px; font-family:Arial" x="120" y="280">STATISTICS</text><text fill="#FFFFFF" style="font-size:3px; font-family:Arial" x="120" y="285">Number: 16</text><text fill="#FFFFFF" style="font-size:3px; font-family:Arial" x="120" y="290">Weekly: 1.8</text><text fill="#FFFFFF" style="font-size:3px; font-family:Arial" x="141" y="285">Total: 51.4 km</text><text fill="#FFFFFF" style="font-size:3px; font-family:Arial" x="141" y="290">Avg: 3.2 km</text><text fill="#FFFFFF" style="font-size:3px; font-family:Arial" x="167" y="285">Min: 1.7 km</text><text fill="#FFFFFF" style="font-size:3px; font-family:Arial" x="167" y="290">Max: 4.7 km</text><polyline fill="none" points="44.798160634352826,32.25 40.215256329625845,33.08049312001094 43.032270902302116,46.17644578238833 41.05615620210301,47.39018986426527 37.65051171858795,44.77105214621406 36.305071922717616,45.85703867973643 37.65051171858795,69.81168665620498 34.70736216509249,71.28084670062526 26.760858370456845,72.75 25.541553555522114,66.93722358168452 25.667688536224887,56.65282201321679 20.20183936553076,56.014028404228156 20.41206433356274,63.487833808438154 21.96772909758147,65.40416605075006 23.313168893568218,65.59579864391708 24.868833657586947,64.50987909917603 25.3733735808637,57.8665263572766 22.47226902109105,56.58894270975725 20.622289301711135,58.18592147208983 20.580244307988323,63.99885686195921 22.051819084910676,65.46804359459202 23.439303874387406,65.59579864391708 24.616563695832156,65.46804359459202 25.079058625618927,64.25436808267841 25.205193606438115,57.738768222072395 23.14498891902622,56.46118406445021 20.580244307988323,57.738768222072395 20.41206433356274,63.807223312644055 21.67341414222028,65.21253334300127 24.616563695832156,65.34028849433525 25.289283593767323,60.86882785067428 25.03701363201253,57.41937266092282 23.81770881684497,56.58894270975725 21.379099186859094,57.09997678096988 20.87455926334951,64.82926758323447 22.47226902109105,65.72355364219402 24.78474367025774,65.21253334300127 25.16314861283172,60.29392123466823 25.03701363201253,64.50987909917603" stroke="#4dd2ff" stroke-linecap="round" stroke-linejoin="round" stroke-width="0.5"><title>2022-05-04 3.1km</title></polyline><polyline fill="none" points="89.48301186657045,32.75313753125374 89.64858025149442,32.25 89.06909090396948,32.941813898214605 89.85554073285311,32.75313753125374 89.31744348153006,33.25627425900893 87.82732801616658,33.3820583151828 86.66834932100028,33.75941018294543 84.92988127807621,33.63362627726747 85.3851943371119,33.948085947398795 85.13684175955132,34.57700434557046 85.63354691455606,35.017246477189474 85.46797852951568,35.583271171111846 85.59215481823776,36.33796918037115 85.92329158843495,36.90399150105077 86.21303626219742,38.098924171121325 86.21303626219742,38.72783428177354 86.5441730322782,39.23096146649914 86.87530980224255,40.48877591238124 87.20644657243975,42.62704894389026 87.16505447600503,43.19305996381445 87.20644657243975,45.20553535368526 87.33062286116183,45.897320799704175 87.7445438237628,46.463325943564996 86.99948609108105,47.532443996024085 85.75772320327815,47.658222351950826 85.42658643331379,47.217997886706144 85.01266547071282,46.77777280626469 84.01925516058691,46.08598929393338 83.43976581294555,45.897320799704175 82.44635550270323,45.14264569239458 81.74268986622337,45.07975601864746 81.32876890373882,45.64576263149502 81.12180842249654,46.21176822722191 81.20459261501674,47.46955479920143 81.5771214812994,48.66444739091094 81.61851357750129,49.35622524074279 81.5771214812994,51.24288438257645 81.61851357750129,52.50065086630639 81.78408196265809,53.82130026930827 81.61851357750129,55.83370776110678 81.74268986622337,56.462582465901505 81.74268986622337,57.1543431909231 81.4529451924609,57.657440946029965 81.37016100005712,58.852294894109946 81.6599056738196,59.984257611999055 81.70129777002148,60.61312403087504 81.82547405885998,61.30487564174109 81.74268986622337,62.49971575534437 81.99104244390037,63.757437294814736 82.19800292525906,65.2038108574634 82.52913969522342,66.39863618311938 82.57053179142531,67.09037508966867 82.9016685616225,68.34807830123464 82.44635550270323,69.79443078712211 81.86686615506187,70.29750835610321 81.37016100005712,70.54904683917994 80.74927955609746,70.80058512158575 80.12839811237063,70.8634696607478 79.54890876472928,71.17789216854726 77.56208814424463,71.4294299488829 74.87160188762937,71.93250490672654 74.20932834746782,72.24692634760868 73.54705480730627,72.3726948358817 72.30529191950336,72.75 71.68441047577653,72.62423166216468 71.39466580189764,72.05827352072811 71.18770532053895,70.73770056987996 70.89796064677648,70.17173903918592 70.6496080692159,68.7882732389553 70.6496080692159,68.0965380607231 70.52543178061023,66.96460449247388 70.60821597301401,66.33575075259432 70.8151764543727,62.562601951678516 70.93935274309479,61.99662573359092 70.98074483929668,60.738897164032096 70.8151764543727,59.984257611999055 70.8151764543727,59.355389937525615 70.6910001655342,58.72652100768755 70.8565685505746,57.4058921689284 70.6496080692159,56.83990668616025 70.02872662537266,56.71413199615199 68.58000325644389,56.273920186184114 67.95912181248423,56.21103273445624 66.63457473216113,56.02237030444667 65.8895169995958,56.02237030444667 65.26863555575255,56.14814527035924 65.26863555575255,57.28011770514422 65.18585136323236,57.97187663492514 65.14445926703047,58.60074707123567 65.22724345943425,59.795597441581776 65.14445926703047,61.05332977735088 65.64116442203522,61.49353490830981 65.55838022963144,62.87703274434898 65.43420394079294,63.568779384106165 65.97230119223241,64.70072515419452 67.0071035985602,65.3924677890609 68.29025858244859,65.64401018887293 69.44923727784771,65.07803950709058 69.82176614401396,64.57495360262692 70.02872662537266,64.00898100016639 70.11151081800926,60.42446423691581 70.31847129913513,58.663634045777144 70.31847129913513,58.03476373493322 70.02872662537266,57.53166658259579 69.44923727784771,57.09145591506967 68.86974793020636,56.83990668616025 67.50380875368137,56.71413199615199 66.84153521351982,56.96568132561515 66.30343796219677,57.28011770514422 65.8895169995958,57.78321525926003 65.64116442203522,58.286312009906396 65.55838022963144,59.544050371594494 65.64116442203522,60.172917669435265 65.59977232583333,61.367762076464714 65.51698813319672,62.62548813523608 65.64116442203522,64.00898100016639 65.97230119223241,64.57495360262692 66.51039844355546,65.14092518857797 67.0898877910804,65.51823901425814 68.41443487128709,65.64401018887293 69.5734135665698,65.45535340791685 69.86315824044868,64.95226810616441 70.07011872157454,64.2605245047016 70.19429501041304,63.568779384106165 70.19429501041304,62.185284585895715 70.27707920293324,61.55642130546039 70.23568710661493,60.99044327950105 70.31847129913513,60.42446423691581 70.27707920293324,58.47497308423044 70.15290291421115,57.90898952228599 69.82176614401396,57.34300494333729 68.78696373768616,56.71413199615199 68.12469019752461,56.58835725605604 66.38622215471696,56.902794012159575 65.64116442203522,57.846102397015784 65.55838022963144,58.663634045777144 65.64116442203522,61.367762076464714 65.55838022963144,62.05951203018776 65.64116442203522,62.75126046515652 65.51698813319672,63.31723532723845 65.43420394079294,63.88320917263627 65.7653407107573,64.3862961816485 66.13786957715638,64.82649665538338 66.67596682859585,65.2038108574634 67.25545617612079,65.58112460785196 67.83494552376214,65.70689575752476 68.45582696760539,65.64401018887293 69.03531631524675,65.70689575752476 69.5734135665698,65.3924677890609 70.11151081800926,64.19763864731067 70.27707920293324,60.92755676951492 70.11151081800926,58.160537897696486 69.98733452917077,57.59455377049744 69.44923727784771,57.1543431909231 68.78696373768616,56.77701934729703 67.54520084988326,56.651244632463204 66.92431940615643,56.77701934729703 66.42761425091885,57.28011770514422 65.97230119223241,57.78321525926003 65.80673280719202,58.47497308423044 65.68255651835352,59.795597441581776 65.72394861455541,60.42446423691581 65.59977232583333,61.68219406189746 65.59977232583333,62.37394332536496 65.51698813319672,63.00280497377389 65.68255651835352,64.2605245047016 65.93090909579769,64.88938238704577 66.88292730972171,65.70689575752476 67.50380875368137,65.76978131342912 69.32506098900922,65.64401018887293 69.73898195161019,65.2666965140088 69.94594243285246,64.63783938469714 70.07011872157454,63.31723532723845 70.11151081800926,62.75126046515652 70.02872662537266,62.185284585895715 70.23568710661493,61.61930768980528 70.15290291421115,60.361577613890404 70.19429501041304,60.99044327950105 70.31847129913513,61.55642130546039 70.35986339545343,63.3801213602128 70.27707920293324,63.94609509257134 70.02872662537266,64.51206780815846" stroke="#4dd2ff" stroke-linecap="round" stroke-linejoin="round" stroke-width="0.5"><title>2022-05-04 3.2km</title></polyline><polyline fill="none" points="129.01877843192779,72.75 125.15849623200484,63.233872505195905 125.66834482434206,33.799234757287195 116.12689259438775,32.25 116.05405708122998,44.20112742178026 118.74897106993012,48.95937495690305 123.70178596768528,47.07821220843471 124.3573055868037,36.34439674435998 121.80806262465194,33.245937126659555 117.07375426613726,35.237806011893554 117.29226080561057,47.2995258042356 119.91433928115293,48.84871850119089 124.0659635339398,46.30361392709892 124.21163456025533,35.237806011893554 120.49702338664792,33.245937126659555 117.1465897790622,35.56978346349206 116.78241221327335,46.30361392709892 118.89464209624566,48.516749002126744 122.02656916389242,48.62740552413743 124.21163456025533,46.30361392709892 124.21163456025533,35.34846518444829 119.55016171513125,33.46725624531973 116.85524772643112,36.67637353288592 117.07375426613726,47.07821220843471 122.82775980955921,48.84871850119089 124.64864763943478,46.85689852409996 124.79431866598316,35.79110165408929 122.53641775646247,33.35659669729648 119.40449068881571,33.245937126659555 116.41823464701883,36.89769128174521 117.1465897790622,46.96755537719582 121.95373365096748,49.180687801446766 124.72148315259255,45.971642903838074 123.9931280205492,34.131213070621016 122.24507570359856,32.91395828334498 117.29226080561057,33.90989421700942 115.98122156807221,44.53309950532275 118.31195799051784,48.84871850119089 123.55611494160257,48.295435892243404 124.86715417914093,39.77481397552765 123.48327942821197,34.24187246413203 118.89464209624566,33.245937126659555 116.5639056735672,38.22559591894969 116.41823464701883,46.41427089087665 118.60330004338175,48.62740552413743 122.75492429616861,48.295435892243404 124.3573055868037,45.63967168185627 124.21163456025533,36.012419756443705 117.29226080561057,35.12714681707439 116.27256362093613,40.10678871019627" stroke="#4dd2ff" stroke-linecap="round" stroke-linejoin="round" stroke-width="0.5"><title>2022-03-10 3.4km</title></polyline><polyline fill="none" points="171.19063734426163,64.13130278413882 168.99455561861396,58.9414724460803 169.11656015901826,34.10362405865453 165.94444211083464,32.435362738906406 160.94225595821626,32.25 161.003258228302,42.90823727089446 163.01633314345963,46.15200004840153 166.49346254230477,45.78128544939682 167.7135079454165,44.298424093576614 168.20152610656805,34.84507160965586 164.48038762714714,32.8987692623341 161.4912763896864,34.93775247049052 161.3692718492821,44.113066091085784 165.39542167959735,46.15200004840153 167.95751702599227,43.742349864012795 167.95751702599227,34.38166702922899 164.48038762714714,33.084131742449244 161.4912763896864,35.12311413625139 161.3692718492821,43.649670761078596 163.99236946599558,46.15200004840153 167.8355124858208,43.9277080144966 168.07952156639658,35.40115649611107 166.49346254230477,33.269494148058584 162.9553308733739,33.454856479977025 161.73528547026217,34.65970983309671 161.3692718492821,43.27895416400861 164.48038762714714,46.24467865176848 167.7135079454165,44.57646095851669 167.95751702599227,35.40115649611107 167.16448751394637,33.732899839116726 164.35838308697566,32.99145051144296 161.4912763896864,35.30847572805942 161.7962877403479,44.66913987661246 165.63943076017313,46.24467865176848 168.3845329170581,43.9277080144966 167.16448751394637,33.36217532315641 163.32134449435398,32.99145051144296 161.4912763896864,35.40115649611107 161.55227865977213,44.113066091085784 163.68735811510123,45.9666427859338 166.5544648123905,46.05932142629172 168.01851929631084,43.556991639430635 167.53050113492645,34.19630506719113 162.40631044190377,33.54753761808388 160.63724460732192,39.20105205941945 160.3322332566604,35.86456005915534 160.63724460732192,32.25 169.05555788893253,32.71340670844074 169.42157150967978,52.639457613579 170.7636214531958,62.55582470688387 174.6677667433396,71.35989836740191 174.05774404178374,72.75" stroke="#4dd2ff" stroke-linecap="round" stroke-linejoin="round" stroke-width="0.5"><title>2022-03-08 3.7km</title></polyline><polyline fill="none" points="30.167511608218774,97.25 29.134552463307045,98.26257883454673 28.967946149525233,101.60406030107697 32.3333936863346,115.47580042372283 31.900217270711437,121.09515801968519 32.43335747451056,126.91688366282324 34.89913091738708,136.6869576586323 36.03205385047477,137.75 34.33266945078503,130.96670094071305 32.5,126.8156374021055 32.10014484717976,114.51391592151776 32.59996378829237,111.52698815900658 32.10014484717976,110.00819783780025 30.733973074820824,109.2994259083498 29.26783751428593,103.47729580175655 29.867620243690908,102.41410978320346" stroke="#4dd2ff" stroke-linecap="round" stroke-linejoin="round" stroke-width="0.5"><title>2022-01-09 1.7km</title></polyline><polyline fill="none" points="87.97806729364675,100.24094895710004 87.56796681252308,99.61783695485792 89.08533859276213,100.11632665627985 88.83927830425091,98.55854369571898 90.23361994011793,98.18467462834087 89.16735868912656,97.25 88.34715772676282,99.74245945486473 89.00331849663053,97.49924684129655 88.9623084483901,98.93241231539287 85.06635387742426,99.18165781287826 84.77928354067262,100.61481556139188 85.845544791664,103.10724814407877 86.4606955134077,112.20445815729909 84.73827349254861,112.26676690051681 80.96534906583838,109.71209822490346 80.67827872897033,110.33519007399445 81.0063591140788,123.66905750031583 82.31868065369781,133.8248453750275 79.77605767047498,135.50706054430339 71.73808823968284,137.75 70.09768631507177,133.70023648324423 70.42576670006383,121.86216490756487 64.84840015613008,121.05217517720303 64.9714303005021,127.84356245447998 66.44779203273356,130.0865569821326 68.21122410183307,130.21116731662187 69.52354564145207,129.08967251543072 69.6465757858241,122.92137907541473 68.41627434233669,121.61293752220809 67.10395280248486,121.55063064483693 65.38153078174219,123.23291197020444 65.5455709741218,129.4011992532469 67.47304323560093,130.21116731662187 69.52354564145207,129.21428324774024 69.56455568945967,123.2952185117756 68.37526429421268,121.79985807990306 65.58658102224581,122.54753919132054 65.50456092611421,128.2173959952197 67.02193270635325,130.02425179613056 69.68758583383169,128.8404509011889 69.6465757858241,123.66905750031583 68.58031453471631,121.73755123966839 65.79163126286585,122.11139209399698 65.34052073361818,128.59122908796417 66.85789251397364,130.27347246510908 69.48253559332807,128.96506173320813 69.6465757858241,122.98368567915168 69.19546525657643,121.92447172291577 67.47304323560093,121.42601685246336 65.5455709741218,122.79676583048422 65.34052073361818,128.7158400194894 66.44779203273356,130.14886215567822 67.80112362059299,130.27347246510908 69.6465757858241,128.8404509011889 69.6465757858241,123.1706054158858 68.58031453471631,121.79985807990306 65.79163126286585,122.23600561261992 65.01244034862611,125.72516393320984 64.76638005988207,120.92756118596299 70.58980689244345,120.49141182482708 73.25546001992188,105.16349004025687 74.36273131903727,104.7273186489183 78.54575622698758,106.97047931072302 79.61201747797895,106.47200055685244 79.89908781484701,104.35345697111916 85.39443426241633,104.7896288849588 86.87079599453136,103.48111131475889 89.65947926649824,104.2288363124535 89.33139888150617,98.55854369571898 89.00331849663053,100.05401548725786 87.44493666815106,99.86708190513309" stroke="#4dd2ff" stroke-linecap="round" stroke-linejoin="round" stroke-width="0.5"><title>2021-12-30 4.7km</title></polyline><polyline fill="none" points="129.0270576728508,137.75 124.08023501560092,125.3289417414635 125.45435242028907,98.5026243282482 116.24776580813341,97.25 116.17905993806198,109.77610825138981 118.72117713675834,112.59444125561276 121.81294129765593,112.49005882247002 123.87411740468815,110.08925711302436 124.21764675620943,100.27717032315559 121.0571767250076,97.87631253930158 117.34705973207019,99.12893536692718 116.24776580813341,109.56734223940293 119.13341235835105,112.38567636880907 121.40070607629605,112.59444125561276 123.59929392393678,110.61117146571632 124.14894088567235,100.17278543140856 121.95035303803161,98.08508321875706 117.96541256434284,98.71139475793461 115.97294232714921,108.94104370317655 118.2402360450942,112.49005882247002 122.08776477840729,112.07252888212679 124.14894088567235,109.9848741798487 124.21764675620943,100.79909446992679 121.60682368674316,97.98069788943394 116.66000102972612,99.44209060521098 116.31647167820483,109.9848741798487 119.33952996903099,112.49005882247002 123.59929392393678,110.50678863702342 124.08023501560092,100.17278543140856 120.09529454167932,97.4587709295447 116.79741277033463,99.54647564282641 116.24776580813341,109.9848741798487 118.17153017478995,112.28129389428068 123.18705870234407,111.13308529782807 124.42376436688937,101.11224870776641 123.7367056645453,99.12893536692718 120.64494150341488,98.08508321875706 117.14094212139025,99.85963063072995 116.45388341881335,110.50678863702342 118.5150595260784,112.49005882247002 122.56870587030426,112.1769113986229 123.87411740468815,110.61117146571632 124.14894088567235,101.00786398243508 122.43129412969574,97.87631253930158 116.38517754874192,98.71139475793461 116.38517754874192,110.81993706105277" stroke="#4dd2ff" stroke-linecap="round" stroke-linejoin="round" stroke-width="0.5"><title>2021-12-27 3.1km</title></polyline><polyline fill="none" points="174.07135023130104,137.75 176.42711729556322,99.6988865841995 158.57288270490244,97.25 161.052637509536,122.8688066584873 165.14423293620348,126.82458981371019 170.72368124546483,127.20133020123467 174.4433134519495,123.43391955236439 173.94736249139532,104.40826599829597 166.38411033852026,99.51051091839327 160.92864976869896,103.08964213152649 162.78846587240696,122.11532227188582 167.62398774037138,127.20133020123467 173.8233747505583,123.99903210881166 173.3274237900041,104.40826599829597 167.12803677935153,100.07563780184137 161.052637509536,103.27801708236802 163.28441683296114,124.37577362504089 169.9797548041679,127.38970033958321 174.19533797120675,123.81066129467217 173.3274237900041,104.97338994854363 167.37601226009429,100.07563780184137 163.5323923137039,100.45238886983134 160.43269880814478,104.78501533623785 161.54858847009018,122.8688066584873 167.87196322064847,126.63621956296265 174.07135023130104,123.99903210881166 173.8233747505583,105.53851356066298 166.50809807842597,100.26401335507398 160.55668654851615,104.59664068586426 161.54858847009018,122.11532227188582 167.12803677935153,126.63621956296265 172.4595096083358,125.88273818517337 174.81527667259797,120.41998020425672 173.45141153037548,104.40826599829597 165.5161961563863,99.8872622117633 161.6725762099959,101.39426588092465 160.68067428842187,105.35013906122185 161.6725762099959,122.8688066584873 169.9797548041679,127.76644050143659 174.4433134519495,121.73857985367067 173.2034360500984,103.46639199584024 168.6158896619454,99.8872622117633 163.0364413522184,100.26401335507398 159.44079688657075,106.85713400540408 161.052637509536,123.81066129467217 168.98785288259387,127.0129600262735 174.56730119185522,121.92695108160842 174.81527667259797,104.21989127324196 166.1361348577775,98.94538369652582 160.43269880814478,102.3361419517314 160.43269880814478,121.92695108160842 166.0121471178718,126.82458981371019 173.94736249139532,122.11532227188582 173.69938701065257,105.16176452307263 172.08754638768733,101.7710164221935 165.26822067657486,99.6988865841995 160.0607355874963,103.65476687141927" stroke="#4dd2ff" stroke-linecap="round" stroke-linejoin="round" stroke-width="0.5"><title>2021-12-07 3.6km</title></polyline><polyline fill="none" points="35.87664798856713,182.0143787494453 34.09946483653039,163.65405073013972 26.848557576769963,162.25 25.497898381203413,165.3821081648639 26.208771641831845,177.37035464899964 30.118574576452374,179.4223702136369 33.246416923822835,178.55836460893624 34.24163948884234,176.50634576720768 33.60185355390422,165.4901115714456 27.417256185319275,164.08606560630142 25.71116035943851,170.45824495877605 27.559430837398395,178.77436613920145 32.60663098888472,179.2063689417264 34.38381414115429,172.1862806606514 33.03315494558774,165.05809781627613 27.417256185319275,164.95009432375082 26.1376843159087,173.59030560415704 27.985954794101417,178.4503638111055 30.545098532922566,180.39437487002579 33.388591575669125,179.63837139925454 33.88620285852812,168.7302037377085 32.60663098888472,165.59811495634494 27.417256185319275,164.51808013761183 25.640073033282533,169.48622245099978 27.985954794101417,179.53037081705406 33.246416923822835,179.3143695886247 33.60185355390422,166.24613481250708 30.75836051092483,164.4100765369658 27.559430837398395,165.05809781627613 25.924422337673604,168.5141981971974 28.057042120024562,179.2063689417264 32.39336901064962,179.4223702136369 33.74402820621617,177.80235857286607 34.24163948884234,168.29819256989867 31.39814644563012,164.51808013761183 27.417256185319275,165.1661012872937 26.1376843159087,166.89415389235364 26.42203362006694,176.8303492598643 29.407701315591112,179.85437249872484 32.67771831504069,179.3143695886247 33.81511553237215,177.80235857286607 34.17055216291919,167.75817812551395 32.037932380568236,165.05809781627613 29.194439337356016,164.4100765369658 26.493120946455747,167.6501751714095 26.56420827237889,177.9103594997141 30.47401120653376,179.63837139925454 34.02837751060724,176.61434695281787 33.60185355390422,166.89415389235364 28.83900270680897,164.73408727359492 26.493120946455747,168.29819256989867 27.48834351147525,178.55836460893624 30.33183655468747,179.74637195991818 33.95729018445127,177.69435762416106 33.88620285852812,167.32616618130123 32.53554366296157,165.1661012872937 29.549875967670232,164.51808013761183 26.990732229081914,166.13813155685784 25.924422337673604,169.0542118869489 25.640073033282533,178.34236299208715 25.497898381203413,163.43804316292517 34.881425423547626,163.11403164989315 35.52121135802008,187.1983585668204 39.502101618563756,202.75" stroke="#4dd2ff" stroke-linecap="round" stroke-linejoin="round" stroke-width="0.5"><title>2021-12-06 4.4km</title></polyline><polyline fill="none" points="89.10594194813166,162.25 83.96438486990519,163.84277819143608 82.71643412287813,165.96647205823683 76.82610659650527,166.34570185656776 72.73282814584672,172.71670586511027 71.48487739881966,178.70838595039095 72.43331996642519,186.21681365650147 71.03561512974557,192.89084703836124 66.54299244005233,191.14650872183847 62.649386109085754,191.2223496848601 62.449713989626616,199.4889238771575 64.04709094576538,202.21912905041245 66.64282849989831,202.59832266130252 68.93905787472613,200.77818987620412 69.08881196414586,193.6492525038193 67.19192682858557,191.5257133851701 65.5945498724468,191.29819063274772 63.497992617078125,193.042528252583 63.14856640796643,200.7023508209677 65.29504169302527,202.75 67.64118909765966,202.5224839694274 68.88913984468672,200.7023508209677 68.93905787472613,194.18013542878907 66.49307441024575,191.5257133851701 63.39815655723214,193.11836883693468 62.84905822854489,200.17147701006616 65.5945498724468,202.67416133842198 68.48979560565203,201.08154594580992 68.93905787472613,193.87677384834387 67.44151697808411,191.8290768431034 65.24512366298586,191.2223496848601 63.44807458727155,192.89084703836124 63.09864837815985,200.39899444836192 66.09373017121106,202.75 68.43987757584546,201.384901773592 68.68946772522759,193.27004996035248 65.69438593205996,191.37403156529763 63.497992617078125,193.11836883693468 63.44807458727155,199.79228097645682 64.54627124464605,201.91577388893347 66.19356623094063,202.3708065401006 68.43987757584546,201.1573849255219 68.93905787472613,193.11836883693468 66.84250061947387,191.2223496848601 65.09536957356613,192.05659927759552 63.6477467068471,193.72509296695353 63.24840246781241,196.6070193531341 62.94889428850729,192.8150064086367 70.63627089071088,190.31225713077583 73.33184450457338,173.47515160634066 76.67635250685271,170.2896693177754 83.36536851141136,168.01430847193114 89.4054501275532,169.83459823887097 86.65995848365128,166.5732395539526 90.05438451608643,163.46354589422117 92.55028601025697,163.3876993895392" stroke="#4dd2ff" stroke-linecap="round" stroke-linejoin="round" stroke-width="0.5"><title>2021-11-11 3.8km</title></polyline><polyline fill="none" points="142.75,169.0270920976909 139.87605042010546,169.14200674147287 139.15756302524824,169.94640796195017 138.1743697479833,169.5442076327745 135.03571428568102,165.17742501865723 132.50210084032733,166.6713317909016 128.7962184874341,171.038091735958 125.69537815125659,172.01485791847517 118.24579831946176,170.92317784960323 115.8634453782579,172.99162078580412 112.08193277323153,171.72757409134647 104.89705882361159,170.98063479854318 103.7626050420804,171.4977468232537 102.25,175.17496108925843 103.64915966393892,171.78503087966237 105.23739495803602,171.21046247976483 115.71218487410806,172.70433793365373 121.87605042022187,172.41705479467055 123.50210084032733,173.22144686087267 124.90126050426625,175.34732935520879 127.4726890756283,176.4964484891825 126.11134453793056,190.3429732962977 125.31722689070739,191.08986233624455 123.27521008404437,190.51533247767657 120.17436974798329,191.31967395881657 119.98529411770869,197.52451839667629 120.89285714284051,199.70767258791602 123.84243697486818,199.82257498134277 125.09033613454085,198.09903426324308 125.31722689070739,194.59446963806113 124.59873949585017,193.15816033119336 120.93067226896528,192.46872931800317 120.21218487399165,195.62860790039122 120.13655462185852,191.77929665289412 120.77941176481545,191.0324094020616 124.48529411770869,190.9749564563681 126.37605042022187,189.2513627508306 127.43487394961994,180.6906943898066" stroke="#4dd2ff" stroke-linecap="round" stroke-linejoin="round" stroke-width="0.5"><title>2021-11-09 2.8km</title></polyline><polyline fill="none" points="181.61761553172255,164.07270848017652 182.79500911658397,162.68880198559782 181.95084013114683,162.25 180.04035242745886,162.31750807183562 178.28536953678122,163.498894967066 175.8417224738514,164.0389547979721 174.3311042895075,166.0304105146788 173.44250535755418,166.26668336502917 169.46602513699327,163.80267883419583 165.60061978292651,164.07270848017652 160.58003581722733,163.36387973971432 159.53593207214726,163.66766384955554 158.5140433004126,165.86164399077825 157.5587994485395,166.50295588518202 156.87013527628733,169.641973746242 158.91391281981487,182.9737120141217 158.73619303340092,194.5157857096201 161.3353449094575,202.14257166157768 158.29189356742427,202.75 157.31443474226398,200.2190341938549 154.89300265262136,188.5086059121677 152.20499088341603,183.10871158199734 152.98251494881697,182.50121267749637 154.87078767933417,182.33246259433508 158.62511816690676,183.04121181154915 157.62544436845928,173.4897225847235" stroke="#4dd2ff" stroke-linecap="round" stroke-linejoin="round" stroke-width="0.5"><title>2021-11-07 3.5km</title></polyline><polyline fill="none" points="35.67998280772008,266.16061516848276 35.972875961102545,266.7327946216974 30.282380410353653,265.4612833293504 29.152649675961584,261.8374482902291 27.939235183643177,261.26526004011976 25.47056431963574,262.66394061385654 21.788478963426314,267.05067165137734 21.11900889861863,265.969888455671 24.884778012987226,246.1972660679021 26.474769416847266,229.5389913499239 28.02291894168593,227.69508294021944 31.202901749522425,227.25 37.26997421158012,228.77599606171134 40.031538228853606,231.1285589946201 43.588097947998904,231.25572406323045 43.88099110138137,234.11692468260298 42.03994842316024,241.17444294819143 42.7512603669893,244.98925255431095 40.70100829366129,245.5614700531296 40.32443138223607,247.08737835596548 34.75946146855131,251.9193730719271 32.70920939533971,255.8612091889372 28.817914643674158,260.1208804557973 29.612910345662385,265.39770763152046 31.4539530237671,266.9235208777245 34.341042678104714,266.2877662469691 35.17788025911432,267.75" stroke="#4dd2ff" stroke-linecap="round" stroke-linejoin="round" stroke-width="0.5"><title>2021-11-04 2.2km</title></polyline><polyline fill="none" points="91.64120957779232,227.48667254077736 90.61761297588237,227.25 88.90420127246762,228.06144733409747 88.32564667135011,227.79096532138647 83.18541156122228,230.73243401180662 76.93257144890958,228.80527064138732 74.28457154374337,229.00813097630453 69.27784903388238,228.12906776969612 67.98722723132232,228.6024100634968 67.54218523041345,230.326717230113 66.65210122865392,230.63100490754005 65.85102562716929,234.82335724690347 67.65344573068433,248.0759175199928 67.49768103036331,259.7386649319087 69.56712633441202,264.77537129343546 69.98991623526672,267.1077550423506 68.45452133228537,267.75 67.27516002993798,267.4119766416552 66.56309282849543,263.62606893757766 64.78292482497636,259.671057116313 64.60490802465938,253.34960712777684 63.64806772279553,250.91561694533448 63.358790422207676,248.27875477224006 63.82608452311251,247.12934046363807 65.4282357263146,247.29837246892566" stroke="#4dd2ff" stroke-linecap="round" stroke-linejoin="round" stroke-width="0.5"><title>2021-11-02 3.0km</title></polyline><polyline fill="none" points="137.63603081839392,227.25 136.60602706146892,227.32549719445524 133.44064966205042,230.98707565123914 131.20478784828447,230.23211671039462 127.86355614895001,235.25253814589814 128.0142884060624,236.6114267357043 124.17061584966723,239.10269761568634 118.97035297937691,243.78318012053205 113.06667290901532,251.5585693201865 111.78544872358907,254.84225604942185 107.89153208152857,260.39042728368076 107.51470143877668,261.8623642927996 107.94177616731031,263.7494465899945 109.62495303835021,266.0516619900882 112.68984226626344,267.4480743355816 115.22716859431239,267.75 112.33813366637332,267.52355579609866 109.07226809556596,265.4478048715973 107.99202025291743,264.01363663823577 107.36396918166429,261.9755897513387 107.69055573875085,260.57913778450165 111.81057076650904,255.03097197879106 112.11203528067563,252.95508660057385 116.00595192273613,247.40670146881894 119.54815996484831,243.17925327683042 127.88867819186999,236.23395864333725 131.00381150539033,230.0811245675286 131.65698461956345,229.89238422267954 133.41552761924686,231.13806708468474 136.85724748997018,227.36324578060885 137.4350544756162,227.32549719445524 137.00797974714078,227.70298272378568" stroke="#4dd2ff" stroke-linecap="round" stroke-linejoin="round" stroke-width="0.5"><title>2016-05-06 3.5km</title></polyline><polyline fill="none" points="156.94100059237098,267.75 153.79360653820913,265.5383528799139 152.39758498198353,262.1827024199156 152.8290825539152,260.73365367592487 157.06791164301103,255.35682600970904 157.16944048344158,253.2975761241105 164.12416605482576,244.0688185991312 172.7541174936341,236.5558296058589 176.51068459055386,229.7671944815811 178.56664360989816,230.83508534631983 182.348592916911,227.25 182.60241501801647,227.82209251051245" stroke="#4dd2ff" stroke-linecap="round" stroke-linejoin="round" stroke-width="0.5"><title>2016-03-22 1.7km</title></polyline></svg>