<?xml version="1.0" encoding="utf-8" ?>
<svg baseProfile="full" height="300mm" version="1.1" viewBox="0,0,200,300" width="200mm" xmlns="http://www.w3.org/2000/svg" xmlns:ev="http://www.w3.org/2001/xml-events" xmlns:xlink="http://www.w3.org/1999/xlink"><defs /><rect fill="#222222" height="300" width="200" x="0" y="0" /><text fill="#FFFFFF" style="font-size:12px; font-family:Arial; font-weight:bold;" x="10" y="20">Over 3kms Workouts</text><text fill="#FFFFFF" style="font-size:4px; font-family:Arial" x="10" y="280">ATHLETE</text><text fill="#FFFFFF" style="font-size:9px; font-family:Arial" x="10" y="290">underwindfall</text><text fill="#FFFFFF" style="font-size:4px; font-family:Arial" x="120" y="280">STATISTICS</text><text fill="#FFFFFF" style="font-size:3px; font-family:Arial" x="120" y="285">Number: 22</text><text fill="#FFFFFF" style="font-size:3px; font-family:Arial" x="120" y="290">Weekly: 1.8</text><text fill="#FFFFFF" style="font-size:3px; font-family:Arial" x="141" y="285">Total: 86.5 km</text><text fill="#FFFFFF" style="font-size:3px; font-family:Arial" x="141" y="290">Avg: 3.9 km</text><text fill="#FFFFFF" style="font-size:3px; font-family:Arial" x="167" y="285">Min: 3.0 km</text><text fill="#FFFFFF" style="font-size:3px; font-family:Arial" x="167" y="290">Max: 5.3 km</text><polyline fill="none" points="18.083072213688865,67.9728652499034 18.004928424896207,68.0 18.32866697834106,67.87789357294969 19.03196107718395,67.70151738889399 19.46733361459337,67.53870835823909 19.869215956772678,67.3080618283202 19.992013339186087,67.2130895903756 20.159464315045625,67.02314487412514 20.293425095791463,66.80606480578717 20.672980641247705,66.00557843506249 21.07486298342701,65.23222178803553 22.113059034163598,63.37343056606187 22.21352961967932,63.10207161510334 22.481451181170996,62.55935175018385 22.60424856346799,62.2608547088239 23.106601491279434,61.21610882884852 23.575464223860763,60.198489880684065 23.776405394950416,59.8321448065617 24.167124338739086,58.990903455909574 24.446209298621397,58.62455445037631 25.13833999913186,57.756166858140205 25.596039333264343,57.11844045217731 26.935647140664514,55.62587516068015 28.364562135131564,53.9161851349927 28.878078461333644,53.183452885576116 30.329320252640173,50.9445192235944 30.574915017350577,50.53743558916176 30.641895407694392,50.279615192179335 30.664222204475664,49.95394647781359 30.641895407694392,49.51972005896096 30.641895407694392,47.416412123107875 30.653058806085028,47.253573739668354 30.708875798038207,47.05002542898728 30.77585618844023,46.84647674996813 30.865163375623524,46.710777426022105 30.98796075792052,46.60221784905298 31.18890192901017,46.50722813323955 31.42333329532994,46.49365816729551 31.60194766963832,46.534368060238194 31.791725442337338,46.724347365801805 32.64014372037491,47.86421646219969 32.88573848508531,48.12204239436687 33.05318946094485,48.24417026125593 33.17598684330005,48.2848795207974 33.298784225597046,48.29844927066006 33.48856199835427,48.257740016051685 33.77881035662722,48.06776329984859 34.68304562661797,47.36213268816209 35.955673043616116,46.39866835986322 37.25062725733733,45.57089664283558 37.94275795778958,45.06880263373023 38.51209127594484,44.715978475920565 38.80233963421779,44.512425573848304 40.37637880787952,43.25038936002966 40.49917619023472,43.14182644376706 40.74477095488692,42.843277883701376 41.63784282648703,42.083332519257965 41.97274477838073,41.716928455629386 41.99507157510379,41.64907572026277 41.97274477838073,41.51337012680597 41.6601696232683,40.94340484647546 41.40341146022547,40.31915384493186 40.68895396293374,38.75851118458377 40.052640254434664,37.61854981796205 39.695411505759694,36.89928253512335 39.26003896840848,35.922157348672044 38.9586272117449,35.36573504660919 38.858156626229174,35.026451804129465 38.210679519339465,33.764309157231764 37.8869409658364,32.922872857430775 37.67483639641432,32.44786571480654 37.52971221727785,32.14928876976046 37.46273182681762,32.0407151387044 37.41807823331328,32.0 37.37342463969253,32.0 36.93805210234132,32.25786229605001 36.75943772797473,32.40715072353487 36.67013054079143,32.3528640455479 36.558496556885075,32.32572069673188 36.402208979357965,32.40715072353487 36.123124019475654,32.502152346933144 35.86636585643282,32.502152346933144 35.553790701320395,32.678583720371535 35.50913710781606,32.63786881259148 35.497973709367216,32.556438952822646 35.520300506206695,32.58358224596304 35.520300506206695,32.62429717340274 35.341686131840106,32.76001349168655 35.23005214793375,32.895729646210384 35.25237894471502,33.41144953987532 35.11841816396918,33.737166149039695 35.07376457040664,33.954310031178466 35.07376457040664,34.00859593617497 35.10725476552034,34.03573887886159 35.263542343105655,34.03573887886159 35.35284953023074,34.0493103477711" stroke="#4dd2ff" stroke-linecap="round" stroke-linejoin="round" stroke-width="0.5"><title>2022-07-29 4.7km</title></polyline><polyline fill="none" points="82.46854302263819,32.6287997346808 82.524762754736,32.51944350980921 82.61471432610415,32.45109581566794 82.9857645581942,32.32806986225478 83.10944796889089,32.32806986225478 83.53671793302055,32.10935672628693 83.69413318304578,32.04100878472673 83.8515484330128,32.0 83.97523184370948,32.027339191430656 84.15513498650398,32.1366958913859 84.34628207574133,32.3690785282306 84.43623364722589,32.505773974255135 84.63862468284788,32.91585932276212 84.71733230788959,33.038884637790034 84.8747475577984,33.325943186740915 85.0546507005929,33.831711241240555 85.20082200417528,34.077759748644894 85.29077357554343,34.31013840380183 85.3357493612566,34.54251658231806 85.5381403969368,34.92525607254356 85.70679959334666,35.157632989343256 85.94292246823898,35.78641519787925 86.11158166470705,36.03245945995877 86.26899691461585,36.33317949905177 86.44890005746856,36.879941161467286 86.88741396809928,37.97345657025289 86.96612159308279,38.287840296870854 87.10104895016411,38.65689834105433 88.40534673561342,41.527308759810694 88.47281041415408,41.81434580210043 88.58524987846613,42.11505049504922 88.59649382490898,42.238065821286 88.58524987846613,42.33374431600532 88.6302256641793,42.45675940475485 88.61898171773646,42.48409607301437 88.36037094995845,42.702789181617845 86.65129109314876,43.97393451834796 86.01038614683785,44.47965504181775 85.02091886132257,45.176725577119214 84.33503812935669,45.73711250591441 80.70324343367247,48.443332324728544 80.08482638024725,48.94903290164075 79.53387300530449,49.33172372997069 78.70182096975623,49.94675985368667 78.45445414842106,50.1654385599104 78.26330705918372,50.384116844164964 77.93723261280684,50.88980876022106 77.66737789858598,51.24515848640294 76.26188459532568,53.39090046189813 75.82337068469496,54.005914556008065 75.6547114882851,54.251919259142596 75.39610072050709,54.51159031087445 75.05878232774558,54.78492761732923 74.77768366708187,55.14026513014687 74.49658500641817,55.454601231991546 73.90065584582044,56.23360433549533 73.04611591738649,57.272266811058216 72.83248093532166,57.62759652537352 72.1803320426261,58.43391751406307 71.94420916761737,58.76191085121536 71.69684234628221,59.17190118787403 71.46071947127348,59.650221372816304 71.31454816780752,59.89621382478799 71.20210870349547,60.169538145266415 71.06718134641415,60.41552947013406 70.9547418821603,60.68885253826738 70.76359479292296,61.044171541463584 70.69613111432409,61.26282883599197 70.59493559645489,61.50881778805342 70.4150324537186,61.85046822478034 70.2913490429637,62.1237878326865 70.08895800734172,62.438104566979746 69.650444096711,63.35371791229409 69.51551673957147,63.58603653990576 69.47054095385829,63.58603653990576 69.35810148966266,63.53137337627413 69.29063781106379,63.599702326719125 68.5260494541144,65.08926321045146 68.36863420408918,65.34890943446953 68.27868263272103,65.55389287543949 68.1212673826958,65.71787936133478 68.07629159704084,65.8545345849925 67.99758397199912,65.97752414546267 67.95260818634415,66.14151001851133 67.80643688276177,66.30549565429828 67.72772925777826,66.57880452011159 67.59280190069694,66.77012033409119 67.41289875790244,66.97510120506195 67.06433641863987,67.26207380169217 66.89567722228821,67.38506183499703 66.535870936641,67.57637628822704 66.20979649026413,67.6993639805587 65.52391575829824,67.80868626170559 65.15286552620819,67.91800843739475 64.70310766913462,68.0" stroke="#4dd2ff" stroke-linecap="round" stroke-linejoin="round" stroke-width="0.5"><title>2022-07-29 4.0km</title></polyline><polyline fill="none" points="123.78982096549589,34.89042306976626 124.094146053656,34.70543729909696 124.53161336784251,34.54357460323081 124.70279622985981,34.381711770707625 124.77887750195805,34.35858849778015 124.87397909199353,34.381711770707625 125.10222290805541,34.56669785389386 124.68377591192257,34.31234194349963 124.17022732575424,34.242972091189586 123.84688191954046,34.081109004764585 123.71373969351407,33.84987578695291 123.54255683138035,33.29491492586385 123.50451619538944,33.04055732743291 123.56157714943402,32.99431045509118 124.55063368577976,32.46247062085604 125.63479181216098,32.0 125.78695435635746,32.0 125.99617785436567,32.069370664306916 126.2434419883648,32.27748250646982 126.62384834862314,32.99431045509118 126.90915311872959,33.479902058141306 127.1183766167378,33.711135722347535 127.27053916081786,34.173602213704726 127.5178032949334,34.682314065197716 127.57486424897797,34.89042306976626 127.917229973129,35.49162559125398 128.2595956971636,36.43967188910756 128.60196142131463,36.971500685685896 128.86824587348383,37.48020511009963 129.03942873550113,38.05827668054553 129.07746937149204,38.451364352426026 129.11551000759937,38.54385545218247 129.5339570037322,38.86757394981396 129.78122113773134,39.35315067091142 130.04750558990054,40.25493274607288 130.8083183101844,42.15097352556768 130.9414605363272,42.752153270630515 131.01754180819262,42.96025351231219 131.22676530631725,43.35333112995431 131.35990753234364,43.70016365253832 131.66423262050375,44.27821646202938 131.89247643656563,44.85626752812823 132.27288279682398,45.54992650602071 132.74839074688498,46.70601922365313 133.43312219518702,48.13956450877595 133.71842696529347,48.94881920909393 133.73744728323072,49.156912722595735 133.64234569331165,49.43437038922275 133.6613660112489,49.526856188778765 133.77548791933805,49.596220509251 133.77548791933805,49.64246337552322 132.80545170092955,50.497954390302766 130.4659525861498,52.20892496473971 129.47689604968764,52.9950414593186 128.29763633327093,53.82739658639184 123.16215047123842,57.75791363090684 116.67622203088831,62.543787335656816 116.25777503463905,62.983064442378236 115.6681451764889,63.90785506089742 115.24969818023965,64.41648799937684 115.04047468223143,64.80952161847381 114.86929182009771,65.01759791409131 114.20358068984933,66.0579760044784 113.13844288140535,67.60697292207624 113.00530065537896,67.93064233887708 112.94823970133439,68.0 112.89117874740623,68.0 112.92921938339714,67.90752311296819 113.78513369371649,66.65908077206404 114.05141814576928,66.31228979007574 115.13557627226692,64.57832546952704 116.44797821471002,62.7518660906062 116.65720171283465,62.497547581690014 118.35001001541968,61.2259499757638 119.62437132198829,60.30114641872933 120.25204181624576,59.88498336248449 124.62671495776158,56.55564638519718 125.27340577007271,56.116354548954405 126.01519817241933,55.538337441161275 126.45266548648942,55.122164044267265 127.04229534475598,54.75223137735156 128.10743315319996,53.919880266315886 128.37371760525275,53.75803379721765 129.45787573163398,52.87943629459187 130.5420338580152,52.116440459300065 131.4740294404328,51.42280524605303 131.93051707267296,51.00662291322078 133.0527158350451,50.1511341688456 133.3190002872143,49.919920339263626 133.50920346716885,49.688706230706885 133.68038632930256,49.596220509251 133.60430505720433,49.36500601017906 133.64234569331165,49.24939865610213 133.64234569331165,49.156912722595735 133.4521425132407,48.74072546962998 133.4901831492316,48.41702364811499 133.4521425132407,48.25517253232829 132.84349233703688,47.16845435813593 132.44406565884128,46.22046113164106 132.25386247877032,45.87363316988922" stroke="#4dd2ff" stroke-linecap="round" stroke-linejoin="round" stroke-width="0.5"><title>2022-07-08 4.2km</title></polyline><polyline fill="none" points="185.37160972005222,64.52479818364372 185.58735161088407,64.13137630923302 185.6143193473108,63.737953865202144 185.50644840183668,63.37731612450443 185.42554519267287,63.21338972038939 185.29070651100483,63.14781913108891 185.0749646202894,63.14781913108891 183.99625516624656,63.63959816523129 182.027610412566,64.3608724718215 181.02980416757055,64.81986421547481 176.82283729675692,66.81974776365678 175.60928916104604,67.54101362838992 174.7193538614083,68.0 174.47664423414972,67.96721528485068 174.2878700797446,67.8032916499651 173.99122497986536,67.3443049461057 173.69457988010254,66.81974776365678 172.40012853522785,63.70516863584635 171.8338060717797,62.52489774339483 170.7281288813101,59.77091238874709 170.13483868166804,58.42669511368149 170.05393547262065,58.131622138636885 170.0809032090474,57.934906643931754 170.59329019964207,57.50868925021496 170.13483868166804,57.607047169614816 169.86516131833196,57.57426120049786 169.62245169107337,57.4103312951047 169.43367753655184,57.11525721641374 168.67858091869857,55.54152338366839 167.6538069373928,53.67270261753583 167.11445221037138,52.426814964972436 166.4402588015655,50.65633320933557 165.9009040745441,49.607153391087195 165.41548482037615,48.26288582745474 164.79522688430734,46.885824353288626 164.1480012118118,45.672692985477624 163.36593685753178,43.836591962579405 162.31419513991568,41.705387713445816 162.12542098551057,41.47587241246947 162.0714855127735,41.27914485728252 162.09845324920025,41.082417159574106 162.2332919308683,40.95126528205583 163.5547110120533,40.229928823478986 164.55251725704875,39.47580229624873 166.68296842870768,38.39379101336817 167.815613355604,37.93475462158676 169.32580659119412,37.08225640759338 170.59329019964207,36.03302416391671 171.15961266309023,35.50840652224724 171.29445134475827,35.27888598546269 171.34838681737892,35.04936525473022 171.321419081185,34.819844330108026 171.24051587213762,34.49195695848903 170.16180641809478,32.426257416198496 169.97303226357326,32.163945239241 169.73032263643108,32.0 169.4876130092889,32.0 168.54374223703053,32.32789037952898 168.0043875100091,32.59020239827805 167.3841295739403,33.016458888334455 166.30542011989746,34.09849159006262 165.4694202929968,34.55753446443123 164.66038820252288,35.082153942465084 164.55251725704875,35.31167464546161 164.525549520622,35.83629266699427 164.4176785752643,36.00023559096735 164.20193668454885,36.00023559096735 163.4738078030059,35.54119515456841 163.23109817586374,35.573983782931464 162.5838725034846,36.42648673019721 161.93664683098905,36.951102598774014 160.53432454075664,37.836389579606475 160.10284075909294,37.96754296106519 159.72529245028272,38.03311962791486 158.94322809611913,38.000331296469085 157.91845411469694,37.70523613484693 157.72967996017542,37.80360122429556 157.37909938767552,37.869177930930164 157.2712284422014,37.836389579606475 157.1094220241066,37.738024502032204 156.97458334232215,37.541294239868876 156.78580918791704,37.180621722654905 156.4891640880378,36.03302416391671 156.43522861541715,35.31167464546161 156.51613182434812,34.0001251589274 156.40826087910682,33.245981336716795 156.3003899336327,32.91809206540347 156.16555125184823,32.75414728128817 155.73406747018453,32.557413409725996 155.005938588758,32.72135831264313 154.62839027983136,32.91809206540347 154.46658386173658,33.14761459696456 154.41264838911593,33.34434804102057 154.3856806526892,33.672236797836376 154.43961612542626,34.16406919102883 154.68232575245202,34.88542175691691 155.1947127431631,35.83629266699427 156.08464804280084,36.81994872659561 156.6779382424429,37.180621722654905 157.21729296946432,37.869177930930164 157.48697033314966,38.16427291446598 157.8105831692228,38.36100272531621 158.78142167790793,38.820038396836026 159.23987319588196,39.21349692638614 159.40167961397674,39.410225977539085 159.69832471385598,40.229928823478986 159.99496981373522,40.78732534596929 160.53432454075664,41.37750865262933 160.7500664315885,41.50866032447084 160.96580832230393,41.57423613657011 161.31638889492024,41.50866032447084 162.01755004003644,41.04962919614627 163.58167874836363,40.262716885859845 164.47161404800136,39.574166744510876 165.41548482037615,38.951191303291125 167.6538069373928,38.000331296469085 168.62464544607792,37.3773522459378 169.43367753655184,36.98389105690876 170.862967563211,35.737926865171175 170.8899352995213,35.672349644155474 170.80903209047392,35.410040601709625 170.51238699059468,35.04936525473022 170.21574189071544,34.95099916795152 169.21793564572,35.27888598546269 168.48980676429346,35.606772407278186 167.41109731025063,35.54119515456841 166.7638716378715,35.77071546972729 166.65600069239736,35.93465843325248 166.57509748346638,36.19696696911706 166.7638716378715,36.81994872659561 166.7638716378715,37.31177542070509 166.65600069239736,37.60687100965879 166.3323878563242,38.13148459873628 166.27845238347072,38.39379101336817 166.11664596537594,38.62330891832244 165.76606539287604,38.918403082556324 164.71432367525995,39.508590449608164 163.77045290288515,40.229928823478986 162.7726466578897,40.721749343851116 162.09845324920025,41.11520511904382 161.9096790945623,41.3119327929744 161.88271135825198,41.57423613657011 161.96361456729937,41.80375135445502 162.20632419444155,42.131629900832195 162.55690476717427,43.11526316541131 163.68954969383776,45.70548039098503 164.93006556597538,48.197311629890464 165.22671066585463,49.04977496468928 165.84696860192344,50.295678103895625 166.11664596537594,51.18092159909429 166.54812974703964,52.16452209962881 166.92567805596627,53.21369204187067 167.51896825560834,54.361217026918894 168.11225845536683,55.24644727521809 168.57070997334085,56.09888849192066 169.02916149131488,57.57426120049786 169.59548395464662,59.049625897285296 170.37754830892663,60.623339410085464 170.83599982678425,61.90197492757579 171.42929002665915,63.08224852589774 172.2652898534434,65.2132850929047 172.58890268963296,65.93455522204749 172.85858005320188,66.2624046478013 173.37096704379655,66.32797448543715 173.53277346200775,66.45911411341513 174.07212818902917,67.54101362838992 174.23393460712396,67.77050691115437 174.4496764978394,67.90164584276499 174.69238612509798,67.93443056574324 175.04296669759788,67.8032916499651 175.5823214246193,67.54101362838992 176.2025793606881,67.14759612135822" stroke="#4dd2ff" stroke-linecap="round" stroke-linejoin="round" stroke-width="0.5"><title>2022-07-05 5.3km</title></polyline><polyline fill="none" points="31.508417726377957,74.0891589604289 31.60388720280025,74.1820099431934 31.7757322601974,74.43734991474776 31.661168888560496,74.43734991474776 31.52751162170898,74.27486088116711 31.393854354857467,74.20522268190689 31.031070344615728,74.1820099431934 30.821037496672943,74.11237171028915 30.534629067522474,73.9034568604693 30.40097180067096,73.717754581201 30.22912674327381,73.41598799508938 30.133657266851515,73.16064666793682 30.114563371636905,72.97494367159379 30.22912674327381,72.8356663067243 30.763755810796283,72.580324209237 31.279290983220562,72.41783360711997 31.90938952716533,72.09285199112492 32.29126743262168,72.0 32.61586365220137,72.04642600116495 32.825896500144154,72.13927796983626 32.92136597656645,72.23212989378953 33.37961946299765,73.02136943749792 34.14337527391035,74.06594620774558 34.353408121853136,74.78554023880861 34.582534865126945,75.15694255662675 34.754379922524095,75.62119444552809 34.888037189492024,76.2479327184119 34.964412770583294,76.36399513746437 35.23172730440274,76.92109377430461 35.40357236179989,77.17643011036853 36.5110182876233,79.47444188507507 36.721051135566086,80.28686372275115 37.37024357484188,81.79563803388737 37.503900841693394,82.21345036657294 37.59937031811569,82.74732036003843 37.71393368963618,83.02586063818308 37.98124822345562,83.53651676731533 39.031412463402376,85.83445257603307 39.336914787767455,86.60042507997423 39.9479194363812,87.80740586755564 40.15795228432398,88.36447136961215 40.17704617965501,88.52694850388798 40.15795228432398,88.64300351581187 40.29160955129191,88.87511332969007 40.38707902771421,89.17685566902219 40.38707902771421,89.29291028899024 40.34889123716857,89.52501931878214 40.38707902771421,89.73391720623476 40.31070344662294,89.87318233850237 39.642417112132534,90.43024185969261 38.916849091881886,90.91766761781764 35.97638921998441,93.19230482931016 34.506159284035675,94.19035144463123 32.46311249001883,95.76864715392003 30.07637558109127,97.53260939171014 29.274431979632936,98.15927629399812 24.596427638083696,101.61751249275403 23.393512235954404,102.56909678499505 22.897070958977565,103.12611955308239 21.770531137939543,104.7043419736292 20.815836374415085,106.12008930837328 19.612920972285792,108.0 19.689296553260647,107.95358267321717 20.052080563502386,107.35015640566417 20.624897421570495,106.58426649516332 21.312277651391923,105.4702393658954 21.636873871088028,105.05247752978175 22.362441891338676,103.93844153310056 22.64885032037273,103.42783954595507 23.18347938801162,102.7547712201631 23.985422989469953,102.10490991320694 26.84950728015974,99.99284550880839 27.365042452467605,99.59828145687061 27.84238983434625,99.15729714732151 29.828154942486435,97.7879183760815 30.64919243915938,97.11483032308752 32.84499039547518,95.49012532240886 33.26505609136075,95.11876225321612 34.00971800694242,94.65455740886682 34.716192132094875,94.14393078655121 35.346290676039644,93.54046121325518 36.53011218283791,92.72809533735563 37.69483979442157,91.82288360685925" stroke="#4dd2ff" stroke-linecap="round" stroke-linejoin="round" stroke-width="0.5"><title>2022-07-01 3.7km</title></polyline><polyline fill="none" points="80.00482950976584,72.90814154047985 80.58064314699732,72.64326746785082 80.72070592368254,72.66218705927895 80.92301882320317,72.7757045601029 80.96970641537337,72.75678498230991 81.34320715314243,72.56758907918993 81.8256456059753,72.17027693954878 82.07464609778253,72.05675900042115 82.35477165103657,72.0 82.43258430471178,72.05675900042115 82.55708455067361,72.22703587825526 82.79052251164103,72.70002623535402 82.96171034977306,72.9459806571831 83.08621059561847,73.19193469319725 83.49083639483433,74.28926338421297 84.0199624398374,75.21631094925397 84.22227533947444,75.70821151317796 84.28452546236804,76.01091878545412 84.34677558531985,76.20011053395865 84.44015076977666,76.35146376832563 84.6424636693555,76.61633157700999 84.81365150742931,76.9568752451305 84.93815175333293,77.46768936049193 85.17158971435856,78.0730965276307 85.52952792140422,78.86768988741096 85.68515322869644,79.51092918201175 85.82521600538166,79.87038528567064 85.88746612827526,80.09740976872854 86.05865396640729,80.47578317672014 86.19871674303431,80.91091146721737 87.67715716303792,84.03244858703692 87.73940728598973,84.20271246107586 87.72384475520812,84.37297615029092 87.92615765484516,84.77025737284566 87.92615765484516,84.86484799181926 87.87947006261675,84.99727476249973 87.97284524701536,85.12970142131962 87.95728271635016,85.18645566943451 87.41259414050728,85.64048891505809 86.60334254219197,86.2458645311126 85.88746612827526,86.83231993064692 84.92258922255132,87.53227995613997 83.89546219393378,88.32682538838708 83.2573984338087,88.76193189551122 82.04352103627753,89.70781144211651 79.94257938681403,91.2968762380915 78.97770248109009,91.95898181793746 78.16845088283299,92.64000178403512 77.53038712259149,93.09401345184597 76.93901095457841,93.6047750072612 76.31650972506031,94.0020328448445 76.1608844177681,94.13445190041966 75.94300898746587,94.2290368717222 75.3671953502344,94.7019608723931 74.38675591378706,95.42080262248055 74.0599427682464,95.6288877773768 73.87319239939097,95.79913906237925 73.65531696908874,96.08289079337555 73.3751914158347,96.5368924952927 72.87719043227844,97.19897595494695 72.50368969456758,97.80430695807445 72.14575148758013,98.25830367728486 70.37162298359908,100.98225639786688 69.7491217541392,101.75781761812686 69.0954954631743,102.36313102803251 68.72199472552165,102.7603666838695 65.71842629328603,106.60025949521514 65.59392604738241,106.90290714910952 65.5316759244306,107.18663879441738 65.43830074003199,107.37579293946328 65.36048808629857,107.71626982589078 65.57836351671722,107.77301590169373 65.70286376262084,107.64060835943383 65.71842629328603,107.54603147506714 65.73398882406764,107.58386223566777 65.81180147774285,107.62169298710069 65.99855184659828,107.41362374114397 66.01411437732168,107.41362374114397 66.01411437732168,107.45145453364239 66.07636450021528,107.45145453364239 66.09192703099689,107.47036992650828 66.07636450021528,107.5271160913253 65.68730123183923,108.0 65.73398882406764,107.98108467103157 65.70286376262084,107.98108467103157 65.71842629328603,107.94325400624075 66.04523943882668,107.54603147506714 66.1697396846721,107.31904671990196 66.27867739985231,107.20555421919562 66.76111585262697,106.63809048384428 67.11905405961443,106.12737136695068 68.05280590383336,104.93568696109287 68.2706813341938,104.61411977671378 68.56636941817123,104.3114677069243 68.81536990997847,103.93315179846832 69.28224583208794,103.40350799377484 69.87362200004281,102.59012295454158 71.30537482781801,100.79309454295435 71.35206242004642,100.69851352996193 71.33649988932302,100.603932459926 71.1808745819144,100.45260262925876 71.02524927456398,100.22560760944907 71.04081180528738,100.11210997636954 71.196437112696,99.77161658437399 71.78781328070909,98.92037987068761 72.05237630323973,98.48530154414766 72.41031451011077,98.01238895085407 72.73712765565142,97.46380855626194 73.20400357776089,96.82064289164555" stroke="#4dd2ff" stroke-linecap="round" stroke-linejoin="round" stroke-width="0.5"><title>2022-06-30 3.9km</title></polyline><polyline fill="none" points="113.89751988986973,79.22109217275283 114.72173250990454,81.29409934897558 115.37541838095058,82.60699613267207 116.76805349765345,85.612816105393 117.16594924521632,86.33835413097404 117.27963374461979,86.4420022702543 117.36489711911418,86.4765516417392 117.39331824379042,86.26925535063492 117.25121261971071,85.7855634210573 116.45542112458497,83.98898624494905 116.39857887499966,83.71258875599597 116.4269999996759,83.4707407343376 116.65436899836641,83.19434274517698 117.16594924521632,82.88339468868799 118.35963648802135,82.29604743834352 120.09332510270178,81.53594920874457 120.57648422487546,81.25954935228219 120.63332647457719,81.01769925910048 120.60490534978453,80.77584896158078 120.1501673522871,79.73934537352761 120.0080617282074,79.35929311791551 120.03648285311647,79.1174414199777 120.1501673522871,78.91013980199932 120.34911522630136,78.73738833909738 120.88911659794394,78.42643544319435 123.5891234568553,77.07896899283514 124.8112318245694,76.38795809738804 126.28913031565025,75.21323574837879 129.7565075448947,72.20730662022834 130.1259821675485,72.03455111387302 130.38177229114808,72.0 130.55229904013686,72.13820443014265 130.7512469139183,72.51826626909315 131.2059849111829,73.86575417895801 132.17230315541383,76.04245202435413 132.5701989029767,77.32082241235184 132.7975679015508,77.90817986641196 136.12283950671554,85.40551918902202 136.63441975368187,86.9947917132231 136.71968312817626,87.72032623778796 136.63441975368187,87.89307228231337 136.3217873806134,88.2040148997039 135.18494238739368,89.03319356261636 132.5701989029767,91.0715809041576 128.50597805227153,94.008215128124 126.63018381362781,95.45924680659664 124.92491632385645,96.87572302110493 122.79333196161315,98.46493189866305 122.53754183812998,98.81041092259693 122.50912071322091,99.39772430705489 122.19648834015243,100.12322741327807 121.99754046637099,100.88327631555148 121.68490809306968,101.19420483062277 118.87121673498768,103.26705297225271 118.38805761293042,103.64707350439858 118.35963648802135,103.68162080046022 118.4164787378395,103.64707350439858 118.35963648802135,103.68162080046022 118.35963648802135,103.64707350439858 118.4164787378395,103.64707350439858 118.35963648802135,103.71616809244733 118.04700411495287,103.85435721845715 116.82489574723877,104.82167923427187 116.45542112458497,104.99441496471991 116.25647325080354,105.02896209823666 116.02910425211303,104.95986782692489 115.48910288035404,104.64894339963212 115.23331275687087,104.57984903658507 114.80699588451535,104.54530184876057 114.49436351121403,104.61439622013131 111.42488202964887,106.82540730352048 110.99856515717693,107.20542311479221 110.40172153583262,107.89635966173955 110.17435253714211,108.0 110.00382578815334,107.89635966173955 109.9469835384516,107.6545320598816 109.97540466336068,106.68721961087431 110.032246912946,106.307203112141 110.14593141234946,106.06537416868377 110.43014266062528,105.89263908396242 111.1690919061657,105.75445094131283 111.45330315455794,105.65080979047343 111.62382990354672,105.51262153114658 111.96488340152428,105.02896209823666 112.61856927257031,104.47620746071334 112.87435939593706,104.16528250832926 112.95962277043145,103.88890448960592 112.95962277043145,103.3016003142402 113.15857064421289,102.81793714789092 113.15857064421289,102.23063077652478 113.30067626852542,101.40149031981127 113.27225514361635,101.15965723447152 113.13014951942023,100.71053810577723 113.15857064421289,100.2268705641327 113.10172839462757,100.12322741327807 112.95962277043145,100.01958422493772 112.41962139878888,99.88139324873919 112.16383127530571,99.88139324873919 111.026986282086,100.64144279275206 110.60066940961406,100.36506137368269 110.45856378553435,100.330513677618 110.31645816133823,100.36506137368269 110.20277366193477,100.57234746296308 110.14593141234946,100.9178239449684 110.17435253714211,102.9906740867591 110.34487928601447,103.57797889970243 110.68593278410845,104.0616407825728 111.08382853167132,104.30347141774837 111.45330315455794,104.37256584747229 112.07856790081132,104.16528250832926 112.30593689938542,103.71616809244733 112.59014814777765,103.50888427832979 112.81751714635175,103.50888427832979 113.21541289391462,103.7852626638487 113.840677640168,103.61252620408777 114.0680466388585,103.71616809244733 114.26699451263994,103.99254627796472 114.32383676234167,104.19982974199229 114.35225788713433,104.54530184876057 114.5227846361231,104.54530184876057 115.00594375829678,104.30347141774837 116.39857887499966,103.1979582758795 117.90489849087317,102.16153583023697 119.72385048004799,100.67599045130191 121.08806447184179,99.74320220580557 126.06176131707616,96.01201884570764" stroke="#4dd2ff" stroke-linecap="round" stroke-linejoin="round" stroke-width="0.5"><title>2022-06-19 4.7km</title></polyline><polyline fill="none" points="152.0,83.29721013089875 152.89759572572075,84.7391398914333 154.17987533390988,87.31121483366587 154.66073018708266,88.51930357076344 154.98130008892622,89.76635817292845 155.26981300092302,90.42885397205828 155.49421193241142,91.36413984600222 156.00712377554737,92.49427333052154 156.19946571683977,93.15676353493473 156.68032057001255,94.20895106680109 157.06500445236452,95.18319572575274 158.76402493321802,98.76839076838223 158.79608192341402,98.96323718497297 158.76402493321802,99.31396043873974 159.0525378450984,100.05437494628131 158.98842386470642,100.59994244485279 159.1166518254904,100.79478775666212 159.2448797863908,100.79478775666212 159.98219056113157,100.40509701531846 161.0400712377159,99.62571412249235 161.2644701693207,99.35292966573616 161.52092609088868,98.92426791097387 161.74532502226066,98.72942147095455 162.8673196794698,98.02797331335023 163.82902938558254,97.24858468509046 165.56010685663205,96.11846783399233 166.07301870000083,95.72877145127859 166.90650044532958,95.22216545094852 168.02849510253873,94.32586058106972 169.9519145147642,92.92294361794484 170.46482635801658,92.45530327621964 172.0356188780861,91.20825905507081 172.77292965282686,90.7406162309926 173.22172751568723,90.50679456509533 175.01691896701232,89.10386101494078 176.87622439907864,87.77886262268294 180.08192341949325,85.28473325728555 181.20391807658598,84.46634286278277 181.81300089054275,84.11560348753119 184.6340160286054,81.93321659509093 185.21104185224976,81.58247446920723 186.4612644702429,80.49127430847147 187.39091718627606,79.8677297042741 187.903829029412,79.40007046121173 188.0,79.24418389622588 187.80765805882402,79.20521224333788 187.83971504902001,79.32212718809023 187.77560106862802,79.40007046121173 186.20480854867492,80.6861317504663 185.53161175420973,81.19276054928196 184.82635796978138,81.62144583536428 179.82546749780886,85.51855870336294 177.64559216389898,87.03841997738346 176.07479964382946,88.2465097346576 174.82457702583633,89.29871326123248 173.51024042756762,90.1560617487412 172.26001780945808,91.20825905507081 170.46482635801658,92.41633321714471 169.9839715048438,92.84500360806123 169.24666073010303,93.31264338560868 168.76580587716307,93.74131258684793 166.07301870000083,95.72877145127859 165.17542297428008,96.43022460155771" stroke="#4dd2ff" stroke-linecap="round" stroke-linejoin="round" stroke-width="0.5"><title>2022-06-17 3.0km</title></polyline><polyline fill="none" points="32.4931416939944,112.0 32.251382499409374,112.11021707097825 32.16072280152002,112.11021707097825 31.782974059984554,112.25717304143473 31.662094462662935,112.27554252780101 31.314565620443318,112.51434564848023 31.163466123922262,112.56945400773839 30.99725667765597,112.51434564848023 30.66483778512338,112.69804010180815 30.604397986491676,112.77151782103465 30.27197909390088,112.88173433343763 30.18131939601153,112.95521196401387 29.92445025179768,113.01032016371028 29.622251258522738,113.13890588536742 29.53159156057518,113.13890588536742 29.335162214993034,113.3225995850371 29.078293070779182,113.39607700290799 28.94230352382874,113.5062930631102 28.65521448024083,113.65324768598657 28.44367518502986,113.83694076504617 28.262355789076537,113.96552578851697 27.899716997286305,114.07574143649254 27.34064885979751,114.42475712861051 26.97801006794907,114.59008007193916 26.902460319688544,114.59008007193916 26.751360822992865,114.66355687801843 26.630481225729454,114.75540283576993 26.554931477468926,114.86561791191343 26.554931477468926,114.99420206654759 26.645591175474692,115.17789352760883 26.751360822992865,115.54527578488342 26.8269105713116,115.63712121066055 27.008229967206717,116.05960945562401 27.098889665212482,116.2065616138425 27.174439413531218,116.50046550469415 27.2197692625341,116.5372034512111 27.249989161849953,116.70252410060493 27.44641850737389,116.97805811729631 27.506858306122012,117.21685386179888 27.657957802643068,117.47401809078292 27.657957802643068,117.51075580234465 27.748617500590626,117.65770655989763 27.79394734959351,117.84139480729937 27.869497097854037,117.9883452457143 27.91482694685692,118.19040186690108 27.975266745546833,118.24550817157433 28.156586141500156,118.57614558086789 27.94504684623098,118.66798917822598 27.79394734959351,118.68635789108521 27.476638406747952,118.77820142194105 27.144219514215365,118.98025699486607 26.494491678779013,119.23741824532044 25.70877429645043,119.65989649949188 25.512344950868282,119.71500227235083 25.164816108648665,119.89868803766149 24.59063802153105,120.08237358141923 24.379098726378288,120.22932185686659 24.303548978059553,120.39463849713502 24.197779330424964,120.44974400404317 24.197779330424964,120.59669192490401 24.227999229740817,120.70690277243557 24.288439028372522,120.72527123929467 24.379098726378288,120.81711354023719 24.424428575264756,121.05590326339006 24.48486837395467,121.14774536489858 24.63596787059214,121.55184995335003 24.771957417484373,121.77227018593112 24.817287266487256,121.97432178539748 24.953276813437697,122.26821454244782 24.953276813437697,122.34168764301285 25.043936511443462,122.47026548376016 24.968386763124727,122.59884321593563 24.89283701480599,122.59884321593563 24.48486837395467,122.74578906268289 24.379098726378288,122.83763014477154 24.303548978059553,122.85599835458561 24.227999229740817,122.98457576101646 24.243109179427847,123.11315305887547 24.303548978059553,123.18662575175404 24.303548978059553,123.37030732886342 24.454648474638816,123.64582927901938 24.454648474638816,123.6825655013381 24.409318625635933,123.75603791947651 24.01645993452985,123.92135073059762 23.729370890941937,123.99482303348486 23.381842048780527,124.23360777302878 23.124972904508468,124.32544795768626 23.049423156189732,124.38055204198463 22.91343360923929,124.58260018024885 22.973873407929204,124.74791209395335 23.03431320656091,124.82138399795804 23.109862954879645,125.13363919460971 23.29118235083297,125.51936531810497 23.351622149406467,125.68467621481977 23.6538211426232,126.25407904067833 23.714260941313114,126.36428579322819 23.74448084057076,126.36428579322819 23.820030588889495,126.47449246609176 23.910690286837053,126.67653782579873 24.06178978353273,126.78674427264195 24.13733953179326,126.93368607771117 24.182669380796142,126.97042150677589 24.2733290787437,127.0071569270076 24.363988776749466,127.08062774092832 24.424428575264756,127.09899543883512 24.696407669223845,127.33777531035594 24.86261711549014,127.39287830443936 25.11948625970399,127.66839297581464 25.37635540391784,127.83370153930446 25.527454900555313,127.99900992341281 25.66344444756396,128.05411267826275 25.75410414545331,128.1459505586099 25.769214095082134,128.23778838358703 26.010973289667163,128.38472878829634 26.282952383568045,128.66024166504212 26.675811074732337,128.82554915179207 26.917570269317366,128.9724889893696 26.84202052099863,129.303103105427 26.887350369943306,129.39494023250882 27.31042896042345,129.6888186669239 27.385978708800394,129.76228818691743 27.385978708800394,129.87249240046367 27.355758809426334,129.8541250370472 27.6730677523301,130.33167576490087 27.763727450335864,130.42351227163454 27.884607047599275,130.42351227163454 27.94504684623098,130.4786141490622 27.960156795859803,130.55208328799927 28.232135889760684,130.9377956857934 28.458785134658683,131.19493674152181 28.700544329243712,131.5622803535516 28.94230352382874,131.91125596426718 29.03296322171809,131.98472441197373 29.471151761885267,132.5908377530577 29.803570654417854,132.97654498678457 29.848900503420737,133.08674687409075 29.894230352365412,133.12348081881646 30.090659698005766,133.10511384758865 30.226649244956207,133.32551735636662 30.075549748318736,133.41735205761506 29.818680604104884,133.69285582886369 28.489005033974536,134.62956492291414 28.413455285714008,134.70303205918754 27.31042896042345,135.56626825522108 27.129109564528335,135.78666820192302 26.796690671995748,136.31930008959898 26.32828223251272,136.88866315080668 26.267842433881015,136.9988622071396 26.0865230379859,137.1825271237758 25.99586334003834,137.38455827622965 26.010973289667163,137.36619181888818 24.968386763124727,138.90896651300136 24.756847467913758,139.31302396925457 24.424428575264756,139.7538126988802 24.212889280053787,140.08440340882225 24.107119632477406,140.19460015269578 23.956020135839935,140.48845774646907 23.63871119299438,140.87414497783175 23.53294154535979,141.05780522091663 23.39695199840935,141.1496352593822 23.20052265288541,141.4251250426023 22.91343360923929,141.60878462118853 22.55079481744906,142.03120081151428 22.233485874545295,142.38015243284462 22.188156025542412,142.49034751558793 21.840627183381002,142.85766388221236 21.780187384807505,142.9494928354252 21.765077435062267,143.00459018080437 21.387328693585005,143.40863677105517 20.49584166362183,144.58403893889044 20.20875262003392,144.91461916417757 19.9669934255071,145.2451986719243 19.936773526191246,145.33702618563257 19.453255137079395,145.92472096229903 19.407925288076513,146.034913480471 19.392815338389482,146.09000970968918 19.27193574112607,146.25529827762512 19.24171584181022,146.3654905565636 19.317265590128954,146.4940481146914 19.3474854893866,146.6409709053696 19.166166093491483,146.84298951101664 19.1208362444886,146.93481606144633 18.99995664722519,147.08173842687393 19.1208362444886,147.21029538036964 19.196385992865544,147.19193010796153 19.22660589212319,147.22866065055132 19.25682579149725,147.32048696845595 19.3474854893866,147.4490437204513 19.22660589212319,147.52250467288832 19.045286496169865,147.7796177273558 19.13594619417563,147.7428873175959 19.24171584181022,147.8347133253701 19.528804885339923,148.0 19.679904381977394,147.76125252355996 20.08787302277051,147.32048696845595 20.23897251940798,147.19193010796153 20.32963221729733,147.02664255643322 20.435401864990126,146.73279757748242 20.571391411940567,146.45731739488838 20.84337050578324,146.14510591892758 21.07001975068124,145.94308638756047 21.236229196947534,145.7227011386276 21.432658542587887,145.4104881567473 21.44776849221671,145.30029518676747 21.508208290848415,145.17173662109417 22.05216647865018,144.45547976861417 22.278815723548178,144.10653290223854 22.399695320869796,144.03307030219003 23.215632602514233,142.9311270492035 24.046679833787493,141.9026394863322 24.243109179427847,141.60878462118853 24.333768877317198,141.44349101044645 24.48486837395467,141.29656320578943 25.195036008022726,140.39662730932469 25.285695705970284,140.24969849469198 25.25547580665443,140.17623403426842 25.195036008022726,140.10276953836728 24.938166863750666,139.88237583804585 24.832397216174286,139.73544652730925 24.771957417484373,139.73544652730925 24.560418122273404,139.90074199189257 24.53019822295755,139.8456435236294 24.756847467913758,139.60688326408854 24.89283701480599,139.36812263025786 25.13459620939102,139.05589662111015 25.210145957651548,138.8906002395379 25.300805655657314,138.798768838853 25.406575303233694,138.5967395625339 25.61811459850287,138.32124466287496 25.648334497818723,138.19268020581512 25.678554397134576,138.19268020581512 25.70877429645043,138.1008483843325 25.70877429645043,138.1559474839014 25.72388424613746,138.0273828873178 25.844763843342662,137.91718457525712 26.252732484252192,137.32945889758412 26.237622534565162,137.2927259674616 26.298062333255075,137.1090611837135 26.509601628466044,136.76009748435172 26.630481225729454,136.66826479905285 27.18954936316004,135.80503484976362 27.234879212162923,135.7132015884563 27.34064885979751,135.5846349295898 27.58240805438254,135.38260138925398 28.594774681609124,134.70303205918754 29.229392567358445,134.18876136108884 29.471151761885267,134.07856027130038 29.803570654417854,133.7663234170759 30.075549748318736,133.58265438012313 30.151099496579263,133.50918670340616 30.64972783543635,133.1785817193013 31.22390592249576,132.71940693950455 31.510994966083672,132.5357366399985 31.541214865399525,132.48063550688676 31.73764421098167,132.3704331809131 31.96429345587967,132.16839537621127 32.59891134162899,131.745951827339 32.659351140260696,131.6541161181667 33.09753968042787,131.3602414765919 33.23352922737831,131.23167114256648 33.5659481199109,130.9928973770875 35.01650328724645,129.8908597615955 35.27337243157672,129.725553431359 35.333812230150215,129.65208389364125 35.51513162610354,129.54187952059146 35.90799031732604,129.22963336390967 36.5123883037013,128.80718166209408 36.84480719623389,128.51330152618175 37.932723571779206,127.74186347062641 38.83932055142941,127.0071569270076 38.89976035000291,126.98878921798314 39.368168789485935,126.62143457244383 39.519268286123406,126.5295957725757 39.73080758139258,126.32755021793128 40.002786675293464,126.16224001919909 40.108556322869845,126.01529746969754 40.42586526577361,125.75814766678377 40.68273440998746,125.66630834624812 40.80361400725087,125.48262953895028 41.00004335283302,125.33568633360846 40.984933403204195,125.15200712744263" stroke="#4dd2ff" stroke-linecap="round" stroke-linejoin="round" stroke-width="0.5"><title>2022-06-14 5.2km</title></polyline><polyline fill="none" points="89.50972423952771,112.0 89.19875432254048,112.03149965341436 89.11582901136717,112.06299930054229 89.0743663557223,112.31499625064316 88.65973979968112,112.53549325185304 88.01706863788422,112.31499625064316 87.62317340966547,112.66149139982008 86.9390395921655,112.69299092126312 86.37929374154191,112.85048843335244 86.23417444695951,113.00798578820832 85.96466718550073,113.10248412571673 85.55004062951775,113.48047690943349 85.42565266275778,113.85846878768643 85.25980204029474,114.0474643872003 84.05738502781605,114.11046286999772 83.8086090941797,113.92146734599373 83.43544519378338,113.79547020418977 83.3110572269652,113.76397090306273 83.14520660461858,113.85846878768643 83.06228129338706,113.85846878768643 83.0208186378004,113.98446587918443 83.0208186378004,114.23645976022817 82.85496801539557,114.67744808371936 82.68911739293253,114.7719454212056 82.2330281813629,115.40192622486211 82.06717755889986,115.4964231284248 81.42450639704475,115.4964231284248 80.96841718541691,115.4649241668667 80.51232797384728,115.11843517443049 80.26355204015272,114.80344452119607 79.82819415634731,114.55145154558704 79.37210494471947,114.39395573158981 79.06113502773223,114.39395573158981 78.27334457129473,114.29945816764666 77.77579270408023,114.14196210201771 77.60994208161719,114.20496054714022 77.195315525576,114.0474643872003 76.71849498618394,113.98446587918443 76.44898772472516,113.88996806993964 76.20021179114701,113.88996806993964 75.86851054633735,113.70097228174563 75.32949602347799,113.66947296175931 75.18437672889559,113.76397090306273 75.12218274542829,113.76397090306273 75.12218274542829,113.63797363545746 74.83194415626349,113.54347561876057 74.58316822268534,113.60647430278186 74.39658627245808,113.7324715956347 74.21000432223082,113.79547020418977 73.67098979937145,113.41747817500436 73.00758730975213,113.22848182088637 72.53076677030185,113.1339835589024 71.84663295286009,113.1339835589024 71.59785701928195,113.03948524026782 71.1417678076541,113.00798578820832 70.7064099238487,112.88198791685863 70.2088580566342,112.88198791685863 69.04790369974216,112.724490436216 68.63327714370098,112.91348739416571 68.17718793201493,113.25998122892634 68.11499394860584,113.44897754539852 68.03206863743253,113.98446587918443 67.90768067061435,114.3309573619481 67.80402403161861,114.89794178312877 67.84548668726347,114.866442702114 67.45159145898651,114.99243898862915 66.91257693618536,115.02393804457097 66.93330826394958,115.43342519906582 66.8711142805987,115.55942103271082 66.8711142805987,115.71691568332608 66.80892029718962,116.00040565828385 66.58087569131749,116.66188028553734 66.58087569131749,117.00836588833772 66.43575639673509,117.38634931427077 66.24917444656603,118.11081501642184 66.20771179092117,118.55179251079971 66.10405515198363,119.02426702973025 66.08332382410299,119.55973644086043 66.04186116857454,119.87471759841719 65.85527921828907,120.56767393165501 65.79308523487998,121.19763159344438 65.71015992370667,121.44961395404243 65.62723461253336,122.04807044719928 65.54430930124363,122.30005144949246 65.41992133448366,122.48903693708417 65.33699602325214,122.86700723302783 65.17114540084731,123.21347920897824 65.12968274531886,123.55995042419818 64.71505618927768,125.29229508723074 64.65286220586859,125.638761737413 64.65286220586859,125.98522762674838 64.77725017262856,126.2686991521623 64.88090681168251,126.89863405180222 64.92236946726916,127.18210393610934 64.88090681168251,127.7175456614932 64.86017548386008,127.90652466015308 64.63213087798795,128.63094205803645 64.32116096100071,129.35535612989042 64.21750432194676,129.76480609063583 63.968728388426825,130.3317350513389 63.98945971619105,130.42622301346273 63.92726573278196,130.96165372968244 63.98945971619105,131.4025953081582 63.98945971619105,131.52857838998898 64.01019104395527,131.6230656353 64.03092237183591,132.18998791910417 63.84434042160865,132.5364394231874 63.82360909378622,132.72541265023756 63.885803077195305,133.00887206628977 63.885803077195305,133.16634929973225 64.01019104395527,133.60728471699986 64.13457901077345,134.14270463852154 64.15531033853767,134.39466632589756 64.2382356498274,134.6781227432366 64.19677299418254,134.83559831058665 64.25896697759163,135.1505489738047 64.25896697759163,136.18988170221564 64.30042963323649,136.5678191788902 64.4455489278771,136.97725042363163 64.48701158340555,137.63863711310842 64.52847423905041,137.7331206996314 64.54920556681463,138.04806557930715 64.56993689457886,138.9928964466235 64.65286220586859,139.2763446035824 64.65286220586859,139.49680392915616 64.90163813944673,140.34714415683993 65.10895141743822,141.57540528452955 65.19187672861153,141.7958613979572 65.21260805649217,141.95332986181893 65.31626469542971,142.14229181104747 65.56504062912427,143.21307191555388 65.6686972680618,143.46501911937958 65.75162257923512,144.03189885734173 65.81381656270241,144.2208583173342 65.85527921828907,144.59877655857417 65.97966718516545,145.039680029382 66.00039851292968,145.22863828264235 66.20771179092117,145.92148327520408 66.29063710209448,146.6458179691981 66.41502506897086,147.0237304027105 66.56014436355326,147.33865673921537 66.72599498589989,147.9055225609336 66.85038295271806,148.0 67.09915888641262,147.93701504703495 67.0162335751811,147.84253757026454 66.82965162495384,146.99223773455014 66.74672631378053,146.8662669987243 66.5186817079666,146.17342615462258 66.43575639673509,145.41759630960587 66.31136842997512,145.1656522233534 66.26990577433025,144.81922844798828 66.12478647974785,144.50429708314186 66.06259249633877,144.1578718558012 66.00039851292968,143.9689123202843 66.00039851292968,143.87443246769544 65.89674187393393,143.49651249157614 65.75162257923512,143.18157848673582 65.5857719568885,142.6461892358784 65.56504062912427,142.33125353390642 65.50284664571518,142.11079816851998 65.378458678897,141.89034249511315 65.25407071202062,141.57540528452955 65.27480203990126,141.3549488630233 65.2333393842564,141.13449213356944 65.27480203990126,141.0400105837616 65.2333393842564,140.6620838190138 65.27480203990126,140.4731200971437 65.27480203990126,140.09519197458576 65.29553336766548,139.78025118089863 65.21260805649217,139.43381558184046 65.21260805649217,139.30783881177194 65.25407071202062,139.24485038901912 65.97966718516545,138.96140217551147 66.373562413326,138.96140217551147 66.39429374114843,138.92990789815667 66.70526365813566,138.86691932451504 67.63817340927199,138.8984136144427 67.70036739268107,138.8039307257568 67.65890473703621,138.77243641698442 67.70036739268107,138.5519760793104 67.67963606480043,138.3945042208943 67.61744208139135,138.14254892067402 67.53451677021803,137.98507665372745 67.43086013122229,137.10322905436624 67.45159145898651,136.5678191788902 67.47232278680895,136.37885055370862 67.43086013122229,135.93792288163968 67.53451677021803,134.5836373273196 67.51378544245381,134.11120939931425 67.59671075362712,132.44195272476645 67.5759794258629,132.28447476842848 67.5759794258629,131.05614131457696 67.49305411463138,130.61519876787497 67.45159145898651,130.36323104496114 67.38939747557743,129.41834850073792 67.41012880339986,129.1033863951452 67.30647216440411,128.31597838072048 67.28574083663989,127.62305607723829 67.05769623076776,126.0797181918897 67.03696490300354,125.60726480062294 66.97477091959445,125.35528908016568 66.97477091959445,125.16630702580733 66.8711142805987,124.5363652096712 66.74672631378053,124.28438777892734 66.66380100260722,123.62294510877109 66.66380100260722,123.15048436094366 66.58087569131749,122.7725147439196 66.47721905237995,122.61502713625669 66.49795038014418,122.42604179962655 66.39429374114843,122.04807044719928 66.26990577433025,120.85115519077226 66.33209975773934,120.81965729828516 66.26990577433025,120.3786861426488 66.10405515198363,119.84321951099264 66.06259249633877,119.37074744443817 66.10405515198363,119.24475465438445 66.08332382410299,118.55179251079971 66.1662491352763,117.63833776200772 66.22844311868539,117.26035493961535 66.58087569131749,116.22089750884334 66.60160701919813,116.03190451298724 66.53941303578904,115.43342519906582 66.68453233037144,115.33892825769726 66.68453233037144,115.2759302653576 66.80892029718962,114.9609399264591 66.93330826394958,114.80344452119607 67.18208419758594,114.7719454212056 67.5759794258629,114.89794178312877 67.55524809798226,114.92944085792988 67.92841199843679,114.67744808371936 67.94914332625922,114.20496054714022 68.05279996525496,113.66947296175931 68.0735312930774,113.44897754539852 68.1564566042507,113.22848182088637 68.55035183246946,112.94498686509905 68.88205307733733,112.75598994489701 69.11009768315125,112.724490436216 70.87226054619532,112.94498686509905 71.26615577447228,113.03948524026782 73.19416925997939,113.19698240645812 73.56733316037571,113.29148063076718 73.9819597164169,113.48047690943349 74.35512361681322,113.35447941548773 74.70755618944531,113.35447941548773 75.16364540107315,113.48047690943349 75.39169000688707,113.41747817500436 75.99289851315552,113.48047690943349 76.20021179114701,113.48047690943349 76.32459975796519,113.48047690943349 76.53191303601488,113.63797363545746 76.98800224758452,113.60647430278186 77.94164332648506,113.66947296175931 78.50138917710865,113.82696949905949 78.77089643850923,113.98446587918443 79.3928362725419,114.0789636317204 79.72453751740977,114.23645976022817 80.035507434397,114.45695407602761 80.15989540121518,114.67744808371936 80.28428336803336,114.74044631494326 80.42940266261576,114.89794178312877 80.69890992407454,115.11843517443049 80.94768585765269,115.24443125979451 81.44523772486718,115.2759302653576 81.50743170827627,115.40192622486211 82.27449083689135,115.43342519906582 82.48180411494104,115.4964231284248 82.56472942611435,115.59091997538053 82.8756993431598,115.87441017680976 83.39398253813852,116.1264010391169 83.58056448842399,116.2838951239246 84.09884768346092,116.44138905133877 84.43054892821237,116.69337900825485 84.45128025609301,116.66188028553734 84.67932486190693,116.69337900825485 84.94883212330751,116.40989027838805 85.03175743448082,116.44138905133877 85.19760805688566,116.15789986876189 85.17687672912143,115.77991349955846 85.07322009012569,115.55942103271082 85.09395141788991,115.43342519906582 85.17687672912143,115.37042724435742 85.57077195734018,115.40192622486211 85.84027921879897,115.33892825769726 86.35856241377769,115.08693613744981 86.87684560875641,115.11843517443049 86.91830826440128,115.05543709413905 87.47805411502486,115.18143322966353 87.47805411502486,114.9609399264591 87.87194934330182,114.67744808371936 87.91341199883027,114.48845323889691 87.93414332671091,113.82696949905949 87.8512180155376,113.98446587918443 87.74756137648365,114.0474643872003 87.74756137648365,113.98446587918443 87.62317340966547,114.0789636317204" stroke="#4dd2ff" stroke-linecap="round" stroke-linejoin="round" stroke-width="0.5"><title>2022-05-13 4.4km</title></polyline><polyline fill="none" points="134.26503167510964,112.0 130.1913389597321,112.73821610669256 132.6953519132221,124.37906291768013 130.93880551308393,125.45794654601195 127.91156597214285,123.12982412995188 126.71561948698945,124.09514549312007 127.91156597214285,145.38816591663635 125.29543303581886,146.69408595611458 118.23187410715036,148.0 117.14804760506377,142.83308762818342 117.26016758789774,133.691397345101 112.40163499163464,133.12358080374543 112.58850162988529,139.7669633852929 113.97131475352217,141.4703698228841 115.16726123879198,141.64070990571054 116.55007436231244,140.67544808815 116.99855429423042,134.7702456509287 114.41979468555655,133.63461574201938 112.77536826836877,135.0541524196451 112.7379949404858,140.22120609950798 114.04606140882242,141.52714986186766 115.27938122185878,141.64070990571054 116.32583439629525,141.52714986186766 116.73694100056309,140.44832718459656 116.8490609836299,134.65668286406435 115.01776792819146,133.5210525017319 112.7379949404858,134.65668286406435 112.58850162988529,140.05086516679148 113.70970145985484,141.30002963822335 116.32583439629525,141.41358977273921 116.92380763904657,137.43895808947855 116.69956767302938,134.37277569860453 115.61574117070995,133.63461574201938 113.44808816618752,134.08886824974616 112.99960823415313,140.95934896287508 114.41979468555655,141.75426990418055 116.47532770701218,141.30002963822335 116.81168765597977,136.92792998637015 116.69956767302938,140.67544808815" stroke="#4dd2ff" stroke-linecap="round" stroke-linejoin="round" stroke-width="0.5"><title>2022-05-04 3.1km</title></polyline><polyline fill="none" points="180.65156610356644,112.44723336111929 180.79873800138012,112.0 180.28363635903224,112.61494568730996 180.9827028736472,112.44723336111929 180.50439420575276,112.89446600803058 179.17984712554608,113.00627405795967 178.14964384085033,113.34169794039917 176.60433891392313,113.22989002424583 177.00906163291074,113.50940973102115 176.78830378619023,114.06844830718182 177.22981947951484,114.45977464638418 177.08264758181758,114.96290770765336 177.19302650517784,115.6337503825489 177.4873703008052,116.13688133428514 177.74492112197913,117.19904370766017 177.74492112197913,117.75807491714659 178.03926491749007,118.20529908133904 178.33360871311743,119.3233563665708 178.62795250874478,121.22404350568831 178.59115953429136,121.72716441229568 178.62795250874478,123.51603142550448 178.73833143210504,124.13095182196412 179.10626117663924,124.63406750539434 178.4439876364777,125.5843946631503 177.3401984028751,125.69619764617528 177.04585460736416,125.30488701041031 176.67792486282997,124.91357582779892 175.79489347606432,124.29865715018241 175.27979183371644,124.13095182196412 174.39676044683438,123.46012950435397 173.77127988112625,123.40422757212946 173.40335013659205,123.90734456131759 173.21938526444137,124.41046064642433 173.2929712133482,125.52849315485219 173.62410798331257,126.59061990304326 173.660900957766,127.20553354734147 173.62410798331257,128.88256389561866 173.660900957766,130.0005785478279 173.80807285569608,131.17448912828695 173.660900957766,132.96329578766017 173.77127988112625,133.52229552525387 173.77127988112625,134.1371939474775 173.5137290599523,134.5843919520412 173.4401431111619,135.64648435031995 173.69769393233582,136.65267343287996 173.73448690667283,137.2116658052255 173.8448658300331,137.82655612600502 173.77127988112625,138.8886362269841 173.99203772784676,140.0066109287436 174.17600260023028,141.29227631776303 174.47034639574122,142.35434327388066 174.50713937019464,142.96922230192285 174.801483165822,144.0871807122021 174.39676044683438,145.37282736632915 173.8816588044865,145.82000742766832 173.4401431111619,146.04359719039348 172.8882484943606,146.26718677475583 172.3363538775593,146.32308414288855 171.82125223532785,146.6025708164816 170.0551894615637,146.8261599545658 167.66364612232428,147.27333769485995 167.07495853106957,147.5528234201047 166.48627093981486,147.66461763190455 165.38248170621227,148.0 164.8305870895274,147.8882059219177 164.57303626835346,147.38513201841852 164.38907139608636,146.21128939544724 164.13152057491243,145.7082124792796 163.9107627281919,144.4784651013033 163.9107627281919,143.86358938731428 163.80038380494807,142.85742621553072 163.8739697537385,142.29844511342526 164.057934626122,138.94453506814898 164.16831354948226,138.44144509654143 164.20510652381927,137.3234641458257 164.057934626122,136.65267343287996 164.057934626122,136.0936799444753 163.94755570276175,135.53468534018612 164.094727600459,134.36079303904262 163.9107627281919,133.85769483214244 163.35886811150704,133.7458951076842 162.07111400575377,133.35459572107357 161.51921938883606,133.29869576396595 160.34184420632664,133.13099582618452 159.6795706662815,133.13099582618452 159.12767604959663,133.2427957958862 159.12767604959663,134.24899351569184 159.05409010057338,134.86389034215244 159.01729712623637,135.42288628555252 159.0908830750268,136.48497550364118 159.01729712623637,137.6029598020832 159.458812819561,137.994253251818 159.38522687077057,139.22402910607343 159.2748479474103,139.8389150081057 159.75315661530476,140.84508902595553 160.67298097652383,141.4599713680509 161.81356318446342,141.68356461233634 162.84376646915916,141.18047956185183 163.17490323912352,140.7332920912304 163.35886811150704,140.23020533350063 163.43245406041387,137.04396821059345 163.61641893256456,135.4787858184718 163.61641893256456,134.91978998661216 163.35886811150704,134.4725925178791 162.84376646915916,134.08129414674477 162.3286648268113,133.85769483214244 161.11449666996486,133.7458951076842 160.52580907871015,133.96949451166438 160.0475004108157,134.24899351569184 159.6795706662815,134.69619134157256 159.458812819561,135.14338845325983 159.38522687077057,136.26137810808723 159.458812819561,136.82037126172509 159.42201984510757,137.88245517908945 159.34843389620073,139.00043389800703 159.458812819561,140.23020533350063 159.75315661530476,140.7332920912304 160.2314652830828,141.23637794540264 160.74656692543067,141.57176801266905 161.92394210782368,141.68356461233634 162.95414539251942,141.51586969594064 163.21169621369336,141.06868276103341 163.39566108584404,140.45379955973476 163.5060400092043,139.8389150081057 163.5060400092043,138.60914185413276 163.57962595822755,138.05015227152035 163.54283298365772,137.54706069290114 163.61641893256456,137.04396821059345 163.57962595822755,135.31108718598261 163.4692470348673,134.80799068648776 163.17490323912352,134.30489328296972 162.25507887790445,133.7458951076842 161.66639128664974,133.68999522886588 160.12108635972254,133.91359467746224 159.458812819561,134.75209101955988 159.38522687077057,135.4787858184718 159.458812819561,137.88245517908945 159.38522687077057,138.49734402682225 159.458812819561,139.11223152457387 159.34843389620073,139.61532029088994 159.2748479474103,140.11840815344476 159.56919174292125,140.56559660591302 159.90032851300202,140.95688591590442 160.37863718089648,141.29227631776303 160.89373882324435,141.62766631809063 161.4088404654758,141.7394628955808 161.9607350823935,141.68356461233634 162.47583672462497,141.7394628955808 162.95414539251942,141.4599713680509 163.43245406041387,140.39790101983817 163.57962595822755,137.49116157292156 163.43245406041387,135.03158924239688 163.32207513705362,134.5284922404535 162.84376646915916,134.1371939474775 162.25507887790445,133.80179497537029 161.15128964430187,133.68999522886588 160.599395027617,133.80179497537029 160.15787933417596,134.24899351569184 159.75315661530476,134.69619134157256 159.60598471749108,135.31108718598261 159.49560579413082,136.48497550364118 159.53239876846783,137.04396821059345 159.42201984510757,138.16195027723734 159.42201984510757,138.7768385114323 159.34843389620073,139.33582664334972 159.49560579413082,140.45379955973476 159.71636364073493,141.01278434402775 160.56260205304716,141.7394628955808 161.11449666996486,141.79536116750387 162.7333875457989,141.68356461233634 163.1013172903331,141.34817467913672 163.28528216248378,140.78919056418817 163.39566108584404,139.61532029088994 163.43245406041387,139.11223152457387 163.35886811150704,138.60914185413276 163.54283298365772,138.10605127982853 163.4692470348673,136.9880689901329 163.5060400092043,137.54706069290114 163.61641893256456,138.05015227152035 163.65321190701798,139.67121898685582 163.57962595822755,140.17430674897332 163.35886811150704,140.67739360725682" stroke="#4dd2ff" stroke-linecap="round" stroke-linejoin="round" stroke-width="0.5"><title>2022-05-04 3.2km</title></polyline><polyline fill="none" points="40.65156610356644,152.4472333611193 40.798738001380116,152.0 40.28363635903224,152.61494568730996 40.98270287364721,152.4472333611193 40.50439420575276,152.89446600803058 39.179847125546075,153.00627405795967 38.14964384085033,153.34169794039917 36.60433891392313,153.22989002424583 37.00906163291074,153.50940973102115 36.78830378619023,154.06844830718182 37.229819479514845,154.45977464638418 37.08264758181758,154.96290770765336 37.19302650517784,155.6337503825489 37.487370300805196,156.13688133428514 37.74492112197913,157.19904370766017 37.74492112197913,157.7580749171466 38.03926491749007,158.20529908133904 38.33360871311743,159.3233563665708 38.627952508744784,161.22404350568831 38.591159534291364,161.72716441229568 38.627952508744784,163.51603142550448 38.73833143210504,164.13095182196412 39.10626117663924,164.63406750539434 38.44398763647769,165.5843946631503 37.3401984028751,165.69619764617528 37.04585460736416,165.3048870104103 36.67792486282997,164.91357582779892 35.79489347606432,164.2986571501824 35.279791833716445,164.13095182196412 34.39676044683438,163.46012950435397 33.77127988112625,163.40422757212946 33.40335013659205,163.9073445613176 33.21938526444137,164.41046064642433 33.29297121334821,165.52849315485219 33.62410798331257,166.59061990304326 33.66090095776599,167.20553354734147 33.62410798331257,168.88256389561866 33.66090095776599,170.0005785478279 33.80807285569608,171.17448912828695 33.66090095776599,172.96329578766017 33.77127988112625,173.52229552525387 33.77127988112625,174.1371939474775 33.51372905995231,174.5843919520412 33.44014311116189,175.64648435031995 33.697693932335824,176.65267343287996 33.73448690667283,177.2116658052255 33.844865830033086,177.82655612600502 33.77127988112625,178.8886362269841 33.992037727846764,180.0066109287436 34.17600260023028,181.29227631776303 34.47034639574122,182.35434327388066 34.507139370194636,182.96922230192285 34.80148316582199,184.0871807122021 34.39676044683438,185.37282736632915 33.881658804486506,185.82000742766832 33.44014311116189,186.04359719039348 32.888248494360596,186.26718677475583 32.336353877559304,186.32308414288855 31.821252235327847,186.6025708164816 30.055189461563714,186.8261599545658 27.66364612232428,187.27333769485995 27.07495853106957,187.5528234201047 26.486270939814858,187.66461763190455 25.382481706212275,188.0 24.8305870895274,187.8882059219177 24.573036268353462,187.38513201841852 24.389071396086365,186.21128939544724 24.13152057491243,185.7082124792796 23.910762728191912,184.4784651013033 23.910762728191912,183.86358938731428 23.80038380494807,182.85742621553072 23.873969753738493,182.29844511342526 24.057934626122005,178.94453506814898 24.168313549482264,178.44144509654143 24.205106523819268,177.3234641458257 24.057934626122005,176.65267343287996 24.057934626122005,176.0936799444753 23.947555702761747,175.53468534018612 24.09472760045901,174.36079303904262 23.910762728191912,173.85769483214244 23.358868111507036,173.7458951076842 22.07111400575377,173.35459572107357 21.519219388836063,173.29869576396595 20.34184420632664,173.13099582618452 19.679570666281506,173.13099582618452 19.12767604959663,173.2427957958862 19.12767604959663,174.24899351569184 19.054090100573376,174.86389034215244 19.01729712623637,175.42288628555252 19.090883075026795,176.48497550364118 19.01729712623637,177.6029598020832 19.45881281956099,177.994253251818 19.385226870770566,179.22402910607343 19.274847947410308,179.8389150081057 19.75315661530476,180.84508902595553 20.67298097652383,181.4599713680509 21.81356318446342,181.68356461233634 22.843766469159164,181.18047956185183 23.174903239123523,180.7332920912304 23.358868111507036,180.23020533350063 23.432454060413875,177.04396821059345 23.616418932564557,175.4787858184718 23.616418932564557,174.91978998661216 23.358868111507036,174.4725925178791 22.843766469159164,174.08129414674477 22.32866482681129,173.85769483214244 21.114496669964865,173.7458951076842 20.525809078710154,173.96949451166438 20.0475004108157,174.24899351569184 19.679570666281506,174.69619134157256 19.45881281956099,175.14338845325983 19.385226870770566,176.26137810808723 19.45881281956099,176.82037126172509 19.42201984510757,177.88245517908945 19.34843389620073,179.00043389800703 19.45881281956099,180.23020533350063 19.75315661530476,180.7332920912304 20.231465283082798,181.23637794540264 20.74656692543067,181.57176801266905 21.923942107823677,181.68356461233634 22.954145392519422,181.51586969594064 23.211696213693358,181.06868276103341 23.39566108584404,180.45379955973476 23.5060400092043,179.8389150081057 23.5060400092043,178.60914185413276 23.579625958227552,178.05015227152035 23.542832983657718,177.54706069290114 23.616418932564557,177.04396821059345 23.579625958227552,175.31108718598261 23.469247034867294,174.80799068648776 23.174903239123523,174.30489328296972 22.255078877904452,173.7458951076842 21.66639128664974,173.63409533871163 20.12108635972254,173.91359467746224 19.45881281956099,174.75209101955988 19.385226870770566,175.4787858184718 19.45881281956099,177.88245517908945 19.385226870770566,178.49734402682225 19.45881281956099,179.11223152457387 19.34843389620073,179.61532029088994 19.274847947410308,180.11840815344476 19.569191742921248,180.56559660591302 19.900328513002023,180.95688591590442 20.378637180896476,181.29227631776303 20.893738823244348,181.62766631809063 21.408840465475805,181.7394628955808 21.960735082393512,181.68356461233634 22.47583672462497,181.7394628955808 22.954145392519422,181.4599713680509 23.432454060413875,180.39790101983817 23.579625958227552,177.49116157292156 23.432454060413875,175.03158924239688 23.322075137053616,174.5284922404535 22.843766469159164,174.1371939474775 22.255078877904452,173.80179497537029 21.15128964430187,173.68999522886588 20.599395027616993,173.80179497537029 20.15787933417596,174.24899351569184 19.75315661530476,174.69619134157256 19.605984717491083,175.31108718598261 19.495605794130825,176.48497550364118 19.53239876846783,177.04396821059345 19.42201984510757,178.16195027723734 19.42201984510757,178.7768385114323 19.34843389620073,179.33582664334972 19.495605794130825,180.45379955973476 19.716363640734926,181.01278434402775 20.562602053047158,181.7394628955808 21.114496669964865,181.79536116750387 22.733387545798905,181.68356461233634 23.1013172903331,181.34817467913672 23.28528216248378,180.78919056418817 23.39566108584404,179.61532029088994 23.432454060413875,179.11223152457387 23.358868111507036,178.60914185413276 23.542832983657718,178.10605127982853 23.469247034867294,176.9880689901329 23.5060400092043,177.54706069290114 23.616418932564557,178.05015227152035 23.653211907017976,179.67121898685582 23.579625958227552,180.17430674897332 23.358868111507036,180.67739360725682" stroke="#4dd2ff" stroke-linecap="round" stroke-linejoin="round" stroke-width="0.5"><title>2022-05-04 3.2km</title></polyline><polyline fill="none" points="82.46113638370298,188.0 79.02977442834526,179.54122000461211 79.48297317698598,153.37709756201366 71.00168230594136,152.0 70.93693962763064,162.62322437489638 73.33241872861981,166.8527777394629 77.73492086003534,165.1806330741383 78.31760496576317,155.63946377273533 76.0516112218611,152.88527744589373 71.8433371251449,154.6558275661082 72.03756516054273,165.37735627041548 74.36830158322118,166.7544164454739 78.05863425228745,164.49210126852267 78.18811960890889,154.6558275661082 74.88624301040545,152.88527744589373 71.90807980345562,154.9509186341893 71.58436641166918,164.49210126852267 73.46190408547409,166.45933244630578 76.24583925679326,166.55769379920093 78.18811960890889,164.49210126852267 78.18811960890889,154.75419127504574 74.04458819096908,153.08200555137591 71.6491090899799,155.93455425143475 71.8433371251449,165.1806330741383 76.95800871937536,166.7544164454739 78.57657567947172,164.9839097991935 78.70606103632599,155.1476459147234 76.69903800566681,152.98364150870475 73.91510283434764,152.88527744589373 71.26065301941708,156.13128113929997 71.90807980345562,165.08227144635748 76.18109657848254,167.04950026792358 78.64131835778244,164.19701591451303 77.9938915737439,153.67218939610757 76.44006729195826,152.59018514072523 72.03756516054273,153.4754615262209 70.87219694931991,162.91831067137537 72.94396265805699,166.7544164454739 77.6054355034139,166.26260968195857 78.77080371463671,158.68872353379265 77.54069282487035,153.77055330143776 73.46190408547409,152.88527744589373 71.39013837650418,157.311640816828 71.26065301941708,164.5904630140867 73.20293337176554,166.55769379920093 76.8932660408318,166.26260968195857 78.31760496576317,163.90193038384314 78.18811960890889,155.34437311682268 72.03756516054273,154.55746383738006 71.13116766279563,158.9838121868088" stroke="#4dd2ff" stroke-linecap="round" stroke-linejoin="round" stroke-width="0.5"><title>2022-03-10 3.4km</title></polyline><polyline fill="none" points="126.61389986181166,180.3389358081331 124.66182721673977,175.72575328542734 124.77027569711208,153.6476658299216 121.95061520976014,152.1647668790538 117.50422751845326,152.0 117.55845175858121,161.47398868526216 119.34785168315284,164.3573333763925 122.43863337114453,164.02780928838183 123.52311817393638,162.70971030544024 123.95691209495999,154.30673031971673 120.64923344645649,152.57668378876406 117.99224567983765,154.38911330711562 117.88379719946533,162.54494763651746 121.462597048725,164.3573333763925 123.74001513444819,162.21542210134794 123.74001513444819,153.89481513711507 120.64923344645649,152.74145043775206 117.99224567983765,154.55387923223316 117.88379719946533,162.1330406765337 120.21543952543288,164.3573333763925 123.63156665419228,162.38018490179093 123.8484636148205,154.80102799655288 122.43863337114453,152.90621702049975 119.2936274431413,153.07098353776382 118.20914264034946,154.14196429608273 117.88379719946533,161.8035148124618 120.64923344645649,164.43971435714047 123.52311817393638,162.9568541853514 123.74001513444819,154.80102799655288 123.035100012552,153.31813319033245 120.540784966317,152.65906712130527 117.99224567983765,154.71864509163424 118.26336688036099,163.0392354459036 121.6794940092368,164.43971435714047 124.11958481534384,162.38018490179093 123.035100012552,152.9886002872663 119.61897288402542,152.65906712130527 117.99224567983765,154.80102799655288 118.04646991984919,162.54494763651746 119.94431832467671,164.1925713653036 122.49285761115607,164.2749523789389 123.79423937469255,162.0506592350721 123.36044545343611,153.73004894860787 118.80560928175692,153.15336677164305 117.23310631769709,158.17871294173528 116.96198511705734,155.21294227484032 117.23310631769709,152.0 124.71605145698413,152.41191707417602 125.04139689775184,170.12396232318133 126.23433018079959,178.93851085056667 129.70468154968694,186.7643541043799 129.162439148291,188.0" stroke="#4dd2ff" stroke-linecap="round" stroke-linejoin="round" stroke-width="0.5"><title>2022-03-08 3.7km</title></polyline><polyline fill="none" points="179.31383759423625,154.6586212951952 178.9493038333021,154.1047439598915 180.29807874909602,154.54784591670614 180.07935849251226,153.16314995175344 181.31877328001428,152.8308218918537 180.37098550132941,152.0 179.6419179792283,154.21551951544825 180.22517199697904,152.22155274784018 180.18871862068772,153.4954776136874 176.7256478909403,153.7170291670045 176.47047425829805,154.99094716568652 177.41826203698292,157.20644279473345 177.96506267844234,165.29285169538343 176.43402088223957,165.34823724490707 173.08031028066762,163.07742064436025 172.82513664790895,163.63128006579063 173.11676365684252,175.4836066669668 174.28327169211116,184.51097366669273 172.02316237369087,186.0062760393921 164.87830065737944,188.0 163.42016561329365,184.4002102073282 163.71179262222722,173.87747991783544 158.7541334721027,173.15748904639622 158.86349360039458,179.19427773731877 160.17581514013,181.18805065078777 161.7433103126241,181.29881539256894 162.90981834789272,180.3019311248354 163.0191784761846,174.81900362258602 161.92557719303295,173.65594446418982 160.7590691576479,173.60056057319161 159.22802736144513,175.09592175131547 159.3738408657955,180.57884378067683 161.08714954263996,181.29881539256894 162.90981834789272,180.4126962202281 162.9462717239512,175.15130534379568 161.88912381697446,173.8220960710314 159.410294241854,174.4867015034106 159.337387489737,179.52657421799086 160.68616240553092,181.1326682632498 163.0556318522431,180.08040080107457 163.0191784761846,175.4836066669668 162.07139069749974,173.7667122130515 159.59256112249568,174.0990151946753 159.19157398538664,179.85887030043523 160.54034890118055,181.35419774678303 162.87336497183423,180.19116598508845 163.0191784761846,174.87438727037807 162.61819133907557,173.932863753711 161.08714954263996,173.4897927577549 159.3738408657955,174.70823629377992 159.19157398538664,179.9696355728811 160.17581514013,181.24343302728084 161.37877655157354,181.35419774678303 163.0191784761846,180.08040080107457 163.0191784761846,175.04053814745566 162.07139069749974,173.8220960710314 159.59256112249568,174.20978276677488 158.89994697645307,177.3112568295328 158.6812267198693,173.04672105418285 163.8576061265776,172.65903273319418 166.22707557317335,159.03421336913016 167.21131672803313,158.64650546570192 170.92956109065562,160.64042605397117 171.87734886922408,160.19733382832783 172.13252250209916,158.314183974333 177.01727489987388,158.70189234220015 178.3295964394929,157.53876561312063 180.80842601461336,158.203410055532 180.5167990056798,153.16314995175344 180.22517199697904,154.49245821089426 178.8399437048938,154.32629502678174" stroke="#4dd2ff" stroke-linecap="round" stroke-linejoin="round" stroke-width="0.5"><title>2021-12-30 4.7km</title></polyline><polyline fill="none" points="35.80182904237881,228.0 31.404653346864507,216.95905932574533 32.62609103997238,193.1134438473382 24.442458495963365,192.0 24.38138661137782,203.13431844569277 26.641046343604103,205.639503338316 29.389281153213233,205.54671895332285 31.221437692875043,203.41267298936145 31.526797116268426,194.69081806502072 28.71749042207375,192.5567222571699 25.41960865049623,193.67016477059224 24.442458495963365,202.94874865724705 27.00747765158303,205.4539345500525 29.022849845467135,205.639503338316 30.977150154300034,203.8765968584048 31.46572523145005,194.59803149459185 29.511424922617152,192.74229619442485 25.96925561246462,193.29901756261825 24.198170957388356,202.39203884726157 26.21354315103963,205.54671895332285 29.63356869178824,205.17558122857008 31.46572523145005,203.3198881598655 31.526797116268426,195.15475063992199 29.20606549922377,192.6495092350524 24.808889803942293,193.94852498240652 24.50353038054891,203.3198881598655 27.190693305572495,205.54671895332285 30.977150154300034,203.7838121217792 31.404653346864507,194.59803149459185 27.862484036711976,192.18557415957912 24.931033573346213,194.04131168249296 24.442458495963365,203.3198881598655 26.152471266221255,205.36115012824303 30.610718846321106,204.34052026472636 31.71001277025789,195.43310996243963 31.099293923703954,193.67016477059224 28.351059113861993,192.74229619442485 25.236392996506765,194.31967167175026 24.62567414995283,203.7838121217792 26.45783068961464,205.54671895332285 30.061071884585544,205.26836568766157 31.221437692875043,203.8765968584048 31.46572523145005,195.34032353994553 29.938928115181625,192.5567222571699 24.564602265367284,193.29901756261825 24.564602265367284,204.06216627650429" stroke="#4dd2ff" stroke-linecap="round" stroke-linejoin="round" stroke-width="0.5"><title>2021-12-27 3.1km</title></polyline><polyline fill="none" points="82.50786687200889,228.0 84.60188204026781,194.17678807483753 68.73145129322074,192.0 70.93567778589204,214.7722725853091 74.57265149871819,218.28852427884704 79.53216110705398,218.6234046233585 82.83850084594451,215.27459515765077 82.39765554759651,198.36290310963523 75.67476474517025,194.00934303860413 70.82546646078117,197.1907930058078 72.4786363306921,214.10250868613366 76.77687799138948,218.6234046233585 82.28744422271848,215.77691743004834 81.84659892413765,198.36290310963523 76.33603269257583,194.51167804608122 70.93567778589204,197.35823740652995 72.91948162904009,216.11179877776885 78.87089315918274,218.79084474634146 82.6180781966541,215.60947670636233 81.84659892413765,198.86523550981656 76.55645534186624,194.51167804608122 73.13990427856334,194.8465678843204 70.38462116243318,198.6977914099698 71.37652308424003,214.7722725853091 76.99730064044707,218.12108405597974 82.50786687200889,215.77691743004834 82.28744422271848,199.36756760952994 75.78497606958263,194.67912298231386 70.49483248731121,198.53034727630438 71.37652308424003,214.10250868613366 76.33603269257583,218.12108405597974 81.07511965185404,217.45132283127168 83.16913481988013,212.59553795936517 81.95681024901569,198.36290310963523 74.90328547218814,194.34423307713587 71.48673440888524,195.68379189417465 70.60504381195642,199.20012360997498 71.48673440888524,214.7722725853091 78.87089315918274,219.12572489015292 82.83850084594451,213.76762653660262 81.73638759972528,197.52568177407375 77.6585685883183,194.34423307713587 72.69905897951685,194.67912298231386 69.50293056550436,200.53967467148323 70.93567778589204,215.60947670636233 77.98920256225392,218.45596446777927 82.94871217058972,213.93506762810284 83.16913481988013,198.19545890955487 75.45434209564701,193.50700773025164 70.38462116243318,196.5210150682251 70.38462116243318,213.93506762810284 75.34413077123463,218.28852427884704 82.39765554759651,214.10250868613366 82.17723289807327,199.0326795760775 80.74448567791842,196.0186812641332 74.6828628233634,194.17678807483753 70.05398718849756,197.6931261079735" stroke="#4dd2ff" stroke-linecap="round" stroke-linejoin="round" stroke-width="0.5"><title>2021-12-07 3.6km</title></polyline><polyline fill="none" points="126.33479821216315,209.5683366661542 124.75507985474542,193.24804509343812 118.30982895730995,192.0 117.10924300551414,194.78409614652628 117.7411303485278,205.44031524352613 121.21651073475368,207.26432907878188 123.99681504350156,206.49632409680635 124.88145732344128,204.6723073486355 124.31275871489197,194.88009917459567 118.81533883139491,193.6320583166962 117.29880920844153,199.29621774112456 118.94171630009077,206.68832545704208 123.42811643471941,207.07232794817537 125.00783479213715,200.8322494761378 123.80724884057418,194.49608694779454 118.81533883139491,194.4000838433276 117.67794161429629,202.08027164812665 119.32084870594554,206.40032338764286 121.59564314037561,208.12833321781363 124.12319251196459,207.4563301326707 124.5655136522837,197.76018110016594 123.42811643471941,194.97610218339832 118.81533883139491,194.01607123340364 117.23562047421001,198.4321977342188 119.32084870594554,207.36032961515593 123.99681504350156,207.1683285231993 124.31275871489197,195.55211983332993 121.78520934307016,193.92006803286495 118.94171630009077,194.49608694779454 117.4883754113689,197.56817617529305 119.38403744017705,207.07232794817537 123.23855023179203,207.26432907878188 124.43913618358783,205.8243187314365 124.88145732344128,197.3761711732368 122.3539079518523,194.01607123340364 118.81533883139491,194.59209003314027 117.67794161429629,196.1281367932097 117.93069655145518,204.96031045319978 120.58462339174002,207.64833110995824 123.49130516895093,207.1683285231993 124.50232491781935,205.8243187314365 124.81826858920977,196.89615833378048 122.92260656063445,194.49608694779454 120.39505718881264,193.92006803286495 117.99388528591953,196.80015570792602 118.05707402015105,205.9203195552982 121.53245440591127,207.4563301326707 124.6918911205139,204.76830840250477 124.31275871489197,196.1281367932097 120.0791135171894,194.20807757650618 117.99388528591953,197.3761711732368 118.87852756585926,206.49632409680635 121.40607693768106,207.55233063103515 124.62870238651522,205.72831788813346 124.5655136522837,196.5121477166831 123.3649277004879,194.59209003314027 120.71100086020306,194.01607123340364 118.43620642577298,195.4561169394292 117.4883754113689,198.04818834396428 117.23562047421001,206.30432265962008 117.10924300551414,193.05603836703813 125.45015593222342,192.76802813322865 126.01885454077274,214.1763187260367 129.5574236609973,228.0" stroke="#4dd2ff" stroke-linecap="round" stroke-linejoin="round" stroke-width="0.5"><title>2021-12-06 4.4km</title></polyline><polyline fill="none" points="180.31639284291305,192.0 175.74611988442484,193.4158028368547 174.63683033152483,195.30353071846184 169.40098364138976,195.6406238725176 165.76251390750986,201.30373854676145 164.65322435449343,206.62967640036368 165.49628441466484,213.30383436131524 164.25388011545874,219.23630847854656 160.26043772452977,217.68578553051339 156.79945431929082,217.7531997198821 156.62196799076628,225.10126566857798 158.04185861861333,227.52811471148743 160.34918088885024,227.86517569894204 162.39027366647497,226.24727988996892 162.52338841266464,219.9104466700519 160.8372682922054,218.02285634237342 159.41737766447477,217.82061389577575 157.55377121525817,219.37113622453762 157.24317014042754,226.1798673964222 159.15114817162976,228.0 161.2366125313565,227.79776352838962 162.34590208425652,226.1798673964222 162.39027366647497,220.38234260337777 160.21606614254415,218.02285634237342 157.4650280509377,219.43855007729144 156.97694064769894,225.70797956449678 159.41737766447477,227.93258785636863 161.99092942732386,226.51692972960882 162.39027366647497,220.11268786521396 161.05912620283198,218.29251274943817 159.1067765894113,217.7531997198821 157.50939963327255,219.23630847854656 157.19879855844192,225.91021728742635 159.8610934856115,228.0 161.94655784522183,226.78657935431693 162.16841575573198,219.57337774254847 159.50612082856242,217.8880280580488 157.55377121525817,219.43855007729144 157.50939963327255,225.37091642350424 158.48557443975005,227.25846567907138 159.94983664969914,227.66293914677226 161.94655784522183,226.584342156013 162.39027366647497,219.43855007729144 160.52666721737478,217.7531997198821 158.97366184322163,218.49475491340854 157.68688596168067,219.97786041506333 157.331913304748,222.53957275833818 157.06568381201942,219.16889458545484 163.89890745852608,216.94422856069286 166.29497289296705,201.97791253897594 169.26786889508367,199.1463727269147 175.21366089908406,197.12382975281798 180.58262233564164,198.74186510121217 178.1421853188658,195.84287960352958 181.15945290320087,193.0787074615364 183.37803200923372,193.01128834628616" stroke="#4dd2ff" stroke-linecap="round" stroke-linejoin="round" stroke-width="0.5"><title>2021-11-11 3.8km</title></polyline><polyline fill="none" points="42.54899158375338,233.6201853157254 43.59556365921162,232.39004620941705 42.84519122767961,232.0 41.14697993552545,232.060007174965 39.58699514379259,233.11012885962555 37.414864421181846,233.59018204265158 36.072092701797374,235.36036490194965 35.282226984447334,235.57038521335926 31.747577899543103,233.38015896374418 28.311662029242143,233.6201853157254 23.848920726391952,232.99011532419536 22.92082850856241,233.26014564406069 22.012482933700085,235.2103502140235 21.163377287623007,235.78040523128584 20.551231356686912,238.5706433299929 22.367922506469768,250.4210773458908 22.209949363023043,260.68069840855605 24.5203065861715,267.4600636991818 21.815016504377127,268.0 20.94616421533283,265.7502526167664 18.793780135631096,255.34098303303472 16.40443634078838,250.5410769617738 17.095568843418732,250.0010779355507 18.774033492722083,249.8510778616328 22.111216148361564,250.48107716582308 21.222617216408253,241.99086451975745" stroke="#4dd2ff" stroke-linecap="round" stroke-linejoin="round" stroke-width="0.5"><title>2021-11-07 3.5km</title></polyline><polyline fill="none" points="90.12091628299095,232.0 89.20535738795297,232.06710861729516 86.3916885884828,235.3218450233253 84.40425586514175,234.65077040923643 81.43427213234827,239.11336724078865 81.56825636094436,240.32126820950361 78.1516585330246,242.53573121393856 73.52920264826389,246.69616010712343 68.28148703020997,253.60761717348942 67.14262108760886,256.5264498217002 63.68136185023468,261.4581575854827 63.346401278919075,262.76654603803763 63.726023259805515,264.4439525244379 65.22218047850765,266.490366213402 67.94652645889437,267.7316216316249 70.20192763936939,268.0 67.63389659230597,267.7987162631907 64.73090497381054,265.95360433030874 63.770684669259936,264.67878812286654 63.21241705032298,262.8671908900724 63.50271621218417,261.6259002528823 67.16495179245248,256.69419731447124 67.43292024947004,254.84896586717514 70.89417948684422,249.91706797228835 74.04280885763,246.15933624605532 81.4566028371919,239.98574101629492 84.22561022697482,234.51655517113977 84.80620855069719,234.34878597571515 86.36935788375558,235.45605963082926 89.42866443551611,232.10066291609837 89.94227064494044,232.06710861729516 89.5626486641122,232.40265131002525" stroke="#4dd2ff" stroke-linecap="round" stroke-linejoin="round" stroke-width="0.5"><title>2016-05-06 3.5km</title></polyline></svg>