<?xml version="1.0" encoding="utf-8" ?>
<svg baseProfile="full" height="300mm" version="1.1" viewBox="0,0,200,300" width="200mm" xmlns="http://www.w3.org/2000/svg" xmlns:ev="http://www.w3.org/2001/xml-events" xmlns:xlink="http://www.w3.org/1999/xlink"><defs /><rect fill="#222222" height="300" width="200" x="0" y="0" /><text fill="#FFFFFF" style="font-size:12px; font-family:Arial; font-weight:bold;" x="10" y="20">Over 3kms Workouts</text><text fill="#FFFFFF" style="font-size:4px; font-family:Arial" x="10" y="280">ATHLETE</text><text fill="#FFFFFF" style="font-size:9px; font-family:Arial" x="10" y="290">underwindfall</text><text fill="#FFFFFF" style="font-size:4px; font-family:Arial" x="120" y="280">STATISTICS</text><text fill="#FFFFFF" style="font-size:3px; font-family:Arial" x="120" y="285">Number: 19</text><text fill="#FFFFFF" style="font-size:3px; font-family:Arial" x="120" y="290">Weekly: 1.7</text><text fill="#FFFFFF" style="font-size:3px; font-family:Arial" x="141" y="285">Total: 73.5 km</text><text fill="#FFFFFF" style="font-size:3px; font-family:Arial" x="141" y="290">Avg: 3.9 km</text><text fill="#FFFFFF" style="font-size:3px; font-family:Arial" x="167" y="285">Min: 3.0 km</text><text fill="#FFFFFF" style="font-size:3px; font-family:Arial" x="167" y="290">Max: 5.3 km</text><polyline fill="none" points="49.79306093521882,68.84039795660647 50.035770562360995,68.39779834789806 50.06610926578287,67.95519809835241 49.94475445209537,67.54948064006749 49.853738341946155,67.36506343545625 49.702044825069606,67.2912965224823 49.45933519792743,67.2912965224823 48.245787062100135,67.84454793587793 46.03106171428226,68.65598153081373 44.908529688604176,69.17234724242007 40.1756919589825,71.42221623411751 38.81045030627865,72.23364033194957 37.80927309417166,72.75 37.536224763607606,72.71311719546793 37.323853839887306,72.52870310621802 36.9901281024795,72.0123430643871 36.656402365188114,71.42221623411751 35.20014460233506,67.91831471535261 34.56303183094133,66.5905099613301 33.319144991692156,63.492276437347755 32.651693516992964,61.98003200290259 32.56067740684375,61.648074905970134 32.59101611026563,61.42676997440867 33.16745147469919,60.947275406477274 32.651693516992964,61.05792806582758 32.34830648323987,61.02104385054554 32.0752581525594,60.83662270702189 31.862887228722684,60.50466436846182 31.013403533725068,58.73421380663058 29.860532804741524,56.63179044474964 29.253758736886084,55.23016683559399 28.495291151921265,53.238374860491604 27.88851708394941,52.058047564991284 27.342420423054136,50.54574655587203 26.64463024493307,48.996552397467894 25.916501363390125,47.631779608665965 25.036678964854218,45.56616595789092 23.853469532565214,43.16856117764837 23.641098608728498,42.91035646403907 23.580421202001162,42.68903796444647 23.610759905423038,42.46771930452087 23.762453422299586,42.320173442334635 25.249049888690934,41.50866992640658 26.371581914369017,40.660277583257994 28.768339482485317,39.44301489004283 30.042565025156364,38.92659894929966 31.74153241526801,37.9675384585571 33.16745147469919,36.787152184406295 33.80456424609292,36.19695733752451 33.95625776296947,35.93874673364917 34.01693516969681,35.68053591158241 33.98659646650776,35.42232487138244 33.89558035635855,35.05345157830743 32.682032220531255,32.729539593245136 32.469661296578124,32.434438394149765 32.19661296613049,32.25 31.923564635566436,32.25 30.861710016732104,32.61887667697738 30.254935948876664,32.91397769804462 29.557145770755596,33.393516249372624 28.3435976349283,34.610803038813174 27.403097829781473,35.127226272481494 26.492936727940105,35.717423185298685 26.371581914369017,35.97563397616614 26.341243210830726,36.565829250379466 26.219888397259638,36.75026503985282 25.977178770233877,36.75026503985282 25.15803377854172,36.233844548871275 24.88498544797767,36.27073175582336 24.156856566434726,37.22979757146095 23.428727685008198,37.819990423624404 21.85111510846764,38.81593827705365 21.36569585406687,38.963485831191065 20.940954006742686,39.03725958141149 20.06113160820678,39.00037270854227 18.90826087910682,38.668390651699156 18.69588995538652,38.77905137732159 18.30148681125138,38.852825172274606 18.18013199768029,38.81593827705365 17.998099777265452,38.70527756478987 17.846406260272488,38.48395601985976 17.634035336552188,38.078199437994044 17.300309599144384,36.787152184406295 17.239632192417048,35.97563397616614 17.33064830256626,34.50014080380788 17.209293489111587,33.65172900381731 17.087938675424084,33.28285357358982 16.93624515843112,33.09841569146374 16.450825904146768,32.87709008593811 15.631680912454613,33.06152810170897 15.206939065014012,33.28285357358982 15.024906844599172,33.54106642160332 14.964229437871836,33.76239154612995 14.933890734333545,34.13126639756956 14.994568141177297,34.68457783991471 15.267616471741349,35.49609947655699 15.844051836291328,36.565829250379466 16.845229048281908,37.672442317416426 17.512680522864684,38.078199437994044 18.11945459083654,38.852825172274606 18.422841624938883,39.184807028766954 18.78690606553573,39.40612806600984 19.87909938779194,39.92254319644417 20.394857345498167,40.365184042195324 20.576889565913007,40.58650422471692 20.910615303204395,41.50866992640658 21.244341040495783,42.13574101423728 21.85111510846764,42.799697234208 22.093824735609815,42.94724286501878 22.33653436275199,43.02101565364865 22.73093750688713,42.94724286501878 23.519743795273826,42.430832845682744 25.27938859211281,41.545556496595964 26.28056580410339,40.7709375875711 27.342420423054136,40.070090216206154 29.860532804741524,39.00037270854227 30.95272612699773,38.29952127666911 31.862887228722684,37.85687743901508 33.47083850868512,36.45516772332485 33.50117721199058,36.38139334967127 33.41016110195778,36.086295676912414 33.07643536454998,35.68053591158241 32.74270962725859,35.5698740639491 31.620177601580508,35.93874673364917 30.801032610004768,36.307618958177045 29.587484474177472,36.233844548871275 28.85935559263453,36.49205490347231 28.738000779179856,36.676490737416316 28.646984669030644,36.971587840263965 28.85935559263453,37.672442317416426 28.85935559263453,38.22574734830414 28.738000779179856,38.55772988588433 28.373936338466592,39.147920173592865 28.313258931506425,39.44301489004283 28.131226711208,39.70122253312729 27.73682356707286,40.03320346787223 26.553614134783857,40.697164255805546 25.49175951583311,41.50866992640658 24.36922749027144,42.06196801183978 23.610759905423038,42.50460575893521 23.398388981586322,42.72592439208529 23.368050278164446,43.02101565364865 23.459066388430074,43.279220273776446 23.73211471887771,43.64808363842894 24.126517863129266,44.75467106109136 25.400743405683897,47.66866543987999 26.796323761809617,50.47197558361222 27.13004949921742,51.430996835260885 27.827839677222073,52.832637866871664 28.131226711208,53.8285367989738 28.616645965608768,54.9350873620715 29.04138781304937,56.115403547126334 29.70883928774856,57.406369155301945 30.376290762447752,58.40225318461307 30.89204872015398,59.361249553388916 31.407806677860208,61.02104385054554 32.044919449137524,62.680829134449596 32.924741847557016,64.45125683635706 33.440499805263244,65.88972179353004 34.10795128007885,67.2175295916386 35.04845108522568,69.61494572952506 35.41251552593894,70.42637462480343 35.715902560041286,70.79520522878738 36.29233792447485,70.86897129612043 36.47437014488969,71.01650337758474 37.08114421274513,72.23364033194957 37.26317643315997,72.49182027505594 37.50588606018573,72.63935157310334 37.7789343908662,72.67623438648297 38.17333753488492,72.52870310621802 38.78011160274036,72.23364033194957 39.47790178086143,71.79104563654982" stroke="#4dd2ff" stroke-linecap="round" stroke-linejoin="round" stroke-width="0.5"><title>2022-07-05 5.3km</title></polyline><polyline fill="none" points="79.19696994230617,34.60030383049161 79.30437310319394,34.704761186105316 79.49769879272208,34.9920186540985 79.36881499981973,34.9920186540985 79.21845057455357,34.809218491311185 79.06808614928741,34.730875517154345 78.6599541377509,34.704761186105316 78.42366718384437,34.62641817408439 78.10145770106465,34.39138896802615 77.95109327579848,34.18247390385659 77.75776758627035,33.84298649447737 77.65036442526616,33.55572750142892 77.62888379313517,33.34681163055939 77.75776758627035,33.19012459507212 78.359225287335,32.90286473539891 78.93920235615224,32.720062808002695 79.64806321810465,32.35445849002281 80.07767586177215,32.25 80.44284660881385,32.30222925130511 80.67913356272038,32.40668771606579 80.78653672372457,32.5111461305205 81.30207189603243,33.39904061719426 82.16129718325101,34.57418948371196 82.39758413715754,35.38373276867787 82.65535172342788,35.80156037621782 82.84867741295602,36.32384375123365 82.99904183822218,37.028924308222486 83.08496436697897,37.159494529652875 83.38569321751129,37.78623049608723 83.57901890715584,38.073483874162775 84.82489557366353,40.658747120702174 85.06118252757005,41.57272168810596 85.79152402176987,43.27009278812329 85.94188844691962,43.740131662401836 86.0492916079238,44.340735405057785 86.17817540094256,44.654093217963236 86.47890425147489,45.22858136323339 87.66033902135678,47.81375914803357 88.00402913626749,48.67547821496555 88.69140936608892,50.033331601007376 88.92769631999545,50.66003029081912 88.94917695224285,50.84281706689217 88.92769631999545,50.97337895529927 89.07806074537802,51.23450249590678 89.1854639062658,51.57396262764814 89.1854639062658,51.70452407511766 89.1425026418874,51.96564673363173 89.1854639062658,52.200656857021386 89.09954137750901,52.35733013082063 88.3477192511782,52.98402209216147 87.53145522845443,53.53237607004121 84.22343787248246,56.091342932981206 82.5694291946711,57.214145375211956 80.2710015514167,58.98972804816731 77.58592252875678,60.974185565675725 76.68373597715981,61.67918583074061 71.42098109296057,65.56970155435556 70.06770126556512,66.64023388312489 69.50920482887886,67.26688449722133 68.2418475302402,69.04238472033467 67.16781592124607,70.63510047191812 65.81453609385062,72.75 65.90045862249099,72.69778050736932 66.3085906340275,72.01892595637764 66.95300959935412,71.15729980706237 67.72631235793233,69.90401928663778 68.09148310509045,69.43403722101357 68.90774712781422,68.18074672474177 69.22995661059394,67.6063194892049 69.83141431154218,66.84911762269621 70.73360086325556,66.11802365236508 73.95569569035433,63.74195119741489 74.53567275917158,63.298066638977616 75.07268856372684,62.801959290736704 77.30667431035545,61.26140817310079 78.23034149419982,60.50418411348073 80.70061419496778,58.67639098771906 81.17318810289726,58.258607534866314 82.01093275786843,57.73637708497699 82.80571614869405,57.16192213486647 83.51457701064646,56.48301886492118 84.84637620579451,55.569107254515984 86.15669476881158,54.550744057720294" stroke="#4dd2ff" stroke-linecap="round" stroke-linejoin="round" stroke-width="0.5"><title>2022-07-01 3.7km</title></polyline><polyline fill="none" points="126.25543319841381,33.27165923303983 126.90322354034288,32.97367590133217 127.06079416407738,32.99496044169064 127.28839617606718,33.12266763011576 127.34091971733142,33.10138310509501 127.76110804727068,32.888537714097765 128.30385130667128,32.441561556988745 128.58397685998352,32.31385387547198 128.8991181073361,32.25 128.9866573428153,32.31385387547198 129.12672011944233,32.50541536304809 129.38933782553067,33.03752951478236 129.58192414348014,33.31422823933826 129.72198692004895,33.59092652985419 130.17719094414497,34.82542130725051 130.7724577448098,35.86834981791617 131.0000597568578,36.42173795233248 131.07009114517132,36.76228363363771 131.14012253348483,36.9751243507053 131.2451696159551,37.145396739360876 131.4727716280031,37.44337302412896 131.66535794583615,37.82648465076636 131.80542072252138,38.40115053055342 132.06803842866793,39.08223359359545 132.47071891155792,39.97615112333733 132.6457973822835,40.699795329768676 132.803368006018,41.104183446383104 132.8733993943315,41.35958598981961 133.06598571216455,41.78525607381016 133.22355633589905,42.27477540062682 134.886801808374,45.7865046604129 134.95683319674572,45.9780515187158 134.93932534963824,46.16959816907183 135.16692736162804,46.61653954444046 135.16692736162804,46.722953990800306 135.114403820422,46.87193410782493 135.21945090289228,47.02091409899003 135.201943055843,47.08476262811746 134.58916840801248,47.59555002943671 133.67876035999507,48.276597597505315 132.8733993943315,48.9363599219796 131.7879128753557,49.72381495065929 130.63239496812457,50.617678561931825 129.9145732379984,51.10717338245013 128.54896116576856,52.171287872377434 126.18540181015851,53.95898576786567 125.0999152911827,54.70385454517964 124.18950724310707,55.47000200704497 123.4716855129227,55.980765133324894 122.80638732388616,56.55537188316521 122.10607344069285,57.00228695044643 121.93099496996729,57.151258387981215 121.68588511087,57.25766648068384 121.03809476894094,57.78970598144224 119.93510040297406,58.598402950301534 119.56743561424082,58.832498749558 119.35734144930029,59.0240314451803 119.11223159020301,59.343252142556594 118.79709034279222,59.85400405719702 118.23683923628414,60.59884794932441 117.81665090634488,61.27984532783739 117.41397042351309,61.79059163693455 115.41807585651986,64.8550384475966 114.71776197338477,65.72754482040182 113.98243239609292,66.40852240653476 113.56224406621186,66.85541251934774 110.1832295799395,71.17529193212977 110.04316680331249,71.51577054275549 109.97313541494077,71.83496864371409 109.86808833252871,72.04776705689437 109.78054909710772,72.43080355413258 110.02565895626321,72.49464288941817 110.16572173294844,72.34568440435396 110.1832295799395,72.23928540945053 110.20073742704699,72.28184501512442 110.28827666240977,72.324404610481 110.49837082740851,72.09032670878514 110.51587867445778,72.09032670878514 110.51587867445778,72.13288635034405 110.58591006277129,72.13288635034405 110.60341790987877,72.15416616732546 110.58591006277129,72.21800560274278 110.14821388578275,72.75 110.20073742704699,72.72872025491961 110.16572173294844,72.72872025491961 110.1832295799395,72.6861607570172 110.55089436861454,72.23928540945053 110.69095714524155,71.98392755989335 110.81351207476109,71.85624849659507 111.3562553342199,71.21785179432482 111.75893581705168,70.64329278781952 112.80940664181253,69.30264783122402 113.05451650096802,68.9408847487939 113.38716559542809,68.6004011703044 113.66729114868212,68.17479577328777 114.19252656103345,67.57894649299851 114.85782475001179,66.66388832386292 116.46854668128071,64.64223136082 116.52107022248674,64.53582772122172 116.50356237543747,64.42942401742039 116.3284839046537,64.25917795790883 116.15340543386992,64.00380856063566 116.1709132809192,63.87612372341391 116.34599175181938,63.493068657422555 117.01128994079772,62.53542735452356 117.30892334110104,62.045964237171574 117.71160382387461,61.51393756971811 118.07926861254964,60.896784625801956 118.60450402495917,60.1732232531067" stroke="#4dd2ff" stroke-linecap="round" stroke-linejoin="round" stroke-width="0.5"><title>2022-06-30 3.9km</title></polyline><polyline fill="none" points="156.88470987603068,40.37372869433602 157.81194907356985,42.70586176760844 158.54734567855485,44.18287064926699 160.11406018480193,47.56441811856348 160.56169290083926,48.38064839731669 160.68958796269726,48.49725255405065 160.78550925897434,48.53612059695297 160.81748302432243,48.30291226945701 160.65761419723276,47.75875884870766 159.76234876504168,45.7376095255604 159.6984012343455,45.42666235048091 159.73037499957718,45.15458332610433 159.98616512306035,44.84363558833138 160.56169290083926,44.493819024792174 161.90459104895126,43.83305336814374 163.8549907405395,42.97794285984128 164.39854475285392,42.66699302132474 164.46249228378292,42.39491166648804 164.43051851843484,42.122830081760185 163.9189382713521,40.956763545196736 163.75906944426242,40.529204757651314 163.79104320972692,40.25712159747491 163.9189382713521,40.02390727723832 164.14275462948717,39.82956188148819 164.75025617261417,39.47973987358273 167.78776388894767,37.96384011692135 169.16263580252416,37.18645285957609 170.82527160504833,35.86489021690795 174.726070987992,32.48321994775324 175.14172993856482,32.28887000310351 175.42949382739607,32.25 175.62133642006665,32.40547998389229 175.84515277808532,32.833049552718876 176.35673302505165,34.348973451327765 177.4438410497969,36.797758527391125 177.89147376583423,38.23592521387036 178.14726388920099,38.89670234970981 181.88819444493856,47.331209087657044 182.4637222228339,49.11914067735779 182.55964351911098,49.93536701751873 182.4637222228339,50.12970631761709 182.11201080307364,50.47951676216326 180.83306018577423,51.41234275791794 177.89147376583423,53.705528517166385 173.31922530883458,57.0092420191213 171.20895679027308,58.64165265741758 169.29053086426575,60.23518839874305 166.89249845675658,62.02304838600685 166.60473456780892,62.411712287925184 166.57276080234442,63.07243984541856 166.22104938258417,63.88863083993783 165.9972330245655,64.74368585500633 165.64552160468884,65.09348043444334 162.4801188268466,67.42543459378066 161.93656481453218,67.85295769246295 161.90459104895126,67.89182340051048 161.96853857999668,67.85295769246295 161.90459104895126,67.89182340051048 161.90459104895126,67.85295769246295 161.96853857999668,67.85295769246295 161.90459104895126,67.9306891039887 161.55287962930743,68.08615187075338 160.1780077156145,69.17438913852675 159.76234876504168,69.36871683530626 159.538532407023,69.40758236052352 159.28274228365626,69.32985130528687 158.67524074041285,68.98006132457522 158.38747685146518,68.90233016616548 157.90787036996335,68.86346457983018 157.55615895008668,68.94119574764045 154.10299228329677,71.42858321644599 153.62338580179494,71.85610100414488 152.95193672785535,72.6334046194388 152.69614660425577,72.75 152.5043040117016,72.6334046194388 152.4403564807726,72.361348567385 152.4723302462371,71.27312206223723 152.5362777770497,70.84560350116226 152.6641728389077,70.5735459397838 152.98391049308702,70.379218969465 153.8152283943491,70.22375730896601 154.1349660488777,70.1071610142535 154.32680864154827,69.95169922255445 154.7104938266566,69.40758236052352 155.4458904316416,68.78573339330615 155.73365432047285,68.43594282187405 155.82957561674993,68.12501755080302 155.82957561674993,67.46430035351659 156.0533919747686,66.92017929136637 156.0533919747686,66.25945962360129 156.21326080197468,65.3266766097804 156.18128703651018,65.05461438879138 156.02141820942052,64.54935536900302 156.0533919747686,64.00522938466747 155.98944444395602,63.88863083993783 155.82957561674993,63.77203225303674 155.22207407362293,63.61656740482431 154.93431018467527,63.61656740482431 153.65535956725944,64.47162314181332 153.1757530857576,64.16069404539303 153.01588425866794,64.12182788731297 152.85601543157827,64.16069404539303 152.72812036972027,64.39389089582255 152.6641728389077,64.78255193808582 152.69614660425577,67.1145083475858 152.88798919680994,67.77522626216523 153.2716743820347,68.31934588038712 153.71930709807202,68.59140534495236 154.1349660488777,68.66913657839177 154.83838888828177,68.43594282187405 155.09417901176494,67.9306891039887 155.4139166661771,67.69749481312465 155.66970678966027,67.69749481312465 156.1173395056976,68.00842049680068 156.82076234510168,67.81409197958419 157.07655246870127,67.9306891039887 157.30036882671993,68.24161456272122 157.36431635764893,68.47480845972314 157.39629012299702,68.86346457983018 157.5881327156676,68.86346457983018 158.13168672798201,68.59140534495236 159.6984012343455,67.34770306036808 161.39301080221776,66.18172780901659 163.43933178996667,64.51048925772193 164.97407253074925,63.461102481523994 170.56948148156516,59.26352120141382" stroke="#4dd2ff" stroke-linecap="round" stroke-linejoin="round" stroke-width="0.5"><title>2022-06-19 4.7km</title></polyline><polyline fill="none" points="12.25,93.70936139725382 13.259795191464946,95.331532377837 14.70235975063406,98.22511668785592 15.243321460438892,99.58421651707613 15.60396260023117,100.98715294452268 15.928539626067504,101.73246071854373 16.18098842399195,102.78465732673067 16.758014247519895,104.05605749681126 16.974398931488395,104.80135897680884 17.515360641293228,105.98506995014031 17.948130008997396,107.08109519144637 19.859528050059453,111.11443961440818 19.895592163782567,111.33364183307276 19.859528050059453,111.72820549359312 20.184105075895786,112.56117181456648 20.111976847751066,113.17493525042664 20.256233303574845,113.39413622624124 20.400489759631455,113.39413622624124 21.229964381316677,112.95573414221872 22.420080142561346,112.07892838778207 22.67252894048579,111.77204587392043 22.96104185236618,111.28980139983469 23.213490650057793,111.07059915483114 24.475734639447182,110.2814699774899 25.557658058824018,109.40465777070494 27.50512021384202,108.13327631322318 28.082146037369967,107.69486788267386 29.019813000923023,107.12493613228435 30.282056990312412,106.1165931536816 32.44590382906608,104.5383115701552 33.02292965282686,104.01221618574345 34.79007123783231,102.60929143693647 35.61954585951753,102.08319325983757 36.12444345513359,101.82014388573589 38.14403383806348,100.24184364179382 40.23575244890526,98.75122045050375 43.842163847060874,95.94532491444261 45.10440783621743,95.0246357206197 45.789626001846045,94.63005392346531 48.96326803206466,92.17486866947729 49.61242208373733,91.78028377785813 51.0189225289505,90.55268359699403 52.06478183460422,89.85119591729017 52.641807658132166,89.32507926886319 52.75,89.14970688323956 52.53361531626433,89.10586377372965 52.569679430220276,89.23739308657241 52.49755120230839,89.32507926886319 50.73040961730294,90.77189821927459 49.97306322352961,91.34185561793856 49.17965271603316,91.82412656478118 43.553650935180485,96.2083785412542 41.101291184546426,97.91822247451637 39.33414959930815,99.27732345147524 37.92764915409498,100.46105241889018 36.44902048096992,101.42556946733384 35.04252003552392,102.60929143693647 33.02292965282686,103.96837486926233 32.48196794302203,104.4506290590507 31.652493321569636,104.97672380879521 31.111531611764804,105.45897666018573 28.082146037369967,107.69486788267386 27.07235084613785,108.48400267673424" stroke="#4dd2ff" stroke-linecap="round" stroke-linejoin="round" stroke-width="0.5"><title>2022-06-17 3.0km</title></polyline><polyline fill="none" points="80.3047844056855,81.0 80.03280531178461,81.12399420485599 79.93081315164454,81.12399420485599 79.50584581738804,81.2893196716177 79.36985627037939,81.30998534378887 78.97888632293325,81.57863885455299 78.80889938928885,81.64063575871114 78.62191376229748,81.57863885455299 78.24794250814011,81.7852951145469 78.179947734694,81.8679575486749 77.80597648059484,81.99195112513553 77.70398432039656,82.0746134595247 77.4150065331487,82.13661018418497 77.07503266574349,82.28126912105654 76.97304050560342,82.28126912105654 76.75205749180168,82.4879245331831 76.46307970455382,82.57058662828058 76.3100914641982,82.69457969600626 75.98711629019817,82.85990364673489 75.74913458304945,83.06655836068967 75.54515026259469,83.2112165120925 75.13718162185978,83.3352091160632 74.50822996714851,83.72785176969774 74.1002613263554,83.9138400809461 74.0152678595623,83.9138400809461 73.84528092580149,83.99650148778164 73.70929137885105,84.09982819025754 73.62429791205795,84.22382015091716 73.62429791205795,84.3684773248824 73.72629007231444,84.57513021858176 73.84528092580149,84.98843525799748 73.93027439265279,85.09176136201131 74.13425871304935,85.56706063759339 74.23625087324763,85.73238181558554 74.32124434015714,86.06302369278274 74.37224042025628,86.10435388263431 74.40623780700844,86.29033961318783 74.62722082075197,86.60031538197654 74.6952155942563,86.86896059454011 74.86520252790069,87.1582703521417 74.86520252790069,87.19960027764319 74.96719468809897,87.36491987989575 75.01819076819811,87.57156915821542 75.1031842349912,87.73688840142859 75.15418031514855,87.96420210026554 75.22217508865288,88.02619669302658 75.42615940910764,88.3981637784891 75.18817770190071,88.50148782550241 75.01819076819811,88.52215262748359 74.66121820750413,88.62547659970005 74.28724695334677,88.85278911923524 73.55630313855363,89.14209552599641 72.67237108346308,89.6173835619411 72.45138806966133,89.67937755641469 72.06041812215699,89.8860240423819 71.41446777415695,90.09267027910391 71.17648606706643,90.25798708897491 71.09149260021513,90.44396830927872 70.97250174661167,90.50596200456494 70.97250174661167,90.67127841552428 71.00649913336383,90.79526561900275 71.07449390686816,90.81593014422106 71.17648606706643,90.9192527327832 71.22748214710737,91.18789117132837 71.29547692061169,91.2912135355291 71.4654638543143,91.7458311975206 71.61845209461171,91.99380395917979 71.66944817471085,92.22111200857034 71.82243641500827,92.55174136026471 71.82243641500827,92.63439859839855 71.92442857526476,92.77904866923927 71.83943510847166,92.92369861794577 71.75444164156215,92.92369861794577 71.29547692061169,93.08901269553462 71.17648606706643,93.19233391288435 71.09149260021513,93.212998148927 71.00649913336383,93.35764773115807 71.02349782671081,93.50229719124036 71.09149260021513,93.58495397074148 71.09149260021513,93.79159574498772 71.26147953385953,94.1015579389059 71.26147953385953,94.14288618903083 71.21048345376039,94.22554265942017 70.76851742627332,94.41151957193506 70.44554225221509,94.49417591268138 70.05457230476895,94.76280874466465 69.7655945175211,94.86612895241706 69.68060105061159,94.92812104723998 69.52761281031417,95.15542520278541 69.59560758381849,95.34140110571752 69.66360235726461,95.42405699771189 69.74859582417412,95.77534409394138 69.95258014462888,96.20928598288447 70.02057491801679,96.3952607416868 70.36054878536379,97.03583892076858 70.42854355886811,97.15982151738717 70.46254094556207,97.15982151738717 70.54753441241337,97.28380402436596 70.64952657261165,97.51110505402903 70.81951350637246,97.63508730672766 70.90450697316555,97.80039683743962 70.95550305326469,97.8417241951247 71.05749521352118,97.88305154289992 71.15948737371946,97.96570620854618 71.22748214710737,97.98636986869678 71.53345862776041,98.25499722416862 71.72044425480999,98.31698809249792 72.00942204205785,98.62694209780602 72.29839982930571,98.81291423171933 72.46838676306652,98.99888616385579 72.62137500336394,99.06087676306197 72.72336716356222,99.16419437844888 72.7403658569092,99.26751193153905 73.01234495081007,99.43281988684612 73.31832143140491,99.7427718731924 73.7602874590084,99.92874279577518 74.03226655290928,100.09405011305353 73.94727308599977,100.46599099361629 73.99826916609891,100.56930776158697 74.47423258039635,100.8999210003094 74.55922604724765,100.98257421029848 74.55922604724765,101.10655395053618 74.52522866049549,101.0858906666981 74.88220122130588,101.62313523552439 74.98419338150416,101.72645130559977 75.1201829284546,101.72645130559977 75.18817770190071,101.78844091770588 75.20517639524769,101.87109369901009 75.51115287590073,102.30502014653757 75.76613327639643,102.59430383422296 76.03811237029731,103.00756539776921 76.3100914641982,103.40016295982059 76.41208362433827,103.48281496347045 76.90504573204089,104.16469247220084 77.27901698608184,104.5986131101381 77.3300130662974,104.72259023335937 77.38100914633833,104.76391592118307 77.60199216019828,104.74325307854451 77.75498040043749,104.99120702593063 77.5849934667931,105.09452106482058 77.29601567954523,105.4044628074771 75.8001306631486,106.45826053828932 75.7151371963555,106.54091106659325 74.47423258039635,107.51205178712553 74.27024825999979,107.76000172717613 73.89627700590063,108.35921260081523 73.36931751150405,108.9997460446757 73.30132273805793,109.1237199830357 73.09733841766138,109.3303430142696 72.9953462574631,109.55762806077837 73.01234495081007,109.5369657962583 71.83943510847166,111.27258732712653 71.60145340132294,111.7271519654314 71.22748214710737,112.22303928625479 70.98950043995865,112.59495383493777 70.8705095864716,112.71892517179367 70.70052265271079,113.04951496479043 70.34355009201681,113.48341310008254 70.22455923841335,113.69003087353485 70.07157099811593,113.7933396668086 69.8505879843724,114.10326567293669 69.52761281031417,114.30988269884256 69.11964416952105,114.7851009129663 68.76267160876887,115.17767148696294 68.71167552866973,115.30164095504733 68.32070558116538,115.71487186748709 68.25271080777748,115.81817943986971 68.23571211437229,115.88016395342129 67.8107447802322,116.33471636744798 66.80782187147997,117.65704380626266 66.48484669742174,118.02894655970158 66.21286760363728,118.40084850593121 66.17887021682691,118.50415445884573 65.63491202908335,119.16531108260097 65.58391594898421,119.28927766553534 65.56691725557903,119.3512609234167 65.4309277086868,119.53721056233917 65.39693032199284,119.66117687615042 65.48192378878593,119.80580412904965 65.51592117547989,119.97109226854809 65.31193685508333,120.19836319990281 65.26094077498419,120.30166806913621 65.12495122809196,120.46695573024044 65.26094077498419,120.61158230292494 65.3459342418355,120.59092137146217 65.37993162852945,120.63224323188479 65.41392901533982,120.7355478395184 65.51592117547989,120.88017418551317 65.37993162852945,120.96281775699754 65.17594730813289,121.25206994329346 65.27793946833117,121.21074823230447 65.39693032199284,121.31405249104137 65.71990549593465,121.5 65.88989242957905,121.23140908901405 66.34885715052951,120.7355478395184 66.51884408423211,120.59092137146217 66.62083624437219,120.4049728760001 66.73982709803386,120.07439727467136 66.89281533833127,119.7644820692658 67.19879181892611,119.41324415880081 67.45377221942181,119.18597218600917 67.64075784647139,118.93803878096514 67.86174086033134,118.58679917635163 67.87873955367832,118.46283208511886 67.94673432712443,118.31820369874185 68.55868728837231,117.51241473971459 68.81366768886801,117.11984951501654 68.94965723587666,117.03720408996742 69.86758667771937,115.79751793037576 70.80251481296727,114.6404694221419 71.02349782671081,114.30988269884256 71.12548998690909,114.12392738675408 71.29547692061169,113.95863360652584 72.09441550890915,112.9462057230121 72.19640766916564,112.78091080654121 72.16241028241348,112.69826328856288 72.09441550890915,112.6156157306832 71.80543772160308,112.36767281781067 71.68644686811604,112.20237734324473 71.61845209461171,112.20237734324473 71.38047038746299,112.38833474089915 71.34647300076904,112.32634896409581 71.60145340132294,112.05774367212143 71.75444164156215,111.78913795904373 72.02642073546303,111.43788369875983 72.11141420225613,111.25192526949104 72.21340636251261,111.14861494372599 72.33239721605787,110.92133200785611 72.57037892320659,110.61140024574706 72.60437630995875,110.46676523155475 72.6383736966527,110.46676523155475 72.67237108346308,110.36345443238679 72.67237108346308,110.42544091939635 72.68936977681005,110.28080574823252 72.82535932370229,110.15683264717518 73.28432404471096,109.49564125979668 73.26732535130577,109.45431671341066 73.3353201248101,109.24769383168314 73.57330183195882,108.85510966990842 73.70929137885105,108.75179789893446 74.33824303350411,107.78066420600226 74.38923911360325,107.67735178701696 74.50822996714851,107.53271429581218 74.78020906104939,107.305426562918 75.91912151675206,106.54091106659325 76.63306663819822,105.96235653123586 76.90504573204089,105.83838030522747 77.27901698608184,105.48711384422495 77.5849934667931,105.28048617765307 77.66998693358619,105.19783504134102 78.23094381479314,104.82590443422669 78.87689416267676,104.30933280696627 79.1998693367932,104.10270372001105 79.23386672348715,104.04071494526579 79.4548497372889,103.91673732854542 79.70983013778459,103.68944479824859 80.42377525923075,103.21419580576185 80.49177003267687,103.11088063294301 80.98473214037949,102.78027166117681 81.13772038073512,102.63563003539457 81.51169163477607,102.36700954924163 83.14356619806495,101.12721723181312 83.43254398537101,100.94124761030253 83.50053875887534,100.85859438036277 83.7045230793301,100.7346144606854 84.14648910687538,100.38333753441111 84.82643684156938,99.90807936986675 85.20040809566854,99.57746421695629 86.42431401810609,98.70959640445653 87.4442356202635,97.88305154289992 87.51223039370961,97.86238787023467 88.03918988804799,97.44911389400659 88.2091768218088,97.34579524415312 88.44715852895752,97.11849399517814 88.75313500961056,96.93252002161171 88.87212586315582,96.76720965342247 89.229098423908,96.47791612514993 89.51807621115586,96.37459688955278 89.6540657581063,96.16795823133725 89.87504877184983,96.00264712532226 89.85805007850286,95.79600801838387" stroke="#4dd2ff" stroke-linecap="round" stroke-linejoin="round" stroke-width="0.5"><title>2022-06-14 5.2km</title></polyline><polyline fill="none" points="136.94843976944685,81.0 136.59859861287987,81.03543711009843 136.50530763779534,81.07087421312463 136.45866215019487,81.35437078199175 135.9922072746558,81.60242990833649 135.2692022175761,81.35437078199175 134.82607008580817,81.74417782480305 134.0564195411862,81.77961478642828 133.426705459191,81.95679948752513 133.26344625279307,82.13398401174345 132.96025058371015,82.24029464143678 132.4937957081711,82.66553652312723 132.3538592455443,83.09077738615451 132.16727729531704,83.30339743560762 130.81455815630034,83.37427072874561 130.53468523093034,83.16165076424659 130.11487584299175,83.01990397972986 129.97493938030675,82.98446726595284 129.7883574301377,83.09077738615451 129.69506645505317,83.09077738615451 129.6484209674527,83.2325241140934 129.6484209674527,83.51601723027125 129.46183901728364,84.01212909418973 129.27525706699817,84.11843859885994 128.76215670397505,84.82716700296442 128.5755747537478,84.93347601949063 127.85256969666807,84.93347601949063 127.33946933352854,84.89803968773049 126.82636897050543,84.50823957123794 126.54649604519363,84.15387508635467 126.05671842588345,83.87038298879634 125.54361806274392,83.69320019804582 125.19377690617694,83.69320019804582 124.3075126426993,83.58689043860068 123.74776679207571,83.4097073647863 123.56118484179024,83.48058061553456 123.09472996625118,83.30339743560762 122.55830685939873,83.2325241140934 122.2551111903158,83.12621407870029 121.97523826500401,83.12621407870029 121.60207436460769,82.91359381697839 120.99568302638363,82.87815708199923 120.8324238199275,82.98446726595284 120.7624555886141,82.98446726595284 120.7624555886141,82.84272033990419 120.43593717576005,82.73641007111291 120.15606425050646,82.80728359063505 119.94615955644986,82.94903054508904 119.73625486245146,83.01990397972986 119.1298635242274,82.59466294689628 118.38353572343476,82.38204204849899 117.84711261658231,82.2757315037743 117.07746207196033,82.2757315037743 116.79758914670674,82.16942089531221 116.28448878356721,82.13398401174345 115.79471116425702,81.9922364064696 115.23496531363344,81.9922364064696 113.928891662159,81.81505174074846 113.46243678661995,82.0276733184437 112.94933642348042,82.41747888256214 112.87936819216702,82.6300997385697 112.7860772170825,83.2325241140934 112.64614075439749,83.62232703220798 112.52952703554183,84.26018450602714 112.5761725231423,84.22474803988007 112.13304039137438,84.36649386222416 111.52664905315032,84.40193030015507 111.54997179692145,84.86260334895633 111.48000356566627,85.00434866180876 111.48000356566627,85.18153014374548 111.41003533429466,85.50045636556752 111.1534851526958,86.24461532123678 111.1534851526958,86.6344116243854 110.99022594629787,87.05964297856553 110.78032125235768,87.87466689347639 110.73367576475721,88.37076657464786 110.61706204590155,88.90230040844472 110.59373930207221,89.50470349597163 110.54709381458815,89.85905729823571 110.33718912058976,90.63863317311916 110.26722088921815,91.34733554263948 110.17392991413362,91.63081569829956 110.0806389390491,92.3040792531101 109.98734796384815,92.58755788068811 109.84741150127957,92.80016655422514 109.75412052613683,93.22538313717814 109.56753857590957,93.6151641101169 109.52089308842551,94.0049442272284 109.05443821288645,95.9538319731364 108.98446998157306,96.34360695460055 108.98446998157306,96.73338108009193 109.12440644414164,97.05228654619714 109.24102016305551,97.76096330827568 109.28766565065598,98.07986692813574 109.24102016305551,98.6822388691944 109.21769741934258,98.89484024267585 108.96114723774372,99.70980981529283 108.61130608111853,100.52477564614674 108.49469236220466,100.98540685197804 108.21481943695107,101.62320193277264 108.238142180664,101.72950089015649 108.1681739493506,102.33186044590548 108.238142180664,102.8279197216907 108.238142180664,102.96965068874124 108.26146492443513,103.07594883971615 108.28478766826447,103.71373640900129 108.07488297426607,104.10349435110402 108.05156023049494,104.31608923152089 108.12152846186655,104.63498107458872 108.12152846186655,104.81214296219696 108.26146492443513,105.30819530662848 108.40140138712013,105.91054271833855 108.42472413083306,106.19399961663294 108.518015106034,106.51288808614481 108.47136961843353,106.69004809940816 108.54133784980513,107.04436759554665 108.54133784980513,108.21361691500351 108.5879833373474,108.63879657625512 108.75124254380353,109.09940672658558 108.79788803128758,109.84346675225243 108.84453351888806,109.9497607871017 108.86785626265919,110.30407377672964 108.89117900637211,111.36700850246416 108.98446998157306,111.68588767903566 108.98446998157306,111.93390442030795 109.26434290682664,112.89053717645584 109.49757034459617,114.27233094509575 109.5908613196807,114.52034407270548 109.61418406351004,114.69749609455175 109.7307977823657,114.91007828744478 110.0106707077357,116.11470590499812 110.12728442653315,116.3981465093093 110.22057540161768,117.03588621452218 110.29054363298928,117.24846560701553 110.33718912058976,117.67362362840504 110.47712558327476,118.16964003305475 110.50044832698768,118.38221806797083 110.73367576475721,119.16166868461005 110.82696673984174,119.9765452153515 110.96690320252674,120.40169670306204 111.13016240898287,120.75598883163184 111.31674435915193,121.3937128810503 111.45668082183693,121.5 111.73655374714872,121.42914192791795 111.64326277206419,121.32285476654943 111.4333580780658,120.36626745137619 111.34006710298127,120.22455037357577 111.0835169214406,119.44510442395404 110.99022594629787,118.5947958483157 110.85028948367108,118.31135875129257 110.80364399612881,117.921632003985 110.64038478967268,117.56733421853278 110.57041655835928,117.17760583778727 110.50044832698768,116.96502636032528 110.50044832698768,116.85873652616283 110.38383460819023,116.4335765530268 110.22057540161768,116.07927579758689 110.03399345144862,115.47696289037412 110.0106707077357,115.12266022565018 109.9407024763641,114.87464793959225 109.8007660136791,114.62663530700956 109.6608295509941,114.27233094509575 109.68415229488164,114.02431747090304 109.63750680728117,113.7763036502729 109.68415229488164,113.67001190673909 109.63750680728117,113.2448442964087 109.68415229488164,113.03226010929211 109.68415229488164,112.60709097140352 109.70747503859457,112.25278257852187 109.61418406351004,111.86304252958507 109.61418406351004,111.72131866324344 109.6608295509941,111.65045668765379 110.47712558327476,111.33157744746131 110.92025771492627,111.33157744746131 110.9435804587556,111.29614638542989 111.2934216153808,111.22528424009215 112.34294508537278,111.26071531625348 112.41291331674438,111.15442206648004 112.36626782914391,111.11899096911657 112.41291331674438,110.87097308922966 112.38959057285683,110.69381724852428 112.31962234154344,110.4103675357619 112.22633136645891,110.23321123544883 112.10971764760325,109.24113268617657 112.13304039137438,108.63879657625512 112.1563631350873,108.42620687292947 112.10971764760325,107.9301632418501 112.22633136645891,106.40659199324728 112.20300862268778,105.87511057424126 112.2962995977723,103.99719681536953 112.27297685405938,103.82003411448386 112.27297685405938,102.43815897889726 112.17968587897485,101.94209861387208 112.13304039137438,101.65863492558128 112.06307216000278,100.59564206333016 112.08639490377391,100.24130969455291 111.96978118491825,99.35547567831236 111.94645844120532,98.57593808689853 111.68990825960645,96.83968296588864 111.66658551583532,96.3081729007099 111.59661728446372,96.0247002151882 111.59661728446372,95.81209540404961 111.48000356566627,95.10341086088738 111.34006710298127,94.81993625131145 111.24677612789674,94.07581324737112 111.24677612789674,93.54429490608163 111.1534851526958,93.11907908692956 111.03687143389834,92.94190552829241 111.06019417761127,92.72929702459078 110.9435804587556,92.3040792531101 110.80364399612881,90.95754958962789 110.87361222744221,90.92211446058354 110.80364399612881,90.42602191049082 110.61706204590155,89.8236219498649 110.57041655835928,89.29209087499476 110.61706204590155,89.15034898619342 110.59373930207221,88.37076657464786 110.68703027715674,87.34312998225505 110.75699850852834,86.91789930706727 111.1534851526958,85.74850969745603 111.17680789652513,85.53589257712883 111.10683966521174,84.86260334895633 111.27009887160966,84.75629428992397 111.27009887160966,84.68542154852184 111.41003533429466,84.33105741727923 111.54997179692145,84.15387508635467 111.82984472223325,84.11843859885994 112.27297685405938,84.26018450602714 112.24965411017183,84.2956209651893 112.66946349822683,84.01212909418973 112.69278624199796,83.48058061553456 112.80939996091183,82.87815708199923 112.83272270468296,82.6300997385697 112.9260136797675,82.38204204849899 113.36914581153542,82.06311022324371 113.74230971198995,81.85048868801096 113.9988598934724,81.81505174074846 115.98129311442608,82.06311022324371 116.42442524625221,82.16942089531221 118.59344041749137,82.3466052072763 119.01324980542995,82.45291570961126 119.47970468096901,82.66553652312723 119.89951406890759,82.52378934243461 120.29600071307505,82.52378934243461 120.80910107621457,82.66553652312723 121.06565125769703,82.59466294689628 121.74201082729269,82.66553652312723 121.97523826500401,82.66553652312723 122.11517472768901,82.66553652312723 122.34840216545854,82.84272033990419 122.86150252848165,82.80728359063505 123.93434874224477,82.87815708199923 124.56406282418175,83.0553406864492 124.86725849332288,83.2325241140934 125.56694080663146,83.33883408570546 125.94010470702779,83.51601723027125 126.28994586365297,83.76407333553652 126.42988232633797,84.01212909418973 126.56981878902297,84.08300210432208 126.7330779954209,84.26018450602714 127.03627366456203,84.50823957123794 127.31614658981562,84.64998516727064 127.8758924404392,84.68542154852184 127.9458606717526,84.82716700296442 128.80880219151732,84.86260334895633 129.04202962922864,84.93347601949063 129.13532060437137,85.03978497230855 129.48516176105477,85.35871144892008 130.06823035539128,85.6422011690156 130.27813504944788,85.81938201442244 130.8612036439008,85.99656268277613 131.23436754423892,86.2800513842958 131.25769028806826,86.24461532123678 131.51424046960892,86.2800513842958 131.81743613869185,85.96112656319747 131.91072711377637,85.99656268277613 132.09730906394543,85.67763735237531 132.0739863202325,85.25240268700873 131.95737260137685,85.00434866180876 131.98069534514798,84.86260334895633 132.0739863202325,84.79173064991483 132.51711845200043,84.82716700296442 132.82031412108336,84.75629428992397 133.40338271547807,84.47280315464013 133.98645130981458,84.50823957123794 134.03309679741506,84.43736673092644 134.66281087941024,84.57911238337692 134.66281087941024,84.33105741727923 135.10594301117817,84.01212909418973 135.15258849866223,83.79950989376812 135.17591124249157,83.0553406864492 135.08262026740704,83.2325241140934 134.96600654849317,83.30339743560762 134.96600654849317,83.2325241140934 134.82607008580817,83.33883408570546" stroke="#4dd2ff" stroke-linecap="round" stroke-linejoin="round" stroke-width="0.5"><title>2022-05-13 4.4km</title></polyline><polyline fill="none" points="179.79816063435283,81.0 175.21525632962584,81.83049312001094 178.03227090230212,94.92644578238833 176.056156202103,96.14018986426527 172.65051171858795,93.52105214621406 171.30507192271762,94.60703867973643 172.65051171858795,118.56168665620498 169.7073621650925,120.03084670062526 161.76085837045684,121.5 160.5415535555221,115.68722358168452 160.6676885362249,105.40282201321679 155.20183936553076,104.76402840422816 155.41206433356274,112.23783380843815 156.96772909758147,114.15416605075006 158.31316889356822,114.34579864391708 159.86883365758695,113.25987909917603 160.3733735808637,106.6165263572766 157.47226902109105,105.33894270975725 155.62228930171113,106.93592147208983 155.58024430798832,112.74885686195921 157.05181908491068,114.21804359459202 158.4393038743874,114.34579864391708 159.61656369583216,114.21804359459202 160.07905862561893,113.00436808267841 160.20519360643812,106.4887682220724 158.14498891902622,105.21118406445021 155.58024430798832,106.4887682220724 155.41206433356274,112.55722331264406 156.67341414222028,113.96253334300127 159.61656369583216,114.09028849433525 160.28928359376732,109.61882785067428 160.03701363201253,106.16937266092282 158.81770881684497,105.33894270975725 156.3790991868591,105.84997678096988 155.8745592633495,113.57926758323447 157.47226902109105,114.47355364219402 159.78474367025774,113.96253334300127 160.16314861283172,109.04392123466823 160.03701363201253,113.25987909917603" stroke="#4dd2ff" stroke-linecap="round" stroke-linejoin="round" stroke-width="0.5"><title>2022-05-04 3.1km</title></polyline><polyline fill="none" points="44.48301186657045,130.25313753125374 44.64858025149442,129.75 44.06909090396948,130.4418138982146 44.855540732853115,130.25313753125374 44.31744348153006,130.75627425900893 42.827328016166575,130.8820583151828 41.66834932100028,131.25941018294543 39.92988127807621,131.13362627726747 40.3851943371119,131.4480859473988 40.13684175955132,132.07700434557046 40.633546914556064,132.51724647718947 40.467978529515676,133.08327117111185 40.59215481823776,133.83796918037115 40.92329158843495,134.40399150105077 41.21303626219742,135.59892417112133 41.21303626219742,136.22783428177354 41.544173032278195,136.73096146649914 41.875309802242555,137.98877591238124 42.206446572439745,140.12704894389026 42.165054476005025,140.69305996381445 42.206446572439745,142.70553535368526 42.33062286116183,143.39732079970418 42.7445438237628,143.963325943565 41.99948609108105,145.03244399602409 40.75772320327815,145.15822235195083 40.42658643331379,144.71799788670614 40.01266547071282,144.2777728062647 39.01925516058691,143.58598929393338 38.43976581294555,143.39732079970418 37.44635550270323,142.64264569239458 36.74268986622337,142.57975601864746 36.32876890373882,143.14576263149502 36.12180842249654,143.7117682272219 36.204592615016736,144.96955479920143 36.5771214812994,146.16444739091094 36.61851357750129,146.8562252407428 36.5771214812994,148.74288438257645 36.61851357750129,150.0006508663064 36.78408196265809,151.32130026930827 36.61851357750129,153.33370776110678 36.74268986622337,153.9625824659015 36.74268986622337,154.6543431909231 36.4529451924609,155.15744094602996 36.370161000057124,156.35229489410995 36.659905673819594,157.48425761199906 36.70129777002148,158.11312403087504 36.82547405885998,158.8048756417411 36.74268986622337,159.99971575534437 36.99104244390037,161.25743729481474 37.19800292525906,162.7038108574634 37.52913969522342,163.89863618311938 37.57053179142531,164.59037508966867 37.9016685616225,165.84807830123464 37.44635550270323,167.2944307871221 36.86686615506187,167.7975083561032 36.370161000057124,168.04904683917994 35.74927955609746,168.30058512158575 35.12839811237063,168.3634696607478 34.548908764729276,168.67789216854726 32.562088144244626,168.9294299488829 29.871601887629367,169.43250490672654 29.209328347467817,169.74692634760868 28.547054807306267,169.8726948358817 27.30529191950336,170.25 26.68441047577653,170.12423166216468 26.394665801897645,169.5582735207281 26.187705320538953,168.23770056987996 25.897960646776482,167.67173903918592 25.6496080692159,166.2882732389553 25.6496080692159,165.5965380607231 25.525431780610234,164.46460449247388 25.608215973014012,163.83575075259432 25.815176454372704,160.06260195167852 25.939352743094787,159.49662573359092 25.980744839296676,158.2388971640321 25.815176454372704,157.48425761199906 25.815176454372704,156.85538993752562 25.691000165534206,156.22652100768755 25.856568550574593,154.9058921689284 25.6496080692159,154.33990668616025 25.028726625372656,154.214131996152 23.580003256443888,153.7739201861841 22.959121812484227,153.71103273445624 21.634574732161127,153.52237030444667 20.8895169995958,153.52237030444667 20.268635555752553,153.64814527035924 20.268635555752553,154.78011770514422 20.18585136323236,155.47187663492514 20.14445926703047,156.10074707123567 20.22724345943425,157.29559744158178 20.14445926703047,158.55332977735088 20.641164422035217,158.9935349083098 20.55838022963144,160.37703274434898 20.43420394079294,161.06877938410616 20.972301192232408,162.20072515419452 22.007103598560207,162.8924677890609 23.290258582448587,163.14401018887293 24.449237277847715,162.57803950709058 24.821766144013964,162.07495360262692 25.028726625372656,161.5089810001664 25.111510818009265,157.9244642369158 25.318471299135126,156.16363404577714 25.318471299135126,155.53476373493322 25.028726625372656,155.0316665825958 24.449237277847715,154.59145591506967 23.86974793020636,154.33990668616025 22.50380875368137,154.214131996152 21.84153521351982,154.46568132561515 21.303437962196767,154.78011770514422 20.8895169995958,155.28321525926003 20.641164422035217,155.7863120099064 20.55838022963144,157.0440503715945 20.641164422035217,157.67291766943526 20.599772325833328,158.86776207646471 20.51698813319672,160.12548813523608 20.641164422035217,161.5089810001664 20.972301192232408,162.07495360262692 21.51039844355546,162.64092518857797 22.0898877910804,163.01823901425814 23.414434871287085,163.14401018887293 24.573413566569798,162.95535340791685 24.863158240448684,162.4522681061644 25.070118721574545,161.7605245047016 25.194295010413043,161.06877938410616 25.194295010413043,159.68528458589572 25.277079202933237,159.0564213054604 25.235687106614932,158.49044327950105 25.318471299135126,157.9244642369158 25.277079202933237,155.97497308423044 25.152902914211154,155.408989522286 24.821766144013964,154.8430049433373 23.786963737686165,154.214131996152 23.124690197524615,154.1512446324632 21.38622215471696,154.40279401215957 20.641164422035217,155.34610239701578 20.55838022963144,156.16363404577714 20.641164422035217,158.86776207646471 20.55838022963144,159.55951203018776 20.641164422035217,160.25126046515652 20.51698813319672,160.81723532723845 20.43420394079294,161.38320917263627 20.7653407107573,161.8862961816485 21.13786957715638,162.32649665538338 21.675966828595847,162.7038108574634 22.255456176120788,163.08112460785196 22.834945523762144,163.20689575752476 23.45582696760539,163.14401018887293 24.035316315246746,163.20689575752476 24.573413566569798,162.8924677890609 25.111510818009265,161.69763864731067 25.277079202933237,158.42755676951492 25.111510818009265,155.66053789769649 24.987334529170766,155.09455377049744 24.449237277847715,154.6543431909231 23.786963737686165,154.27701934729703 22.54520084988326,154.1512446324632 21.924319406156428,154.27701934729703 21.42761425091885,154.78011770514422 20.972301192232408,155.28321525926003 20.80673280719202,155.97497308423044 20.682556518353522,157.29559744158178 20.72394861455541,157.9244642369158 20.599772325833328,159.18219406189746 20.599772325833328,159.87394332536496 20.51698813319672,160.5028049737739 20.682556518353522,161.7605245047016 20.930909095797688,162.38938238704577 21.88292730972171,163.20689575752476 22.50380875368137,163.26978131342912 24.325060989009216,163.14401018887293 24.738981951610185,162.7666965140088 24.945942432852462,162.13783938469714 25.070118721574545,160.81723532723845 25.111510818009265,160.25126046515652 25.028726625372656,159.68528458589572 25.235687106614932,159.11930768980528 25.152902914211154,157.8615776138904 25.194295010413043,158.49044327950105 25.318471299135126,159.0564213054604 25.35986339545343,160.8801213602128 25.277079202933237,161.44609509257134 25.028726625372656,162.01206780815846" stroke="#4dd2ff" stroke-linecap="round" stroke-linejoin="round" stroke-width="0.5"><title>2022-05-04 3.2km</title></polyline><polyline fill="none" points="89.48301186657045,130.25313753125374 89.64858025149442,129.75 89.06909090396948,130.4418138982146 89.85554073285311,130.25313753125374 89.31744348153006,130.75627425900893 87.82732801616658,130.8820583151828 86.66834932100028,131.25941018294543 84.92988127807621,131.13362627726747 85.3851943371119,131.4480859473988 85.13684175955132,132.07700434557046 85.63354691455606,132.51724647718947 85.46797852951568,133.08327117111185 85.59215481823776,133.83796918037115 85.92329158843495,134.40399150105077 86.21303626219742,135.59892417112133 86.21303626219742,136.22783428177354 86.5441730322782,136.73096146649914 86.87530980224255,137.98877591238124 87.20644657243975,140.12704894389026 87.16505447600503,140.69305996381445 87.20644657243975,142.70553535368526 87.33062286116183,143.39732079970418 87.7445438237628,143.963325943565 86.99948609108105,145.03244399602409 85.75772320327815,145.15822235195083 85.42658643331379,144.71799788670614 85.01266547071282,144.2777728062647 84.01925516058691,143.58598929393338 83.43976581294555,143.39732079970418 82.44635550270323,142.64264569239458 81.74268986622337,142.57975601864746 81.32876890373882,143.14576263149502 81.12180842249654,143.7117682272219 81.20459261501674,144.96955479920143 81.5771214812994,146.16444739091094 81.61851357750129,146.8562252407428 81.5771214812994,148.74288438257645 81.61851357750129,150.0006508663064 81.78408196265809,151.32130026930827 81.61851357750129,153.33370776110678 81.74268986622337,153.9625824659015 81.74268986622337,154.6543431909231 81.4529451924609,155.15744094602996 81.37016100005712,156.35229489410995 81.6599056738196,157.48425761199906 81.70129777002148,158.11312403087504 81.82547405885998,158.8048756417411 81.74268986622337,159.99971575534437 81.99104244390037,161.25743729481474 82.19800292525906,162.7038108574634 82.52913969522342,163.89863618311938 82.57053179142531,164.59037508966867 82.9016685616225,165.84807830123464 82.44635550270323,167.2944307871221 81.86686615506187,167.7975083561032 81.37016100005712,168.04904683917994 80.74927955609746,168.30058512158575 80.12839811237063,168.3634696607478 79.54890876472928,168.67789216854726 77.56208814424463,168.9294299488829 74.87160188762937,169.43250490672654 74.20932834746782,169.74692634760868 73.54705480730627,169.8726948358817 72.30529191950336,170.25 71.68441047577653,170.12423166216468 71.39466580189764,169.5582735207281 71.18770532053895,168.23770056987996 70.89796064677648,167.67173903918592 70.6496080692159,166.2882732389553 70.6496080692159,165.5965380607231 70.52543178061023,164.46460449247388 70.60821597301401,163.83575075259432 70.8151764543727,160.06260195167852 70.93935274309479,159.49662573359092 70.98074483929668,158.2388971640321 70.8151764543727,157.48425761199906 70.8151764543727,156.85538993752562 70.6910001655342,156.22652100768755 70.8565685505746,154.9058921689284 70.6496080692159,154.33990668616025 70.02872662537266,154.214131996152 68.58000325644389,153.7739201861841 67.95912181248423,153.71103273445624 66.63457473216113,153.52237030444667 65.8895169995958,153.52237030444667 65.26863555575255,153.64814527035924 65.26863555575255,154.78011770514422 65.18585136323236,155.47187663492514 65.14445926703047,156.10074707123567 65.22724345943425,157.29559744158178 65.14445926703047,158.55332977735088 65.64116442203522,158.9935349083098 65.55838022963144,160.37703274434898 65.43420394079294,161.06877938410616 65.97230119223241,162.20072515419452 67.0071035985602,162.8924677890609 68.29025858244859,163.14401018887293 69.44923727784771,162.57803950709058 69.82176614401396,162.07495360262692 70.02872662537266,161.5089810001664 70.11151081800926,157.9244642369158 70.31847129913513,156.16363404577714 70.31847129913513,155.53476373493322 70.02872662537266,155.0316665825958 69.44923727784771,154.59145591506967 68.86974793020636,154.33990668616025 67.50380875368137,154.214131996152 66.84153521351982,154.46568132561515 66.30343796219677,154.78011770514422 65.8895169995958,155.28321525926003 65.64116442203522,155.7863120099064 65.55838022963144,157.0440503715945 65.64116442203522,157.67291766943526 65.59977232583333,158.86776207646471 65.51698813319672,160.12548813523608 65.64116442203522,161.5089810001664 65.97230119223241,162.07495360262692 66.51039844355546,162.64092518857797 67.0898877910804,163.01823901425814 68.41443487128709,163.14401018887293 69.5734135665698,162.95535340791685 69.86315824044868,162.4522681061644 70.07011872157454,161.7605245047016 70.19429501041304,161.06877938410616 70.19429501041304,159.68528458589572 70.27707920293324,159.0564213054604 70.23568710661493,158.49044327950105 70.31847129913513,157.9244642369158 70.27707920293324,155.97497308423044 70.15290291421115,155.408989522286 69.82176614401396,154.8430049433373 68.78696373768616,154.214131996152 68.12469019752461,154.08835725605604 66.38622215471696,154.40279401215957 65.64116442203522,155.34610239701578 65.55838022963144,156.16363404577714 65.64116442203522,158.86776207646471 65.55838022963144,159.55951203018776 65.64116442203522,160.25126046515652 65.51698813319672,160.81723532723845 65.43420394079294,161.38320917263627 65.7653407107573,161.8862961816485 66.13786957715638,162.32649665538338 66.67596682859585,162.7038108574634 67.25545617612079,163.08112460785196 67.83494552376214,163.20689575752476 68.45582696760539,163.14401018887293 69.03531631524675,163.20689575752476 69.5734135665698,162.8924677890609 70.11151081800926,161.69763864731067 70.27707920293324,158.42755676951492 70.11151081800926,155.66053789769649 69.98733452917077,155.09455377049744 69.44923727784771,154.6543431909231 68.78696373768616,154.27701934729703 67.54520084988326,154.1512446324632 66.92431940615643,154.27701934729703 66.42761425091885,154.78011770514422 65.97230119223241,155.28321525926003 65.80673280719202,155.97497308423044 65.68255651835352,157.29559744158178 65.72394861455541,157.9244642369158 65.59977232583333,159.18219406189746 65.59977232583333,159.87394332536496 65.51698813319672,160.5028049737739 65.68255651835352,161.7605245047016 65.93090909579769,162.38938238704577 66.88292730972171,163.20689575752476 67.50380875368137,163.26978131342912 69.32506098900922,163.14401018887293 69.73898195161019,162.7666965140088 69.94594243285246,162.13783938469714 70.07011872157454,160.81723532723845 70.11151081800926,160.25126046515652 70.02872662537266,159.68528458589572 70.23568710661493,159.11930768980528 70.15290291421115,157.8615776138904 70.19429501041304,158.49044327950105 70.31847129913513,159.0564213054604 70.35986339545343,160.8801213602128 70.27707920293324,161.44609509257134 70.02872662537266,162.01206780815846" stroke="#4dd2ff" stroke-linecap="round" stroke-linejoin="round" stroke-width="0.5"><title>2022-05-04 3.2km</title></polyline><polyline fill="none" points="129.01877843192779,170.25 125.15849623200484,160.7338725051959 125.66834482434206,131.2992347572872 116.12689259438775,129.75 116.05405708122998,141.70112742178026 118.74897106993012,146.45937495690305 123.70178596768528,144.5782122084347 124.3573055868037,133.84439674435998 121.80806262465194,130.74593712665956 117.07375426613726,132.73780601189355 117.29226080561057,144.7995258042356 119.91433928115293,146.3487185011909 124.0659635339398,143.80361392709892 124.21163456025533,132.73780601189355 120.49702338664792,130.74593712665956 117.1465897790622,133.06978346349206 116.78241221327335,143.80361392709892 118.89464209624566,146.01674900212674 122.02656916389242,146.12740552413743 124.21163456025533,143.80361392709892 124.21163456025533,132.8484651844483 119.55016171513125,130.96725624531973 116.85524772643112,134.17637353288592 117.07375426613726,144.5782122084347 122.82775980955921,146.3487185011909 124.64864763943478,144.35689852409996 124.79431866598316,133.2911016540893 122.53641775646247,130.85659669729648 119.40449068881571,130.74593712665956 116.41823464701883,134.3976912817452 117.1465897790622,144.46755537719582 121.95373365096748,146.68068780144677 124.72148315259255,143.47164290383807 123.9931280205492,131.63121307062102 122.24507570359856,130.41395828334498 117.29226080561057,131.40989421700942 115.98122156807221,142.03309950532275 118.31195799051784,146.3487185011909 123.55611494160257,145.7954358922434 124.86715417914093,137.27481397552765 123.48327942821197,131.74187246413203 118.89464209624566,130.74593712665956 116.5639056735672,135.7255959189497 116.41823464701883,143.91427089087665 118.60330004338175,146.12740552413743 122.75492429616861,145.7954358922434 124.3573055868037,143.13967168185627 124.21163456025533,133.5124197564437 117.29226080561057,132.6271468170744 116.27256362093613,137.60678871019627" stroke="#4dd2ff" stroke-linecap="round" stroke-linejoin="round" stroke-width="0.5"><title>2022-03-10 3.4km</title></polyline><polyline fill="none" points="171.19063734426163,161.63130278413882 168.99455561861396,156.4414724460803 169.11656015901826,131.60362405865453 165.94444211083464,129.9353627389064 160.94225595821626,129.75 161.003258228302,140.40823727089446 163.01633314345963,143.65200004840153 166.49346254230477,143.28128544939682 167.7135079454165,141.7984240935766 168.20152610656805,132.34507160965586 164.48038762714714,130.3987692623341 161.4912763896864,132.43775247049052 161.3692718492821,141.61306609108578 165.39542167959735,143.65200004840153 167.95751702599227,141.2423498640128 167.95751702599227,131.881667029229 164.48038762714714,130.58413174244924 161.4912763896864,132.6231141362514 161.3692718492821,141.1496707610786 163.99236946599558,143.65200004840153 167.8355124858208,141.4277080144966 168.07952156639658,132.90115649611107 166.49346254230477,130.76949414805858 162.9553308733739,130.95485647997702 161.73528547026217,132.1597098330967 161.3692718492821,140.7789541640086 164.48038762714714,143.74467865176848 167.7135079454165,142.0764609585167 167.95751702599227,132.90115649611107 167.16448751394637,131.23289983911673 164.35838308697566,130.49145051144296 161.4912763896864,132.80847572805942 161.7962877403479,142.16913987661246 165.63943076017313,143.74467865176848 168.3845329170581,141.4277080144966 167.16448751394637,130.8621753231564 163.32134449435398,130.49145051144296 161.4912763896864,132.90115649611107 161.55227865977213,141.61306609108578 163.68735811510123,143.4666427859338 166.5544648123905,143.55932142629172 168.01851929631084,141.05699163943063 167.53050113492645,131.69630506719113 162.40631044190377,131.04753761808388 160.63724460732192,136.70105205941945 160.3322332566604,133.36456005915534 160.63724460732192,129.75 169.05555788893253,130.21340670844074 169.42157150967978,150.139457613579 170.7636214531958,160.05582470688387 174.6677667433396,168.8598983674019 174.05774404178374,170.25" stroke="#4dd2ff" stroke-linecap="round" stroke-linejoin="round" stroke-width="0.5"><title>2022-03-08 3.7km</title></polyline><polyline fill="none" points="42.978067293646745,181.49094895710004 42.56796681252308,180.86783695485792 44.08533859276213,181.36632665627985 43.83927830425091,179.80854369571898 45.23361994011793,179.43467462834087 44.16735868912656,178.5 43.347157726762816,180.99245945486473 44.00331849663053,178.74924684129655 43.962308448390104,180.18241231539287 40.06635387742426,180.43165781287826 39.77928354067262,181.86481556139188 40.845544791664,184.35724814407877 41.4606955134077,193.4544581572991 39.738273492548615,193.5167669005168 35.96534906583838,190.96209822490346 35.67827872897033,191.58519007399445 36.006359114078805,204.91905750031583 37.31868065369781,215.0748453750275 34.776057670474984,216.75706054430339 26.73808823968284,219.0 25.09768631507177,214.95023648324423 25.425766700063832,203.11216490756487 19.848400156130083,202.30217517720303 19.971430300502107,209.09356245447998 21.44779203273356,211.3365569821326 23.211224101833068,211.46116731662187 24.523545641452074,210.33967251543072 24.646575785824098,204.17137907541473 23.416274342336692,202.86293752220809 22.103952802484855,202.80063064483693 20.381530781742185,204.48291197020444 20.5455709741218,210.6511992532469 22.473043235600926,211.46116731662187 24.523545641452074,210.46428324774024 24.564555689459667,204.5452185117756 23.375264294212684,203.04985807990306 20.58658102224581,203.79753919132054 20.50456092611421,209.4673959952197 22.021932706353255,211.27425179613056 24.68758583383169,210.0904509011889 24.646575785824098,204.91905750031583 23.580314534716308,202.9875512396684 20.79163126286585,203.36139209399698 20.340520733618177,209.84122908796417 21.85789251397364,211.52347246510908 24.482535593328066,210.21506173320813 24.646575785824098,204.23368567915168 24.195465256576426,203.17447172291577 22.473043235600926,202.67601685246336 20.5455709741218,204.04676583048422 20.340520733618177,209.9658400194894 21.44779203273356,211.39886215567822 22.80112362059299,211.52347246510908 24.646575785824098,210.0904509011889 24.646575785824098,204.4206054158858 23.580314534716308,203.04985807990306 20.79163126286585,203.48600561261992 20.012440348626114,206.97516393320984 19.766380059882067,202.177561185963 25.58980689244345,201.74141182482708 28.255460019921884,186.41349004025687 29.362731319037266,185.9773186489183 33.54575622698758,188.22047931072302 34.61201747797895,187.72200055685244 34.89908781484701,185.60345697111916 40.394434262416326,186.0396288849588 41.87079599453136,184.7311113147589 44.65947926649824,185.4788363124535 44.331398881506175,179.80854369571898 44.00331849663053,181.30401548725786 42.44493666815106,181.1170819051331" stroke="#4dd2ff" stroke-linecap="round" stroke-linejoin="round" stroke-width="0.5"><title>2021-12-30 4.7km</title></polyline><polyline fill="none" points="84.02705767285079,219.0 79.08023501560092,206.5789417414635 80.45435242028907,179.7526243282482 71.24776580813341,178.5 71.17905993806198,191.02610825138981 73.72117713675834,193.84444125561276 76.81294129765593,193.74005882247002 78.87411740468815,191.33925711302436 79.21764675620943,181.5271703231556 76.0571767250076,179.12631253930158 72.34705973207019,180.37893536692718 71.24776580813341,190.81734223940293 74.13341235835105,193.63567636880907 76.40070607629605,193.84444125561276 78.59929392393678,191.86117146571632 79.14894088567235,181.42278543140856 76.95035303803161,179.33508321875706 72.96541256434284,179.9613947579346 70.97294232714921,190.19104370317655 73.2402360450942,193.74005882247002 77.08776477840729,193.3225288821268 79.14894088567235,191.2348741798487 79.21764675620943,182.04909446992679 76.60682368674316,179.23069788943394 71.66000102972612,180.69209060521098 71.31647167820483,191.2348741798487 74.33952996903099,193.74005882247002 78.59929392393678,191.75678863702342 79.08023501560092,181.42278543140856 75.09529454167932,178.7087709295447 71.79741277033463,180.7964756428264 71.24776580813341,191.2348741798487 73.17153017478995,193.53129389428068 78.18705870234407,192.38308529782807 79.42376436688937,182.3622487077664 78.7367056645453,180.37893536692718 75.64494150341488,179.33508321875706 72.14094212139025,181.10963063072995 71.45388341881335,191.75678863702342 73.5150595260784,193.74005882247002 77.56870587030426,193.4269113986229 78.87411740468815,191.86117146571632 79.14894088567235,182.25786398243508 77.43129412969574,179.12631253930158 71.38517754874192,179.9613947579346 71.38517754874192,192.06993706105277" stroke="#4dd2ff" stroke-linecap="round" stroke-linejoin="round" stroke-width="0.5"><title>2021-12-27 3.1km</title></polyline><polyline fill="none" points="129.07135023130104,219.0 131.42711729556322,180.9488865841995 113.57288270490244,178.5 116.052637509536,204.1188066584873 120.14423293620348,208.0745898137102 125.72368124546483,208.45133020123467 129.4433134519495,204.6839195523644 128.94736249139532,185.65826599829597 121.38411033852026,180.76051091839327 115.92864976869896,184.3396421315265 117.78846587240696,203.36532227188582 122.62398774037138,208.45133020123467 128.8233747505583,205.24903210881166 128.3274237900041,185.65826599829597 122.12803677935153,181.32563780184137 116.052637509536,184.52801708236802 118.28441683296114,205.6257736250409 124.9797548041679,208.63970033958321 129.19533797120675,205.06066129467217 128.3274237900041,186.22338994854363 122.37601226009429,181.32563780184137 118.5323923137039,181.70238886983134 115.43269880814478,186.03501533623785 116.54858847009018,204.1188066584873 122.87196322064847,207.88621956296265 129.07135023130104,205.24903210881166 128.8233747505583,186.78851356066298 121.50809807842597,181.51401335507398 115.55668654851615,185.84664068586426 116.54858847009018,203.36532227188582 122.12803677935153,207.88621956296265 127.4595096083358,207.13273818517337 129.81527667259797,201.66998020425672 128.45141153037548,185.65826599829597 120.51619615638629,181.1372622117633 116.6725762099959,182.64426588092465 115.68067428842187,186.60013906122185 116.6725762099959,204.1188066584873 124.9797548041679,209.0164405014366 129.4433134519495,202.98857985367067 128.2034360500984,184.71639199584024 123.6158896619454,181.1372622117633 118.03644135221839,181.51401335507398 114.44079688657075,188.10713400540408 116.052637509536,205.06066129467217 123.98785288259387,208.2629600262735 129.56730119185522,203.17695108160842 129.81527667259797,185.46989127324196 121.1361348577775,180.19538369652582 115.43269880814478,183.5861419517314 115.43269880814478,203.17695108160842 121.01214711787179,208.0745898137102 128.94736249139532,203.36532227188582 128.69938701065257,186.41176452307263 127.08754638768733,183.0210164221935 120.26822067657486,180.9488865841995 115.06073558749631,184.90476687141927" stroke="#4dd2ff" stroke-linecap="round" stroke-linejoin="round" stroke-width="0.5"><title>2021-12-07 3.6km</title></polyline><polyline fill="none" points="170.87664798856713,198.2643787494453 169.0994648365304,179.90405073013972 161.84855757676996,178.5 160.4978983812034,181.6321081648639 161.20877164183185,193.62035464899964 165.11857457645237,195.6723702136369 168.24641692382284,194.80836460893624 169.24163948884234,192.75634576720768 168.60185355390422,181.7401115714456 162.41725618531927,180.33606560630142 160.7111603594385,186.70824495877605 162.5594308373984,195.02436613920145 167.60663098888472,195.4563689417264 169.3838141411543,188.4362806606514 168.03315494558774,181.30809781627613 162.41725618531927,181.20009432375082 161.1376843159087,189.84030560415704 162.98595479410142,194.7003638111055 165.54509853292257,196.64437487002579 168.38859157566912,195.88837139925454 168.88620285852812,184.9802037377085 167.60663098888472,181.84811495634494 162.41725618531927,180.76808013761183 160.64007303328253,185.73622245099978 162.98595479410142,195.78037081705406 168.24641692382284,195.5643695886247 168.60185355390422,182.49613481250708 165.75836051092483,180.6600765369658 162.5594308373984,181.30809781627613 160.9244223376736,184.7641981971974 163.05704212002456,195.4563689417264 167.39336901064962,195.6723702136369 168.74402820621617,194.05235857286607 169.24163948884234,184.54819256989867 166.39814644563012,180.76808013761183 162.41725618531927,181.4161012872937 161.1376843159087,183.14415389235364 161.42203362006694,193.0803492598643 164.4077013155911,196.10437249872484 167.6777183150407,195.5643695886247 168.81511553237215,194.05235857286607 169.1705521629192,184.00817812551395 167.03793238056824,181.30809781627613 164.19443933735602,180.6600765369658 161.49312094645575,183.9001751714095 161.5642082723789,194.1603594997141 165.47401120653376,195.88837139925454 169.02837751060724,192.86434695281787 168.60185355390422,183.14415389235364 163.83900270680897,180.98408727359492 161.49312094645575,184.54819256989867 162.48834351147525,194.80836460893624 165.33183655468747,195.99637195991818 168.95729018445127,193.94435762416106 168.88620285852812,183.57616618130123 167.53554366296157,181.4161012872937 164.54987596767023,180.76808013761183 161.9907322290819,182.38813155685784 160.9244223376736,185.3042118869489 160.64007303328253,194.59236299208715 160.4978983812034,179.68804316292517 169.88142542354763,179.36403164989315 170.52121135802008,203.4483585668204 174.50210161856376,219.0" stroke="#4dd2ff" stroke-linecap="round" stroke-linejoin="round" stroke-width="0.5"><title>2021-12-06 4.4km</title></polyline><polyline fill="none" points="44.10594194813166,227.25 38.96438486990519,228.84277819143608 37.71643412287813,230.96647205823683 31.82610659650527,231.34570185656776 27.732828145846725,237.71670586511027 26.484877398819663,243.70838595039095 27.433319966425188,251.21681365650147 26.035615129745565,257.89084703836124 21.54299244005233,256.1465087218385 17.649386109085754,256.2223496848601 17.449713989626616,264.4889238771575 19.047090945765376,267.21912905041245 21.642828499898314,267.5983226613025 23.93905787472613,265.7781898762041 24.08881196414586,258.6492525038193 22.191926828585565,256.5257133851701 20.594549872446805,256.2981906327477 18.497992617078125,258.042528252583 18.148566407966428,265.7023508209677 20.29504169302527,267.75 22.641189097659662,267.5224839694274 23.889139844686724,265.7023508209677 23.93905787472613,259.1801354287891 21.493074410245754,256.5257133851701 18.39815655723214,258.1183688369347 17.84905822854489,265.17147701006616 20.594549872446805,267.674161338422 23.489795605652034,266.0815459458099 23.93905787472613,258.8767738483439 22.44151697808411,256.8290768431034 20.24512366298586,256.2223496848601 18.44807458727155,257.89084703836124 18.09864837815985,265.3989944483619 21.093730171211064,267.75 23.439877575845458,266.384901773592 23.689467725227587,258.2700499603525 20.69438593205996,256.3740315652976 18.497992617078125,258.1183688369347 18.44807458727155,264.7922809764568 19.54627124464605,266.9157738889335 21.193566230940633,267.3708065401006 23.439877575845458,266.1573849255219 23.93905787472613,258.1183688369347 21.842500619473867,256.2223496848601 20.09536957356613,257.0565992775955 18.6477467068471,258.7250929669535 18.24840246781241,261.6070193531341 17.94889428850729,257.8150064086367 25.636270890710875,255.31225713077583 28.331844504573382,238.47515160634066 31.67635250685271,235.2896693177754 38.36536851141136,233.01430847193114 44.405450127553195,234.83459823887097 41.65995848365128,231.5732395539526 45.05438451608643,228.46354589422117 47.55028601025697,228.3876993895392" stroke="#4dd2ff" stroke-linecap="round" stroke-linejoin="round" stroke-width="0.5"><title>2021-11-11 3.8km</title></polyline><polyline fill="none" points="91.61761553172255,229.07270848017652 92.79500911658397,227.68880198559782 91.95084013114683,227.25 90.04035242745886,227.31750807183562 88.28536953678122,228.498894967066 85.8417224738514,229.0389547979721 84.3311042895075,231.0304105146788 83.44250535755418,231.26668336502917 79.46602513699327,228.80267883419583 75.60061978292651,229.07270848017652 70.58003581722733,228.36387973971432 69.53593207214726,228.66766384955554 68.5140433004126,230.86164399077825 67.5587994485395,231.50295588518202 66.87013527628733,234.641973746242 68.91391281981487,247.9737120141217 68.73619303340092,259.5157857096201 71.33534490945749,267.1425716615777 68.29189356742427,267.75 67.31443474226398,265.2190341938549 64.89300265262136,253.5086059121677 62.20499088341603,248.10871158199734 62.98251494881697,247.50121267749637 64.87078767933417,247.33246259433508 68.62511816690676,248.04121181154915 67.62544436845928,238.4897225847235" stroke="#4dd2ff" stroke-linecap="round" stroke-linejoin="round" stroke-width="0.5"><title>2021-11-07 3.5km</title></polyline><polyline fill="none" points="137.63603081839392,227.25 136.60602706146892,227.32549719445524 133.44064966205042,230.98707565123914 131.20478784828447,230.23211671039462 127.86355614895001,235.25253814589814 128.0142884060624,236.6114267357043 124.17061584966723,239.10269761568634 118.97035297937691,243.78318012053205 113.06667290901532,251.5585693201865 111.78544872358907,254.84225604942185 107.89153208152857,260.39042728368076 107.51470143877668,261.8623642927996 107.94177616731031,263.7494465899945 109.62495303835021,266.0516619900882 112.68984226626344,267.4480743355816 115.22716859431239,267.75 112.33813366637332,267.52355579609866 109.07226809556596,265.4478048715973 107.99202025291743,264.01363663823577 107.36396918166429,261.9755897513387 107.69055573875085,260.57913778450165 111.81057076650904,255.03097197879106 112.11203528067563,252.95508660057385 116.00595192273613,247.40670146881894 119.54815996484831,243.17925327683042 127.88867819186999,236.23395864333725 131.00381150539033,230.0811245675286 131.65698461956345,229.89238422267954 133.41552761924686,231.13806708468474 136.85724748997018,227.36324578060885 137.4350544756162,227.32549719445524 137.00797974714078,227.70298272378568" stroke="#4dd2ff" stroke-linecap="round" stroke-linejoin="round" stroke-width="0.5"><title>2016-05-06 3.5km</title></polyline></svg>