<?xml version="1.0" encoding="utf-8" ?>
<svg baseProfile="full" height="300mm" version="1.1" viewBox="0,0,200,300" width="200mm" xmlns="http://www.w3.org/2000/svg" xmlns:ev="http://www.w3.org/2001/xml-events" xmlns:xlink="http://www.w3.org/1999/xlink"><defs /><rect fill="#222222" height="300" width="200" x="0" y="0" /><text fill="#FFFFFF" style="font-size:12px; font-family:Arial; font-weight:bold;" x="10" y="20">Over 3kms Workouts</text><text fill="#FFFFFF" style="font-size:4px; font-family:Arial" x="10" y="280">ATHLETE</text><text fill="#FFFFFF" style="font-size:9px; font-family:Arial" x="10" y="290">underwindfall</text><text fill="#FFFFFF" style="font-size:4px; font-family:Arial" x="120" y="280">STATISTICS</text><text fill="#FFFFFF" style="font-size:3px; font-family:Arial" x="120" y="285">Number: 25</text><text fill="#FFFFFF" style="font-size:3px; font-family:Arial" x="120" y="290">Weekly: 1.8</text><text fill="#FFFFFF" style="font-size:3px; font-family:Arial" x="141" y="285">Total: 96.3 km</text><text fill="#FFFFFF" style="font-size:3px; font-family:Arial" x="141" y="290">Avg: 3.9 km</text><text fill="#FFFFFF" style="font-size:3px; font-family:Arial" x="167" y="285">Min: 3.0 km</text><text fill="#FFFFFF" style="font-size:3px; font-family:Arial" x="167" y="290">Max: 5.3 km</text><polyline fill="none" points="12.103137039055582,42.23391225327214 12.15663181070704,42.277268474848825 12.138800220156554,42.34230278755422 12.049642267462332,42.103843525765114 11.871326362132095,41.973774704078096 11.83566318108933,41.9087402580044 11.942652724334039,41.43182026689465 11.88915795268258,41.215038034308236 11.799999999988358,40.954899009884684 11.871326362132095,40.8031510716537 12.566758392960764,40.43461983092129 12.79856906994246,40.261193103084224 13.672317006101366,39.87098235341546 13.86846450198209,39.84930395362608 14.04678040719591,39.9143391452526 14.242927903134841,40.02273107905057 14.421243808465078,40.23951475037029 14.724380847532302,40.86818591799238 15.223665382480249,41.58356767409714 15.437644468911458,42.21223413859843 15.812107870122418,43.01432264072355 16.079581728146877,43.64298409871117 16.1687396808411,43.98983085791406 16.240066042926628,43.98983085791406 16.489708310342394,44.68352236773353 16.668024215789046,44.965333778527565 16.792845349467825,45.31217798493162 17.07815079804277,45.875798392356955 17.18514034122927,46.1576079329534 17.61309851403348,46.76458082694444 17.77358282887144,47.15477660455508 17.93406714365119,47.76174612985051 18.700825536623597,49.452578995289514 18.789983489259612,49.951154879512615 20.23434232256841,53.13767241836467 20.697963676415384,54.24318570764444 21.125921849219594,55.110250194818946 21.14375343977008,55.26198604988167 21.14375343977008,55.52210436045425 21.35773252614308,55.868928188909194 21.393395707244053,56.085692741689854 21.339900935650803,56.302457033030805 21.411227297736332,56.38916267630702 21.464722069271374,56.43251548227272 21.643037974718027,56.367486269416986 22.463291139283683,55.73886933171889 23.08739680791041,55.30533912780811 23.533186571323313,54.915161049983 24.014639515662566,54.61168862594059 26.01177765551256,53.0943188174715 27.170831040188204,52.29227531356446 27.491799669805914,52.01047539476713 28.4903687396436,51.2517811088037 29.54243258119095,50.53643784778251 30.220033021469135,49.972832060506335 31.70005503576249,48.9106471172272 32.359823885548394,48.368713604606455 32.87694001104683,48.02187529866933 35.96180517337052,45.68069922069844 36.51458447985351,45.203789242354105 37.120858558046166,44.8135892276041 37.548816730908584,44.488421901274705 37.99460649420507,44.054864550736966 39.49246009910712,43.036000658612465 39.795597138174344,42.775864270864986 42.363346174999606,40.976577276262105 44.20000000001164,39.56748451774183 44.02168409473961,39.675876660767244 43.165767749072984,40.412941499074805 42.38117776555009,40.93322074080061 42.02454595488962,41.215038034308236 40.77633461751975,42.08216539537534 39.100165107345674,43.361170613672584" stroke="#4dd2ff" stroke-linecap="round" stroke-linejoin="round" stroke-width="0.5"><title>2022-08-16 3.6km</title></polyline><polyline fill="none" points="60.49925965524744,32.87050456191355 60.692552066990174,32.71384568850044 60.90732141328044,32.71384568850044 61.03618302103132,32.766065325558884 61.22947543265764,32.948833956048475 61.293906236533076,32.974943747831276 61.293906236533076,32.896614363082335 61.33686010574456,33.07938288328296 61.33686010574456,32.974943747831276 61.40129090973642,32.84439475752879 62.088552817935124,32.40052760150866 62.51809151051566,32.08720906084636 63.183876484050415,31.79999999998836 63.355691961129196,31.852219857508317 63.46307663433254,31.956659534946084 63.892615326913074,32.84439475752879 64.49396949657239,33.732126338160015 64.7731696467381,34.56763508723816 64.83760045061354,35.115935950598214 65.11680060089566,35.690344888789696 65.37452381639741,36.029767635583994 65.56781622802373,36.36918984995282 65.93292411672883,37.30912551123765 66.21212426712736,37.70076416511438 66.42689361330122,38.09240211022552 66.87790924066212,39.345638771614176 67.52221727953292,40.72941248724237 67.80141742969863,41.61711172146897 67.93027903756592,42.08706866532157 68.23095612239558,42.896436565279146 70.6148958663689,48.19641606703226 70.80818827811163,48.90132966937381 71.06591149361338,49.37127079528 71.08738842816092,49.55402540207433 70.980003755074,49.81510314399202 71.04443455894943,50.0239651107986 70.93704988574609,50.154503737649065 70.67932667024434,50.285042285875534 69.4336644615978,51.27713267864601 65.93292411672883,53.88787513981515 64.88055431994144,54.618877385466476 61.72344492923003,57.04683141122223 59.575751466094516,58.63934560472262 58.39452006155625,59.5791845486965 57.72873508790508,60.04910249034583 56.504549813922495,61.01504172201385 55.94614951359108,61.38053111794579 55.21593373606447,61.95487035039696 55.130025997641496,62.059295501661836 55.022641324438155,62.99911959579913 54.89377971657086,63.44292399959522 54.700487304944545,63.834515364913386 54.721964239608496,63.93893960933201 55.022641324438155,64.19999999999709 55.130025997641496,64.19999999999709 55.28036453993991,63.75619714852655 55.4092261478072,63.62566672489629 61.444244778947905,59.057052305855905 61.74492186389398,58.87430572330777 62.174460556474514,58.69155898645113 63.05501487629954,58.09110433611204 63.63489211141132,57.960570496026776 65.99735492072068,56.28973039005359 66.12621652847156,56.133088468850474 66.14769346313551,56.02866045838164 65.88997024751734,55.637054970356985 65.86849331285339,55.532626720523695 65.9114471822977,55.45430550012679 66.16917039779946,55.19323456066195 66.57723215583246,54.87994901761704 66.9638169790851,54.488341451229644 67.54369421419688,54.17505488784809 69.5195722002536,52.68693751915998 70.40012651996221,51.95592874822614 70.78671134333126,51.72096111891733 71.60283485928085,51.12048712946125 71.86055807489902,50.85941096226452 72.16123515984509,50.38947306765476 72.69815852551255,50.05007284245221 72.74111239472404,49.94564189690573 72.71963546029292,49.8412109008932 72.22566596360411,49.60624097567052 72.16123515984509,49.52791761055414 72.18271209439263,49.44959421710519 72.29009676747955,49.31905516506231 72.44043530989438,49.214623866719194 72.8055431987159,49.05797682476987 73.17065108742099,48.95354540043627 73.29951269517187,48.87522179912776 72.95588174101431,48.71857451144024 72.97735867567826,48.61414292335394 72.89145093725529,48.43138752292725 72.89145093725529,48.19641606703226 72.78406626405194,47.961444356056745 72.59077385230921,47.72647238992795" stroke="#4dd2ff" stroke-linecap="round" stroke-linejoin="round" stroke-width="0.5"><title>2022-08-01 3.2km</title></polyline><polyline fill="none" points="95.2823754963465,32.32484465063317 95.25963995652273,32.98780459782574 95.32784657587763,33.070674456466804 95.48699535429478,32.960181304995785 95.5324664338259,32.71157151936495 95.39605319511611,31.80000000000291 95.48699535429478,32.71157151936495 95.48699535429478,32.90493470916408 95.4187887350563,33.098297736025415 95.5324664338259,33.45740006763663 95.48699535429478,33.81650183699094 95.5324664338259,34.12035674120125 95.48699535429478,34.451834359395434 95.64614413282834,36.49593575223116 95.69161521235947,37.93232042739692 95.98717722936999,40.6117062625126 95.98717722936999,41.79946522829414 96.07811938854866,43.594903152188635 96.14632600790355,44.25783052545739 96.21453262725845,44.699781043222174 96.26000370678958,45.8875188404927 96.32821032602806,46.357087901225896 96.39641694538295,47.10287208079535 96.44188802491408,48.84302573702007 96.53283018409275,49.97549959704338 96.60103680344764,51.16321007774968 96.78292112157214,52.98619559689541 96.82839220121969,54.3396148696047 96.98754097963683,55.58254390268121 97.14668975793757,56.411159516865155 97.23763191711623,57.32263323558436 97.26036745694,58.48268545816245 97.23763191711623,59.697971971079824 97.05574759899173,60.940871973114554 96.78292112157214,62.01804652813007 96.64650788297877,63.26093396087526 96.623772343155,63.67522827551875 96.5555657238001,63.89618493746093 96.5555657238001,64.0342827430286 96.623772343155,64.14476092769473 96.73745004204102,64.19999999999709 98.32893782644533,63.95142406967352 99.46571481530555,63.730467460962245 99.92042561073322,63.730467460962245 101.23908691783436,63.50951063951652 101.44370677578263,63.50951063951652 103.12613671924919,63.178075008210726 104.4675335661741,63.01235701306723 104.62668234459125,62.95711765476153 104.74036004347727,62.79139949992532 104.58121126506012,63.067596358116134 102.92151686130092,63.37141251795401 101.58012001449242,63.50951063951652 100.98899598023854,63.6199890767748 98.96553294011392,63.89618493746093 98.48808660486247,64.0342827430286 97.53319393412676,64.17238046553393 96.76018558174837,64.19999999999709 96.5555657238001,64.06190229424101 96.53283018409275,63.89618493746093 96.69197896239348,62.79139949992532 96.76018558174837,62.045666322053876 97.01027651934419,61.16183126857504 97.10121867852286,60.554192694078665 97.26036745694,58.676026924847974 97.26036745694,57.98552093814942 97.1921608375851,57.074049853210454 97.12395421834663,56.659743617492495 97.05574759899173,55.996852083917474 96.87386328075081,55.03013183044095 96.66924342268612,52.682365683067474 96.60103680344764,51.16321007774968 96.39641694538295,48.59443316583929 96.39641694538295,48.06962574177305 96.28273924649693,46.96476408228045 96.26000370678958,45.83227535834885 96.16906154761091,45.417948818489094 96.12359046807978,44.78264667047188 95.9189706100151,41.440375957026845 95.94170614983886,40.4459719643346" stroke="#4dd2ff" stroke-linecap="round" stroke-linejoin="round" stroke-width="0.5"><title>2022-07-30 3.0km</title></polyline><polyline fill="none" points="125.2747649922967,64.17557872491307 125.20443558238912,64.19999999999709 125.49580028053606,64.09010421564744 126.12876496947138,63.93136565000168 126.52060025313403,63.784837522413 126.88229436113033,63.57725564548309 126.99281200522091,63.491780631331494 127.1435178835527,63.3208303867068 127.26408258621814,63.125458325208456 127.60568257712293,62.40502059155551 127.96737668506103,61.70899960922543 128.90175313077634,60.03608750944841 128.9921766577172,59.79186445358937 129.23330606304808,59.303416575159645 129.34382370713865,59.03476923794369 129.79594134213403,58.09449794596003 130.21791780146305,57.17864089261275 130.3987648554612,56.8489303259048 130.75041190488264,56.09181311031716 131.00158836873015,55.76209900533286 131.62450599920703,54.980550172324 132.0364353999612,54.40659640695958 133.24208242655732,53.06328764461068 134.52810592163587,51.52456662149052 134.9902706152061,50.86510759701923 136.29638822737616,48.85006730123132 136.51742351561552,48.48369203024049 136.57770586689003,48.25165367295995 136.59779998403974,47.958551830030046 136.57770586689003,47.56774805306486 136.57770586689003,45.674770910794905 136.58775292546488,45.5282163656957 136.63798821822274,45.345022886082006 136.69827056961367,45.16182907496841 136.7786470380379,45.039699683416984 136.88916468212847,44.94199606413895 137.07001173612662,44.856505319912685 137.28099996579112,44.844292350557225 137.44175290269777,44.880931254214374 137.61255289812107,45.05191262922017 138.37612934829667,46.0777948159739 138.59716463653604,46.309838154928 138.74787051486783,46.41975323513179 138.8583881589584,46.45639156871766 138.96890580304898,46.46860434359405 139.13970579847228,46.431966014446516 139.40092932095286,46.260986969857186 140.21474106394453,45.62591941934079 141.36010573926615,44.758801523872535 142.52556453162106,44.0138069785462 143.14848216203973,43.561922370354296 143.6608821483096,43.244380628326326 143.9221056707902,43.0611830164562 145.33874092710903,41.925350424025964 145.4492585711996,41.82764379938453 145.67029385938076,41.55895009532105 146.47405854379758,40.87499926732562 146.77547030051937,40.54523561006499 146.79556441761088,40.48416814823577 146.77547030051937,40.362033114121004 146.4941526609473,39.849064361827914 146.26307031419128,39.28723846043431 145.6200585666229,37.88266006611957 145.0473762290203,36.856694836162205 144.725870355207,36.209354281607375 144.33403507160256,35.329941613803385 144.06276449054712,34.829161541943904 143.97234096360626,34.523806623714336 143.3896115673706,33.38787824150495 143.09824686928187,32.630585571685515 142.90735275676707,32.20307914332807 142.77674099552678,31.934359892780776 142.71645864413586,31.836643624832504 142.67627040995285,31.799999999995634 142.63608217571164,31.799999999995634 142.24424689210718,32.03207606643991 142.08349395520054,32.16643565117556 142.0031174867181,32.11757764099457 141.9026469012024,32.09314862704923 141.76198808138724,32.16643565117556 141.51081161753973,32.25193711223983 141.27972927078372,32.25193711223983 140.99841163121164,32.41072534833074 140.95822339702863,32.374081931324326 140.94817633845378,32.30079505753383 140.96827045554528,32.325224021362374 140.96827045554528,32.36186745605664 140.80751751869684,32.484012142514985 140.7070469331229,32.60615668158425 140.72714105027262,33.070304585882695 140.60657634754898,33.36344953413209 140.56638811336597,33.558879028052615 140.56638811336597,33.6077363425502 140.59652928897412,33.63216499097325 140.73718810878927,33.63216499097325 140.8175645772135,33.644379312994715" stroke="#4dd2ff" stroke-linecap="round" stroke-linejoin="round" stroke-width="0.5"><title>2022-07-29 4.7km</title></polyline><polyline fill="none" points="177.22168872033944,32.36591976121417 177.27228647924494,32.26749915883556 177.35324289347045,32.205986234104785 177.68718810233986,32.095262876027846 177.7985031720018,32.095262876027846 178.1830461397185,31.898421053665516 178.32471986470046,31.83690790626133 178.4663935896824,31.799999999995634 178.57770865928615,31.824605272289773 178.73962148785358,31.923026302254584 178.91165386815555,32.132170675409725 178.99261028243927,32.25519657683617 179.17476221453398,32.62427339048736 179.24559907708317,32.734996174018306 179.38727280200692,32.993348868069006 179.54918563051615,33.44854011711868 179.68073980370536,33.669983773783315 179.76169621798908,33.87912456342019 179.80217442510184,34.088264924088435 179.98432635725476,34.43273046529066 180.13611963402946,34.64186969041475 180.34863022144418,35.20777367809933 180.50042349821888,35.42921351396217 180.64209722314263,35.69986154914659 180.80401005171007,36.191947045321285 181.1986725712777,37.17611091323488 181.2695094337687,37.45905626718741 181.39094405516516,37.79120850695472 182.56481206207536,40.37457788382744 182.6255293727154,40.63291122189548 182.7267248905846,40.90354544555157 182.73684444237733,41.01425923915667 182.7267248905846,41.10036988440697 182.76720309775556,41.21108346428082 182.75708354596281,41.23568646571948 182.5243338549044,41.432510263461154 180.98616198380478,42.576541066518985 180.40934753214242,43.03168953763816 179.51882697519613,43.659053019415296 178.90153431642102,44.16340125532588 175.63291909033433,46.59899909225351 175.07634374219924,47.05412961147522 174.5804857047624,47.398551356978714 173.83163887279807,47.95208386831655 173.6090087335906,48.14889470392518 173.43697635323042,48.34570515975065 173.14350935153197,48.800827884195314 172.90064010873903,49.12064263776119 171.63569613575237,51.05181041570904 171.24103361618472,51.605323100411624 171.08924033941003,51.82672733323125 170.85649064840982,52.06043127979501 170.55290409491863,52.306434855599946 170.29991530033294,52.626238617129275 170.04692650574725,52.90914110879385 169.51059026119765,53.61024390194507 168.74150432564784,54.54504012995312 168.54923284176039,54.86483687283908 167.9622988383635,55.59052576265822 167.74978825083235,55.885719766090915 167.52715811162489,56.2547110690939 167.31464752415195,56.68519923553686 167.18309335102094,56.9065924423121 167.08189783315174,57.15258433074632 166.96046321175527,57.373976523129386 166.85926769388607,57.61996728444501 166.6872353135841,57.939754387320136 166.62651800288586,58.136545952394954 166.5354420368094,58.35793600924808 166.37352920830017,58.6654214023074 166.26221413863823,58.91140904941858 166.08006220654352,59.1942941102825 165.68539968703408,60.018346121069044 165.5639650656376,60.227432885913004 165.52348685846664,60.227432885913004 165.42229134065565,60.17823603864963 165.3615740299574,60.23973209405085 164.67344450869132,61.58033688940486 164.53177078365115,61.814018491029856 164.45081436942564,61.998503587899904 164.30914064438548,62.14609142520203 164.26866243733093,62.26908112649107 164.19782557478175,62.37977173091349 164.1573473677272,62.52735901666165 164.02579319447977,62.67494608886773 163.9549563319888,62.92092406810116 163.83352171059232,63.09310830067989 163.6716088820831,63.277591084552114 163.35790277674096,63.53586642152368 163.20610950008268,63.64655565149587 162.8822838429478,63.818738659407245 162.58881684124935,63.92942758250865 161.97152418241603,64.02781763553503 161.63757897354662,64.12620759366109 161.23279690224444,64.19999999999709" stroke="#4dd2ff" stroke-linecap="round" stroke-linejoin="round" stroke-width="0.5"><title>2022-07-29 4.0km</title></polyline><polyline fill="none" points="28.41083886893466,85.40138076279254 28.684731448243838,85.2348935691989 29.078452031011693,85.089217142915 29.2325166069204,84.94354059363832 29.300989751704037,84.92272964800941 29.386581182770897,84.94354059363832 29.592000617238227,85.11002806850593 29.215398320695385,84.88110774915549 28.75320459314389,84.81867488207354 28.462193727551494,84.67299810428813 28.342365724151023,84.4648882082547 28.188301148242317,83.96542343327019 28.154064575850498,83.73650159468525 28.20541943452554,83.69487940958061 29.095570317236707,83.2162235587748 30.071312630956527,82.79999999998836 30.208258920698427,82.79999999998836 30.396560068940744,82.86243359788205 30.61909778957488,83.04973425582284 30.961463513725903,83.69487940958061 31.218237806810066,84.13191185232427 31.406538955052383,84.34002215010696 31.543485244736075,84.75624199233425 31.76602296542842,85.21408265868376 31.81737782410346,85.40138076279254 32.12550697574625,85.94246303213004 32.433636127447244,86.79570470019826 32.74176527920645,87.27435061711003 32.981421286123805,87.73218459909549 33.1354858619743,88.25244901249243 33.16972243436612,88.60622791718924 33.20395900681615,88.68946990696713 33.58056130335899,88.98081655483111 33.80309902399313,89.41783560381737 34.04275503085228,90.22943947145541 34.72748647915432,91.93587617301091 34.84731448267121,92.47693794356019 34.91578762739664,92.66422816108388 35.104088775697164,93.01799801696325 35.22391677915584,93.33014728728449 35.49780935846502,93.85039481583226 35.70322879293235,94.37064077531977 36.04559451708337,94.99493385542883 36.47355167224305,96.03541730128927 37.08980997570325,97.32560805790126 37.3465842687292,98.05393728819035 37.363702554954216,98.24122145034198 37.278111123945564,98.49093335030193 37.29522941011237,98.5741705699038 37.39793912740424,98.63659845832444 37.39793912740424,98.67821703797381 36.52490653080167,99.44815895127249 34.419357327511534,100.98803246825992 33.52920644474216,101.69553731339693 32.46787269989727,102.4446569277643 27.845935424091294,105.9821222678147 22.008599827764556,110.2894086020824 21.631997531163506,110.68475799814041 21.101330658770166,111.51706955481495 20.724728362227324,111.97483919943625 20.536427213985007,112.32856945662934 20.3823626380763,112.51583812267927 19.783222620899323,113.4521784040262 18.8245985932881,114.84627562986861 18.70477058988763,115.13757810500101 18.653415731270798,115.19999999999709 18.602060872595757,115.19999999999709 18.636297445045784,115.11677080167283 19.406620324298274,113.99317269487074 19.64627633121563,113.68106081106816 20.622018645051867,112.1204929225787 21.803180393239018,110.4766794815514 21.991481541481335,110.24779282351665 23.515009013877716,109.10335497818596 24.661934189731255,108.27103177685058 25.226837634574622,107.89648502622731 29.164043462020345,104.90008174668765 29.746065193030518,104.5047190940677 30.413678355165757,103.98450369705097 30.807398937875405,103.60994763985218 31.338065810326952,103.2770082396164 32.29668983782176,102.5278922396974 32.53634584473912,102.38223041749734 33.51208815845894,101.59149266513123 34.487830472236965,100.90479641337879 35.32662649638951,100.2805247214419 35.73746536532417,99.90596062189434 36.747444251552224,99.13602075196104 36.987100258411374,98.9279283053329 37.15828312042868,98.71983560764056 37.31234769633738,98.63659845832444 37.24387455149554,98.4285054091597 37.278111123945564,98.32445879049192 37.278111123945564,98.24122145034198 37.10692826187005,97.86665292267571 37.14116483432008,97.57532128330786 37.10692826187005,97.42965527910565 36.55914310330991,96.45160892231797 36.19965909293387,95.59841501848132 36.02847623085836,95.28626985290612" stroke="#4dd2ff" stroke-linecap="round" stroke-linejoin="round" stroke-width="0.5"><title>2022-07-08 4.2km</title></polyline><polyline fill="none" points="77.83444874803536,112.07231836527353 78.02861644967925,111.71823867829517 78.0528874124866,111.36415847865283 77.95580356160644,111.03958451203653 77.88299067341723,110.89205074832716 77.76163585984614,110.83303721796256 77.56746815820225,110.83303721796256 76.59662964951713,111.27563834868488 74.82484937121626,111.92478522463352 73.92682375072036,112.33787779390696 70.14055356709287,114.13777298727655 69.04836024483666,114.78691226553929 68.24741847522091,115.19999999999709 68.02897981076967,115.1704937563627 67.8590830717003,115.02296248495986 67.59210248186719,114.6098744514893 67.32512189203408,114.13777298727655 66.16011568170507,111.33465177225298 65.65042546461336,110.27240796905244 64.6553159931209,107.79382114985492 64.12135481345467,106.58402560230752 64.04854192526545,106.318459924747 64.0728128880728,106.14141597950947 64.53396117966622,105.757820325176 64.12135481345467,105.8463424526417 63.87864518642891,105.81683508041897 63.66020652197767,105.66929816557968 63.49030978279188,105.40373149476363 62.81072282686364,103.98737104526663 61.888426243676804,102.30543235577352 61.40300698927604,101.18413346845773 60.7962329214206,99.59069988838746 60.31081366701983,98.64643805196101 59.87393633835018,97.43659724468307 59.31570419576019,96.19724191795103 58.733201090595685,95.10542368692404 58.029343171743676,93.45293276628945 57.08277562586591,91.53484894208668 56.91287888691295,91.32828517119924 56.864336961414665,91.15123037152807 56.888607924222015,90.97417544361087 57.0099627377931,90.85613875385025 58.19923991081305,90.20693594109616 59.09726553130895,89.52822206659766 61.01467158587184,88.5544119120168 62.03405201993883,88.14127915941935 63.39322593214456,87.37403076681949 64.53396117966622,86.42972174751048 65.04365139675792,85.95756587000506 65.16500621032901,85.75099738688732 65.21354813571088,85.54442872924847 65.18927717301995,85.33785989708849 65.11646428494714,85.04276126262266 64.14562577626202,83.18363167457574 63.97572903719265,82.94755071529653 63.75729037274141,82.79999999998836 63.53885170829017,82.79999999998836 62.68936801329255,83.09510134154698 62.2039487590082,83.33118215842114 61.64571661653463,83.71481299947482 60.67487810784951,84.68864243103599 59.92247826361563,85.10178101796191 59.1943493821891,85.57393854821566 59.09726553130895,85.78050718091254 59.0729945685016,86.25266340028611 58.97591071773786,86.40021203184733 58.781743015977554,86.40021203184733 58.126427022740245,85.98707563908829 57.90798835817259,86.01658540462086 57.32548525300808,86.78383805714839 56.74298214784358,87.25599233887624 55.48089208663441,88.05275062161672 55.0925566831138,88.1707886649383 54.752763205207884,88.22980766510591 54.04890528647229,88.20029816680471 53.12660870316904,87.93471252133895 52.95671196409967,88.0232411018369 52.64118944888469,88.08226013780222 52.544105598004535,88.05275062161672 52.3984798216261,87.96422205181443 52.27712500805501,87.78716481587617 52.10722826910205,87.46255955038941 51.840247679152526,86.42972174751048 51.79170575377066,85.78050718091254 51.86451864184346,84.60011264302011 51.76743479107972,83.92138320303638 51.67035094019957,83.62628285885148 51.54899612662848,83.47873255315062 51.16066072322428,83.30167206873011 50.50534472987056,83.44922248135845 50.16555125184823,83.62628285885148 50.01992547546979,83.83285313725355 49.97138355020434,84.00991323689232 49.94711258739699,84.30501311802072 49.99565451289527,84.7476622719114 50.2140931772301,85.39687958122522 50.675241468823515,86.25266340028611 51.47618323843926,87.13795385391859 52.0101444182219,87.46255955038941 52.49556367250625,88.08226013780222 52.73827329976484,88.34784562299319 53.02952485228889,88.52490245277295 53.90327951009385,88.93803455714078 54.3158858763054,89.29214723373298 54.461511652567424,89.4692033797619 54.728492242400534,90.20693594109616 54.995472832233645,90.70859281136654 55.48089208663441,91.23975778734894 55.67505978839472,91.35779429199465 55.86922749003861,91.41681252290437 56.184750005370006,91.35779429199465 56.815795036032796,90.94466627651127 58.22351087350398,90.23644519726804 59.024452643236145,89.61675007003942 59.87393633835018,89.05607217294164 61.888426243676804,88.20029816680471 62.76218090148177,87.63961702132656 63.49030978279188,87.28550195120624 64.7766708068084,86.16413417864533 64.80094176949933,86.10511467972538 64.72812888142653,85.86903654150956 64.461148291477,85.54442872924847 64.19416770164389,85.45589925114473 63.29614208114799,85.75099738688732 62.64082608779427,86.04609516653 61.66998757922556,85.98707563908829 61.08748447406106,86.19364392274292 60.9904006231809,86.34119258991268 60.9175877351081,86.57727027220244 61.08748447406106,87.13795385391859 61.08748447406106,87.58059787862294 60.9904006231809,87.84618390868127 60.69914907065686,88.31833613885101 60.65060714504216,88.5544119120168 60.50498136889655,88.76097802647564 60.18945885356516,89.02656277427741 59.24289130768739,89.55773140463862 58.393407612573355,90.20693594109616 57.495381992077455,90.64957440945727 56.888607924222015,91.00368460713071 56.71871118515264,91.18073951365659 56.69444022246171,91.41681252290437 56.76725311053451,91.62337621899496 56.98569177498575,91.91846691073442 57.30121429031715,92.80373684885853 58.32059472438414,95.1349323518807 59.43705900933128,97.37758046688396 59.70403959916439,98.14479746819416 60.26227174163796,99.26611029347987 60.50498136889655,100.06282943916449 60.89331677230075,100.94806988963683 61.23311025032308,101.89232283766614 61.7670714299893,102.92509532421536 62.30103260977194,103.7218025476759 62.713638975983486,104.48899964269367 63.126245342195034,105.81683508041897 63.63593555917032,107.1446633075393 64.33979347790591,108.56100546907692 64.75239984411746,109.71177743480075 65.2863610239001,110.77402367329341 66.03876086813398,112.69195658358512 66.33001242065802,113.34109969982819 66.57272204791661,113.63616418301535 67.03387033939362,113.69517703686142 67.17949611577205,113.81320270206197 67.6649153700564,114.78691226553929 67.81054114631843,114.99345622003602 68.00470884807874,115.11148125847103 68.22314751252998,115.1409875091631 68.53867002774496,115.02296248495986 69.02408928202931,114.78691226553929 69.58232142450288,114.43283650920785" stroke="#4dd2ff" stroke-linecap="round" stroke-linejoin="round" stroke-width="0.5"><title>2022-07-05 5.3km</title></polyline><polyline fill="none" points="101.35757595376344,84.68024306438747 101.44349848252023,84.76380894889007 101.59815903415438,84.99361492328171 101.49505199975101,84.99361492328171 101.37476045952644,84.84737479305477 101.25446891936008,84.7847004137293 100.92796331015415,84.76380894889007 100.73893374699401,84.70113453926751 100.48116616078187,84.51311117442674 100.3608746206155,84.34597912308527 100.20621406892315,84.07438919557899 100.12029154016636,83.84458200114022 100.10310703446157,83.67744930445042 100.20621406892315,83.5520996760606 100.68738022976322,83.32229178832495 101.1513618848403,83.17605024641671 101.71845057443716,82.88356679202116 102.06214068928966,82.80000000000291 102.35427728696959,82.841783401047 102.54330685012974,82.92535017285263 102.62922937888652,83.00891690442222 103.04165751673281,83.71923249376414 103.72903774655424,84.65935158697539 103.91806730971439,85.3069862149423 104.12428137863753,85.64124830097717 104.27894193032989,86.05907500098692 104.39923347049626,86.62313944658672 104.46797149354825,86.72759562372812 104.70855457393918,87.2289843968756 104.86321512568975,87.45878709934186 105.85991645883769,89.52699769656465 106.04894602199784,90.2581773504935 106.63321921735769,91.61607423050737 106.75351075752405,91.99210532993311 106.83943328628084,92.47258832404623 106.9425403206842,92.72327457436768 107.18312340107514,93.18286509058089 108.1282712170505,95.2510073184385 108.40322330896743,95.94038257197826 108.95312749274308,97.0266652808059 109.14215705596143,97.5280242326553 109.15934156172443,97.67425365351664 109.14215705596143,97.7787031642365 109.262448596186,97.9876019967196 109.34837112488458,98.25917010213016 109.34837112488458,98.36361926009704 109.314002113475,98.57251738691411 109.34837112488458,98.76052548561711 109.279633101949,98.88586410465359 108.67817540094256,99.387217673735 108.02516418264713,99.8259008560417 105.3787502979394,101.87307434638205 104.05554335564375,102.77131630017539 102.21680124104023,104.19178243853094 100.06873802293558,105.7793484525464 99.34698878164636,106.3433486645954 95.13678487425204,109.45576124348736 94.05416101234732,110.3121871064941 93.60736386309145,110.81350759777706 92.5934780241223,112.23390777627355 91.73425273696193,113.50808037754905 90.65162887505721,115.19999999999709 90.72036689793458,115.15822440591 91.04687250719871,114.61514076510502 91.56240767944837,113.92583984565863 92.18104988627601,112.92321542931313 92.47318648401415,112.54722977681377 93.12619770219317,111.54459737980505 93.3839652884053,111.08505559136393 93.86513144918717,110.47929409815697 94.58688069047639,109.8944189219037 97.16455655219033,107.99356095794064 97.62853820726741,107.638453311185 98.05815085093491,107.24156743260392 99.84533944824943,106.00912653848354 100.58427319530165,105.4033472907904 102.56049135595094,103.94111279018398 102.93855048227124,103.6068860279047 103.60874620627146,103.18910166798742 104.2445729188621,102.729537707899 104.81166160845896,102.18641509194276 105.87710096454248,101.45528580361861 106.92535581503762,100.64059524617915" stroke="#4dd2ff" stroke-linecap="round" stroke-linejoin="round" stroke-width="0.5"><title>2022-07-01 3.7km</title></polyline><polyline fill="none" points="139.00434655876597,83.61732738642604 139.52257883228594,83.378940721057 139.64863533125026,83.39596835334669 139.8307169408654,83.49813410408387 139.8727357738535,83.48110648407601 140.20888643781655,83.31083017127821 140.6430810453603,82.953249245591 140.86718148796353,82.85108310038049 141.11929448589217,82.80000000000291 141.1893258742639,82.85108310038049 141.3013760955655,83.00433229043847 141.51147026044782,83.43002361181425 141.66553931479575,83.65138259145897 141.77758953603916,83.87274122388044 142.14175275532762,84.8603370458004 142.61796619585948,85.69467985433585 142.8000478054746,86.13739036186598 142.8560729161254,86.40982690690726 142.91209802677622,86.58009948056133 142.99613569275243,86.7163173914887 143.17821730236756,86.95469841930026 143.33228635665728,87.26118772060727 143.4443365780171,87.72092042444274 143.65443074289942,88.26578687486472 143.97657512925798,88.98092089866986 144.1166379058268,89.55983626381203 144.2426944047911,89.8833467571094 144.29871951544192,90.08766879186442 144.45278856973164,90.4282048590394 144.57884506869595,90.81982032049564 145.90944144671084,93.62920372832741 145.96546655741986,93.78244121497846 145.95146027969895,93.93567853525747 146.13354188931407,94.29323163555819 146.13354188931407,94.37836319263442 146.09152305632597,94.49754728625703 146.17556072230218,94.61673127919494 146.16155444469769,94.66781010248815 145.6713347264449,95.07644002354937 144.9430082879844,95.62127807800425 144.29871951544192,96.14908793757786 143.4303303002962,96.7790519605187 142.50591597449966,97.49414284955128 141.9316585903871,97.88573870596883 140.83916893263813,98.73703029789613 138.94832144811517,100.16718861428672 138.07993223296944,100.76308363614953 137.35160579450894,101.37600160563306 136.77734841033816,101.7846121066541 136.24510985909728,102.24429750653508 135.684858752531,102.60182956035715 135.5447959759622,102.72100671038788 135.34870808868436,102.80613318455289 134.8304758151644,103.23176478514506 133.94808032235596,103.87872236024123 133.65394849143922,104.06599899963476 133.4858731594286,104.21922515615006 133.28978527215077,104.47460171404236 133.03767227422213,104.88320324575761 132.58947138907388,105.4790783594508 132.25332072511083,106.02387626226118 131.93117633881047,106.43247330955637 130.33446068520425,108.88403075806855 129.77420957869617,109.58203585632145 129.1859459168627,110.12681792522199 128.84979525295785,110.48433001547528 126.14658366393996,113.94023354569799 126.03453344263835,114.21261643420439 125.97850833192933,114.46797491496545 125.89447066601133,114.63821364550677 125.82443927769782,114.94464284330024 126.02052716503385,114.99571431153163 126.13257738633547,114.87654752348317 126.14658366393996,114.79142832756042 126.16058994166087,114.82547601210536 126.23062132991618,114.8595236883848 126.3986966619268,114.67226136702811 126.4127029395313,114.67226136702811 126.4127029395313,114.70630908026942 126.46872805018211,114.70630908026942 126.48273432790302,114.72333293386328 126.46872805018211,114.7744044821884 126.11857110861456,115.19999999999709 126.16058994166087,115.18297620392696 126.13257738633547,115.18297620392696 126.14658366393996,115.14892860561667 126.44071549491491,114.79142832756042 126.55276571621653,114.58714204790886 126.65080965979723,114.48499879727024 127.0850042673992,113.97428143546858 127.40714865364134,113.51463423024688 128.24752531340346,112.44211826498213 128.4436132007395,112.15270779903221 128.70973247633083,111.8803209362377 128.93383291893406,111.5398366186273 129.35402124887332,111.0631571943959 129.886259800056,110.33111065908452 131.17483734502457,108.71378508866474 131.21685617801268,108.62866217696865 131.20284990034997,108.5435392139334 131.06278712372296,108.40734236632125 130.92272434709594,108.20304684850271 130.93673062475864,108.1008989787224 131.07679340144387,107.79445492594095 131.60903195262654,107.02834188361885 131.84713867289247,106.63677138973435 132.1692830590764,106.21115005576576 132.46341489005135,105.71742770064157 132.8836032199324,105.13857860249118" stroke="#4dd2ff" stroke-linecap="round" stroke-linejoin="round" stroke-width="0.5"><title>2022-06-30 3.9km</title></polyline><polyline fill="none" points="163.50776790082455,89.29898295548628 164.2495592588093,91.16468941408675 164.8378765428206,92.34629651941941 166.0912481478881,95.05153449487989 166.44935432064813,95.70451871788828 166.5516703701578,95.7978020432347 166.62840740720276,95.82889647758566 166.65398641943466,95.64232981560053 166.52609135769308,95.20700707897777 165.80987901205663,93.59008762048325 165.7587209874764,93.34132988040801 165.7842999995919,93.12366666091839 165.98893209849484,92.8749084706651 166.44935432064813,92.59505521983374 167.523672839161,92.06644269451499 169.08399259240832,91.3823542878672 169.5188358023297,91.13359441707144 169.56999382702634,90.91592933321954 169.54441481467802,90.69826406543143 169.13515061710496,89.76541083617485 169.00725555536337,89.42336380612687 169.0328345678281,89.20569727799739 169.13515061710496,89.01912582182558 169.31420370354317,88.86364950519055 169.80020493804477,88.58379189888365 172.23021111113485,87.37107209354872 173.33010864199605,86.74916228765505 174.6602172839921,85.69191217355547 177.7808567903703,82.9865759582317 178.113383950782,82.83109600248281 178.34359506191686,82.80000000001746 178.49706913600676,82.92438398714876 178.67612222244497,83.2664396421751 179.08538642001804,84.47917876107385 179.9550728398608,86.4382068219129 180.31317901262082,87.58874017110793 180.51781111140735,88.11736187976203 183.51055555592757,94.8649672701431 183.97097777831368,96.29531254191534 184.04771481535863,96.94829361402662 183.97097777831368,97.10376505408203 183.6896086424822,97.38361340973643 182.66644814866595,98.12987420635181 180.31317901262082,99.96442281376221 176.65538024704438,102.60739361529704 174.9671654321719,103.91332212593989 173.43242469138931,105.1881507190119 171.51399876538198,106.61843870879966 171.28378765424713,106.92936983035179 171.25820864189882,107.45795187636395 170.97683950606734,108.11090467195027 170.79778641962912,108.79494868402253 170.51641728379764,109.07478434758377 167.98409506154712,110.94034767505946 167.54925185162574,111.28236615398782 167.523672839161,111.31345872042584 167.57483086397406,111.28236615398782 167.523672839161,111.31345872042584 167.523672839161,111.28236615398782 167.57483086397406,111.28236615398782 167.523672839161,111.34455128319678 167.24230370344594,111.46892149662017 166.14240617246833,112.33951131085632 165.80987901205663,112.494973468245 165.6308259256184,112.52606588843628 165.4261938269483,112.46388104424113 164.94019259233028,112.184049059666 164.709981481079,112.12186413293239 164.32629629597068,112.09077166387578 164.0449271601392,112.15295659811818 161.28239382663742,114.14286657318007 160.89870864141267,114.48488080332754 160.36154938221443,115.10672369555687 160.1569172834279,115.20000000001164 160.003443209338,115.10672369555687 159.95228518464137,114.88907885391382 159.97786419698969,114.01849764978397 160.02902222168632,113.67648280094727 160.13133827107958,113.4588367518445 160.38712839444634,113.303375175572 161.05218271550257,113.1790058471961 161.30797283910215,113.08572881142027 161.46144691319205,112.96135937803774 161.76839506125543,112.52606588843628 162.35671234526671,112.02858671467402 162.58692345628515,111.74875425751088 162.6636604933301,111.50001404064824 162.6636604933301,110.97144028282491 162.84271357976831,110.53614343309891 162.84271357976831,110.00756769889267 162.9706086416263,109.26134128781268 162.94502962916158,109.0436915110331 162.8171345675364,108.63948429521406 162.84271357976831,108.2041835077398 162.7915555551881,108.11090467195027 162.6636604933301,108.0176258024294 162.1776592588285,107.89325392388855 161.94744814769365,107.89325392388855 160.9242876538774,108.57729851346812 160.54060246853624,108.3285552363377 160.41270740691107,108.2974623098562 160.28481234516948,108.3285552363377 160.18249629577622,108.5151127166755 160.13133827107958,108.82604155046283 160.1569172834279,110.69160667806864 160.3103913574014,111.22018100973219 160.61733950558119,111.65547670432716 160.97544567845762,111.87312427599682 161.30797283910215,111.93530926271342 161.8707111106487,111.74875425751088 162.07534320943523,111.34455128319678 162.3311333329184,111.15799585051718 162.53576543170493,111.15799585051718 162.89387160458136,111.40673639744637 163.4566098761279,111.251273583679 163.66124197491445,111.34455128319678 163.84029506135266,111.59329165017698 163.8914530860493,111.77984676780761 163.9170320983976,112.09077166387578 164.0705061724875,112.09077166387578 164.5053493824089,111.87312427599682 165.7587209874764,110.87816244829446 167.11440864170436,109.94538224721327 168.75146543199662,108.60839140618918 169.9792580245994,107.7688819852483 174.45558518532198,104.4108169611427" stroke="#4dd2ff" stroke-linecap="round" stroke-linejoin="round" stroke-width="0.5"><title>2022-06-19 4.7km</title></polyline><polyline fill="none" points="11.800000000046566,143.9674891178147 12.607836153241806,145.26522590228706 13.761887800646946,147.58009335031966 14.19465716846753,148.6673732136842 14.483170080115087,149.7897223556647 14.74283170083072,150.38596857487573 14.944790739216842,151.22772586141946 15.406411398085766,152.24484599748394 15.579519145190716,152.84108718147036 16.0122885130113,153.78805596014718 16.3585040072212,154.66487615319784 17.887622440000996,157.8915516915731 17.916473731165752,158.06691346649313 17.887622440000996,158.38256439490942 18.14728406071663,159.04893745167647 18.089581478270702,159.53994820037042 18.20498664304614,159.71530898101628 18.32039180782158,159.71530898101628 18.983971505076624,159.36458731381572 19.936064114095643,158.66314271025476 20.138023152481765,158.41763669918873 20.368833481916226,158.03184111989685 20.570792520069517,157.85647932387656 21.580587711534463,157.22517598202103 22.446126447059214,156.5237262166047 24.004096171003766,155.5066210506193 24.465716829989105,155.1558943061682 25.215850400854833,154.69994890585076 26.22564559231978,153.89327452299767 27.95672306336928,152.63064925617073 28.418343722238205,152.20977294861223 29.83205699035898,151.08743314957246 30.495636687614024,150.66655460791662 30.899554764153436,150.45611510862364 32.5152270704275,149.19347491345252 34.18860195914749,148.0009763604321 37.07373107760213,145.75625993157155 38.08352626906708,145.01970857652486 38.631700801546685,144.70404313880135 41.17061442579143,142.7398949355993 41.68993766710628,142.42422702230397 42.81513802323025,141.4421468776418 43.65182546770666,140.88095673386124 44.11344612657558,140.46006341511384 44.20000000006985,140.3197655066324 44.0268922529649,140.28469101901283 44.05574354424607,140.38991446929867 43.99804096180014,140.46006341511384 42.584327693795785,141.6175185754546 41.97845057887025,142.07348449437995 41.34372217289638,142.45930125185987 36.842920748051256,145.9667028330441 34.88103294756729,147.33457797966548 33.467319679562934,148.42185876119765 32.34211932332255,149.3688419351529 31.15921638486907,150.14045557388454 30.03401602851227,151.08743314957246 28.418343722238205,152.17469989546225 27.985574354417622,152.5605032472813 27.321994657162577,152.98137904706527 26.88922528945841,153.3671813281835 24.465716829989105,155.1558943061682 23.65788067691028,155.7872021414223" stroke="#4dd2ff" stroke-linecap="round" stroke-linejoin="round" stroke-width="0.5"><title>2022-06-17 3.0km</title></polyline><polyline fill="none" points="66.24382752453675,133.79999999998836 66.02624424936948,133.89919536387606 65.94465052126907,133.89919536387606 65.60467665386386,134.03145573729125 65.49588501628023,134.04798827502236 65.18310905830003,134.26291108362784 65.0471195114078,134.3125086069631 64.89753100980306,134.26291108362784 64.59835400647717,134.42823609162588 64.54395818774356,134.49436603892536 64.24478118441766,134.5935609001026 64.16318745631725,134.65969076761394 63.932005226495676,134.70928814733634 63.660026132536586,134.82501529682486 63.57843240443617,134.82501529682486 63.40164599340642,134.99033962652902 63.17046376358485,135.05646930262446 63.048073171346914,135.15566375679919 62.78969303210033,135.287922917385 62.59930766641628,135.453246688543 62.436120210040826,135.56897320966527 62.10974529746454,135.66816729283892 61.60658397368388,135.98228141575237 61.28020906104939,136.13107206474524 61.212214287603274,136.13107206474524 61.076224740594625,136.19720119021076 60.9674331030692,136.2798625521973 60.89943832962308,136.3790561207279 60.89943832962308,136.49478185988846 60.981032057781704,136.66010417485086 61.076224740594625,136.99074820638634 61.14421951409895,137.07340908960032 61.307406970416196,137.45364851005434 61.38900069857482,137.5859054524626 61.45699547207914,137.85041895421455 61.497792336158454,137.8834831060958 61.52499024558347,138.0322716905357 61.70177665655501,138.2802523055725 61.75617247540504,138.49516847562336 61.89216202229727,138.72661628171045 61.89216202229727,138.75968022210873 61.973755750455894,138.89193590389914 62.014552614535205,139.05725532656652 62.08254738798132,139.18951072113123 62.12334425206063,139.37136168019788 62.17774007091066,139.4209573544067 62.34092752728611,139.71853102277964 62.150542161485646,139.80119026039029 62.014552614535205,139.81772210197232 61.728974565980025,139.9003812797455 61.42979756265413,140.08223129538237 60.84504251083126,140.3136764207884 60.13789686671225,140.69390684954124 59.9611104556825,140.74350204512302 59.64833449770231,140.9088192338968 59.13157421926735,141.07413622326567 58.941188853641506,141.20638967117702 58.87319408013718,141.35517464741133 58.77800139726605,141.40476960364322 58.77800139726605,141.53702273241652 58.805199306691065,141.6362124951993 58.85959512548288,141.65274411535938 58.941188853641506,141.735402186212 58.98198571766261,141.95031293704233 59.036381536512636,142.03297082841164 59.17237108340487,142.39666495801066 59.2947616756428,142.59504316732637 59.335558539722115,142.77688960684463 59.45794913201826,143.0413930881914 59.45794913201826,143.1075188787072 59.53954286017688,143.2232389353885 59.47154808673076,143.33895889433916 59.40355331322644,143.33895889433916 59.036381536512636,143.47121015640732 58.941188853641506,143.55386713029293 58.87319408013718,143.57039851913578 58.805199306691065,143.686118184909 58.818798261345364,143.80183775298065 58.87319408013718,143.86796317658445 58.87319408013718,144.03327659597562 59.00918362708762,144.28124635110726 59.00918362708762,144.31430895121593 58.96838676300831,144.3804341275245 58.61481394094881,144.52921565753059 58.35643380176043,144.5953407301422 58.04365784378024,144.810246995723 57.81247561395867,144.8929031619191 57.74448084051255,144.94249683778617 57.62209024821641,145.1243401622196 57.676486067066435,145.2731208845653 57.730881885800045,145.33924559815205 57.79887665930437,145.62027527514147 57.96206411567982,145.9674287862872 58.016459934355225,146.11620859334653 58.28843902825611,146.62867113661196 58.34283484710613,146.72785721390392 58.37003275641473,146.72785721390392 58.43802752986085,146.82704321948404 58.51962125807768,147.0088840432145 58.655610805086326,147.1080698453734 58.72360557853244,147.24031746994297 58.764402442611754,147.27337935609103 58.84599617077038,147.3064412343083 58.927589898929,147.37256496683403 58.98198571766261,147.3890958949487 59.22676690219669,147.60399777932616 59.376355403801426,147.6535904739867 59.607537633623,147.901553678239 59.83871986344457,148.05033138536965 59.974709410453215,148.1991089310759 60.09710000269115,148.24870141044084 60.178693730791565,148.3313555027562 60.19229268550407,148.41400954523124 60.409875960613135,148.54625590947398 60.654657145089004,148.79421749853645 61.00822996714851,148.9429942366114 61.22581324231578,149.07524009043118 61.157818468811456,149.37279279487848 61.19861533289077,149.4554462092492 61.57938606431708,149.71993680023297 61.6473808378214,149.78605936822714 61.6473808378214,149.8852431604173 61.62018292839639,149.86871253335266 61.90576097700978,150.29850818841078 61.9873547051684,150.38116104446817 62.096146342752036,150.38116104446817 62.150542161485646,150.4307527341589 62.16414111619815,150.49687495920807 62.40892230073223,150.84401611721842 62.61290662107058,151.07544306736963 62.83048989623785,151.4060523181979 63.048073171346914,151.72013036784483 63.12966689944733,151.78625197077054 63.52403658564435,152.33175397774903 63.82321358885383,152.67889048809593 63.86401045299135,152.77807218667294 63.90480731707066,152.81113273692608 64.08159372815862,152.79460246281815 64.20398432033835,152.9929656207387 64.06799477338791,153.07561685184191 63.836812543624546,153.32357024596422 62.64010453049559,154.16660843061982 62.572109757049475,154.23272885326878 61.57938606431708,155.00964142970042 61.41619860799983,155.20800138173217 61.11702160467394,155.68737008064636 60.695454009168316,156.19979683573183 60.641058190434705,156.298975986414 60.47787073411746,156.46427441140986 60.39627700595884,156.64610244860523 60.409875960613135,156.62957263700082 59.47154808673076,158.01806986168958 59.28116272104671,158.38172157232475 58.98198571766261,158.77843142898928 58.79160035197856,159.07596306793857 58.69640766916564,159.17514013743494 58.56041812215699,159.43961197182944 58.27484007360181,159.78673048004566 58.17964739073068,159.95202469882497 58.05725679843454,160.03467173343233 57.88047038746299,160.28261253834353 57.62209024821641,160.44790615906822 57.295715335640125,160.82808073036722 57.01013728696853,161.1421371895558 56.96934042288922,161.24131276403205 56.656564464909025,161.57189749398094 56.60216864623362,161.6545435518783 56.58856969146291,161.7041311627254 56.24859582411591,162.06777309394965 55.44625749712577,163.1256350449985 55.187877357937396,163.42315724775835 54.97029408288654,163.72067880473332 54.94309617346153,163.80332356705912 54.5079296232434,164.3322488660633 54.46713275916409,164.43142213241663 54.45353380445158,164.4810087387159 54.34474216692615,164.62976844985678 54.31754425755935,164.72894150091452 54.385539031005464,164.84464330322226 54.41273694037227,164.97687381482683 54.249549484055024,165.1586905599106 54.20875261997571,165.2413344552915 54.099960982450284,165.3735645841807 54.20875261997571,165.48926584233413 54.276747393480036,165.47273709715228 54.30394530284684,165.50579458549328 54.33114321221365,165.58843827160308 54.41273694037227,165.70413934839598 54.30394530284684,165.7702542055922 54.14075784647139,166.00165595462022 54.22235157463001,165.9685985858232 54.31754425755935,166.05124199282727 54.575924396689516,166.1999999999971 54.711913943639956,165.9851272711967 55.07908572041197,165.58843827160308 55.21507526736241,165.47273709715228 55.296668995462824,165.32397830078844 55.39186167839216,165.05951781972544 55.514252270630095,164.81158565540682 55.759033455105964,164.530595327029 55.96301777550252,164.34877774878987 56.11260627716547,164.1504310247692 56.28939268825343,163.86943934106966 56.30299164290773,163.77026566809218 56.357387461699545,163.65456295898184 56.84694983070949,163.00993179176294 57.05093415110605,162.6958796120016 57.159725788689684,162.6297632719652 57.8940693421755,161.6380143442948 58.64201185031561,160.71237553769606 58.818798261345364,160.44790615906822 58.90039198950399,160.2991419093887 59.036381536512636,160.16690688522067 59.67553240712732,159.35696457840095 59.757126135285944,159.22472864523297 59.72992822591914,159.15861063083867 59.67553240712732,159.092492584532 59.44435017724754,158.8941382542398 59.34915749449283,158.76190187457541 59.2947616756428,158.76190187457541 59.10437630995875,158.91066779270477 59.07717840059195,158.86107917127083 59.28116272104671,158.6461949376826 59.40355331322644,158.43131036723207 59.6211365883355,158.15030695899623 59.68913136178162,158.0015402155841 59.77072508999845,157.91889195496333 59.86591777281137,157.73706560627033 60.05630313855363,157.48912019659474 60.08350104797864,157.37341218523216 60.11069895728724,157.37341218523216 60.13789686671225,157.2907635458978 60.13789686671225,157.34035273551126 60.15149582142476,157.2246445985802 60.26028745895019,157.12546611772268 60.6274592357222,156.5965130078257 60.61386028100969,156.5634533707198 60.66825609980151,156.3981550653407 60.85864146554377,156.0840877359151 60.9674331030692,156.00143831914465 61.47059442679165,155.22453136478725 61.51139129087096,155.14188142960484 61.60658397368388,155.0261714366352 61.824167248851154,154.84434125032567 62.73529721336672,154.23272885326878 63.30645331053529,153.76988522497413 63.52403658564435,153.67070424417034 63.82321358885383,153.38969107536832 64.06799477338791,153.2243889421079 64.13598954683403,153.15826803306118 64.58475505182287,152.86072354736098 65.10151533014141,152.44746624556137 65.359895469388,152.2821629760001 65.3870933787548,152.2325719562068 65.56387978978455,152.1333898628218 65.76786411018111,151.95155583859014 66.33902020734968,151.57135664460657 66.3934160261415,151.4887045063515 66.78778571228031,151.2242173289269 66.91017630457645,151.10850402830692 67.20935330778593,150.89360763938748 68.51485295844031,149.90177378544468 68.74603518832009,149.75299808822456 68.8004310070537,149.6868755042815 68.96361846342916,149.58769156853668 69.31719128548866,149.30667002752307 69.86114947323222,148.92646349588176 70.1603264764999,148.6619713735563 71.13945121446159,147.96767712355359 71.95538849622244,147.3064412343083 72.00978431489784,147.28991029618192 72.43135191046167,146.95929111519945 72.56734145741211,146.87663619531668 72.75772682315437,146.69479519613378 73.00250800768845,146.54601601728064 73.09770069050137,146.41376772272633 73.38327873911476,146.1823329001054 73.61446096893633,146.09967751162185 73.72325260646176,145.93436658506107 73.90003901749151,145.80211770023743 73.886440062779,145.63680641469546" stroke="#4dd2ff" stroke-linecap="round" stroke-linejoin="round" stroke-width="0.5"><title>2022-06-14 5.2km</title></polyline><polyline fill="none" points="111.55875181558076,133.79999999999563 111.27887889032718,133.82834968806856 111.20424611022463,133.85669937048806 111.16692972020246,134.08349662558612 110.79376581974793,134.28194392666046 110.21536177408416,134.08349662558612 109.86085606866982,134.39534225984244 109.24513563298387,134.42369182913535 108.74136436742265,134.56543959001283 108.61075700225774,134.70718720938748 108.36820046696812,134.79223571313923 107.9950365665718,135.1324292184945 107.88308739650529,135.47262190891342 107.7338218363002,135.64271794848173 106.6516465250752,135.6994165829965 106.42774818476755,135.5293206113929 106.09190067445161,135.4159231837766 105.97995150426868,135.38757381275354 105.8306859441218,135.47262190891342 105.75605316407746,135.47262190891342 105.71873677399708,135.58601929126598 105.71873677399708,135.8128137842068 105.56947121385019,136.2097032753445 105.4202056536451,136.29475087907485 105.00972536322661,136.86173360236717 104.86045980302151,136.94678081558231 104.28205575735774,136.94678081558231 103.87157546688104,136.91843175017857 103.46109517646255,136.60659165698598 103.23719683615491,136.3231000690721 102.8453747407184,136.09630639103125 102.4348944502417,135.9545601584323 102.15502152498811,135.9545601584323 101.44601011415944,135.86951235087326 100.99821343371877,135.72776589182467 100.84894787345547,135.78446449241892 100.47578397305915,135.64271794848173 100.04664548754226,135.58601929126598 99.80408895225264,135.50097126294713 99.58019061206141,135.50097126294713 99.28165949170943,135.3308750535798 98.79654642113019,135.3025256655892 98.66593905596528,135.38757381275354 98.60996447090292,135.38757381275354 98.60996447090292,135.27417627191608 98.34874974063132,135.18912805688888 98.1248514004401,135.24582687249494 97.95692764519481,135.3592244360625 97.78900389000773,135.4159231837766 97.30389081942849,135.0757303575083 96.70682857878273,134.90563363879482 96.27769009332405,134.82058520301507 95.6619696575799,134.82058520301507 95.43807131738868,134.7355367162454 95.02759102685377,134.70718720938748 94.63576893147547,134.59378912516695 94.1879722509766,134.59378912516695 93.14311332977377,134.45204139259295 92.76994942931924,134.62213865475496 92.35946913884254,134.93398310603516 92.30349455378018,135.10407979084994 92.22886177367764,135.58601929126598 92.11691260355292,135.89786162575183 92.02362162846839,136.4081476048159 92.06093801854877,136.37979843189532 91.70643231313443,136.4931950897735 91.22131924255518,136.5215442401095 91.23997743753716,136.89008267916506 91.18400285253301,137.00347892943682 91.18400285253301,137.1452241149891 91.12802826747065,137.40036509244965 90.9227881222032,137.99569225697633 90.9227881222032,138.30752929949813 90.7921807570383,138.64771438284515 90.62425700190943,139.2997335147811 90.58694061182905,139.69661325971538 90.49364963680273,140.12184032675577 90.47499144170433,140.6037627967671 90.43767505168216,140.8872458385813 90.26975129649509,141.5109065384895 90.21377671143273,142.0778684340985 90.13914393133018,142.30465255863965 90.06451115128584,142.84326340247935 89.98987837112509,143.0700463045432 89.87792920105858,143.24013324337284 89.80329642089782,143.58030650972796 89.65403086080914,143.89213128808478 89.61671447078697,144.20395538178127 89.24355057033245,145.76306557851058 89.18757598527009,146.07488556367025 89.18757598527009,146.38670486406772 89.2995251553366,146.64182923694898 89.39281613047933,147.2087706466191 89.43013252055971,147.46389354250277 89.39281613047933,147.94579109534243 89.37415793549735,148.11587219413195 89.1689177902299,148.76784785222844 88.8890448649181,149.41982051690866 88.79575388977537,149.78832548156788 88.57185554958414,150.29856154620938 88.59051374456612,150.38360071212082 88.53453915950377,150.8654883567142 88.59051374456612,151.2623357773482 88.59051374456612,151.3757205509828 88.6091719395481,151.4607590717642 88.6278301346465,151.9709891271923 88.45990637945943,152.28279548087448 88.44124818441924,152.45287138521235 88.4972227694816,152.70798485966225 88.4972227694816,152.8497143697532 88.6091719395481,153.2465562452926 88.72112110973103,153.72843417466356 88.73977930471301,153.95519969330053 88.81441208487377,154.21031046890857 88.77709569479339,154.35203847951925 88.83307027985575,154.63549407642859 88.83307027985575,155.57089353199262 88.87038666993612,155.9110372609939 89.00099403510103,156.27952538126556 89.03831042506499,156.87477340179612 89.07562681514537,156.95980862967554 89.09428501012735,157.24325902137207 89.11294320516754,158.0936068019655 89.18757598527009,158.34871014322562 89.18757598527009,158.54712353623472 89.41147432551952,159.31242974115594 89.59805627568858,160.41786475606932 89.67268905579112,160.61627525815857 89.69134725083131,160.75799687563995 89.78463822591584,160.92806262994418 90.00853656622348,161.89176472399413 90.1018275412498,162.1185172074329 90.17646032135235,162.6287089716061 90.23243490641471,162.7987724856066 90.26975129649509,163.1388989027182 90.3817004666198,163.53571202643798 90.40035866166,163.70577445437084 90.58694061182905,164.32933494768804 90.6615733919316,164.98123617227247 90.77352256205631,165.32135736244527 90.90412992722122,165.60479106529237 91.0533954873681,166.11497030483588 91.16534465749282,166.1999999999971 91.38924299774226,166.14331354232854 91.31461021769792,166.05828381323226 91.14668646251084,165.29301396109076 91.0720536824083,165.17964029884752 90.86681353719905,164.5560835391516 90.7921807570383,163.87583667864965 90.68023158697179,163.64908700102387 90.64291519689141,163.3373056031851 90.51230783178471,163.0538673748233 90.45633324672235,162.74208467022254 90.40035866166,162.57202108825004 90.40035866166,162.48698922091717 90.30706768657546,162.14686124241416 90.17646032135235,161.8634206380666 90.02719476120546,161.3815703122891 90.00853656622348,161.09812818051432 89.95256198116113,160.89971835166943 89.8406128109782,160.701308245596 89.72866364085348,160.41786475606932 89.74732183595188,160.21945397671516 89.7100054458715,160.0210429202125 89.74732183595188,159.93600952537963 89.7100054458715,159.59587543711677 89.74732183595188,159.42580808743514 89.74732183595188,159.08567277712427 89.76598003093386,158.80222606280586 89.69134725083131,158.49043402366078 89.69134725083131,158.37705493059184 89.72866364085348,158.32036535011866 90.3817004666198,158.06526195795595 90.73620617197594,158.06526195795595 90.75486436707433,158.0369171083439 91.03473729232792,157.98022739207227 91.8743560683215,158.00857225299842 91.93033065338386,157.92353765317966 91.89301426336169,157.89519277528598 91.93033065338386,157.6967784713779 91.91167245834367,157.55505379880924 91.85569787328131,157.32829402860807 91.78106509317877,157.18656898834888 91.68777411815245,156.39290614893252 91.70643231313443,155.9110372609939 91.72509050811641,155.74096549833484 91.68777411815245,155.3441305934757 91.78106509317877,154.1252735945891 91.76240689819679,153.7000884593872 91.83703967824113,152.1977574522898 91.81838148325915,152.05602729158272 91.81838148325915,150.9505271831149 91.7437487032148,150.55367889109039 91.70643231313443,150.3269079404563 91.65045772807207,149.47651365066122 91.66911592305405,149.19304775563796 91.57582494796952,148.4843805426499 91.55716675298754,147.8607504695101 91.35192660772009,146.47174637269927 91.3332684126799,146.0465383205592 91.27729382761754,145.81976017214038 91.27729382761754,145.64967632322805 91.18400285253301,145.08272868869972 91.0720536824083,144.85594900103752 90.99742090236396,144.26065059789835 90.99742090236396,143.83543592485512 90.9227881222032,143.49526326953492 90.82949714711867,143.35352442262229 90.84815534210065,143.1834376196639 90.75486436707433,142.84326340247935 90.64291519689141,141.7660396716965 90.69888978201197,141.7376915684581 90.64291519689141,141.34081752838392 90.49364963680273,140.8588975598832 90.45633324672235,140.43367269998998 90.49364963680273,140.32027918894892 90.47499144170433,139.69661325971538 90.54962422174867,138.87450398580404 90.60559880686924,138.5343194456509 90.9227881222032,137.59880775795318 90.9414463173016,137.42871406169434 90.88547173218103,136.89008267916506 91.01607909734594,136.80503543192754 91.01607909734594,136.74833723881602 91.12802826747065,136.46484593382047 91.23997743753716,136.3231000690721 91.4638757778448,136.29475087907485 91.81838148325915,136.4081476048159 91.79972328821896,136.43649677214125 92.13557079859311,136.2097032753445 92.1542289936333,135.78446449241892 92.24751996877603,135.3025256655892 92.26617816375801,135.10407979084994 92.34081094386056,134.90563363879482 92.6953166492749,134.65048817859497 92.99384776962688,134.4803909504044 93.19908791483613,134.45204139259295 94.78503449162235,134.65048817859497 95.1395401970367,134.7355367162454 96.87475233402802,134.87728416581376 97.21059984434396,134.96233256768755 97.58376374479849,135.1324292184945 97.91961125511443,135.0190314739375 98.2368005705066,135.0190314739375 98.6472808609833,135.1324292184945 98.85252100619255,135.0757303575083 99.39360866183415,135.1324292184945 99.58019061206141,135.1324292184945 99.69213978218613,135.1324292184945 99.8787217324134,135.27417627191608 100.28920202283189,135.24582687249494 101.14747899380745,135.3025256655892 101.65125025942689,135.44427254915354 101.8938067946583,135.58601929126598 102.4535526453401,135.67106726855127 102.75208376569208,135.8128137842068 103.03195669094566,136.0112586684263 103.14390586112859,136.2097032753445 103.2558550312533,136.2664016834533 103.38646239636,136.4081476048159 103.62901893164963,136.60659165698598 103.85291727189906,136.7199881338165 104.30071395239793,136.74833723881602 104.35668853746029,136.86173360236717 105.04704175324878,136.89008267916506 105.23362370341783,136.94678081558231 105.30825648352038,137.03182797783666 105.58812940889038,137.28696915913315 106.05458428437123,137.51376093520958 106.2225080395583,137.65550561153213 106.68896291515557,137.79725014620635 106.98749403544934,138.02404110742646 107.00615223048953,137.99569225697633 107.21139237569878,138.02404110742646 107.4539489109884,137.7689012505507 107.52858169109095,137.79725014620635 107.67784725117963,137.54210988189152 107.65918905619765,137.20192214959388 107.56589808111312,137.00347892943682 107.58455627615331,136.89008267916506 107.65918905619765,136.83338451992313 108.01369476161199,136.86173360236717 108.25625129690161,136.80503543192754 108.72270617238246,136.57824252369755 109.18916104792152,136.60659165698598 109.2264774380019,136.54989338473388 109.73024870356312,136.66328990669717 109.73024870356312,136.46484593382047 110.08475440897746,136.2097032753445 110.12207079894142,136.0396079150014 110.14072899403982,135.44427254915354 110.06609621399548,135.58601929126598 109.97280523885274,135.64271794848173 109.97280523885274,135.58601929126598 109.86085606866982,135.67106726855127" stroke="#4dd2ff" stroke-linecap="round" stroke-linejoin="round" stroke-width="0.5"><title>2022-05-13 4.4km</title></polyline><polyline fill="none" points="145.83852850762196,133.8000000000029 142.17220506386366,134.46439449602622 144.4258167219814,144.94115662590775 142.84492496179882,145.91215189141803 140.1204093749402,143.81684171696543 139.04405753826723,144.6856309438008 140.1204093749402,163.8493493249698 137.76588973228354,165.02467736050312 131.40868669643532,166.1999999999971 130.4332428445341,161.54977886535926 130.53415082907304,153.3222576105909 126.16147149249446,152.81122272337961 126.32965146692004,158.79026704675925 127.57418327813502,160.32333284060587 128.65053511492442,160.47663891514821 129.8950669261394,159.607903279335 130.29869886487722,154.29322108584165 127.97781521698926,153.27115416781453 126.49783144146204,154.5487371776835 126.46419544646051,159.19908548955573 127.64145526802167,160.37443487568817 128.7514430996962,160.47663891514821 129.6932509567123,160.37443487568817 130.063246900565,159.40349446613982 130.16415488533676,154.19101457766374 128.51599113538396,153.16894725155726 126.46419544646051,154.19101457766374 126.32965146692004,159.0457786501065 127.3387313139392,160.17002667440102 129.6932509567123,160.2722307954682 130.231426875107,156.6950622805307 130.02961090567987,153.93549812874699 129.05416705366224,153.27115416781453 127.10327934962697,153.67998142477882 126.69964741077274,159.8634140665963 127.97781521698926,160.57884291376104 129.82779493625276,160.17002667440102 130.13051889045164,156.23513698774332 130.02961090567987,159.607903279335" stroke="#4dd2ff" stroke-linecap="round" stroke-linejoin="round" stroke-width="0.5"><title>2022-05-04 3.1km</title></polyline><polyline fill="none" points="181.58640949323308,134.202510025003 181.71886420121882,133.8000000000029 181.2552727231523,134.35345111857168 181.88443258637562,134.202510025003 181.45395478524733,134.60501940721588 180.2618624130264,134.70564665214624 179.33467945689335,135.00752814635052 177.94390502257738,134.9069010218227 178.3081554697128,135.15846875790157 178.10947340761777,135.66160347645928 178.50683753169142,136.0137971817312 178.37438282370567,136.46661693687201 178.47372385463677,137.07037534427946 178.7386332708411,137.52319320084644 178.97042900987435,138.47913933689415 178.97042900987435,138.98226742542465 179.23533842584584,139.3847691731935 179.50024784181733,140.391020729905 179.76515725802165,142.1016391551093 179.7320435808506,142.5544479710661 179.76515725802165,144.16442828293657 179.86449828895275,144.71785663976334 180.19563505903352,145.17066075484036 179.59958887286484,146.02595519681927 178.60617856262252,146.1265778815432 178.34126914665103,145.77439830936783 178.01013237657025,145.42221824501758 177.21540412853938,144.8687914351467 176.75181265047286,144.71785663976334 175.95708440220915,144.1141165539011 175.3941518930951,144.06380481491215 175.06301512301434,144.51661010518728 174.89744673809037,144.96941458177753 174.96367409208324,145.97564383935241 175.26169718510937,146.9315579127433 175.2948108620476,147.48498019260296 175.26169718510937,148.9943075060437 175.2948108620476,150.00052069303638 175.42726557014976,151.05704021545534 175.2948108620476,152.66696620889707 175.3941518930951,153.1700659727212 175.3941518930951,153.72347455272393 175.16235615406185,154.1259527568327 175.09612880006898,155.08183591527632 175.32792453910224,155.98740608958178 175.36103821615689,156.4904992246884 175.46037924708799,157.04390051339578 175.3941518930951,157.9997726042784 175.59283395519014,159.00594983586052 175.75840234023053,160.16304868597945 176.02331175620202,161.11890894648968 176.05642543314025,161.67230007173202 176.32133484934457,162.67846264097898 175.95708440220915,163.83554462969187 175.49349292414263,164.23800668488548 175.09612880006898,164.43923747134977 174.59942364494782,164.64046809727733 174.10271848994307,164.69077572858077 173.63912701187655,164.94231373482035 172.04967051546555,165.1435439591005 169.89728151005693,165.54600392536668 169.36746267799754,165.79754107809276 168.83764384582173,165.89815586870827 167.84423353569582,166.1999999999971 167.34752838057466,166.09938532972592 167.1157326415414,165.64661881656502 166.950164256501,164.59016045588942 166.71836851746775,164.13739123134292 166.51968645537272,163.03061859117588 166.51968645537272,162.4772304485814 166.42034542444162,161.57168359396746 166.4865727784345,161.06860060206964 166.65214116347488,158.05008156133408 166.7514821945224,157.5973005868873 166.78459587157704,156.59111773123732 166.65214116347488,155.98740608958178 166.65214116347488,155.48431195001467 166.55280013254378,154.98121680616168 166.68525484052952,153.924713735134 166.51968645537272,153.47192534891656 166.02298130036797,153.37130559691286 164.86400260520168,153.01913614895602 164.3672974500805,152.9688261875708 163.3076597857289,152.81789624356315 162.71161359967664,152.81789624356315 162.2149084446719,152.9185162162903 162.2149084446719,153.82409416411247 162.14868109067902,154.37750130792847 162.11556741362438,154.88059765700018 162.18179476761725,155.83647795327124 162.11556741362438,156.84266382186615 162.51293153769802,157.1948279266362 162.44670418370515,158.30162619546172 162.34736315265764,158.85502350729075 162.77784095378593,159.76058012335852 163.60568287887145,160.31397423124872 164.632206866052,160.5152081510896 165.55938982230145,160.06243160566373 165.85741291521117,159.65996288209863 166.02298130036797,159.20718480013602 166.08920865447726,156.33957138952974 166.25477703940123,154.9309072366159 166.25477703940123,154.42781098793785 166.02298130036797,154.02533326607954 165.55938982230145,153.67316473205574 165.09579834423494,153.47192534891656 164.0030470030615,153.37130559691286 163.4732281708857,153.57254506049503 163.0427503697574,153.82409416411247 162.71161359967664,154.22657220740803 162.51293153769802,154.62904960793094 162.44670418370515,155.63524029726977 162.51293153769802,156.13833413555403 162.47981786064338,157.09420966116886 162.4135905066505,158.10039050818887 162.51293153769802,159.20718480013602 162.77784095378593,159.65996288209863 163.20831875491422,160.11274015085655 163.67191023298074,160.4145912114036 164.73154789709952,160.5152081510896 165.65873085334897,160.3642827263393 165.89052659238223,159.9618144849228 166.0560949773062,159.40841960374382 166.15543600835372,158.85502350729075 166.15543600835372,157.74822766870784 166.221663362463,157.24513704435958 166.18854968529195,156.79235462361248 166.25477703940123,156.33957138952974 166.221663362463,154.7799784673698 166.1223223314155,154.32719161783461 165.85741291521117,153.87440395467274 165.02957099012565,153.37130559691286 164.49975215806626,153.32099570597347 163.1089777238667,153.52223520971893 162.51293153769802,154.27688191759808 162.44670418370515,154.9309072366159 162.51293153769802,157.09420966116886 162.44670418370515,157.64760962413857 162.51293153769802,158.20100837211066 162.4135905066505,158.6537882617995 162.34736315265764,159.10656733809446 162.61227256874554,159.50903694532462 162.91029566177167,159.86119732430961 163.34077346289996,160.16304868597945 163.80436494096648,160.46489968628157 164.267956419033,160.5655166060169 164.76466157415416,160.5152081510896 165.22825305222068,160.5655166060169 165.65873085334897,160.31397423124872 166.08920865447726,159.35811091784853 166.221663362463,156.74204541562358 166.08920865447726,154.52843031815428 165.98986762342975,154.07564301640377 165.55938982230145,153.72347455272393 165.02957099012565,153.42161547782598 164.03616067999974,153.32099570597347 163.539455524995,153.42161547782598 163.14209140080493,153.82409416411247 162.77784095378593,154.22657220740803 162.64538624580018,154.7799784673698 162.54604521475267,155.83647795327124 162.5791588916909,156.33957138952974 162.47981786064338,157.34575524950924 162.47981786064338,157.89915466029197 162.4135905066505,158.4022439790133 162.54604521475267,159.40841960374382 162.74472727673128,159.91150590962206 163.50634184782393,160.5655166060169 164.0030470030615,160.6158250507433 165.46004879125394,160.5152081510896 165.79118556133471,160.21335721120704 165.9567539462587,159.71027150776354 166.0560949773062,158.6537882617995 166.08920865447726,158.20100837211066 166.02298130036797,157.74822766870784 166.18854968529195,157.2954461518384 166.1223223314155,156.28926209111523 166.15543600835372,156.79235462361248 166.25477703940123,157.24513704435958 166.28789071633946,158.70409708816442 166.221663362463,159.1568760740629 166.02298130036797,159.60965424652386" stroke="#4dd2ff" stroke-linecap="round" stroke-linejoin="round" stroke-width="0.5"><title>2022-05-04 3.2km</title></polyline><polyline fill="none" points="37.58640949323308,185.202510025003 37.71886420121882,184.8000000000029 37.2552727231523,185.35345111857168 37.884432586375624,185.202510025003 37.45395478524733,185.60501940721588 36.26186241302639,185.70564665214624 35.334679456893355,186.00752814635052 33.94390502257738,185.9069010218227 34.3081554697128,186.15846875790157 34.10947340761777,186.66160347645928 34.50683753169142,187.0137971817312 34.37438282370567,187.46661693687201 34.47372385463677,188.07037534427946 34.73863327084109,188.52319320084644 34.97042900987435,189.47913933689415 34.97042900987435,189.98226742542465 35.23533842584584,190.3847691731935 35.50024784181733,191.391020729905 35.765157258021645,193.1016391551093 35.732043580850586,193.5544479710661 35.765157258021645,195.16442828293657 35.864498288952745,195.71785663976334 36.19563505903352,196.17066075484036 35.59958887286484,197.02595519681927 34.60617856262252,197.1265778815432 34.34126914665103,196.77439830936783 34.010132376570255,196.42221824501758 33.215404128539376,195.8687914351467 32.75181265047286,195.71785663976334 31.957084402209148,195.1141165539011 31.394151893095113,195.06380481491215 31.06301512301434,195.51661010518728 30.897446738090366,195.96941458177753 30.963674092083238,196.97564383935241 31.26169718510937,197.9315579127433 31.294810862047598,198.48498019260296 31.26169718510937,199.9943075060437 31.294810862047598,201.00052069303638 31.427265570149757,202.05704021545534 31.294810862047598,203.66696620889707 31.394151893095113,204.1700659727212 31.394151893095113,204.72347455272393 31.162356154061854,205.1259527568327 31.096128800068982,206.08183591527632 31.32792453910224,206.98740608958178 31.361038216156885,207.4904992246884 31.460379247087985,208.04390051339578 31.394151893095113,208.9997726042784 31.592833955190144,210.00594983586052 31.758402340230532,211.16304868597945 32.02331175620202,212.11890894648968 32.05642543314025,212.67230007173202 32.32133484934457,213.67846264097898 31.957084402209148,214.83554462969187 31.49349292414263,215.23800668488548 31.096128800068982,215.43923747134977 30.59942364494782,215.64046809727733 30.102718489943072,215.69077572858077 29.639127011876553,215.94231373482035 28.04967051546555,216.1435439591005 25.897281510056928,216.54600392536668 25.367462677997537,216.79754107809276 24.83764384582173,216.89815586870827 23.84423353569582,217.1999999999971 23.34752838057466,217.09938532972592 23.1157326415414,216.64661881656502 22.95016425650101,215.59016045588942 22.718368517467752,215.13739123134292 22.51968645537272,214.03061859117588 22.51968645537272,213.4772304485814 22.42034542444162,212.57168359396746 22.486572778434493,212.06860060206964 22.65214116347488,209.05008156133408 22.751482194522396,208.5973005868873 22.78459587157704,207.59111773123732 22.65214116347488,206.98740608958178 22.65214116347488,206.48431195001467 22.55280013254378,205.98121680616168 22.685254840529524,204.924713735134 22.51968645537272,204.47192534891656 22.022981300367974,204.37130559691286 20.864002605201676,204.01913614895602 20.367297450080514,203.9688261875708 19.3076597857289,203.81789624356315 18.71161359967664,203.81789624356315 18.21490844467189,203.9185162162903 18.21490844467189,204.82409416411247 18.14868109067902,205.37750130792847 18.115567413624376,205.88059765700018 18.181794767617248,206.83647795327124 18.115567413624376,207.84266382186615 18.512931537698023,208.1948279266362 18.44670418370515,209.30162619546172 18.347363152657636,209.85502350729075 18.777840953785926,210.76058012335852 19.60568287887145,211.31397423124872 20.632206866052,211.5152081510896 21.559389822301455,211.06243160566373 21.85741291521117,210.65996288209863 22.022981300367974,210.20718480013602 22.08920865447726,207.33957138952974 22.254777039401233,205.9309072366159 22.254777039401233,205.42781098793785 22.022981300367974,205.02533326607954 21.559389822301455,204.67316473205574 21.095798344234936,204.47192534891656 20.00304700306151,204.37130559691286 19.473228170885704,204.57254506049503 19.042750369757414,204.82409416411247 18.71161359967664,205.22657220740803 18.512931537698023,205.62904960793094 18.44670418370515,206.63524029726977 18.512931537698023,207.13833413555403 18.47981786064338,208.09420966116886 18.413590506650507,209.10039050818887 18.512931537698023,210.20718480013602 18.777840953785926,210.65996288209863 19.208318754914217,211.11274015085655 19.671910232980736,211.4145912114036 20.731547897099517,211.5152081510896 21.65873085334897,211.3642827263393 21.89052659238223,210.9618144849228 22.056094977306202,210.40841960374382 22.155436008353718,209.85502350729075 22.155436008353718,208.74822766870784 22.221663362463005,208.24513704435958 22.188549685291946,207.79235462361248 22.254777039401233,207.33957138952974 22.221663362463005,205.7799784673698 22.12232233141549,205.32719161783461 21.85741291521117,204.87440395467274 21.02957099012565,204.37130559691286 20.499752158066258,204.2706858048332 19.1089777238667,204.52223520971893 18.512931537698023,205.27688191759808 18.44670418370515,205.9309072366159 18.512931537698023,208.09420966116886 18.44670418370515,208.64760962413857 18.512931537698023,209.20100837211066 18.413590506650507,209.6537882617995 18.347363152657636,210.10656733809446 18.61227256874554,210.50903694532462 18.91029566177167,210.86119732430961 19.34077346289996,211.16304868597945 19.80436494096648,211.46489968628157 20.267956419033,211.5655166060169 20.76466157415416,211.5152081510896 21.22825305222068,211.5655166060169 21.65873085334897,211.31397423124872 22.08920865447726,210.35811091784853 22.221663362463005,207.74204541562358 22.08920865447726,205.52843031815428 21.989867623429745,205.07564301640377 21.559389822301455,204.72347455272393 21.02957099012565,204.42161547782598 20.03616067999974,204.32099570597347 19.53945552499499,204.42161547782598 19.14209140080493,204.82409416411247 18.777840953785926,205.22657220740803 18.645386245800182,205.7799784673698 18.546045214752667,206.83647795327124 18.579158891690895,207.33957138952974 18.47981786064338,208.34575524950924 18.47981786064338,208.89915466029197 18.413590506650507,209.4022439790133 18.546045214752667,210.40841960374382 18.744727276731282,210.91150590962206 19.506341847823933,211.5655166060169 20.00304700306151,211.6158250507433 21.46004879125394,211.5152081510896 21.791185561334714,211.21335721120704 21.956753946258686,210.71027150776354 22.056094977306202,209.6537882617995 22.08920865447726,209.20100837211066 22.022981300367974,208.74822766870784 22.188549685291946,208.2954461518384 22.12232233141549,207.28926209111523 22.155436008353718,207.79235462361248 22.254777039401233,208.24513704435958 22.28789071633946,209.70409708816442 22.221663362463005,210.1568760740629 22.022981300367974,210.60965424652386" stroke="#4dd2ff" stroke-linecap="round" stroke-linejoin="round" stroke-width="0.5"><title>2022-05-04 3.2km</title></polyline><polyline fill="none" points="69.21502274554223,217.20000000001164 66.12679698551074,209.5870980041509 66.53467585961334,186.03938780582394 58.90151407546364,184.79999999998836 58.84324566507712,194.36090193744167 60.99917685589753,198.16749996552244 64.96142877428792,196.66256976674777 65.4858444693964,188.07551739548217 63.44645009981468,185.59674970130436 59.65900341281667,187.19024480952066 59.83380864467472,196.83962064338266 61.93147142510861,198.07897480094107 65.25277082715183,196.0428911416675 65.3693076481577,187.19024480952066 62.397618709364906,185.59674970130436 59.71727182343602,187.45582677077618 59.42592977057211,196.0428911416675 61.11571367713623,197.81339920169557 63.62125533120707,197.90192441930412 65.3693076481577,196.0428911416675 65.3693076481577,187.278772147547 61.64012937201187,185.77380499624996 59.48419818119146,188.34109882629127 59.65900341281667,196.66256976674777 64.26220784755424,198.07897480094107 65.71891811164096,196.48551881927415 65.83545493287966,187.63288132328307 64.02913420507684,185.685277357843 61.523592551006004,185.59674970130436 59.1345877177082,188.51815302539035 59.71727182343602,196.57404430175666 63.56298692082055,198.34455024113413 65.77718652226031,195.77731432308792 65.19450241653249,186.304970456491 63.79606056306511,185.3311666266527 59.83380864467472,186.1279153735959 58.78497725445777,194.62647960425238 60.64956639241427,198.07897480094107 64.84489195328206,197.63634871377144 65.89372334326617,190.81985118042212 64.78662354266271,186.3934979713231 61.11571367713623,185.59674970130436 59.2511245389469,189.58047673516558 59.1345877177082,196.13141671268386 60.882640034658834,197.90192441930412 64.20393943693489,197.63634871377144 65.4858444693964,195.51173734548502 65.3693076481577,187.80993580515496 59.83380864467472,187.1017174536537 59.018050896702334,191.08543096814537" stroke="#4dd2ff" stroke-linecap="round" stroke-linejoin="round" stroke-width="0.5"><title>2022-03-10 3.4km</title></polyline><polyline fill="none" points="102.95250987564214,210.3050422273518 101.19564449507743,206.15317795690498 101.29324812733103,186.28289924695855 98.75555368873756,184.94829019115423 94.75380476657301,184.80000000001746 94.8026065826416,193.32658981674467 96.41306651488412,195.9216000387678 99.19477003393695,195.6250283595582 100.1708063564729,194.4387392748904 100.56122088537086,186.87605728776543 97.58431010181084,185.31901540991385 95.1930211117724,186.95020197640406 95.0954174795188,194.29045287289773 98.31633734377101,195.9216000387678 100.36601362098008,193.99387989123352 100.36601362098008,186.5053336234123 97.58431010181084,185.46730539397686 95.1930211117724,187.09849130900693 95.0954174795188,193.91973660889198 97.19389557291288,195.9216000387678 100.2684099888429,194.14216641162056 100.46361725323368,187.32092519692378 99.19477003393695,185.61559531846433 96.36426469881553,185.76388518401654 95.38822837627959,186.7277678664832 95.0954174795188,193.6231633312418 97.58431010181084,195.99574292142643 100.1708063564729,194.66116876681917 100.36601362098008,187.32092519692378 99.73159001127351,185.9863198713283 97.48670646967366,185.39316040917765 95.1930211117724,187.24678058247082 95.43703019234817,194.73531190131325 98.5115446082782,195.99574292142643 100.70762633380946,194.14216641162056 99.73159001127351,185.68974025856005 96.65707559557632,185.39316040917765 95.1930211117724,187.32092519692378 95.24182292784099,194.29045287289773 96.94988649210427,195.77331422877614 99.24357185000554,195.84745714106248 100.41481543716509,193.84559331159107 100.0244009080343,186.35704405375873 95.92504835361615,185.83803009448457 94.50979568588082,190.3608416475763 94.26578660530504,187.6916480473592 94.50979568588082,184.80000000001746 101.24444631126244,185.17072536677006 101.5372572079068,201.11156609089812 102.61089716269635,209.04465976552456 105.73421339469496,216.08791869395645 105.24619523342699,217.20000000001164" stroke="#4dd2ff" stroke-linecap="round" stroke-linejoin="round" stroke-width="0.5"><title>2022-03-08 3.7km</title></polyline><polyline fill="none" points="144.38245383498725,187.19275916568586 144.05437344999518,186.6942695639009 145.26827087427955,187.09306132503843 145.07142264337745,185.846834956581 146.18689595209435,185.5477397026698 145.33388695132453,184.8000000000029 144.67772618145682,186.79396756390634 145.202654797351,184.99939747306053 145.16984675871208,186.14592985232593 142.05308310198598,186.3453262503026 141.82342683256138,187.49185244912223 142.6764358333312,189.485798515263 143.16855641070288,196.76356652585673 141.7906187940389,196.81341352041636 138.77227925264742,194.76967857991986 138.54262298322283,195.26815205921594 138.80508729128633,205.93524600027013 139.85494452295825,214.05987630001619 137.82084613642655,215.40564843545144 131.390470591723,217.1999999999971 130.07814905198757,213.9601891866041 130.34061336005107,204.489731926049 125.87872012495063,203.84174014176824 125.97714424040169,209.27484996359271 127.15823362627998,211.06924558570608 128.56897928146645,211.16893385331787 129.61883651313838,210.27173801236495 129.71726062870584,205.3371032603318 128.73301947384607,204.29035001776356 127.68316224205773,204.24050451588118 126.30522462539375,205.58632957618101 126.43645677936729,210.52095940260915 127.9784345885273,211.16893385331787 129.61883651313838,210.37142659821257 129.65164455166087,205.63617480942048 128.70021143544,204.439886463937 126.46926481777336,205.0380313530768 126.4036487408448,209.5739167961874 127.61754616512917,211.01940143693355 129.75006866711192,210.07236072096566 129.71726062870584,205.93524600027013 128.8642516278196,204.39004099174053 126.6333050102694,204.68911367520923 126.27241658698767,209.87298327039753 127.48631401115563,211.21877797211346 129.5860284747323,210.17204938658688 129.71726062870584,205.3869485433388 129.3563722053077,204.53957737833844 127.9784345885273,204.14081348197942 126.43645677936729,205.23741266439902 126.27241658698767,209.9726720155886 127.15823362627998,211.11908972456877 128.2408988964744,211.21877797211346 129.71726062870584,210.07236072096566 129.71726062870584,205.53648433271155 128.8642516278196,204.439886463937 126.6333050102694,204.78880449010467 126.00995227892417,207.5801311465766 125.81310404790565,203.7420489487704 130.4718455140246,203.39312945988786 132.60436801600736,191.13079203222878 133.49018505529966,190.78185491914337 136.8366049816832,192.57638344858424 137.6896139823366,192.17760044550232 137.91927025199402,190.48276557690406 142.31554741004948,190.83170310799323 143.49663679569494,189.7848890518071 145.72758341324516,190.383069049989 145.46511910518166,185.846834956581 145.202654797351,187.04321238980629 143.95594933454413,186.8936655241123" stroke="#4dd2ff" stroke-linecap="round" stroke-linejoin="round" stroke-width="0.5"><title>2021-12-30 4.7km</title></polyline><polyline fill="none" points="177.22164613823406,217.20000000001164 173.26418801234104,207.2631533931708 174.3634819361614,185.80209946262767 166.99821264646016,184.80000000001746 166.9432479502866,194.82088660114096 168.97694170940667,197.0755530045135 171.4503530379152,196.99204705801094 173.09929392370395,195.0714056904253 173.37411740480457,187.2217362585361 170.84574137988966,185.30105003147037 167.8776477855863,186.30314829354757 166.99821264646016,194.6538737915398 169.30672988656443,196.90854109506472 171.12056486099027,197.0755530045135 172.87943513900973,195.48893717260216 173.31915270839818,187.1382283451385 171.56028243037872,185.46806657500565 168.37233005138114,185.96911580636515 166.77835386164952,194.1528349625587 168.59218883607537,196.99204705801094 171.67021182260942,196.65802310573054 173.31915270839818,194.9878993438906 173.37411740480457,187.6392755759589 171.28545894939452,185.38455831154715 167.3280008236179,186.55367248418042 167.0531773425173,194.9878993438906 169.4716239752015,196.99204705801094 172.87943513900973,195.40543090962456 173.26418801234104,187.1382283451385 170.07623563322704,184.96701674364158 167.43793021608144,186.6371805142553 166.99821264646016,194.9878993438906 168.53722413966898,196.825035115442 172.54964696173556,195.9064682382741 173.53901149344165,187.8897989662073 172.98936453147326,186.30314829354757 170.5159532027319,185.46806657500565 167.71275369694922,186.8877045045956 167.16310673498083,195.40543090962456 168.8120476207696,196.99204705801094 172.05496469617356,196.74152911890997 173.09929392370395,195.48893717260216 173.31915270839818,187.8062911859597 171.94503530371003,185.30105003147037 167.1081420389237,185.96911580636515 167.1081420389237,195.65594964887714" stroke="#4dd2ff" stroke-linecap="round" stroke-linejoin="round" stroke-width="0.5"><title>2021-12-27 3.1km</title></polyline><polyline fill="none" points="33.257080184994265,268.20000000001164 35.14169383631088,237.75910926738288 20.858306163921952,235.79999999998836 22.842110007302836,256.2950453268131 26.11538634914905,259.4596718509565 30.578944996464998,259.76106416102266 33.55465076165274,256.74713564192643 33.157889992929995,241.52661279868335 27.107288270723075,237.60840873478446 22.742919815005735,240.4717137052794 24.230772697599605,255.69225781754358 28.09919019252993,259.76106416102266 33.05869980040006,257.1992256870726 32.66193903191015,241.52661279868335 27.702429423341528,238.06051024148474 22.842110007302836,240.62241366587114 24.627533466322348,257.500618900056 29.983803843380883,259.9117602717015 33.356270377058536,257.048529035761 32.66193903191015,241.97871195885818 27.90080980793573,238.06051024148474 24.82591385068372,238.36191109591164 22.34615904628299,241.82801226899028 23.23887077602558,256.2950453268131 28.29757057642564,259.30897565040505 33.257080184994265,257.1992256870726 33.05869980040006,242.43081084860023 27.206478462787345,238.2112106840941 22.445349238812923,241.67731254867977 23.23887077602558,255.69225781754358 27.702429423341528,259.30897565040505 31.967607686761767,258.7061905481387 33.85222133807838,254.33598416345194 32.76112922444008,241.52661279868335 26.41295692510903,237.90980976942228 23.33806096808985,239.115412704763 22.544539430877194,242.2801112490124 23.33806096808985,256.2950453268131 29.983803843380883,260.2131524011493 33.55465076165274,255.39086388295982 32.56274883984588,240.77311359671876 28.892711729742587,237.90980976942228 24.429153081728145,238.2112106840941 21.552637509070337,243.48570720432326 22.842110007302836,257.048529035761 29.19028230616823,259.61036802100716 33.65384095371701,255.54156086529838 33.85222133807838,241.37591301859356 26.908907886128873,237.15630695724394 22.34615904628299,239.86891356139677 22.34615904628299,255.54156086529838 26.809717694297433,259.4596718509565 33.157889992929995,255.69225781754358 32.959509608568624,242.12941161851631 31.670037110103294,239.41681313776644 26.214576540980488,237.75910926738288 22.04858846985735,240.92381349718198" stroke="#4dd2ff" stroke-linecap="round" stroke-linejoin="round" stroke-width="0.5"><title>2021-12-07 3.6km</title></polyline><polyline fill="none" points="66.7013183911331,251.61150299955625 65.27957186941057,236.9232405841467 59.4788460615091,235.80000000001746 58.39831870503258,238.30568653190858 58.96701731369831,247.896283719223 62.0948596613016,249.53789617092116 64.5971335391514,248.84669168715482 65.39331159123685,247.2050766137836 64.88148284342606,238.3920892571623 59.93380494834855,237.26885248505278 58.56892828771379,242.36659596703248 60.04754467017483,249.01949291137862 64.0853047913406,249.36509515339276 65.50705131306313,243.7490245285444 64.4265239565866,238.04647825306165 59.93380494834855,237.96007545903558 58.91014745295979,244.87224448335473 60.38876383542083,248.76029104890767 62.4360788265476,250.3154998960381 64.71087326074485,249.71069711941527 65.10896228707861,240.98416299017845 64.0853047913406,238.47849196509924 59.93380494834855,237.61446411011275 58.51205842685886,241.58897796081146 60.38876383542083,249.62429665366653 64.5971335391514,249.4514956709172 64.88148284342606,238.99690785002895 62.60668840887956,237.5280612295901 60.04754467017483,238.04647825306165 58.73953787027858,240.8113585577812 60.44563369615935,249.36509515339276 63.91469520877581,249.53789617092116 64.99522256525233,248.2418868583336 65.39331159123685,240.63855405594222 63.11851715669036,237.61446411011275 59.93380494834855,238.13288102985825 58.91014745295979,239.51532311391202 59.1376268962631,247.46427940789727 61.52616105263587,249.88349799899152 64.14217465219554,249.4514956709172 65.05209242599085,248.2418868583336 65.33644173049834,240.20654250044026 63.630345904501155,238.04647825306165 61.35555147007108,237.5280612295901 59.19449675735086,240.12014013715088 59.25136661808938,248.32828759978293 62.37920896545984,249.71069711941527 65.22270200867206,247.29147756227758 64.88148284342606,239.51532311391202 61.07120216556359,237.78726981888758 59.19449675735086,240.63855405594222 59.9906748093199,248.84669168715482 62.26546924386639,249.79709756796365 65.16583214781713,248.15548609936377 65.10896228707861,239.860932945041 64.02843493060209,238.13288102985825 61.63990077422932,237.61446411011275 59.59258578333538,238.91050524549792 58.73953787027858,241.2433695095824 58.51205842685886,248.673890393693 58.39831870503258,236.75043453037506 65.90514033904765,236.49122531991452 66.41696908662561,255.7586868534563 69.60168129508384,268.20000000001164" stroke="#4dd2ff" stroke-linecap="round" stroke-linejoin="round" stroke-width="0.5"><title>2021-12-06 4.4km</title></polyline><polyline fill="none" points="109.28475355857518,235.79999999998836 105.17150789592415,237.07422255314304 104.17314729827922,238.7731776465953 99.46088527725078,239.07656148524256 96.1862625166541,244.17336469207658 95.18790191900916,248.96670876033022 95.94665597321,254.97345092520118 94.82849210384302,260.312677630689 91.23439395206515,258.91720697746496 88.11950888729189,258.9778797478648 87.9597711917013,265.59113910171436 89.23767275665887,267.7753032403416 91.31426279991865,268.0786581290304 93.15124629973434,266.62255190094584 93.27104957133997,260.91940200305544 91.7535414629383,259.22057070813025 90.47563989786431,259.03855250618653 88.79839409375563,260.4340226020722 88.51885312632658,266.56188065678 90.23603335442021,268.20000000001164 92.11295127810445,268.01798717555357 93.11131187574938,266.56188065678 93.15124629973434,261.3441083430371 91.1944595281966,259.22057070813025 88.71852524578571,260.4946950695594 88.27924658288248,266.13718160803546 90.47563989786431,268.1393290707201 92.7918364845682,266.86523675662465 93.15124629973434,261.1014190786809 91.95321358251385,259.4632614744769 90.19609893043526,258.9778797478648 88.75845966988709,260.312677630689 88.47891870245803,266.31919555866625 90.87498413701542,268.20000000001164 92.75190206069965,267.1079214188794 92.95157418015879,260.61603996827034 90.5555087456014,259.09922525222646 88.79839409375563,260.4946950695594 88.75845966988709,265.833824781148 89.63701699569356,267.5326191111526 90.9548529847525,267.89664523207466 92.75190206069965,266.92590794040007 93.15124629973434,260.4946950695594 91.47400049550924,258.9778797478648 90.07629565882962,259.64527942205314 88.91819736547768,260.98007437356864 88.5987219742965,263.285615482484 88.35911543073598,260.25200512688025 94.50901671266183,258.2498057046032 96.6654756036587,244.78012128509 99.34108200541232,242.23173545423197 104.69229480915237,240.41144677752163 109.52436010201927,241.8676785910793 107.32796678692102,239.25859164315625 110.04350761277601,236.77083671538276 112.0402288082987,236.71015951162553" stroke="#4dd2ff" stroke-linecap="round" stroke-linejoin="round" stroke-width="0.5"><title>2021-11-11 3.8km</title></polyline><polyline fill="none" points="147.29409242537804,237.2581667841514 148.23600729327882,236.1510415884768 147.56067210494075,235.79999999999563 146.03228194196709,235.85400645747723 144.6282956294017,236.79911597365572 142.67337797908112,237.2311638383835 141.46488343161764,238.82432841174887 140.75400428602006,239.01334669202333 137.57282010960625,237.04214306736685 134.4804958263412,237.2581667841514 130.46402865374694,236.69110379178164 129.62874565768288,236.9341310796517 128.811234640365,238.6893151926197 128.04703955881996,239.20236470815144 127.49610822100658,241.71357899699797 129.13113025581697,252.37896961130173 128.98895442672074,261.6126285676946 131.068275927566,267.7140573292709 128.63351485395106,268.1999999999971 127.85154779383447,266.1752273550883 125.91440212208545,256.8068847297327 123.76399270672118,252.48696926559933 124.38601195905358,252.00097014199855 125.8966301434557,251.86597007547243 128.90009453351377,252.43296944924805 128.10035549476743,244.79177806778898" stroke="#4dd2ff" stroke-linecap="round" stroke-linejoin="round" stroke-width="0.5"><title>2021-11-07 3.5km</title></polyline><polyline fill="none" points="184.10882465471514,235.79999999998836 183.2848216491402,235.86039775556128 180.75251972966362,238.78966052098258 178.9638302786043,238.18569336830114 176.2908449191018,242.20203051670978 176.41143072483828,243.2891413885518 173.33649267972214,245.28215809253743 169.17628238344332,249.026544096414 164.45333832717733,255.24685545613465 163.4283589788829,257.87380483953166 160.31322566524614,262.31234182692424 160.01176115102135,263.48989143423387 160.35342093382496,264.9995572719781 161.6999624306918,266.8413295920618 164.15187381301075,267.95845946845657 166.18173487542663,268.1999999999971 163.87050693307538,268.0188446368702 161.25781447644113,266.3582438972662 160.39361620234558,265.2109093105828 159.89117534534307,263.58047180106223 160.15244459098903,262.46331022758386 163.4484566131723,258.0247775830212 163.68962822452886,256.36406928044744 166.80476153816562,251.92536117504642 169.638527971867,248.5434026214498 176.31094255344942,242.9871669146669 178.80304920428898,238.06489965401124 179.32558769563911,237.91390737814072 180.7324220953742,238.9104536677478 183.48579799197614,235.89059662447835 183.94804358045803,235.86039775556128 183.60638379771262,236.16238617902854" stroke="#4dd2ff" stroke-linecap="round" stroke-linejoin="round" stroke-width="0.5"><title>2016-05-06 3.5km</title></polyline></svg>